<svg xmlns="http://www.w3.org/2000/svg" viewBox="0 0 559.8 435.49"><defs><style>.cls-1{fill:#fc1662;}</style></defs><g id="Capa_2" data-name="Capa 2"><g id="Check"><path class="cls-1" d="M432.16,204.2c.84-.84,1-2.38,1.41-3.6l-.55-.2-10.84,10.84-.75-.75,40.05-40.05-.62-.61-4.62,3.67a4.54,4.54,0,0,1,1.37-2.3c5.62-5.62,11.31-11.19,16.88-16.88,8.74-8.95,17.33-18,26.08-26.91.93-.93,2.48-1.25,3.75-1.84l.62.88c-11.21,6.24-18.06,16.6-24.42,25.79,2.62-1.88,6.54-4.06,9.63-7.06,7.46-7.24,14.54-14.89,21.78-22.35,6.11-6.27,12.29-12.46,18.34-18.77C539.2,94.74,548,85.36,556.9,76a27.67,27.67,0,0,0,2-2.61l-.9-.84L521.82,105.1c2.71-3.81,6.11-6.93,9.2-10.36s5.47-7.15,8.54-10.41,6.92-6.12,10.13-9.42c3-3.13,6.9-5.59,9.14-10.17a45.84,45.84,0,0,0-6.37,1A8.72,8.72,0,0,0,548.58,68c-5.23,6-10.12,12.37-15.5,18.25-4.18,4.56-8.91,8.6-13.39,12.86l-.75-.75L529.54,84a7.48,7.48,0,0,0-2,1.24c-.6.44-1.22.86-1.83,1.27,6.92-10.08,17-17.36,23.34-28.42-1.23,0-2.2-.34-2.53,0-2.77,2.92-5.4,6-8.08,9l1.34,1.14L518,88l-.27-.27,10.78-13.52-.77-.78L510.44,88.54a5.13,5.13,0,0,1,.44-1.32Q521.42,75.06,532,62.9c2.52-2.91,5.31-5.71,2.59-10.72a8.41,8.41,0,0,1-.43-2.62L527.9,51l-1.16-1.12,9.42-19.2c-3.06,1.32-5.86,2.39-8.51,3.7-2.9,1.43-5,.75-7-3-2.58,3.06-4.8,6.19-7.52,8.79s-8.6,3.52-11.63,2c5.54-6.18,14.05-9.31,17.84-17.84l-5.76.43,2-2.7a7.26,7.26,0,0,1-.7-.77l-11.07,8,1.3.75c0,.91.43,2.08.06,2.71a72.45,72.45,0,0,1-4.38,6.5c-.25.34-.88.37-1.77.67l3.47-11.15c-2.56-.23-5.86.49-7.73-.91-2.9-2.17-3.09-.29-4.29.79-2.16,1.92-4.53,3.61-6.81,5.4l-.71-.76,4.74-9.77-5.87,2.05L483,23l-.63-.55L470.73,34.05l-.7-.65,2-3.29-.59-.51-6.1,6.11-.56-.55,3.49-5.43c-1.71,1.53-3.49,3.11-4.38,5.19-.77,1.87-.6,4.24-.84,6.32l4.27-3.8a104.72,104.72,0,0,1-5.85,9.91c-.53.81-1.28,2.12-1.94,2-2.73-.39-3.29,1.75-4.57,3.06l-3.2,3.2.75-2.71c-3.76,1.47-4,2.07-1.93,4.22l-5.8,6.52c-.19-.19-.41-.35-.58-.51l3.13-5-.89-.84-10,10-.71-.77c2.57-4.76,8.66-6.71,10-13.24l-8.62,10.64-.28-2.14a17.62,17.62,0,0,0-2.29,1.35c-2.55,2.1-5.13,4.09-7.46,6.37-4,3.81-7.64,7.9-11.65,11.65-2.61,2.41-5.83,4.2-8.46,6.6-3.86,3.51-7.43,7.34-11.13,11L395,97.22c-1.13,0-2.63-.4-3.29.15A48.2,48.2,0,0,0,386,103c-3.37,3.88-6.48,8-10,11.75-4.68,5-9.71,9.7-14.45,14.66q-5.19,5.37-10.06,11c-1.24,1.44-1.65,3.94-3.16,4.81-4.05,2.35-7.08,5.72-10.3,8.91-.77.78-1,2.89-1.69,2.86-3.57-.22-3.37,2.47-4.19,4.7-.55,1.47-2.22,2.38-3.82,4l.3-1.5c-4.21,4.68-8.63,9.64-13.11,14.54q-5.82,6.39-11.73,12.69c-3.36,3.62-6.72,7.25-10.19,10.79-3.79,3.87-7.86,7.48-11.54,11.46-5,5.41-9.58,11.19-14.61,16.57-4.65,5-9.61,9.61-14.53,14.34-1.43,1.43-3,2.7-4.71,4.2-.23.58-.33,1.81-1,2.45-4.34,4.11-8.81,8.1-13.51,12.41-.22-.87-.57-1.5-.41-1.69q9.28-10.94,18.64-21.78l-.09-.14-13,13-.58-.52,11.42-15.59c-4.34,1.5-4.7,7.67-10.71,7.25l5.62-8.92-1.15-.91-5.29,6-.26-.26.89-1.74c-.92.26-1.69.29-1.72.51-.12,1.85-3.83,2.16-1.56,5.21a10.89,10.89,0,0,1-2.5,2.24c-3.26,2.15-6.78,4-9.68,6.53-1.66,1.44-2,4.33-3.49,6-1.23,1.35-1.86,3.51-4.94,3.24-1-.08-2,.84-2.89,1.94-4.17-4.24-8.39-8.43-12.61-12.63-1-1-1.83-1.83-2.57-2.54.77.06,1.57.14,2.41.26l-12.81-8c.6,1.12,1.05,2.41,1.57,3.56h-.18l.23.14a6.15,6.15,0,0,0,2.05,2.78,10,10,0,0,0,4.47,1.12l1.16.7c-.18.23-.36.48-.53.72l-2.88-.48,17.31,17.31a24,24,0,0,1-3,2.44l-25-25-1.39,1.32,24.84,24.84a11.42,11.42,0,0,0-3.93,4.71s0,.08,0,.12a40.67,40.67,0,0,0-3.8-4.07c-.48-.48-2.15-.29-2-.83.85-3-1.37-2.28-3-2.53-1.1-.17-1.53-1.34-2.53-2.35l1.16,0c-3-2.54-6.2-5.2-9.34-7.91-2.73-2.35-5.42-4.74-8.1-7.14-2.3-2-4.62-4.09-6.84-6.24-2.42-2.35-4.59-5-7.13-7.22-3.45-3-7.29-5.67-10.7-8.74-3.15-2.84-6-6-8.92-9.1-.89-.9-1.62-2-2.52-3-.43-.07-1.41.08-1.8-.35-2.52-2.76-4.92-5.63-7.54-8.64.75-.34,1.33-.75,1.46-.65,4.75,3.65,9.46,7.35,14.17,11l.13-.1-8.13-8.13.53-.57,10.51,6.34c-.4-3.24-5.35-2.37-3.88-7.33l6.19,2.89.95-1.11-3.9-3.15.27-.27,1.24.4c0-.7.09-1.32-.09-1.3-1.48.24-1-2.71-3.93-.29-.12.12-1-.95-1.35-1.61-1.14-2.24-2-4.75-3.48-6.63-.86-1.07-3.15-.78-4.22-1.7-.86-.75-2.5-.85-1.7-3.41.42-1.35-1.37-2.16-2.43-2.93-2.2-1.6-2.45-5.13-5.66-5.73a3,3,0,0,1-2-.87c-.54-.78-.45-2.13-1-2.85-2.37-2.94-4.91-5.72-7.37-8.58-1.23-1.43-2.33-3-3.63-4.35-1.46-1.52-3.14-2.83-4.6-4.34-1.7-1.7-3-3.84-4.86-5.35-6.09-4.91-12.39-9.6-18.59-14.38a4.29,4.29,0,0,0-.58-.26l.35,2-4.22-1.31a6.35,6.35,0,0,0-.5.6l.46,1.55-.37.37-3.09-2.38-1,1.08,7.58,7.58-1,1-3.4-2.65.69,3.56L71.8,150l.59,2.6-3.51.13,2.44,2.44a3.79,3.79,0,0,1-2.63-.24,9.66,9.66,0,0,0-1.42-.17c-1.81,3.33-2.65,1.1-3.16,1-3.61-.45-6.91-1.35-10.33-2.08-.13,0-.37.09-.49.13l-1.82,2.62,0-.74c-2.25.77-4.7,1-6.73,2.46-3.9,2.86-6.8,3.78-9.46,3.06a8.17,8.17,0,0,0-1.64,0c0,6.27.21,12,3.68,15.49l-.89.78-4.8-1.29.72,5-1.1.73L45.49,201.9l-.6.5-9.58-6.18-.46.54L39,202.15l-1,1.1c-1.46-.45-3.17-.63-4.34-1.41-7.44-5-14.75-10.08-22.09-15.16l-1.12,1.2,7.1,7.1-1,1.11L7.85,192.7l.43,2.18L.76,189l-.76.76,15.36,15.36c2.32,2.25,4.69,4.46,7.07,6.64,1.18,1.09,3.49,1.51,3.46,3.24,0,2.81,1.9,3.5,3.09,5,1.33,1.66,3,3,4.43,4.57a10,10,0,0,1,1.2,2.41l-1,.89c-2-1.65-3.92-3.29-5.9-4.93-2.26-1.86-4.51-3.74-6.82-5.56-3.35-2.62-6.75-5.19-10.14-7.77l.77-.86,2.91,1.12a21,21,0,0,0-3.72-3.57c-1.29-1-2-2.87-5.14-1.38-.18.08-.29-.29-.45-.39-1-.74-2.11-1.46-3.17-2.19a48.43,48.43,0,0,0,3.44,7.37c1,1.86,1.89,3.93,3.38,5.34,1.16,1.16,3.73,1,4.8,2.2,5.76,6.68,11.25,13.62,16.83,20.47-2-.69-4.24-1.06-5.86-2.14-1.94-1.3-3.34-3.19-5-4.83l-.64.54,3.15,7.54-.46.4-7.86-7.85-.36.36L26,244.31l.21-.2L22.84,240l.35-.35,9.68,7.84,1.52-2.32c.82.82,1.39,1.51,2.08,2.07a20.61,20.61,0,0,0,2.45,1.43l-8.55-10.9c1.08.82,2.18,1.6,3.22,2.46,3.47,2.84,7.16,5.49,10.29,8.68,1.71,1.7,4.93,1.16,6.35,3.66,2.9,5.15,7.86,8.54,12,12.65l.49-.49L59,261l.44-.43,35,35c.53-.87.81-1.33.82-1.37l23.29,25.48.21-.21-1.58-2.58,17,17L133,335a23.56,23.56,0,0,0-2.85-2.8c-4.2-3-8.64-5.72-12.72-8.85a109,109,0,0,1-9.14-8.17c-1.92-1.83-3.43-4.09-5.43-5.84-4.27-3.73-8.92-7.07-13.1-10.9-7.07-6.47-13.92-13.18-20.88-19.79a11.29,11.29,0,0,0,2.8,4.91c3.33,3.24,6.86,6.27,10.26,9.43,5.27,4.89,10.54,9.77,15.71,14.74Q115.9,325.21,134,342.83c.71.81,1.38,1.65,2,2.51l-.45.89L71.71,285.76A6.85,6.85,0,0,0,74,289.3c2.25,2.26,2.25,2.26.57,3.43l12.88,12.88c9.09,9.18,18.13,18.41,27.25,27.56q9.6,9.6,19.3,19.1l-.11.14,1.1,1,.08-.08,3.88,3.82c.53.52,1.76.33,2.66.47l.27-.49-5.31-5.3.75-.75L148,361.75a1.75,1.75,0,0,0-.41.53c-.1.28-.21.54-.31.82l-4.92-4.93-.46.52,5.12,5.12c-.33.87-.66,1.75-1,2.61-3.92-3.64-8.39-6.72-12.33-10.35-2.81-2.6-4.94-5.94-7.72-8.58-3.47-3.27-7.27-6.17-11.08-9.33l-.11,1.87-4.24-4.24,2.12-.86L19,244a3.74,3.74,0,0,0,1,3c9.52,11.5,21.63,20.53,30.69,32.58.3.4.61.8.93,1.19l-4.57-4.57.13-.14-2.43-2.15L41,270.13a2,2,0,0,0-.17.27l-.57-.5a76.39,76.39,0,0,0-6.51-7.17l4,3.49.24-.28-9.57-9.57c-.27.27-.55.54-.84.79-3.57-3-7.26-5.91-10.91-8.84l24.15,24.15.21-.21L46,277.19l.67-.67,7.93,7.93.16-.16a27.06,27.06,0,0,0,11.29,7.11c3.57,1.11,5.9,6.17,8.81,9.37,3.36,3.67,6.59,7.49,10.24,10.84,2.28,2.1,5.57,3.21,7.87,5.3,1.91,1.74,2.88,4.46,4.61,6.44,2,2.34,4.7,4.08,6.62,6.49,7.63,9.66,17,17.7,25.09,27,4.54,5.2,9.46,10.06,14.51,14.81-.69,1.58-1.38,3.15-2.06,4.74-.08.18,0,.45,0,.59l2.87,1.58-1,.28c.33,2.7-.16,5.82,1.17,8,2.56,4.2,2.88,7.71,1.14,11.38a12.21,12.21,0,0,0-.47,2.14c7.64-1.77,14.69-3.64,20.16-8.43l.28.26.95.95-2.5,5.31,5.74-2.07c4,4.05,8,8.17,11.91,12.3L171.9,421.39l1.22,1.1,11.31-11.32,1.09,1.13-6.9,12.09,3-1.22-9.9,11.56.75.76,18.07-18.07q1.65,1.68,3.32,3.34a4.89,4.89,0,0,0,0,2.84c.06.21-.47.47-.64.71-1.28,1.58-2.53,3.18-3.8,4.77q4.07-2.24,7.91-4.82c2.07,2.06,4.15,4.11,6.21,6.18l.61-.61-6.08-6.08,1.3-.89,9.72,9.72c-1.09-2.86-2.24-5.55-4.13-7.55l-3.39-3.69q1.14-.75,2.25-1.53,7.84,7.29,15.79,14.49a10.89,10.89,0,0,0,1.75,1.09l.85-.88L207.36,417c.22-.2.43-.4.63-.61s.21-.25.32-.37c.3.27.6.54.92.8,2.12,1.8,4.76,3.1,6.83,5s3.67,4.47,5.74,6.46,3.24,4.55,6.54,5.5a34.58,34.58,0,0,0,.39-5,3.91,3.91,0,0,0-1.13-2.72c-3.9-3.11-8.14-5.89-11.89-9.15a53.18,53.18,0,0,1-5-5.17,9.06,9.06,0,0,1,1.3-1.93l6.24,3.79a3.29,3.29,0,0,0-.63-1.43c-.24-.39-.46-.82-.69-1.23,6.89,3.71,10.92,10.49,18.69,13.6.25-1,.69-1.85.46-2.06-1.85-1.69-3.82-3.26-5.76-4.87l-1.18,1.3-11.94-13.84.32-.28,8.82,6.13.78-.78L220.59,402l1-.93q6.63,5.26,13.23,10.56c1.89,1.51,3.64,3.25,8.22.1a9.27,9.27,0,0,1,2.21-.85l0-4.84,1.12-1.15,13.82,4c-.5-2.24-.84-4.31-1.4-6.22-.62-2.08.32-3.91,3.73-6.21a56.32,56.32,0,0,1-5.3-4.05l4.22-4.21c1.66,2.56,3.49,5,7.07,5.86l.73-4.59,1.82,1.09a8.62,8.62,0,0,1,.76-.72l-4.38-7.49-.85,1.19a7.5,7.5,0,0,0-.75.26l14.45-14.46-.21-.21,12.71-12.7-.67-.67L306,342l-.38-.38-13.78,13.78-.13-.14-11.95,13.47-.19-.19a65.68,65.68,0,0,0-5.2,4.31l4.38-5-.28-.24-9.13,9.13a6.3,6.3,0,0,1,1.07-2c2.31-2.76.81-2.55.17-3.33-1.16-1.39-2.09-3-3.12-4.51l.76-.72,7,2-.56-4.38,1.83.5.57-.62-7.26-7.26.66-.7,2.3,1,.52-.57-3.81-3.81.56-.56,3.75,1.81a6.46,6.46,0,0,0-3.39-2.58,4.76,4.76,0,0,0-.86-.07c1.3-.92,2.54-1.92,3.75-2.95a22.64,22.64,0,0,0,2.19,1.16l-.58-2.56,0-.05,5.05,3.49.63-.63-4.6-3.88c2.68-2.53,5.23-5.24,7.77-8l6.41,5.85c.26-.26.47-.55.71-.83L284.37,337c1.65-1.76,3.3-3.52,5-5.21l-.49-.49-5.14,5.14-.47-.4,55.37-55.36c-1-.43-1.49-.66-1.54-.66l40.19-38-.21-.21-3.84,2.83,27.21-27.21,1.09,1.09A60.37,60.37,0,0,0,397,223.1c-5.16,6.37-10.06,13-15.36,19.23-4.23,5-8.82,9.67-13.39,14.36-3,3.05-6.36,5.7-9.24,8.83-6.14,6.68-11.89,13.73-18.13,20.33C330.36,297,319.56,307.94,308.87,319a27.06,27.06,0,0,0,7.24-5.13c5.22-5.3,10.23-10.82,15.36-16.2,7.95-8.32,15.89-16.66,23.92-24.89q28.28-29,56.67-57.84c2.11-2.12,4.57-3.89,6.86-5.83.12.12.21.26.32.39L319,313.21a16.77,16.77,0,0,0,5.29-4c3.62-3.61,3.62-3.61,4.64-1.78l20.63-20.63q22-21.9,44.09-43.78Q413,223.68,432.16,204.2ZM264,383.92a31.48,31.48,0,0,1-4-2.1c-.22-.14-.13-.65-.21-1.31l6.61.57C265.59,382,264.77,383,264,383.92ZM188.12,401a22.49,22.49,0,0,0-8.69-10l.73-.59c2.77,2.61,5.53,5.22,8.26,7.87a2.91,2.91,0,0,1,.58,1.62C188.71,400.23,188.42,400.61,188.12,401Zm22-137.55c.39.47.8.94,1.21,1.4-.36.46-.71.92-1,1.32l-.1.11-1.44-1.7Zm-72.79,84-.28.25-.08-.07Zm-2,3.25-.28-.28.75-.75.22.21Zm41.5,44.45A15.09,15.09,0,0,0,175.7,394l.62-.51c3.23,3.36,6.65,6.53,10.06,9.7l-.8,1C182.69,401.16,179.79,398.11,176.87,395.09Zm17.33,24.82-3.09-3.1,1.1-1.09,2.92,2.92A7.27,7.27,0,0,0,194.2,419.91Zm.16-6.34,1.39-1.4,2.84,2.72c-.48.52-1,1.06-1.4,1.61l-.05.05Zm9.42-.81-1.23-1.46h0a16.65,16.65,0,0,1,1.58,1.05C204,412.48,203.9,412.62,203.78,412.76Zm53.4-20.42c-.1-.1-.22-.18-.31-.29-1.61-1.72-1.24-6.31.58-9.07a19,19,0,0,1,3.59,4.54C259.75,389.12,258.47,390.73,257.18,392.34Zm12.23-14.59-.53.57c.07-.3.14-.6.23-.89ZM266.66,354l.35-.49.71.86ZM283.17,337l-.28.27-.43-.43.25-.26Z"/><path class="cls-1" d="M544,99.86c-.37-.37-.78-.68-1.18-1l17-17c-2.86,1.1-5.55,2.24-7.55,4.13q-15.13,13.85-29.94,28.08c-2.56,2.45-4.24,5.82-6.7,8.41-7.13,7.45-14.59,14.59-21.65,22.1-3.78,4-6.93,8.62-10.67,12.67-2.6,2.81-5.93,4.94-8.57,7.72-3.28,3.47-6.18,7.28-9.33,11.08l1.86.12L463,180.4l-.87-2.12-91,93.66a3.74,3.74,0,0,0,3-1c11.5-9.52,20.53-21.63,32.58-30.69,5-3.77,9.72-8.43,11.88-15.36,1.11-3.57,6.18-5.9,9.38-8.81,3.66-3.36,7.48-6.59,10.84-10.23,2.09-2.29,3.21-5.57,5.3-7.87,1.73-1.91,4.45-2.88,6.44-4.62,2.34-2,4.08-4.7,6.49-6.61,9.66-7.64,17.69-17,27-25.1,12.73-11.13,23.51-24.47,35.37-36.64,7.74-7.94,15.92-15.45,23.86-23.2,4.85-4.74,9.59-9.59,14.39-14.39l-.61-.6Z"/><polygon class="cls-1" points="378.55 102.35 321.95 158.97 323.27 160.35 352.74 130.89 353.41 131.48 350.72 135.09 351.25 135.56 381.48 102.81 381.11 102.44 378.09 104.36 381.76 99.14 379.85 101.05 379.63 100.81 378.55 102.35"/><path class="cls-1" d="M319.39,153.72l-.49,2.89,20.86-20.86-.36-.36-5.56,4.71-1.13-1.36c4.25-3.53,8.05-8.12,12.92-10.24,2.46-1.08,3.73-2,4.1-3.52l.32.39,11.43-11.44a4,4,0,0,0-.29-.31l-11.36,9.87c0-.31-.06-.65-.12-1-3.49,2.85-7,5.38-10.1,8.33-6.42,6.12-12.66,12.42-18.91,18.71-6.41,6.4-6.36,6.45-6.78,11.58l4.74-7.91C318.9,153.37,319.14,153.55,319.39,153.72Z"/><path class="cls-1" d="M458.07,33.41c1.38-1.48,2.64-3.22,4.32-4.25,5.65-3.46,11-7.14,14-13.72l-2.68.61,3.55-5.13-.63-.63L454.4,36.75A15,15,0,0,0,458.07,33.41Z"/><path class="cls-1" d="M270.83,205.71a5.25,5.25,0,0,1,2-1.67h0a52.18,52.18,0,0,1,6.08-1.17c-2.54-1.61-2.54-1.61-.22-7.84-3.29,3.73-6.51,7.51-9.9,11.14a34,34,0,0,1-4.15,3.24,31.42,31.42,0,0,0-4.41,3.73c-.3.29.77,1.8,1.36,3.09C265,212.3,267.9,209,270.83,205.71Z"/><path class="cls-1" d="M275.15,216.63h0c5.76-6.2,12.8-11.07,17.57-18.32.31-.46.65-.88,1-1.31,1.67-1.61,3.34-3.22,5-4.85-2.3,2.29-4.92,4.37-7.05,6.77-8.47,8.16-16.93,16.41-24.34,25.64A90.38,90.38,0,0,0,275.15,216.63Z"/><path class="cls-1" d="M443.87,190.11l.52.46,21.69-21.69-.51-.47Z"/><path class="cls-1" d="M305.17,170.49c1.33-2.14,1-5.3,1.58-9.14l-8.05,12.81C301,172.93,304.05,172.3,305.17,170.49Z"/><path class="cls-1" d="M258.41,224.8l3.82-3.08c-3.4.38-7.05,3.51-7.12,5.58s-.24,4-.3,5l6.08-6.09Z"/><polygon class="cls-1" points="266.16 224.31 265.97 224.14 253.04 235.79 253.86 236.61 266.16 224.31"/><path class="cls-1" d="M470.68.71c-.26-.25-.55-.47-.82-.71l-7.81,9.1a3.51,3.51,0,0,0,.55.47Z"/><polygon class="cls-1" points="539.7 76.14 545 69.98 543.37 68.81 539.17 75.77 539.7 76.14"/><path class="cls-1" d="M296.62,189.77l-1-1-4.56,4.55,1.2,1.2Z"/><polygon class="cls-1" points="427.14 63.36 426.85 63.07 414.38 75.54 414.64 75.86 427.14 63.36"/><path class="cls-1" d="M170.39,229.12h0a50.17,50.17,0,0,1,1.17,6.08c1.61-2.54,1.61-2.54,7.84-.22-3.72-3.29-7.5-6.51-11.14-9.9a36.13,36.13,0,0,1-3.24-4.15,31.35,31.35,0,0,0-3.72-4.41c-.3-.3-1.8.77-3.09,1.36,3.93,3.43,7.24,6.3,10.52,9.23A5.32,5.32,0,0,1,170.39,229.12Z"/><path class="cls-1" d="M157,230.57h0c6.2,5.76,11.07,12.81,18.32,17.58a17.45,17.45,0,0,1,1.61,1.22c-8.89-9.23-17.79-18.56-27.85-26.64A90.16,90.16,0,0,0,157,230.57Z"/><path class="cls-1" d="M154.27,223.23c.48-.85.89-1.55,1.42-2.49l3.08,3.83c-.38-3.4-3.51-7.06-5.58-7.13s-4-.24-5-.3Z"/><polygon class="cls-1" points="145.24 215.91 144.41 216.73 156.71 229.03 156.88 228.84 145.24 215.91"/><polygon class="cls-1" points="214.79 412.47 220.95 417.77 222.12 416.15 215.16 411.94 214.79 412.47"/><path class="cls-1" d="M178,244.28l-4.55-4.56-1.2,1.2,4.8,4.36Z"/></g></g></svg>