<?xml version="1.0" encoding="utf-8"?>
<!-- Generator: Adobe Illustrator 24.1.1, SVG Export Plug-In . SVG Version: 6.00 Build 0)  -->
<svg version="1.1" id="Capa_1" xmlns="http://www.w3.org/2000/svg" xmlns:xlink="http://www.w3.org/1999/xlink" x="0px" y="0px"
	 viewBox="0 0 377.8 381.3" style="enable-background:new 0 0 377.8 381.3;" xml:space="preserve">
<style type="text/css">
	.st0{fill:#E50282;}
	.st1{fill:#030303;}
</style>
<g>
	<path class="st0" d="M251.4,141.5c-10,10.2-20.1,20.3-30.1,30.6c-2.2,2.2-3.1,0.4-4.3-0.8c-8.8-8.8-17.7-17.6-26.4-26.6
		c-2.3-2.3-3.5-2.3-5.7,0c-8.6,8.9-17.4,17.4-26,26.3c-2.2,2.3-3.5,2.4-5.8,0c-19.2-19.4-38.5-38.8-57.9-58
		c-2.5-2.5-2.3-3.7,0.1-6.2c30-29.8,59.8-59.8,89.7-89.8c1.5-1.5,2.4-3.3,4.9-0.7c20.2,20.5,40.6,40.8,61,61.2
		c0.2,0.2,0.3,0.6,0.5,0.9C251.3,99.5,251.4,120.5,251.4,141.5z M219.2,110.1c-0.6-0.7-1.1-1.3-1.7-1.9c-9.3-9.3-18.6-18.6-27.8-28
		c-1.9-1.9-2.8-1.3-4.3,0.2c-9,9.1-18,18.2-27.2,27.2c-1.7,1.7-2.1,2.7-0.1,4.6c9.2,9,18.2,18.1,27.2,27.2c1.7,1.7,2.6,2.2,4.6,0.2
		c8.9-9.2,18.1-18.2,27.1-27.3C217.7,111.7,218.4,111,219.2,110.1z"/>
	<path class="st1" d="M356,261.3c-0.3,15.6-12,27.9-27,28.2c-14,0.3-28,0.3-42,0c-15.2-0.4-26.6-12.1-26.8-27.3
		c-0.2-13.7-0.2-27.3,0-41c0.2-15.3,12.4-27.6,27.6-27.9c13.3-0.2,26.7-0.2,40,0c15.9,0.2,28.3,13,28.4,28.8
		c0,15.6-12.5,28.7-28.3,29.1c-11.8,0.3-23.7,0.1-35.5,0.1c-8.8,0-13,3.1-13.1,9.4c-0.1,6.4,4.3,9.7,12.9,9.7c8.2,0,16.3,0,24.5,0
		C338,270.4,338,270.4,356,261.3z M308.5,231.9c5.6,0,11.3,0,16.9,0c0.3,0,0.7,0,1,0c6.3-0.3,10.6-4.2,10.5-9.6
		c0-5.2-4.2-9.5-10.1-9.6c-12.5-0.2-24.9-0.2-37.4,0c-6.3,0.1-10.3,4.3-10.1,9.9c0.2,5.5,4,9.1,10.2,9.2
		C295.9,232,302.2,231.9,308.5,231.9z"/>
	<path class="st1" d="M114.9,221.7c-12-8.7-25.6-9.8-39.6-9.3c-8.7,0.3-17.3,0-26,0.1c-7.3,0.1-10.8,3.5-10.9,10.7
		c-0.1,12.2-0.1,24.3,0,36.5c0.1,7,3.9,10.7,10.9,10.8c12.7,0.1,25.3,0.1,38,0c10.1,0,19.2-3.4,27.6-9.1c1,13.5-11.3,27.6-25.2,28.1
		c-15,0.6-30,0.6-45,0c-13.3-0.5-25.2-13.4-25.5-26.9c-0.3-14-0.3-28,0-42c0.3-14.7,12.1-26.8,26.7-27.1c14.3-0.4,28.7-0.4,43,0
		C103.5,193.8,116.2,207.8,114.9,221.7z"/>
	<path class="st1" d="M250.2,221.9c-11.6-8.3-24.2-10-37.5-9.5c-9.5,0.3-19,0-28.5,0.1c-7.2,0.1-10.7,3.6-10.7,10.8
		c-0.1,12-0.1,24,0,36c0,7.4,3.8,11.1,11.1,11.1c12.5,0.1,25,0,37.5,0c10.3,0,19.5-3.4,28.1-9.2c0.5,14-11.5,27.7-25.4,28.2
		c-14.8,0.6-29.7,0.5-44.5,0c-13.5-0.5-25.6-13.3-25.9-27.1c-0.3-14-0.3-28,0-42c0.4-14.7,12.2-26.7,26.8-27
		c14.2-0.3,28.3-0.4,42.5,0C238.2,193.7,250.3,206.6,250.2,221.9z"/>
	<path class="st1" d="M123.5,289.4c3.3-22.7,1.1-45.3,1.6-67.9c0.3-12.7,7.7-23.6,19.2-27.7c0.6-0.2,1.2-0.2,1.8-0.3
		c-3.3,22.6-1.2,45-1.7,67.4c-0.3,13.3-7.4,23.9-19.2,28.1C124.8,289.3,124.1,289.3,123.5,289.4z"/>
	<path class="st1" d="M251.4,141.5c0-21,0-42,0-63c10,9.9,20,19.9,30.1,29.7c1.4,1.4,1.4,2.1,0,3.5
		C271.4,121.6,261.4,131.6,251.4,141.5z"/>
	<path class="st0" d="M170.4,330.1c-2.2,0.3-2.8-0.6-3-1.6c-0.5-2.8-2.2-3.4-4.7-3.1c-2.4,0.3-5.6-1.4-6.5,2.6
		c-0.7,3.2-3.3,2.2-5.3,2.2c-10.1,0.2-10.1,0.2-10.1-10c0-3,0-6,0-9c0-0.8,0.1-1.9,1.1-2c1.5-0.1,1.3,1.2,1.3,2.1
		c0,4.5,0.2,9,0,13.5c-0.1,2.6,0.8,3.1,3.3,3.5c5.3,0.7,8.3-0.9,9.6-6.3c0.9-3.8,2.7-7.5,4-11.2c0.3-0.8,0.7-1.6,1.6-1.6
		c1-0.1,1.4,0.7,1.7,1.5c0.5,1.4,1.1,2.8,1.6,4.2C166.7,319.9,168.5,324.9,170.4,330.1z M165.4,323c-1.2-3.2-2.3-6.3-3.7-10.3
		c-1.4,4-2.5,7.1-3.7,10.3C160.6,323.7,162.8,323.7,165.4,323z"/>
	<path class="st0" d="M20.2,309.4c1.9,4.4,0.7,9,1.3,13.4c0.2,1.9-1.8,5.5,2.2,5.3c3.4-0.2,8.1,2.8,9.7-3.5
		c1.2-4.6,3.2-9.1,4.9-13.6c0.6-1.4,1.3-3.1,3-0.9c1.1,1.4,6.4,17.9,6.4,20.1c-1.4,0.3-1.9-0.8-2-1.7c-0.6-3.2-2.8-3.3-5.2-3
		c-2.3,0.2-5.3-1.1-6,2.6c-0.4,2.2-2,2.2-3.8,2.2c-11.6,0.6-11.6,0.7-11.6-11.1C19.2,316,18.7,312.7,20.2,309.4z M39.9,313
		c-1.5,4.1-2.5,7.1-3.7,10.4c2.8,0,6.3,1,6.7-0.4C43.8,320,41.7,317.1,39.9,313z"/>
	<path class="st1" d="M319.7,323.6c0-3.8,0-7.6,0-11.4c0-1.1-0.5-2.7,1.1-2.8c1.9-0.2,1.2,1.6,1.3,2.6c0.1,5.3,0,10.6,0,15.9
		c0,0.9,0.4,2.1-1,2.4c-1.2,0.3-1.7-0.6-2.3-1.5c-3-4.5-6-9-9.6-14.4c-1.1,4.9-0.4,8.9-0.6,12.9c-0.1,1,0.6,2.8-1,2.9
		c-2.1,0.1-1.3-1.9-1.3-3c-0.1-5-0.1-10,0-14.9c0-1-0.8-2.5,0.9-3c1.7-0.5,2.2,1.1,2.9,2.1c2.8,4.2,5.6,8.4,8.4,12.6
		C318.9,323.9,319.3,323.7,319.7,323.6z"/>
	<path class="st1" d="M229.7,347.6c0,4.1,0,8.3,0,12.4c0,0.9,0.2,2.3-1.3,2.2c-1.5-0.1-1.1-1.4-1.1-2.3c0-5.5,0-11,0-16.5
		c0-0.9-0.3-2.1,1.1-2.3c1.2-0.2,1.7,0.7,2.3,1.6c2.9,4.4,5.8,8.8,9.2,13.8c1.6-4.4,0.6-8.3,0.9-12.1c0.1-1.2-0.7-3.2,1.2-3.2
		c2,0.1,1,2.1,1,3.2c0.1,5,0.1,10,0,15c0,0.9,0.5,2.1-0.6,2.6c-1.4,0.6-2-0.5-2.7-1.5c-3-4.5-6-9-9-13.4
		C230.4,347.3,230.1,347.5,229.7,347.6z"/>
	<path class="st1" d="M63.9,347.5c0,4.1,0,8.1,0,12.2c0,1,0.5,2.7-1.4,2.5c-1.4-0.1-1-1.5-1.1-2.4c0-5.3,0-10.6,0-15.9
		c0-0.9-0.4-2.1,0.8-2.6c1.5-0.6,2.1,0.7,2.7,1.6c2.9,4.3,5.8,8.7,8.7,13.1c0.4-0.1,0.9-0.1,1.3-0.2c0-4,0-8,0-12
		c0-1-0.5-2.7,1.3-2.5c1.4,0.1,0.8,1.6,0.9,2.4c0.1,5.3,0.1,10.6,0,15.9c0,0.9,0.5,2.1-0.7,2.6c-1.4,0.5-2-0.7-2.6-1.7
		c-2.9-4.4-5.9-8.8-8.8-13.2C64.6,347.3,64.3,347.4,63.9,347.5z"/>
	<path class="st1" d="M211.9,330.1c-2.2,0.9-2.6-0.8-3.3-2c-1-1.9-2-3.8-3-5.7c-1-1.9-2.8-1.6-4.4-1.3c-1.7,0.2-1,1.7-1.3,2.8
		c-0.6,2.2,1.4,6.1-1.4,6.1c-2.2,0-0.8-4.2-1-6.5c-0.3-3.3,0.2-6.7-0.1-10c-0.4-3.7,1.1-4.7,4.5-4.3c1.8,0.2,3.7-0.1,5.5,0.3
		c4.1,0.8,6.6,6.2,3.5,8.7c-4,3.3-1.8,5.6-0.4,8.6C211.1,327.7,212.1,328.7,211.9,330.1z M204.2,311.3c-2.1-0.1-4.7-0.7-4.2,3.1
		c0.3,2.1-0.9,4.9,3.1,4.4c2.7-0.3,6.1,0.6,6.5-3.4C209.9,311.7,207.2,311.1,204.2,311.3z"/>
	<path class="st1" d="M305.3,351.5c2.9,0.2,5.9-2,7.7,1.1c1.7,3.1-1.5,8.4-5.1,9.6c-3.8,1.2-8.4-0.8-9.3-4.5c-0.9-3.9-1-8,0-11.9
		c0.9-3.7,4.1-5.1,7.8-4.8c3.6,0.3,5.8,2.3,6.4,6.4c-1.1-0.2-1.9-0.2-2-0.4c-1.5-3.1-3.7-4.8-7.2-3.5c-3.3,1.3-3.2,4.3-3.2,7.2
		c0,2.1,0.1,4.3,0.6,6.4c0.6,2.4,2.5,3.5,4.9,3.3c2.6-0.2,4.1-1.7,4.6-4.4C311.4,351.1,306.4,354.8,305.3,351.5z"/>
	<path class="st1" d="M205.5,362.3c-3.9,0-7.7,0.1-11.6,0c-1.7,0-1.5-1.4-1.5-2.6c0-5.3,0-10.6,0-16c0-1.1-0.3-2.6,1.4-2.6
		c3.9-0.1,7.8,0,11.7,0.5c-2.3,2.6-5.2,1.6-7.7,1.5c-3.1-0.1-3,1.6-3,3.7c0,2-0.3,4.1,2.9,3.7c2-0.3,4.1-0.1,7.3-0.1
		c-2.5,2.9-4.8,2.2-6.6,2c-3.4-0.3-3.7,1.3-3.7,4.1c0,2.6,0.4,4.1,3.5,3.8c2.4-0.2,4.8,0,7.2,0C205.5,361,205.5,361.7,205.5,362.3z"
		/>
	<path class="st0" d="M69.5,319.5c-1.8,1.8-3.6,1.2-5,1.1c-3.5-0.3-4.6,0.9-4.5,4.4c0.1,2.6,0.9,3.5,3.5,3.4
		c2.4-0.1,4.9-0.5,7.2,0.4c0,0.5,0,1,0.1,1.4c-4.1,0-8.1,0.1-12.1-0.1c-1.1-0.1-1-1.5-1-2.5c0-5.3,0-10.6,0-16
		c0-1.2,0.1-2.5,1.7-2.5c3.8,0.1,7.8-0.7,11.9,0.7c-1.9,2.3-4,1.2-5.9,1.4c-2.4,0.3-5.3-1.1-5.3,3.5c-0.1,4.4,2.4,3.8,5,3.8
		C66.3,318.6,67.8,318,69.5,319.5z"/>
	<path class="st1" d="M114.8,361.6c-4.9,1.3-9,0.7-13,0.6c-1.7,0-1.3-1.7-1.3-2.8c0-5.2,0-10.3,0-15.5c0-1.1-0.4-2.7,1.2-2.8
		c4-0.2,8-0.5,13.1,0.5c-3.3,2.3-5.9,1.6-8.1,1.5c-3.3-0.3-3.7,1.1-3.8,4c-0.1,3.1,1.2,3.5,3.8,3.4c1.8-0.1,3.8-0.6,5.9,0.9
		c-2.4,1.9-4.7,1.2-6.8,1.1c-3.3-0.2-2.9,1.9-2.8,3.9c0,1.9-0.7,4,2.7,4C108.3,360.3,111.2,359.5,114.8,361.6z"/>
	<path class="st1" d="M302.5,319.5c-0.1,1.7,0,3.3-0.2,5c-0.5,3.9-3.1,5.8-6.8,5.9c-3.9,0.1-6.9-1.6-7.4-5.8c-0.3-2.6-0.4-5.3-0.2-8
		c0.3-5.2,3.3-8,7.7-7.8c4.3,0.2,6.7,3,6.9,8.1C302.4,317.8,302.4,318.6,302.5,319.5C302.4,319.5,302.5,319.5,302.5,319.5z
		 M300.2,319.7C300.2,319.7,300.2,319.7,300.2,319.7c-0.1-1-0.1-2-0.1-3c-0.1-3.2-1.4-5.5-4.9-5.6c-3.8,0-5.2,2.3-5.1,5.8
		c0,2.3,0,4.6,0.1,6.9c0.2,2.7,1.9,4.2,4.5,4.4c2.9,0.2,4.7-1.4,5.3-4.2C300.3,322.7,300.2,321.2,300.2,319.7z"/>
	<path class="st1" d="M215,318.4c0.2-1.7-0.6-4.7,1.6-7c2.1-2.2,4.7-3,7.7-2.1c2.8,0.8,4.8,2.4,5,5.5c0.2,2.8,0.4,5.7,0.2,8.5
		c-0.4,4.9-3.2,7.5-7.6,7.3c-4.2-0.2-6.6-2.7-6.9-7.5C214.9,321.8,215,320.6,215,318.4z M227.2,319.8
		C227.2,319.8,227.2,319.8,227.2,319.8c0.1-1,0.1-2,0.1-3c0-3.3-1.3-5.6-4.8-5.7c-3.7-0.1-5.2,2.3-5.3,5.7c0,2.3-0.1,4.6,0.1,6.9
		c0.3,2.8,2.1,4.6,4.9,4.5c2.8,0,4.6-1.7,4.9-4.6C227.3,322.5,227.2,321.1,227.2,319.8z"/>
	<path class="st1" d="M294.6,351.7c-0.2,2,0,4.1-0.6,5.9c-1.1,3.4-3.8,4.9-7.3,4.7c-3.3-0.2-5.9-1.7-6.5-5.1
		c-0.5-2.8-0.5-5.6-0.4-8.4c0.3-5.3,3-8.1,7.5-8c4.5,0.1,6.9,3,7.2,8.4c0,0.8,0,1.7,0,2.5C294.5,351.7,294.6,351.7,294.6,351.7z
		 M282.2,351.8C282.2,351.8,282.2,351.8,282.2,351.8c0,1.2-0.1,2.3,0,3.5c0.1,3.1,1.9,5,4.9,5.1c3.1,0,4.8-1.9,5-5
		c0.1-2.5,0.1-5,0-7.4c-0.2-3.1-2-4.9-5.2-4.8c-2.9,0.1-4.5,1.8-4.7,4.7C282.1,349.1,282.2,350.4,282.2,351.8z"/>
	<path class="st1" d="M49,351.3c-2,1.8-3.8,1.3-5.3,1.2c-3.2-0.3-4.6,0.4-4.6,4.1c-0.1,4,2,3.5,4.5,3.7c2.2,0.1,6.3-0.9,6.1,0.8
		c-0.3,2.7-4,1.1-6.2,1.2c-6.4,0.2-6.5,0.1-6.5-6.5c0-4,0-8,0-11.9c0-1-0.6-2.7,1.2-2.7c4,0,8-0.7,12.9,0.7
		c-3.5,2.2-6.5,1.4-9.3,1.3c-3.5-0.1-2.5,2.2-2.6,4c-0.1,1.9-0.3,3.6,2.7,3.4C44,350.4,46.4,349.9,49,351.3z"/>
	<path class="st1" d="M261.9,351.2c0.1,3,0.2,5.4-0.9,7.5c-1.6,3-4.3,4.1-7.6,3.7c-3.2-0.5-5.6-2.3-6.1-5.6c-0.3-2.5-0.2-5-0.2-7.5
		c0.1-5.3,2.7-8.3,7.1-8.4c4.4-0.1,7.3,2.8,7.6,8C261.9,349.8,261.9,350.9,261.9,351.2z M259.3,351.7
		C259.3,351.7,259.4,351.7,259.3,351.7c0-1,0-2,0-3c0-3.3-1.4-5.5-4.8-5.6c-3.5-0.1-5,2.2-5.2,5.4c-0.1,2.3-0.2,4.6,0.1,6.9
		c0.3,3,2,5,5.1,4.9c3.1-0.1,4.7-2,4.8-5.2C259.3,354,259.3,352.8,259.3,351.7z"/>
	<path class="st1" d="M34,351.6c0,9.1-4,12.3-12.9,10.8c-2-0.3-1.9-1.4-1.9-2.7c0-5.3,0.1-10.6,0-15.9c-0.1-2.2,0.7-2.7,2.8-2.8
		C31.4,340.4,34,342.7,34,351.6z M21.4,351.1c0,1.3-0.2,2.7,0,4c0.3,2-1.6,5.4,3,5.2c3.6-0.1,6.8-0.7,6.9-5.3c0.1-2.3,0.1-4.7,0-7
		c-0.2-4.7-3.6-4.8-7.1-4.9c-4.2-0.1-2.4,3-2.8,4.9C21.3,349.1,21.4,350.1,21.4,351.1z"/>
	<path class="st1" d="M96.2,349.9c0,2,0.1,4,0,6c-0.4,4.1-2.8,6.3-6.8,6.6c-4,0.3-7.1-1.6-7.6-5.6c-0.6-4.6-0.3-9.3-0.4-13.9
		c0-0.9,0.3-1.8,1.3-1.7c1,0.1,1.2,0.9,1.2,1.8c0,3.8,0,7.6,0,11.5c0,3.2,1.2,5.7,4.8,5.8c3.7,0.1,5.3-2.3,5.4-5.8
		c0.1-3.5,0-7,0-10.5c0-1.1-0.5-2.8,1-2.9c1.8-0.1,1.1,1.7,1.2,2.7C96.3,345.9,96.3,347.9,96.2,349.9
		C96.3,349.9,96.2,349.9,96.2,349.9z"/>
	<path class="st0" d="M121.1,309.3c0,5.2,0.4,10.5-0.1,15.7c-0.3,3.5-3.2,5.3-6.8,5.5c-3.8,0.2-6.9-1.5-7.4-5.2
		c-0.7-4.7-0.4-9.6-0.4-14.4c0-0.9,0.3-1.7,1.5-1.4c1.1,0.2,1,1.2,1,2c0,3.7,0,7.3,0,11c0,3.4,1.2,6.1,5.1,6c3.8-0.1,5-2.8,5.1-6.1
		c0.1-4.3,0-8.7,0-13C119.7,309.2,120.4,309.3,121.1,309.3z"/>
	<path class="st1" d="M180.3,319.6c0-0.8,0-1.7,0-2.5c0-8.8,0.4-9.1,9-7.9c3.6,0.5,5.4,2.6,5.5,5.9c0.1,3.5-1.8,6.5-5.6,6.2
		c-5.3-0.4-7.7,1.1-6.6,6.7c0.2,0.9,0.2,2.2-1.2,2.3c-1.5,0-1.1-1.3-1.2-2.2C180.3,325.2,180.3,322.4,180.3,319.6z M186.4,311.2
		c-3-0.7-4,0.8-3.7,4.1c0.2,2.4-0.4,4.7,3.4,4.3c3.1-0.3,6.3,0,6.3-4.4C192.3,311.4,189.6,311.2,186.4,311.2z"/>
	<path class="st1" d="M354.9,344.4c-2.5-0.6-4.3-1.3-6.2-1.4c-2.1-0.1-4,0.7-4.4,3.1c-0.4,2.6,1.3,3.6,3.3,4.2
		c0.6,0.2,1.3,0.2,2,0.3c3.2,0.4,5.9,1.6,6.3,5.3c0.3,2.7-0.9,4.9-3.6,5.9c-3.5,1.4-6.8,1.1-9.9-1.2c-0.7-0.5-0.7-1-0.2-1.6
		c0.6-0.7,1.2-0.4,1.7,0c2,1.4,4.2,1.9,6.6,1.2c1.7-0.5,2.9-1.6,2.9-3.6c0-2-0.9-3.1-2.9-3.5c-1.1-0.2-2.3-0.4-3.4-0.7
		c-3.3-0.7-5.4-2.3-5.2-6.1c0.3-3.8,2.8-5.2,6-5.4C350.4,340.8,353.2,340.7,354.9,344.4z"/>
	<path class="st0" d="M137.4,310.8c-2.5,0.8-5.1,0.5-7.6,0.4c-3.2-0.1-2.8,1.9-2.9,3.9c-0.1,2,0,3.6,2.8,3.5c2-0.1,4.3-0.7,6.6,0.9
		c-2,1.9-4.2,1.2-6.1,1c-3.2-0.2-3.4,1.6-3.4,4c0,2.5,0.3,4.1,3.5,3.9c2.4-0.1,4.9-0.6,8.6,1.1c-5.3,1.3-9.3,0.8-13.2,0.7
		c-1.6-0.1-1.3-1.7-1.3-2.8c0-5.2,0-10.3,0-15.5c0-1.4-0.1-2.8,1.8-2.8c3.7,0,7.5,0,11.2,0C137.4,309.7,137.4,310.2,137.4,310.8z"/>
	<path class="st1" d="M276.7,312.2c-1.8-0.4-3.7-1-5.5-1.2c-2.2-0.2-4,0.7-4.4,3.1c-0.4,2.5,1.1,3.6,3.3,4.2c0.5,0.1,1,0.1,1.5,0.2
		c3,0.5,6,1,6.7,4.8c0.5,2.7-0.3,5-2.9,6.2c-3.4,1.6-6.8,1.3-10-0.5c-0.6-0.4-1.5-0.9-0.8-1.9c0.4-0.6,1-0.6,1.7-0.2
		c0.8,0.5,1.7,1.1,2.7,1.3c2.9,0.6,6,0.7,6.9-2.9c1-3.8-2.3-4.2-4.9-4.6c-3.2-0.5-5.9-1.3-6.6-4.9c-0.4-2.5,0.6-4.8,2.8-5.9
		C270.7,308.2,274.1,308.4,276.7,312.2z"/>
	<path class="st1" d="M163.4,343.7c-2.2,1.2-3.6-0.8-5.3-0.8c-2.3,0.1-4.5,0.3-5,3c-0.5,2.8,1.2,3.9,3.6,4.4
		c1.3,0.3,2.6,0.4,3.9,0.8c2.6,0.7,3.8,2.4,3.9,5.1c0.1,2.6-1,4.5-3.5,5.5c-3.3,1.3-6.5,1-9.5-0.8c-0.5-0.3-1.3-0.6-0.9-1.5
		c0.4-0.9,1.1-1.1,2-0.5c1.9,1.3,3.9,1.9,6.2,1.4c1.9-0.4,3.4-1.4,3.5-3.6c0.1-2.3-1.3-3.3-3.3-3.7c-0.8-0.2-1.6-0.4-2.4-0.5
		c-3.8-0.5-6.4-2.3-5.8-6.5c0.6-4.4,4-5.4,7.8-5.1C160.3,341.1,162.4,341.3,163.4,343.7z"/>
	<path class="st1" d="M262.3,329.9c-3.8,0.9-7.7,0.3-11.6,0.4c-1.4,0-1.5-1-1.5-2c0-5.6,0-11.3,0-16.9c0-1.3,0.2-2.2,1.8-2.2
		c3.7,0,7.4,0,11.9,0c-2,3.1-4.2,1.7-5.9,2.1c-2.3,0.5-5.7-1.6-5.8,3.5c-0.1,4.9,2.9,3.6,5.4,3.8c1.3,0.1,3-0.7,4.2,1.3
		c-1.7,1.2-3.5,0.9-5.1,0.7c-4.1-0.6-4.6,1.4-4.5,4.8c0.1,2.5,0.9,3.2,3.3,3c2.5-0.2,5.1,0,7.6,0
		C262.3,328.9,262.3,329.4,262.3,329.9z"/>
	<path class="st1" d="M341.7,331c-9.4-6.2-9.4-6.2-18.1,0.1c2.8-7.7,5.2-14.2,7.6-20.8c0.3-0.7,0.7-1.2,1.4-1.1c1.3,0,1.5,1.1,1.8,2
		C336.6,317.4,338.9,323.6,341.7,331z M328.8,323.2c2.8,0,5,0,7.6,0c-1.2-3.5-2.3-6.6-3.7-10.4C331.3,316.5,330.2,319.6,328.8,323.2
		z"/>
	<path class="st1" d="M222.8,355.7c-0.6,4.6-2.4,6.5-6,6.7c-3.7,0.1-6.6-1.2-7.6-5c-0.9-3.8-0.9-7.6,0-11.4c0.9-3.9,4-5.3,7.6-5
		c3.5,0.3,6,2.1,6.5,7.1c-3.7-3.1-6.5-7.9-11-3.1c-1.9,2-1.7,12,0.2,13.8C217,363,219.6,358.4,222.8,355.7z"/>
	<path class="st1" d="M330.9,341.1c1.4-0.1,1.6,1.1,1.9,1.9c2.1,5.6,4.2,11.2,6.2,16.8c0.3,0.8,1.1,2-0.5,2.4
		c-1.1,0.3-1.5-0.7-1.6-1.5c-0.7-4.5-4.2-3.1-7-3.4c-2.6-0.3-4.1,0.5-4.6,3.1c-0.2,1-0.6,2.1-1.9,1.7c-1.6-0.5-0.4-1.7-0.2-2.4
		c1.9-5.5,4-10.9,5.9-16.4C329.6,342.5,329.9,341.5,330.9,341.1z M331.7,346c-0.3,0-0.7-0.1-1-0.1c-1.1,3.1-2.1,6.1-3.3,9.4
		c2.8,0,4.9,0,7.5,0C333.7,352,332.7,349,331.7,346z"/>
	<path class="st1" d="M131.2,362c2.4-6.5,4.6-13.1,7.2-19.6c0.8-2,2.2-1.8,3,0.3c2.2,5.9,4.4,11.8,6.5,17.6c0.3,0.7,0.7,1.7-0.4,2
		c-0.4,0.1-1.2-0.4-1.6-0.8c-4.6-5.7-8.2-5.7-12.3,0.3C133.1,362.3,132.4,362.5,131.2,362z M143.6,355.3c-1.3-3.5-2.4-6.6-3.9-10.6
		c-1.4,4.1-2.5,7.3-3.7,10.6C138.8,355.3,141,355.3,143.6,355.3z"/>
	<path class="st0" d="M85.3,311.8c-2.2,0.8-3.8-1.1-5.8-0.8c-2.1,0.3-4,0.7-4.3,3.2c-0.4,2.6,1.3,3.5,3.4,4.1c0.3,0.1,0.7,0.1,1,0.1
		c3.3,0.4,6.4,1.1,7.1,5c0.4,2.5-0.4,4.7-2.7,5.9c-3.3,1.8-6.7,1.5-10-0.3c-0.6-0.4-1.6-0.8-1.1-1.8c0.5-0.9,1.3-0.7,2.1-0.2
		c1.7,1.1,3.6,1.7,5.7,1.3c1.9-0.4,3.5-1.2,3.7-3.5c0.2-2.2-1-3.4-3.1-3.8c-0.8-0.2-1.6-0.4-2.4-0.5c-4.1-0.5-6.7-2.4-5.8-6.9
		c0.9-4.4,4.3-5.1,8.1-4.6C82.7,309.3,84.7,309.3,85.3,311.8z"/>
	<path class="st1" d="M245.5,320c-0.9,0.5-1.3,0.9-1.7,0.8c-5.5-0.6-9.5,0.2-7.9,7.3c0.2,0.9,0.1,2.2-1.4,2.1
		c-1.4-0.1-1.1-1.4-1.1-2.3c0-5.5,0-11,0-16.5c0-1-0.1-2.2,1.3-2.2c4-0.1,8,0,11.9,0.6c-2,2.2-4.4,1.3-6.6,1.4
		c-2.5,0-4.4-0.1-4.2,3.5c0.1,3.1,0.7,4.6,4.1,4.2C241.5,318.7,243.5,318.1,245.5,320z"/>
	<path class="st0" d="M103.2,315.2c-2.3,0-2.4-1.5-3.1-2.3c-1.5-1.7-3.3-2.1-5.4-1.6c-2.3,0.6-3.2,2.2-3.5,4.4c-0.1,1-0.2,2-0.1,3
		c0.2,3.4-1,7.3,3.1,9.2c4,1.9,5.8-1.5,8.4-3.6c0.1,3.7-1.9,5.6-5.1,6.1c-3.8,0.5-7.2-0.8-8.2-4.8c-1-3.9-1-8,0-11.9
		c0.9-3.5,3.9-5,7.3-4.8C100.3,309.1,102.8,310.9,103.2,315.2z"/>
	<path class="st1" d="M118.4,340.9c3,4.7,3.4,10.4,6.2,16.3c1.7-4.9,3-8.9,4.4-13c0.5-1.3,0.5-3.7,2.4-3c2,0.7,0,2.6-0.3,3.8
		c-1.4,4.9-3.2,9.8-4.8,14.6c-0.3,1.1-0.3,2.5-1.9,2.5c-1.3,0-1.2-1.4-1.5-2.2c-2.1-6.2-4.1-12.4-6.1-18.6
		C117.3,341.3,117.9,341.1,118.4,340.9z"/>
	<path class="st1" d="M188.8,341.6c-7.7-0.1-5.8,5.5-5.9,9.7c0,3,0,6,0,8.9c0,0.8,0,1.8-1.1,1.9c-1.5,0.1-1.4-1.1-1.4-2
		c0-4-0.2-8,0-11.9c0.2-3.4-0.1-6-4.5-5.1c-0.6,0.1-1.3-0.1-1.6-1.5C179.2,341.6,184,341.6,188.8,341.6z"/>
	<path class="st1" d="M280.4,361.4c-5.2,1.6-9.1,0.8-13,1c-1.7,0.1-1.6-1.4-1.6-2.5c0-5.5,0-11,0-16.5c0-1-0.1-2.3,1.3-2.1
		c1.5,0.1,1,1.5,1,2.4c0,3.8,0.3,7.7-0.1,11.5c-0.4,4,0.7,5.9,5,5.2C275,360.1,277,359.9,280.4,361.4z"/>
	<path class="st1" d="M356,329.7c-4.1,1.2-7.6,0.5-10.9,0.7c-1.6,0.1-1.9-0.9-1.9-2.2c0-5.6,0-11.3,0-16.9c0-0.7-0.4-1.8,0.9-2
		c1.5-0.1,1.4,1.1,1.4,2c0,4.1,0.3,8.3-0.1,12.4c-0.3,3.8,1,5,4.7,4.6C351.8,328.2,353.7,327.7,356,329.7z"/>
	<path class="st1" d="M284,320.1c0,2.7,0,5.3,0,8c0,0.9,0.2,2.2-1.3,2.2c-1.1,0-1.2-1-1.2-1.8c0-5.8,0-11.6,0-17.5
		c0-1,0.4-1.7,1.3-1.7c1,0.1,1.2,0.9,1.2,1.8C284,314.1,284,317.1,284,320.1z"/>
	<path class="st1" d="M318.8,341.2c0,7,0,14,0,21.1c-0.3,0-0.6,0-1,0.1c0-7,0-14.1,0-21.1C318.1,341.2,318.4,341.2,318.8,341.2z"/>
</g>
</svg>
