<svg xmlns="http://www.w3.org/2000/svg" viewBox="0 0 438.1 312.09"><g id="Capa_2" data-name="Capa 2"><g id="close"><path d="M417.65,86.1c3.39-2.17,7.15-3.72,10.57-5.84,3.23-2,7-3.27,9.88-6.68a40.33,40.33,0,0,0-5.6-.51,7.53,7.53,0,0,0-3.77,1.12c-5.7,4-11.18,8.33-17,12.17-4.5,3-9.36,5.4-14.06,8.07l-.47-.79,12-10a6.07,6.07,0,0,0-2,.62c-.6.24-1.21.46-1.81.69,8-7.08,18-11.13,25.75-19.13-1-.28-1.79-.76-2.15-.53-3,1.89-5.83,3.91-8.73,5.89l.89,1.25-22.6,12.21-.18-.29,12-9.18-.49-.82-17.81,9.12a4.87,4.87,0,0,1,.64-1q11.5-8.07,23-16.12c2.76-1.94,5.71-3.72,4.46-8.53a7.23,7.23,0,0,1,.19-2.31l-5.62-.13-.75-1.18L426.1,40c-2.87.48-5.47.79-8,1.34-2.75.6-4.39-.42-5.27-4a94.94,94.94,0,0,1-8.22,5.86c-2.85,1.64-8,1.16-10.27-.78,6-4.07,13.87-4.92,18.87-11.34l-5-.85,2.23-1.87a8.94,8.94,0,0,1-.44-.8L399,31.9l.93.91c-.15.78-.06,1.85-.51,2.3a62.86,62.86,0,0,1-5.08,4.58c-.28.23-.82.13-1.64.2L398,31.18c-2.12-.73-5.07-.82-6.36-2.41-2-2.45-2.55-.89-3.79-.24-2.24,1.17-4.6,2.11-6.9,3.15l-.45-.8,6.08-7.27-5.4.49,1.55-1.89-.42-.6L370,29l-.46-.71,2.39-2.36-.39-.55-6.46,3.88-.35-.58,4.09-3.86A13.88,13.88,0,0,0,364,28.3c-1,1.42-1.4,3.46-2,5.18l4.41-2.33a89.77,89.77,0,0,1-7,7.16c-.62.57-1.53,1.52-2.07,1.3-2.22-.91-3.15.78-4.51,1.63l-3.38,2,1.2-2.14c-3.49.46-3.86.91-2.52,3.17l-6.29,4.29c-.12-.2-.27-.38-.38-.55l3.72-3.62-.58-.89-10.62,6.38-.44-.8c3.18-3.49,8.75-3.85,11.29-9.1l-9.54,7.19.22-1.87a14.65,14.65,0,0,0-2.23.67c-2.6,1.23-5.2,2.37-7.66,3.81-4.15,2.39-8.13,5.08-12.32,7.4-2.72,1.49-5.82,2.32-8.55,3.8-4,2.16-7.84,4.65-11.75,7l-.41-1.52c-1-.22-2.14-.89-2.82-.57a42.18,42.18,0,0,0-6,3.53c-3.67,2.57-7.18,5.4-10.94,7.83-5,3.27-10.26,6.17-15.33,9.36q-5.51,3.47-10.83,7.21c-1.36,1-2.23,3-3.69,3.41-3.93,1.13-7.2,3.35-10.6,5.37-.82.49-1.48,2.23-2,2.06-3-.94-3.38,1.38-4.54,3.09-.71,1-2.09,1.47-3.61,2.31l-.27-.16.37-.78-.78.53c-3.63-2.15-7.28-4.26-11-6.26l5.63-5.65q.24.3.51.6l-1,2.34,2.72-1.64c.52,1,1,2,1.44,3l-2.08,1.25.82,1.45,6.9-4.14,1.2.11-.76-.38,23.82-14.31.45.65-3,2.48.36.51,32.49-21.34L279.7,68l-3,1L281,65.33l-2,1.21-.13-.24-1.24,1.07L224.08,99.52l-3.56-1.76,17.15-10.3-.23-.39-5.7,2.82-.67-1.39c4.35-2.09,8.53-5.17,13.1-5.94,2.32-.4,3.57-.93,4.2-2.14l.2.42,12.1-7.27-.18-.33-11.71,6c.05-.27.09-.55.12-.87-3.56,1.67-7.06,3.07-10.31,4.92-6.73,3.82-13.34,7.84-20,11.84l-1.55.93c-.69-.35-1.39-.71-2.08-1.08a29.91,29.91,0,0,1-3.67-2.77,28.27,28.27,0,0,0-4.14-2.87c-.32-.18-1.34,1.06-2.29,1.84,4.08,2,7.52,3.68,10.95,5.41l.21.1c-4.19,2.59-4.39,3.18-5.59,6.75-3.69-2-7.45-3.87-11.3-5.57a78.33,78.33,0,0,0,8.45,4.82c4.41,2.34,8.46,5.31,12.84,7.73l-2,1.33c-2.24-1.34-4.47-2.68-6.78-3.89-2.64-1.38-5.33-2.68-8-4,.19-.55.4-1.11.63-1.69l-1.38,1.33c-2.85-1.37-5.7-2.75-8.49-4.24-5.22-2.8-10.27-5.93-15.37-9-1.53-.88-3-1.94-4.6-3a5.29,5.29,0,0,1-2.29-.29c-4.45-2.74-8.82-5.6-13.51-8.59.68-.38,1.14-.82,1.33-.73,7.54,3.57,15.05,7.19,22.56,10.79l.1-.1-13.94-8,.31-.6,15.72,6.1c-2.24-3.32-7.53-2.23-8.53-7.39L185,81.09l.51-1.18-6.27-3.09.16-.29,1.67.36c-.43-.71-.63-1.36-.82-1.33-1.59.31-2.68-2.74-4.74-.14a9.3,9.3,0,0,1-2.46-1.6c-2.55-2.26-4.89-4.81-7.68-6.68-1.6-1.07-4.1-.68-5.85-1.59-1.42-.73-3.38-.77-3.85-3.43-.25-1.41-2.79-2.17-4.43-2.91-3.45-1.56-5.67-5.18-9.74-5.68a5.94,5.94,0,0,1-2.76-.81c-1.06-.78-1.69-2.17-2.77-2.89-4.37-2.93-8.84-5.68-13.27-8.53-2.22-1.43-4.35-3-6.62-4.34-2.53-1.51-5.21-2.77-7.74-4.28-2.91-1.68-5.58-3.82-8.59-5.3C90,22.56,80.07,18,70.22,13.32a7.36,7.36,0,0,0-.8-.24l1.51,2.08L65.3,14a5,5,0,0,0-.26.64l1.39,1.58-.23.39-4.89-2.33-.59,1.16,13,7.49-.59,1-5.42-2.59L70.46,25l-8.61-3.2L64,24.42l-4,.28,4.18,2.41a5.54,5.54,0,0,1-3.2-.14,12.61,12.61,0,0,0-1.74-.12c-.28,3.49-2.49,1.23-3.11,1.19-4.46-.32-8.8-1.12-13.18-1.74-.17,0-.38.12-.5.16-.23.95-.46,1.86-.69,2.77l-.45-.77c-2.2.89-4.94,1.17-6.5,2.8-3,3.11-5.84,4.16-9.33,3.52a12.16,12.16,0,0,0-1.91.09C27,41.33,30.34,47.19,36.3,50.66l-.61.84-6.3-1.14L33,55.5l-.88.81L59.63,76.19l-.42.54-14.54-6-.25.57,7.77,5.39-.57,1.17c-1.95-.41-4-.52-5.82-1.28-11.4-4.81-22.71-9.78-34-14.72l-.65,1.28,12.16,7-.56,1.19-12-3.14,1.7,2.22-12-5.73-.47.8L26.31,80.7c3.94,2.23,7.9,4.4,11.88,6.56,2,1.07,4.89,1.41,5.8,3.19,1.49,2.9,4.13,3.52,6.33,5,2.46,1.65,5.14,3,7.67,4.53a20.27,20.27,0,0,1,2.72,2.43l-.63,1c-3.19-1.61-6.37-3.23-9.57-4.83-3.65-1.83-7.3-3.68-11-5.45C34.18,90.52,28.81,88,23.45,85.49l.43-.92,4,1a46.62,46.62,0,0,0-6.29-3.52c-2.07-1-3.91-2.88-6.74-1.22-.16.09-.5-.29-.74-.38-1.63-.72-3.25-1.42-4.88-2.12a94.19,94.19,0,0,0,8,7.43c2.23,1.88,4.35,4,6.86,5.36,2,1.15,4.87.85,6.8,2.08,10.37,6.65,20.55,13.56,30.81,20.39-2.69-.63-5.51-.93-8-2a77.79,77.79,0,0,1-8.44-4.77c-.15.2-.31.39-.46.58l7.81,7.63-.31.44-13.47-7.78-.23.4L60.19,120.6l.13-.23-6.21-4.12.22-.38,15.56,7.68c.23-1.06.33-1.59.51-2.44,1.41.81,2.45,1.5,3.55,2s2,.76,3.64,1.37L61.66,113.65c1.7.81,3.41,1.57,5.09,2.41,5.61,2.79,11.35,5.36,16.75,8.51,2.92,1.69,6.39,1,9.4,3.52,6.2,5.18,13.83,8.47,20.88,12.54l.3-.52-6.4-3.69L108,136l26.44,15.26-4.78,3.32-.1-.06-.12-.19,1.12-1.28c-.83,0-1.49-.12-1.56.07-.5,1.54-3.7,1-2.42,4.08a9.47,9.47,0,0,1-2.59,1.37c-3.21,1.13-6.58,1.94-9.57,3.48-1.71.88-2.58,3.25-4.22,4.35-1.33.88-2.32,2.58-4.87,1.7-1.36-.46-3.24,1.38-4.69,2.46-3,2.26-7.28,2.45-9.69,5.77a5.92,5.92,0,0,1-2.05,2c-1.19.54-2.72.42-3.87,1-4.68,2.41-9.26,5-13.9,7.48-2.32,1.25-4.71,2.36-7,3.69-2.55,1.48-5,3.21-7.51,4.69-2.88,1.73-6,3-8.8,4.94-9,6.22-17.75,12.67-26.61,19a8.35,8.35,0,0,0-.6.59l2.55-.32-3.77,4.36a4.24,4.24,0,0,0,.43.52l2-.44.24.39-4.41,3.15.73,1.08,12.84-7.72.61,1L27,225.24l4.52-.66-7,6,3.34-.56-1.7,3.64,4.14-2.48a5.56,5.56,0,0,1-1.67,2.72,11.58,11.58,0,0,0-1,1.47c2.92,1.94-.13,2.78-.47,3.3-2.44,3.74-5.24,7.15-7.91,10.69-.11.13-.08.38-.1.51l2.09,1.94-.89,0c-.29,2.36-1.37,4.89-.7,7,1.28,4.1.8,7.13-1.45,9.87a12,12,0,0,0-.85,1.72c7.32.12,14.09,0,20-3.53l.44.94-4,5,6.24-.65.28,1.16L71,258.89l.27.62L59,269.33l.38.49,8.47-4.17c.25.35.51.71.75,1.06-1.3,1.5-2.41,3.28-3.94,4.47-9.73,7.64-19.57,15.12-29.37,22.64l.8,1.18,12-7.23.77,1.07-8.55,8.93,2.77-.4-10.83,7.69.48.8,26-15.64c3.86-2.37,7.68-4.78,11.5-7.22,1.88-1.2,3.6-3.59,5.6-3.52,3.26.1,5.08-1.91,7.44-3.11C86,275,88.44,273.31,91,271.86a19.88,19.88,0,0,1,3.45-1.21l.52,1c-3,2-5.91,4-8.87,6-3.36,2.3-6.75,4.6-10.08,7-4.84,3.43-9.63,6.91-14.44,10.38l-.59-.82,2.85-3a46,46,0,0,0-6.13,3.8c-1.89,1.32-4.41,2-4.34,5.3,0,.19-.49.3-.69.47-1.42,1.07-2.81,2.15-4.22,3.23a95.07,95.07,0,0,0,10.4-3.42c2.73-1.05,5.57-1.88,8-3.4,2-1.19,3.1-3.86,5.12-4.94,10.84-5.85,21.82-11.41,32.77-17.07-1.86,2.05-3.49,4.38-5.6,6.05a81.13,81.13,0,0,1-8.26,5.06c.09.23.18.46.28.69l10.46-3.13.23.48-13.33,8,.23.39,21.33-12.82-.13-.22-6.62,3.44-.22-.38,14.26-9.89-1.89-1.62c1.39-.84,2.5-1.42,3.51-2.12s1.64-1.38,3-2.51l-17.24,8.66c1.52-1.1,3-2.23,4.57-3.3,5.16-3.55,10.19-7.32,15.57-10.52,2.89-1.73,4-5.09,7.63-6.51,7.54-2.91,14.12-8,21.09-12.18l-.31-.52L147,246.06l-.27-.46,58.17-35c1.47.85,2.93,1.71,4.37,2.6-.76.5-1.52,1-2.29,1.51-11.29,7.22-22.73,14.2-34.12,21.3a23.8,23.8,0,0,0,7.21-2.82c5.53-3.39,10.94-7,16.42-10.47L210.41,214l1.57,1-29.34,18.32A14.73,14.73,0,0,0,188,231c3.83-2.3,3.83-2.3,4.31-.53l21.82-13.12.73-.43c.88.63,1.76,1.27,2.61,1.94,4.31,3.37,9.31,6.29,15.63,6.54,3.26.13,6.37,3.87,9.54,5.91,3.66,2.33,7.25,4.82,11.08,6.82,2.4,1.26,5.42,1.45,7.83,2.7,2,1,3.43,3.1,5.34,4.38,2.25,1.51,4.88,2.38,7,4,8.62,6.41,18.31,11.08,27.23,17.06,12.26,8.21,25.94,14.28,38.87,21.53,8.44,4.73,16.61,9.93,24.94,14.87,5.09,3,10.25,5.92,15.37,8.87l.37-.64-13.94-8.05c.23-.39.4-.81.6-1.22l18.13,10.47a19.74,19.74,0,0,0-5.19-5.43q-15.09-9.62-30.41-18.89c-2.65-1.6-5.87-2.26-8.61-3.75-7.88-4.32-15.59-9-23.51-13.25-4.22-2.29-8.83-3.89-13.09-6.13-3-1.56-5.5-3.89-8.44-5.49-3.66-2-7.53-3.56-11.44-5.36l.32,1.6-4.53-2.61,1.59-1.21-64.78-36.16,3.38-2q16.37,9.42,32.79,18.75c.9.52,2.23.27,3.36.37l0-.51-11.58-6.68.46-.8,42.8,24.7.38-.65-4.14-3.07a4,4,0,0,1,2.24.63c6,3.47,12,7,18,10.42,9.52,5.34,19.08,10.54,28.57,15.9,1,.57,1.61,1.81,2.39,2.74l-.59.73c-7.8-8.05-18.08-11.48-27.25-14.76,2.17,1.78,4.89,4.59,8.12,6.52,7.79,4.66,15.83,8.89,23.75,13.32,6.66,3.73,13.27,7.53,20,11.21,9.87,5.42,19.77,10.76,29.68,16.1a25,25,0,0,0,2.64,1.05l.5-.94-35.6-23.1c3.82,1.43,7.22,3.58,10.81,5.41s7.24,3,10.68,4.85S385.53,300,389,302c3.31,1.86,6.26,4.56,10.63,5.4a42,42,0,0,0-2.27-5.14,7.56,7.56,0,0,0-2.81-2.75c-6.25-3.05-12.71-5.74-18.88-8.95-4.78-2.49-9.25-5.56-13.86-8.38l.46-.79,14.54,5.68a6.26,6.26,0,0,0-1.51-1.44c-.51-.4-1-.83-1.48-1.25,10.06,3.55,18.46,10.35,29.22,13.25-.26-1-.21-1.94-.59-2.14-3.08-1.67-6.24-3.2-9.38-4.78-.24.51-.49,1-.66,1.39l-21.64-13.86L371,278l13.84,6,.48-.83L368.69,272a4.38,4.38,0,0,1,1.2.07q12.64,6.14,25.28,12.33c3,1.47,6,3.19,9.62-.23a7.06,7.06,0,0,1,2.11-1l-2.62-5L405,277l18.3,3.6c-1.81-2.29-3.34-4.41-5-6.34-1.86-2.12-1.76-4,.94-6.54a98.79,98.79,0,0,1-9.11-4.36c-2.81-1.7-4.9-6.45-4.29-9.36,6.46,3.28,11,9.75,19.06,11l-1.66-4.75,2.71,1a7.8,7.8,0,0,1,.5-.77l-9.2-7.53-.34,1.26c-.76.24-1.65.84-2.27.67a64,64,0,0,1-6.46-2.23c-.35-.13-.51-.66-1-1.34l10.18.41c-.39-2.21-1.74-4.83-1-6.73,1.18-2.93-.45-2.66-1.63-3.43-2.1-1.39-4.07-3-6.09-4.52l.48-.77,9.31,1.79-3.06-4.48,2.41.43.32-.65-12.43-7.18.39-.75,3.22.95.3-.61L403,222.06l.34-.59,5.36,1.71a14.13,14.13,0,0,0-5.36-2.52c-1.75-.23-3.71.46-5.52.73l4.17,2.73a93.19,93.19,0,0,1-9.68-2.69c-.79-.27-2.07-.59-2.14-1.18-.28-2.38-2.21-2.37-3.61-3.16l-3.41-2,2.45,0c-2.09-2.84-2.66-2.94-4-.67l-6.81-3.42c.12-.2.21-.42.3-.6l5,1.49.5-.93-10.73-6.2.49-.77c4.59,1.09,7.61,5.78,13.43,5.47l-10.91-4.86,1.74-.72a14.93,14.93,0,0,0-1.66-1.62c-2.35-1.68-4.61-3.4-7.06-4.86-4.1-2.47-8.37-4.65-12.44-7.18-2.62-1.66-4.85-4-7.47-5.64-3.84-2.46-7.86-4.61-11.82-6.89l1.13-1.09c-.27-.94-.25-2.3-.86-2.74a42.73,42.73,0,0,0-6-3.51c-4-2-8.21-3.66-12.16-5.77-1.3-.69-2.59-1.41-3.87-2.13.16-.12.31-.25.47-.36a13.45,13.45,0,0,1,3.48-1.45l11.16,5.86.23-.4-2.29-2.1,5.22,1.91-2-1.18.16-.23-1.54-.57-7.78-4.48c2.34-1.24,4.34-3.05,6.72-4.13,9.79-4.43,18.57-10.65,28.13-15.55,13.12-6.74,25.06-15.76,37.67-23.55,8.23-5.09,16.74-9.72,25.09-14.61,5.11-3,10.15-6.09,15.22-9.14l-.38-.64-13.8,8.29c-.23-.38-.52-.74-.78-1.11L435.3,88.28a19.73,19.73,0,0,0-7.26,1.9q-15.72,8.53-31.27,17.44c-2.68,1.55-4.81,4-7.44,5.71-7.61,4.8-15.43,9.27-23,14.14-4,2.59-7.68,5.83-11.7,8.48-2.8,1.83-6.07,2.93-8.89,4.73-3.51,2.24-6.76,4.85-10.24,7.4l1.56.5-4.48,2.69-.28-2-14.69,9.12-5.46-3.15,21.23-12.76-.39-.65L328.31,144a3.87,3.87,0,0,1,1.64-1.66c5.95-3.57,11.93-7.09,17.84-10.72,9.29-5.74,18.47-11.58,27.76-17.28,1-.6,2.37-.53,3.57-.77l.34.87c-10.81,2.92-18.79,10.25-26.12,16.68,2.62-1,6.39-2.05,9.65-3.94,7.85-4.56,15.45-9.54,23.16-14.32,6.49-4,13-7.95,19.48-12,9.52-6,19-12.08,28.47-18.15a25.37,25.37,0,0,0,2.2-1.8l-.58-.9L398.26,99.92c3.1-2.65,6.63-4.57,10-6.83S414.36,88.21,417.65,86.1ZM222.48,100.48l-2.08,1.25C220.75,100.84,221.17,100.5,222.48,100.48Zm12.74,107.93-.68,1.17c-1.21-.78-2.47-1.49-3.74-2.17l1.33-.79ZM225,202.49l-2.06,1.4-5-2.15,2.92-1.65Zm-10.1,1,4.77,2.69-1.27.89-5-2.76Zm6.51,3.68,1.67.94-1.32.82L220,208C220.48,207.68,220.92,207.4,221.37,207.13Zm3.72-2.31,1.9-1.16,1.62.93-1.66,1ZM146.48,158.2l-5.08,2.92-3.08-1.72,3-2.12-.05-.13-3.35,2-2.38-1.32,4.23-3.52ZM135.7,152l3.8,2.2c-2,.41-3.4,2-5.06,3.06l-2.67-1.49Zm-4.56,4.37a23.06,23.06,0,0,0,2,1.59,5.27,5.27,0,0,1-3.65,0Zm3.26,2.44.53.34c.52.3,1.06.58,1.58.88l-9,5.44-.37-.57Zm.58,6.87c-4.55,2.56-9.17,5-14.06,7.65,0-.78-.16-1.39,0-1.52,5.36-3.85,10.74-7.66,16.12-11.48l2.94,1.62-1.52.78-2.34-1.3a14.46,14.46,0,0,0,1.68,1.64l-1.46.75C136,164.23,135.69,165.25,135,165.65Zm70.46,43.1,3.67-2.06,3,1.77,2.26,1.3c-1.07.74-2.14,1.48-3.22,2.2Zm8.71,4.87-1.68-.94,3.37-2.1,1.66.95Zm32,8.84-21-11.67,1.32-.79L240,217.63c2.26,1.31,4.31,3,6.45,4.47C246.35,222.22,246.26,222.33,246.17,222.46ZM315.05,160l-3.36,2.08c-1.86-1.06-3.7-2.13-5.55-3.21l3.16-1.9Z"/><path d="M364,23.11c5.52-1.73,10.8-3.73,14.78-8.65l-2.4-.05,4.09-3.59-.4-.67-24.43,17.7a13.25,13.25,0,0,0,3.81-2.05A20.05,20.05,0,0,1,364,23.11Z"/><path d="M314.67,155.94l22.94-13.79c-.11-.15-.22-.33-.33-.5l-22.95,13.79Z"/><path d="M165.3,254.54l-14.57,8.75-.08-.14-13,8.88-.12-.2c-1.76.72-3.45,1.53-5.11,2.41l4.57-3.19-.18-.27-10.13,6.09.32.58c-5,3.23-9.72,7-14.49,10.59l25.54-15.34-.13-.22,13.44-8.08-.43-.71,14.58-8.75Z"/><path d="M377,.78c-.17-.27-.37-.52-.55-.78l-8.53,6.06a3,3,0,0,0,.36.51Z"/><polygon points="419.5 79.19 425.28 75.1 424.15 73.77 419.13 78.77 419.5 79.19"/><polygon points="326.92 44.62 326.73 44.31 313.55 52.24 313.69 52.57 326.92 44.62"/><path d="M403.31,215.43a20.64,20.64,0,0,1,4.56,2.67c4.19,4,8.5,7.65,14.73,8.74l-1.12-2.12,5.13,1.83.39-.67-27.33-12.79A13.56,13.56,0,0,0,403.31,215.43Z"/><path d="M267.8,239.38,291,252.76l.28-.53-23.19-13.39Z"/><path d="M197,90.39l3.46,2.53c-1.08-2.78-4.54-5.15-6.31-4.75s-3.41.7-4.29.88l6.51,3.75C196.53,92,196.71,91.3,197,90.39Z"/><polygon points="199.22 96.61 186.48 88.35 185.97 89.23 199.12 96.81 199.22 96.61"/><path d="M81.14,139.53,70.9,133.62l-.34.57c-5.26-2.82-10.81-5.12-16.29-7.54l25.8,14.9.13-.23,13.58,7.84.41-.71,14.72,8.5.24-.41L94.42,148l.09-.14-14.05-7,.12-.2c-1.49-1.19-3-2.28-4.59-3.3l5,2.45Z"/><path d="M424.43,213.86l9.29,4.81c.16-.27.27-.57.41-.85l-9.43-4.53A3,3,0,0,0,424.43,213.86Z"/><polygon points="392.12 296.93 392.74 295.3 385.93 293.33 385.74 293.86 392.12 296.93"/><polygon points="371.09 196.13 371.27 195.81 357.95 188.12 357.73 188.41 371.09 196.13"/></g></g></svg>