<svg xmlns="http://www.w3.org/2000/svg" viewBox="0 0 168.27 166.27"><g id="Capa_2" data-name="Capa 2"><g id="Capa_4" data-name="Capa 4"><g id="Capa_2-2" data-name="Capa 2"><g id="Capa_1-2" data-name="Capa 1-2"><path d="M152,92.33c.82.73,1.53,1.58,2.34,2.33a12,12,0,0,0,2.46,2.13,10.79,10.79,0,0,0-.42-1.36,2.64,2.64,0,0,0-.61-.87c-1.46-1.23-3-2.39-4.39-3.64-1.11-1-2.13-2.06-3.18-3.09l.13-.14,3.42,2.53a2.15,2.15,0,0,0-.33-.46c-.12-.13-.22-.27-.33-.41,2.37,1.66,4.25,3.93,6.81,5.5,0-.25,0-.45-.09-.53-.71-.64-1.44-1.26-2.17-1.89l-.2.26-4.94-5,.05,0,3.23,2.55.14-.15-3.77-4a1.48,1.48,0,0,1,.29.12q2.94,2.48,5.87,5c.7.59,1.39,1.24,2.37.76a1.51,1.51,0,0,1,.54,0l-.51-1.36.2-.23,4.4,2.38c-.38-.67-.7-1.28-1.07-1.87s-.32-1.07.41-1.41c-.74-.61-1.48-1.14-2.12-1.77a2.92,2.92,0,0,1-.8-2.5c1.5,1.3,2.44,3.16,4.38,4.13l-.28-1.22.64.47a.93.93,0,0,1,.14-.14l-2.06-2.49-.11.25c-.2,0-.43,0-.58,0-.52-.32-1-.69-1.52-1-.08-.06-.11-.2-.2-.39l2.48,1c0-.54-.3-1.25-.06-1.62.37-.57,0-.64-.3-.92-.48-.5-.92-1-1.38-1.55l.14-.13,2.24,1.2-.63-1.28.58.3.09-.12-2.86-2.7.12-.13.76.49.09-.12-1.49-1.41.09-.11,1.27.85a4.71,4.71,0,0,0-1.25-1,5.78,5.78,0,0,0-1.37-.3l.95,1c-.82-.46-1.57-.94-2.3-1.43-.19-.13-.49-.31-.49-.45,0-.57-.48-.73-.8-1l-.79-.74.6.21c-.44-.82-.57-.89-1-.49l-1.58-1.36s.06-.08.09-.11l1.18.76.15-.17-2.47-2.32.14-.14c1.1.64,1.71,2,3.15,2.39l-2.55-2,.45,0a4.67,4.67,0,0,0-.36-.51c-.53-.58-1-1.17-1.6-1.71-.94-.91-1.93-1.77-2.86-2.69-.6-.6-1.09-1.32-1.68-1.92-.88-.89-1.81-1.72-2.72-2.57l.31-.16c0-.23,0-.54-.14-.69A14.08,14.08,0,0,0,143,59.52c-.94-.8-1.92-1.54-2.83-2.35-1.22-1.09-2.38-2.25-3.6-3.35-.87-.8-1.76-1.59-2.67-2.35-.35-.29-.89-.43-1.13-.76a16.09,16.09,0,0,0-2.23-2.36c-.19-.18-.65-.27-.66-.41-.08-.75-.64-.77-1.14-1a5,5,0,0,1-1-.89l.33.09-3.52-3.06-3.09-2.73c-.88-.79-1.76-1.57-2.63-2.37S117,36.18,116,35.33c-1.32-1.17-2.7-2.25-4-3.42s-2.36-2.23-3.52-3.36c-.36-.34-.68-.7-1-1.08a1.67,1.67,0,0,1-.56-.27c-1-1-2-2-3.08-3.1.18,0,.3-.09.35-.05l5.24,4.37h0l-3.21-3,.1-.11L110,28c-.46-1-1.79-1.15-1.9-2.41L110.17,27l.15-.23-1.45-1.24,0-.05.4.23c-.08-.2-.11-.37-.16-.38-.4-.06-.59-.85-1.16-.43a3.45,3.45,0,0,1-.56-.58,25.9,25.9,0,0,0-1.71-2.17c-.36-.38-1-.5-1.39-.86s-.81-.46-.85-1.11c0-.34-.63-.73-1-1-.8-.65-1.25-1.66-2.24-2.12a2.13,2.13,0,0,1-.65-.42c-.24-.27-.36-.64-.6-.9-1-1-2-2-3-3.07-.51-.51-1-1-1.51-1.55S93.24,10,92.66,9.42s-1.27-1.35-2-1.94c-2.27-1.93-4.57-3.82-6.87-5.72l-.19-.12.32.6L82.6,1.49l-.08.13.3.47-.07.07-1.14-.94-.17.21,3,2.81-.17.19L83,3.37l.58,1.07L81.54,3l.45.78-1-.28,1,.91a1.65,1.65,0,0,1-.78-.31l-.43-.17c-.16.77-.64.07-.79,0-1.09-.45-2.13-1-3.19-1.51a.3.3,0,0,0-.13,0L76.4,3l-.09-.21c-.56,0-1.24-.15-1.67.09a2.29,2.29,0,0,1-2.38,0,4.26,4.26,0,0,0-.47-.15A11.78,11.78,0,0,0,74.5,7.39l-.17.14-1.52-.8.75,1.48-.24.11,6.22,6.87-.12.09L76,12.68l-.07.11,1.76,1.88-.17.22a11.17,11.17,0,0,1-1.4-.78q-4-3.11-7.95-6.25l-.2.23,2.8,2.64-.17.22L67.76,9.22l.36.65L65.33,7.54l-.13.15,2.29,2.16,3.75,3.53c.91.85,1.82,1.68,2.74,2.51.46.41,1.16.74,1.34,1.22.29.79.92,1.15,1.42,1.68s1.18,1.11,1.76,1.68a6.57,6.57,0,0,1,.6.79l-.18.16L76.7,19.5c-.85-.72-1.69-1.45-2.55-2.17q-1.86-1.56-3.74-3.1l.13-.17,1,.58a15.24,15.24,0,0,0-1.45-1.34c-.48-.41-.88-1-1.62-.85-.05,0-.12-.11-.18-.15l-1.14-.9c.56.84,1.16,1.62,1.78,2.38a15.7,15.7,0,0,0,1.54,1.8c.45.43,1.17.61,1.61,1.06,2.36,2.39,4.68,4.83,7,7.26h0a16.53,16.53,0,0,1-1.91-1.13c-.69-.54-1.3-1.2-1.94-1.8l-.13.09,1.71,2.4-.09.08L73.6,20.62l-.07.07,5,4.67,0,0-1.41-1.47.06-.07,3.61,3.08c.09-.23.13-.34.19-.52.33.31.56.55.82.77s.47.35.86.62L79,23.9l1.18,1c1.3,1.11,2.64,2.19,3.88,3.37.67.63,1.54.77,2.22,1.6a51.12,51.12,0,0,0,4.78,4.63l.09-.09L89.71,33l.08-.08,13.79,13,.09-.31,9.4,9.25,0,0-.73-.87,6.68,6.3-.19.21c-.37-.35-.72-.73-1.12-1-1.53-1.22-3.09-2.39-4.59-3.63-1.21-1-2.35-2.06-3.5-3.12-.75-.69-1.42-1.46-2.18-2.13-1.62-1.43-3.31-2.79-4.92-4.24-2.72-2.46-5.4-5-8.11-7.44a8.62,8.62,0,0,0,1.33,1.63c1.3,1.21,2.64,2.38,4,3.57,2,1.85,4.07,3.69,6.08,5.56q7.09,6.56,14.17,13.13c.52.49,1,1,1.46,1.57l-.07.06L96,41.11a4.75,4.75,0,0,0,1,1.2c.88.84.88.84.53,1l5.06,4.77q5.39,5.1,10.77,10.2,4.74,4.47,9.51,8.92a2.93,2.93,0,0,0,.82.37l0-.11L121.1,65l.13-.15,9.84,9.27.11-.11-.93-1a1.28,1.28,0,0,1,.53.33c1.38,1.3,2.75,2.62,4.14,3.91,2.2,2,4.4,4,6.59,6a4.29,4.29,0,0,1,.51.83l-.17.11c-1.69-2.49-4.12-4.15-6.28-5.68a20.56,20.56,0,0,0,1.81,2.18c1.79,1.72,3.65,3.37,5.47,5,1.54,1.42,3.06,2.85,4.6,4.26q3.41,3.11,6.85,6.19a5.86,5.86,0,0,0,.62.46l.14-.17L147,88.16c.9.65,1.68,1.43,2.51,2.15S151.15,91.61,152,92.33Z"/><path d="M152.74,95.66c-1.94-2-3.89-3.94-5.88-5.87-.51-.51-1.19-.84-1.72-1.32-1.55-1.41-3-2.87-4.6-4.26-.83-.74-1.78-1.36-2.62-2.1-.58-.51-1-1.16-1.62-1.68s-1.5-1.21-2.28-1.84V79l-.88-.83.4-.16L114.06,60.09a.82.82,0,0,0,.24.58c2,2.25,4.49,4,6.42,6.39a6.76,6.76,0,0,0,3.15,2.34c.71.23,1.24,1.22,1.85,1.84s1.38,1.47,2.14,2.13c.47.41,1.13.64,1.6,1a13.74,13.74,0,0,1,1,1.26c.43.46,1,.8,1.38,1.27,1.62,1.89,3.55,3.48,5.25,5.29,2.35,2.5,5.09,4.62,7.62,7,1.65,1.52,3.23,3.13,4.84,4.69,1,1,2,1.88,3,2.82l.11-.11L149.93,94a2,2,0,0,0,.18-.23l3.54,3.33A4.74,4.74,0,0,0,152.74,95.66Z"/><path d="M130.4,46.23l-.25.25,6.14,5.79-.11.13-.74-.53-.08.1,6.79,5.94.06-.07-.41-.59,1.06.72Z"/><path d="M143.19,58.2l-.33-.23.28.27Z"/><path d="M130.56,45l-.57-.1,4.35,4.1.06-.07-1-1.09.25-.22a14.15,14.15,0,0,1,2.17,2.53c.36.71.61.91,1.22.81-.6-.68-1.14-1.37-1.76-2-1.27-1.26-2.59-2.48-3.9-3.71s-1.34-1.25-2.34-1.34l1.6.94Z"/><path d="M161.62,77.56a5.07,5.07,0,0,1,.88.85,7.24,7.24,0,0,0,2.87,2.75l-.16-.52,1,.7.11-.12-5.45-4.38A3.19,3.19,0,0,0,161.62,77.56Z"/><path d="M117.6,33.44a10.16,10.16,0,0,1,.31,1.18c.28-.48.28-.48,1.52,0-.77-.64-1.55-1.28-2.3-2a7.75,7.75,0,0,1-.69-.81,7.12,7.12,0,0,0-.78-.86c-.07-.06-.34.14-.58.25l2.17,1.82A1.19,1.19,0,0,1,117.6,33.44Z"/><path d="M119.41,37.63l1.56,1.5C120.44,38.64,120,38.07,119.41,37.63Z"/><path d="M115.27,33.94a33.7,33.7,0,0,0,3.81,3.45,2.52,2.52,0,0,1,.33.24,68.59,68.59,0,0,0-5.79-5.24A21.93,21.93,0,0,0,115.27,33.94Z"/><path d="M74.53,24l5,4.74.15-.16A29.36,29.36,0,0,0,74.53,24Z"/><path d="M131.4,74.78l-4.52-4.26-.08.1,4.52,4.26Z"/><path d="M82.33,31.21l0,.05,3.23,3,.21-.22Z"/><path d="M126,41.09a5.6,5.6,0,0,0,1.79.33l-2.6-1.59C125.41,40.28,125.58,40.87,126,41.09Z"/><path d="M112.77,30l.65.75c-.12-.66-.78-1.38-1.18-1.4l-1-.07,1.27,1.19Z"/><path d="M86.24,34.62a.73.73,0,0,0,0,.09l2.89,2.72.07-.08Z"/><path d="M139.73,53.92l-2.23-2.38-.21.19L139.67,54Z"/><path d="M113,31.44l-2.45-2.53-.14.16,2.56,2.41Z"/><path d="M82.83,31.19l-2-1.89-.17.18,2.13,1.76Z"/><path d="M168.15,80.09l.12-.16L166.4,78.4a.28.28,0,0,0-.09.1Z"/><path d="M154.48,93.26l1.27,1L156,94l-1.41-.84Z"/><path d="M121.63,38.61l-.95-.9-.21.23,1,.86Z"/><path d="M155.41,71.43,152.82,69l-.06,0,2.6,2.46Z"/></g></g><g id="Capa_2-3" data-name="Capa 2"><g id="Capa_1-2-2" data-name="Capa 1-2"><path d="M4.81,86.75c-.74.82-1.59,1.53-2.33,2.34A12.57,12.57,0,0,0,.34,91.55a11.78,11.78,0,0,0,1.37-.41,2.49,2.49,0,0,0,.86-.62c1.23-1.45,2.39-3,3.65-4.39C7.19,85,8.27,84,9.3,83l.15.14L6.92,86.5a2.36,2.36,0,0,0,.45-.33l.41-.33c-1.66,2.37-3.93,4.25-5.5,6.81.26,0,.46,0,.54-.08.64-.71,1.26-1.45,1.88-2.17a3.08,3.08,0,0,0-.26-.2l5-4.94.05,0L6.94,88.54l.15.14L11,84.9a.86.86,0,0,1-.12.3L6,91.07c-.6.7-1.24,1.39-.77,2.36a1.52,1.52,0,0,1,0,.55l1.36-.51.22.2L4.44,98.06c.68-.38,1.29-.7,1.87-1.06s1.08-.33,1.42.4c.6-.73,1.14-1.47,1.76-2.12a3,3,0,0,1,2.5-.8c-1.3,1.5-3.16,2.45-4.13,4.38l1.22-.28-.46.64.13.14,2.5-2L11,97.19c0-.19-.05-.42,0-.57.32-.53.69-1,1.06-1.53.06-.08.19-.11.38-.2l-1,2.49c.53,0,1.24-.3,1.61-.06.57.37.65,0,.92-.31.5-.48,1-.92,1.55-1.37l.14.14L14.54,98l1.28-.63-.31.58.13.1,2.69-2.86.14.11-.49.77.11.09,1.41-1.5.11.1L18.76,96a4.67,4.67,0,0,0,1-1.25,5.79,5.79,0,0,0,.31-1.37l-1,1c.46-.83.94-1.57,1.44-2.31.12-.18.31-.49.45-.49.56,0,.73-.48,1-.8l.74-.78-.21.6c.82-.44.9-.58.49-1l1.36-1.58.11.09-.76,1.18.17.14L26.25,87l.14.14c-.64,1.1-2,1.71-2.39,3.15l2-2.55v.44a4.67,4.67,0,0,0,.51-.36c.59-.53,1.17-1,1.71-1.6.91-.94,1.77-1.93,2.69-2.86.6-.6,1.32-1.08,1.92-1.68.89-.87,1.72-1.81,2.58-2.71l.15.3c.24,0,.55,0,.7-.14a15.45,15.45,0,0,0,1.31-1.37c.79-.94,1.53-1.91,2.35-2.83,1.09-1.22,2.24-2.38,3.35-3.59.8-.88,1.58-1.77,2.34-2.68.29-.34.43-.89.77-1.12a16.09,16.09,0,0,0,2.35-2.24c.18-.19.28-.64.42-.66.75-.07.76-.64,1-1.14.14-.33.51-.58.89-1l-.1.33L54,59.33c.91-1,1.82-2.06,2.74-3.08s1.56-1.76,2.37-2.63S61,51.77,61.81,50.8c1.16-1.31,2.25-2.69,3.42-4s2.22-2.36,3.36-3.53c.33-.35.69-.67,1.08-1.05a1.51,1.51,0,0,1,.26-.55c1-1,2-2,3.1-3.09,0,.18.09.3.06.35l-4.38,5.25v0l3-3.2.11.09-2.72,3.69c.94-.46,1.14-1.78,2.41-1.89L70.17,45l.22.16,1.24-1.46.05,0-.22.4c.2-.09.36-.12.37-.17.06-.4.85-.58.44-1.16a3,3,0,0,1,.57-.55c.73-.57,1.51-1.08,2.18-1.71.37-.36.5-1,.85-1.39s.47-.81,1.11-.86c.35,0,.73-.62,1-1,.65-.81,1.67-1.26,2.13-2.24a1.86,1.86,0,0,1,.42-.66c.26-.23.63-.35.89-.6,1-1,2.05-2,3.07-3,.52-.5,1-1,1.55-1.5s1.08-1.21,1.64-1.79,1.34-1.26,1.94-2c1.92-2.27,3.81-4.58,5.71-6.87a2,2,0,0,0,.12-.19l-.6.32.75-1.36-.12-.08-.48.3L95,17.55l1-1.13-.22-.18-2.81,3-.18-.18,1.05-1.26-1.06.58,1.46-2-.79.45.28-1-.9,1a1.68,1.68,0,0,1,.3-.78,3.12,3.12,0,0,0,.18-.42c-.78-.16-.07-.65,0-.8.45-1.08,1-2.13,1.52-3.18,0,0,0-.1,0-.13l-.57-.24.21-.09c0-.57.16-1.25-.08-1.67a2.28,2.28,0,0,1,0-2.39,3.64,3.64,0,0,0,.14-.47A11.86,11.86,0,0,0,89.75,9.3l-.14-.17.79-1.51-1.48.74-.11-.24-6.87,6.22-.08-.11,2.6-3.41-.11-.08L82.46,12.5l-.22-.17A9.43,9.43,0,0,1,83,10.94c2.06-2.67,4.16-5.31,6.25-8L89,2.79,86.41,5.58l-.23-.17,1.74-2.84-.65.35L89.59.14,89.45,0,87.28,2.3,83.75,6.05c-.84.9-1.68,1.82-2.5,2.74-.42.45-.74,1.16-1.23,1.33-.78.29-1.15.92-1.67,1.42s-1.12,1.18-1.69,1.76a7.36,7.36,0,0,1-.78.6l-.17-.18,1.92-2.22c.73-.84,1.46-1.69,2.17-2.54l3.1-3.74.17.13-.57,1a16.79,16.79,0,0,0,1.34-1.45c.4-.48,1-.88.85-1.62,0,0,.1-.11.15-.17l.89-1.14c-.84.56-1.61,1.16-2.38,1.77a16.6,16.6,0,0,0-1.8,1.54c-.43.46-.61,1.17-1,1.61-2.4,2.37-4.84,4.68-7.27,7h0A17.14,17.14,0,0,1,74.36,12c.54-.7,1.2-1.3,1.81-1.95l-.1-.12-2.4,1.7-.07-.08,2.91-3.1-.07-.06-4.66,4.95,0,0,1.46-1.42.07.07-3.07,3.61.51.19c-.3.32-.55.56-.77.81s-.34.48-.62.86l3.83-3.62c-.32.4-.64.8-1,1.19-1.11,1.3-2.18,2.64-3.36,3.88-.63.67-.77,1.54-1.6,2.21a50.09,50.09,0,0,0-4.64,4.79l.1.08,1.38-1.47.09.08-13,13.8.31.09-9.26,9.4,0,0,.87-.72-6.3,6.68-.21-.2c.35-.37.73-.72,1-1.11,1.21-1.53,2.38-3.1,3.63-4.6,1-1.2,2.06-2.35,3.12-3.49.68-.75,1.45-1.43,2.13-2.19C48,40.66,49.39,39,50.84,37.36c2.45-2.72,4.95-5.4,7.44-8.1a8.38,8.38,0,0,0-1.64,1.33c-1.2,1.3-2.37,2.64-3.57,3.95-1.85,2-3.69,4.06-5.55,6.08L34.38,54.79c-.49.51-1,1-1.57,1.46l-.06-.07L56,30.82a5.4,5.4,0,0,0-1.2,1c-.83.89-.83.89-1,.53L49,37.45q-5.1,5.38-10.2,10.76Q34.36,53,29.91,57.73a2.86,2.86,0,0,0-.37.81l.12,0,2.51-2.66.14.14L23,65.87l.12.11,1.05-.93a1.31,1.31,0,0,1-.34.53c-1.3,1.39-2.61,2.76-3.9,4.15-2,2.19-4,4.4-6.06,6.58a3.65,3.65,0,0,1-.83.52L13,76.66c2.5-1.7,4.15-4.13,5.68-6.29a24.66,24.66,0,0,0-2.18,1.82c-1.72,1.78-3.37,3.64-5,5.47-1.42,1.53-2.85,3-4.25,4.59C5.09,84.53,3,86.81,1,89.1c-.17.2-.32.41-.47.62l.17.15L9,81.75c-.65.9-1.43,1.68-2.15,2.51S5.52,86,4.81,86.75Z"/><path d="M1.47,87.55q3-2.91,5.88-5.88c.5-.51.83-1.19,1.32-1.73,1.4-1.55,2.86-3,4.25-4.6.74-.83,1.37-1.77,2.1-2.61.51-.58,1.16-1,1.68-1.62s1.22-1.5,1.84-2.29h-.36L19,68l.16.4L37.05,48.87a.75.75,0,0,0-.58.24c-2.26,2-4,4.49-6.4,6.42a6.73,6.73,0,0,0-2.34,3.15c-.22.71-1.21,1.23-1.84,1.84s-1.47,1.39-2.13,2.15c-.41.47-.63,1.12-1,1.6s-.87.62-1.26,1-.81,1-1.28,1.37c-1.89,1.62-3.47,3.55-5.29,5.26-2.5,2.34-4.62,5.08-6.95,7.61-1.52,1.66-3.13,3.23-4.68,4.85-1,1-1.89,2-2.83,3l.11.11,2.57-2.72.22.18L0,88.46A5,5,0,0,0,1.47,87.55Z"/><path d="M50.9,65.2,50.65,65l-5.78,6.14L44.74,71l.53-.73-.1-.09-6,6.79.07.07.59-.42-.72,1.07Z"/><path d="M38.93,78l.23-.33-.27.29Z"/><path d="M52.16,65.36l.1-.56-4.1,4.34.07.07,1.09-1,.22.25A13.44,13.44,0,0,1,47,70.63c-.7.36-.91.62-.81,1.23.68-.6,1.37-1.14,2-1.76,1.26-1.28,2.49-2.59,3.71-3.9s1.25-1.34,1.35-2.35l-.94,1.61Z"/><path d="M19.58,96.42a5.15,5.15,0,0,1-.85.89A7.11,7.11,0,0,0,16,100.17l.52-.15-.7,1,.12.12,4.38-5.46A3.37,3.37,0,0,0,19.58,96.42Z"/><path d="M63.69,52.41a9.64,9.64,0,0,1-1.18.31c.49.28.49.28,0,1.52.65-.77,1.28-1.55,2-2.31a7.67,7.67,0,0,1,.81-.68,7.22,7.22,0,0,0,.87-.79c0-.06-.15-.34-.26-.58-.67.81-1.24,1.5-1.82,2.17A1.12,1.12,0,0,1,63.69,52.41Z"/><path d="M59.5,54.22,58,55.77C58.5,55.25,59.07,54.77,59.5,54.22Z"/><path d="M63.2,50.08a33,33,0,0,0-3.46,3.81,3.43,3.43,0,0,1-.24.33,65.33,65.33,0,0,0,5.24-5.79A18.45,18.45,0,0,0,63.2,50.08Z"/><path d="M73.1,9.33l-4.74,5,.16.14A28.62,28.62,0,0,0,73.1,9.33Z"/><path d="M22.35,66.21l4.26-4.53-.1-.08-4.26,4.52Z"/><path d="M65.92,17.13l0,0-3,3.22.23.22Z"/><path d="M56.05,60.75a5.21,5.21,0,0,0-.33,1.8L57.31,60C56.86,60.22,56.27,60.38,56.05,60.75Z"/><path d="M67.11,47.57l-.75.65c.66-.12,1.37-.78,1.39-1.18s.06-.78.07-1l-1.19,1.27Z"/><path d="M62.52,21.05,62.43,21l-2.72,2.88.07.07Z"/><path d="M43.21,74.53l2.38-2.22-.19-.22-2.24,2.38Z"/><path d="M65.69,47.75l2.54-2.44-.16-.15-2.42,2.56Z"/><path d="M66,17.63l1.88-2c-.06-.06-.12-.11-.17-.17l-1.77,2.12Z"/><path d="M17,103l.16.13,1.54-1.88-.11-.08Z"/><path d="M3.88,89.28l-1,1.27.31.21L4,89.34Z"/><path d="M58.53,56.44l.89-.95-.23-.22-.85,1Z"/><path d="M25.7,90.22l2.45-2.6,0-.06-2.45,2.61Z"/></g></g><g id="Capa_2-4" data-name="Capa 2"><g id="Capa_1-2-3" data-name="Capa 1-2"><path d="M152,155.52c.82.74,1.53,1.58,2.34,2.33a12.33,12.33,0,0,0,2.46,2.14,11.57,11.57,0,0,0-.42-1.37,2.64,2.64,0,0,0-.61-.87c-1.46-1.22-3-2.38-4.39-3.64-1.11-1-2.13-2.05-3.18-3.09l.13-.14,3.42,2.53a2.43,2.43,0,0,0-.33-.46c-.12-.13-.22-.27-.33-.41,2.37,1.67,4.25,3.93,6.81,5.51,0-.26,0-.46-.09-.54-.71-.64-1.44-1.26-2.17-1.89l-.2.26-4.94-5,.05-.06,3.23,2.56.14-.15-3.77-4a1.48,1.48,0,0,1,.29.12l5.87,5c.7.59,1.39,1.24,2.37.77a1.48,1.48,0,0,1,.54,0l-.51-1.36.2-.22,4.4,2.38c-.38-.68-.7-1.29-1.07-1.88s-.32-1.07.41-1.41c-.74-.61-1.48-1.14-2.12-1.77a2.9,2.9,0,0,1-.8-2.49c1.5,1.29,2.44,3.15,4.38,4.13l-.28-1.23.64.47a.86.86,0,0,1,.14-.13l-2.06-2.5-.11.26c-.2,0-.43,0-.58,0-.52-.33-1-.69-1.52-1.06-.08-.06-.11-.19-.2-.39l2.48,1c0-.54-.3-1.25-.06-1.62.37-.56,0-.64-.3-.92-.48-.49-.92-1-1.38-1.54l.14-.14,2.24,1.2-.63-1.28.58.3.09-.12L160.39,142l.12-.14.76.49.09-.11-1.49-1.42.09-.1,1.27.84a4.71,4.71,0,0,0-1.25-1,5.78,5.78,0,0,0-1.37-.3l.95,1c-.82-.46-1.57-1-2.3-1.44-.19-.13-.49-.31-.49-.45,0-.57-.48-.73-.8-1l-.79-.74.6.22c-.44-.83-.57-.9-1-.5l-1.58-1.35a.94.94,0,0,0,.09-.12l1.18.77.15-.17-2.47-2.33.14-.13c1.1.64,1.71,2,3.15,2.39l-2.55-2h.45a6,6,0,0,0-.36-.52c-.53-.58-1-1.16-1.6-1.7-.94-.91-1.93-1.77-2.86-2.7-.6-.6-1.09-1.31-1.68-1.92-.88-.88-1.81-1.72-2.72-2.57l.31-.15c0-.24,0-.55-.14-.7a15.38,15.38,0,0,0-1.37-1.31c-.94-.79-1.92-1.53-2.83-2.35-1.22-1.09-2.38-2.24-3.6-3.35q-1.31-1.2-2.67-2.34c-.35-.3-.89-.43-1.13-.77a16,16,0,0,0-2.23-2.35c-.19-.18-.65-.28-.66-.42-.08-.75-.64-.76-1.14-1a5,5,0,0,1-1-.89l.33.1c-1.13-1-2.33-2-3.52-3.07s-2.06-1.82-3.09-2.73c-.88-.79-1.76-1.57-2.63-2.37S117,99.38,116,98.52c-1.32-1.16-2.7-2.25-4-3.42s-2.36-2.23-3.52-3.36c-.36-.33-.68-.69-1-1.08a1.84,1.84,0,0,1-.56-.26c-1-1-2-2-3.08-3.11.18,0,.3-.09.35-.05,1.75,1.45,3.49,2.92,5.24,4.38l0,0-3.21-3,.1-.11L110,91.2c-.46-1-1.79-1.15-1.9-2.41l2.09,1.37.15-.23-1.45-1.23,0,0,.4.22c-.08-.2-.11-.36-.16-.37-.4-.07-.59-.86-1.16-.44a3.26,3.26,0,0,1-.56-.57c-.57-.73-1.07-1.51-1.71-2.18-.36-.38-1-.5-1.39-.86s-.81-.46-.85-1.11c0-.34-.63-.73-1-1-.8-.64-1.25-1.66-2.24-2.12a2,2,0,0,1-.65-.42c-.24-.27-.36-.64-.6-.89-1-1-2-2.05-3-3.08-.51-.51-1-1.05-1.51-1.55s-1.2-1.07-1.78-1.63-1.27-1.34-2-1.94c-2.27-1.93-4.57-3.81-6.87-5.71l-.19-.13.32.6-1.35-.74a1.25,1.25,0,0,0-.08.12l.3.48-.07.07-1.14-1-.17.21,3,2.82-.17.18L83,66.57l.58,1.06-2-1.46L82,67l-1-.27,1,.9a1.75,1.75,0,0,1-.78-.3,3.25,3.25,0,0,0-.43-.18c-.16.77-.64.07-.79,0-1.09-.46-2.13-1-3.19-1.52a.3.3,0,0,0-.13,0l-.24.58-.09-.22c-.56,0-1.24-.15-1.67.09a2.29,2.29,0,0,1-2.38,0,2.79,2.79,0,0,0-.47-.14,11.81,11.81,0,0,0,2.71,4.68l-.17.14-1.52-.8.75,1.48-.24.11,6.22,6.87-.12.09L76,75.87l-.07.11,1.76,1.89a1.84,1.84,0,0,0-.17.22,11.23,11.23,0,0,1-1.4-.79q-4-3.1-7.95-6.25l-.2.24,2.8,2.63-.17.22-2.85-1.73.36.65-2.79-2.33-.13.15,2.29,2.17,3.75,3.53L74,79.08c.46.41,1.16.74,1.34,1.22A4.88,4.88,0,0,0,76.74,82c.56.59,1.18,1.11,1.76,1.68a6.57,6.57,0,0,1,.6.79l-.18.16L76.7,82.7c-.85-.73-1.69-1.46-2.55-2.18-1.24-1-2.49-2.06-3.74-3.1l.13-.17,1,.58a16.67,16.67,0,0,0-1.45-1.34c-.48-.4-.88-1-1.62-.85-.05,0-.12-.11-.18-.15l-1.14-.9c.56.84,1.16,1.62,1.78,2.38a15.81,15.81,0,0,0,1.54,1.81c.45.43,1.17.6,1.61,1,2.36,2.39,4.68,4.84,7,7.26h0A18,18,0,0,1,77.14,86c-.69-.54-1.3-1.2-1.94-1.81l-.13.09,1.71,2.41-.09.07L73.6,83.81l-.07.07,5,4.67,0,0L77.11,87l.06-.07,3.61,3.08c.09-.22.13-.34.19-.52.33.31.56.55.82.77s.47.35.86.63L79,87.09l1.18,1c1.3,1.12,2.64,2.19,3.88,3.37.67.63,1.54.77,2.22,1.6a48.7,48.7,0,0,0,4.78,4.63l.09-.09-1.47-1.39.08-.08,13.79,13c.06-.2.09-.3.09-.31l9.4,9.26,0,0-.73-.87,6.68,6.29-.19.21c-.37-.35-.72-.72-1.12-1-1.53-1.22-3.09-2.39-4.59-3.63-1.21-1-2.35-2.06-3.5-3.12-.75-.69-1.42-1.46-2.18-2.13-1.62-1.43-3.31-2.79-4.92-4.24-2.72-2.46-5.4-5-8.11-7.44a8,8,0,0,0,1.33,1.63c1.3,1.21,2.64,2.38,4,3.58q3.06,2.76,6.08,5.55Q112.91,119.37,120,126c.52.49,1,1,1.46,1.57l-.07.06L96,104.31a4.93,4.93,0,0,0,1,1.2c.88.83.88.83.53,1l5.06,4.78c3.59,3.39,7.17,6.8,10.77,10.19q4.74,4.47,9.51,8.92a2.67,2.67,0,0,0,.82.37l0-.11-2.66-2.51.13-.14,9.84,9.27.11-.12-.93-1a1.39,1.39,0,0,1,.53.33c1.38,1.31,2.75,2.62,4.14,3.91,2.2,2,4.4,4,6.59,6a4.29,4.29,0,0,1,.51.83l-.17.12c-1.69-2.5-4.12-4.15-6.28-5.68a21.6,21.6,0,0,0,1.81,2.17c1.79,1.73,3.65,3.38,5.47,5.06,1.54,1.41,3.06,2.84,4.6,4.25q3.41,3.1,6.85,6.19a5.93,5.93,0,0,0,.62.47l.14-.18L147,151.35c.9.65,1.68,1.43,2.51,2.16S151.15,154.8,152,155.52Z"/><path d="M152.74,158.85c-1.94-2-3.89-3.94-5.88-5.87-.51-.5-1.19-.84-1.72-1.32-1.55-1.4-3-2.87-4.6-4.25-.83-.75-1.78-1.37-2.62-2.1-.58-.52-1-1.17-1.62-1.69s-1.5-1.21-2.28-1.83v.36l-.88-.83.4-.17-19.48-17.87a.82.82,0,0,0,.24.58c2,2.26,4.49,4,6.42,6.39a6.78,6.78,0,0,0,3.15,2.35c.71.22,1.24,1.21,1.85,1.84s1.38,1.46,2.14,2.12c.47.42,1.13.64,1.6,1.05a13.74,13.74,0,0,1,1,1.26c.43.46,1,.8,1.38,1.28,1.62,1.89,3.55,3.47,5.25,5.29,2.35,2.49,5.09,4.62,7.62,6.95,1.65,1.52,3.23,3.12,4.84,4.68,1,1,2,1.89,3,2.83l.11-.12-2.72-2.56a2,2,0,0,0,.18-.23l3.54,3.34A4.79,4.79,0,0,0,152.74,158.85Z"/><path d="M130.4,109.42l-.25.25,6.14,5.79-.11.13-.74-.53-.08.1,6.79,5.94.06-.07-.41-.59,1.06.73Z"/><path d="M143.19,121.39l-.33-.22.28.27Z"/><path d="M130.56,108.17l-.57-.1,4.35,4.09.06-.07-1-1.09.25-.21a13.49,13.49,0,0,1,2.17,2.53c.36.7.61.9,1.22.8-.6-.68-1.14-1.36-1.76-2-1.27-1.26-2.59-2.49-3.9-3.72s-1.34-1.25-2.34-1.34l1.6.94Z"/><path d="M161.62,140.75a5.07,5.07,0,0,1,.88.85,7.27,7.27,0,0,0,2.87,2.76l-.16-.52,1,.7.11-.12L160.92,140A3.19,3.19,0,0,0,161.62,140.75Z"/><path d="M117.6,96.64a9.64,9.64,0,0,1,.31,1.18c.28-.49.28-.49,1.52,0-.77-.65-1.55-1.29-2.3-2a7.75,7.75,0,0,1-.69-.81,8.07,8.07,0,0,0-.78-.87c-.07-.06-.34.15-.58.26l2.17,1.81A1.22,1.22,0,0,1,117.6,96.64Z"/><path d="M119.41,100.82c.52.51,1,1,1.56,1.5C120.44,101.83,120,101.26,119.41,100.82Z"/><path d="M115.27,97.13a33.7,33.7,0,0,0,3.81,3.45l.33.24a66.8,66.8,0,0,0-5.79-5.23A21.79,21.79,0,0,0,115.27,97.13Z"/><path d="M74.53,87.22l5,4.75.15-.16A29,29,0,0,0,74.53,87.22Z"/><path d="M131.4,138l-4.52-4.27-.08.1,4.52,4.26Z"/><path d="M82.33,94.4l0,0,3.23,3,.21-.23Z"/><path d="M126,104.28a5.6,5.6,0,0,0,1.79.33l-2.6-1.59C125.41,103.47,125.58,104.06,126,104.28Z"/><path d="M112.77,93.22l.65.75c-.12-.66-.78-1.38-1.18-1.4s-.78,0-1-.07l1.27,1.2Z"/><path d="M86.24,97.81a.73.73,0,0,0,0,.09l2.89,2.72.07-.07Z"/><path d="M139.73,117.11l-2.23-2.38-.21.19,2.38,2.25Z"/><path d="M113,94.64,110.5,92.1l-.14.16,2.56,2.41Z"/><path d="M82.83,94.38l-2-1.88a1.37,1.37,0,0,1-.17.17l2.13,1.76Z"/><path d="M168.15,143.28l.12-.16-1.87-1.53a.28.28,0,0,0-.09.1Z"/><path d="M154.48,156.45l1.27,1,.2-.31-1.41-.83Z"/><path d="M121.63,101.8l-.95-.9-.21.23,1,.86Z"/><path d="M155.41,134.62l-2.59-2.44-.06,0,2.6,2.45Z"/></g></g><g id="Capa_2-5" data-name="Capa 2"><g id="Capa_1-2-4" data-name="Capa 1-2"><path d="M4.81,150c-.74.81-1.59,1.53-2.33,2.33a12.36,12.36,0,0,0-2.14,2.47,11.57,11.57,0,0,0,1.37-.42,2.49,2.49,0,0,0,.86-.62c1.23-1.45,2.39-3,3.65-4.39,1-1.1,2.05-2.12,3.08-3.17l.15.13L6.92,149.7a2.05,2.05,0,0,0,.45-.34l.41-.33c-1.66,2.38-3.93,4.26-5.5,6.82.26,0,.46,0,.54-.09.64-.71,1.26-1.44,1.88-2.17l-.26-.2,5-4.94.05.05-2.55,3.23.15.14L11,148.1a.81.81,0,0,1-.12.29L6,154.26c-.6.7-1.24,1.39-.77,2.37a1.46,1.46,0,0,1,0,.54l1.36-.51.22.2-2.38,4.4c.68-.39,1.29-.7,1.87-1.07s1.08-.32,1.42.41c.6-.74,1.14-1.48,1.76-2.12a2.9,2.9,0,0,1,2.5-.8c-1.3,1.49-3.16,2.44-4.13,4.38l1.22-.28-.46.64a.89.89,0,0,1,.13.14l2.5-2.06-.26-.11c0-.2-.05-.43,0-.58.32-.52.69-1,1.06-1.53.06-.08.19-.1.38-.2l-1,2.49c.53,0,1.24-.3,1.61-.06.57.37.65,0,.92-.31.5-.48,1-.91,1.55-1.37l.14.14-1.2,2.23,1.28-.62-.31.57.13.1,2.69-2.86.14.12-.49.76.11.09,1.41-1.5.11.1-.85,1.27a4.67,4.67,0,0,0,1-1.25,5.79,5.79,0,0,0,.31-1.37l-1,.95c.46-.83.94-1.57,1.44-2.3.12-.19.31-.49.45-.5.56,0,.73-.47,1-.8l.74-.78-.21.6c.82-.44.9-.57.49-1l1.36-1.58.11.09-.76,1.18.17.15,2.32-2.47.14.14c-.64,1.1-2,1.71-2.39,3.15l2-2.55v.45a3.68,3.68,0,0,0,.51-.37c.59-.53,1.17-1,1.71-1.6.91-.93,1.77-1.93,2.69-2.85.6-.6,1.32-1.09,1.92-1.69.89-.87,1.72-1.8,2.58-2.71l.15.31c.24-.05.55,0,.7-.14A15.57,15.57,0,0,0,37.62,141c.79-.93,1.53-1.91,2.35-2.82,1.09-1.23,2.24-2.39,3.35-3.6q1.2-1.31,2.34-2.67c.29-.35.43-.89.77-1.13a16,16,0,0,0,2.35-2.23c.18-.19.28-.65.42-.67.75-.07.76-.63,1-1.13.14-.33.51-.58.89-1l-.1.33L54,122.53c.91-1,1.82-2.06,2.74-3.09.78-.88,1.56-1.76,2.37-2.63S61,115,61.81,114c1.16-1.32,2.25-2.7,3.42-4s2.22-2.36,3.36-3.53c.33-.35.69-.67,1.08-1a1.59,1.59,0,0,1,.26-.55c1-1,2-2,3.1-3.08,0,.18.09.3.06.34l-4.38,5.25v0l3-3.2.11.09L69.13,108c.94-.46,1.14-1.79,2.41-1.9l-1.37,2.08.22.16,1.24-1.46.05,0-.22.4c.2-.08.36-.12.37-.16.06-.4.85-.59.44-1.16a2.91,2.91,0,0,1,.57-.56c.73-.57,1.51-1.07,2.18-1.71.37-.36.5-1,.85-1.39s.47-.81,1.11-.85c.35,0,.73-.63,1-1,.65-.8,1.67-1.25,2.13-2.24a1.82,1.82,0,0,1,.42-.65c.26-.24.63-.36.89-.6,1-1,2.05-2,3.07-3,.52-.51,1-1,1.55-1.51s1.08-1.2,1.64-1.78,1.34-1.27,1.94-2c1.92-2.27,3.81-4.58,5.71-6.87a1.22,1.22,0,0,0,.12-.19l-.6.32.75-1.35a1.25,1.25,0,0,0-.12-.08l-.48.29L95,80.75l1-1.14-.22-.18-2.81,3-.18-.17L93.76,81l-1.06.58,1.46-2-.79.45.28-1-.9,1a1.6,1.6,0,0,1,.3-.78,3.25,3.25,0,0,0,.18-.43c-.78-.16-.07-.64,0-.79.45-1.09,1-2.13,1.52-3.19,0,0,0-.1,0-.13l-.57-.24.21-.09c0-.56.16-1.24-.08-1.67a2.27,2.27,0,0,1,0-2.38,4.19,4.19,0,0,0,.14-.47,11.75,11.75,0,0,0-4.68,2.71l-.14-.18.79-1.51-1.48.74-.11-.23-6.87,6.22-.08-.12L84.46,74l-.11-.07L82.46,75.7l-.22-.18A10.58,10.58,0,0,1,83,74.13c2.06-2.67,4.16-5.31,6.25-7.95L89,66l-2.63,2.8-.23-.17,1.74-2.85-.65.35,2.32-2.78-.14-.14-2.17,2.3-3.53,3.75c-.84.91-1.68,1.82-2.5,2.74-.42.45-.74,1.16-1.23,1.34-.78.28-1.15.91-1.67,1.41s-1.12,1.19-1.69,1.76a7.46,7.46,0,0,1-.78.61l-.17-.18,1.92-2.22c.73-.85,1.46-1.69,2.17-2.55q1.56-1.86,3.1-3.74l.17.13-.57.95a18.26,18.26,0,0,0,1.34-1.44c.4-.49,1-.89.85-1.63,0,0,.1-.11.15-.17l.89-1.14c-.84.56-1.61,1.16-2.38,1.78a16.52,16.52,0,0,0-1.8,1.53c-.43.46-.61,1.18-1,1.62-2.4,2.36-4.84,4.68-7.27,7h0a18.1,18.1,0,0,1,1.13-1.91c.54-.69,1.2-1.3,1.81-1.94l-.1-.13-2.4,1.71-.07-.09,2.91-3.09-.07-.07-4.66,5,0,0,1.46-1.42.07.07-3.07,3.61.51.19c-.3.32-.55.56-.77.82s-.34.47-.62.85L73.23,77c-.32.39-.64.79-1,1.18-1.11,1.3-2.18,2.64-3.36,3.88-.63.67-.77,1.54-1.6,2.21a50.09,50.09,0,0,0-4.64,4.79l.1.09,1.38-1.47.09.08-13,13.79.31.09-9.26,9.4,0,0,.87-.73-6.3,6.68-.21-.2c.35-.37.73-.72,1-1.11,1.21-1.53,2.38-3.09,3.63-4.6,1-1.2,2.06-2.34,3.12-3.49.68-.75,1.45-1.42,2.13-2.18,1.43-1.63,2.79-3.31,4.24-4.92,2.45-2.72,4.95-5.4,7.44-8.11a8.38,8.38,0,0,0-1.64,1.33c-1.2,1.3-2.37,2.64-3.57,4-1.85,2-3.69,4.07-5.55,6.08L34.38,118c-.49.52-1,1-1.57,1.46l-.06-.07L56,94a5.4,5.4,0,0,0-1.2,1c-.83.89-.83.89-1,.53L49,100.64q-5.1,5.39-10.2,10.76-4.47,4.75-8.92,9.52a3,3,0,0,0-.37.81l.12,0,2.51-2.66.14.13L23,129.07l.12.11,1.05-.94a1.34,1.34,0,0,1-.34.54c-1.3,1.38-2.61,2.75-3.9,4.14-2,2.19-4,4.4-6.06,6.58a3.65,3.65,0,0,1-.83.52l-.11-.17c2.5-1.69,4.15-4.12,5.68-6.29a24.66,24.66,0,0,0-2.18,1.82c-1.72,1.79-3.37,3.65-5,5.47-1.42,1.53-2.85,3.05-4.25,4.6C5.09,147.72,3,150,1,152.29c-.17.2-.32.41-.47.62l.17.15L9,145c-.65.9-1.43,1.67-2.15,2.5S5.52,149.15,4.81,150Z"/><path d="M1.47,150.74c2-1.94,3.94-3.89,5.88-5.88.5-.51.83-1.19,1.32-1.73,1.4-1.54,2.86-3,4.25-4.6.74-.83,1.37-1.77,2.1-2.61.51-.58,1.16-1,1.68-1.62s1.22-1.5,1.84-2.28h-.36l.83-.88.16.4,17.88-19.48a.75.75,0,0,0-.58.24c-2.26,2-4,4.49-6.4,6.42a6.78,6.78,0,0,0-2.34,3.15c-.22.71-1.21,1.24-1.84,1.85s-1.47,1.38-2.13,2.14c-.41.47-.63,1.13-1,1.6s-.87.62-1.26,1-.81,1-1.28,1.38c-1.89,1.62-3.47,3.55-5.29,5.25-2.5,2.34-4.62,5.09-6.95,7.62-1.52,1.65-3.13,3.23-4.68,4.84-1,1-1.89,2-2.83,3l.11.11,2.57-2.72c.07.07.15.12.22.18L0,151.65A5,5,0,0,0,1.47,150.74Z"/><path d="M50.9,128.39l-.25-.25-5.78,6.14-.13-.1.53-.74-.1-.08-6,6.78.07.07.59-.42-.72,1.07Z"/><path d="M38.93,141.18l.23-.32-.27.28Z"/><path d="M52.16,128.56l.1-.57-4.1,4.35.07.06,1.09-1,.22.25A13.81,13.81,0,0,1,47,133.83c-.7.35-.91.61-.81,1.22.68-.6,1.37-1.14,2-1.76,1.26-1.28,2.49-2.59,3.71-3.9s1.25-1.34,1.35-2.34l-.94,1.6Z"/><path d="M19.58,159.62a5.47,5.47,0,0,1-.85.88A7.07,7.07,0,0,0,16,163.37l.52-.16-.7,1,.12.11,4.38-5.45A3.15,3.15,0,0,0,19.58,159.62Z"/><path d="M63.69,115.6a9.64,9.64,0,0,1-1.18.31c.49.28.49.28,0,1.52.65-.77,1.28-1.55,2-2.3a6.7,6.7,0,0,1,.81-.69,7.22,7.22,0,0,0,.87-.79c0-.06-.15-.33-.26-.58-.67.82-1.24,1.5-1.82,2.18A1.2,1.2,0,0,1,63.69,115.6Z"/><path d="M59.5,117.41,58,119C58.5,118.44,59.07,118,59.5,117.41Z"/><path d="M63.2,113.27a33.88,33.88,0,0,0-3.46,3.81,3.43,3.43,0,0,1-.24.33,65.33,65.33,0,0,0,5.24-5.79A18.45,18.45,0,0,0,63.2,113.27Z"/><path d="M73.1,72.53l-4.74,5,.16.15A29,29,0,0,0,73.1,72.53Z"/><path d="M22.35,129.4l4.26-4.52-.1-.08-4.26,4.52A.39.39,0,0,1,22.35,129.4Z"/><path d="M65.92,80.32l0,0-3,3.23.23.21Z"/><path d="M56.05,123.94a5.21,5.21,0,0,0-.33,1.8l1.59-2.6C56.86,123.41,56.27,123.58,56.05,123.94Z"/><path d="M67.11,110.76l-.75.66c.66-.12,1.37-.78,1.39-1.19s.06-.77.07-1l-1.19,1.26Z"/><path d="M62.52,84.24l-.09,0-2.72,2.89.07.07Z"/><path d="M43.21,137.72l2.38-2.22-.19-.22-2.24,2.39S43.19,137.71,43.21,137.72Z"/><path d="M65.69,111l2.54-2.45-.16-.15-2.42,2.57Z"/><path d="M66,80.83l1.88-2a1.37,1.37,0,0,1-.17-.17l-1.77,2.12Z"/><path d="M17,166.14l.16.13,1.54-1.88-.11-.08Z"/><path d="M3.88,152.47l-1,1.27.31.21L4,152.54Z"/><path d="M58.53,119.63l.89-.95-.23-.21-.85,1Z"/><path d="M25.7,153.41l2.45-2.6,0-.05-2.45,2.6Z"/></g></g></g></g></svg>