<svg xmlns="http://www.w3.org/2000/svg" viewBox="0 0 1383.6 539.82"><defs><style>.cls-1,.cls-2{isolation:isolate;}.cls-2{font-size:141.5px;font-family:PoorRichard-Regular, Poor Richard;}</style></defs><g id="Capa_2" data-name="Capa 2"><g id="Capa_1-2" data-name="Capa 1"><g id="Capa_2-2" data-name="Capa 2"><g id="Capa_1-2-2" data-name="Capa 1-2"><path fill="#FFFFFF" d="M388.54,382.6a1.84,1.84,0,0,0-.5-1.6,2.87,2.87,0,0,1-1-3,6.7,6.7,0,0,0-.7-3.1c-.6-1.4-1-2.9-1.5-4.2a86.45,86.45,0,0,0-4.2-9.9c-2.1-3.9-5.4-7.1-6.3-11.6-.1-.4-.4-.6-.8-.8-1.7-.8-2.2-2.5-3.2-3.9s-2.7-2.7-3.5-4.5c-1.4-3.3-4-5.8-6.1-8.7-2.3-3.2-5.5-5.9-8.1-9-2.2-2.6-4.9-4.8-6.9-7.6-2.9-4.1-6.7-7.4-9.8-11.3-2.5-3.2-5.3-6-8-9l.5-.6a9.51,9.51,0,0,1-2-1.5c-2.6-3-5-6.3-7.7-9.1-5.6-5.7-11-11.6-16.2-17.6-4.4-5.1-9.2-9.9-13.4-15.1-.5-.6-.8-1.8-1.4-2a6.07,6.07,0,0,1-3.3-2.8,18.1,18.1,0,0,1-2.5-3,2,2,0,0,0-2.2-1,24.39,24.39,0,0,0-4.6.7,27.37,27.37,0,0,0-10.3,4.2c-1.2.8-2.2,2-3.4,2.6s-1.6,2.2-3.1,2.4c0,1.4-1.4,1.3-2.1,2.1s-1.7,1.5-2.4,2.4c-2.1,2.6-4.1,5.3-6.3,8.2-.1.5,0,2-.4,2.1-1.7.6-2.2,2.2-3,3.3-4.3,6.1-8.8,12.2-13.6,18a7.69,7.69,0,0,1-1.8,1.8c-.7.6-.9,1.9-1.6,2.7-2.5,2.8-4.8,5.9-8.3,7.5-1.4-1.5-1.6-1.5-1.4-2.5.4-2-.8-3.8-.8-5.7,0-1.7-2.3-3-.8-5.1.2-.3-1.2-.1-1.5-1.1a41.8,41.8,0,0,0-2.8-5.6,46.94,46.94,0,0,0-6.5-9.3,20,20,0,0,0-2.7-3.1c-1.1-.9-2.1-2.1-3.3-3-1.4-1.1-2-2.8-3.6-3.8s-2.8-2.6-4.3-3.7c-2.9-2.3-5.3-5-8.6-6.9-2.9-1.6-5.4-3.9-8.1-5.7s-5.4-3.6-8.8-4.5c-2.3,1.9-5,4.1-7.5,6.3a23.4,23.4,0,0,0-2.4,3.1c-.7,1-1.7,1.9-2,2.9-.4,1.4-2.6,1-2.4,2.7,0,.1-.9.3-1.1.6s.1.7.2,1.1a6.84,6.84,0,0,0-3.5,3.2c-1,1.8-2.3,3.2-4.6,3.3l.8,1c-.8.2-1.9.2-2.1.6a2.79,2.79,0,0,1-1.8,2c-.8.3-1.2,1.7-2.1,2.1-2.9,1.5-4.6,4.3-7.1,6.1-1.3.9-2.2,2.5-3.5,3.3s-1.8,2.4-3.1,3.2-2.4,2-3.7,2.9a14.29,14.29,0,0,0-2,1.4c-.6.5-.9,1.7-1.4,1.8-2.1.3-3.3,1.8-4.8,2.9-1.2.8-1.4,2.3-2.8,3s-2.3,2.2-3.5,3.4a8,8,0,0,1-1.3,1.3,31.89,31.89,0,0,0-6.8,5.3c-1.7,1.8-3.5,3.5-4.9,4.9l-1.4-.1a2.58,2.58,0,0,1-1.9,2.5c-1.2.4-1.7,1.3-2.6,2-2.6,2-5,4.1-7.6,6.1s-5.4,3.9-8.1,5.8c-1.7,1.3-3.5,2.4-5.2,3.7-2.2,1.8-4.2,3.7-6.3,5.5l-2.4,2.4a13.06,13.06,0,0,1-3.6,2.1c-1.7.4-1.4,2.7-3.3,2.8a3.36,3.36,0,0,0-2,1.3c-2.5,2.8-5.5,4.9-7.5,8.1a7.81,7.81,0,0,1-4.1,3.5c.2.3.5.5.5.6-.7.8-1.4,1.5-2,2.2s-1.2,2-2,2.9c-2.5,2.9-5,5.9-7.5,8.9-1.2,1.5-2,3.2-3.1,4.7s-2.5,2.5-3,4c-.6,1.8-3.1,2.3-2.5,4.6-2.5,2.9-3.6,6.5-5.3,9.8-1.9,3.7-3.9,7.5-4.3,11.7-1.9,1.9.4,5.2-2.3,6.9,1.9,1.7.1,3.4-.2,5-.3,1.4.7,2.9,0,3.8-.9,1.2-.6,2.4-.6,3.5-.1,4.1,0,8.2,0,12.5-.7.2-1.3.3-1.3.4-.1,1.8-.7,4,0,5.4a11.72,11.72,0,0,1,1.3,5.5v.4c1.8,2.1,1.4,5.1,3,7.4a24.07,24.07,0,0,1,3,4.8c.7,1.7,2,2.9,3.1,4.3a39.43,39.43,0,0,0,3.6,4.5,18.31,18.31,0,0,0,3.1,2.4c1.2.8,1.2,2.5,2.9,2.9.4.1-.1,1.4.9,1.2s1.6.5,2.2,1.1l3.4,3.4c2.2-.7,2.8,1.6,4.3,2.4,1.8.9,4,1.8,5.4,3.1,1.7,1.5,3.8,2,5.4,3.5a13.5,13.5,0,0,0,3.3,1.9c1.2.5,1.4,2.7,3.2,2,1.2,1.2,2.4,2.5,2.6,4.1.3,2.1.4,4.4-1,6.3a3.37,3.37,0,0,0-.5,1.7c0,2-2.2,3.6-1,5.7-1.8,2.1-1.2,4.5-1.2,6.7,2.2.6,1.6,2.9,3.1,3.8s2.6,2.6,3.9,3.9a7.61,7.61,0,0,1,.9-.7,8.38,8.38,0,0,0,8.5-.9,11.37,11.37,0,0,0,1.6-1.5,30.84,30.84,0,0,0,2.7-2.4,15.35,15.35,0,0,0,2.1-2.9,38.44,38.44,0,0,0,1.4-3.6c.3-1,.7-2.1,1-3.1-1.5-1.2,1.1-2,.3-3.3-1-1.5-.1-3.1,0-4.6.1-3,0-6,0-9,0-.6.1-1.4-.2-1.8-1-1-.1-2.2-.6-3.2a8.24,8.24,0,0,1-.7-3.1c-.2-2.1-.5-4.3-.8-6.4-1.4-.8-.3-2.3-1-3.4a11.08,11.08,0,0,1-.5-2.5c-.2-1.1-.5-2.3-.8-3.4-.5-2.6-.9-5.2-1.6-7.8a17.66,17.66,0,0,1-.7-4.6c-.1-1.5-.7-3-.7-4.6V410.4c0-.6-.3-1.5,0-1.8,1.4-1.6.3-3.5,1-5.2s.6-3.5,1.3-5.1c1.2-2.9.9-6.3,3-8.9-.1-2.7,2-4.7,2.3-7.3.1-1,1.3-1.8,1.4-2.8a9.29,9.29,0,0,1,3.1-6.2,2.17,2.17,0,0,0,.8-2c0-.2,2-5.3,2.1-5.5,1.4-2.9,3.8-5.3,4.9-8.5.8-2.5,2.8-4.6,4.2-6.9,1.3-2,2.1-4.3,3.8-6.1s3.3-4,4.9-6c1.5-1.8,3.2-3.4,4.5-5.3a70.07,70.07,0,0,1,6.9-8.4c.8-.8,1.3-2.4,2.2-2.7,1.8-.5,2.2-2,3.1-3.3.6-.8,1-1.6,1.6-2.3.8-.9,2-1.6,2.6-2.7,1.1-2.1,3-3.5,4.6-5.2s3.1-3.7,4.8-5.5a10.44,10.44,0,0,1,2.8-2.3c1.1-.5,1.5-2.1,2.5-3,2.4-2.2,4.9-4.3,7.2-6.3l1.2.1c-.2-1,.6-1.3,1.1-1.8a3.15,3.15,0,0,1,1.5-.8c.6,0,1.5.6,1.8.3.9-.9,1.6.3,1.7.4,1.8,1.5,4.5,2.1,5.2,4.8,1.6.3,1.6,2.2,2.8,2.9,3.8,2.2,6.4,5.8,9.5,8.8a10.76,10.76,0,0,1,3.3,6.4c.3,4.1,1.2,8.2.9,12.4-.4,6.1.1,12.3-.6,18.5s-.2,12.7-.2,19.1a3.79,3.79,0,0,1,0,1.5,18.66,18.66,0,0,0-.7,2.2c1.1.6-.5,1.7.5,2.3-.6,1.3.9,2.7.1,3.7-1,1.5-.5,3.1-.7,4.6-.3,3.4.5,6.9-.4,10.3a.78.78,0,0,0,.2.8c1.2,1.5,1,3.2,1,4.8V395a4,4,0,0,1-.4,2.1c-.7,1,.7,1.3.5,2.2-.1.5-1.1.8-.5,1.8s-1.1.2-1.1,1.1l1.2.6a8.47,8.47,0,0,0-.4,1.7c.1.5.5,1.1.6,1.6.1,1.4,0,2.8,0,4.1a10.3,10.3,0,0,1-.6,3.5c-.3.9.8,2.3,1.3,3.5l-.3.3c-1,1.1-.4,2.4-.4,3.5v64.5a29.88,29.88,0,0,1-.8,7.9c-.5,1.8-.9,3.9-2.6,5.3a7.34,7.34,0,0,0-2.4,3.4c-.6,2.9-2.6,5-3.9,7.4-1.6,2.8-3.7,5.5-2.6,9.5,1.7.6,3.5,1.7,5.4,1.9,5.1.6,10.2-.4,15.1-1.7,1.9-.5,3.8-1.6,5.6-1.8,3.1-.4,6.2-1.3,9.4-.9,2.1.1,4.2.1,6.4,0a7.57,7.57,0,0,1,3,0c3.4,1.3,6.9,1.6,10.3,2.3a42.87,42.87,0,0,0,10.6,1.4,3.79,3.79,0,0,1,1.5,0,10.66,10.66,0,0,1,1.9.7c.7.2,1.3-1.4,2,0l1.8-1.2c.8-10.4-.3-9.9-4.4-15l.7-.8a5.07,5.07,0,0,1-1.6-.9,18.82,18.82,0,0,1-1.6-2.3c-.5-.8-1.1-1.6-1.6-2.3s-1.2-1.7-1.9-2.6c1.7-1.5-.8-1-.8-1.6v-.4a62,62,0,0,1-3-17.1v-87c0-2.1-.1-4.3,0-6.4.1-1.9-.2-3.9.3-5.9.4-1.8-.2-3.9-.3-5.9-.1-1.4,0-2.8,0-4.1v-4.1c0-1.4-.1-2.8,0-4.1s-.5-2.7.7-3.8c-1.3-1.1-.6-2.5-.7-3.8-.1-5.6,0-11.3,0-16.9,0-3.4.7-6.3,3.7-8.6a46.13,46.13,0,0,0,5.9-5.8c1.8-2,4.1-3.6,5.9-5.7a31.67,31.67,0,0,1,5.1-4.6,53.63,53.63,0,0,0,7.2-7.1c2.1-2.5,5.4-3.7,7-6.8a5.63,5.63,0,0,1,2.6-1.7,1.32,1.32,0,0,1,1.7.6h0a30,30,0,0,0,4.1,4.6,19.17,19.17,0,0,0,1.8,2.2,17.33,17.33,0,0,1,2.1,1.7c.6.7,1.2,1.7,1.9,2.5.9,1,2,1.9,2.9,2.9a36.22,36.22,0,0,1,3.6,4.2c.9,1.6,2.5,2.4,3.7,3.6,2,2.1,3.3,4.8,5.4,6.8.6.6,1.5,1.1,2.1,1.7,1,1.1,1.8,2.6,3,3.4,1.5,1,1.7,3.2,3.8,3.3.4,1.5,1.8,2,2.7,3s1.9,2.2,2.8,3.3,1.9,2.4,2.9,3.7c.2.3.1.9.3,1,1.8.9,3.5,1.8,3.5,4.2,0,.1.3.3.5.4,4.3,2.6,6.6,7,9.6,10.7.7.9,1.4,1.9,2.1,2.8,1.8,2.3,3.6,4.5,5.3,6.8,3.2,4.3,6.5,8.6,9.8,12.8.6.7.9,1.5,1.9,1.8-.4,1.7,1.4,2.3,1.8,3.4.4,1.4,1.5,2.1,2,3.2.2.5,1.2,1,1.2,1.1-1.2,1.6,1,.5,1.1,1.4.3,1.8,1.5,3.4,2.5,4.9s3.1,2.1,3,4.3c1.7.9,1.8,2.8,2.6,4.2a23,23,0,0,1,2.6,4.9,10.27,10.27,0,0,0,2.1,4c1.3,1.6,1.6,3.7,2.9,5.2.3.4.8.9.7,1.2-.5,2.2,1.4,3,2.3,4.2.2,1.4-.5,2.9.9,3.8s.1,2.5,1.2,3.7c.8.9.6,2.7,1.2,3.9.8,1.5,0,3,.5,4.3a5.28,5.28,0,0,1-.2,3.9,15.23,15.23,0,0,0-.6,4.2,5,5,0,0,1-.4,1.3c-1.1,2.3-.8,5.1-2.5,7.2.5,2.1-.9,3.7-1.8,5.2a15.63,15.63,0,0,0-2.2,4c-.5,1.8-2.1,2.5-2.9,4.1a31.88,31.88,0,0,1-5,6.6,42.8,42.8,0,0,1-8.3,7c-7,4.6-13.3,5.6-20.6,4.1a10.37,10.37,0,0,1-4.4-2c-3.4-3-6.2-6.4-5.9-11.4,0-.3.1-.5,0-.7-1.9-3.1.4-6.8-1.5-9.9,1.5-1.4,0-2.8-.1-4.3-.1-2.3-1.5-4-3.2-5.4a7.5,7.5,0,0,0-1.8-.8c-1.7,1.3-3.7,2.6-5.5,4.1a39.67,39.67,0,0,0-2.9,2.9l-2.9,2.9c-1.1,1.1-2,2.5-3.2,3.1s-1.6,1.9-2.5,2.7c-2.1,1.9-4.1,4-6.1,6.1s-3.9,3.8-5.8,5.9-3.6,4.4-5.6,6.3-3.7,4-5.7,5.9c-2.2,2-4.3,4.2-6.4,6.4a11.87,11.87,0,0,0-1.6,2.3,11.69,11.69,0,0,0-.6,2c-.2.8,1.1,1.5.1,2.3a17.39,17.39,0,0,1,1.8,1.1,8,8,0,0,1,1.3,1.3,5.89,5.89,0,0,0,4.2,1.7c3,.3,5.6-1,8.3-1.9a5,5,0,0,1,3.4.1c4.2,1.4,6.9,5.2,11,6.7.1,0,.2.2.3.3,1.6,1.8,4,2.5,5.9,3.8a3.29,3.29,0,0,0,1.6.7c2.7.1,5.2,1.3,7.9.8a2.56,2.56,0,0,1,3,1,1.72,1.72,0,0,0,.8.1c1.2-.1,2.4-.2,3.6-.4s2.5-.6,3.8-.7,2.8.1,4.1,0,2.6-.4,3.8-.7a14.65,14.65,0,0,0,4.1-1.1c4.4-2.2,8.9-4.1,12.8-7.2,2-1.5,4-3.1,5.9-4.7,3.8-3.9,7.9-7.6,11.1-11.9,3.5-4.9,7.8-9.3,10.5-14.8,2.9-2,2.9-6.3,6.3-7.8v-.3c-1.3-1.2.3-1.9.7-2.6,2.2-4,4.7-7.8,6.9-11.8,1.6-2.9,2.8-6.1,4.2-9.1.9-2,3.1-3.4,2.9-5.9,2.1-2.7,1.8-6.5,4-9.2a1.42,1.42,0,0,0,.2-.6c.5-1.6,1-3.1,1.4-4.7s.6-3.2.9-4.9c.2-1.5,2-2.6.8-4.3,1.4-1.3.2-3.2.8-4.5a12.15,12.15,0,0,0,.7-5c0-4.6-.2-9.3.1-13.9S388.54,387.1,388.54,382.6Z"/><path fill="#FFFFFF" d="M73.54,147.4c1.6.9,2.2,3,4.2,3.4,1.1,2.6,3.5,4.1,5.3,6a11.18,11.18,0,0,0,3.3,2.8,10.21,10.21,0,0,0,4.9.9,12.34,12.34,0,0,1,4.2.7c1.4.5,2.6,1.5,4.2,1.6.1,1.5.9.9,1.7.6.6-.2,1.5-.3,1.8,0,1.3,1.3,2.8.5,4.2.7s2.6,1,4.2.8,3.4-.1,5.1-.1l.9.9c1.3.8,1.2,2.2.9,3.3s-1.4,1.3-2.5,1.1a3.79,3.79,0,0,0-1.5,0c-2.6,1.4-5.6,1.6-8.4,2.4-1.2.4-3.1.4-3.6,2-.6,1.9-2.1,1.6-3.4,1.8-.2,0-.5-.3-.5-.2-1.9,2-4.4,2.6-6.9,3.2a5.71,5.71,0,0,0-2.1,1.3c-.6.4-1.1.9-1.7,1.3-2.8,1.8-5.5,3.6-8.3,5.2-1.1.6-.8,1.4-.5,2.1a2,2,0,0,0,2.2,1c3.1-.1,6.2-.1,9.2,1.4,2.5,1.3,5.3,2.1,7.2,4.3a4.56,4.56,0,0,0,3.4,1.9,6.22,6.22,0,0,1,5.1,2.2,5.43,5.43,0,0,0,4.2,1.6c2.9-.1,5.8,0,8.6,0,1.1,0,2.3.4,3.1-.7,5.1-.2,9.5-3.3,14.4-4.1,1.2-.2,2-.5,2.9.5.5.6,1,1,1.5,1.6a5.36,5.36,0,0,1,5.1,1.3c.6-.5,1.1-1.3,1.7-1.4a14.19,14.19,0,0,0,3.6-1.4c2.7-1.3,5.5-2.7,8.8-2.4.9.1,2.6-.5,2.8-1.1.8-2.9,2.9-1.5,4.4-1.9a13.78,13.78,0,0,0,.6,1.6c.8-1,1.7-1.3,2.6-.5,1.4,1.2,3.1,1.1,4.5,1.3-.2.7-.7,1.5-.5,1.7a5.33,5.33,0,0,1,1.4,4,1.52,1.52,0,0,0,.7,1.2c1.2.7,2.4,1.9,3.7,1.9,3.1,0,5.3,1.7,7.8,2.9.6.3,1.6.1,1.3,1.3,2.7,1.8,3.3,5.8,7,6.4.2,1.4,2.3,1.4,2,3.2a1.57,1.57,0,0,0,.4,1.3c2.4,1.9,1.3,5.3,3.3,7.3-1,1.2.5,2.6-.2,3.8a13.6,13.6,0,0,1-2.4,3.8,3.28,3.28,0,0,0-1,3.7,3.16,3.16,0,0,1-.4,3.1,2.1,2.1,0,0,0,0,2.6c.9,1.7,2.8,2.1,3.8,3.6,3,.4,4.1,3.5,6.7,4.6a10.69,10.69,0,0,1,2.6,2.6,19.4,19.4,0,0,1,1.5,2.4c.5.8.9,1.6,1.6,1.9,1.3.6-.3,1.4.5,2.3a17,17,0,0,1,3.2,6.1,7.56,7.56,0,0,0,2.9,3.7c1.4,1,2.2-.3,3.3-.4,3.6-.4,6.1-2.4,8-5.3.5-.8,1.2-1.9,1.9-2.1,1.4-.3,1.6-1.2,2.1-2.2a8.68,8.68,0,0,1,1.6-2.3c1.3-1.5,1.9-3.6,4.2-4.2.7-2.1,2.7-3.1,4-4.7.6-.7,1.5-1.1,1.8-1.9a4.64,4.64,0,0,1,2.9-2.9,1.75,1.75,0,0,0,1.1-2.2c0-.1-.1-.2-.1-.3a2.63,2.63,0,0,1-.6-2.4c.4-1.5-1.3-.8-1.7-1.9a18.32,18.32,0,0,0-2.8-4.9,14.61,14.61,0,0,1-2.3-7.3,35.36,35.36,0,0,1,.1-8.6c.4-2.5.3-5.2,2.1-7.4.9-1.1,1.2-2.7,2-4a18.31,18.31,0,0,1,2.4-3.1,13,13,0,0,1,3.9-3.1c1.9-.7,1.8-2.4,2.1-3.6,1-3.3,2.7-5,5.8-4.3,2.5.6,5.2.7,7.3,2.2,1.5,1.1,4,.7,4.7,3,4.8.7,6.3,5.2,9.2,8.1a4.06,4.06,0,0,1,.8,1.9,4.46,4.46,0,0,0,3.6,4.1c.3-3.3,3.5-4.3,5.1-6.8.4,1,.8,1.9,1.1,2.7s1.4,2.1,1.1,2.6c-.9,1.6,2,.5,1.1,1.8,2.1,3.5,5.2,6.2,8.1,9,1,.9,2.6,1.1,2.6,2.7.7-.2,1.6-.6,1.7-.4,1.5,1.9,3.9,1.6,5.7,2.6,2.1,1.1,4.4,1.1,6.7,1.1a42.22,42.22,0,0,0,6.1-.7,25.42,25.42,0,0,0,4.7-1.4c1.4-.5,2.1-1.2,1.9-2.6a1.88,1.88,0,0,1,1.3-2c.8-.4,1.6-.5,2.3-.9,2.9-1.7,5.5-3.9,6.8-6.9a14.16,14.16,0,0,1,4.3-5.7c4.5-3.8,7.2-9,11-13.4a39.59,39.59,0,0,0,4.1-6.5c1-1.8,1.6-3.9,2.7-5.7a28.64,28.64,0,0,0,2.2-4.7c.6-1.6,1.1-3.3,1.6-5,1-2.9,1.9-5.7,2.9-8.6-.4-.2-.5-1.7-1.7-.6-.5.4-1,.5-1.3,1.3a17.83,17.83,0,0,1-5,6.6c-1.8,1.6-3.4,3.4-5.1,5a11.37,11.37,0,0,1-1.6,1.5c-2.3,1.5-8.5,3.4-11.5,3.8a26.81,26.81,0,0,0-2.7.7,7.06,7.06,0,0,0-2.8.6c-1.8.9-9.9,1.6-11.2.9a12.79,12.79,0,0,0-5-1.3c-1.6-.1-3.3.9-5,1.4-.3.1-.7.4-1,.4-1.5-.2-2.9.5-4.5.5a7.91,7.91,0,0,1-2.9-1.1,6.79,6.79,0,0,0-5.9-.3,16.77,16.77,0,0,1-4.9,1.7c-.8.1-2.7.9-2.8-1.2.9-2.4,3.8-1.9,5.1-3.7,1.3.1,3.2-.2,3.8.5,1.1,1.2,1.9.3,2.7.2a10.85,10.85,0,0,0,7.5-3.7,39,39,0,0,1,3.8-3.3c2.4-2,5.4-2.1,7.8-3.8.2-.1.7.2,1,.3,1.7.3,2.5-.3,2.7-2,.1-.9-.4-2,.7-2.7.3-3.2,2.4-5.5,3.7-8.2a37.94,37.94,0,0,1,9.8-13.6c1.1-.9,2.3-1.7,3.4-2.7a25.73,25.73,0,0,1,9.4-5.3c2.8-.8,5.5-1.8,8.3-2.7-.2-1.1-.7-1.8-1.9-1.8a18.15,18.15,0,0,0-5.7.6,18.9,18.9,0,0,1-5.3.8,35.64,35.64,0,0,0-5.7.9c-2.3.4-4.6.9-6.1,3.1a9.55,9.55,0,0,1-5.5,3.9,20.53,20.53,0,0,0-4.6,2.5c-1.6,1-3.2,2.1-4.7,3.2-1.9,1.4-3.8,2.9-5.8,4.2-3.3,2.1-6.2,5.3-10.8,4.8-.2,0-.3.5-.5.5-2.4.2-4.8.6-7.2-.4-1.3,1.6-2.6,3.1-3.8,4.8-1.9,2.7-2.4,3-5.4,2.1-3.3-1-5.8.1-7.4,3.2-.5,1-.9,2.4-1.7,3-1.3.9-1,2.4-1.8,3.4a38.33,38.33,0,0,1-2.8,2.9c-1.8,0-3.4.1-5,0s-3.1-.5-3.7-2.2a2,2,0,0,0-2.2-1.5c-.3,0-.6-.3-.8-.5-2.2-2.1-2.3-2.2-4.6-2.9,3.9-1.9,8-2.6,11.9-4s7.9-3.2,10.8-6.5c2.6-2.9,5.9-4.9,9.1-7a25.72,25.72,0,0,0,10-11.4,80.92,80.92,0,0,1,4-8.4c1.4-2.5,2.6-5.2,4-7.7a3.39,3.39,0,0,0,.2-3.1c-.4-1.2-.9-2.3-1.3-3.5,2-1.8,3.8-3.6,4.1-6.3a5,5,0,0,1,.5-1.3,20.84,20.84,0,0,0,2.9-11.2,33.79,33.79,0,0,0,0-4.5,12.2,12.2,0,0,1,1-5.3,10.55,10.55,0,0,0,.6-2.4c.2-2.4-.8-4.7-1.2-7a15.71,15.71,0,0,1,0-5.3c.3-2.1,2.7-3,2.3-5.2,1.7-1,1.6-2.8,2.2-4.3a14,14,0,0,0,1.1-6.7c0-1.6.1-3.3,0-4.9-.2-2.7,1.2-4.8,2.3-6.9.4-.8.1-1.1,0-1.7-.1-1.1.6-2.3.6-3.4,0-2.4,1.3-4.7.8-7.2-.1-.3.3-.6.4-.9.1-.5,1.6-.5.6-1.7-.1-.2.9-1.1,1.1-1.8s-.2-1.7.2-2.1c1.6-2.3,2-4.9,2.8-7.4L335,14.6c-.8.5-1.6,1.4-2.4,1.4-2,0-2.2,1.4-2.5,2.7-.1.6,0,1.4-.3,1.7-1.7,1.8-2.4,4-3.2,6.2-.7,1.8-1,4-3.2,5-.6,3.1-3.2,4.9-4.7,7.4-.7,1.2-2.2,1.8-3.3,2.7-1.3,1.1-.7,3-1.4,4.3s-1.7,2.5-2.3,3.9c-1.5,3.3-4.1,5.2-7,7l.7.8c-.9.9-2.1,1.7-2.6,2.7-1,2.1-2.9,3.3-4.3,4.9a3.1,3.1,0,0,1-1.9.9,4.18,4.18,0,0,0-3.8,3,9.48,9.48,0,0,1-1.7,2.7,6.83,6.83,0,0,0-2.3,3.9c-.2,1.3-1.3,2.6-1.3,3.9,0,1.7-1.8,1.7-2.1,3-.4-1.6.1-3.1.4-4.6a38.56,38.56,0,0,1,.9-4.9c.5-1.7.6-3.4,1.4-5.1a4.25,4.25,0,0,0-.3-3.5c-2-3.4-.8-7.2-1-10.8,2.5-5.7,2.9-11.9,3.7-18a9.51,9.51,0,0,1,1.4-4.3,77.11,77.11,0,0,0,6.9-10.3,55.69,55.69,0,0,1,4-5.9c1.8-2.3,4-4.3,5.8-6.6,1.5-2,2.9-4.3,2-7.1-.5,0-.8,0-.9.1-2.2,1.9-4.2,4.2-6.6,5.7-2.1,1.4-3.9,3.4-6.6,3.9-1.2,1.7-3.5,1.3-4.8,3-1.6,2.1-4.5,1-6.6,2.2-.1,0-.3-.3-.5-.4-.8-.4-1.7-.8-2.6-1.2-1.7,2.3-3.3,4.6-5,6.7-3.2,4-7.4,6.8-11.3,9.8a24.37,24.37,0,0,1-6.7,3.7c-2.5.9-4,2.8-6.1,4a42.34,42.34,0,0,0-4.2,3.2c.8,1.1,1.3,2,2,2.8a3.5,3.5,0,0,1,.1,5l-.1.1a5.37,5.37,0,0,0-1.9,3.7.89.89,0,0,1-.5.8c-1.9.9-2.4,2.8-3.2,4.3-1.4,2.5-2.4,5.1-3.6,7.7a1.45,1.45,0,0,1-.7-.2c-2.4-1.4-2.6-4.2-3.9-6.3a9.8,9.8,0,0,1-1.5-5.2c.3-5.8-1-11.5-.8-17.3a21,21,0,0,0-1.2-7c-.3-1.1,0-2.8-.6-3.4-1.2-1.1,1-2.2-.3-3l1.3-.5c.1-1.6-.2-3.4.4-4.7.8-1.7.4-3.2.3-5-.6.3-1.1.4-1.2.6-.5,1.6-1.8,2.6-1.8,4.6,0,1.6-1.6,3.1-2,4.7a30.84,30.84,0,0,0-.8,6.8c-.1,7.8,0,15.5-.1,23.3,0,1.2.5,2.5-.7,3.4.1,2.3-1.1,4.5-.8,6.8.1,1.6.1,3.2.1,4.9a4.23,4.23,0,0,1-.7,2.7,6.2,6.2,0,0,0-.7,5.6c1.1,2.7,1.5,5.6,2.8,8.2,2.9,5.6,2.7,5.7.9,12.1a3.44,3.44,0,0,0-.1,1.4,3,3,0,0,1-1.2,2.9,5.83,5.83,0,0,0-1.9,4.5,21.87,21.87,0,0,0,1.1,6.7c.9,3,1,5.9-1.5,8.4-1.4,1.4-1.4,1.6-.2,3.3a5.48,5.48,0,0,1,1.4,3.2c0,2.3-.4,4.6,1.5,6.5.3.3,0,1,0,1.5a4.67,4.67,0,0,0,.3,1.7c2,3.9,2.3,8.2,2.6,12.4a17.74,17.74,0,0,1-.5,6.5c-.6,2.1-.1,4.5-1.2,6.7a9.42,9.42,0,0,0-2.9.1c-.8.3-1.8.9-.9,2.2.3.6-.3,1.5.6,2.1a1.34,1.34,0,0,1,.5,1.9c-.1.1-.2.3-.3.4-.9.9,0,1.4.2,2.1l-1.5.6,1.6.8c-.1,1,.1,2.3-.4,3.2s.6,1.8-.4,2.6c-.6.5.8,1.6,0,2.8-.5.8,0,2.2-.1,3.3-.1.5-.8,1.3-.7,1.5,1.5,1.9.5,4.1.6,6.1.1,1.2-.7,2.4-.7,3.8a34.43,34.43,0,0,1-.5,7.2c-.8,3.4-.7,7-.9,10.5-.1,2,0,4-.1,6,0,.3-.6.5-1.3.9a62,62,0,0,0-2.7-12,71.79,71.79,0,0,0-5.7-14.1c-.3-.6-.9-1.3-.8-1.9s-1.2-.8-.4-1.8c.6-.8-1.1-.2-1.2-1-.4-2.6-1-5.1-1.4-7.6a15,15,0,0,1,0-3,15.46,15.46,0,0,1,.7-2.3c.3-.9.2-2.2.8-2.6,1-.7-.1-1.5.5-2.3.9-1.1.9-2.6,1-4.1.3-2.4-1.9-5.1.6-7.3-.2-.2-.5-.3-.5-.5-.1-.7-.5-1.6-.2-2.1,1.8-3-.3-6.5,1.3-9.5-1.7-.6.5-1.6-.3-2.7-.6-.9-.3-2.4-.3-3.6v-3.4a4,4,0,0,0,0-1.1,6.26,6.26,0,0,1-.1-5.8,6.09,6.09,0,0,0-.4-4.2,10.62,10.62,0,0,0-1.8-3.3c-.9-1.1-.3-2.2-.5-3.3a32.2,32.2,0,0,1-1-7.5,15.79,15.79,0,0,1,.9-4.2c.7-2.7,1.5-5.4,2.1-8.1.5-2.2,1.8-4.1,1.7-6.5-.1-1.3,0-3.7-.6-4.4-.7-1-1.4-1.9-2.1-2.9a19.41,19.41,0,0,1-2.1-2.9c-.6-1.1-1.5-2.2-1.4-3.6-1.4-.2-1.6-1.5-2.1-2.4-1-2.1-1.9-4.2-2.9-6.3-2.6-5.3-4.6-10.8-7.6-16a15.39,15.39,0,0,1-2.2-6.2,39.85,39.85,0,0,0-3.3-11.8,43,43,0,0,1-2-7c-.4-1.7,0-3.5-.7-5.3-.8-2.2-.2-12.4.8-14.6.9-2,.5-3.7.5-5.6-.5,0-.9-.1-1,0-1.5,2.4-1.5,5.4-3.4,7.6-.8,5.2-3.2,10-3.8,15.3-1.6,2.6-1.5,5.7-2.1,8.5a54.73,54.73,0,0,0-.8,9c-.1,1.2,0,2.4,0,4-1.9-2.8-1.9-2.8-4.1-1.7-1.6-1.6-3.5-3-4.1-5.4-1.5-.8-2-2.5-3.1-3.7a20.94,20.94,0,0,1-2.5-4.4c-.1-.2-.4-.3-.5-.5a39.62,39.62,0,0,1-5.6-10.8c-.6-1.9-.7-4-1.4-5.8a6.39,6.39,0,0,1-.3-4.3,44.63,44.63,0,0,0,1.3-7.3,37.48,37.48,0,0,0,0-6.7c0-.2-.2-.4-.4-.6h-1.6a11.66,11.66,0,0,0-1,2.6c-.5,3.6-1.8,7-2.5,10.6s-1,7.5-1.9,11.1c-.5,1.8.1,3.8-.7,5.7-.6,1.6-.2,3.7-.1,5.6s-1.2,3.6-.8,5.7c.6,3.4-.4,6.7-1.6,9.8a8.31,8.31,0,0,0,.6,7.5,11.81,11.81,0,0,1,1.8,7.1c-.4,5.8,1.3,11.5.7,17.3,1.1,1.2-.6,2.5.2,3.8a16.26,16.26,0,0,1,2.1,7.8c.1,1.5,1.1,2.9.7,4.6,0,.2.3.4.4.6,1.3,2.8,2.6,5.7,4,8.5,1.6,3.4,3.7,6.5,5.2,9.8,2.5,5.4,5.9,10.3,9,15.4a33.65,33.65,0,0,1,4.6,13.1,7.65,7.65,0,0,0,1.8,4.1c1,1.1,2.4,2.2,2.5,3.4.1,2,1.7,2.6,2.5,4v5.8c1,1,1.8,2.4,3,2.9,1.5.5,1.3,1.7,1.7,2.6.4-.1,1-.5,1.1-.4.3.4.2.9.9,1.3,1.5.9,1.5,2.1.7,3.7,2,3.6,5.4,5.6,8.2,8.5l-.6.7,2.5,1.9-1.8,2c.7,1.5,1.9,2.4,2.5,3.9.7,1.8,2.5,3.2,3.8,4.8.1.2-.1.7-.2.9a54.76,54.76,0,0,1,3.5,4.9c.9,1.8,2.4,3.5,1.8,5.8l1.3.5v2.3c0,.4.1,1,.2,1,2,.3,1.1,1.8,1.3,2.8a1.93,1.93,0,0,0,.3,1,17.55,17.55,0,0,1,1.2,3.2,22.85,22.85,0,0,1,0,3.7c-.1,1.2-.3,2.4-.3,3.6s.2,2.2.3,3.3a7.72,7.72,0,0,1-.2,1.5l-1.5-.4c.7-.8-1.4-1.1-.4-2.2.2-.2-.8-1.4-1.2-2.2l-1.2-2.1a16,16,0,0,0-1.1-3.3c-4.5-5.9-7.7-12.6-11.9-18.7a4,4,0,0,1-.8-2.3c0-3.7-1.3-7.2-.8-10.9a6.05,6.05,0,0,0,0-1.9,3,3,0,0,0-1.8-2.7c-.4-.2-.6-.9-1-1.7l-1.3,1.8a2.84,2.84,0,0,1-.9-1c-1.8-3.6-3.3-7.4-5.6-10.8-1.3-2-2.3-4.2-4.3-5.7-.4-.3-.9-.7-.9-1.1,0-1.8-1.7-.4-2.1-1.3-.9-2.6-1.8-5.3-2.7-7.9-.5-1.4-.6-3.1-1.4-4.3-2.9-3.8-5.1-8.1-8.4-11.5-1.3-1.3-2.7-2.6-4-4a27.85,27.85,0,0,0-5.8-5c-2.5-1.2-5-2.5-7.5-3.7-.8-.4-1.8-.5-2.6-.9s-1.7-1.1-2.7-.7c-1.3.5-1.3-1.6-2.6-1.2a9,9,0,0,1-2.8.4h-16.5l-2.6-2.9-3.4,1.6-6.1-6.1c-1.7-.2-2.6.2-3.1,1.7-.6,1.9-.5,4-1.7,5.6-2,2.7-3.3,5.8-5.8,8.1-.7.6-1.5,1.1-1.8,1.9a11.61,11.61,0,0,1-3.5,4.1c-1.2,1.1-3.4,1.5-4,2.8-1,2-3.1,1.2-4.3,2.5-.6.7-2.2,1.3-2.9.9-2.3-1.2-4.6-.4-6.9-.6a3.55,3.55,0,0,1-1-.2c-2-1.2-4.1-.5-6.7-.4a13.73,13.73,0,0,0,2,1.3C70.64,146.1,72.14,146.6,73.54,147.4ZM246,186.7c1.6-3.4,2.8-7,4.5-10.5,1.5-3.2,3.6-5,7.2-4.5l3.8-3.8c1,1.6-.8,2.9-.6,4.3-1.8-.1-1.1,1.4-1.5,2.3a23.94,23.94,0,0,1-1.3,2.8c-.9,1.4-.9,3.3-2.6,4.1-.4,2.7-2.6,3.1-4.7,3.7-.3.1-.8.2-.9.4l-1.5,2.7c-.7.6-1.4,1.2-2.1,1.7-.3.3-.2.8-.3,1.2A4.87,4.87,0,0,1,246,186.7Zm-8.1-.6c1.6-2.8,2.3-6.4,5.7-8.1a3.21,3.21,0,0,1-.8,3.6c-.4.4.1,1.7-1.2,1.8,0,1.1-.9,1.8-.9,3,0,.8-1.4,1.4-1.5,2.7,0,.8-1.1,1.4-1.7,2.2l-.6-.4c.2-1.7.2-3.5,1-4.8Z"/><path fill="#FFFFFF" d="M2.84,326.2c.9,1.4,2.6,1.6,4.2,1.5.2,0,.4.3.6.4,2.9.6,5.7,1,8.3-1.5v-22a9.57,9.57,0,0,1,2.8-7.1c.6-.6.9-1.1.3-1.9,1.3-1.8,2.3-4.3,4.1-5.3,2.8-1.6,5.3-3.7,8.4-5.1,4.2-1.9,8.5-2.4,12.9-3.3,3.2-.7,6.2,1.1,9.4.7,1.1,1.7,2.9.5,4.4,1.2A65.87,65.87,0,0,0,67,287a25.33,25.33,0,0,1,8.5,4.7c3.9,3.1,8.2,5.5,11.6,9.2a1.47,1.47,0,0,0,2.1.3l.1-.1c1.7-1.3,3.3-2.7,4.8-3.9a10.87,10.87,0,0,1,1.3.1c.4-2.1,1.8-3.4,3.2-4.7,4-3.8,8.1-7.6,12.1-11.4,2.3-2.2,4.3-4.6,7.2-6.1.3-.1.5-.4.7-.6,1.7-3.1,4.7-4.8,7.4-6.8a21.86,21.86,0,0,0,8.1-10.6c.2-.6-.7-3.7-1.1-3.6-1.2.2-1.7-.9-2.5-1.2-2.7-1-5.4-1.7-8.3-.3a19.94,19.94,0,0,0-5,4.1c-1.7,1.6-1.7,1.6-3.6.2-.2-.1-.7-.4-.8-.3-1.4,1.5-2.2-.4-3.1-.7a13.5,13.5,0,0,1-3.3-1.9c-2.1-1.6-5-1.6-6.8-3.6-4.3-1.2-7.9-3.9-12.1-5.2-3.9-1.3-7.8-2.6-12.1-2.5-6.6.3-13.2,0-19.9.1a41.78,41.78,0,0,0-7.1.9,11.66,11.66,0,0,0-2.6,1c-.7.3-1.6,1.1-2.2,1-1-.3-1.5-.6-2.3.4a7.33,7.33,0,0,1-2.3,1.6,1.93,1.93,0,0,1-1,.3,25,25,0,0,0-10.1,5.5c-1.3,1.1-2.7,2.2-4,3.4s-1.8,3.5-4.1,3.9c-.2,0-.2.6-.4.9a10.42,10.42,0,0,1-1,1.8c-2.9,3.7-6,7.3-7.4,11.9a3.9,3.9,0,0,1-1.3,2c-1.5.9-1.5,2.5-2,3.7s-.6,2.3-1.7,3a1.67,1.67,0,0,0-.8,1.9,2.27,2.27,0,0,1-.8,2,2.33,2.33,0,0,0-.7,1.5,3.07,3.07,0,0,1-.8,2.4,2.27,2.27,0,0,0-.6,1.6c.2,1.9-1,3.5-1.3,5.3l1.3.3c-.3,1.3-.5,2.3-.8,3.3a10.24,10.24,0,0,1-.8,3c-.6.9-.1,1.8-.4,2.6a18.41,18.41,0,0,0-.3,3.3c-.3,3.2,1.2,6.2.8,9.4A9.16,9.16,0,0,0,2.84,326.2Z"/></g></g><g class="cls-1"><text fill="#FFFFFF" class="cls-2" transform="translate(412.11 339.48)">MANDRAGORA</text><text fill="#FFFFFF" class="cls-2" transform="translate(412.11 509.28)">CREATIONS</text></g></g></g></svg>