<svg xmlns="http://www.w3.org/2000/svg" viewBox="0 0 473.57 430.4"><g id="Capa_2" data-name="Capa 2"><g id="Capa_1-2" data-name="Capa 1"><path d="M435.53,238.65a15.36,15.36,0,0,0,3.2.39A9.06,9.06,0,0,0,435.53,238.65Z"/><path d="M448.66,189.2v0l.13.11Z"/><path d="M446.88,336.15a1.54,1.54,0,0,0-.25-.36.87.87,0,0,0-.31-.18c0,.18.05.36.09.56A3,3,0,0,0,446.88,336.15Z"/><path d="M194,121.42c6.49-2.65,11.47-8.07,18.33-10.1a1.78,1.78,0,0,0,1.14-2.77c-.72-1-2-.54-2.62.16-2.47,2.63-6.31,2.72-8.94,5-.92.8-2.48,1.33-2.74.1s1.51-3.75-1.52-3c-1.77.42-4.77,1.9-4.07,4.27.95,3.22-1.29,4.4-3,6.41A3.19,3.19,0,0,0,194,121.42Z"/><path d="M448.66,189.2l.12.13a.62.62,0,0,1,0-.13Z"/><path d="M452.7,191c2.32-2.7,1.25-16.2-1.18-18.85a2.83,2.83,0,0,0-1.67-.78.93.93,0,0,0-.92,1.35c2.36,5.54-.87,11-.16,16.51C450.45,189.06,450.16,193.92,452.7,191Z"/><path d="M397,17.18c.64,1.15,1.8,2,2.44,3.15,1.81,3.24,5.4,3.61,8.89,5-1.57-3-3.08-6-4.71-8.92-1.31-2.38-3-2.08-5.43-1.32C396.47,15.61,396.4,16.12,397,17.18Z"/><path d="M419,293.49a3.3,3.3,0,0,0,.62.11A2.79,2.79,0,0,0,419,293.49Z"/><path d="M3.82,162.92a6.58,6.58,0,0,1,5.71-2.39c.17-.39.3-.54.29-.69s-.11-.37-.22-.4c-2.35-.67-4.71-1.33-7.07-2-.94-.25-2.53-.56-2.53.4a13,13,0,0,0,1.38,5.48C1.87,164.35,3.11,163.72,3.82,162.92Z"/><path d="M398.48,10.08A16.43,16.43,0,0,0,389.81,0C392.09,3.83,394.63,7.46,398.48,10.08Z"/><path d="M226.49,103.57c.16-2.24,3.4-.06,3.74-2.48a1.2,1.2,0,0,0-1.59-1.32c-1.45.44-3.44.2-3.91,2.23C224.53,102.84,225,103.58,226.49,103.57Z"/><path d="M469.74,333.44h-.07c-.28-.36-.57-.72-.85-1.09-.78-2.16-2.73-3-4.52-4.09-3.88-2.29-8.75-1.13-12.56-3.62l.06-2.29c2.87-.63,5.41.63,8.24,1.26-3.21-7.44-11.88-5.87-16.78-10.53,1-2.48,3.47-1.24,5.39-1.62.4,1.55,1.09,4,2.77,3,3.12-2,5.78.54,9.27.18-3.28-2.71-7.32-3.17-8.89-7.27-.92-2.41-.73,1.7-2,1-3-.88-6.09-1.93-9.25-1.09-4.24,1.12-8.39-1-12.6-.16a10.36,10.36,0,0,1-2.48-.07c-1.62-.05-1.33-1.68-2.05-2.48a7.28,7.28,0,0,1,2.16-.94c2.73-.16,5.47-.16,8.21-.22,6.33-2.85,13.25-.83,20.2-2.49a26.73,26.73,0,0,0-9.11-2.66,4.39,4.39,0,0,0-2.88-2.46c-6.2-1.51-12.22,1-18.25,1.47a47.72,47.72,0,0,1-11.13-.43c2.41-.3,4-3.42,6.37-3.29-1.79-.46-.53-2.15-.24-3.55,0-.53,0-1.05,0-1.57h0c0,.52,0,1,0,1.57l1.93-.12a3.26,3.26,0,0,0,3.08-.69l2,.07c3.43.24,3.57-2.49,4.25-4.73h13.2l.34-1.42c-4.15.24-6.88-2.83-11-3.28-5.87-.63-10.31,5.54-16.35,2.88-1.82,3.81-5.83,2.29-8.68,3.58,0-2.61,3.09-4.16,2.34-7l3-1.21c3.39,2.53,5.05-1.48,8.31-1.56-1.68-1.75-3.9-.2-4.63-2.15.14-1.33.73-2.18,2.21-2.11,4.5.55,3.5-3.79,5.14-5.78,2.22,0,4.49-.71,6.65.41-1.39,2.23.91,1.29,1.33,1.3,1.65.06.93-1.21,1-2.1.27-2.54-2.49-2.86-3.25-4.62.77-2.53-.94-5.5,1.38-7.75l.05,0c.45-3.45,1.08-6.88,1.28-10.34.16-2.67.92-4.37,3.15-4.6-4.69-1.17-1.51-4.66-.27-7.51.6-1.37.8-3,1.72-4.11,1.76-2,.37-5.9,1.91-6.46,4.43-1.62,3.32-5.32,4.12-8.25.66-2.38-2.09-3.58-2.72-5.72-.29-1-1.93,1.3-3.2,1.44s-2.93,1.19-3.14-1.41c-.27-3.46-.88-6.88-1.08-10.34-.05-.89-.6-2.67,1.13-2.79,2.09-.15,1.62,1.73,1.69,2.9.13,2-.11,4,0,6a1.78,1.78,0,0,0,2.47,1.69c1.52-.5,1.31-1.46.37-2.51s-.43-2.52-.55-3.81c-.21-2.28-.27-4.37-1.51-6.77-3.23-6.23-7.25-12.32-7.76-19.68-.09-1.17-1.29-2.57,1.1-2.93s2.15,1.1,2.29,2.67c.36,4.1.68,8.25,3.25,11.9-.77-4.61.69-9.14.08-13.76,6.44,7.1,6.49,15.7,5.18,24.38,2.16.5,2.11-2.73,4-1.48,1.53,1,.28,2.42.33,3.65.14,3.32-.27,6.83,3.69,10-1.36-6.2-.61-11.37,0-16.54-2.36-1.81-3-4.3-2.85-7.16.37-6.13-1.61-12-1.42-18.33.2-6.8-4.07-13.77-8.7-19.57-3.36-4.52-4.82-10.44-10.11-13.58-.45-.27-.22-1.55-.51-2.27-1.11-2.77,1.49-4.52,1.8-6.88,2.56-1.81,3.07.77,4,2a116.57,116.57,0,0,1,13.31,23.23c1,2.28,1.79,4.81,4.84,6.55-1.09-6.34-4.12-11.08-6.82-16-3.77-6.84-10.06-11.89-13.39-19,1.27-2.64,2.75-5.21,3.76-8s1.16-5.84-1.78-7.49-5.34.26-7.19,2.57c-.7.88-1.59,2-1.62,3-.09,2.92-1.78,5.26-2.45,7.94l-2.65,1-.3-1.93,1.29-2c1.42-1.42,3.25-3.45,2.07-5-2.86-3.87.05-7.53-.13-11.24-.07-1.61,1.28-3.73.85-5.66-3.17-14.41-2.11-29.3-5.48-43.76A121.56,121.56,0,0,0,409,28.35h0c-.19-.53-.34-1.12-1.13-1-.91-1-1.24-.16-1.61.52h0c-.34-.23-.86-.74-1-.65-.74.47-.43,1.05,0,1.58,0,.6.68,2.1-.76,1.36-3.91-2-6.13-7-11.47-6.59.93,1.37,3.17,2.84,1.18,4.07-1.81,1.11-5.35,1.8-7-.6-2-2.95-4-1.87-7.41-1.34,5,2.08,3.9,5.62,4,8.76-1.19-.9-.47-3.28-2.64-3.44-.6-5.17-5.92-7-8-11.21s-5.81-7.53-11.09-10.6c2.08,2.77,3.52,4.51,4.76,6.38s5.16,2.74,2.35,6.19c-.12.15.52,1.23,1,1.53,5.1,3.05,5.87,8.24,4.37,12.82-1.06,3.26.11,9-6,9.44l-.47-2.16c-.64-2,1.27-5.82-3.48-4.88a1.91,1.91,0,0,0-.91-.25c-.37-4.09-5-9.52-9.11-10.67-3.36-.91-6.77,1-10.17-.27-1.11-.41-.95.49-1.28,1.47-1.21,3.54,1.67,7.85-2.75,11-2.37,1.67-4.77,1.84-7.17,2.62-3.38,1.09-5.57-.91-4.67-4.32.32-1.22,1.59-2.2.72-4.12-3.43,1.61-4.28,5.35-6.58,7.74-1.42-.62-1.48-1.87-1.79-3.2-.2-.86-.41-1.12-.63-1.08l12.48-17c1.35-.88,2.77-1.67,4-2.66.63-.49,1.05-1.55.36-2.17a8.59,8.59,0,0,0-3-1.56c-.24-.08-1,.75-1.17,1.27a26.53,26.53,0,0,0-.51,3.35c-1.22.34-2.74.33-3.63,1.08-3.91,3.31-6,1.78-7.33-2.42-.24-1.32,1.06-3.65-2-3.05-3.2-.93-2.54,2.27-3.73,3.5-2.06,0-3.48-4.32-6.05-.9-.61-.54-1.39-1.2-2-.34-.47.66-.13,1.53.87,1.8.28.67,1,1.25.4,2.09l-2.18.84c-1.67,1-4-1.81-5.34.91-3.67-1.58-5.31,1.83-7.79,3.16-1.38-.82,1-2.12-.87-3.22-4,4.35-6.26,10.39-11.28,14h0c-1,1.48-1.73,3.31-.89,4.76s0,2.22-.51,2.28c-5.35.7-5.19,5.9-7.57,9h0c-1.27,1.05-4.11,1.44-1.69,4.05-3,2.9-3.74,7.85-8.23,9.51A1.31,1.31,0,0,0,261,64.71c-.72.25-1,1-.41,1.55,2.27,2,.24,3.19-.81,4.48a45,45,0,0,1-4.34,4.8c-4.38,4-6.39,9.73-10.35,14-1.08,1.17.13,1.76.79,2.36,3.55,3.17,3.93,6.53,1.15,10.5-.65.94-2.45,1.32-1.54,3q-1.28,2.1-2.57,4.2c-1.35.2-3-1.09-4,.61-.6,1,0,1.85,1.26,2-2.14,4.46-4.24,9-9.95,9.84a4.38,4.38,0,0,0-3.16,2.09c-2,3-5,4.56-8.31,5.6-1.1-1.29,1.37-4.78-2.08-4.29-2.6.37-4,2.54-2.34,5.42.05.09-.1.3-.15.45-1.47,1.78-2.78.88-4.08-.23-1.6-.93-3.9-4.64-4.43-2.5-.83,3.3-3.57,1.55-4.42,3.22l-1.33.39c-1.2-.94.33-3.07-1.29-3.55-2.14-.18-4,6.78-6-.25-.27-1-1.48.86-1.93,1.77-1.26.76-1.7,3.07-3.89,2.06-.77-1.34-.27-3.26,0-4.11,1.21-4.46-1.18-4.16-4-3.72-3.86-3.77-3.31,1.52-4.91,2.39-1,.17-2.07-.78-3.12,0-2-1.12-3.16-3.77-5.55-4-4.53-.46-7.38-3.23-10.36-6.18-1.38-1.36-3.08-4.25-3.74-4-4.61,1.53-8-2.29-12.21-2.19-2.73-.71-3.23.27-2,2.58l-2-.44c-2.77.74-5-.76-7.49-1.54-5.17-1.62-10.54-2.59-15.56.79a50.2,50.2,0,0,0-16-3.59c2.21,3,6.12,3.73,7.9,6.94l-2.92,1.17c-3-.6-7.09-4.28-8.62-2.36-3.92,5-6.12.29-8.89-.54-1.78-.53-3.3-2-5.69-.5,12.34,7.7,24.62,15,37.26,21.68A200.77,200.77,0,0,1,69,112.7c-1.21-1.1-2.4-2.21-3.62-3.29-1-.86-2.16-2-3.32-.75A4.75,4.75,0,0,0,61,112.18c.28,1.67,1.78.91,2.8.58,1.81-.58,2.55,1.16,3.86,1.64-.11,1.91,1.41,2.76,2.53,3.87.2,2,.39,4,.59,5.94-4.65-1.64-4.5,3.57-7,5-.4.23.42,1.4,1.26,1.79,2.15,1,6-.24,3.47,5.26-1.7,3.67-1,5.52-5.91,5.92-3.56.28-7.1.85-10.65,1.3l-.38,1.38c5.62.34,10.12,2.29,12.52,7.74-3.75-.35-7.35-.92-11-.9-1.28,0-4.41-1.16-3.67,2.48a1.92,1.92,0,0,1-.67,2.12c-2.65,0-5.36.46-7.92-.46s-5.17-1-8.92,0c20.79,6.35,40.71,11,61.55,10.79a9.73,9.73,0,0,1-3.13,1.47,7.88,7.88,0,0,1-1.47.17,177.74,177.74,0,0,1-52.06-2.79c-8.44-1.7-16.78-4.55-26.41-4.22,4.49,3.69,9.25,5.74,12.08,10,.34.52,1,1.06,1,1.51a1.42,1.42,0,0,1-1.93,1c-4.55-1.8-3.5,2.45-4.49,4.28-.27.5.93,1.74-.52,2.28-1.22.46-2.18,1.15-1.44,2.57.55,1.07,1.75.91,2.68.71,4.67-1,6.45,1.88,7.72,5.55-2.42,3.49-2.42-2.85-4.4-1-1.88,3.44,5.83,2.61,3.32,6.17,2.26.19,1.93-4.61,5.49-3.27l.11.14c.66,3,5.6,3.48,4.73,7.84-.12.59,2.23,3.23,3.13,5.13,3.4,3.08,8.28,3.14,11.89,5.81l3.79,1.17c-2,.3-4,2-6,.82-1.63-.95-3.44-1.56-4.16.11s1.32,3.58,2.56,4c5.72,2,10.52,7,17.33,5.54-4,1.88-8,3.68-11.89,5.68-2.15,1.11-5.68,1.88-5.65,4.27.06,3.54-1.62,2.61-3.47,2.5-15.11-.84-27.72,4.32-37.68,15.78-1.08,1.24-2.93,2.36-1,4.49,8.64-9.86,20.33-13.15,32.56-15.36,3.05-.55,5.75,1,8.73,1.1,1.9,0,1.52,1.68.13,2.73-3.31,2.5-6.54,5.14-10,7.48-.95.64-2.26,2.49-3.74.59-.79-1-1.83-1.31-2.33-.25a3.74,3.74,0,0,0,1,4.52c.84.79,1.37,1.78,2.84.74,5.9-4.17,12.63-7.19,17.39-12.93,1.22-1.47,2.55-1.35,4.7-.59,2.85,1,5.67,2.44,8.74,2.93.31,1.14,1.48,1.06,2.22,1.59l.75,2.34c.13,1.92-1.25,1.76-2.56,2.13a103.29,103.29,0,0,0-15.77,6.3c-3.79,1.76-8.1,3.75-12.83,3.52-3.31-.16-6.9-.52-9.48,2.66-.71.86-1.59,1.83-.28,2.18,2.13.55,1,1.27.91,2.53a9,9,0,0,0,2.19,6.9c2,2,4-.35,5.67-1.46A24.84,24.84,0,0,1,46.64,270c4.46-.34,9-.1,13.34-1.14,7-1.68,3.69,5.72,7,7.38,1.34.67.71,3.46-.63,4.93-3.95,4.35-8.58,8.19-10.11,14.32a31.82,31.82,0,0,0,14-10.67c1.4-1.93,2.26-1.14,3.54-.43q1.18,1.93,2.39,3.87c-.13,1.13-2.56,2.34.21,3.37s5.19,2.08,7.74,3.22,3.14-.45,3.75-2.27c2.56.6,4.78,1.16,5,4.7.13,2,1,4.53,4.38,1.58,2.69-2.32,6.18.16,9.13,1.54-1.44,2.92,1.08,2.7,2.4,2.55,3.82-.41,7.32,1.16,11,1.38.18,1.37,1,1.32,2,.93l.49.11.46-.19c4.09,1.82,8.6,1.39,12.85,2.35.87,1.3-1,3.73,1.16,4.17s1.21-2.1,2-3.12a7.42,7.42,0,0,0,.48-.6,7.42,7.42,0,0,1-.48.6l2,.48c2.9,1.47,7.85,2.47,8.31,4.5,1.56,6.79,3.18,1.51,4.82.51,2.81,5.4,4.61,11.57,11,14.21l.07,0c-.65,1.56-3-.87-3.4,1.44a10.53,10.53,0,0,0,6.06,1.73,2.55,2.55,0,0,0,.84.3c2.15,1.12,3.14,4.44,6.38,3.52l5.12,1c1.37.9.91,4.17,3.88,3l3.37.59,6.76,1.22,1.33,1.21-.3.8.63-.61c1,1.64,2.61.8,4,1,0,2.89,2.85,6.34-2,8,1.8,1.57,3.57-1.65,4.59.43.78,1.58,1,3.76-2.12,3.34,0,0-.1.15-.14.23,5.4-.67.81,3.64,2.42,4.86.17,2.58-3.21,2.75-3.43,5.05l-1.68,3c-2.54,1.19-3,4.21-5,5.81-.93.72-2.89,1.23-1.64,2.71.77.9,2.8,2.41,3.86,1.31,2.54-2.66,4.66-.42,6.56.36a17.75,17.75,0,0,0,10,1.17c.48,4.29-2.89,5.5-5.76,6.94-1.64.82-1.6,2-1.23,3.3.63,2.24,2.18,1,3.13.49,2.25-1.27,4.29-2.89,6.52-4.2s3.94-1.4,3.33,2.07a21.55,21.55,0,0,0-7.09,8.07c-4.5,2.58-5,7.32-6.48,11.32,4.6,3.68,4.78-2.6,7.57-3.06.58.46,1,.31,1.74,0,1.57-.64,3.57-2.14,4.86-.88s.4,3.43-.45,5.12c-.19.37-.53.93.29,1.3,1.17,0,3.17.74,3.58-.36,1.88-5,7.28-3.66,10.77-6.79-.49,3.65-.14,6.76-1.74,9.54,4.28,1.24,5.53-1.36,6.18-4.57,3,2.4-.34,4.93.66,7.21,1.39-.16,3.65.88,4-.64.84-3.8,3.42-4.67,6.34-5.09,2,3.06-.9,5.92-.2,8.95,3.46.27,5.72-1.11,5.5-4.78-.13-2.22,1.11-1.81,2-1.35,1.37.69,1.72-.22,2.71-.76,4.35-2.38,7.21-6.15,10.37-10.37-.16,2.11-2.13,3.18-1.32,5-5.93,4.06-1.87,10.86-5.66,16.57,3.68-2,8-.69,7.74-5.55-.13-2.46.48-3.92,3.4-2.47,1,.51,1.37-.44,1.27-1.39a.45.45,0,0,0,.08-.66l1.87-1,1.88-.17c-1,4.46,1.08,9.25-2.18,13.62,5-.74,9.15-1.41,7.92-7.49-.23-1.14,1.31-2.06,1.91-1.64,3.76,2.58,3.32-1.22,4.39-2.71l.47.07.47,0c.46,5,1.63,10-1.46,15,4.43-1.29,9.56-1.34,8.55-7-.83-4.64,1.39-3.67,3.94-3.1a2.22,2.22,0,0,0,.8.18c1.76,2.9,5,5.35,1.86,9.45-1.41,1.84.39,2.43,2.1,2.48,3.51.1,5.84-2.83,5.53-7-.25-3.49.41-4.09,3.72-3,1.4.47,2.51,1.13,2.47-1.15.13-1,.27-2.09.4-3.14,1.64.08,3.65,1.28,4.36-1.44l-.18-.19.21.16a4.44,4.44,0,0,0,2.7-3.28c3.74-3.56,3.5-10.32,9.62-12a4.11,4.11,0,0,0-.05-.91c.22-2.32.45-4.65.68-7,1.8-.69,2.78-1.7,1.43-3.63.46-2.18-.9-2.15-2.39-2,0-.81,0-1.62,0-2.42,1.73.88,3-.79,4.56-.85-.06,1.63-.13,3.26-.19,4.88-2,2.13-.24,3.48,1.29,4.07,1.89.74,1.92-1.05,1.91-2.36,0-1.05,0-2.05,1.4-2.11,3.68-.16,4.58-3.05,5.71-5.74,3-3.83,4.21-8.33,5-13,1.29-2.22,1.11-4.62.9-7,.09-1.47.23-2.94.24-4.41,0-1.2.1-2.55,1.21-3s2.06.6,3,1.28a7.36,7.36,0,0,1,2.54,4.05c.73,2.47,2.32,2.29,4.15,2,3.21,2.09,4.84,6.27,9.14,6.91l0,.26.12-.13-.08-.13h0l.08.13c-1.82-3.82-4.84-6.62-7.95-9.33-.8-1.09-3.23-2.14-2.56-2.85,3.62-3.92-1.12-4.07-2.37-5.61-1-1.28-3.66-1.52-2.68-4,2.42-6.2,1.4-12.76,2.15-19.13l3.52-2.74,1.65-.22h0c2.52.19,4.19,2.76,6.79,2.53,1.14-.1,3.1.49,3.22-1.35.1-1.42-1.51-1.4-2.68-1.48-1.93-.14-3.85-.36-5.41-1.72,4.24-2.81,7.65.86,11.36,1.65,2.55.54,4.8,5.21,7.19-.2a2.32,2.32,0,0,1,1.85.18c3.26,2.91,6.83,4,11.11,2.52a2.43,2.43,0,0,1,2.1,1c1.4,2.44,3.52,2.06,5.63,1.63,1.34-.28,3.11-.69,3.8.28,3.38,4.79,8.79,2.42,13,4,1.19.39,2.4.73,3.57,1.18,6.69,2.61,10.55,3.39,17.81,1a.2.2,0,0,1,.13,0c-.44-3.66,2.86-3.46,4.36-2.46,4.92,3.29,8.42.39,12.25-1.81l3.23,1.93c.09,5.57,6.06,1.13,7.41,4.6C473.47,335.22,471.65,334.29,469.74,333.44ZM50.21,234.57c.78-3.46,3.21-4,7.12-4.08Zm19.72,1.7c-3.75-.14-3.88-3.1-4.74-5.47a1.45,1.45,0,0,1,1.9-2c1.93.74,5-.37,5.62,3.21C70,232.22,74,236.43,69.93,236.27Zm-5,9c.36-1.24-.26-3.33,2.17-2.85,2.08.4,4.25-.91,6.15.26.67.42.09,1.48-.59,2-1.13.92-2.38,1.76-2.09,3.52l5.21,2.09h0l-5.21-2.09c-2.07.6-1.67-2.43-3.4-2.32Zm70.72-129.71.67,1.65c-2.37.57-7.57-3.1-8.09-5.71Zm30.65,213.54c-.51-.17-1.68.64-1.39-.76l1.75.49C166.58,328.92,166.42,329.11,166.34,329.09Zm91.17-245.2c-1.42.15-2.53,1.63-4.17,1,3.66-6.29,4.52-6.55,7.52-2.34C259.36,82,258.39,82.85,257.51,83.89Zm76.3,284.49c-2.07-2.33,0-5.61-1.85-8l2.82,0c1.33,2.17.94,4.55.85,6.89Zm15.8-.15a1.41,1.41,0,0,0-1.16-.79l-.27,0,.27,0A1.41,1.41,0,0,1,349.61,368.23Zm-7.71,10.08h0l1-.71Zm-.15.08h0a.93.93,0,0,0-.27.12A.93.93,0,0,1,341.75,378.39ZM373.4,49.66c.23-.17.45-.34.67-.53-.22.19-.44.36-.66.53Zm38.34,28.7.07.07a2.36,2.36,0,0,0-.28,0A1.33,1.33,0,0,0,411.74,78.36Zm.31,142.83c.58-.3,1.18-.55,1.77-.83,1.85,0,3.61,0,3,2.82-.46,2-.59,4.13-.86,6.2-1.41,1.26-3.41,2.38-4.74,1.16-1-.94-3.85-.77-3-2.14C409.53,226,409.15,222.67,412.05,221.19Zm-6.32,21.73c-1.17-.15-1.77,2.6-3.37.37s.61-2.37,1.36-3.57c2.14-3.45,4.59-5.76,8.9-5.26-1.58,1.56-.34,3,.63,3.85,1.13,1,2.52.21,3.28-1s2.91-1.78,2.5-3.87l.86-1.88a3.33,3.33,0,0,0-.26-1.29,3.33,3.33,0,0,1,.26,1.29c2,1.37.47,2.54-.06,3.95-.73,1.9-2.51,3.4-2.28,5.68C412.87,236.82,409.82,243.44,405.73,242.92ZM427.11,229c.62,5.43-2.09,10.48-6.25,12.25l-.33-.16-.35.05C422.71,237.37,423.77,232.73,427.11,229Zm-8.08.61a1.62,1.62,0,0,0-.53-.2,1.62,1.62,0,0,1,.53.2,1.32,1.32,0,0,1,.43.39A1.32,1.32,0,0,0,419,229.59Zm-4.54,41.17a3.54,3.54,0,0,0,.44-.11,3.54,3.54,0,0,1-.44.11Zm-7.68-4.35-.21-1.13a8,8,0,0,1,5.18-2.39c2.38-.22,3.38-1.28,4-3.79.9-3.78,3.7-4.68,7.19-2.73-.49,0-.95.45-.57.75.83.65,1.38.27,1.4-.79l1,.13c2.28,1,1.86,3,1.86,4.81C419.88,262.36,414,267,406.81,266.41Zm22.11-22.84c1.11,1.78-.16,5-.36,7.64a4.46,4.46,0,0,1-4.62.76c-7.2-2.27-13,.87-18.5,4.89-1.15.83-2,1.73-3.47,1.05.81-1,.27-1.62-.55-2.19,2.4-1.64,6-.82,7.78-3.77,3-.71,5.6-1.84,5.76-5.52,2.85.64,4.24-1.45,5.84-3.13a3.74,3.74,0,0,1,.48.12C423.91,244.43,427.24,240.9,428.92,243.57Zm-.68-31.6c0,.79-.54,1.67-1.57,1.5a1.72,1.72,0,0,1-1.36-1.82c0-2.12.19-4.23.29-6.35q.56-2.49,1.1-5C429.94,203.84,428.38,208,428.24,212Zm4.5-53.58c1.44,2,.44,4.3-1,4.68-1.71.46-3.67-.91-2.91-3.55C430,158.45,430.82,156.6,432.74,158.39Zm-12.05,3.93-.38-.22-.43.11c-1.6-2.22-3.81-4.2-2.84-7.49C420.65,156.13,420.72,159.2,420.69,162.32ZM418.3,209c2.33,4.71.78,8-4.47,9.33-1.36-1-.85-4.6,1.06-4.75C418.32,213.28,417.89,211,418.3,209ZM413.1,87.2V81.56C416.1,83.77,413.2,85.47,413.1,87.2Zm-1.2-8.87c.56-.16.89-.57.62-1.17-2.21-5.06-1.33-10.82-3.62-15.86.06-1.37-1.06-1.57-2-2-.07-.64-.15-1.29-.22-1.94l.12-2-.12-2c1.41-1.69-2.25-5.45,2.38-5.83,4.94,8.79,5.34,18.49,5.55,28.21C414.68,77.48,414.24,79.21,411.9,78.33Zm-5.56-46.45c.05.15.11.29.16.44l-.36.39a1.24,1.24,0,0,1-.06-.46C406.11,32.12,406.25,32,406.34,31.88Zm-5.21.92c1.52-1.07,2.38.18,3.39,1.48,1.18,1.52,1.32,4.39,4.29,4.09,3.18,1.49-.2,4.17,1.08,6-2.61-2.35-3.08-.51-3.21,1.85-1.71-.92-1-2.74-1.86-3.87-1.48-1.71.89-5.37-3-5.87C400.34,35.49,399.12,34.22,401.13,32.8ZM395.08,34c1.2-.4,1.35.41,1.46,1.25a2.48,2.48,0,0,0,1.83,2.11h0c-.47,1,.22,2.62-1.21,2.89-1.15.22-1-1.48-1.82-2h0l-.1,0a2.81,2.81,0,0,1-.67-.28,2.81,2.81,0,0,0,.67.28c-.21-.6-.41-1.21-.62-1.81C395.15,35.68,393.44,34.53,395.08,34Zm-10.27,1.36c1.24.21,2.51-1.13,3.72.08,1.34,6,3.7,11.62,6,17.26.37.88.62,2-.52,2.47-.86.35-1.66-.43-1.95-1.16C389.61,47.8,387.23,41.57,384.81,35.35Zm3.94,225.06h0l-.83,1.42Zm.21-.14h0a1.35,1.35,0,0,1,.34,0A1.35,1.35,0,0,0,389,260.27Zm53.71,73.18a2.88,2.88,0,0,1-2.85-.09v0a2.88,2.88,0,0,0,2.85.09,12.38,12.38,0,0,0,1.22-.7A12.38,12.38,0,0,1,442.67,333.45Z"/><path d="M23.32,207.44c2.24,3.73,5.42,3.19,8.33,3.35C29.25,209.28,26.88,207.68,23.32,207.44Z"/><path d="M41,213.17c.91,0,2.14.24,2.11-1,0-1.08-1.39-.95-2.18-1.32a3.31,3.31,0,0,0-4.75.45c-.5.5-.45,1.72,0,1.7C37.74,212.86,39.27,216.25,41,213.17Z"/><polygon points="370.52 29.79 370.92 29.99 370.97 29.73 370.52 29.79"/><path d="M392.77,23.19h0l-.11.06.14,0c0,.15.09.34.12.34H393c-.07-.12-.14-.23-.19-.34Z"/><path d="M236.73,415.43l.15,0h0s0-.08,0-.13h0Z"/><path d="M236.36,415.94l.37-.51-.51-.09C236.26,415.54,236.31,415.74,236.36,415.94Z"/><path d="M246.8,418.58l.19.11h0a.8.8,0,0,0,0-.15h0Z"/><path d="M246.16,418.72l.64-.14-.49-.29Z"/><path d="M416.57,213.69c-.1-.06-.23-.19-.29-.16a1.18,1.18,0,0,0-.32.31l.6.19C416.56,213.92,416.56,213.81,416.57,213.69Z"/></g></g></svg>