<svg xmlns="http://www.w3.org/2000/svg" viewBox="0 0 382.06 37.96"><g id="Capa_2" data-name="Capa 2"><g id="Capa_3" data-name="Capa 3"><path d="M11.37,13c-1.25.06-2.55-.32-3.76.31-1.77.13-3.58-.12-5.31.5a25.75,25.75,0,0,0,5.41.08c3.54.53,7,0,10.54-.44C20,13.21,21.82,14,23.5,13a27.24,27.24,0,0,1-3.81-.51C16.89,12.2,14.15,12.87,11.37,13Z"/><path d="M378.31,14.46c-1,0-2,.23-2.94-.44-.47-.54-1.14-.51-1.76-.6a116.87,116.87,0,0,0-15.85-1.34c-.66,0-1.5.28-1.85-.93,5.89,0,11.71-.32,17.53-.61a31.85,31.85,0,0,0,5.85-.26c-2.77-.07-5.47-1-8.24-.6-4.84-.32-9.68-.67-14.52-.94-2.47-.13-5,.22-7.4-.27s-4.76.67-7.06-.64c-.81-.45-2-.16-3.07-.21l.06-.78c1.21-.25,2.35.24,3.54.3,6.38.35,12.77-.08,19.15.42,3.88.31,7.8.16,11.7.22,1,.7,2.08.4,3.17.11-1.1-.07-2-.88-3.18-.65-1-.16-2-.36-3-.47-4.49-.51-9-.76-13.51-.93a31.24,31.24,0,0,1-4.75-.29c-5.51-1.06-11.06-.88-16.61-.7l-9.94-.1c-.68-.62-1.51-.32-2.27-.34-5-.09-10,.18-15-.17-1.64-.11-3.27-.62-4.91,0-2.34-.85-4.77-.26-7.15-.47l0-.78,17.53,0c.43.5,1,.36,1.56.36q7.19,0,14.36,0a1.69,1.69,0,0,0,1.66-.66c-3.66.43-6.91-.53-10.25-.23h0c-8.42-.38-16.86.19-25.27-.6h0c-.44-.5-1-.33-1.57-.34-3.58-.06-7.16-.1-10.74-.17-.77,0-1.61.24-2.28-.39-.14-.36-.44-.4-.77-.4L270.89.43a12.72,12.72,0,0,0-6.54,0h0a9,9,0,0,0-2.74.14.57.57,0,0,0-.63.34h0l-5.6.08q-7.44-.27-14.87,0c-2.27.05-4.57-.27-6.81.57,2.27-.08,4.53,0,6.8-.12,2.23.18,4.5-.09,6.71.49v.49c-.66.65-1.5.35-2.26.37-3.25.06-6.5.08-9.74.12-3.68-.18-7.36-.17-11,0a11.27,11.27,0,0,0-4.7-.16,11.31,11.31,0,0,1-3.58,0c-6.67-.84-13.36-.13-20-.25-.21,0-.41.19-.62.3h0l-.83.08c-4-.18-7.95,0-11.92,0-11.54.08-23.09,0-34.63,0h0q-6.72-.27-13.43,0c-4.15-.35-8.26.51-12.41.35-.4,0-.8,0-1,.49L121,4.3l-1.91.53a90.42,90.42,0,0,0-9.6,0,48.23,48.23,0,0,1-5.61-.47,20.15,20.15,0,0,0-7.49.39h0c-3.26-.2-6.48.45-9.73.45-3.57,0-7.12-.52-10.7-.35-1.1-.21-1.64.21-1.52,1.36a67.33,67.33,0,0,1-10.24.43C55.09,6.73,46,6.69,37,7.72c-2.5.12-5,.28-7.51.33a23.38,23.38,0,0,1-3.73-.32c-1.35-.2-.7.79-.86,1.31a.52.52,0,0,0-.33.69c.1.26.29.24.43,0h0c1.49-.22,3-.46,4.47-.64a104,104,0,0,1,13.09-.51c.76,0,1.59.28,2.27-.35h0c1.73.2,3.51-.37,5.2.35h0c0,.18,0,.37-.07.55-3.78,0-7.53.55-11.31.41A11.25,11.25,0,0,0,37,9.7c-1.69.06-3.47-.55-5.05.33l0,.59h4.47c-.34,1.27-1.39.74-2.17.82-2.17.21-4.44-.21-6.42,1.1-1.42.1-2.93-.52-4.25.46a8,8,0,0,0,3.8.39l-.06.08a2.36,2.36,0,0,1,0,.46l-3.84.51a3.44,3.44,0,0,0-2.78.91c1.38.22,2.56-.26,3.7.11,1.54,1,3.24,0,4.84.39l1.92-.12,6.21.19a2.29,2.29,0,0,1,0,.37c-2.33.2-4.66.38-7,.6-.89.08-.89.11-1.7.91s-1.9-.16-2.71,1.05c1.87-.4,3.61.38,5.24-.55,3.49.13,7-.27,10.44-.43,5.61-.26,11.24-.39,16.86-.57.27.15.69,0,.86.4H58.06c-.74-.21-1.22.1-1.58.86.79.21,1.52.42,2.18-.23l4.22-.12h2.43c1.28-.21,2.14,1,3.44,1,3.93-.09,7.87-.26,11.75.63l.52.78c-1.82,0-3.66-.06-5.48,0-3.17.11-6.33-.28-9.49.12a111,111,0,0,1-13.51.84c-1.67,0-3.34.07-5,.11a40.75,40.75,0,0,0-6.72,0,25.84,25.84,0,0,0-4.81.43c-.41,0-1-.16-1.08.32,0,.31.6.29,1,.29,1.09.85,2.29.45,3.46.29,1.49,0,3,.47,4.44-.33h0c3-.14,6,.58,9,.36a8.26,8.26,0,0,0,2.38.05c3.67-.1,7.34-.21,11,.05-.7,1.11-2,.12-2.85.85-1,.05-1.9.13-2.85.13-2.57,0-5.15-.34-7.66.51a4.43,4.43,0,0,0-4.29.15c1.54,1.07,3.21.48,4.77.63l-.05.13a1.45,1.45,0,0,1,0,.36c-1.41.27-2.9-.26-4.29.35h0a16.64,16.64,0,0,1-2.82.05A79.86,79.86,0,0,0,37,26c-1.26.18-2.69-.55-4.05.72a16.24,16.24,0,0,0,4.05.17l.46.53a2.06,2.06,0,0,0,0,.43c-1.26.11-2.21,1.11-3.57,1.11a103.84,103.84,0,0,0-12.7.9c-.42,0-.93-.3-1.22.43,2.74,1,5.68,0,8.4.92,5.48-.18,10.95.08,16.43-.32,3.49-.25,7-.05,10.5,0a3.63,3.63,0,0,1,1.87.23c.77.41.16.74,0,1.09l-2.38.54a18.74,18.74,0,0,0-4.3,0c-.55.06-1.32-.32-1.41.84,1.16,0,2.31.5,3.39-.31a7.71,7.71,0,0,0,2.3-.14c1.16,0,2.37.4,3.44-.37h0c1,0,1.93.59,3,.55,4.15-.16,8.3.11,12.45-.16,1.18-.08,2.75-.32,3.49.3a3.25,3.25,0,0,0,3.08.53,25.81,25.81,0,0,1,6.63,0,33.47,33.47,0,0,0,9.05-.24h0c.58.58,1.3.36,2,.37,3.06,0,6.12-.17,9.17.1-.68.77-1.58.34-2.38.44s-1.71-.26-2.41.44c-1.11.28-2.29-.14-3.75.4,1.49.29,2.73-.09,3.76.61l0,.49-1,.86h9.16a8.76,8.76,0,0,0,2.75.13c.4.49.79.38,1.17,0h0l.23,0,.2-.13,3.33,0,1,0c3.08.55,6.16,1,9.12-.48a25.28,25.28,0,0,0,5.29,0c4.8.08,9.58-.32,14.37-.5h3.84c.36,0,.92.3,1-.25,0-.23-.62-.18-1-.17a13.43,13.43,0,0,0-3.85,0l-1.38-.13a.87.87,0,0,1-.74-1c.06-.58.7-.37,1.13-.42.76,0,1.52.06,2.27.14,1.51.16.79-.79.72-1.41l2.81-.12c4.49,0,9,.19,13.44-.48,4.8.18,9.6.17,14.4,0l5.75.54a3.23,3.23,0,0,1,0,.44l-3.52.09c-.32,0-.65,0-.61.46s.45.36.72.49a.39.39,0,0,0,0,.3c-2.91-.07-5.81,0-8.74-.21-2.62-.22-5.35-.62-8,.34-.3,0-.75,0-.74.25s.43.31.73.22l11.85.05h0a1.28,1.28,0,0,0,1.09.34c9.44-.16,18.9.41,28.33-.43.83,0,1.78.6,2.41-.45,0-.15,0-.3,0-.45l-.06-.09a3.81,3.81,0,0,0,2.1-.15,2.78,2.78,0,0,0-2.54-.72c-1.28-.13-2.5-.67-3.81-.54a.89.89,0,0,0,0-.36h5.53c-1-.71-1.91-.2-2.24-1h0l-.05,0s0,0,0,0l-.05,0h0a4.41,4.41,0,0,1,2.32-.38c2.39,0,4.79,0,7.19,0a4.74,4.74,0,0,1,2.94.61,2.55,2.55,0,0,0,2.94-.22c1.72.58,3.56-.09,5.28.51a22.24,22.24,0,0,0,4.63.64l-.77.2c0,.07,0,.12,0,.18l-1.94-.15-1.38.15a1.47,1.47,0,0,0-.45-.08c-.25,0-.62-.12-.66.29a1.23,1.23,0,0,0,1.07.17c1.45.28,2.91.86,4.37,0,.88,0,2.19-.32,2.56.12,1.24,1.48,2.68.61,4,.71a20,20,0,0,1,3.81.17c2.4.69,4.59,0,6.84-.51h0c.4-.21.3-.43,0-.65h0a.26.26,0,0,0-.12-.38c.09-.13.17-.27.25-.41h0l.79-.1c.69.11.9-.28.92-.87.34-.32.67-.65,1-1,3.68-.15,7.33-.62,11-.58.13.09.25.25.39.26A90.22,90.22,0,0,0,277,30.22c4.77.67,9.54,1.44,14.4,1l.48,0c1.14-.18,2.35.31,3.42-.41,2.57.23,5.08-.3,7.61-.55l16.22.6c1.43.79,3,.28,4.46.34a30.34,30.34,0,0,0,4.67.14c2.22.83,4.51.28,6.78.33a2.24,2.24,0,0,0,1.65-.16,2.41,2.41,0,0,0-1.64-.19h0c-1.91-.22-3.8-.74-5.75-.5l-4.21-.11c-1.58-.81-3.27-.24-4.91-.38l-.94-.51c-1.08-.72-2.33-.14-3.46-.47a.63.63,0,0,0,.17-.43,5,5,0,0,1,5.23-2,1.78,1.78,0,0,0,.46,0c2.05.31,4.14-.12,6.17.44a14.67,14.67,0,0,0,4.06.95c3.32-.11,6.63.39,9.95.19a20.26,20.26,0,0,1,6.62.63,3.58,3.58,0,0,0,1.17.11.81.81,0,0,0,.73-.81c.05-.42-.28-.47-.56-.62a4.66,4.66,0,0,0-2.54-.46c-3.67.14-7.31-.35-11-.44-3.42-.09-6.81-.74-10.25-.46-.35-.42-.84-.37-1.31-.38-2.53-.06-5.06-.09-7.59-.17-.6,0-1.27.25-1.78-.32.2-.5.69-.5,1.1-.62,7.27-.21,14.51.55,21.77.49.31,0,.63.1.95.1,4.55,0,9.1.2,13.64-.09a5.56,5.56,0,0,0,3-.29,6.22,6.22,0,0,0-3-.12c-5-.29-9.91-1.29-14.94-1.12a36.87,36.87,0,0,1-4-.32c-.36,0-1.05.11-.9-.77l2.1-.23h11.13v-.45H335.06l-5.76-.51a2.34,2.34,0,0,0-.49-.33.57.57,0,0,0,0-.13.51.51,0,0,0,0-.45,3.37,3.37,0,0,0-.76-.38,2.72,2.72,0,0,0,1.65-.58l0,0a9.83,9.83,0,0,0,3.06.17c4,.13,8.05-.22,12.06.19,3,.19,5.91-.36,8.87-.34.4.51,1,.37,1.51.41a24.5,24.5,0,0,0,5.79-.48,3.28,3.28,0,0,0,.59-.17c0-.44-.37-.26-.62-.26l-3.28-.09a.51.51,0,0,1,0-.42l0,0,4.31,0c.25,0,.59.17.62-.27a2.76,2.76,0,0,0-.59-.16c-.88-.11-1.8-.19-.57-1.35h-2.24c-.41-.09-.85-.11-1-.59a1.55,1.55,0,0,1,1.28-.48c1.73-.09,3.45-.32,5.17-.45,1.94-.14,3.93-.81,5.86-.3s4.09.25,6.1.65a2.31,2.31,0,0,0,2.25-.34c1-.19,2.13.41,3.31-.3A8.82,8.82,0,0,0,378.31,14.46ZM28.6,13.71h0ZM57.12,9.08l0,0a.87.87,0,0,1,.08.14A.43.43,0,0,0,57.12,9.08Zm8.21,6.21c-1.79.08-3.59.15-5.38.08h-.88Zm6.35-.15h-.06a2.55,2.55,0,0,1,.39,0v0A1.83,1.83,0,0,0,71.68,15.14ZM140.5,3.81a6.89,6.89,0,0,0-1.45.49,3,3,0,0,0-.81-.45L139,3.8C139.5,3.79,140,3.8,140.5,3.81Zm-6-.49a2.73,2.73,0,0,0,.72.37,6.87,6.87,0,0,1-1,0h-.06l.24-.11A.57.57,0,0,0,134.46,3.32ZM123.37,34.7l-.09,0-.11,0,.21,0C123.22,34.35,123.68,34.61,123.37,34.7Zm-10-.08h0l0-.05Zm24.29.9h0c-.8-.8-1.81-.36-2.74-.42-.1,0-.21,0-.31,0l.11,0c1.49-.21,3.09,0,4.38-1,1,1,2.76.35,3.92,1.11C141.26,35.71,139.41,34.2,137.69,35.52ZM146.36,3.7a9.47,9.47,0,0,0,1.45-.4.54.54,0,0,0,.23.32h-.43a.73.73,0,0,0-.41.09l-.23,0Zm41.83,31.19-.35,0,.13,0Zm93.57-18.84a.41.41,0,0,1,0,.11.52.52,0,0,0-.21-.07C281.62,16.06,281.7,16,281.76,16.05Zm-11.93-.91a2.8,2.8,0,0,0-.28-.06l.07-.07c.24.06.48.14.72.21a3.54,3.54,0,0,0,.45.08C270.47,15.26,270.15,15.21,269.83,15.14Zm-7.3,2.46a.32.32,0,0,0,0,.09,2.12,2.12,0,0,0-1.35-.91,2.89,2.89,0,0,0,.86-.43,10.56,10.56,0,0,0,2.73.78A3.26,3.26,0,0,0,262.53,17.6ZM249,17.26a4.66,4.66,0,0,0-1.64-.68,6,6,0,0,0,3.22-.67,1.94,1.94,0,0,1-.26-.23l.22.08a8.92,8.92,0,0,0,1.73.55A4.23,4.23,0,0,0,249,17.26Zm7.39-15-.66,0a1.33,1.33,0,0,0,.31-.18Zm-2.64.15c-.9.1-1.79.24-2.68.42a.59.59,0,0,0,0-.39c.64,0,1.29,0,1.93-.06Zm8.69-.19c.35-.09.69-.21,1-.29V2l-.32.07a2.42,2.42,0,0,0-1.36.8c-.56-.13-1.12-.23-1.68-.32A11.47,11.47,0,0,0,262.48,2.26ZM238.71,30.33l-.08.08,0-.09ZM242,16.17a10.69,10.69,0,0,0-2,.33,3,3,0,0,1-.42.05v0c.13,0,.27,0,.4-.06A4.14,4.14,0,0,1,242,16.17Zm-5.45.23h0s-.07,0-.1-.08A.49.49,0,0,0,236.56,16.4Zm4.82,16a35.3,35.3,0,0,0-5.91.15c.14,0,.28-.08.42-.14a.85.85,0,0,1,.49-.64c1.62.86,3.41.43,5.12.61l.06,0Zm.39,0,.16,0v0Zm2.61-15.14h0l.07-.08a2.92,2.92,0,0,0-1.42-.91,10.71,10.71,0,0,0,1.59.16c.63,0,1.26.06,1.9.1A4.64,4.64,0,0,0,244.38,17.27Zm21.72,0c.32,0,.63,0,.95,0h-.33A4.28,4.28,0,0,1,266.1,17.27Zm1,0a28.35,28.35,0,0,0,3.18-.24h.43v0h-.39A13.89,13.89,0,0,1,267.06,17.29Zm4.19-.35h0a.75.75,0,0,0,.13-.06A.75.75,0,0,1,271.25,16.94Zm0-1.59c.58,0,1.16,0,1.74,0a6.39,6.39,0,0,1,1.45,0C273.37,15.37,272.31,15.43,271.24,15.35Zm9.73.7a10.85,10.85,0,0,0-2.54-.26l-.13-.15a5.24,5.24,0,0,0-2.42-.26,3,3,0,0,0,1.33-.4,4.64,4.64,0,0,0,2.22.84,13.07,13.07,0,0,1,2,.25h0A2.08,2.08,0,0,1,281,16.05Zm44.95,4.2a4,4,0,0,0-1-.32l-.18-.05h.14a13.43,13.43,0,0,1,1.65.25A5,5,0,0,0,325.92,20.25Zm-19.17,5.16,0,0h-.06Zm48.9-6.23v0c.05.18-.07.07-.1-.05Z"/><path d="M23.57,13h0l-.06,0h.09l0,0h-.05Z"/><path d="M.62,13.84c-.24.05-.62,0-.62.37,0,.09.37.17.6.27.2-.12.54-.24.53-.34S.85,13.79.62,13.84Z"/></g></g></svg>