<svg xmlns="http://www.w3.org/2000/svg" viewBox="0 0 428.05 110.1"><g id="Capa_2" data-name="Capa 2"><g id="Capa_1-2" data-name="Capa 1"><path d="M412,82.64a31.79,31.79,0,0,0-7.17-1,10,10,0,0,1-4.9-1.55,1.53,1.53,0,0,1,1.57-.53c1.34.41,2.69.79,4.06,1.08.76.16,1.61.35,2.15-.64-1.37-1-3.1-.52-4.54-1.17a3.38,3.38,0,0,1,0-.45l2.72-.21c-1.18-.66-.74-2-2-2.11s-.72-.87-.76-1.51c1-.06,2.06-.39,2.81.37.29.28.43.63.88.57,2.66-.36,5.18.52,7.76.87A3.21,3.21,0,0,0,418,75.13c-2.08.29-3.67-.54-5.4-.55a2.24,2.24,0,0,1-2.21-1.94c-.31-.31-.63-.61-.95-.91a3.49,3.49,0,0,1,.93-.22c2.26.07,4.6.86,6.66-.81.15-.13.48,0,.7-.08.49-.16,1.11-.23,1.08-1.08-4.92-.75-9.83-1.44-14.71-2.26-1.44-.25-3,.11-4.3-.81,0-.24,0-.48,0-.71h0c.51,0,1.07.28,1.41-.35a1.14,1.14,0,0,0,.37,0l.77,0h0c2-.75,2-.75,1.75-2.27l.56-.59h0c.66-.45,1.86.07,2.15-1.29-1.74,0-3.6,1.05-5.1-.53.49-.4.08-1.36,1.51-1.35a14.12,14.12,0,0,0,4.25-.09c.46.22,1,.69,1-.36.59-.09,1.06-.28.88-1,0-.31.05-.63.07-.95.67-.52,1.33-1.05,2.16-1.71-.81-.27-1.57-.41-1.95,0-1.12,1.16-2.38.7-3.58.47a23.5,23.5,0,0,1-5.68-1.76c-.57-.26-1.18-1-1.84-.71-1.48.68-3,.18-4.48.29a1,1,0,0,0-1-.4h0a.31.31,0,0,0-.36-.12c-.43-.49-1-.36-1.57-.45-.37-.65-1.83,0-1.6-1.39L394.1,51h0c.59-.31.35-.84.36-1.31l.09-1c1.3-.17,2.48.44,3.76.5.93,0,2.16-.47,2.55,1.05.09.34.52.2.83.11a9.31,9.31,0,0,1,5.17.4c1.6.43,3.2,1,4.92.7.47,0,1.07.2,1.23-.37s-.4-.47-.76-.5c-2-.45-4-.85-6-1.36a.91.91,0,0,1-.33-1.68c1.5-.88,3.07-1.84,4.85-1.79,2,.06,4,.55,6.13.22.67-.11.95.23,1-.69s-.3-.92-.92-.91c-1.36,0-2.71,0-4.07,0-.79,0-1.59-.09-2.38-.18-.61-.07-1.07-.39-1-1.07s.61-.63,1.08-.65l3.58-.12c.31,0,.79,0,.78-.23s-.46-.29-.77-.21c-2.71,0-5.36-.8-8.09-.48-.87.1-2.16-.41-2.28-.9-.38-1.45-1.35-1.06-2.21-1.09s-1.76,0-2.64,0h0c-.92-.73-2-.13-3-.46h0c0-.18,0-.36,0-.53,1.11-.16,2.31.4,3.35-.39h.23l.21-.08h0a1.09,1.09,0,0,0,1-.86h0l.51-1c1.1-.21,2,.48,2.94.75.25.07.57.55.76.08.48-1.19,1.48-.69,2.28-.76a34.17,34.17,0,0,1,9,.71c3.9.7,7.8,1.37,11.81.83A23.72,23.72,0,0,0,421,36.09c-.64,0-1.44.18-1.89-.12-2.19-1.51-4.81-.13-7-1.16-2.17,1-3.58-.05-4.78-1.82l1.58-.21c-1.29-.88-2.82-.73-4.26-1,.44-.72,1.44-.16,1.89-.84a5,5,0,0,1,2.94-.27,36.64,36.64,0,0,0,6.29.08c.29,0,.57-.26.86-.4.32,0,.8.05.82-.21s-.41-.36-.73-.37h0c-.07,0-.12-.13-.2-.14a123,123,0,0,0-20.78-2.54c-.59,0-1.3.26-1.73-.45-.24-.7-.24-1.51-.93-2a2.61,2.61,0,0,0-2.39-.8c-2.58.62-5.07-.12-7.59-.2-.41-.48-.95-.4-1.48-.37l-.93-.12c-3.36-.81-6.73-1.31-10.15-.36h-1.43l-.06-.06c0-.25-.12-.4-.39-.38h0l-.5-.09a14.66,14.66,0,0,0-5.88-1c-1,0-2.4-.62-2.87,1.13-.11.43-.83.17-1.3.09-1.73-.28-3.46-.52-5.19-.77h0c-1.75-.76-3.7-.87-5.47-1.54-.81-.3-2.35-.22-2.11-1.45s1.6-.68,2.52-.68a6.87,6.87,0,0,1,1.16.25,7.44,7.44,0,0,0,3.08.07c.23-1.71-.63-2.46-2.19-3-2.35-.77-4.84-1-7.17-1.81v-.9c.67-.56.48-1.42.93-2.19a6.83,6.83,0,0,0-2.89-.23c-.59.43,1.43,1.18-.41,1.22-.29,0-.46.39-.51.73-.74.7-1.62.46-2.49.41-.71,0-1.7-.35-2.07.2-1,1.42-2.27.78-3.44.81a18.76,18.76,0,0,0-3.09,0,.81.81,0,0,0-.67.61c-.05.32.19.58.42.81.64.66,1.57.16,2.31.6.06.43-.8.73,0,1.39s1.31,1.68-.45,2.19c-.8.23-.71,1.6.2,1.88s.75.65.77,1.16-.51.42-.84.52c-1.16.34-3.1,0-2,2.36.06.13-.48.57-.74.86s-.45.51-.19.78.57.06.8-.18h0c1.08.05,2.11.71,3.24.35h0a1,1,0,0,1,.56,1l-1.46.56a2,2,0,0,1-.63.3c.21-.1.43-.19.63-.3-1.34,0-2.68,0-4,0-.64,0-.77.4-.87.88h0a.47.47,0,0,0-.38.07l-1.4.08h0l-.51,0a.89.89,0,0,0-1,.35h0a.34.34,0,0,0-.34,0c-.24-.39-.47-.38-.69,0h0a.51.51,0,0,0-.41.11l-.93-.12h0a21.61,21.61,0,0,0-2.92-1.29c-.7-.2-1.6-.87-2.25.32-.35.64-.89.26-1-.25-.12-.67-.64-.85-1.05-1.19.3-.56,1.14-.28,1.41-.9l0,0a.84.84,0,0,0,1-.43h0a3.43,3.43,0,0,1,2.2-.55c.67.06,1.3,0,1.32-.83,0-1-.76-.95-1.46-.93l-.79-.12h0a6.75,6.75,0,0,0-.56-2.74c-.54-1.11-.42-1.64.62-1.91.69-.17,1.49.08,2.29-.51-1.38-1-2.91-.28-4.21-1.17a6.3,6.3,0,0,0-4.11-.89,1.43,1.43,0,0,1-1.55-.81c-.5-.9.62-.63.82-1.06a1.61,1.61,0,0,0,.11-.91c.24-.47.68-.53,1.13-.6h0a9.06,9.06,0,0,0,3.23-.41c.25,0,.61.08.56-.35,0-.07-.37-.09-.57-.14-4.61-1.12-9.25-1.88-14.1-1.19.47,1.32,1.53,1.14,2.43,1.24.63.07,1.29,0,1.81.43a.81.81,0,0,1,.08,1.23c-1.08-1.15-1.24.66-2,.65s-2-.28-2.17.86c-.1.71,1.21.7,1.52,1.43,0,.1.28.12.43.17-.41.57-1.52,1-.49,1.9,0,2-1.63.39-2.24,1.06a11.69,11.69,0,0,1-.11,1.19c-.1.49.55.77.5.84-1,1.35.44,1,.9,1.34a.29.29,0,0,0,0,.24h0l-.81.49c-.73.44-.78,1.06-.06,1.43.31.16,1-.46,1,.42-1.72.35-3.5.59-3.45,3h0c-1.16-.48-2.14-1.65-3.63-.88-.17.09-.59-.18-.83-.37-.48-.38-.88-.68-1.37,0-.16.23-.49.43-.76,0-.54-.85-1.38-.67-2.13-.49s-1.3.22-1.6-.77c-.1-.37-1.09-1.12-1.42-.38a1.32,1.32,0,0,1-2.38.3c-.65-.95-1.27-.67-2-.47a15.27,15.27,0,0,1-5.91.12,2.52,2.52,0,0,1-2.29-1.35h0c-2.31-1.1-4.86-1-7.31-1.45h0c-.72-.73-1.67-.28-2.5-.47h0c.6-1.57,2-.74,3-.95h0l1.14.37a5.3,5.3,0,0,0,4.29-.76,4.73,4.73,0,0,0,4.37,1.26,10.3,10.3,0,0,1,3.65.32,13.86,13.86,0,0,0,2.12.22c.53,0,1-.2,1.1-.72.1-1.08.61-.9,1.44-.83s1.62-.4,2.51,0c0-1.08-.24-1.56-1.2-1.56-1.49,0,.44-1.45-.66-1.66a3.42,3.42,0,0,0,0-.46h0c.11-.27.43-.65.14-.83a2.6,2.6,0,0,0-3.57.66c-.26.29-.56.17-.85.15l-.59-.43c-.73-.93-1.83-.72-2.8-.91a35.9,35.9,0,0,0-9.46-1,3,3,0,0,0-1-.19c-2.1-.38-4.25-.45-6.37-.74h0l-1.47.06h0a27.32,27.32,0,0,0-4.7,0h0a1,1,0,0,0-.44-.1h0c-.8-.8-1.59.32-2.38,0h0a1.35,1.35,0,0,0-.53-.95h0a.7.7,0,0,0,0-.35c.3-.2.42-.39,0-.54h0c-.38-.57-.79-.32-1.12,0s-.2.68.19.92h0c-.38.76-1.09.48-1.68.54a26.78,26.78,0,0,1-5.06-.41c1.23,1.74,2.83,1.27,4.27,1.35-.18.13-.36.38-.55.38-1.91,0-3.82,0-5.73,0-1.46-1.86-3.47.33-5-.7-.07,0-.09-.13-.13-.2l0,0c.32-.95.67-1.79,2-1.54a14.56,14.56,0,0,0,2.39.12c.75,0,1.21-.31,1.15-1.36l-7.81-.16h0c-.91-.71-2-.17-3-.46h0c0-.15,0-.3,0-.44,1,0,2.07,0,3.09-.11,1.22-.14,1.45-.56,1.21-1.82h0V8.76s0,0,0,.05a3.76,3.76,0,0,1,3.2-.32,8.28,8.28,0,0,0,4.2.2,12.08,12.08,0,0,1,4.68,0,34.21,34.21,0,0,0,4.73.52c4.38.21,8.76.27,13.12.54,1.82.11,3.67-.16,5.47.38.49.14,1.26.27,1.35-.5a1,1,0,0,0-1.11-1.23c-2.54,0-5.07-.66-7.57-.54a104.31,104.31,0,0,1-13.59-.65c-4.83-.41-9.64-.86-14.47-.24h0c-1.21-.22-2.64.72-3.62-.83-.26-.41-.85.19-1.26.34-1,.36-2.23.37-2.57-.44-.55-1.34-1.32-1.07-2.23-.83a5.43,5.43,0,0,1-2.34,0,22.22,22.22,0,0,0-6.15,0,4.18,4.18,0,0,1-1.86,0A13.09,13.09,0,0,0,210.19,5h0a12.63,12.63,0,0,0-2.59.25,8.51,8.51,0,0,1-4.25.1c-2.48-.83-4.72.29-7.07.57a.66.66,0,0,0-.59.38h0a1,1,0,0,1-.25,0c-.14-.41.43-.92-.08-1.24s-.66.23-1,.39a3,3,0,0,0-.54.41h0a5.35,5.35,0,0,0-5.23.42,7.74,7.74,0,0,1-1.81.54,1.36,1.36,0,0,0-1-.5c-.37-.59-.72-.36-1.07,0h0a.73.73,0,0,0-.43.11.93.93,0,0,0-1,.38h0a.64.64,0,0,0-.43.1h0a84.43,84.43,0,0,0-10.67,0,3.73,3.73,0,0,1-3.13-.65c-.58-.51-.7.4-1.09.53-.47-.18-.85-.57-1.4-.53h0a5,5,0,0,0-3.9,0,8.28,8.28,0,0,1-4.45.41,3.83,3.83,0,0,0-2.73.31h0c-.23-.08-.54-.09-.66-.24-.63-.87-1-.9-2-.19a3.8,3.8,0,0,1-4-.17.88.88,0,0,0-1-.11c-1.76.6-3.57,1.07-5.37,1.59l-.95,0h0c-.48-.64-1-.5-1.51,0h0l-.39-.9-.49,0a1.82,1.82,0,0,1-.58.38.53.53,0,0,0-.37.1h0a28.57,28.57,0,0,1-8.2.4,9.71,9.71,0,0,0-5.25,1l-2.38,0a.49.49,0,0,0-.47-.36l.46.36a4.06,4.06,0,0,0-.46-.36l-.51,0a10.71,10.71,0,0,0-1.4.18c-1.22.33-2.85-1.16-3.69.83a1.35,1.35,0,0,1-.42-.19c-.64-.64-1.28-.32-2-.12a4,4,0,0,1-3.24-.19c-1.12-.66-1.21.4-1.7.84-.55-.6-1.27-.4-1.95-.43h-1.94a.92.92,0,0,0-1,.42h0a9.45,9.45,0,0,1-3-.31c-1.84-.61-3.64.25-5.47.3-.39-.51-.79-.56-1.18,0H93.2l-.57-.56h0a.64.64,0,0,0-.08-.36c-.31-.64-.65-.42-1,0h0a.6.6,0,0,0-.39.1h0c-1.7.07-3.47.44-4.78-1.16a5.12,5.12,0,0,1-4.8,2.48c0-.29-.18-.82-.46-.57a4,4,0,0,1-4,.69,2,2,0,0,0-2.25.88,1,1,0,0,0-1-.4H72.43l0,0a1.6,1.6,0,0,0-.41-.41l-1-.05h0a1,1,0,0,0-1,.41h0a7.66,7.66,0,0,0-4.59.23,11.05,11.05,0,0,1-1.62.32c-2.56,0-5.12,0-7.68,0-1,0-2,.72-2.84-.39a.43.43,0,0,0-.75.18c-.13.7-.58.81-1,.39-.66-.74-1.35-.26-2-.15-1,.17-2,.52-3,.78-1.39.36-1.15-.54-1-1.34h0l.51-.52a.46.46,0,0,0,.43-.45h0l.05-.9a1.36,1.36,0,0,0,1-.53h0A1.39,1.39,0,0,0,48,8.27a1.52,1.52,0,0,0,.4-.4,1.32,1.32,0,0,0,.08-.44h.94c.55.73,1.36.49,2,.34a14.88,14.88,0,0,1,4.71,0C58,7.88,60,8.27,62,7.41h0l.9-.06.93.1h0c.09.21.24.59.24.59a5,5,0,0,1,3.64-.38c1.26-1.19,2.28-.2,3.35.37a.23.23,0,0,0,.23,0c1.39-1.53,3.25-.93,5-1.08.63-.06,1.29-.09,1.26-1,0-.4.41-.36.72-.31h0c.07.73.54.84,1.17.84,2,0,4-.45,6,.38.32.13,1.07.07,1.11-.07.45-1.42,1.74-.86,2.6-1.06,2.13-.49,4-2,6.29-1.81.07,0,.14-.07.21-.11,1.76-1.06,3.81-.61,5.84-1.35-.36.91-1.52.91-1.12,2a9.54,9.54,0,0,0,2.88-.85c.63-.32.5-.91.5-1.44h0a.79.79,0,0,1,.82-.36c.27.08.29.23.09.49a1.37,1.37,0,0,0,.53,2.18c1,.57,3.41,0,3.59-.86A23.25,23.25,0,0,1,109.9.32c-.25-.17-.38-.33-.5-.32-5.32.42-10.65.69-16,1-4.14.24-8.27.6-12.42.65-.87,0-1.81-.16-2.28.88h0l-.65.52h0a10.2,10.2,0,0,0-8.1.45h0a3,3,0,0,0-.42,0A1.12,1.12,0,0,0,67.73,3c-.45.27-.89.62-1.48.45h0c-.08-.34-.23-.56-.64-.49l-4.22.64a2.73,2.73,0,0,0-2-.48,56.47,56.47,0,0,1-10,1h0c-2,.08-4.09.1-6.15.32-2.28.23-4.54.73-6.82.75a41.83,41.83,0,0,0-6.72.4c-3.36,0-6.72-.09-10.07,0a25.78,25.78,0,0,0-7.26,1.34c-.18.06-.67.17-.42.33,1.24.82,0,.77-.31,1s-1.16-.3-1.14.64c.82.19,1.63.34,2.45.46l-.47,0a.88.88,0,0,0-.63.49c-.78.14-1.07.26-1,.57-.57-.29-1.07-1.28-1.79-.13-.7.94-1.6.8-2.58.54-.43-.11-1.27,0-1.09.5.68,2-.73,2-1.92,2.07C3.34,14.73,5.57,15.59,4,17c-.23.2.34.65.61.93.82.87.44,1.31-.56,1.29-.6,0-.75.2-.61.65.25.81-.13,1-.82,1s-1.15-.05-1.34.65c.53.92,1.8.41,2.38,1.07-.06.48-.28.53-.52.58C1.15,23.53.5,24.37.6,26.38c.05,1,1,1.55,2.77,1.63,1.2,0,2.4,0,3.59,0a2.51,2.51,0,0,1,2.42,1c-.58.71-1.16,0-1.58.12a8.67,8.67,0,0,1-5.31-.06c-.73-.17-1.41.07-1.39.84a1.35,1.35,0,0,1-.67,1.33A.81.81,0,0,0,.1,32.32c.79,1.09.68,2.79,2.22,3.37-1.34.42-2,1.44-1.16,2.48a4.15,4.15,0,0,1,.75,2.63c0,1-.43,2.19,1.14,2.46.1,0,.23.27.2.39C3,45,5.47,46.14,3.69,47.77a1.26,1.26,0,0,0,1.49,1.64c1.24-.11,2.41,1.43,4,1.22.39-.06,1-.22,1.13.58A4.42,4.42,0,0,1,7,52a33.1,33.1,0,0,1-3.26-.68c-.72-.17-1.41-.38-1.88.44s-.72,1.46,0,2.17a1.55,1.55,0,0,1,.51,1h0c-.82,1.67-.24,3.27.3,4.86.14.39.43.52.91.54,2.23.1,2.23.14,3.51,1.63-.63.65-1.41-.62-2.06,0a.67.67,0,0,0,.38.68,11.76,11.76,0,0,0,6.27,1.83c1.39.11,2.85-.34,4.16.46h0l0,.5h0c-3.34.37-6.64-.54-10-.43-1,0-2.14-.32-3,.25s-.2,1.66-.58,2.45a8,8,0,0,0-.45,1.36c-.07.29-.19.77-.06.89,1,.9.74,2.08.65,3.14s.76,1.45,1.25,2.12-1.38,1.33-.29,2.23a1.16,1.16,0,0,0,.85,1,.16.16,0,0,1,0,.31c-.49.35-1.32-.28-1.66.55,0,.92,1.85,1.67.23,2.73-.14.1.13.46.34.51,1.3.3,1.44,1.07.93,2.14a.78.78,0,0,0,.26,1.06c.53.36.84.67.3,1.29-.33.37-.11.73.28,1,.71.46.64.76-.18,1a1.3,1.3,0,0,0-.82,1.56c.13.9.92.68,1.51.77.12,0,.22.12.47.27-1.06.2-1.88.51-1,1.66a11.74,11.74,0,0,1,2.52,5A2.62,2.62,0,0,0,9,100.25c1.38.61,1.36.67.54,2.15-.12.23-.2.39,0,.6.39.53,1.42.17,1.6,1.09-1,.22-1.77-.76-3-.4a20.69,20.69,0,0,0,6.65,3.47h0c4.2,1.85,8.67,2.2,13.17,2.41.75,0,1.59.25,2.25-.4h0l1.8,0a2.3,2.3,0,0,1,.53.5c0,.15,0,.3,0,.45H34a11.28,11.28,0,0,0,1.22-1,4.41,4.41,0,0,1,2.38-.38,2.53,2.53,0,0,1,.59.3s-.06.06-.08.1a.91.91,0,0,0,.21.95h.48c1.22-.67,2.77-.52,3.82-1.59,1.14.53,1.83-1,2.86-.69,2.51.81,4.85.05,7.22-.61h0c.43-.18.49-.57.5-1h0c2-1.06,4.67.51,6.42-1.6,0,0,.16,0,.22.06,1.26.92,2.35.13,3.47-.35h.9c.38.5.93.46,1.46.45h0a14.42,14.42,0,0,1,4,.1c1.16.21,2.65,1.4,3.2-.84,0-.08.28-.11.43-.15a3.61,3.61,0,0,1,4,1.53,6.21,6.21,0,0,1,4.19-1.09l0,0a2.25,2.25,0,0,0,1,3.3h0l1,0c.88.26,1.58-.42,2.4-.48,2.11.72,2.66.67,3.94-.47.27-.24.56-.48.75-.16.52.92,1.08.3,1.61.1a15.69,15.69,0,0,1,5.52-1.34.24.24,0,0,1,.26.31c-.07.67-1.23.49-1.08,1.37.92.37,1.92,0,2.81.31,1.89.59,3.78.19,5.67.19.55,0,.6-.4.63-.81h0a1.82,1.82,0,0,1,1.93-1l.57.59h0c0,.23,0,.65.12.67,2,.47,4,1.48,5.79-.54.26-.29.67-.43.95-.7a3.2,3.2,0,0,1,4.12-.44c.07.94-.62.94-1.25,1s-.73.53-.65,1,.49.48.88.38a2.17,2.17,0,0,1,1.4.12c.49.22.89.25,1.18-.32s.52-.84,0-1.23-.68-.66-.07-1a1.63,1.63,0,0,0,2.49-.89h0a.89.89,0,0,0,.4-.12l.94,0h0l1,0h0l.92.09h0c.12,1.65.92.55,1.5.37l.21.09h.23a1.41,1.41,0,0,0,1.88,0l2.48,0h0c-1.06,1.67-3.15,1.18-4.58,2.09.2.67.49,1.12,1.18,1a51.05,51.05,0,0,1,6.06,0c1.29,0,3.1.51,3.75-1.48a.25.25,0,0,1,.46.15c-.06,2.14,1.19.23,1.71.56,1.11.06,2.34.33,2.45-1.39h0l0,0c1.08.31,2.79-1,3.16,1.22,0,.09.44.19.66.16,2.08-.25,4.39.3,5.92-1.68-1.2-1-2.69-.18-4-.61-.16-.35-.32-.7-.49-1.05h0c1.62-1.58,3.58-1,5.42-.74a6,6,0,0,0,2.8,0c1.47-.49,2.78.15,4,.77a4.72,4.72,0,0,0,2.6.8,3.21,3.21,0,0,1,2.18.72c.74.53-.54,1.31.21,2.08a2.26,2.26,0,0,1,2.3-.43,4.91,4.91,0,0,0,4.13-.26h0c1.12.06,2.28-.89,3.38.18.28.27.75.09,1.15.07,2-.09,4-1.27,6.07-.43.16.07.59-.1.61-.22.33-1.58,1.95-.77,2.71-1.51,1.52.25,3.16.12,4.34,1.45.28.3.91.33,1-.13.19-1,.91-.82,1.58-1a29.64,29.64,0,0,1,6.44-.46,5.93,5.93,0,0,0,2.81,0h0c.39-.2.36-.62,0-.67a18.47,18.47,0,0,0-2.36-.13c-.76,0-1.63.21-2.18-.8,1.39-1,3-.71,4.52-.76a.4.4,0,0,0,.35.12c.56.65,1.1.46,1.63,0h.23l.21-.06,4.31,0v.49c-.56.11-.84,1.15-1.75.3-.46-.42-1.3.12-1.69.82a1.38,1.38,0,0,0,.4,1.64,1.09,1.09,0,0,0,1.62-.33c.49-.79,1.22-.52,1.9-.52l0,.55h0a1.82,1.82,0,0,0,.5.43,14.64,14.64,0,0,0,5.15.38c1.47,0,2.39-1,3.43-1.84.46.61-.46,1.82,1,2.06.65.11,1-.25,1.52-.47a11.53,11.53,0,0,1,7.88-.91,10.3,10.3,0,0,0,4.75,0c2.19-.42,2.91-.21,5.33,1.42a.62.62,0,0,0,.66.08c.63-.33,1.45-.14,2-.71a.7.7,0,0,0,.45-.08,1.75,1.75,0,0,0,1.55-.38h0l2.23,0h0c1.38.9,2.92.18,4.36.41h0c1.72.12,2.09.07,3.08-.65h.08s0,0,0,0c.31-.22.66-.49,1.13-.85a4.35,4.35,0,0,1,3.16-.73c1.82.63,3.63.13,5.4.54.74.17.66-.46.69-.92h0a.34.34,0,0,0,.26-.14l.63.44h0c1.34.76,2.06.77,2.9.05l.93-.09h0l1.32.09a1.33,1.33,0,0,0,1.05.49.76.76,0,0,0,.49.51h0c-.21.34-.6.29-.91.41-.91,0-1.6.38-1.44,1.33s.94.43,1.5.38a3.55,3.55,0,0,1,.9.16h0a.79.79,0,0,0,.4.1l.64.93h0c-.55.63-1.08,1.45.37,1.26s2.67-.25,4-.29a1,1,0,0,0,1-.55c.46-1,1.35-.94,2.22-.87,3.34.26,6.68.56,10,.77a11.24,11.24,0,0,0,4.05,0c0-.73-.44-1.22-.65-1.79v-.53h0c.7-1.11,1.71-.38,2.59-.44a.77.77,0,0,0,.54-.39.44.44,0,0,0-.3-.56,16.86,16.86,0,0,0-2.31-.55,50.3,50.3,0,0,0-5.46-.48c-1.84,0-3.65-.41-5.46-.36s-3.12-1.82-4.93-.66c-.86-.66-1.89-.27-2.83-.43-.07-.21-.12-.59-.21-.6-.44-.05-.3.37-.38.61h0l0,0-3.33.1h0a25.35,25.35,0,0,0-4.77-.1c-.28-.13-.57-.37-.85-.36-4.36.1-8.67-.63-13-.67,0-.72-.15-1.36-1.11-1.25h0a3.52,3.52,0,0,1-3.44,1.28,3.38,3.38,0,0,0-.71,0,1,1,0,0,0-1.08-.41h0a.22.22,0,0,0-.27-.07l1-.78c-1.11-.2-2-1.11-3-.12h0a1.27,1.27,0,0,1-1.4.9c-.53,0-1.07,0-1.6.07h0c-2.1-.21-4.16-.83-6.42-.5a2.23,2.23,0,0,0,.76-1.85c-1.91.25-3.78,1.31-5.78.45-.2-.09-.4.12-.39.41,0,.7-.5.53-.79.4a6,6,0,0,0-4.2.08,18.42,18.42,0,0,1-4.73.49h0a8.12,8.12,0,0,0-5.1-.32,2.49,2.49,0,0,1-2.23-.35,3.76,3.76,0,0,0-4.73-.25L206.85,99h0c-1.21-1-2.57-.35-3.86-.37h0c-1.36-.84-2.87-.35-4.31-.5,0-.15,0-.3,0-.45h0c1.06-.08,2-.24,2-1.67,0-.24.34-.49.52-.74h0a.47.47,0,0,0,.37-.16h0c.89-.36.28-1.22.58-1.78h0c4.59-.12,9.19-.22,13.79,0,0,.23.18.64.29.53.69-.66,1.14-.66,1.54.28a1,1,0,0,0,.89.69c.68-1.4,1.71-1.83,3.61-1.78s3.85.42,5.61-.69l0,0a.58.58,0,0,0,.53.43c.53.62,1.25.36,1.91.4h0c.62,0,.51-.42.52-.79l.9.49h0c1.54-.24,2.93.72,4.46.59.28,0,.28.27.4.45.76,1.16.82,1.18,1.38,0,.24-.49.47-.78,1-.76h0l0,0c.31.57.86.47,1.37.46h0l1,0c.46-.09.5-.51.65-.84h.2c.23.3.47.3.7,0h0l.19,0,.18-.06c.43,0,.31,1,1,.53h0a6.23,6.23,0,0,1,2.33,1.43c.25.48.32.85-.38,1-.33,0-.57.34-.38.67a.62.62,0,0,0,.83.15c1.1-.57,1.34-1.38.53-2.39h0c.3-.49.79-.38,1.24-.37a8.92,8.92,0,0,0,3.51-.52c.66-1.15.65-1.16-.89-1.55h0c0-.42,0-.79.56-.89a13.82,13.82,0,0,1,5-.38A8.1,8.1,0,0,0,262.38,89c-.39-.79-1.1-.52-1.69-.59,0-.31-.07-.61-.11-.92h0c.18-1,.09-1.9-1.31-1.8h0l-.59-.1.48-1.44c1-.11,2.12-1,2.88-.1s1.15.26,1.74.18,1.09-.08,1.63-.12h0c.64.91,1.49.23,1.84-.07,1.5-1.25,2.14.88,3.38.73.7-.08.41.86.53,1.34.44,1.86.69,2,2.37,1v2.26c-1.24-.22-1.5.84-1.83,1.59-.25.58.45.7.9.83l0,.88h0l.06.12a13,13,0,0,0-1.81-.47,2.4,2.4,0,0,0-2.27,1,.81.81,0,0,0-.05,1.08c.23.26.66-.13.75-.1,1.23.42,2.17-.76,3.34-.55.48.64.75,1.45,1.46,1.93l.12.5h0a.78.78,0,0,0,1.21.27c1.16-1.08,2.67-.79,4-1.17.77-.23,1.75-.61,2,.77.09.43.5.34.73.11.39-.39.85-.14,1.2-.22,1.22-.27,2.44.83,3.32.33a2.55,2.55,0,0,1,3,.1c.78.44,1.73.18,1.76-1.09h0a2.48,2.48,0,0,1,.68.11c.36.15.74.44,1,0s-.23-.6-.51-.85c-.62-.55-1.18-1.17-1.77-1.77h0L292.06,91a1.13,1.13,0,0,0-.94-.49c-1.74.08-1.81,0-1.05-1.53.31-.64.17-.79-.36-1-.29-.12-.77.11-1-.84,2.41.68,4.66.18,6.91.5h0c.69.89,1.81,0,2.6.62-.58.68,0,1.17.12,1.8.27,1.05,1.45.38,1.75,1.17-1.07.51-2.4-.3-3.35.73.51.57,1.1.32,1.62.38a5.38,5.38,0,0,1,0,2.76c-.39.37-.59.92-.16,1.2s.58-.34.69-.71h0c.17-.49.36-1,1-.87a1.62,1.62,0,0,0,2.48-.22,2.09,2.09,0,0,1,2.48-.73c4.53.78,9.11.9,13.66,1.38,2.83.3,5.71-.73,8.51.35.08,0,.24-.17.37-.26a12.78,12.78,0,0,1,4.27.41c3.62.9,7.33.17,11,.88,3.22.62,6.64.57,10,.9,1.34.13,3.06.44,4-1.2.3-.27.5-.63.12-.91s-.54.07-.76.27h0c-1.7,0-3.23-.77-4.88-1-2.41-.38-4.84.13-7.24-.67a7.82,7.82,0,0,0-5.81.3c-.21.1-.39,0-.6-.15a5.45,5.45,0,0,0-3.51-.3h-.93c-.37-.12-.53-.91-.86-.63a4.8,4.8,0,0,1-5.09.79c-.06,0-.2.21-.3.31l-1,0h0c0-.18-.05-.35-.07-.53h0l0,0c.6-.2.55-.69.48-1.16s-.3-.62-.62-.51-.26.51-.23.82h0c-.25,1-1.66-.57-2,1-.14.61-1.39-.46-2.2-.48-.24,0-.49-.14-.7-.08-1.73.43-2.26-.59-2.42-2.19-1.12.66-2,.65-2.45-.62,0-.29-.27-.84-.07-.84,1,0,1.4-.66,1.5-1.47s.92-.53,1.1-1.07h0l.36-.35h0a1.23,1.23,0,0,1,1.11-.65h0a19.19,19.19,0,0,1,3.55.3,20.77,20.77,0,0,0,2.85.12.65.65,0,0,0,.74-.72c0-.41-.11-.82-.56-1a1.52,1.52,0,0,0-.93-.07c-1.44.74-2.76-.38-4.16-.22-.5.06-.6-.4-.64-.81l3,0c-.28-.08-.56-.13-.84-.19a5.08,5.08,0,0,1,.84.19c1.41-.32,2.77.79,4.22.14.4-.18,1.07,0,.95-.74-.09-.53-.55-.68-1.1-.69-2.78-.06-5.56-.15-8.34-.22h0l-.57-.87a9.17,9.17,0,0,0,1.12-.37c.24-.11.7-.16.48-.62s-.42-.36-.78-.26c-.76.2-1.55.27-2.31.48s-1,.44-1.18-.63c-.17-.9-1.34-.49-2-.26-.49.15-1.08,0-1.31,1-.35,1.49.72,1.91,1.46,2.8-1.45.1-2.81-.79-4.11,0h0c-.31.08-.65.17-.88-.12-.83-1.06-1.6-2.2-1.31-3.64.16-.83-.28-1.08-.84-1.43-.51,2.24-.94,2.59-3.18,2.61-.31,0-.63-.07-.94-.1,0-.12,0-.24,0-.35h0c.32-.25.36-.53-.06-.66-.68-.21-1.65-.11-2-.54-.77-1-1.22-1.79-1.85,0,0,.07-.44,0-.66,0-.7-.11-.75-1.16-1.39-1.15-1.35,0,.07,1.2-.59,1.61s-1.46.11-1.79.93c.18.5.65.9.58,1.5l-.91.18h0a.43.43,0,0,0-.36-.15h0c-1.26-.55-2.37-1.61-3.86-1.39a8.7,8.7,0,0,1-3.45-.31h0a.78.78,0,0,0-.42-.65h0c-.33-.4.21-1.16-.57-1.38l-.78-.08c.1-.3.2-.6.31-.91.4-.16.28-.35,0-.54h0a.54.54,0,0,0-.06-.43,1.06,1.06,0,0,0-.39-1.08h0a1.19,1.19,0,0,0,0-.42h0l-.5-.87c1.48,0,2.95,0,4.43-.08.78,0,1-.38.4-1-.22-.44-.59-.44-1-.35h0c-.42-.48-.61-.9.27-1.06.2,0,.5-.08.22-.4a1.16,1.16,0,0,0-.11-.93h0a2.05,2.05,0,0,0-.79-1.12.34.34,0,0,0-.19-.35c.06-.15.12-.31.17-.46h0c.77-.07,1.85.54,2-.92.55-.41.32-1,.37-1.54.46-.13,1.15-.5,1.33-.33.95.89,1.69.17,2.54-.11.42-.14.94.07,1.42.05.68,0,1.44.24,2-.41.52-.41.35-1,.43-1.55h0c2.93-.57,5.77-2.21,8.73-.5.43-.62,0-1.07.08-1.54s-.31-.8-.47-.67c-1,.86-2.19-.08-3.18.32a6,6,0,0,1-3.51.19c-1.48-.29-3-.65-4.41.29-.81.55-1.1-.28-1.61-.55-.34-.47-1-.7-1-1.44h0c1.26-.62,2.72-1.89,3.92-1.16,1.41.86,2.52.4,3.78.22l1.31.08h0c.57.29,1.13,1.27,1.69,0h0a26.34,26.34,0,0,0,4.63.55c2-.11,3.83.76,5.75.25,1.11-.29.66,1.48,1.62,1.16a5.27,5.27,0,0,1,2.52-.61l.68.1c.19.4.37.4.54,0l1.41,0c.22.22.43.61.67.63,2.36.2,4.73.56,7.06-.19h0a48.71,48.71,0,0,1,7.12.75c1.59.22,3.21,1,4.87.29h0l.94-.15.93.14h0c.69.68,1.5.32,2.22.16a4.57,4.57,0,0,1,1.9-.15c3.77.73,7.53,1.52,11.29,2.29-.08.31-.07.65.21.78a.52.52,0,0,0,.69-.35c.46-.27.6-1.1,1.46-.63a1.77,1.77,0,0,0,2.35-.72c-.14-.33-.28-.66-.41-1,.43-.17,1-.26,1.14-.73s-.52-.66-1-.8c-.61-.18-1.3-.29-.81-1.24.18-.34-.13-.42-.45-.58-.6-.31-1.39-.27-1.8-.94-.68,0-1.34.07-1.6-.84a3.88,3.88,0,0,0-1-1.75h0c.06-.59.23-1.2-.28-1.69A1.27,1.27,0,0,0,355,53c.71,0,1.39-.31,2.1-.42.54-.13,1.39-.53,1.57-.33,1.13,1.27,2.12.36,3.14-.06a4.14,4.14,0,0,1,3-.1.61.61,0,0,0,.09.41c-.05.29-.12.75.15.78.43,0,.49-.48.66-.79h0c1,.62,1.75,1.65,2.95,2,0,.14,0,.27,0,.41-1.37,0-2.28.39-1.91,2,0,.18.05.37.08.55h0c-1.48,1.25-1.48,1.25-.07,1.8a3.72,3.72,0,0,1-.49,2.33h0c-1.61.29-1.61.29-1.91,1a3.4,3.4,0,0,1,0,.45c-.3.21-.81.42-.64.78s.76.17,1.17.15c1.55.67,3.31.78,4.69,1.91.69.57.6,1,.13,1.53a1,1,0,0,0,.3.7c-.74.12-1.48.26-2.21.43.7,1.31,2,.71,3,.87.49.07,1,.21.94.81a1.07,1.07,0,0,1-.84,1,2.84,2.84,0,0,1-2.29-.43c-.39-.29-.74-.09-1,.27s-.32.59-.08.88c.59.73,1.57.84,2.29,1.37,1.14-1.25,2,.17,3,.29.54.06,1,.6,1.58.38l1,0,.91,0h0c.67.17,1.16-.57,1.84-.34.57.62,1.32.38,2,.42A4.36,4.36,0,0,0,381,76.1h0c0,.11.08.23.11.34l-.05.49h0c-.35.34-.48.69,0,1,.06.66-.36,1.48.63,1.82h0c1.05.33,2.13-.11,3.18.09a1.76,1.76,0,0,0,1,1.45.81.81,0,0,0,1,.33,1.65,1.65,0,0,1,2.51.47c.3.4,1,.3,1.3-.31a3.1,3.1,0,0,0,2.86.88l1.31.1c.6.57,1.35.32,2.05.38a28.56,28.56,0,0,0,9.22.57,3.08,3.08,0,0,1,1.93.41c1.27.74,3.11,1.58,4.27,1.16,1.4-.51,2.37,0,3.46.23a8.77,8.77,0,0,0,5.27,0,2.46,2.46,0,0,1,2.06.33c.87.47,1.44.17,2-.6-.68-.21-1.28-.43-1.9-.58C419.54,83.76,415.65,83.81,412,82.64Zm-9.93-4h0a.55.55,0,0,1-.18,0Zm-4.56-41.53-.08.13-.06,0,0,0h0l-.06-.14Zm-162.88-29A.66.66,0,0,0,235,8a.63.63,0,0,0-.07.42,1.34,1.34,0,0,0-.37-.28l-.11,0S234.66,8.13,234.63,8.12ZM14.19,12.44c0-.06,0-.12.12-.12l.16,0Zm2.18.06-.23-.08a.86.86,0,0,1,.23.06ZM29.21,9.33c-1.62.56-2,1.39-.53,2.59.41.22.26.26.08.29-1.15-.85-2.53,0-3.73-.49l-.47,0-.33-.3h0c0-2-1.48-1.9-2.71-1.63-1.39.31-2.77.66-4.16,1a1.17,1.17,0,0,0-.27.15,3.82,3.82,0,0,0-1.86-1.4,41.56,41.56,0,0,0,6.11-.06c1.77-.14,3.72.75,5.34-.6a.49.49,0,0,1,0,.11,3.27,3.27,0,0,0,2.15.3h.55v0Zm17.31,59v0l0,0Zm11,25.93h0a.2.2,0,0,1,.08,0ZM72,91.92l-.12,0v0Zm6.87-60.78.26,0h0l.05,0ZM81.22,66h0Zm4.12.08-.28,0,0,0a.92.92,0,0,1,.29,0ZM103.16,16.5h0a.05.05,0,0,1,0,0s0,0,0,0h0Zm-9.8,44.2c0,.11,0,.2-.13.22S93.32,60.77,93.36,60.7Zm-.22,28.79h0ZM92.59,16Zm-.54,1.35Zm0,0v0l0,0Zm13.08,80.37c.08.39.31.88-.21,1-.87.19-1.87.48-2.6-.23-.31-.31-.15-.89-.81-.24s0,.9.2,1.3h0l-.43.4a.64.64,0,0,0-.2-.2c-.86-.43-1.71-.06-2.56,0A3,3,0,0,1,96,99.42c-1.95-1.76-3.77-2-5.54.42-.17-.81.33-1.1.49-1.52,1-2.43,1-2.44,3-.76.67.56,1.6.63,1.91.08.89-1.57,2.45-1.81,3.85-2.42.45-.2.83-.53.73-1.09s-.58-.7-1-.83-1.19-.06-1.77-.18a.9.9,0,0,1,0-.22l.08,0a.44.44,0,0,1,.15.08l0,0c.07.08.14.11.2.07h.28l.28,0,.57-.09c.39,0,.79,0,1.19,0l1.22,0a3.91,3.91,0,0,1,2,.52v0l-.25-.06c-1-.23-2.09-.44-2.32.78s1,1.43,1.89,1.7,1.62.25,2.42.44C105,96.63,105,97.17,105.13,97.73Zm2.28-84.49h0Zm177.42,92.07h0Zm0,0,.07,0a.26.26,0,0,0,.05.12.28.28,0,0,1-.12-.12A0,0,0,0,1,284.79,105.35Zm-69.87-2.92c-.17-.27.3.06,0,.11l-.23.06-.14,0Zm16.29-70.15h0Zm-4.07-.39s0,0,0,0a.05.05,0,0,1,0,0ZM224,37.8a5.76,5.76,0,0,1,2.6-1.39A53.7,53.7,0,0,0,232.32,35l0,.06c1.18,1.23,1.89,2.51.74,4-.56-.78-1.54-.6-2.37-.6a30.2,30.2,0,0,1-6.85-.4Zm-1.75-26.61v0h0Zm-56.83.22c3.19,0,6.34-.49,9.53-.58,2.87-.08,5.26-1.82,7.84-2.9l.21.17a.91.91,0,0,0,.82.22l.13,0c.62,0,1.23.09,1.51.88a1.13,1.13,0,0,0,.5.37,1.42,1.42,0,0,0,.41,0,.13.13,0,0,0,.12,0h0a.69.69,0,0,0,.35-.4c0-.23,0-.45,0-.68,0,0,.14-.14.14-.14s.2,0,.19,0a5.72,5.72,0,0,1,.62.59c1.31,1.24,3,1.39,4.64,1.52,1.89.14,3.78-.2,5.67-.12a1.08,1.08,0,0,0-.41.56,2.17,2.17,0,0,1-.82.25,11.52,11.52,0,0,0-1.75.17,3.12,3.12,0,0,1-1.39.1,1.35,1.35,0,0,0-.83.17.83.83,0,0,0-.13.18c-1.16,0-2.29.49-3.34,0-.36.46-.18.75-.12,1.06.31,1.73.31,1.76-1.38,1.8-.89,0-1.83-.09-2.46.62s-.57.18-1-.11c-2-1.48-2.35-1.48-3.69-.52-.17-.55-.48-1-1.1-.82s-.31.77-.37,1.19h0a2,2,0,0,1-1.67-.44.66.66,0,0,0-1.12,0h0c-1.1-.44-2.17.2-3.27.06-.91-.12-1.1-.49-.59-1.24.13-.2.36-.32.52-.5s.46-.46.3-.83a.71.71,0,0,0-.8-.37,8.39,8.39,0,0,0-1.63.32,2.52,2.52,0,0,1-2.69-.37l-3.39.15h0a.9.9,0,0,0-.11-.28,4.29,4.29,0,0,0-.5-.07C164.75,11.41,165.07,11.4,165.39,11.41Zm-8.9-.17a2.1,2.1,0,0,0,1,.52,3.7,3.7,0,0,1-.47,0,4.1,4.1,0,0,1-.48.1l-.11-.09a.71.71,0,0,0,.11-.39l-.18-.12ZM154.25,66.3a2,2,0,0,0,.35-.28,7.27,7.27,0,0,0,.4.44.34.34,0,0,0,0,.35.54.54,0,0,0-.12.09,1,1,0,0,1-1,.37c-1.54-.17-3.22.38-4.64-.37a3.85,3.85,0,0,0-.75-.31C150.41,66.59,152.35,66.85,154.25,66.3ZM154,63.56l.1,0a.67.67,0,0,1-.12.06s0-.08,0-.11Zm-8.15-39.45a.15.15,0,0,1,.07,0l0,.05,0,0h0l-.06,0,.06,0,0,0S145.89,24.14,145.88,24.11Zm-.52,42.77a2.09,2.09,0,0,0,.25,0,4.43,4.43,0,0,0,.73-.11h0a3,3,0,0,1-.85.31.55.55,0,0,0-.13-.21Zm-6-54.68h.16a2.5,2.5,0,0,0,.93-.23,1.53,1.53,0,0,0,.35-.32c.26,0,.5-.08.56-.33a.46.46,0,0,0,0-.34,2.32,2.32,0,0,1,.54-.39,3.54,3.54,0,0,0,.65-.44c.13-.1.27-.18.41-.27.47,0,.45.4.61.66.49,1.81.11,2.67-1.36,2.89a.86.86,0,0,0-1.08-.7,18.71,18.71,0,0,1-2.9.12A2,2,0,0,0,139.38,12.2Zm2.38,27a2.62,2.62,0,0,0,.3.28c.81.62,1.46.32,2.05-.35a1.94,1.94,0,0,1,.73-.37,2,2,0,0,1,.41.24c-1.23-.08-1.32.56-1.3,1.27h-.11l-.3,0-.6.11a2.11,2.11,0,0,0-1.29.52,2.91,2.91,0,0,0-2-.53c-1-.06-2.05.08-3.06-.06s-.35-.68-.13-1.08a8.2,8.2,0,0,1,.57-.72,1.65,1.65,0,0,0,.19-.27v.21a1.14,1.14,0,0,0-.11,1C138.77,40.39,140.29,40,141.76,39.16Zm1.6,28a.9.9,0,0,0,.16-.25h0a3.24,3.24,0,0,1,.44,0,1.12,1.12,0,0,0,.23.21Zm.12,3.62h0v0ZM143,66.9a.89.89,0,0,0,.11.31,54.84,54.84,0,0,0-8.45,1.15,25,25,0,0,0,6.47-2.72c0,.1,0,.2-.08.3h0c.12.36.26.38.4.19h.09l.28,0a5.39,5.39,0,0,1,.79-.12,2.78,2.78,0,0,1,.58,0l-.15.4A.59.59,0,0,0,143,66.9Zm-.52,6.76h0l-.11.19-.26.08c-.94.13-1.87.94-2.76.46-1.47-.79-2.4,0-3.4.8a12.58,12.58,0,0,0-1-.75l-.16-.07V74l.2,0c.63-.07,1.13-.84,1.94-.21a1.31,1.31,0,0,0,1.91-.27c.85-1.22,2.15-1.18,3.34-1.48l.05,0C142.35,72.54,141.8,73.24,142.51,73.66Zm-.19-3.51.22,0a1,1,0,0,0,.46,0v.15a1.48,1.48,0,0,0-.27-.1A3.2,3.2,0,0,0,142.32,70.15ZM108.59,14.44s0,0,0-.06c2-.51,4-1.27,6.12-.64a1.62,1.62,0,0,0,1.35-.4,3.26,3.26,0,0,1,3.15-.54c1,.27,1.77.18,2.11-.84a1.85,1.85,0,0,0,.56.52c.55.28,1.13.51,1.69.75,2.61.34,5.4.67,7.65-.63a4.33,4.33,0,0,1,4.58-.28,5.93,5.93,0,0,0,1.75.55,6.69,6.69,0,0,0-2.89.65.89.89,0,0,0-.38.66h-2.23a1,1,0,0,0-.64-.52,4.06,4.06,0,0,0-2.24,0l-.11.05a2,2,0,0,0-1.15,0c-1.1.36-2.31.28-3.35.9-.47.28-.68-.09-.79-.5-.68-1.08-1.31-.26-2,.05h0c-1,.11-2,.26-1.87,1.56s-.76,1.71-1.88,1.79l-.28-.35a1.92,1.92,0,0,0,.14-.32c.24-2.25-.39-3.05-2.67-2.86a51.77,51.77,0,0,1-6.35.36A1.54,1.54,0,0,0,108.59,14.44Zm18.76,51.85a2.25,2.25,0,0,0,.35.73c.06.64.49.92,1.29.83a.78.78,0,0,0-.05.14,1,1,0,0,0,.31.56,3.91,3.91,0,0,0,2.56.33c.22,0,.44-.06.66-.09l-.33.07a15.87,15.87,0,0,1-3.44.34,2.15,2.15,0,0,0-.78.28l-.07-.11c-1.67-.54-3.29-1.29-5-.2a1.7,1.7,0,0,1-1.75.08A14.69,14.69,0,0,0,127.35,66.29ZM123.72,40h.07a.1.1,0,0,1-.05,0S123.73,40.05,123.72,40Zm5.83,1-.59-.58a.85.85,0,0,0,.54-.33c.49.06,1,.1.91.93a1.45,1.45,0,0,1-.67.38.47.47,0,0,1-.19-.06V41Zm2.35-24s0,0,0,0v0Zm21.65,66.91a3.74,3.74,0,0,0-.29.25c-.38,0-.78-.08-.92.33s.28.55.65.6c0,0,0,0,0,.06a1,1,0,0,0,.31.25l.34.3a.85.85,0,0,0-.72.81c-.05.68.56.88,1.08,1.09a6.76,6.76,0,0,0,3.76.34,17.11,17.11,0,0,0-3.22,1.63c-.66.38-1,.9-.47,1.54,1.23,1.44.46,1.9-.94,2.17-.44.08-1,.17-1,.8s.54.74,1,.91a4.63,4.63,0,0,0,1.66.12c1,0,1.57.22.8,1.38a1.58,1.58,0,0,0,.14,2.29l-.14.13h0c-.33-.06-.82,0-.8.26.21,2.12-1.37.94-2.15,1.17a7.14,7.14,0,0,1-1.15.06l-.33.06c-.16-.58-.69-.86-1.26-1.11a2.57,2.57,0,0,1-1.2-.1c-1.62.85-3.24-.18-4.9,0a64.17,64.17,0,0,1-7.6.1c-.53,0-1,.06-1.42-.57-1.64-2.68-2.39-2.82-4.9-1.11-.06.22-.12.43.06.61-.19,0-.13-.16-.18-.26.18-1.5-.38-2-1.82-1.33a4.34,4.34,0,0,0-1.38.8h0s-.06,0-.09,0-.16.09-.16.14c0,.69,0,1.39,0,2.09,0,.21.1.63-.16.5-1.26-.61-1.31.55-1.76,1.08a1.22,1.22,0,0,0-.27,0l-.07,0a16.92,16.92,0,0,1-2.8-2.28c-1.64-1.25-2.14-1.27-3.17.49-.21.35-.29.47-.57.34-1.67-.79-3.46.19-5.15-.42-.21-.06-.27-.16-.2-.32a.71.71,0,0,0,.4.17,1.72,1.72,0,0,0,.92-.14,2.14,2.14,0,0,0,1.34-2.52c-.32-1.17-1.55-.87-2.44-.87-1.27,0-1.77,1.28-2.71,1.87a4.5,4.5,0,0,1,2.91-2.21.63.63,0,0,0,.12-.18.08.08,0,0,1,0,0c1,.8,1.94-.23,3-.11a11.74,11.74,0,0,0,3.79-.07c.68-.16,2.71.23,1.58-1.81-.23-.41.2-.76.6-.85a14.7,14.7,0,0,1,1.64-.22h0c.63,1.09,1.27.67,1.91,0h0a.52.52,0,0,0,.53-.32h0l.41,0c0,.3.07.59.1.88h0c-.47.92-1.57,1.25-2.11,2.29a6.83,6.83,0,0,1,4.86.52,1.91,1.91,0,0,0,1,0c2.34-.22,4.58-1,6.95-1.06.13,0,.25-.18.38-.28h.37c.08.23.12.63.22.65,1.14.19,2.33.59,3.41.19s2.27-1,3.5-.3c.61.33.91,0,1-.54a8.36,8.36,0,0,0,0-1.42,1.85,1.85,0,0,0,.07-.41h0c1.52-.44,3.42-.16,4.26-2.27a24.25,24.25,0,0,0-4.09,0c-2.29.31-4.57,1.15-7,.77h0A18.89,18.89,0,0,1,134,89.89h0c0-1.2.68-1.44,1.71-1.37A11.82,11.82,0,0,0,142,87.3c-.45-.49-.76-.78-1.32-.69-1.06.16-2.13.31-3.19.45-.67.09-1.1-.12-1-.89h0a9.83,9.83,0,0,0,3.68-.87c.73-.31,1.56.52,2-.11.78-1.21,1.29-1.12,2,0,.49.71,1.14.17,1.71,0a1.06,1.06,0,0,0,.73-1.12c-.09-.58-.94-.39-1.29-.88-.21-.31-.58,0-.88,0-.5,0-1,0-.93-.7a4,4,0,0,1,2.3-.25,19.67,19.67,0,0,0,4-.55c1.3-.21,1.44-.67.62-1.78-.3-.4-.08-.5.06-.74a.9.9,0,0,0-.19-1.26l.33-.58a2.41,2.41,0,0,0,.37-.07,2.43,2.43,0,0,1,2.3.32c.92.58,2.72.53,1.3,2.56-.59.84.23,1.91,1.55,2.12s2.59.06,3.78.14C157.7,82.42,155.75,83.75,153.55,83.93Zm7.2,15.34h0c.16,0,.33,0,.49,0Zm11.36-32.82-.37.08c-3,0-6.34-1.63-8.36,2.12-2.75.55-3.79,3.32-6,4.62a3,3,0,0,1-.85.32,4.85,4.85,0,0,0-.75-.29c-.5-.14-.67.12-.74.47h0c-.93,0-1.72.12-1.89,1.24a.67.67,0,0,1-.84.36.77.77,0,0,1,0-.45l.16-.11-.21-.16a1.06,1.06,0,0,0-.11-.21,1.42,1.42,0,0,0-.49-.25,2.84,2.84,0,0,0-.92,0,2.38,2.38,0,0,0-.69.2,1.48,1.48,0,0,0-1.39-.89h-.06c-.27-.33-.22-.6.36-.75s.93,0,1.26-.46c.75-.36,2.2.49,2.17-1.24,1.2-.28,2.35-.61,2.6-2.09,0-.07.59-.06.9-.07a2.45,2.45,0,0,0,1.38-.29c.57-.39.76-.82,0-1.24-.28-.16-.56-.3-.84-.45L156,66h0c.71-.63,2.36,0,2.19-1.92-.05-.55,1-.43,1.58,0h0c-.08.46-.82,1,.14,1.36h0a6.85,6.85,0,0,0,5.17,0h0l1.92.06h0c2.52.77,3.05.56,4.47-1.86.51.67-.05,1.75.83,2.17A.81.81,0,0,0,172.11,66.45Zm-3.67-43.71h0Zm0,0h0Zm24.27,75.37c-2.44.16-5-.29-7.27.87-.6-.87-1.57-.84-2.57-.74a7.83,7.83,0,0,1-4.68-.68,7.31,7.31,0,0,0,4.16-3.73c0,1-.24,2.16,1.52,1.59a1.76,1.76,0,0,1,.92.09,1.48,1.48,0,0,0,.65.55,2.56,2.56,0,0,0,2.08-.11,1,1,0,0,0,.22-.25H188a1.19,1.19,0,0,0,.07.23,1.59,1.59,0,0,0,.5.43,13.28,13.28,0,0,0,2.27.38,1.42,1.42,0,0,0,.46,0l.95.62a2.79,2.79,0,0,0,.42.61h0S192.71,98.07,192.71,98.11Zm-6.49-33.29a3.09,3.09,0,0,0,1.68.08,15.28,15.28,0,0,1,1.52-.36,4,4,0,0,0,.83-.19,1,1,0,0,0,.4-.32s0,0,0,0l.15,0a.44.44,0,0,1-.13.3c-1.06.39-2.38.5-2.31,2.13-.36.51-.92.28-1.4.35a6.51,6.51,0,0,0-1.59.17,4.23,4.23,0,0,1-2.49.11,1.17,1.17,0,0,0-.82.18,1.64,1.64,0,0,0-1.53-1c.26-.24.43-.5,0-.8-.29-.18-.84-.07-.71-.84a44.05,44.05,0,0,1,5.76-.21A3.25,3.25,0,0,0,186.22,64.82Zm-.5-1.82Zm4.81.51h0l0,0h0Zm-8.14,30.27h0v0h0Zm8.42-22.67c-1.35.58.53,1.78-.33,2.69-1.43-.87-1.48-3.16-3.5-3.2l-.37,0a1,1,0,0,0-.2-.57.71.71,0,0,0,.07-.09c.4-.63,1.08-.5,1.67-.63a5.26,5.26,0,0,0,.6-.15,2.49,2.49,0,0,1,1.72.23c.76.16,1.54.65,2.26,0a2.74,2.74,0,0,1,.67,1.39C192.53,70.26,191.61,70.76,190.81,71.11Zm12.63-42.62a2,2,0,0,0-.76.65l-.5.13a3.52,3.52,0,0,1-1,.17h-.54a6.68,6.68,0,0,1-.87-.17,1.67,1.67,0,0,0-.59,0,1.2,1.2,0,0,1-.81-.12,1.52,1.52,0,0,0-1.09.08,2,2,0,0,1-1,.32l-.54-.1c-.38-.11-.75-.27-1.12-.41.08-.17.17-.34.26-.51l1.28,0c.22.31.44.45.64,0h0c.5-.49.64-1,0-1.5h0c1.14-1,2.5-.28,3.75-.47h0a1.8,1.8,0,0,0,1.09.2c1.64-.18,1.67-.11,1.76,1.74Zm3.9,54.8s0,0,0,0h.09Zm2.3-62.44a1.06,1.06,0,0,0-.49.49l-1,0a.59.59,0,0,0-.26,0,1.21,1.21,0,0,1-.05-.14,2,2,0,0,0-.58-.38,3.49,3.49,0,0,0-1.16-.15,2.7,2.7,0,0,0-.5.18,8.65,8.65,0,0,0-2.19.21c-1.25.22-2.72.73-3.73.09-1.26-.8-1.79-.25-2.5.51l-2.4.18a.38.38,0,0,0-.44,0h0l-.88.83a.24.24,0,0,0-.06-.08,1.42,1.42,0,0,0-.95-.17,4.64,4.64,0,0,1-2.48,0c-.24-.74-.73-1.07-1.34-.29a1.49,1.49,0,0,1-.41.4h-.38c-.28-.17-.43-.73-.74-.77h0l-.48-.52c-.65-.91-1.33-.49-2,0h0a.55.55,0,0,0-.22,0,3.76,3.76,0,0,0-1.93-.61c-2.68-.61-5.15.46-7.71.87a1.93,1.93,0,0,0-.35.29,4.61,4.61,0,0,1-2.31-.29,1.65,1.65,0,0,0-2.27.66h0a2.49,2.49,0,0,1-1.38,0h0v0a.49.49,0,0,0-.5-.37l.5.38a4.7,4.7,0,0,1-.5-.38,37,37,0,0,0-4.71-.12c-.22-.28-.42-.38-.61,0-1.92.14-3.89-.35-5.76.46h0l-1.93.12-1.39,0h0l-3.37,0v-.22a2.24,2.24,0,0,0,.34-.11c1.19-1,3.12.18,4.08-1.44a1,1,0,0,0-.11-.17h0l.83-.06,1.08-.42a7,7,0,0,0,4,.5c2-.18,4.1.41,6.06-.5h0c0-.32,0-.64,0-1-.1,0-.18,0-.18-.14h0a.74.74,0,0,0,.18.15l.12-.44h0c.5.39,0,1.12.65,1.6.49,0,.91-.69,1.57-.61,1.87.25,3.78,1.17,5.58-.24a.28.28,0,0,1,.22,0c1.29.63,2.46-.3,3.71-.26h0c.08.31.3.77.55.62,1.2-.74,2.42-.45,3.67-.28a3.18,3.18,0,0,0,1.4-.13c.33-.11.42-.75.9-.64.75.18.25.69.29,1.09s.6.31.74.12c1.09-1.52,2.41-1.12,3.79-.58a2.91,2.91,0,0,0,.93.14c1.19.07,2.17-.91,3.59-.26.76.35,1.89-.11,2.93-.37a2.89,2.89,0,0,0,.29.55,2.55,2.55,0,0,0,1.91.81c7.2.67,14.4,0,21.6-.05a1.91,1.91,0,0,0,1.1-.41,2.17,2.17,0,0,0,0-.37,1.7,1.7,0,0,1,.14.1c0,.3.83.6.11.83a12.54,12.54,0,0,1-2.6,0c-2.26.22-3,1-2.83,2.87a7.23,7.23,0,0,0-1.4-.58,1.7,1.7,0,0,0-.38-.2c.55-.65.14-.82-.46-.89v0a1.27,1.27,0,0,0-.44-.45A4.92,4.92,0,0,0,209.64,20.85Zm11.6,17.82h0l-.08,0a.08.08,0,0,0,0,0ZM216.9,29h0v0l.12.08-.18-.06,0,0,.07,0Zm.15,43.1c-.31,0,0-.33,0-.21s0,.09,0,.14A.25.25,0,0,0,217.05,72.11Zm2.76-5.69c-.15.06-.2.12-.22.18h-.07c-1,.36-2,0-3.06,0a.79.79,0,0,0-.5.36l-.1.05c-.71-.78-1.63-1.46-1.36-2.91,1.82,1.4,3.21-.23,4.82-.62v0c.44,1.19,1.33.41,2,.45a8.14,8.14,0,0,0,7-.75.75.75,0,0,1,.47,0c1.66.32,3.36.31,5,.7a.89.89,0,0,0-.21,1,1.09,1.09,0,0,0,.3.23l.09.26a12.63,12.63,0,0,1-2.45-.17,1.39,1.39,0,0,0-1.87.89v.08a7.16,7.16,0,0,0-5.07.26c-1,.41-1.66-.17-2.2-1a.94.94,0,0,0-.58-.21,1.37,1.37,0,0,0-.38.29,1.45,1.45,0,0,1-1,.12C219.82,65.6,219.79,66,219.81,66.42Zm2.33,9.66a.57.57,0,0,1-.13,0,1,1,0,0,0,.14,0S222.14,76.06,222.14,76.08Zm1.26,7.63a.28.28,0,0,0,0-.09l0,0Zm8.8,4.91,0,0h0Zm3.48-15.34a3.31,3.31,0,0,0-.55.06,11.38,11.38,0,0,1-1.15.29,4.57,4.57,0,0,0-.91.17l-.15,0a5.14,5.14,0,0,0-2.1-.41c-.7-.14-1.49.42-2.09-.09-1.71-1.43-3.37-.91-5,0a.9.9,0,0,0-.18.15l-.4-.39h0c-.4-.87-.81-.73-1.23-.29l-.18-.07a3.58,3.58,0,0,0-1.13,0,19.17,19.17,0,0,1,1.72-1c1.5-1,3.41-.25,4.85-1.23-.17,1.28.69,1.63,2.08,1.5.87-.08,1.7-.38,2.55-.53.28,0,.86-.48.87.18.07,2.9,1.73,1.29,2.91,1.06l.18,0C235.7,73,235.69,73.12,235.68,73.28Zm8.59-34.11a.2.2,0,0,1-.06-.09.28.28,0,0,0,.09.07Zm6.58-11.68a7.63,7.63,0,0,0-2,0,5.42,5.42,0,0,1-2,.12,1.64,1.64,0,0,0-2.1,1.8c0,.71-.52.9-1.1,1.06l-.25.08a13.61,13.61,0,0,0-1.68-.09,1.83,1.83,0,0,0-.36-.31,6,6,0,0,0-2.42-.3,1.84,1.84,0,0,1-1.15-.22s0-.07,0-.11c.18-1.37-.43-.78-.9-.55l-.06-.05a1.06,1.06,0,0,0-.58-.08l-.06,0h0l.07-.46c.06,0,.12,0,.18-.06a.82.82,0,0,0,.3-.34c.09,0,.19-.06.2-.11.07-.21-.07-.28-.23-.32a.71.71,0,0,0-.12-.18,1.51,1.51,0,0,0-.49-.21l-.46-.11a.57.57,0,0,1-.29-.28,1.48,1.48,0,0,1,0-.42,1.47,1.47,0,0,0,.05-.42,1.32,1.32,0,0,0,.26-.36l.12,0a4.27,4.27,0,0,0,1.18-.05,1.14,1.14,0,0,1,1.2.47,3.88,3.88,0,0,0,.42.39,4.9,4.9,0,0,0,.78.42,3,3,0,0,0,.57.14,2.23,2.23,0,0,0,.37,0,1.6,1.6,0,0,0,.54,0s0,0,0,.06a1.15,1.15,0,0,0,.48.37,1.5,1.5,0,0,0,1.38-.24c.54.31,1.14.08,1.67.18,2.28.42,4.58-.94,6.83,0A1.15,1.15,0,0,1,250.85,27.49Zm-9.94-.91h0Zm0,0h0l0,0Zm12.42-3.17-.15,0c-.55-.2-.95-.69-1.55-.78a1,1,0,0,0-.51.22c-.77-.09-1.66-.55-2.06.62a12.13,12.13,0,0,1-1.35-.16l-.09,0c0-.29,0-.57-.35-.7s-.52.18-.58.5h-.07a4.62,4.62,0,0,0-1,.45.9.9,0,0,1-.24.12,1.09,1.09,0,0,0-.69,0,3.86,3.86,0,0,0-.71-.22,1.51,1.51,0,0,0-.52,0c-.08-1.28-.9-1.63-2.15-1.44a1.34,1.34,0,0,0-.51.37.85.85,0,0,0-.75.35l0,.37c-.82.37-1.82,0-2.7.1-.32,0-.64,0-.95-.07s-.36-.08-.54-.12a.56.56,0,0,0-.42-.1,4.66,4.66,0,0,0-.63-.12,3.55,3.55,0,0,0-.65,0,8.22,8.22,0,0,0-1.31.07c0-.12,0-.23,0-.35a.76.76,0,0,0,.16-.26l.4-.07-.42-.11a.49.49,0,0,0,0-.12,1.17,1.17,0,0,0-.45-.37,4.06,4.06,0,0,0-.71-.15.22.22,0,0,1-.23-.22h.18l.18,0a4.48,4.48,0,0,0,1.63.2c6.88-.92,13.76-.06,20.63-.05l.24-.07C254.42,22.49,254.36,22.73,253.34,23.41Zm4,34.26c.05-.21.09-.42.13-.63a1.51,1.51,0,0,0,1,.16c.59-.05,1.15-.43,1.79-.19-.17,1.75,1,1.67,2.11,1.43.84-.19,1.58-.45,2.35.53-2.42.36-3.43,3.05-5.85,3a10,10,0,0,0,1.07-.43c.63-.34,1.82-.22,1.58-1.35-.21-1-1.17-1.2-2.09-1.25-.32,0-.63,0-.95.06C257.52,59,257.14,58.62,257.36,57.67ZM256.73,28a.11.11,0,0,0,0,.05l0,0S256.73,28,256.73,28Zm-.61,58.16a1.64,1.64,0,0,0,1.39,1.31c-1,.62-2,.73-2.43-.58s.95-2.65,2.54-2.73C256.85,84.67,255.85,85,256.12,86.18Zm4.66-4.34a1.14,1.14,0,0,1,.32-.07h.95A10.8,10.8,0,0,1,260.78,81.84Zm2.92-4.41a9.4,9.4,0,0,1-1.2-.21c-1.27.24-2.53,1.31-3.8.21.38-.26.46-.54.07-.83a.94.94,0,0,0-.63-.72,1.09,1.09,0,0,0-.44,0l0-.37h0c.23-.72.9-.78,1.48-1a3.68,3.68,0,0,0,.94,0c.43-.11,1-.21.78-.86-.16-.41-.6-.38-1-.17a2.23,2.23,0,0,1-.7.12h0c-.24-.26-.48-.51-.73-.76a1.09,1.09,0,0,0,.41-.36c.41-1.17-.83-1.75-1-2.76,1.49-.52,3-.07,4.47-.37.45-.09,1-.15,1.1-.7s-.52-.72-.93-.89c-1.66-.66-3.41-.49-5.14-.53l-2.21-.14a1.15,1.15,0,0,1-.28-.61c.45-.43.45-1.17.84-1.65l.16.19h0c0,.65.28.95.74.3a6,6,0,0,0,.65-1.4l.09.06c2.15.76,4.57.22,6.66,1.35.33.18.76-.09,1-.44a.61.61,0,0,0,0-.44c0-.06-.07-.09-.11-.13l0-.28.37.08a7.67,7.67,0,0,0,3.55.42,1.9,1.9,0,0,0,.36-.12c.3.1.66.12.88.36a1.59,1.59,0,0,0-.35,2.5c.75,1,1.46,0,2.11-.49.07,1.09-1,2-.29,3,0,.15.09.21.17.22v.11a1,1,0,0,0-.37.14,3.61,3.61,0,0,1-2.56,1.11c-.68,0-1.64-.22-1.59.88,0,.84.86,1.08,1.56,1.27a3,3,0,0,0,2.09-.17c-.95,1.68-2.7,2.12-4.55,2.46-.74.14-1.83,0-1.89,1.19A1.23,1.23,0,0,1,263.7,77.43Zm7.3-4.16s0,0,0,0C270.85,73,271.09,73.14,271,73.27Zm-5.67,9.43a2.61,2.61,0,0,0-1.42-.88c.62,0,1.25.05,1.88.1.6-.12,1.29-.12,1.5-.84a2,2,0,0,0,1.31,1,2.09,2.09,0,0,0,.5,0,1.75,1.75,0,0,0,.31.15C268.06,82.37,266.56,81.69,265.33,82.7Zm7.17-2.84c-1.46.31-3.32-.47-5.12.22.24-.77,1.33-.54,1.76-1.1,0,0,0,.07,0,.11,1,1.14,2.33.67,3.54.73,0,0,0,0,0,0A1.07,1.07,0,0,1,272.5,79.86Zm.37-52.17h0Zm0,52c-.05-.16,0-.09,0,0ZM274,31.86h0l.08-.06h0Zm6.2,16.39s0,0,.05,0h.06Zm.11-.06,0,0h0l0,0v0h0Zm.92-17.28Zm1.46,46.57h0v0h0Zm.91-28.82s0,0,0-.06l0,0ZM314.1,90.23h0l-.29,0c-.72.13-1.19-.48-1.79-.69A4.27,4.27,0,0,1,314.1,90.23ZM309.64,86v0l0,0Zm-.92,3.76a1.21,1.21,0,0,0,1.16-.64v0a5.16,5.16,0,0,0,1.34.33c-1,0-2-.13-1.87,1.53.86,1,0,.78-.54.74-.76-.06-1.77,0-1.73-1.1S308,89.79,308.72,89.8Zm-7-9.24h0l-.19,0Zm-8.05,3h0s0,0,0,.06,0,0,0,.06l0-.12Zm-8.1-40.39h0a1.06,1.06,0,0,0-.15.15A.67.67,0,0,1,285.61,43.21Zm1.2,25.57s0,0,0,0l-1.18,0h0a2.62,2.62,0,0,1-.46-.19.56.56,0,0,1,0-.12c.06.06.14.17.25.19a1.34,1.34,0,0,0,1-.09.76.76,0,0,0,.19-.21.7.7,0,0,0,.29.19.22.22,0,0,0,.06.17Zm79.12-6.14a.07.07,0,0,0,0-.06c-.08-.23.14,0,.12.07ZM352.17,25.87,352,26a5.14,5.14,0,0,1-1.8.42A10.31,10.31,0,0,1,352.17,25.87Zm-2.14.61-.13.09h0Zm-.16.11h0l0,0Zm-5.26,3.85h0a25.15,25.15,0,0,0,5.62,0c.55-.19,1.11-.51,1.05-1.13s-.81-.59-1.33-.73-1.05.2-1.59-.1a4.1,4.1,0,0,0,1.45-.09c.94-.1,1.91.4,2.82-.1s1.45-1.17,1.07-2.13a1.07,1.07,0,0,0-.3-.45c.72-.1,1.44-.2,2.15-.36-.05-.14-.1-.25-.14-.36a1.43,1.43,0,0,1,.2.14,1,1,0,0,0,.75.48c.35.05.71,0,1.09.09l.07,0v0a.32.32,0,0,1-.14,0c-.13,0-.26-.06-.39-.07-.73.07-1.81-.3-1.84.87,0,.87.82,1.3,1.65,1.48a13.43,13.43,0,0,1,3.05.78A14.49,14.49,0,0,0,357,29c-.78.14-1.78.27-1.79,1.24s1,.9,1.62,1.16l.23.07c-1.58-.12-3.15-.32-4.72-.5-2.24-.25-4.53-.75-6.7.4h0c0-.52-.41-.74-.9-.85h-.17v0Zm-37.35-4,.05,0h-.07Zm-.06-13.67h0l-.07,0Zm-.05,13.78c0,.16,0,.1,0,0ZM293.63,48.43c-.32.09.07-.11-.21,0s-.2.11,0,0,.27,0,.39,0,.45.15.68.16q.71,0,1.41.12A5.9,5.9,0,0,1,293.63,48.43Zm7.3,3.74a1.27,1.27,0,0,0-.77.16c-.87-1-2.76-1.28-2.52-3.18,0-.07-.05-.14-.15-.2a6.57,6.57,0,0,1,4.27,2.84,1.8,1.8,0,0,0,.85.68C302,52.42,301.49,52.25,300.93,52.17Zm36.93-2a.23.23,0,0,1-.05-.05s0,0,.06.05Zm3.38-1.88s0,0,0-.06l.06,0Zm4.94,5.87a5.46,5.46,0,0,0-1.43-1.1l0-.05a1,1,0,0,0-.44-.87,1.25,1.25,0,0,0,.44-.49c1.3,2.25,2.64.57,4,0,.21-.06.45-.4.57.06a1.27,1.27,0,0,0,1,1.06C348.68,52.8,346.73,52,346.18,54.19Zm6,2.82.07-.15c-.11,0-.31,0-.22.17a2.14,2.14,0,0,1-1.25-.22,3.6,3.6,0,0,1-3.11-1.32,3.09,3.09,0,0,0,2.49,0c.45-.29.86-.39,1.17-.09h0a.71.71,0,0,0,.25.38l0,0,.09,0c.32.25.72.45.63,1a4.67,4.67,0,0,1,1.24-.38A4.62,4.62,0,0,1,352.17,57Zm.28-4.27c-.18,0-.36,0-.54,0a6.55,6.55,0,0,0,1.47-.45c.09-.09.22-.16.31-.25h0v0h0v0l0,0c-.06.13-.2.22-.17.38a1.8,1.8,0,0,0,.06.22,1.65,1.65,0,0,0,.45.29A2.6,2.6,0,0,1,352.45,52.74Zm18.43-10.09a5.94,5.94,0,0,0-2.58-.29c-.82.13-1.69.35-1.78,1.29-.11,1.2.92,1.08,1.68,1.09,1.71,0,2.14.94,2,2.51-.29,2.62-1.1,3.23-4.46,3.1l-.16.1a.74.74,0,0,0-.57-.12c-.2-.09-.24.53-.52.13a2.36,2.36,0,0,0-.44-.32,8.14,8.14,0,0,0-1-.48,3.49,3.49,0,0,0-2-.29l-.18.07a.76.76,0,0,0-1-.13l-.48-.2c-1.17.29-1.47-1.07-2.39-1.27-1.45-.3-2.76,1.65-4.27.26-.93,1.18-1.64.18-2.39-.25a4.27,4.27,0,0,0-3.66-.47,2.18,2.18,0,0,0-.49.35c-.47,0-.95,0-1.43,0-.66,0-.64.47-.58.95v.24a13.21,13.21,0,0,1-1.78,0h-.15c0-.31,0-.6-.45-.71v0l0,0a.85.85,0,0,0-.59-.87,4.12,4.12,0,0,0-2.73.2l-.22-.19c-.43-.35-1.05-.44-1.46-1a23.58,23.58,0,0,0,4.38-.06c.86-.13,1.86-.39.93-1.64l-.3-.05,0-.28-.19.06c0-.08.14-.18.36-.31a1.57,1.57,0,0,0-.84-1,16.67,16.67,0,0,0,6.63.49c.26.37.65.55,1,.18s-.08-.52-.37-.72a1.8,1.8,0,0,0,.12-.47c0-1.3-.9-1.49-1.95-1.52s-2,0-3,0c.3,0,.6,0,.9,0,2.74-.29,5.5.76,8.23-.1a3,3,0,0,0,.49-.41h4.16c-1.4-.71-3-.16-4.21-1.36-.09-.09-.24-.07-.39,0l-.06,0c-4.93-.61-9.85-1.23-14.81-1.58a1.5,1.5,0,0,1-.37,0c-.21-.42-.64-.35-1.06-.28-.28-.13-.56-.27-.83-.42-1.09-.38-2.18-1-3.26,0a1.86,1.86,0,0,1-.15.38h-.35c-.12-.33-.21-.88-.44-.51-2.65-.85-3.36-.74-3.93,1a5.42,5.42,0,0,1-2.85-.79,3.14,3.14,0,0,0-4.15.37,1.11,1.11,0,0,0-.27.43,1.63,1.63,0,0,0-.31-.11c-.62-.79-1.4-.24-2.11-.23-.29,0-.32.29-.27.51.08.4.45.32.73.39h0a1.44,1.44,0,0,0,1,.44.57.57,0,0,0-.25.08c-1.09.45-2.05.92-1.53,2.45.88,2.58.36,3.9-1.94,5.16-.43.24-1.13.65-.94.93,1,1.5-.37.88-.84,1-1,.26-1.91.78-1.8,1.9s1.14,1,2.05.81c.44-.12,1.15-.29,1.16.37,0,1.93,1.58,1.4,2.59,1.78a.46.46,0,0,1,.09.45,3.41,3.41,0,0,1-.44.3,3.68,3.68,0,0,0-.58.34c-.36-.66-1.11-.68-1.75-.93-2.76-1.06-5.62.3-8.39-.38a3.67,3.67,0,0,0-.61.16H305a1,1,0,0,1-.32-.33,1.9,1.9,0,0,0-.8-.18,2.64,2.64,0,0,0,.91-.47.85.85,0,0,0-.1-1l-.14-.18c.18-.19.26-.43.07-.62a.42.42,0,0,0-.58-.11.77.77,0,0,1-.07-.16c.35-1.86-.24-3-2.29-3.23-.63-.06-1.34-.34-1.28-1.14a2.55,2.55,0,0,0-1.68-2.8,4.4,4.4,0,0,0-3.67.31c-.7.28-1.37.79-.83,1.61.76,1.17.13,1.35-.82,1.46a6.54,6.54,0,0,0-1.58.33c1-1.89.33-3.56-1.71-3.74a19.22,19.22,0,0,0-2.4,0l-.12,0c0-.54.17-1,1.05-.83a2,2,0,0,0,1.75-.51l.19-.2a7.51,7.51,0,0,0,.78.21,5.64,5.64,0,0,0,3.5-.23c1.07-.59.57-1.56.39-2.42,1.44.27,2.11-.28,1.89-1.77,0,0-.05,0-.08,0l0-.47a1.31,1.31,0,0,0,.44-.25,2.91,2.91,0,0,0,.85-.58l.05-.07c.35.15.7.4.91-.06s-.24-.67-.68-.76a.8.8,0,0,0-.26-.35c-1.6-.57-3.94.12-4.23-2.67-.05-.5-1-.13-1.51-.28l.05-.05.34.06c1.77-.13,3-1.41,4.6-2a.75.75,0,0,0,.4.55l.05,0v.12c-.14,0-.28,0-.38.07-.52.56-.39,1,.24,1.34a6.3,6.3,0,0,0,1.89.26c3.27.5,6.55,1.47,9.74-.53.69-.43,1.66,0,2.46.5,2,1.19,4.06,2,6.37.85a1.49,1.49,0,0,0,.2-.15c-.08.84.37.85.86.81l.29.26a2.17,2.17,0,0,0,.44.36h0a2,2,0,0,0,.84,1.5c0-.71.05-1.17.07-1.61a.8.8,0,0,0,.13-.13c.31-.16.34-.47.34-.79.08,0,.19,0,.4.27a2.24,2.24,0,0,0,.58.14,6.59,6.59,0,0,0,2.18-.11l2.61.14a2.6,2.6,0,0,0-.1.4c.35,2.39.41,2.44,2.67,1.83.54-.14,1.05-.47,1.61-.15,1.7,1,3.47-.24,5.19.16a1.3,1.3,0,0,0,.42.45,2.11,2.11,0,0,0,.65.26.51.51,0,0,0,.54.06c.37,0,.75,0,1.12,0,1.71-.16,3.48.33,5.13-.49a1.2,1.2,0,0,0,.13-.21,2.72,2.72,0,0,0,1.3-.06c.64,0,1.35.32,1.87-.36h0l1-1a3.47,3.47,0,0,1,2.93.66c.27.24.49.55,1,.15,2-1.66,4.06.09,6.1-.06.67,1,.88.23,1.17-.18a4.85,4.85,0,0,0,.61.29,3.11,3.11,0,0,0,.66.14c1.5.27,3.07-.31,4.54.39.27,2.43,1.75,3.2,4.25,2.58A5.09,5.09,0,0,1,367.49,40c-.37.11-.81.28-.78.76a1.1,1.1,0,0,0,.75.85c1.09.51,2.32.53,3.43,1H371v0Zm-4.92-10h-1.08c-.32,0-.64-.07-1-.13a2.48,2.48,0,0,0-.9,0,9.77,9.77,0,0,1-1.07.25l-.52,0a3.1,3.1,0,0,1-.72-.32.92.92,0,0,0-.8-.17,2,2,0,0,0-.5.69,1.21,1.21,0,0,0-.62-1.27,10,10,0,0,0,1.86.21c2.36-.06,4.81,1.17,7.09-.33l.14.13a7.12,7.12,0,0,0,2.43.35,4.1,4.1,0,0,1,1.58.56.43.43,0,0,1,0,0C369.91,32.63,367.94,32.62,366,32.65Zm8.13,35.05a13.72,13.72,0,0,1,2.22,0C375.57,67.68,374.83,67.68,374.09,67.7ZM380.41,49h0l-.1,0ZM377,73.09l.06-.11a.56.56,0,0,0,0,.12Zm-.08-11.77a11.36,11.36,0,0,1,1.42.27A1.81,1.81,0,0,1,376.94,61.32Zm3.63,7.58a2.26,2.26,0,0,0-.31-.23l-.15-.07a.72.72,0,0,0-.63-.64l-1.41-.15a1.35,1.35,0,0,0,1.12-1.59c.25.12.58.17.53.59-.39,1,.6,1.18,1,1.7a.43.43,0,0,0,.09.1ZM379.92,62l-.07,0a1.1,1.1,0,0,0-.74-.4,1.66,1.66,0,0,0,.66-.26l.12.07a2.76,2.76,0,0,0,1,.09,3.07,3.07,0,0,1,.8,0l.37.21a1.61,1.61,0,0,0,.41.25A23.87,23.87,0,0,0,379.92,62ZM386,51.09s0,0,0,0c0,.18,0,.09,0,0Zm2.17,10-.21,0-.22-.33.09-.06c.1-.76-.49-.86-1-1-.21,0-.42-.1-.63-.13-.12-.24-.3-.34-.64-.06h-.2a4.68,4.68,0,0,0-.53.17l-.48.19a1,1,0,0,1-1.1-.17,2.41,2.41,0,0,1-.29-.4,2,2,0,0,1-.08-.49.46.46,0,0,1,.32-.29c2.78,0,5.58.32,8.33-.39l.06.11.16.17h0C390.87,59.61,390.44,61.52,388.21,61.08Zm6-2-.14.06c-.15-.31-.31-.61-.46-.92h.4a7.31,7.31,0,0,1,1.65.5c1.35.56,2.82.69,4.18,1.2C397.86,60.11,395.87,60.66,394.16,59.12Z"/><path d="M235.17,8.83v0h0Z"/><path d="M409,32.77h-.09l.05,0Z"/><path d="M358.51,57.78s0,0,0,0h0Z"/><path d="M358.77,56.24a2.8,2.8,0,0,0-.22,1.51C359.22,57.36,359.06,56.84,358.77,56.24Z"/><path d="M358.51,57.78l0,0v-.06Z"/><path d="M139.65,6.92h0l0,0h0l0,0Z"/><path d="M139.73,6.73l-.06.14C139.84,6.82,139.87,6.77,139.73,6.73Z"/><path d="M48.37,7.87l-.4.4A.41.41,0,0,0,48.37,7.87Z"/><path d="M72,10.34c.14.14.28.27.41.41A.45.45,0,0,0,72,10.34Z"/><path d="M409.26,33l-.3-.18C409,33,409,33.22,409.26,33Z"/><path d="M409,32.77l0,0,0,0Z"/><polygon points="103.16 16.5 103.16 16.5 103.16 16.5 103.16 16.5 103.16 16.5 103.16 16.5"/><path d="M352.29,56.83s0,0,0,0h0l0,.06a.05.05,0,0,0,.05,0Z"/></g></g></svg>