<svg xmlns="http://www.w3.org/2000/svg" viewBox="0 0 535.2 534.14"><g id="Capa_2" data-name="Capa 2"><g id="Capa_1-2" data-name="Capa 1"><path d="M.48,276.62A2.11,2.11,0,0,1,0,276.5v4c2.09,1,4.27,1.91,6.55.87,1-.48.9-1.78.44-2.63C5.52,276.06,2.87,276.65.48,276.62Z"/><polygon points="401 121.5 401 121.5 401 121.5 401 121.5 401 121.5"/><path d="M487.54,173.71c1.62-3.06.41-5.25-3-5.42-5-.24-9.18,2.18-13.49,4.18-1.73,3.09-5.5,5.78-1.94,9.87C476.37,183.6,484.23,179.93,487.54,173.71Z"/><path d="M532.15,255.41c-.29-1-1.34-2.2-1.88-1.63-1.13,1.19-.27,2.7.6,3.93a41.32,41.32,0,0,1-.72,9.34,9.37,9.37,0,0,0,.79,7.2c.51.83.76,2,1.92,2s1.39-1.28,1.56-2.21C535.53,267.58,536,261.23,532.15,255.41Z"/><path d="M14.71,279.82c-.29-.12-1.17.59-1.37,1.08-.43,1.05.49,1.37,1.27,1.66,5.13,1.9,10.36,3.33,15.91,3.13,2.23-.07,3.47-.85,2.51-3.25C27.28,279.23,20.62,282.18,14.71,279.82Z"/><path d="M33,282.31h0v0l0,.11h0v0s0-.05,0-.09Z"/><path d="M528.75,237.57c.84-6.57-4.63-16.78-10.34-20.31Q523.59,227.42,528.75,237.57Z"/><path d="M326.29,59.55c2.5,0,3.94-1.57,4.23-4,.14-1.18-.14-2.46-1.16-2.9-2.84,1-6,1.16-6.89,3.24C321.83,57.38,324,59.51,326.29,59.55Z"/><path d="M416.76,403.34a3.59,3.59,0,0,0-4.05,3.38c-.3,2.31,1.54,3,3.28,3.65a4.17,4.17,0,0,0,4-3.62C420.26,404.75,419,403.4,416.76,403.34Z"/><path d="M72.8,396.14c5.24,0,9.44-4.14,10.18-9.61C77.22,387.16,76.65,393.08,72.8,396.14Z"/><path d="M83,386.38h0a.77.77,0,0,0,0,.15l.1,0h0s0-.06,0-.09l-.09,0Z"/><path d="M194.8,501.42c-1.7.72-2,2.18-2,3.79-1.06,1-2.17,2-3.17,3.05-.84.91-2.33,1.94-1,3.26s2.35-.36,3-1.25a25.15,25.15,0,0,0,2.1-3.82c.59-1.08,2.11-1.46,2.2-2.93,2.76-3.61,6.46-6.71,6.58-12.15C198.1,493.44,196.8,497.71,194.8,501.42Z"/><path d="M206.84,473.15c-2.43.15-3.19,2.19-3.57,4.15-.34,1.8,1,2.2,2.49,2.11A3.48,3.48,0,0,0,209.4,476C209.24,474.51,208.7,473,206.84,473.15Z"/><path d="M360.89,61.44c.8,0,2-.08,1.53-1.24-1-2.34,1.66-4.11.73-6.34h0c1.45-2.59.87-5.42,1-8.17,1.93-2.43,2.36-5,1-9.19-1,3.16-1.53,5.08-2.1,7-3.69,1.37-3.43,4-2.19,6.91-1.81,3-.18,6.53-1.54,9.65C358.9,60.9,360,61.45,360.89,61.44Z"/><path d="M471.76,377.07c-.21.32.22,1.57.53,1.64a1.89,1.89,0,0,0,2.3-1.38c1.06-3.29,2.51-6.53.9-11.42C473.76,370.26,473.73,374,471.76,377.07Z"/><path d="M506,149.74a3.25,3.25,0,0,0,3-3.26c.06-1.44-1-2.12-2.3-2-1.82.22-3.2,1.11-3.15,3.18C503.56,149.1,504.47,149.74,506,149.74Z"/><path d="M488.63,149.65c1.63-.3,2.81-1.13,2.83-2.86s-1.2-2.22-2.64-2.21a2.62,2.62,0,0,0-2.74,2.81C486,149,487.13,149.64,488.63,149.65Z"/><path d="M417.08,70.55c.71.36,1-.54,1.13-1.49-1.42-2-2.57-4.43-5.07-5.6a1,1,0,0,0-1.24,1.41C413.23,67.09,414.68,69.34,417.08,70.55Z"/><path d="M259.75,3.7c2.32.93,4.64,1.88,6.93-.06L262,2.58c-4.65-.6-9.29-1.45-13.94-.07C251.76,4.57,255.87,3.05,259.75,3.7Z"/><path d="M494.9,191.67c.88.94,1.94,2.33,4.1,1.58-.13-1.71-1.39-2.37-2.27-3.26-1.29-1.29-3.27-2.79-4.5-1C491.12,190.67,494,190.71,494.9,191.67Z"/><path d="M69.53,229.16c1.37.19,2-1.32,2.68-2.75-.42-.72-.89-1.67-2-1.58-1.25.1-2.93.43-2.88,1.95A3.31,3.31,0,0,0,69.53,229.16Z"/><path d="M461.38,97.23c1.29.36,1.46-.9,1.58-1.69A2.07,2.07,0,0,0,461,93a1.59,1.59,0,0,0-2,1.52C458.87,96.16,460.2,96.9,461.38,97.23Z"/><path d="M48.53,353.12c-1.2.18-2.42.51-2.09,2,.28,1.36,1.58,1.55,2.74,1.51A1.68,1.68,0,0,0,51,354.83,2,2,0,0,0,48.53,353.12Z"/><path d="M188.37,413a2.34,2.34,0,0,0-.42-1.47c-.73-.36-1.45-.74-2.19-1.06-1.14-.51-2.53-1.71-3.44-.1s.54,2.69,1.7,3.54a5.1,5.1,0,0,0,1.9.46c1.42,1.56-1,1.93-.95,3.08-1.06,2.11-.82,3.37,1.94,3A10.78,10.78,0,0,0,188.37,413Z"/><path d="M529.14,284.93a11.18,11.18,0,0,0-.17-2.43l-.24.24a.62.62,0,0,1,.24-.24c1.64-6.63-1.37-12.66-2.49-18.94a15.45,15.45,0,0,0-.37-3.1c-1.36-2.14-.41-4.67-1.15-6.92l1.13-1.14c2.14-1.26.77-2.51.14-3.77,0-.1-.09-.2-.14-.3-2.64-8.19-5.45-16.31-10.94-23.16h0c0-1.37-1.17-2-1.87-2.82-2.35-2.85-5.7-6.36-6.37-8.8-1.58-5.77-5.14-9.42-9.18-12.44-9.13-6.83-18.32-13.69-28.65-18.75v0h0l.11.09-7.38-1.84c-1.55-2.05-3.69-.82-5.58-1-1-.58-1.61-2.3-3.23-1.13l-.06-.11h0c-1.11-2.22-3.36-2.33-5.37-2.53-1.78-.18-1.78-1-1.49-2.3,2.53-1.92,2.57-5.19,4.11-7.65,1.82-2.92,1.62-5.89-1-8s-4.88.17-7,1.72l-2.38-.85c-2.22-1.39-.84-3.54-.51-4.92,1.6-6.65-.77-12.93-1.2-19.38-.29-2.26-.71-4.51-.84-6.78-.53-9.19-.94-18.4-4.16-27.18A10.64,10.64,0,0,0,431,93.74c-1.17-1.73-1-4.15-2.79-5.55h0l.16-.37-.3-.27c.28-2.89-1.42-5-2.93-7.1-1-2.08-1.34-4.6-4.09-5.3-1-1.55-1.39-5.05-4.22-1.49l-1.69-.08-2.94-.14c-.39-.64-.78-1.28-1.18-1.92-1.39-1.79-2.22-1.45-3.16.53-2.46,5.25,3,7.11,4.38,10.7a4.58,4.58,0,0,0,1.16,3.79,1.3,1.3,0,0,1-1.37,1c-.82-1.9-3.89,1.56-4.12-1.74-.84-2.44-3.75-.38-4.86-2.23-1.28-3.42-.44-8-5.8-10.37,1.5,4.08,2.64,7.21,3.79,10.33.08,1,1.53,2.07,0,3.06-1.28-1.79-2.28-3.83-4.4-4.85h0c-2.36-2.87-4.28-6.13-7.46-8.26-1.46-1.18-2.25-3.39-4.65-3.07-.28,0-.73.79-.65,1.1.53,2.06,2.79,2,4.06,3.25.11.58.23,1.17.34,1.76-.95-.12-1.85-.12-2.19,1,.16,1.87,1.18,2.44,2.92,1.94h0l1.89-.85c.53.77,1.69,2,1.52,2.22-2.69,3.54.62,3.73,2.51,4.71.08.65.16,1.3.25,1.94-1.72,1.54-3.38,3.18-6,3a1.28,1.28,0,0,0-1.65.6c-.61.89.5,2.72-1.11,2.8S384,92.4,383.2,91.12s-.35-2.57-.54-3.84c-.37-2.56-.2-5.63-4.35-5-1.29.18-2.22-1-2.72-1.89-1.44-2.61-2.95-2.81-5-.71-1.29,1.35-2.22,1-2.91-.69-.49-1.19-1.18-2.29-1.78-3.43-.6-3.68.44-7.16,1.25-10.67h0c1.46-1.86.8-4.06,1-6.12h0c.79-2.31,2.81-4.39,1.34-7.57-2.18,1.89-1.91,4.3-2.46,6.37L366,61.39c-1.06.73-2.17,1.27-1.41,3,.89,2,.15,4.09-.56,6.08-.65,0-1.33,1.38-1.95,0,.41-1.84-2.09-1.58-2.2-3s-.58-2.44-1.81-.74a26.18,26.18,0,0,0-1.95,3.89l-2-1.06c-4.44-3-3.25,2.07-4.42,3.37-1.79-.79-2.24-3.39-4.63-2.35-1.07.48-1.32,2.15-2.85,2-.4-1.61-1.72-3-1.27-4.8a16.07,16.07,0,0,1,1.16-2.12c.57-.74,1-1.44-.05-2s-1.57-.07-2,.82l-1,0c-.76-1.74-1.37-.64-2,.1l-2.31.19c-3.44,2.76-.58,5.22.38,7.78a3.57,3.57,0,0,0,.79,3.12,22.24,22.24,0,0,1-.14,4.84c-.77,3.13-2.27,4.33-4.57,1-1.27-3-2.44-6.55-5.24-.92-2.44,1.45-4.35,3-1.81,6.05.54.65-.6.8-1.17.93l-4,.07c-.38-1-.44-2.22-2-2.05l-.9-2c.58-3.31-1.57-5.54-3.17-8a1.18,1.18,0,0,0-.09-.94l1-.94c.16.74.45,2,1.3,1.32,1.24-.93,1.06-2.32-.07-3.45l.09,0c.29-.64.59-1.27.88-1.91l.45,0,.44-.07c2.14,1,.08,3.91,2.21,4.92,1,1.06.66,3.11,2.86,3.83V73.51c0-.34.05-.68.07-1,.8-2.3-2.38-2.87-2.15-4.92-.19-1.7.83-3.66-1.05-5h0c-2.22-.35-1.35-3.06-3-3.86-1.56-.58-.32-2.65-1.75-3.29,0-2.53-1.72-4.17-3.22-5.9-.62-1.72-.51-3.7-1.86-5.16-1.84-2.48-3.41-5-2.73-8.35.16-.8.3-1.86-.64-2-.49-.07-1.14,1-1.72,1.48-1.39-2.52-2.53-5.2-4.91-7l-2.92-4.23q-2.69-2.84-5.35-5.69c.89-2,.61-3-1.8-2.08a9.23,9.23,0,0,0-3.88-3.06l-4.06-3L277,8.52A5.82,5.82,0,0,0,273,6.46c-.87-1.61-1.65-3.42-4-2,0,2.81,2.26,2.55,4,3l3,1.85a7.92,7.92,0,0,0,3.72,2.42h0l4.19,2.86c1.94,1.78,2.95,4.62,5.95,5.17,1.55,2,1.61,5.4,5.07,5.77l3,4c.63,3.3,3.63,5.36,4.66,8.45a3.07,3.07,0,0,0,.22.78,5.32,5.32,0,0,1-.91,3.59c-1.55.68-2.06,1.67-1,3.15l-1.94,1a8.5,8.5,0,0,0-.87-.07,3.12,3.12,0,0,0-1.72-3.05h0a1.5,1.5,0,0,0-.47-.86c.1-.84-.14-1.84,1-2.15.78.23,1.7.41,2-.47a2,2,0,0,0-1-2.4c-1.75-2.3-1.75-2.3-3.93-3.19,1.71,3.87,1.71,3.87-.91,3.88-2.62-1.94-5.31-3.8-7-6.69a.75.75,0,0,0,.84-.9h0l6,1.09c-1.29-3.15-3-4.6-6-4.13v-.07h0c2-3,1-4.49-3.89-5.89l0-.12H283a1.58,1.58,0,0,0-1-1.89h0c-2-1.78-3.49-4.58-6.91-4-.89-3.14-1.95-1.51-3-.11l-1.26-.06c0,1.2.1,2.35,1.24,3.08l-3.11,2.1-.77-.21c-3.28-2.3-1.61,2.2-3.14,2.29L260,22.38c-1.65-1.51-4.75,1.61-6.17-2.33-.44-1.23-.8,1.35-1,2.27-1.63.29-3.49-.41-4.84,1.11h0c-.29.16-.59.48-.86.45-1.91-.18-3.73-.14-5,1.53-.1.13.26.84.31.83,1.52-.31,3-.63,4.51-1.06.42-.12.73-.59,1.09-.9l2,.16,8.69.17c1.83,1.58,3.8,2.85,6.35,2.81a1.82,1.82,0,0,0,.12.92h0c0,.43,0,.87,0,1.3h0a3.11,3.11,0,0,0-.09.86c-1.06.11-2.46-.37-2.86,1.1-.61,2.22,2,1.62,2.64,2.74h0l.18.32-5.73-1c.27,1,.51,2,.74,2.87-.59.08-1.46.18-1.27.91.28,1.07,1.32,1.15,2.3,1,1.45.43,2.2,2.25,4,2-.53,2.14-2.91,1.67-4.09,2.9a1.21,1.21,0,0,1-.86,0c-1-1.82-2.54-1.41-4.08-1l-3.9-1a1.84,1.84,0,0,0-2.14-.8c-2.74,1.07-2.61,4.37-4.64,6-2,1.13-1.21,3.07-1.41,4.73-2.32,1.22.4,4.63-1.79,5.9a4.28,4.28,0,0,0-.93.36,3.69,3.69,0,0,0-2,2.43c-1.09,3.17,1.65,5.32,1.67,8.11l0,0c-3-1.33-4.37.16-5.7,2.78-1.74,3.41,1.45,6.25.58,9.44a.71.71,0,0,0-.69,0c-1.42-1.82-2.79-1.11-4.16.06-1.15.31-.91,1.22-.88,2-1.61,3.22-.62,6.16,1,9,.07.33.14.66.2,1l-2.25.06c-2.62-1.5-5.12-2.56-6.09,1.73-1.18,1.83-1.7,3.65,0,5.48.43,1.52.85,3,1.27,4.56-.12,1.26-.67,2.11-2.06,2.14l-.87,0a18.14,18.14,0,0,0-2.62-2.89c-1.38-1-2.87-.37-4.18.44-1.08.66-2,2-1.35,2.87,1.43,1.85.13,4.35,1.81,6,1.57,3.49,3,7,4.77,10.43.74,1.42,2.31,2.48.92,4.24-.36.46-1.2,1.12-1.49,1-1.58-.75-1.95-2.29-2.09-3.9.24-1.8-.13-3.31-2-4l-2.95-2c-1.19-3.16-3.27-4.8-6.83-4.43-1.1.11-1.94.16-2.31,1.3s-.17,2,1.15,2.2.61,1.18.76,1.83c-.75,3.43.59,6.4,2.16,9.26a22.74,22.74,0,0,1,3.15,8.76c-.55,1.63-1.54,2-3,1-1.44-3.68-2.94-7.32-6.08-10-.1-4.5-4.62-3.71-6.63-6.17-2,3.26,1,5.77,1.05,8.48a4.81,4.81,0,0,0-.37,1.69c-.82,2.18.64,3.95,1.06,5.91-.43,1.58.23,4.26-3,3l-.8-1.06c.49-4.09-3.4-5.83-4.76-9.1-1.12,1.3-3.41,2.3-2.3,4,2,3-.31,4.87-1.2,7.14-1.67-.9-.35-3.16-1.79-4.18-2.16,1.18-4.2,2.46-3.33,5.26,1.86,5.94,1.93,5.92-3.81,4.87-1.21-2.06-3.07-2.22-5.15-1.78l-1.7.06c-1.44-.18-3.22-.49-3.57,1.33-.3,1.59.9,2.54,2.65,2.66.56,0,1.08.53,1.63.81-.33,3.47,3,1.58,4.19,2.91-.05.38-.11.76-.17,1.14l.09.15a18.11,18.11,0,0,0-8.68,1.44l4.51.54c-.06,1.74-1.79,1.36-2.65,2.08a2.15,2.15,0,0,0-2.27.76h0l-3-.17h0c-1.68-1.6-3.29-.75-4.91.14h0L151.24,159c-.24,1.89.85,2.7,1.73,3.62h0l.15,1.1a1.62,1.62,0,0,1-.21.74,12.75,12.75,0,0,0-7.66,1.91c-.72-1.2-1.84-1.5-2.86-.69-.83.67-.2,1.41.59,1.85h0c0,.86,2.44.64.91,2.13a2.17,2.17,0,0,0-2.63.64c-.31.42-.46.79.18,1a2.07,2.07,0,0,0,2.57-.8c2-.13,1.55,1,1.12,2.13a2.48,2.48,0,0,0-.39.82c-.89.06-1.84.6-1.36,1.39.8,1.31,1.84.64,2.62-.33l5.09,1c.33.35.66.71,1,1.06l-1.23,2.7h0c-.64,1-1.28,2-1.93,3.06-1.66-.34-2.87.05-3.18,1.93l-.88,1.05h0l0,0h0c-1,1.44-1.56,4.63-3.83,2.94s-4.58-.73-7.07-1.21c3,2.85,5.22,5.64,2.06,9.48l-13.66-8.28a23.61,23.61,0,0,0-2.35-2.44c-1.08-.84-2.25-2.49-3.73-1.15a4.29,4.29,0,0,0-1.17,3.46c.53,2.36,2.33.5,3.56.68a11.07,11.07,0,0,1,2.23.81c2.23,3.92,7,7.81.11,11.81-3.4.23-4.84,1.63-3,5a5.51,5.51,0,0,0,1.21.75c3.61,1.11,3.58,1.08,2,4a2.11,2.11,0,0,0-.06,1.86c4.08,4.72-1.57,4.72-3,4.84-3.11.25-6.07,1.29-9.18,1.36-1.31-.74-2.73-1-3.06.83-.23,1.36,1.12,1.28,2.12,1.17a14.59,14.59,0,0,1,7,3.07c-1,4.11-4.58,2.6-7.19,3.18-4.36.28-4.7.49-4.72,2.78l-1.28,2-4.86.23a.8.8,0,0,0-.91-.12h0a4,4,0,0,0-2.85-1.13c-3.15-5-7.56.15-11.29-2,.43,2.62,1.93,2,3.13,2,2.93,2.21,6.35,2.88,9.91,3.12l-.44-.34a.87.87,0,0,1,.44.34l.38.23.43-.11c1.59,1.16,3.37,1.11,5.19.88,10,5.31,21.06,5.49,32,6.15,1.12,1.26,2.65.91,4,1,1.58.09,1.32,1,1,1.95-15.33,1.52-30.44.06-45.54-2.69-8.12-1.48-16-4.16-24.36-4.4-3.56-2.38-7.64-3.29-11.76-4-1-.18-2.65.32-2.5,1,.37,1.65,1.53,3.08,1.53,5,0,.56,1.22,1,1.61.46,2.93-4,6.55-1.43,9.92-1.16.52,3.66,4.62,2.52,6.26,4.67l-.09,3.11h0l3.91,3c-1.22,1.74-5.82-2.11-5,3-1.08.74-2.24,1.42-1.92,3-1.31,2-3.24,3.89-1.12,6.48,2.93-.89,5.81-3.28,8.89-.33.33.38.67.76,1,1.13a1.22,1.22,0,0,1,.66.94l-.66-.94c-.59,1.12.62,2.57-.65,3.57-.19-1.79-1.89-2.83-2.89-2.25s-.28,2.34.7,3.35c.74.94,2.16,1.45,2,3,1.3,1.52,2.7,1.89,3.05-.49.23-1.56.28-2.85,1.95-3.44,1.24.73,1.13,2.75,2.86,3h0c1.43,2.46,4.59-.68,6,1.86a20.56,20.56,0,0,0-3,1.63c-.53.42-2,0-1.54,1.2.2.53,1.36.69,2.08,1h0L92,280.44c2.38,1.51,4.5,3.65,7.68,3.25a1.12,1.12,0,0,0,.35.73c-1.76,2.07-4.21.56-6.24,1.2-2.61-.5-5.22-1-7.83,0l-2-.19h0c-.74-.29-1.59-1-2.2-.8-2,.56-3.36-4.13-4.54-1.35-1,2.48,2.69,3,4.71,3.84.61.26,1.24.45,1.85.67.86,1.22,2.06.63,3.16.61l4,3.05c1.63.51,1,3.49,3.48,3.11,1.67.37,3.27.42,4.53-1l2.09-2.08c3.09,1.08,3.67,5.74,7.73,5.46-.36,1.7.2,2.73,2.06,2.81-.72.88-1.43,1.77-2.14,2.66A44.13,44.13,0,0,1,96.32,304c-1.09,0-2.15-.12-2.33,1.1-.21,1.48,1.16,1.38,2.06,1.44,3,.18,5.3,1.83,7.72,3.26L102,311.5h0c-1.82,1.6-4.12.4-6.1,1.06-1.74.7-5-1.17-4.78,2.84-.42.66-.83,1.32-1.24,2-6.7.84-12.8-3.67-20.37-2.51,8.94,5.25,18.78,4.89,27.29,8.72-.89,2.42-3.89,2.64-5,4.81a171.13,171.13,0,0,1-26.61-4.86c-3.6-.89-7.53,0-10.82-2.2h0c-2.46-.84-4.87-1.84-7.37-2.47-4.55-1.15-4.53-.83-4,3.6.44,3.59,1.52,3.25,3.45,1.22,1.62-1.72,3.4-1.76,5.38-.88,4.18,2.75,9.37,4.34,11.14,9.82l-1.67,1.5a.48.48,0,0,0-.31.28,2.9,2.9,0,0,0-1,3.09c-1.28,1-2.85,1.82-1.54,3.83-2.63.05-1.93,2.2-1.45,3.16,1.13,2.29,2.87,1.1,4.4.17h0l.27,0a3.51,3.51,0,0,0,.58.14c2.12.53,4.27,1,4.86,3.72-.1,1.08,1.31,1.79.74,3l-1.7-.2c-.14-2.14-1.62-2.2-3.23-2.5-.09,2-.07,3.41,1.78,3.94h0c1.3.52,1.5,1.58,1.37,2.8.18,1.59,1.52,1.15,2.19.92,1.42-.5.78-1.88.8-2.95a3,3,0,0,1,2.84-.9c.58.72.63,2,1.94,2a2.32,2.32,0,0,0,.25.77c.45,1.09,2.09,1.82,1,3.37,1.9,2,4.08,3.9,4.88,6.75a19.67,19.67,0,0,0,8.09,3.88c-1.73,2.19-4.22.63-6.27,1.27-1.89.23-3.66-1.58-5.85-.26,1,1.35,2,2.65,3,3.94a5.26,5.26,0,0,0,4.78,1.11,11.78,11.78,0,0,1,4.27,4.23c-1.46,2.4-4.76,3.48-5,6.78,2.37,1.08,2.86-1.19,3.9-2.35,1.89-2.08,3.59-4.42,7-3.49.67,1.2,1.92.76,2.92,1s.45,3.77,3,1.78l2-.78a13,13,0,0,0,6.15.82,1.86,1.86,0,0,0,.9.14c1.7,1.62-2.71,3.34.07,4.95l.23,3a1.88,1.88,0,0,0-1.34,1.8h0a8.5,8.5,0,0,0-2.92,5.14C98.54,401,98,408.66,92.82,412.22c-1.08,1.26-1.81,2.69.42,3.24s2.53-1.31,2.73-3c.67-1.54,2.14-2,3.53-2.42,5.36-1.58,7.29-5.23,6.54-10.56h0c1-1.67,2-3.35,2.95-5h0a2.69,2.69,0,0,0,1.08-2.95h0l-.06-1.14c4.07,1.31,3.23-1.54,3.15-3.74l.08,0,1.82-.28a3.89,3.89,0,0,0,4,.17l2-2c3.89.8,7.66,2.2,11.7,2.11.9,1.87,2.24,2.11,3.93,1.06,3.88,2.1,8.05,0,12,.83.94,1.61-.84,2.5-1.18,4.19,2.65-.59,5.29.56,7.59-1.23l3.83-.27,1.89.35c.95,1.74,2.55.94,3.94,1-.62.63-1.85.56-2,1.74,0,2.64,2.26.55,3.07,1.48,2.68,2.12,4.71,1.42,6.16-2.12,3.85.7,5,1.8,3.89,3.71-1.26.45-3.57.6-2.38,2.49.88,1.41,2.5,0,3.51-1.05,6-1.71,12.56-1.53,17.73-5.77.69-.56,1.89-1.43,2.11.31.18,1.43,2.95,3.1,1.24,3.67-6.08,2-.23,3.64-.13,5.38-3,3.26,1.51,6.7-.22,10-.06,0-.1.07-.13.19-1.46,2.22-3.61,4.37-.58,7,0,1.6,0,3.2.07,4.79.33,2.15-3.4,2.47-2.25,5-1.32,1.73-.76,3.48-.05,5.24h0a5.22,5.22,0,0,0,1.94,4.91c3,2.35,1.34-2.53,3.15-2.05,0,1.88,2.24,2.87,1.95,4.87l-2,1.26c-3.24.06-3.8,1.82-1.62,3.67,1.17,1,1.31,2.55,2.62,3.22.29,1.28.16,3,.94,3.78,5.69,5.68,6.16,15.1,13.87,19.28h0c.92,2-.27,3-1.87,3.73-1.25.58-1.91,1.5-1.07,2.67,1,1.46,1.94.3,2.71-.5,1.24-1.28,2.45-2.59,3.67-3.89l4.93,1.65c1.57.54,2-.27,1.94-1.64.31-.14.63-.25,1-.37a2,2,0,0,1-1,.37c2.4-.52,4.65.2,6.9.85,2.54,2.7,4.06-.5,6-1l2,.13c4.2,1.4,4.2,1.4,4.18-1.19h0l2.68-3.84c.79-1.06,2.06-.66,3.09-1a3.45,3.45,0,0,0-.66-.44,2.38,2.38,0,0,1,.66.44,2.54,2.54,0,0,0,3.18-2.06c1.42,1,3.27,2.5,4.52.73,1.09-1.54.52-3.62-2.16-3.79l1.38-1.8a1.81,1.81,0,0,1-.29-.65c.1.21.2.43.29.65,1.23-4.33,2.66,1,3.95-.09.73,1,1.46,1.93,2.18,2.9a2,2,0,0,0,1.78,1.33c1.71,2.18,3.34-1.12,5-.08l4.38,3.89c-.58-1.93-.91-3-1.25-4.17h0l3,.13h0c1.68,3,3.81,4.76,7.35,2.73h0c1.52-.46,2.64.29,3.69,1.25l2.08,3,.57,0h0a.8.8,0,0,1-.57,0c-1.47-.15-2.59.29-2.54,1.95a1.7,1.7,0,0,0,1.26,1.08c2-.09,2-1.55,1.85-3.06l3.37,1h0l4.06,2.86c1.35-.6,2.53,2.18,4,.21,1.45-1.63,1-2.71-1-3.37l3.06-1h0c.77-1.07,2.9-.13,3.31-2.37l-5.26-.67c-1.19-2.16-2.76-3.24-5.19-1.77.41-1.74-.43-2.27-2-2.14-1.87.16-1.91-.57-.81-1.79,3.1,0,6.34.59,8.86-2l2.81-.21c1.25.72,2.89-.34,4,.87-2.13,1.06-2.39,2.17-.1,3.36,4.05,4.21,8.81,5,14.16,2.9a2.63,2.63,0,0,1,3.05-.68c.6,1.26,2.46.19,3,1.61,3.08,2.77,5.24-.45,7.78-1.18,1.61-.35,2.2-1.2,1.31-2.74,4.29-2.2,7.77-5.42,12.75-6.95,7.9-2.43,14.1-8.41,20.28-13.92,4.11-1.86,7.52-4.38,8.68-9.05l.18-1.11-.17-1q1.19-2.52,2.36-5l-2.16-.09-.55-.48a26.6,26.6,0,0,0,2.5-2.48c.75-.77,1.8-1.11,2.55-1.86,1.62-2.28,3-1.78,4.19.39l.15.31c-.33.36-.58.84-.9,1.23l.39,3.09,1.63.29c-.28,1.88.11,4.17,2.1,3.92s.69-2.16.07-3.36l.87-.9h0c2.3,3.41,3.38,7.34,4.78,11.14.53,1-.65,3.12,1.56,2.82,1.58-.22.85-1.89.76-2.87a15,15,0,0,0-1-3.17c-1-3.4-3.77-7.74-2.58-10,1.75-3.33.34-5.33-1-6.73-4.43-4.52-4.36-8.31.56-12.16a8,8,0,0,0,1-1.12c1.72-1.21,2.37-3.17,3.39-4.87l1.15,1.05h0l-2.34,3.54c3.51,1.51,3.29-2.62,5.19-3.45-1.26,1.81-2.95,3.38-3.08,5.8.05,1.22-2.15,2-.39,3.79,4.62-3.07,7.48-7.69,9.66-12.54,3-6.62,8.18-12.3,8.62-20,3.21-2.5,3.2-6.63,5-9.84a3.7,3.7,0,0,0,.22-.8c1-3,3.71-5.6,2.52-9.51a4.6,4.6,0,0,0-2.93,3.85l-1-1c.25-1.31,0-2.78,1.17-3.82,8.19.58,14.5-4.31,21.38-7.45a129.19,129.19,0,0,0,13.1-7c6.17-3.75,6.07-3.87,8.78,3.15.21.55.93.9,1.41,1.34.73,2.31,1.45,4.62,2.18,6.94.27.8,1.05,1,1.46.5,1-1.25-.14-2.41-.45-3.61-.54-1.85-1.07-3.69-1.6-5.54a5,5,0,0,0-.2-.67l-2.77-5.94c-1.11-2.29.66-3.22,2-4.41,9.79-8.73,17.9-18.65,21.46-31.59a19.57,19.57,0,0,1,3.43-6.54c.78-1,3.64.49,3.81-2.27l1,1.94-5.13,21.74c-2.23,4.46-4.48,8.92-6.7,13.38-.44.9-.6,1.89.27,2.57.18.14,1-.54,1.53-.85,3.1,1.67,3.88-1,5.19-2.74,2.68-1.25,3.48-4.36,5.85-5.91,1.1.92,2-.77,3-.26s1.84.25,2.75,0l2.37,0c2.31,2.19.19,4.67.44,7-1.4,1.48-.57,3.29-.74,4.95-1.05,2.76-1.73,5.52-.1,8.3h0c.19,1.57,1.21,2.43,2.64,2.11s.53-1.61.54-2.47c0-3.26,0-6.51.06-9.76a.45.45,0,0,0,.07-.72,42.65,42.65,0,0,0,1.78-14.29c.34-1.33.68-2.65,1-4,.35-.75.7-1.5,1.06-2.25,2-1.8,2-4.54,3.2-6.69,2-1.3.23-2.59,0-3.88,1.09-.11,2.35.33,3.05-1,1.59-2.88,1.57-6.08,1.79-9.23l-1.14-3c.38-2,.86-4-.64-5.76-1.55,1-.83,3.06-2,4.21a1.19,1.19,0,0,0-.55.6l-.26.06c-1.84.85-3.85,1.5-4.94,3.33l-.68-.8c.07-.28.14-.56.22-.84.22-1,.52-2.06.81-3.08,0-.21.08-.41.12-.62l0,0,1.82-.94c.41,1,1.35.81,2.15.92,2.36-2-.56-4,0-6s1.81-4,0-6a7.22,7.22,0,0,1-2.92-5l.78-.83h0c1,1.36,1.68,1.34,2.13-.42.8-3.11-2.18-4.43-3.06-6.73l.94-3.09,2-1.82h0c.49,1.29.46,2.87,1.8,3.68a4.27,4.27,0,0,1-.45,1.09c-.1,3.09,1.79,5.86,1.52,9a9.49,9.49,0,0,1,.26,1.35c-.21,1.54.21,3.15.21,4.71,1.53-.27,1.78-1.58,2.21-2.73l2.26,1c-.16,2.63-1.49,5.31.33,7.87h0c-.48,2.07-.16,4.75,2,4.51S528.92,286.39,529.14,284.93ZM117.86,227.62l0-.05h.06ZM98.12,316.68l-.35-.07.25-.07C97.82,316.17,98.1,316.42,98.12,316.68Zm14.24,12.42h-.19c-2.53-2-5.93-.14-8.47-1,2.19-.87,5.25.63,7.43-1.13.23,0,.45,0,.67,0,4.09.9,8.32.75,11.79,1C120.25,328.45,116.34,329.51,112.36,329.1Zm38-127.5a3,3,0,0,1,.43-.08,5.39,5.39,0,0,0,1.39,0c.33,0,.67,0,1,0a8.63,8.63,0,0,0,1.07.71,83.22,83.22,0,0,1,10.32,5.12C159.72,205.68,155.09,203.52,150.36,201.6Zm47.73,228s-.05,0-.1-.09v0A1.13,1.13,0,0,0,198.09,429.56Zm-3.14-.1h0l.24-.21A1.21,1.21,0,0,1,195,429.46Zm73.21-400.6A2.92,2.92,0,0,0,269.47,27c.93.68,1.87,1.17,2.94.58l.31.42a49.81,49.81,0,0,1,7,6.55c-1.4.37-2.25-1.51-3.65-1.15.15-1.56-.35-2.65-2.09-2.85a.84.84,0,0,0-.9.07l-.95-.43h0c-1.13-1.3-2.54-.95-3.93-.74l-.11-.12A.78.78,0,0,0,268.16,28.86ZM276,33.54c.34.65.68,1.3,1,2-2.41,2.8,1.07,3.48,1.84,5.14.06.34.11.68.17,1-1.51.23-2.19,2.31-4,1.81a6.29,6.29,0,0,0-3-2.22,8.44,8.44,0,0,0-.47-.89,3.5,3.5,0,0,0-1.5-1.3,1,1,0,0,0-.75-1.36A5.61,5.61,0,0,0,268.15,36a1.35,1.35,0,0,0,2-.71c1.69,1.18,3.35,2.06,4.47-.66h0Zm32,40.87h0v0ZM282.86,84.47l-.08,0Zm25.72,29.64c.37-.13,2.62-.64,1.75,1a5.5,5.5,0,0,0-.37.87,22.12,22.12,0,0,0-2.34-1.23A3.34,3.34,0,0,1,308.58,114.11ZM281.12,25.23h0a.08.08,0,0,1,0,0l.05,0Zm29.55,50.32h0l0-.07.11.08ZM306,64.1v0h0ZM264.18,46.46h0c1.05,1.71,1.82,3.66,3.81,4.59h0l1.42.92a4,4,0,0,1-.21.7,25.35,25.35,0,0,0-.87,3.21v.06l-1.05.23-.09-.18c-.68-3.77-4.08-5.72-5.86-8.74A2.88,2.88,0,0,0,261,47a2.19,2.19,0,0,1,.51-1.15,5.59,5.59,0,0,0,.57.22,2.21,2.21,0,0,0,1.62-.27l.37.19Zm57.31,43.4c.32,2.36,4.27,2.69,3.41,5.35-1.09,3.36-.31,6.82-1.13,10.14a6.35,6.35,0,0,1,0,.88c-1.15.39-2.5,0-3.66.31l-1-1.22h0c3-1.51,2.17-3.53,1.37-5.54a8.08,8.08,0,0,0-.46-1.26c-.21-1.4.38-3-.94-4.13a2.69,2.69,0,0,0,0-.94.54.54,0,0,0,.07-.66l.73-1.1a6.13,6.13,0,0,1,.73-1.94l.4.16A1,1,0,0,0,321.49,89.86ZM307.86,47.79c-.7,1.69-.39,2.89,1.18,3.5,0,.1-.05.2-.08.29.42,3.14.72,6.34,3.93,8.12a1.42,1.42,0,0,0,.13-.12c-.08,1.29.48,1.47,1.3,1.21,0,.15-.1.29-.13.45-.08,1.78.19,3.37,1.64,4.41a1.23,1.23,0,0,0-.1.2.61.61,0,0,0,0,.4c-1.45-.82-3-.47-4.56,0,.2-.58,1.22-1.2-.11-1.7-.43-2.82.5-6.47-4.13-6.7l-.9-.47c-.59-1.49,1.32-2.93.39-4.42.06-.08.13-.16.19-.25.43-1.5-.18-2.8-.79-4.11l-.34-.66c.13-.16.27-.32.41-.47h0l.73,0a1.23,1.23,0,0,0,.45.37A1.85,1.85,0,0,0,307.86,47.79Zm-16.26-4.4c-.62,3.89,3.09,2.68,5.07,3.52a2.12,2.12,0,0,0,.77,3l-.47.55-2.47,1.12a13.19,13.19,0,0,0-1.26-.59l-.18-.05c-.09-3.18-2.13-4.71-5.05-5.5a1.33,1.33,0,0,1,.18-.95l.39,0,.4,0a2.6,2.6,0,0,0,1.92-1.62c.05,0,.09.11.15.16A4.53,4.53,0,0,0,291.6,43.39ZM225.69,95.68h-.09l.22-.06ZM401.94,399.45l0,0,.05,0h0Zm.91-313.54h0l0,0ZM439,164.6l.07.15-.27-.06H439Zm72.28,83.29-.13.08.07-.12ZM401,121.5l-.05-.09.08-.06a.31.31,0,0,0,.05.1l-.08,0c0,.06,0,.12,0,.17-.15-.07-.22-.11-.16-.18Zm14.4-2.72h0l.4.19a1.23,1.23,0,0,0-.27,0,.34.34,0,0,0-.27.09,1.55,1.55,0,0,1,.14-.29ZM436,199.34a.64.64,0,0,0,.06.16C436.36,200.06,435.46,199.59,436,199.34Zm17.28,63.92a1.42,1.42,0,0,1-.58.39C452.87,263.53,453.06,263.4,453.25,263.26Zm4.8-7.34h0l0,0S458.05,255.93,458.05,255.92ZM422.15,89.45v0h0v0l0,.08Zm-20.1,303.44h0v-.2l.66.08A5.8,5.8,0,0,1,402.05,392.89Zm33.3-196.17v0h0ZM417,349.19a1.09,1.09,0,0,1-.54-.89c.26.2.52.4.79.57Zm-11.3,32.49,0-.08c.25-.09.49-.17.75-.24a.92.92,0,0,1,.34.12,7.56,7.56,0,0,1,.2,1.29A2.21,2.21,0,0,0,405.7,381.68ZM507.53,287.8l0-.05a.89.89,0,0,0,.47-.08c1.63,2.29.79,4.92.83,7.42-.22.52-.43,1-.61,1.58a5.91,5.91,0,0,0-.2,1.26l-.14.08q-.07-.33-.18-.66a8.89,8.89,0,0,1,0-5.74,5.7,5.7,0,0,0,0-3.37,1.8,1.8,0,0,0-.24-.35ZM385.29,401.32c-1.1,1.32-2.23,2.7-4.18,2,.7-1.77-.61-4.3,1.18-5.66a4.08,4.08,0,0,0,.85.46c2,.55,3.36-.36,4.32-2.05l.24-.58.3,0a5.08,5.08,0,0,0,1.24.16,2.2,2.2,0,0,1-.46.88C387.52,398.06,386.55,399.8,385.29,401.32Zm5.86,27a.6.6,0,0,1,.08.08l-.09,0Zm23.29-42.24-.12.31-1.47-.1-.54.25a2.61,2.61,0,0,0-.7.94,1.32,1.32,0,0,0,0,.27c-1.31-.57-2.35-2.39-4-1.35a18.58,18.58,0,0,1-.31-2.62,1.46,1.46,0,0,0,.45.48,2.14,2.14,0,0,0,.2.44,3.52,3.52,0,0,0,3.69.39c2.26-1.19,1.12-5.12,4.43-5.44,2.24-.51-.7-3.67,2-3.93a3.44,3.44,0,0,0,1.3-.68,14.38,14.38,0,0,0-.93,2.54,2,2,0,0,0,.59,1.82C416.55,381,415.75,383.74,414.44,386.11Zm28.16-37.5a1.46,1.46,0,0,1-.57.48,7.27,7.27,0,0,0,1-2.06A2,2,0,0,1,442.6,348.61Zm29.11-14.77.91-.82A3.22,3.22,0,0,1,471.71,333.84Z"/><path d="M404.17,447.24c-1.46-.12-1.23,1.21-.93,2.11.43,1.32-.31,3.36,1.41,3.79,1,.23,1.85-1.12,1.58-2.79C405.52,449.53,406.13,447.39,404.17,447.24Z"/><path d="M35.93,280.85c-1.42-.34-2.56-.12-2.88,1.56.52.91,1.49,1,2.36,1.25,1.15.37,2.4.73,2.7-.82S37,281.12,35.93,280.85Z"/><path d="M155.48,97.56c1.51-.24,1.49-1.53,1.4-2.71s-.48-1.9-1.8-1.91c-1.33.46-1.5,1.58-1.38,2.77C153.8,96.74,154.23,97.76,155.48,97.56Z"/><path d="M17.37,253.35c.82-.2,2.13-.21,1.79-1.6-.26-1.1-1.43-1.22-2.46-1.2s-1.68.52-1.63,1.45C15.14,253.3,16.2,253.43,17.37,253.35Z"/><path d="M220.91,504.59c-1.17,0-1.69.86-1.83,1.91a1.85,1.85,0,0,0,1.5,2.16,2,2,0,0,0,2.11-1.71C222.89,505.67,222.38,504.62,220.91,504.59Z"/><path d="M345,44.55c1.29-.09,1.88-1.21,2.12-2.43.19-1-.14-1.59-1.38-1.62-1.44-.27-1.84.79-2.08,2S343.73,44.64,345,44.55Z"/><path d="M250.65,17.07c2.3,1.74,4.12,1.78,7.42.71C255.08,16.28,253.27,16.22,250.65,17.07Z"/><path d="M35.28,232.66c1.11-.13,2.28-.4,2.49-1.82-.6-1.75-1.94-.7-2.92-.78s-2.16.19-2,1.5S34.34,232.76,35.28,232.66Z"/><path d="M319.25,479.08c1.93-3.54,1.93-3.54.51-6.17C318.46,474.65,318.18,476.44,319.25,479.08Z"/><path d="M449,96.48h0c1.95.28,3.86.31,5.54-1.22-1.86-.73-3.69-1.36-5.57.07-2.08.57-4.61-.21-6.37,2C445.13,99.06,446.88,96.4,449,96.48Z"/><path d="M517.1,214.48c.19.08,1-.62.92-.71-.83-1.87-1.54-3.91-4-4.22C514.3,211.66,514.91,213.58,517.1,214.48Z"/><path d="M513.94,209.54H514a.17.17,0,0,1,0-.07h-.07v.07Z"/><path d="M434,72.52c.86,1.19,1.73.63,2.45-.1a1.33,1.33,0,0,0,.16-1.28c-.58-.64-1.14-.22-1.58.33h0a21.11,21.11,0,0,0-7.39,2.11C430.66,75.28,432.08,72.78,434,72.52Z"/><path d="M335.51,42.5c1.85.46,1.38-1.63,1.32-2.87-.3-1.25,1.09-3.24-.7-3.66-1.52-.36-1,1.53-1.14,2.52C333.69,40.05,333.63,42,335.51,42.5Z"/><path d="M138.9,397.71c-2.4.91-.31,2.71-.48,4.16.55-1.34,3.59-1.21,2.19-3.5A1.92,1.92,0,0,0,138.9,397.71Z"/><path d="M343.32,0c-1.48,1-2.91,2.09-1.39,4.62C343.48,3.25,343.35,1.65,343.32,0Z"/><path d="M74,371.93c.85-2.11-2-1.35-3.07-2.14-.44-.33-1.26-.14-1.91-.19-1-.09-1.8-2.1-2.86-.55-.7,1,.43,1.86,1.3,2.26a8.37,8.37,0,0,0,2.44.34C71.21,372.47,73.15,374,74,371.93Z"/><path d="M167.31,116.86c0,.72,0,1.44,0,2.16a1.6,1.6,0,0,0,1.4-1.6,4,4,0,0,0-.38-1.58,1.56,1.56,0,0,0-.21-.59c-.28-1.16-.13-2.56-2-3.24C166.33,113.84,164.76,115.74,167.31,116.86Z"/><path d="M140.52,394.51c-.13.13.17,1.05.43,1.13,1.58.51,3.07.44,4.81-1.56C143.41,393.54,141.84,393.18,140.52,394.51Z"/><path d="M256,482.66c-1.05,0-1.15.95-1.15,1.75a1.36,1.36,0,0,0,1.37,1.58c.83-.21,1.52-.67,1.54-1.57A1.57,1.57,0,0,0,256,482.66Z"/><path d="M80.9,217.33a2,2,0,0,0,2.08-.85l2.19-.82h0c.91-.14,1.76-.72,1.2-1.54-.68-1-1.7-.56-2.42.32-.87.41-2.34-.66-2.65,1.1h0c-1,.44-2.68-.72-2.88.64C78.18,217.88,79.93,217.22,80.9,217.33Z"/><path d="M76,234.29c.91.19,1-.62,1.21-1.17a2.12,2.12,0,0,0-1.69-2.1A1.22,1.22,0,0,0,74,232.46,2.14,2.14,0,0,0,76,234.29Z"/><path d="M17.71,276.18c-.77-2.31-2.67-2.15-4.23-2.5-.08,0-.6,1-.48,1.13A4.12,4.12,0,0,0,17.71,276.18Z"/><path d="M132.52,390.31c-2-1.32-3.49-1.58-5-.5a1,1,0,0,0,.11.88C129.07,392,130.52,391.73,132.52,390.31Z"/><path d="M206.73,46.24a1.26,1.26,0,0,0,2-.57c.19-1-.43-1.48-1.22-1.75s-1.7,0-1.8.94C205.65,45.29,206.26,45.93,206.73,46.24Z"/><path d="M409.68,49.35a2.29,2.29,0,0,0,1.94-1.63c0-1.14-.54-1.75-1.44-1.67-1.16.09-1.51,1.11-1.56,2.09C408.6,48.71,408.76,49.54,409.68,49.35Z"/><path d="M224.37,54.35c.94.17,1.47-.36,1.69-1.24a1.62,1.62,0,0,0-1.52-1.55,1.17,1.17,0,0,0-1.35,1A1.38,1.38,0,0,0,224.37,54.35Z"/><path d="M158.07,395.34c-3.06-1.12-1.64,2-2.47,3-.83-.09-1.79-.21-2,.88a1.19,1.19,0,0,0,1.14,1.36c1.47,0,3,0,3.29-2C158.57,397.43,160.23,396.13,158.07,395.34Z"/><path d="M174.3,97.57a1.42,1.42,0,0,0,1.36-1.67c-.27-.84-.76-1.49-1.72-1.45s-1.3.86-1.21,1.73S173.22,97.76,174.3,97.57Z"/><path d="M470.33,168.6c.23,1.25-3.74,2.78.59,3.76C470.89,171.1,472.35,169.78,470.33,168.6Z"/><path d="M470.92,172.36a.76.76,0,0,0,0,.15h0l.08,0a.59.59,0,0,0,0-.08Z"/><path d="M447.14,397.79a2.29,2.29,0,0,0-2.23,1.6,1,1,0,0,0,1,1.31,2.37,2.37,0,0,0,2.26-1.56C448.05,398.5,448,397.77,447.14,397.79Z"/><path d="M43.84,226.22c1.25.46,2.19-.26,3.47-1.35-1.52-.31-2.68-.69-3.67.18A1.31,1.31,0,0,0,43.84,226.22Z"/><path d="M148,396.34c-.86,0-1.67.29-1.42,1.34s1.16.92,1.94,1c.8-.1,1.71-.19,1.41-1.32C149.74,396.46,148.85,396.33,148,396.34Z"/><path d="M254.48,28.16c-1.21-1.3-2.24-2.11-3.68-1.4-.3.14-.59,1.1-.45,1.23C251.48,29.07,252.78,28.61,254.48,28.16Z"/><path d="M94.84,224.19c0,.8.72,1.29,1.32.92a3.41,3.41,0,0,0,1.31-1.92c.09-.39-.59-1-.94-1.5C95.36,222.36,94.78,223.11,94.84,224.19Z"/><path d="M349.58,40.18c.66.13,1.11-.47,1.26-2.18a3.12,3.12,0,0,0-1.16-.44c-1-.13-1.57.5-1.37,1.4A1.93,1.93,0,0,0,349.58,40.18Z"/><path d="M4.74,254.9c.82.07,1.73-.23,1.45-1.4a1.78,1.78,0,0,0-1.66-1.44,1.29,1.29,0,0,0-1.36,1.27C3.11,254.39,3.92,254.84,4.74,254.9Z"/><path d="M93,218.51c2.66.87,5.37,1.84,5.77-2.66-2.08-.59-3.76,1.48-5.7.56-1.48-.76-3.16-.68-3.15,1.11S91.9,218.28,93,218.51Z"/><path d="M258.15,10.44h.44l.4.2c1-.32,2.44.8,2.88-.88.08-.3-.73-1.11-1.25-1.25C259.07,8.09,258,8.51,258.15,10.44Z"/><path d="M245.42,15.73a1.25,1.25,0,0,0,1.7-1,1.73,1.73,0,0,0-1.23-1.91,1.15,1.15,0,0,0-1.64,1.09A1.51,1.51,0,0,0,245.42,15.73Z"/><path d="M167.09,128a1.05,1.05,0,0,0-.89,1.42,2.07,2.07,0,0,0,1.23,1.23,1.07,1.07,0,0,0,1.19-1.18C168.36,128.73,168.13,127.86,167.09,128Z"/><path d="M275.83,471.37a8.2,8.2,0,0,0,.83,1.78c.62.65,1.66,1.74,2.11.24C279.11,472.24,277.65,471.76,275.83,471.37Z"/><path d="M220.92,493.3a1.5,1.5,0,0,0,1.28-1.73,1.1,1.1,0,0,0-1.27-1.14,1.41,1.41,0,0,0-1.32,1.68C219.67,492.87,220.24,493.17,220.92,493.3Z"/><path d="M232.32,43.4c.77-.16,1-.83.92-1.46,0-.9-.49-1.49-1.69-1.36a1.27,1.27,0,0,0-1,1.65A1.42,1.42,0,0,0,232.32,43.4Z"/><path d="M193.8,409c-.06-.18-.94-.33-1.14-.16-1.07,1-1.35,2.08-.2,3.25C194.06,411.53,194.27,410.37,193.8,409Z"/><path d="M97.21,417.64c-.69-.18-1.35.24-1.14,1a8.1,8.1,0,0,0,1.14,1.93c.79-.17,1.42-.27,1.32-1.16A1.83,1.83,0,0,0,97.21,417.64Z"/><path d="M453.23,172.31c-1-1.15-2.31-1.5-3.35-.48-.62.6.22,1.42,1,1.75,1.24.92,2.71,1.51,3.71,0,.63-.94-.67-1.12-1.4-1.31Z"/><path d="M115.05,435.89c-.83-.32-1.21.42-1.09,1a2.17,2.17,0,0,0,1.11,1.31c.88.4,1-.43,1.21-1.24C115.92,436.64,115.56,436.09,115.05,435.89Z"/><path d="M100.2,398.24a.91.91,0,0,0,.74-1.39c-.16-.36-.61-.59-.86-.81-.9.31-1.25.83-.93,1.51A1.37,1.37,0,0,0,100.2,398.24Z"/><path d="M162.91,157.3c.3-.08,1.18,0,1-.93s-1.14-.92-1.91-.88-1.23.52-1,1.25S162,157.46,162.91,157.3Z"/><path d="M47.39,359.32c-.68-.09-1.37.06-1.4.89,0,1,.67,1.38,1.66,1.38.51-.21,1.32-.19,1.14-1.16C48.65,359.66,48,359.41,47.39,359.32Z"/><path d="M189.2,424.1c.18-.25.56-.57.61-.93.09-.63-.14-1.3-.93-1.24a1.26,1.26,0,0,0-.79.87C188,423.42,188.19,424,189.2,424.1Z"/><path d="M263.54,13.51c.8,1.46,2.13,1.06,3.38,1C266.29,12.4,265.43,11.14,263.54,13.51Z"/><path d="M110.05,406.72c-.86-.27-1.17.43-1.13,1a1.91,1.91,0,0,0,.8,1.42c.65.26,1.11-.31,1.26-1A1.28,1.28,0,0,0,110.05,406.72Z"/><path d="M59.39,276.57a1.06,1.06,0,0,0,1.37-1c0-1.06-.85-1.21-1.72-1.31-.7.06-1.3.42-1,1.18A2.15,2.15,0,0,0,59.39,276.57Z"/><path d="M124,393.2c-.23,1.35-1,2.56.54,3.44a1.34,1.34,0,0,0,1.24-.4C126.43,394.7,125.24,394.07,124,393.2Z"/><path d="M310.45,476.24a1.41,1.41,0,0,0-1.24.3,1.19,1.19,0,1,0,2.1,1.12C311.62,476.83,311.08,476.41,310.45,476.24Z"/><path d="M221,531.6a1.11,1.11,0,0,0-1,1.34,1.17,1.17,0,0,0,1.2,1.2c.82,0,1-.73.89-1.33S221.86,531.53,221,531.6Z"/><path d="M221.89,83.65a1,1,0,0,0,1-1.25,4.18,4.18,0,0,0-.88-1.32c-1.23,0-1.11.81-1.14,1.32S221,83.71,221.89,83.65Z"/><path d="M76.79,219.87c.33-.1.53-.64.86-1.07-.47-.37-.84-.9-1.17-.88a1.34,1.34,0,0,0-.88,1C75.57,219.54,76,220.12,76.79,219.87Z"/><path d="M378.39,75.62a1.06,1.06,0,0,0,1.16-1.2c0-.36-.45-.69-.6-.91-1,0-1.41.56-1.38,1.23A1.22,1.22,0,0,0,378.39,75.62Z"/><path d="M459,155.34a2,2,0,0,0,2.62,0c.66-.66.29-1.44-.49-1.93-.81-1-1.81-1.33-2.72-.31C457.71,153.93,458.06,154.8,459,155.34Z"/><path d="M142.37,423.87c-.45-.28-1,.14-.68.74a8,8,0,0,0,1.09,1.4l.56-.69C143.05,424.85,142.83,424.16,142.37,423.87Z"/><path d="M408,54.19c.87.06,1-.58.64-1.21-.19-.36-.65-.58-1.13-1-.17.55-.46,1-.37,1.33S407.69,54.17,408,54.19Z"/><path d="M507.58,201.4c-1,.6.19,1.64,1.07,2.14h0l2.33,3c.46,1.51,1.2,2.75,3,2.95a3.64,3.64,0,0,1,2.13-3.89h0c1.95-1.05,5.44-2.11,4.51-4.18s-4.28-.76-6.51.12a4.72,4.72,0,0,0-1.1.92c-1,.1-1.31,2.3-2.81.95C509.54,202.35,509.2,200.42,507.58,201.4Z"/><path d="M259.46,31.27c.24.13.78-.32,1.12-.48a1.23,1.23,0,0,0-1.25-1.39c-.38,0-.8.36-1.2.56A6.1,6.1,0,0,0,259.46,31.27Z"/><path d="M233,22.75c.86.18,1.06-.33.94-.8a1.61,1.61,0,0,0-.81-1,.63.63,0,0,0-.84.8C232.35,22.13,232.76,22.47,233,22.75Z"/><path d="M132.09,400.37a2,2,0,0,0-2.88-.56c-.69.43-.27,1.09,0,1.65a2,2,0,0,0,2.93.81C133.05,401.77,133,401,132.09,400.37Z"/><path d="M188.86,477.41h0c.35-.74,1.77-1.45.65-2.27s-1.42.38-1.59,1.28c-.67.94-1.68,2.23-.41,2.92C188.45,479.85,188.91,478.45,188.86,477.41Z"/><path d="M169,402.5c-1.28-.13-2.86.2-1.95,1.66,1.27,2,2.79.42,4-.61.64-.15.81-.68.52-1.09C170.78,401.31,169.87,402.29,169,402.5Z"/><path d="M181.5,467.83c.41-1.64.71-2.87,1-4.11C180.64,464.72,180.46,466,181.5,467.83Z"/></g></g></svg>