<svg xmlns="http://www.w3.org/2000/svg" viewBox="0 0 328.01 273.11"><g id="Capa_2" data-name="Capa 2"><g id="Capa_8" data-name="Capa 8"><path d="M289.72,105.63c-.5-3.38.55-6,2.86-8.7-4.2.76-7.48,1.85-7.35,2.77.39,3-2.14,2.36-3.44,3.31-1.82,1.34-4.43.77-5.93,2.15-3.29,3-6.91,4.78-11.39,4.77-.92,0-1.74,0-1.82,1.47-.36,6.4-6.5,9.57-11.74,6.1-1.18-.79-2.69-2-1.54-3.47,1.75-2.27,2.32-5.81,6.09-6.18a1.66,1.66,0,0,0,1.59-1.53,1.85,1.85,0,0,0-1.41-1.74c-1.31-.5-3-.58-2.85-2.58.15-1.66,1.39-2.37,2.87-2.83a9.15,9.15,0,0,0,1.93-1.4,12.75,12.75,0,0,1-2.45-1.93c-2.45-3.16-2.24-4.93.69-7.93a5.51,5.51,0,0,0,1.69-4.32,35.26,35.26,0,0,0-4.18-3.65c-3.26-.7-4.51-3.49-2.76-6.22.42-.66,1.16-1.14,1.52-1.83.54-1.07.08-1.82-1.1-2.08-6.07-1.36-7.17-2.43-8.15-8.14-.2-1.16-.76-1.67-1.91-1.62a3.45,3.45,0,0,1-2.3-.22c-.47-1.32,1.13-1.84,1.15-3-3.37-2.62-3.37-2.62-7-1.9s-5.13-.08-6.41-3.74c-.31-.88-.39-1.9-1.38-2.39a1.88,1.88,0,0,0-1.7.68c-1,1-2,1.65-3.34.69s-1.09-2.24-.77-3.49c.71-2.79,1.54-5.54,2.25-8.33.25-1,.84-2.1-.43-3.21-1.84.6-2.48,2.21-3.05,3.86-.63,1.81-1.17,3.65-1.82,5.45-.48,1.33-.78,3-2.59,3-1.45,0-2.07-1.12-2.73-2.31-.92-1.65-2.08-1.55-3.06,0-.69,1.1-.15,3.37-2.16,3.14-1.73-.21-.5-2.68-1.81-3.53a5.83,5.83,0,0,0-1-.4c-1.36,1.4-2,3.55-3.85,4.63-2.47,1.4-3.35-2.21-5.57-1.65-.22.4-.47.8-.66,1.23-1.17,2.65-1.17,2.67-3.95,1.24-1.56-.8-2.13-.24-2.65,1.38-1.43,4.41-1.84,4.55-6.48,3a2.17,2.17,0,0,0-2.54.47c-3.12,2.86-3.33,2.83-5.78-.66A25.53,25.53,0,0,1,169,50.4c-1.09-2.3-2-4.67-3.1-7-.32-.71-.8-1.42-1.79-1.25a1.9,1.9,0,0,0-1.38,1.22c-1.59,3.92,0,8.88,4.09,10.45,2.34.91,2.54,2,2.06,3.85-.85,3.19-2.3,6.21-2.29,9.62A2.65,2.65,0,0,1,165,69.6c-2.38.94-3.3,3.29-4.51,5.05-3.42,5-7.39,9.1-12.91,11.65-.72.33-1.33.87-2.21.7-2.69-.51-5.26-4.44-4.61-7.09a9.54,9.54,0,0,0,.49-1.85c.08-1.57-.79-2-2.12-1.4a15.9,15.9,0,0,0-1.84,1.5c-1.56,1.08-3,.46-3.47-1.38a4.28,4.28,0,0,1,.34-2.32c.36-1.19.9-2.43-.35-3.58-.42.14-1,.15-1.27.45-3.45,3.91-6.92,1.68-10.41.12-3.66-1.65-1.92-4.5-1.62-7,0-.16.06-.32.08-.47.11-.85,0-1.68-.91-1.94a1.88,1.88,0,0,0-2,1,9.47,9.47,0,0,0-.67,1.26c-2.55,4.68-4.7,5.67-9.56,4.65-2-.43-3.07-1.45-3-3.59,0-1.91.46-4.06-.24-5.69-1.81-4.16-1.33-8.45-1.54-12.72-.11-2,.21-4.16-1.38-5.91a4.33,4.33,0,0,0-.08,1c1.39,8.12.4,16.19-.35,24.28A3.19,3.19,0,0,1,98.6,69c-1.59.72-1.84-.77-2.51-1.53-1.07-1.2-2.16-2.7-3.86-2.53-2.06.19-3-1.14-4.28-2.6-.57,2.8-2.14,4.71-2.32,7.49s-2.89,5.28-5.47,6.89a3,3,0,0,1-4.47-1.32c-.51-1-1.51-2.52-2.42-1.83-2.51,1.93-3.53.08-5-1.33-2.19-2.15-3.45-2.17-5.77-.27-.74.61-1.34,1.37-2,2s-1.62,1.77-2.87,1.13-2.48-1.53-2.15-3.32A5.65,5.65,0,0,0,55.73,70a3,3,0,0,0-3.36-2.67c-2,.11-3.24,1.86-2.54,4.17.32,1-.48,4.4,2.84,2.23,1-.64,2.6-.22,2.5,1.2-.21,2.94,1.12,5.64.58,8.75s-1.35,6.53,0,9.9c.82,2,2.35,3.53,3.19,5.66-2.29-1.47-4.81-.5-7.1-1.15-.8-.23-1.65-.37-1.82.77s.63,1.37,1.42,1.6a46,46,0,0,1,6.41,1.92,4.12,4.12,0,0,1,.76,7.16c-3.25,2.06-3.28,2.47-.35,5,2.64,2.25,2.74,3.83.39,6.31-.32.34-.8.53-1.14.86-1.88,1.83-1.75,2.5.63,3.74,3.47,1.79,3.78,2.14,2.88,5.9-.58,2.44-.55,4.3,1.86,5.69a6.08,6.08,0,0,1,1.87,2.14c.54.88-.26,2-.82,1.64-2.82-1.75-5.9,1.58-8.6-.88,1,2.49,3.23,3.54,5,5.53a5.78,5.78,0,0,0-5.5,5.34c-.22,1.34-.8,2.44-2.5,2-.12-.34-.37-.68-.28-.89A5.79,5.79,0,0,0,50.36,145c-2.13-1.9-4.78-1.77-7.21-.57a6.42,6.42,0,0,0-3.8,6.09c0,1.26.48,3.13-.77,3.51-2.42.73-4.23,4.38-7.54,1.66a3.1,3.1,0,0,0-4,.4.85.85,0,0,0-.12,1.26,3.07,3.07,0,0,0,3.5.85c2.52-.93,3.73.84,3.42,2.48-.85,4.48,1,7.58,3.57,10.95,1.12,1.49,1.67,2.46,3.68,2.84a16.48,16.48,0,0,0,7,.17c-2.18,3.48-2.3,3.6.79,6.59,1.7,1.65,1.19,3.84,2,5.69.59,1.3-1.56,1.75-2.21,2.79-.2.33-.09.87-.13,1.4C52,192.34,56,190.31,59,193.59c3.16,3.48.24,6.79-.17,10.39a6.72,6.72,0,0,0,1.71-.45c.92-.62,2.15-2,2.85-1.38,2,1.73,4.71,1.51,6.79,2.78,1,.59.67,1.67.32,2.62a7.34,7.34,0,0,0,.09,5c1.34-.53,1.24-1.84,1.73-2.78,1.78-3.38,2.52-3.88,6-2.31,5,2.21,9.48,5,8.75,11.75.62-2.81.21-5.57,1.16-8.27a4,4,0,0,1,3.3-2.92,3.1,3.1,0,0,1,3.86,2c.6,1.28.91,3.12,2.92,3a1.86,1.86,0,0,0,.31-2c-1.75-3.57.09-5.56,2.85-7.53,2.07-1.49,4.59-2.15,6.45-4,.83-.83,1.78-.33,2.31.68.64,1.25.73,2.93,2.7,3.57-3.11-9.1,3.89-11.31,12.66-9.54.6-4.4,1.06-4.89,5.28-4.71,1.75.07,3.48.5,5.24.18a2.37,2.37,0,0,1,3,1.72c.3.87.37,1.88,1.42,2.31.94-.82,0-1.82.25-2.7-.31-.31-.6-.72-.24-1.06s.69.07.92.4c3.67,0,4,.5,3.09,3.58-.47,1.64-1.67,2.29-2.86,3-1.64.93-1.51,2-.5,4.08.41-3.15,2.57-2.64,4-2.52,1.63.13,1.14,2,1.17,3.15s-.13,2.29-.22,3.79c1.86-2.16,1.06-5,3.16-6.78,3.58,3.49-.86,7.59,1.17,11.82.54-3.53,1-6.32,1.38-9.06.45-.08.78-.24,1-.16.45.13.83.57,1.26.61,3.61.34,3.86.56,1.81,2.91-1.72,2-1.09,3.4.1,5.07,2.6-.64,4-1.8,2.63-4.71a5.87,5.87,0,0,1,.12-4.59,11.87,11.87,0,0,0,2.42,2.11c1.36.58,1.86-1.68,3.42-1.25a13,13,0,0,0,1,2.05c1.91,2.65,4.26,2.6,6.05-.16.9-1.39,1.17-3.81,3.61-2.68,1.58.72,3.28-1.16,4.83.82,1.35,1.7,2.52.44,2.94-1.23a17,17,0,0,0,.2-2.38c.34-2.94,1.68-4.28,4.61-4.07,1.15.08,2.45.49,3.16-.35,2.41-2.84,4.12,0,4.45,1.14.74,2.68,2.34,2.87,4.51,3.07s4.46.81,4.72,3.3c.35,3.44,2.83,3.22,5.09,3.41-.4,5.81.07,6.47,5.23,7.64a8.81,8.81,0,0,1,5.46,3.62c.58.82,0,2.4,1.67,2.56,1.22-1.1-.13-2-.25-3s.5-1.66,1.39-1.29c2.18.88,4.38.71,6.58.89s2.88-1.18,4.45-1.62c1.11,3.14,2.68,5,6.13,3.54.54-.24,1.46.48,2.22.66s8-4.24,8.1-5a4,4,0,0,0-.06-1.41c-.17-.78-.43-1.54-.63-2.31a1.72,1.72,0,0,1,1.58-2.39c1.37-.09,1.26,1.12,1.2,2.08-.17,3-.36,6.08-.54,9.12,1.37-1.63.37-3.65,2.08-5.22,1.48-1.35-1.82-3.46.44-5.3,1.41,2.47,3.8,2.12,6.12,2,.87-3.08,2.76-1.75,4.51-1,.6.24,1.43.59,1.63-.19.68-2.7,3.34-2.5,4.81-3.72s3.94-2.28,3.74-5a2.59,2.59,0,0,1,1.58-2.73c.66-.27,1.24-.88.84-1.43-2-2.67,0-5,1.12-6.8,1-1.56.78-2.16-.3-3.08-1.82-1.55-3.63-3.12-5.52-4.58a3.24,3.24,0,0,1-1.28-3.76h0a4,4,0,0,0,.62-.69c.26-.52,1-1.19.36-1.61s-1,.38-1.28.9a3.88,3.88,0,0,0-.2.91c-1.35,1.14-2.65,2.63-3.93-.14-.62-1.36-1.55-1.47-3.11-.89-1.93.72-6.83-2.11-7.42-3.9-.25-.75.24-2.14.66-2,1.75.49,2.88-1.64,3.75-1.32,4.1,1.49,2.41-1.88,2.36-3a24.23,24.23,0,0,0-1.4-6c-1.51-4.72-5.82-6.54-10.27-4.33-1.12.56-2.07,1-2.84-.35s-1.08-2.36.23-3.42a15.73,15.73,0,0,0,2.57-2.13c.9-1.15,1.21-2.54-1-2.44-1.85.09-1.3-.75-.88-1.65.54-1.16,2.2-1.4,2.39-2.86.16-1.19-.72-2.63.73-3.49s2.7.57,4.16.31,2.37.71,3.48,1.35c3.5,2,6.34.88,7.34-2.83.56-2.06-.36-3.53-2.28-2.93-3.41,1.07-6.23-.62-9.28-1.25-1.61-.33-3.58-1.17-3.08-3,.62-2.19-1.21-5,1.72-6.66,3.58-2.07,7-4.49,10.51-6.63a11.67,11.67,0,0,1,4-1.56c2.74-.43,5.13-1.65,7.65-2.67s4.56-2.69,7.65-2.12A4,4,0,0,0,289.72,105.63Zm-80.33,96.64c-.67.14-.77-.36-.54-.76s.56-1.13,1.3-1c.18,0,.3.39.45.6A1.47,1.47,0,0,1,209.39,202.27Z"/><path d="M308,138.27c-4.36-1.64-7.71-1.67-11.18,1.34a24.65,24.65,0,0,1-2.9,1.63c-1,.62-1.55.59-2.28-.47a1.27,1.27,0,0,0-2.31.21c-.59,1.32.54,1.51,1.53,1.65a13.41,13.41,0,0,1,1.54.44c-.72,1.77-1.33,3.05-1.77,4.39A13.28,13.28,0,0,0,291.78,158c2.66,5,11.24,5.59,15.88,3.1s7.62-5.77,7.77-11.75C315.58,142.89,314.06,140.57,308,138.27Z"/><path d="M16.16,138.3c-1.42-3.11-3.21-4.32-6.1-4.15s-4.56,1.61-5.41,4.52c-.77,2.65,0,5.79,2.43,7.08a6.91,6.91,0,0,1,3.3,3.73c.85,2.07,2.37,3.33,5.47,3a4.89,4.89,0,0,0,4.43-2.78,5.26,5.26,0,0,0-.72-5.77A33.66,33.66,0,0,1,16.16,138.3Z"/><path d="M31.13,132.66a6.65,6.65,0,0,0,7.14-6.47,7.06,7.06,0,0,0-6.21-7.7c-4-.34-6.89,2.35-7.14,6.6S27.06,132.28,31.13,132.66Z"/><path d="M169.17,214.16c-.15,0-.35,0-.43.11-2.67,2.94-1.4-1.47-2.87-1.33-.89,1.74-1.51,3.81-3.09,5.45-2.64,2.75-2.36,4.9.35,7.3s6.55,2.53,8.65.27a6.16,6.16,0,0,0,1.49-5.34C172.83,217.92,169.64,216.89,169.17,214.16Z"/><path d="M4.76,156.1C2.12,156,.09,158.1,0,161a5.22,5.22,0,0,0,5.09,5.28,5,5,0,0,0,4.74-5.06C9.92,158.16,8,156.21,4.76,156.1Z"/><path d="M127.49,224a2.64,2.64,0,0,0,0,.89c.93,2.66,3.41,4.14,4.92,6.39,1.37,2,3.2,3.61-.05,5.63a2,2,0,0,0,0,3.28c1.27.8,2.26-.11,3-1.44,1.3-2.44,1.46-2.38,3.1-.1,1.05,1.45,1.43,3.53,4.55,4.38-4.37-7.72-10.38-13-14.67-19.65Z"/><path d="M203.54,209.54c-.44-.89,1.5-1.91-.22-2.76-1.11-.54-2-1.55-3.32-1.67a3.61,3.61,0,0,0-4.16,3.45c-.3,2.95,1.18,5.18,3.59,5,1.6-.11,3.07-1.32,4.8-.63C204,211.82,202.82,210.87,203.54,209.54Z"/><path d="M136.06,50.35c1.62.22,2.33-.61,2.27-2.2-.09-3-4.84-7-7.68-6.41-1.3.26-1.76,1.07-1.32,2.47C129.85,45.83,134.34,50.12,136.06,50.35Z"/><path d="M274.91,139.5c1.56.08,3.48-2.12,3.41-3.91a3.66,3.66,0,0,0-3.51-3.18,3.31,3.31,0,0,0-3.65,3.41A4.83,4.83,0,0,0,274.91,139.5Z"/><path d="M278.82,123.53a4.3,4.3,0,0,0,3.63.39c.89-.35,1.79-.76,2-1.78s-.5-1.75-1.3-2.28c-1.68-1.12-3.38-2.19-5.74-3.71.36,2.19,1.32,3.23,1.05,4.56C278.28,121.68,277.27,122.78,278.82,123.53Z"/><path d="M324.32,148.08a4.61,4.61,0,0,0-3.25.54c-1.61.76-1.71,2.36-.27,3.4a5.27,5.27,0,0,0,3.42.88c1.4-.38,3.79-.19,3.79-2.47C328,148.58,325.79,148.5,324.32,148.08Z"/><path d="M130.64,209.06a1.65,1.65,0,0,0,1.67-1.64c-.21-3.68-1.62-5.82-3.41-5.7-2,.12-2.06,1.63-1.94,3.1C127.13,207,129,209.23,130.64,209.06Z"/><path d="M6.15,125.46c.11.82,1,1.15,1.88,1.23,1.35-.38,2.53-1.26,2-2.68a43.44,43.44,0,0,1-1.6-4.4,1.62,1.62,0,0,0-2.25-1.16c-1,.32-1.84,1.18-1.5,2.11A23,23,0,0,1,6.15,125.46Z"/><path d="M114.43,206.07c.59,2.89,1.75,4.2,2.55,5.7,1.09,2-2.94,1.87-1.82,4,1.8.69,3.28.28,3.81-1.55C120,210.65,117.32,208.87,114.43,206.07Z"/><path d="M153.85,18.77A8.64,8.64,0,0,0,152.24,11a1.4,1.4,0,0,0-1.63-.63c-.72.27-.72.95-.67,1.55C150.16,14.54,151.36,16.59,153.85,18.77Z"/><path d="M24.07,118.33a2.53,2.53,0,0,0,2.81-2.58c.12-1.74-.87-2.6-2.52-2.84-1.66,0-2.88.79-2.84,2.5A2.68,2.68,0,0,0,24.07,118.33Z"/><path d="M186.55,267.64a2,2,0,0,0-1.54,2.55,3.29,3.29,0,0,0,3.13,2.92,1.67,1.67,0,0,0,1.64-2C189.66,269.28,187.82,267.31,186.55,267.64Z"/><path d="M163.09,29.29a4.63,4.63,0,0,0,.92-1.08c-.31-.79-.39-1.75-.91-2.22-1.52-1.38-3-2.72-3.28-4.9,0-.18-.5-.31-.77-.46-.2.38-.6.78-.56,1.12.35,2.74,2.29,4.75,3.36,7.17A.9.9,0,0,0,163.09,29.29Z"/><path d="M229.22,229.42c-1.89.29-2.5,1.77-2.58,3.51,0,1.06.31,1.94,1.45,2.13,1.41.23,2.92-1.82,2.86-4C230.84,230.2,230.36,229.25,229.22,229.42Z"/><path d="M140.7,29.92c.76-.11,1-.71,1-1.36-.09-1.57-2.3-3.91-3.71-3.79-.9.07-1.31.74-1.19,1.67C137.06,28.24,139.15,30.13,140.7,29.92Z"/><path d="M67.25,28.43c.72.32,1.56.74,2.22,0s.1-1.51-.38-2.1A3.77,3.77,0,0,0,65,24.87,3.65,3.65,0,0,0,67.25,28.43Z"/><path d="M146.66,81.65c1.35-.06,1.61-1.25,1.7-2.46-.21-.69-.33-1.61-1.39-1.41s-1.38,1.16-1.4,2.13C145.55,80.69,145.75,81.7,146.66,81.65Z"/><path d="M113.94,226.75c-1.57.48-3.37.66-4,2.87,1.89.42,3.51.58,4.77-1a1.76,1.76,0,0,0,.29-1.28A.77.77,0,0,0,113.94,226.75Z"/><path d="M155,258.82c1.88-2.32,1.51-4.48,1.12-7.48C155.77,254.21,153.63,255.92,155,258.82Z"/><path d="M277.05,96.91c.5-2.17-.54-4-.88-6.32C275.09,95,275.09,95,277.05,96.91Z"/><path d="M54.73,126.8a1.71,1.71,0,0,0-1.47-2,1.89,1.89,0,0,0-2.2,1.91c-.05,1.08.67,1.69,1.84,1.78A1.69,1.69,0,0,0,54.73,126.8Z"/><path d="M121.73,48.32a1.47,1.47,0,0,0,1.74-1.19A2.36,2.36,0,0,0,121.33,45a1.47,1.47,0,0,0-1.68,1.32C119.5,47.68,120.56,48.17,121.73,48.32Z"/><path d="M152.1,48.63c-.71-2.14.18-4.68-1.86-7.19C150,44.53,151.2,46.54,152.1,48.63Z"/><path d="M281,67.48c-3.2,2-3.2,2-4.59,4.75A13,13,0,0,0,281,67.48Z"/><path d="M27.77,141.1A11.34,11.34,0,0,0,21,139.67C23.45,141.85,25.74,141,27.77,141.1Z"/><path d="M144.64,0c-2.29,1.15-3.4,2.45-3.58,4.56A6.6,6.6,0,0,0,144.64,0Z"/><path d="M307.41,174.56c-1.41-.44-2.57-.07-2.89,1.55-.15.73.39,1.19,1.06,1.34a2.78,2.78,0,0,0,3.27-1.18A1.78,1.78,0,0,0,307.41,174.56Z"/><path d="M271.43,143.15c-.08-1.27-1-1.38-2-1.4s-2.06.28-2.12,1.34c-.08,1.45,1.19,1.65,2.3,1.64S271.51,144.42,271.43,143.15Z"/><path d="M283.05,242c-.11-.08-.29-.06-.91-.16.91,3.25,1.55,4.21,2.67,4,.24,0,.61-.37.62-.58C285.52,243.61,284.18,242.89,283.05,242Z"/><path d="M14.51,190.51c1.27-1.64,4.37-.46,5.34-3.77C17.49,187.9,14.59,187.08,14.51,190.51Z"/><path d="M14.5,190.63s0-.08,0-.12l-.06.07Z"/><path d="M219.42,238.05c1,2.23,2.07,3.43,3.65,4.11A5.9,5.9,0,0,0,219.42,238.05Z"/><path d="M308.1,169.39c-.59,0-1.44.17-1.23.93.34,1.2,1.6,1.34,2.44,1.65.74.11,1.18-.18,1.09-.7A2.16,2.16,0,0,0,308.1,169.39Z"/><path d="M246.76,45c1.41.25,1.86-.85,2.38-1.81a1.75,1.75,0,0,0-.21-2.2,9.67,9.67,0,0,0-1.69,1c-.67.63-1.46,1.29-1.12,2.39A1.05,1.05,0,0,0,246.76,45Z"/><path d="M162.59,241.91a1.61,1.61,0,0,0-1.54,1.5c0,.67.33,1.28,1.08,1.17.91-.13,1.15-.94,1.26-1.75C163.37,242.31,163.17,241.82,162.59,241.91Z"/><path d="M67.68,220.8a.44.44,0,0,0,.38-.05c1.32-1,1.53-2.45,1.75-5-1.12,2.14-2.22,3.12-2.42,4.6C67.49,220.55,67.55,220.72,67.68,220.8Z"/><path d="M257.38,221.25c-.66-.4-1.34-1-2.14-.25-.25,1,.38,1.46,1,1.92s1.24.73,1.72.21C258.71,222.33,258.09,221.69,257.38,221.25Z"/><path d="M125.78,217.55l-3.58-3.34C123.52,217.07,123.52,217.07,125.78,217.55Z"/><path d="M218.42,224c.31,1.65,1.29,2.23,3.1,2.68C220.71,225,220,224.16,218.42,224Z"/><path d="M30,163.19c-.76,0-1,.52-1.1,1.15s.08,1.27.8,1.39a1.13,1.13,0,0,0,1.41-1.29A1.42,1.42,0,0,0,30,163.19Z"/><path d="M132.94,34.14a1.15,1.15,0,0,0,1.29-1,1.33,1.33,0,0,0-.74-1.55,1.07,1.07,0,0,0-1.47.74A1.35,1.35,0,0,0,132.94,34.14Z"/><path d="M171.88,210.13c-.09,0,.62.09.32-.62a2.12,2.12,0,0,0-1.78-1.35c-.52,0-.91.23-.73.87C169.94,209.86,170.37,210.43,171.88,210.13Z"/><path d="M283.24,138.14a.86.86,0,0,0-.74,1c0,.83.39,1.56,1.3,1.59.71,0,1-.57,1-1.31C284.61,138.62,284.17,138,283.24,138.14Z"/><path d="M138,61.81c-.14.48,0,1,.52,1.07,1.07.12,1-.85,1.3-1.48,0-.58-.21-1-.77-1S138.14,61.22,138,61.81Z"/><path d="M65.86,68.58a1.16,1.16,0,0,0,1.27-1.09c.11-1-.42-1.41-1.28-1.57-.62.15-1.22.36-1.3,1.11A1.3,1.3,0,0,0,65.86,68.58Z"/><path d="M233.39,224.16c-.76-.14-1.09.39-1.22,1-.17.83-.11,1.64,1,1.61.67,0,1-.61,1.16-1.26S234.1,224.29,233.39,224.16Z"/><path d="M205.14,23.8a.84.84,0,0,0,.93-.71c-.07-.69-.45-1-.95-1a.85.85,0,0,0-.93.86A.91.91,0,0,0,205.14,23.8Z"/><path d="M155.56,230a2,2,0,0,0-1.28,2.07c0,.15.61.43.69.37A2.31,2.31,0,0,0,155.56,230Z"/><path d="M296.46,204.3a.73.73,0,0,0-1,.65c0,.84.36,1.47,1.3,1.45.5,0,.76-.4.82-.9A1.45,1.45,0,0,0,296.46,204.3Z"/><path d="M260.16,229.51c.62,1.41.3,2.64,1.91,3.06A3.73,3.73,0,0,0,260.16,229.51Z"/><path d="M247.5,236.2c.32,1.25,1.26,1.57,2.86,1.92C249.41,236.76,248.87,235.8,247.5,236.2Z"/><path d="M114,29.18c.28-.11.77-.17.79-.32.09-.53-.31-.83-.78-.92s-1,.06-1,.59S113.59,29.13,114,29.18Z"/><path d="M98.47,247.11c-.29.49,0,.84.45.94a.87.87,0,0,0,1.07-.56c-.11-.25-.16-.63-.36-.75A.83.83,0,0,0,98.47,247.11Z"/><path d="M73.62,67c.47,0,.91-.24.69-.81-.09-.21-.5-.29-.77-.43-.19.22-.54.46-.52.65A.87.87,0,0,0,73.62,67Z"/><path d="M270.89,148.29c.46-.13.91-.31.78-.95-.16-.48-.44-.84-1-.7s-.92.33-.77.94S270.3,148.45,270.89,148.29Z"/><path d="M205.19,234.94a.8.8,0,0,0-.39.65.65.65,0,0,0,.91.61c.2-.08.29-.46.42-.67A.68.68,0,0,0,205.19,234.94Z"/><path d="M181.44,45.28a.86.86,0,0,0,.3-.73c-.07-.19-.45-.26-.7-.39a2.44,2.44,0,0,0-.26.82A.38.38,0,0,0,181.44,45.28Z"/><path d="M18.22,96.23A2.13,2.13,0,0,0,19,96c-.11-.25-.16-.61-.33-.69s-.55.09-.7.27A.35.35,0,0,0,18.22,96.23Z"/><path d="M259.79,130.58a.86.86,0,0,0-.32.8.73.73,0,0,0,1.07.46.53.53,0,0,0,.33-.78A.74.74,0,0,0,259.79,130.58Z"/><path d="M14.5,190.63l-.05,0-.18.34C14.35,190.83,14.42,190.73,14.5,190.63Z"/></g></g></svg>