<svg xmlns="http://www.w3.org/2000/svg" viewBox="0 0 858.17 874.47"><g id="Capa_2" data-name="Capa 2"><g id="Capa_1-2" data-name="Capa 1"><path d="M732.75,654.12c-3.12-4.34-6.27-8.65-9-12.37,3.34-4.3,6.21-7.54,8.48-11.16.78-1.24.07-3.43,0-5.18-1.52.08-3,.15-4.56.26-1,.08-2.08.22-3.12.33l1.26-.93c-.93-3-1.08-6.66-3-8.85-5-5.87-16.27-6.39-22.33-1.43-2.7,2.21-4.6,5-1.39,8.51.78.85,1.78,2.61,1.43,3.15a4.37,4.37,0,0,1-3.33,1.64,26.72,26.72,0,0,1-5.52-1.33c2.28-7.68,1.64-10.8-2.25-12.75-4.06-2-7.2-1.65-9.61,2.71-.89,1.6-2.88,3.59-4.41,3.62a18.07,18.07,0,0,1-8.41-2.07,10.71,10.71,0,0,1-4.49-5.19c-1.66-4.2-2.64-8.67-3.7-12.33l-13.4.87,10.87-6.26-6.72-8.76-8.46,2.9-1-.88c1.24-2,2.53-3.93,3.7-6,1.81-3.14,3.31-6.47,5.35-9.45,1.92-2.82,3.92-6.76,6.68-7.59,5.4-1.62,11.35-1.82,17.07-1.86,7.59-.06,8.73-7.22,12.82-11.06.65-.62-1.12-3.8-1.72-5.81-.07-.25.21-.6.53-1.45,5.5.11,11.72,2.11,16.43-3.06.3-.33,1.3-.13,1.94,0,5.8,1,11.6,2.06,16.68,3,1.68-2,2.63-4.13,3.71-4.2,3.16-.2,6.37.46,9.57.71,1.25.1,3.27.52,3.65-.05,1.46-2.26,3.64-5.11,3.19-7.24-.39-1.82-3.85-3.69-6.25-4.23-6.16-1.4-12.48-2.08-19-3.09,2-6.89-5.49-6.57-8-10.45l5.17-3.34v-7.32a62.18,62.18,0,0,0,6.87,3.07c2.9.88,5.84.71,7.18-2.6s-1-4.58-3.48-5.5a74,74,0,0,0-9.9-3.26,12.84,12.84,0,0,0-7,.16c-.81.31-.46,3.62-.58,5-2.72,2.38-5.23,4.7-7.88,6.84-1,.79-2.39,1.8-3.41,1.61-9.52-1.73-19-3.7-28-5.5.17-8.05,8.18-5.24,11.76-10.07-2,.18-2.92.19-3.77.35-4,.75-8.08,2-12.15,2.09-1.46.06-3.13-2.31-4.44-3.82-.29-.33.55-1.66.87-2.53,1.29.63,2.84,1,3.81,1.95,2.1,2.06,4.51,3.1,6.34.53,1.23-1.74,1.07-4.46,1.54-6.75-2.22.26-5-.25-6.52.92-3.1,2.43-4.71-.3-6.48-1.39-.56-.35,0-3.57.91-4.92s2.87-2.14,4.36-3.18L672,471.88l-.94-1.44c-1.53.91-3,1.9-4.61,2.7s-3,1.24-4.54,1.85c5.16-7.51,12.28-5.46,19.23-4.3.19-.58.37-1.16.56-1.74q-4.87-2.76-9.74-5.53l0-1.53c2.39-.46,4.79-1.29,7.16-1.18.94,0,1.79,2.15,2.69,3.31l.21-.8,8,3.63c-1.38-7.42,5.55-.81,7.35-4.17-2.67-1.72-9.31-2-2.45-6.71.29-.21.31-.9.35-1.38.26-3.68,2.86-3.16,5.13-2.66,4.16.92,6.49-.73,7.16-5.08.54-3.59,2.11-5.69,6.42-6.12,7.63-.77,14.34,1.87,21.19,4.25,6.33,2.2,14.6.89,17.86-3.2l-4.17-1.88.22-1.19,5.41-1.13c-1.85-1.78-4.11-3.07-5-5-2.27-4.77-6.76-5-10.19-3.89-2.84.9-6,4.33-6.82,7.27-1.07,3.69-2.82,5-5.86,4.22-5.85-1.45-12-2.65-17.18-5.53-4.46-2.49-7.64-7.2-13.47-7.35-1.43,0-3.14-1.16-4.2-.67-3.33,1.54-4.55.05-4.84-1.71-2.26-1-5-1.61-5-2.36a74.63,74.63,0,0,1,.56-10.64c.22-2.83.51-5.66.78-8.59.78-.89,2.08-2.32,3.31-3.82,2.28-2.78,3.78-6.34,8.38-6.33,1.89,0,3.78-1.24,5.68-1.91-.08-.49-.15-1-.22-1.47a14.79,14.79,0,0,0-3.31-.12c-4.89.86-9.74,2.28-14.66,2.55-1.82.11-4.17-2.07-5.5-3.81-.53-.7.71-3.27,1.73-4.52,1.3-1.6,3.19-2.72,5.31-4.44h-8.53c-.43-5.83,3.84-7.14,7-9.32q6.4-4.44,12.83-8.85l-1-1.6-26.46,14.95c.43-2.22.66-3.43.89-4.63l-4.53-2.18c7.72-7.4,14.43-14.53,21.94-20.67,3.05-2.5,5.69-8.05,11.57-5.09.31.15,1.47-.79,1.84-1.45,6.78-11.83,17.81-18.95,28.77-26.18,1.31-.87,2.21-2.36,3.3-3.56l-1-.93L721.42,316c-.28-3.24-.45-5.3-.56-6.66-3.55,1.13-7.59,2.26-11.49,3.74-1.21.45-2.16,1.76-3.07,2.82-1.23,1.43-2,3.37-3.51,4.45-10.27,7.56-20.74,14.84-30.95,22.46-2.55,1.9-4.86,2.28-6.21-.3-.74-1.43.26-4.12,1.11-5.93.75-1.6,2.39-2.78,4.16-4.72l-6-1.45,9.19-7.82c1.14,5.29,4.14,7.89,8.39,6.11,2.55-1.06,5.63-4.37,5.79-6.84.27-4.24-4.58-6.22-12-5.65,1.93-8.25-2.52-13.76-9.11-18.54,4.87-2.85,11.11-3,11.16-8.14l-12.73-8.3c-4,1.52-3.53,1.85.46,12.86l-6.84,5.08c4.7,7.17,2.57,19.61-3.88,22.1-.29-1.29-.19-2.89-.95-3.72-1.14-1.26-3.07-2.93-4.32-2.68-1.42.29-2.53,2.43-3.66,3.86s-2.11,3-3.16,4.45l-1.12-.79c1.4-7.13.3-9.45-7.36-14.51l15.64-19.25c-1.19-4.81-2.27-8.48-3-12.22-1.18-6.1,3.52-13.14,9.62-14s11.13-5.25,17.78-4.16c1.42.23,4-2.72,5-4.72a55.08,55.08,0,0,0,3.49-9.85c1.83-6-.67-12.88-6.38-15.14-7.55-3-9.11-8.56-10-15.94-1-8.28-4-16.33-6.45-24.41-.37-1.25-1.87-2.41-3.14-3.11-3.58-2-7.27-3.74-11-5.41a3.06,3.06,0,0,0-2.77.3c-1.6,1.75-4,3.79-4,5.73,0,2.34,2,4.79,3.37,7,.83,1.3,2.85,2,3.27,3.36A71,71,0,0,1,649.25,209c.82,6.95,5.07,11.94,8.63,17.44,2.5,3.86,5.09,8,6,12.41.42,2.12-3.1,5-4.74,7.55S656,251.5,654.42,254c-1.25,2-2.64,3.87-3.53,5.18-.8,2.67-1.46,4.9-2.12,7.13h-1.4c-2.59-8.9-9-11.85-17.83-10.83.87-3.91-2.14-7.71.8-9.84,3,1.51,4.9,2.94,7,3.32.84.15,3.2-2.47,3-3.08-.86-2.18-2.59-4-3.87-6-.85-1.36-1.43-2.89-2.23-4.28-1.55-2.69-2.61-6.83-4.89-7.7-4.3-1.63-6.3,2.84-7.83,6-.84,1.73,0,4.2-.23,6.31-.13,1.36-.39,3.59-1.17,3.87-3.33,1.24-3.3,3.6-3.21,6.43a7.73,7.73,0,0,1-1.44,4c-1.41,2.25-3.61,4.14-4.5,6.55a9.79,9.79,0,0,0,.21,6.75c.37.85,3.57.56,5.49.58s3.7-.22,7.11-.46c-3.23,4.71-5.57,8.15-7,10.18l-15.36,3.59c-3.05-.72-5.73-1.48-8.46-1.93a36.45,36.45,0,0,0-5.47,0c-.12,1.79-.3,4.48-.39,5.84-3.59.91-6.24,1.29-8.58,2.35-.8.36-.8,2.45-1.17,3.75A21.66,21.66,0,0,0,585,290.5a39.16,39.16,0,0,1,.07,4.72c0,.47-1,.85-1.43,1.31-4.6,4.54-4.68,5.59-1.35,10.23l5.67,1.06-3.75,7.45c4.22,5.4,5.44,9.17,4,13.16l-9.73-8.22c-2.72-5.82-5.75-12.59-14.4-14.2a7.13,7.13,0,0,1-3.52-2.35c-.25-.27.66-2.35,1.41-2.63,4.25-1.61,3.92-5.19,3.35-8.33-1-5.19,1.15-7.88,5.72-9.86,5-2.16,5.32-4.06,2.66-9,3-2.05,5.88-4.43,3.53-8.47-.84-1.46-2.9-2.21-4.4-3.29l-4.74,8.63L563.15,275c-1.14.15-3.27-.19-4.48.7-3,2.21-5.25.42-6.32-1.5-2.18-3.87-3.51-8.21-5.18-12.37-.36-.9-.43-2.19-1.09-2.66-4.09-2.91-4-7.06-4-11.44,0-4.82.45-5.23,5.83-2.94a41.41,41.41,0,0,0,0-5.49c-.75-5.25-1.79-10.45-2.4-15.7-.12-1.08,1.16-2.32,1.8-3.49.73,1.06,1.87,2,2.12,3.21,1.24,5.65,2.14,11.37,3.35,17s-.26,11-3.54,12.45c1.12,2.1,2.26,4.19,3.36,6.29,2.16,4.12,7.85,4.73,9.38.5,1.66-4.58,5.14-7,8.06-10.28a31,31,0,0,0,3.38-4.89c4.19-6.89,8.33-13.82,12.51-20.75l5.27,1.86c-.15-3.07-.44-5.56-.31-8,.07-1.31.6-3.45,1.41-3.72,4.1-1.33,2-4.39,1.48-6.21-.46-1.67-2.73-3.95-4.21-4a7.57,7.57,0,0,0-5.43,3.28c-2.94,4.7-5.27,9.79-7.34,13.75-2.44-3.82-5-7.67-7.37-11.6a10.13,10.13,0,0,1-1.24-3.65c-.44-2.78-.4-5.68-1.11-8.38-.79-3-.6-4.73,2.62-6.33,3-1.5,5.69-4.87,2.69-8.11-4-4.24-2.3-5,2.11-6.15,1.44-.36,3.07-2.7,3.26-4.3.12-1.06-1.94-2.86-3.4-3.54-3.95-1.83-8.07-3.28-12.16-4.78a5,5,0,0,0-2.93-.37c-5.77,1.81-7.7-2.06-10.26-6.05a113.61,113.61,0,0,0-12.29-16.06c-1.66-1.78-5.6-2.81-8-2.23-8.37,2-13,16.2-8.23,23.55,2,3,3.64,6.29,5.75,9.23a6.09,6.09,0,0,0,3.81,2.47c1.08.09,2.82-1.18,3.35-2.29,2.62-5.38,4.93-10.92,7.79-17.41l6.37,9c-2.43,2.73-4.85,4.71-6.26,7.24s-1.81,5.63-2.66,8.48l7.77.89c-.21,1.2-.56,2.94-.83,4.69-.55,3.51-.67,7.13-1.66,10.51-2.51,8.58-5.87,16.94-7.93,25.62-.88,3.74.57,8,1.06,12.08.37,3,1.31,5.91,1.25,8.85a55.4,55.4,0,0,1-1.6,10.27,20.88,20.88,0,0,1-2,4.3c-2.61-3.59-4.55-6.54-5-9.7-.57-4.07-1.36-6.4-6-3.71-1.52-5.47-4.54-10.56,1.66-14.73.48-.32.57-2,.2-2.62a3.08,3.08,0,0,0-2.41-1c-1.05.05-2.08.63-4.84,1.56.62-3.54.61-6.15,1.56-8.35,1.62-3.74,4.1-7.11,5.72-10.85.83-1.91.59-4.28.83-6.45l-1.91-1L516.18,209c-.73-1.52-1.55-2.93-2.09-4.43-.62-1.7-.45-4.28-1.6-5.08-2.05-1.43-4.91-2.58-7.28-2.33-1.32.14-3.49,3.52-3.25,5.14,1.17,7.68,3,15.25,4.44,21.86-4.51,4.15-8.56,7.77-12.4,11.6-.46.46-.06,2.43.57,3.15s2.14,1,4.32,1.93c-2.06.54-3.43,1.25-3.74.92-2.82-2.87-5.44-5.93-8.33-9.16l-2.27,4c-1.42-.58-2.95-.87-4.07-1.71-6.59-4.93-6.47-4.83-13.64-.72-2,1.14-5,2.14-6.89,1.47-5.75-2-10.7-1.34-15.18,2.64-3.52-4.58-2-8.28,4.18-11.07-1.33-5.67-3.22-7-8.22-6.83-1.67,0-3.68-1.2-5-2.43a20.81,20.81,0,0,1-4-5.55,21.66,21.66,0,0,1-2.54-6.74c-.32-2.3.34-4.74.73-8.75l-10.91,4.29c-1.68-5.39-9-9.58-1.59-18.08,5.94-6.8.05-20.48-8.4-24.45-3.43-1.61-7.13-2.63-10.68-4-4.54-1.76-5.93-5.73-4.09-10.27a13.47,13.47,0,0,0,.9-6.09,46.76,46.76,0,0,0-2.07-11.13c-.74-2.08-2.87-4.7-4.77-5.09-3.1-.62-5.17,1.77-5.28,5.17-.06,1.66-.54,3.68.2,4.93,4.12,7-.52,14.32,1.51,20L359.6,168.66c-1.76-4.93-2.87-8.56-4.34-12-2.13-5-4.39-10-6.86-14.91C347,139,345,136.38,341.34,138c-3.91,1.69-3.21,5-2.12,8.13,1.2,3.44,2,7.31,4.12,10.09,3.8,4.95,3,13.27,11.48,14.8-4.81,5.05-10.69,3.31-15.9,4-1.83.25-3.88-.64-5.75-1.24a22.43,22.43,0,0,1-3.56-1.87c-.2,1.51-.48,3-.58,4.53-.14,2.06.71,4.87-.34,6.07-5.79,6.61-5.35,14.29-5.58,22.31-.18,6.29,6.85,11.75,2.71,16.11,2,3.09,3.91,5.3,5.08,7.84,3.39,7.36,6.54,14.82,9.68,22.28,1.45,3.45,3.51,5.86,7.45,6.58a136.07,136.07,0,0,1,15.9,3.62,9.16,9.16,0,0,1,5,4.52c.46,1-1.73,3.19-2.63,4.89-1,1.94-3,4.12-2.73,5.86.46,2.61,2.57,4.92,4.17,7.68-2.84,2-6.1,4.23-9.25,6.6-4.78,3.6-9.39,7.44-14.29,10.86-1.14.8-3.17.34-4.79.46.75-1.23,1.43-2.51,2.26-3.68s1.81-2.11,2.58-3.26,1.21-3.12,2.34-3.92c5.12-3.63,6.31-7.93,3.64-13.82-.55-1.2-.5-2.68-.78-4.34,1.28.23,1.6.32,1.92.33a24.23,24.23,0,0,0,4.66.06c.24,0,.56-2.76.23-2.92a16.88,16.88,0,0,0-4.51-1.07c-.73-.11-1.84.35-2.2,0-4.63-4.68-7.35-3.3-9,2.56-.18.66-1.12,1.21-1.82,1.6-5.35,3-5.69,7.66-4.76,13,.21,1.22.11,3-.63,3.79a7,7,0,0,0-1.5,8.23,8.84,8.84,0,0,1,.21,2.65c-1.06,0-2.58.56-3.1.05-2.87-2.84-4.47-1.38-6.23,1.25-.57.85-2,1.14-3,1.68a15.22,15.22,0,0,1,3-7.56c3.75-4.59,3.74-5.16-1.86-8.53-1.79,2.36-3.49,4.81-5.41,7.08-2.9,3.42-5.38,6.91-10.05,1.1a16.64,16.64,0,0,1-3.15-4.8,12.85,12.85,0,0,0-2.65-4.69,22.28,22.28,0,0,1-7-17.74c-5.69-1.16-9.09,1.14-12.55,8.2l4.63,9.08-1.56,1.24c-1.67-2.08-4.61-4.08-4.73-6.24-.19-3.35-2.49-7.47,1.6-10.41,3.55-2.54,3.95-6,1.92-9.69s-5.22-4.81-8.81-2.73c-4.48,2.6-8,1.75-11.23-2.34l1.4-8c-3.46.16-6.45-.14-9.11.66-.84.26-1.67,3.87-1,5.16,1.16,2.23,3.5,3.84,5.72,6.1-.88.83-2.94,4.16-4.37,3.9-10.49-1.87-14.75,5.8-21.15,12.81,7.56.36,11,10.46,18.56,5,2,5.89,3.75,11.18,5.13,15.27l-20.32,12.16c-2.31-1.88-5.24-3.13-6.17-5.25-1.95-4.44-4.35-4.36-7.16-2.26-6.28-3.14-8.63-10.66-15.88-11.77a32.23,32.23,0,0,0-4.4-.08c.44,1.52.49,3.33,1.39,4.48,2.22,2.83,4.83,5.35,7.21,7.92-3.6,6-2.75,8,3.87,9.75,4.21,1.11,5.82,3.79,4.8,8-1.16,4.81.52,6.79,5.3,7,1.22.06,3.36,1.71,3.37,2.64,0,4.82-.47,9.63-.79,14.45l2.15-2.89c1.08,2.75,1.77,5.76,3.39,8.15a6.2,6.2,0,0,0,5.05,2.3c4.25-.76,8.76-1.47,10.78-6.53.47-1.17,3.06-2.26,4.52-2.09,2.44.29,4.75,1.64,7.69,2.76-1,1.54-1.89,3-3,4.69l5.42,9.89-25.91-2.39,2.9,3.5a8.88,8.88,0,0,1-5.8-.63c-5.44-2.47-9.72.93-13.89,3.23-1.11.61.21,4.8-.63,6.94a15.27,15.27,0,0,1-4.8,5.82c-.53.42-3-1-4.07-2.05a58.61,58.61,0,0,1-4.71-6.21c-4,2.27-5.35,2.12-8.85,0-4.79-2.95-9.74-5.65-14.52-8.62a51,51,0,0,1-5.17-4.17,10.29,10.29,0,0,1-2.23-1c-4.32-3.4-8.6-6.86-12.9-10.28-.52-.41-1.22-1.07-1.69-1-2.75.6-4.82,0-6.23-2.61a2.17,2.17,0,0,0-2.1-.39,3.3,3.3,0,0,0-1.46,2.3c.18,4,.61,8,.88,11.18,2.2,1.29,5.6,2.09,6.58,4.09,2.11,4.33,5.25,5.61,9.54,5.76a8.86,8.86,0,0,1,4.24.86c6.56,4.19,13,8.54,19.46,12.93,2.91,2,3,3.92,0,6.21-1.24.93-1.6,3-2.37,4.6,1.48,0,3,.23,4.41-.18,4.17-1.25,5.6-.12,5.09,4-.1.84,1,1.82,2.34,4,.72-7.59,4.88-6.1,9.55-6.13-5.28,8.84,0,15.36,3.83,22.51a20.26,20.26,0,0,0-3.46.87,16.49,16.49,0,0,0-4.17,2.48c-.25.21.76,1.86,1.2,2.85,1.47-.72,3-1.39,4.4-2.2.54-.31,1.06-1.43,1.32-1.35,1.2.4,3.21,1,3.3,1.68.6,4.88,2.91,6.71,8.1,6.19a4.19,4.19,0,0,1,3.25,1,84.52,84.52,0,0,1,4.66,7.29c-3.31,2.9-5.68,1.4-8.26-1.51-3.56-4-5-3.49-6.89,1.49a5.05,5.05,0,0,1-3,2.59,49.81,49.81,0,0,1-7.21,1c-5-7.21-5.66-7.43-12.13-3.35,6.51-.11,4,3.44,2.25,7.44,6-4,8.23-2,9.37,3.18.3,1.37,2.93,3.31,4.33,3.18,6.06-.54,11.6-.38,15.6,5.16.28.39,1.66,0,2.54-.07a13.58,13.58,0,0,0-.9-2.38,31.64,31.64,0,0,0-2-2.73l4.8-.69c-1,6.47.53,8.88,4.13,7.91,6.09-1.64,12.22-3.14,18.37-4.54a17.6,17.6,0,0,1,4.21-.05c-.78,3.06-2.23,6-2,8.75.21,3,1.83,6,3,8.88,2.91,7.06,9.53,8.44,15.1,3.22s5.51-10.18.11-17.66c-3-4.14-2.74-5,1.26-6.16,1.41,2.49,2.82,4.81,4.07,7.21,1.1,2.11,2.32,3.86,5,2.4,2.22-1.2,3.5-2.73,2.58-5.68-.38-1.21.83-2.92,1.32-4.4a35,35,0,0,1,2.9,3.44c1.55,2.42,2.85,5,4.4,7.43,1.67,2.63,3.54,5.13,5.22,7.75.69,1.09.79,2.72,1.69,3.47,3,2.54,2.4,4.43-.21,6.91s-4.79,5.61-7.45,8.83c-1.81-2.5-3.28-6-7.11-4.83s-7.11,3.59-7.52,8.33c-.06.73-.94,1.58-1.65,2-2.38,1.51-2.26,3.05-.29,4.75,2.31,2,2.64,4,.27,6.22-.24.22,0,.91,0,1.43l5.55,1.62c-2.41,2.26-3.81,4.36-5.75,5.22-3.74,1.66-6.34,3.59-4.95,8-1.58.63-3.71.9-3.87,1.62-1.12,5-5.61,4.89-9,5.74-6.9,1.73-14,2.69-21,4-2.76.53-6.08,2.47-8.12,1.54-3.95-1.81-5.59,0-8.91,1.59-7.8,3.72-16.28,7-25.44,5.48-2.94-.47-5.83-1.31-8.78-1.66-4-.48-6,1.18-4,5.18,1.52,3.09.86,5-2,6.51a12.2,12.2,0,0,0-2.25,2l.66,1c2.89-1.41,5.63-3.31,8.67-4.16,13.07-3.67,26.24-7,39.33-10.53,5.54-1.51,10.95-3.5,16.5-4.93a80.65,80.65,0,0,1,12.69-2.22c1.62-.15,3.37,1.13,6.44,2.26-3.72,1.37-6.15,1.78-7.94,3.08-1.48,1.07-2.19,3.2-3.25,4.86,1.68,1,3.33,2.9,5,2.94,2.54.07,5.21-.91,7.63-1.9,1.84-.76,3.48-3.51,5.24-.28,1.37,2.51,3.43,5.41-.92,7.44a13,13,0,0,0-2.58,2.17c4.85-.76,9-2.73,13.25-4.26,7.21-2.57,13.08,1.23,14.68,9.6-3.59.13-6.76.29-8.43-4s-5-4.79-8.28-1.79a23.29,23.29,0,0,0-4.61,5.23c-1.85,3.3-2.76,6.93.64,10,3.12,2.79,5.08,1.94,8.52-1.91,1.35-1.52,4.19-1.79,6.42-2.38.51-.13,1.3.81,2,1.25-1.11,1.5-2,3.24-3.36,4.45-5.22,4.63-10.43,9.28-15.92,13.57-13.15,10.26-26.55,20.21-39.65,30.54-4.38,3.45-8,7.79-12.21,11.52-8,7.19-16.32,14.11-24.19,21.49-1.1,1-.39,4-.51,6.07,1.83-.44,4.16-.31,5.41-1.41,11-9.74,21.75-19.89,32.88-29.53,8.76-7.58,18.18-14.38,26.93-22,8.37-7.24,16.49-14.65,26.16-20.28,4.36-2.54,9.53-5.52,7.24-12.49-.29-.88.77-2.2,1.21-3.32l2-.15c1.16,4.27,3,8.52,3.19,12.83.09,2.17-2.86,4.46-4.37,6.62,9.62,3.32,10.85,4.89,9.52,12.62-1.77.34-3.56.67-5.33,1.05s-3.57.77-5.33,1.23c-5.53,1.43-8.83,7.12-5.6,10.22,3.78,3.64,2.36,4.31-1.6,5.61-1.76.57-2.87,3.16-4.28,4.83,1.62,1.19,3.09,2.75,4.89,3.47,2.58,1,6.2.66,7.95,2.36a9.16,9.16,0,0,0,8.54,2.65c3.14-.47,5,.84,6.31,3.6s2.37,6,4.3,8.39c4.4,5.51,5.32,11.66,4.66,18.34-.49,4.89-.87,9.79-1.31,14.68a63.15,63.15,0,0,0,3.47-11.61c1.66-7.53,3.21-15.09,4.93-22.61.66-2.89,1.68-5.7,2.7-9.12,1.71,1.17,2.67,1.48,3,2.11,2.43,4.75,6.45,5.38,11.3,5.23,1.87-.06,4.47,1.53,5.58,3.16,3.48,5.11,8.08,5.52,13.6,4.92a93.76,93.76,0,0,1,17.79-.6c6.3.51,12.43,2.4,16.82-4.46.65-1,3.52-.65,5.37-.92-.21,1.93.13,4.15-.72,5.73-2.16,4-2.72,8.3.93,10.83,5.06,3.5,3.84,7.86,3.44,12.35a21.2,21.2,0,0,1-1.11,3.87l1.26.29c.56-2.66.93-5.38,1.74-8,.68-2.13,1.42-5.16,3-5.83,1.35-.59,3.91,1.52,5.91,2.49,4.08,2,8.07,5.53,12.21,5.7,12.43.49,24.82-.09,37.1,3,3.94,1,5.31,2.23,5.35,6,.06,5.78-.18,11.69.95,17.3,1,4.84,1.7,9.3.16,14.12a6.34,6.34,0,0,0,1,5c1.68,2.23,4,4,6.47,6.27-2.73,3-4.81,5.53-7.14,7.82-8.59,8.43-8.94,14.3-1.92,24.42,2.32,3.35,3.71,7.34,5.56,11,1.48,3,2.55,6.28,4.61,8.77,3.08,3.72,3.13,6.6,0,10.26-1.75,2-3.67,5-3.48,7.38.49,6-2.22,9-7.21,11.39-1.48.71-3.29,4.33-2.91,4.76a28.3,28.3,0,0,0,7.53,5.82c.52.28,2.56-2.25,4.7-4.23a10.74,10.74,0,0,0,3.43-.06c6.63-1.54,11.69,1.2,14.74,7.2,3.95,7.76,2.9,15.93,2.72,24-.06,2.78-1.16,5.54-1.93,8.94,6.85,3.46.72,13,6.29,19,.75-3.45,1.29-6,1.84-8.46l-1.21.34c-.8-2.07-2.21-4.12-2.28-6.21-.13-3.8.62-7.61.86-11.43.4-6.42,1.61-12.95.84-19.24-1.48-12-4.1-23.78-6.28-35.65-1.51-8.2-1.67-8.28-10-9.36a3.73,3.73,0,0,1-2.66-1.64c-.29-.69.38-2.18,1.08-2.79,3.49-3,7-6,10.78-8.75.92-.66,2.81-.47,4,0,.88.3,2.14,2,1.93,2.45-.45,1-1.71,1.68-2.73,2.33s-2.55,1-3.47,1.9c-2.41,2.29-1.93,4.8.86,6.05,4.72,2.12,9.69,3.69,14.57,5.45a2.51,2.51,0,0,0,1.48.09c6.3-2,8.26,2.33,10.77,6.73A79.5,79.5,0,0,0,537,790.88c.7.84,2.49.78,3.78,1.13a23,23,0,0,0-.29-4.09,8.18,8.18,0,0,0-1.58-2.52c-3.13-4.39-6.27-8.76-9.2-12.83,3.08-3.69,5.93-6.55,8-9.87,1-1.55.54-4,.74-6.07l-5,.2c-.91,0-1.83.11-3.42.21,3-5.19,1.39-9.16-2.78-11.44-3.72-2-8.11-2.85-12.43-4.27,0-6.41-.27-13.19.1-19.93.23-4.16-1.61-6.2-5.12-7.43l-9.11-3.19c2.28-1.22,3.67-1.66,4.61-2.57.76-.73,1.57-2.25,1.28-3s-2.22-1.7-2.89-1.39a35.61,35.61,0,0,0-5.13,3.55,9.37,9.37,0,0,1-2.86,1.81c-4.38,1.07-8.26,1-9.11-4.83-.1-.69-1-1.29-1.51-1.9-3.24-3.68-2.81-7.17,1.46-9.69,3.89-2.3,6.89-5,7.05-10,.18-5.37.65-10.74,1-16.85,6,4.17,11.76,1.56,16.57-1.54V650.47c2.6-1.43,4.43-2.83,6.5-3.46,1.47-.44,4.14-.45,4.74.41,2.87,4.15,4.93,9,10.85,9.69.24,0,.38.84.15.29-1.23,3.49-2.15,6.14-3.08,8.78l-5.82,3.91a7.78,7.78,0,0,0-5.55-1c-.41.08-.48,1.94-.71,3l7.5,1.53c.08.16.37,1.89,1.13,2.12,2,.63,4.49,1.26,6.37.64,1.18-.39,2.46-3.17,2.23-4.65-.77-4.86-1-4.82,2.74-9.5.19,1.39.43,2.47.48,3.57.56,11,1,21.92,1.68,32.88.09,1.56,1.08,3.08,1.65,4.62l1.13-.49q.81-3.54,1.61-7c-4.15-3.21-4.76-10.7-1.37-17.24.33,2.68.48,5.27,1,7.79.79,3.87,3.43,5.83,7.26,5.2s6.23-3.4,6-7.37c-.18-3.09-1.37-6.11-1.93-9.19-.75-4.06-2-8.19-1.77-12.2s.46-9.22,7-9.44c1.23,0,2.54-2.62,3.48-4.21a6.77,6.77,0,0,0,.6-2.66l13,1c2-5.35,4.36-10.34.38-14.69-5.15-5.61-1.61-10.61-.51-16,4.33.52,4.24,2.62,3.25,5.43-1.79,5.09-1.22,9.68,3.21,13.39a4,4,0,0,1,1.25,3c-.83,6.75,2.86,9.69,8.78,11,.79.18,1.42,1.1,2.37,1.88-.93.81-1.44,1.57-2.13,1.82-8.17,3-8.88,8.34-2.56,15.28,1.79,2,2.76,4.74,4,7.2s1.82,6.11,5.66,4.71c3.33-1.2,3.21-4.14,1.94-7.14a24.63,24.63,0,0,1-2.08-6.59c-.76-6.64-1.45-13.31-1.65-20-.1-3.48.06-7.44,1.64-10.36,1.87-3.47,5.39-6,8.2-9l1.39.81c-.83,1.48-1.71,2.94-2.48,4.46-1.18,2.36-3.76,5.35-3.1,7,1.17,2.88,4.12,5.25,6.76,7.26,2.09,1.59,4.81,2.39,7.31,3.39a27,27,0,0,0,3.95.92c.25-1.39,1.06-3,.68-4.13-1.68-5.15-3.7-10.19-6-16.35,1.78,1.16,3.25,1.59,3.67,2.5a51.36,51.36,0,0,1,3.9,10.08c.72,3.11,1.14,6.26,5,6.18,4.21-.09,7-2.41,8.26-6.69,1.5-4.93,3.52-9.71,5.39-14.74,2.05.77,3.41,1.66,4.82,1.75,6.4.37,11.91,2.21,15.65,7.9.39.6,2.35.79,3.1.35s1.11-1.93,1.06-2.94a14.73,14.73,0,0,0-1.12-3.63c8-2.84,9.81-1.29,11.45,6,.31,1.39-.71,3.17-1.37,4.66-1.18,2.67-3.81,5.37-3.6,7.87.49,5.86-2.08,8.65-6.92,10.94-1.57.74-3.48,4.62-3,5.12a26.77,26.77,0,0,0,7.61,5.71c.45.24,2.44-2.44,4-4,1.47-.31,3.66-.72,5.83-1.22,3-.69,11.42,2.73,11.35,5.53-.19,7.58,3.21,14.25,4.19,21.4,1.3,9.53,1.28,19.23,2,28.85.09,1.26,1.17,2.44,2.29,4.65.86-3.77,1.4-6.13,1.93-8.5-1.86-2.09-3.43-4.46-3.41-6.83,0-4.27,1.12-8.53,1.53-12.81s2.43-6.56,6.77-7.8c3.66-1,7.47-2.75,8.18-7.7,1.16-8.1-3.31-13.73-11.53-14-1.8-.05-3.61,0-6.16,0-.62-4.7-.8-9.51-1.95-14.07-1.85-7.36,1.32-17.74-10.92-19.47-.72-.11-2-2.95-1.53-3.73,2-3.61,6-3.26,8,.42.53,1,1,2.55,1.81,2.88,5.71,2.23,11.52,5.78,17.32,5.83s7.77,2.42,10.2,6.47A111.33,111.33,0,0,0,731.1,660c.64.78,2.27.76,3.44,1.11a16.33,16.33,0,0,0,0-4A9.48,9.48,0,0,0,732.75,654.12ZM713.67,316.47,716,319c0,3.55-12,10.14-17.27,9.74C703.84,324.57,708.51,320.73,713.67,316.47ZM571.48,228.91,564,239.8C561.63,233.74,564.11,229.38,571.48,228.91ZM231.91,325.56l4.32-1v4c1.13-.12,2.26-.29,3.4-.35s2.22,0,3.33,0C238.05,332,235,329.9,231.91,325.56Zm64.73,157.09c.43.14.15.14,0,0ZM355.84,315c-1,.46-3.49-2.27-5.29-3.53q2.9-3.21,5.8-6.43l1.62,1.1C358.54,309.41,359.89,313.17,355.84,315Zm3.77-17.83-1.36-.83,3.84-5.95C366.1,294.36,365.94,294.69,359.61,297.16ZM448.8,646.77c-4.39-2.26-8.53-5.18-13.14-6.79-3.39-1.18-7.36-.71-11.07-1-2.62-.21-5.25-.45-7.87-.68.59-3.1.88-6.3,1.89-9.24.46-1.34,2.36-2.18,2.61-2.4,5,1.58,8.57,3.42,12.31,3.77,5.66.52,7.87,4.78,10.47,8.46,1.95,2.75,3.37,3.25,5.89,1.06,4.26-3.71,9.61-4.1,14.57-3,2.41.52,4.18,3.94,6.23,6C464.55,648.63,455.13,650,448.8,646.77Zm52.42.51c-.7-.88.65-3.37,1.06-5.12l2,.45,4.71,5.51C505.84,651.85,503.12,649.69,501.22,647.28Zm74.43-315.45L566,330.35l-.51,1.68-3.12-3.79c3.32-4.49,8.28-1.88,12.5-2.14C577.42,325.94,577.3,330.37,575.65,331.83Zm31.4,285.5-1.45-.09c-.34-1.16-.69-2.31-1.13-3.8-4.09,2.08-7.37,2.89-6.91-3.47.1-1.39-1.22-2.89-1.92-4.42,4.63-.65,10.55,2,12,5.84C608.3,613.05,607.3,615.33,607.05,617.33Zm27.12-4c-2.73,1.34-6.13-1.83-6.13-5.73,0-6,2.54-9.62,10.67-13.86l5.16,14.94C639.83,610.6,637,611.94,634.17,613.32Z"/><path d="M178.81,355.81l.11.09h0Z"/><path d="M169.26,186.08c-4.8,3.29-8.72,7-2.71,12.74.2.19.12.66.27.94,1.64,3,3.3,5.93,5.51,9.88l-5.4,5.73,11.95,2c-.92,1.11-2.3,2.8-3.81,4.65,1.81,1.16,3.69,2,5,3.3,3.05,3.14,6.21,3.88,9.61.9s3.19-6.43.87-10.26c-1.39-2.3-1.88-5.15-3-8.31a16.9,16.9,0,0,0,3.27,0c4.22-1.3,9.44-1.59,12.34-4.32s3.83-7.8,4.87-12c.88-3.64,2.08-4.21,5-2.06a15.91,15.91,0,0,0,3,1.26c-.41-5.14-.72-9.73-1.18-14.31-.08-.72-.73-1.94-1.2-2-4.58-.44-4.43-4-5.31-7.18A4.83,4.83,0,0,0,205,164a5,5,0,0,0-3.78,2.44c-.66,1.24-.15,3.1-.15,6.08-1.64-.82-3.14-1.47-4.54-2.3a18.51,18.51,0,0,1-2.38-2c-.69,1-1.69,1.92-2,3-1.78,6-4.88,7.68-10.71,5.41-3.85-1.5-7.65-3.2-11.58-4.46-1.74-.56-3.75-.26-5.65-.36l-.49,2.11c2.26,1,4.48,2.14,6.79,3.05,2,.79,4.19,1.1,6,2.12,1.05.59,1.54,2.19,2.28,3.33-1.16.38-2.33.73-3.47,1.15C173.29,184.41,171,184.88,169.26,186.08Z"/><path d="M617.68,75.42c3.14.59,6.44.35,9.45-2.94a69.07,69.07,0,0,1,15.36-12.25A21.88,21.88,0,0,0,653.27,44.9c1.17-5.83-2.63-9.06-8.25-7.15-3.12,1.06-6.16,2.38-9.17,3.72-5.18,2.3-8.74,1.26-11-3.89a48.27,48.27,0,0,1-3.19-10.44c-.87-4.72-1.06-9.16,2.9-13.37,2.74-2.91,4.76-7.27,2.56-11.79l-2.43-2C623.82,1.72,623,3.48,622,5.17c-3,5.19-6.08,10.29-8.88,15.55a80.85,80.85,0,0,0-10,36.15C602.78,68.3,606.73,73.38,617.68,75.42Z"/><path d="M313.18,696.48c1.8-6.7,3-13.58,4.4-20.37l-1.31-.74c-4.08,5.91-8.52,11.61-12.11,17.8-2,3.53-4.7,3.23-7.57,2.82-1-.15-2.69-1.62-2.71-2.52-.08-4.47.32-9,.48-13.42.25-7.25,1.33-14.6.47-21.71-1.42-11.77-4.2-23.38-6.21-35.08-1-5.85-3.2-7.9-9.12-8-1.12,0-2.24-.73-3.36-1.13a18.52,18.52,0,0,1,2.08-3.44c2.46-2.65,6-4.73,7.37-7.81,1.12-2.5.87-7.21-.82-9-2.15-2.21-6.39-4.53-9.86-1.32a61.58,61.58,0,0,0-8.18,9.6c-.74,1-.55,3.3,0,4.62a16.88,16.88,0,0,0,3.67,4.59c3.51,3.56,3.19,5.88.14,9.8-2,2.57-4.09,6.28-3.73,9.19.59,4.74-1.81,6.26-4.92,8.29-2.07,1.35-5.27,3.64-5.09,5.16.28,2.31,2.74,4.75,4.86,6.35,3.48,2.63,5.21,1.72,6.61-3a29.27,29.27,0,0,0,5.17-.4c5.11-1.37,11.61.82,13.12,5.43a87,87,0,0,1,3.67,16.82,95,95,0,0,1,.08,15.46c-.31,7.05,2.7,14.39-2.4,21.14-.86,1.14,1.33,4.59,2.11,7,2-.74,4.25-1.13,5.92-2.33,1.37-1,1.89-3.09,3.1-4.41.9-1,2.28-2.12,3.46-2.14C308.38,703.69,311.73,701.88,313.18,696.48Z"/><path d="M750.29,389.93c1.07,1.29,2.93,2.9,4.25,2.74s3-2.07,3.59-3.58c2.51-6.28,2.38-6.33,8.34-2.79.21.12.62-.09,1.68-.28-.58-5.77-1.1-11.62-1.84-17.44a2.92,2.92,0,0,0-2-1.83c-5.8-.94-11.64-1.7-17.71-2.55l-4.15-3.85c-.92,2.16-1.89,4.31-2.73,6.5a3.12,3.12,0,0,0,0,2c2.76,7.52-1.85,10.64-7.7,13.06a2.34,2.34,0,0,0-.43.26c-3.17,1.78-5.81,2.51-8.35-1.45s-5.67-3.75-9.09-.35A55,55,0,0,1,709,385c-3.25,2.48-3.28,4.94-.71,8,1.17,1.39,2.62,3.52,2.33,5-.87,4.43,2.6,6.4,5,7.26,3.74,1.32,4.11-2.77,4.89-5.36,1.21-4.07,2.27-8.19,3.51-12.75a55.68,55.68,0,0,0,4.65,3.35,47.78,47.78,0,0,0,4.73,2c-.86,1-1.4,1.59-1.9,2.22-4.54,5.71-5,9.67-1.64,13.88s9.08,6.06,13.93,4.32c5.3-1.91,6.43-7,7.39-11.61,1.06-5.13-3.26-7.1-6.8-9.29-1.41-.88-2.79-1.81-4.41-2.86C746,384.64,746,384.71,750.29,389.93Z"/><path d="M566.88,149.88c.87,1.89,4.36,2.59,7.25,4.15.78,3.16.67,8.28,3.16,11.2s7.48,3.41,10.17,4.49c-2.91,3.61-6.2,6.65-8.07,10.39-1.23,2.48-1.41,6.49-.19,8.84,1,1.88,6.15,3.88,7.1,3.07a77.35,77.35,0,0,0,11-12.42c1.2-1.58,1.4-4,1.72-6.1a25.47,25.47,0,0,0-.14-4.69,28,28,0,0,0-4.61.33c-.87.2-1.58,1.1-2.61,1.88-1.68-3.31-1.76-5.51,1.12-8.49,2.22-2.3,2.61-6.4,3.7-9.75a12.9,12.9,0,0,0,.24-3l1.2-.2q1.88,6.53,3.77,13.06l2.16-.32c-.33-4.43-.82-8.85-.93-13.28a15.42,15.42,0,0,1,1.24-5.21c.65-1.83,2.69-4.64,2.19-5.16a28.65,28.65,0,0,0-7.8-5.45c-.36-.18-2.27,2.7-3.7,4.47a16.39,16.39,0,0,0-4.29.06c-5.7,1.4-11.93-.93-13.82-6.39A68.92,68.92,0,0,1,573.29,115c-.94-10.59-1.15-21.24-1.8-31.85-.08-1.32-1-2.59-1.56-3.88-1.41,3.71-2.89,6.4-.09,10.36,2.09,3,1.24,8.91.09,13.08-2.92,10.6-1.61,20.7,1.42,30.93a6.67,6.67,0,0,1-1.33,5.55C566.88,142.33,565.09,146,566.88,149.88Z"/><path d="M222.22,664.19c-8.15,1-13.59,7-13.8,16.21-.32,14.78-13.14,33-29.67,35.45a89.38,89.38,0,0,0-15.46,3.23c-2,.66-4.46,3.73-4.39,5.6.09,2.2,2.27,5,4.33,6.3,5.4,3.36,10.33.49,14.72-2.62s8.37-7.07,12.83-10.23c12.16-8.62,24.57-16.89,36.71-25.54,5.2-3.71,8.41-8.89,8.63-12.75C236.43,668.74,230.35,663.14,222.22,664.19Z"/><path d="M162.8,449.59c-1.14,0-3-2.38-3.25-3.9-2.14-10.89-4.15-21.82-5.84-32.79-.75-4.85-3.15-7-7.9-7.12-1,0-1.9-.88-2.85-1.35a13.49,13.49,0,0,1,1.57-2.73c1.93-2,4.38-3.66,5.94-5.92a6.3,6.3,0,0,0-1.71-9.13c-3.73-2.12-6.65-1.48-8.68,2.46a11.58,11.58,0,0,1-1.65,2.49c-4.66,5.11-4.62,5,.2,10.67,2.37,2.77,3.14,5.36.14,8.74-1.88,2.11-2.17,5.6-3.33,8.41a22.67,22.67,0,0,1-3,5.81c-1,1.19-2.95,1.49-4.25,2.5-2.57,2-1.89,4.39.37,5.72,1.92,1.14,5.54,2.42,6.58,1.52,4.57-4,12.46-4,16.31.61,4.2,5.06,4.49,11.66,1.18,14,1,1.67,2.73,3.21,2.89,4.9.53,5.79.38,11.64.75,17.45.21,3.48.9,6.92,1.32,10,2.49-2.41,4.51-6,6.5-6,7.1.07,14.18,1.5,21.29,2.15s14.49,1,21.74,1.51l.09-1.32c-7.41-.81-14.84-1.48-22.22-2.47-4.07-.54-8.77-.2-10.94-6.72-3.38,6.93-8.36,3.11-12.65,3.54-3.11.32-4.23-1.49-3.82-4.33.73-4.93,1.42-9.88,2.5-14.74.2-.94,2.09-2.11,3.21-2.13,5.46-.08,10.92.3,16.38.33,11.6.05,23.2,0,34.81,0a26.34,26.34,0,0,1,5.38.62c3.39.71,6.75,1.6,10.12,2.42l.35-2.19-26.63-4.14a35.54,35.54,0,0,0-.88-5.81c-.11-.37-2.81-.55-3-.2a37.73,37.73,0,0,0-1.71,5.84,9.49,9.49,0,0,1-2.91.93C184.42,449.49,173.61,449.74,162.8,449.59Z"/><path d="M720.68,198.77c.87,1.93.14,4.54.44,6.79a34.16,34.16,0,0,0,1.42,4.94c1.73-.79,4.48-1.18,5-2.44,1.2-3.12,1.36-6.65,2.07-10.76-.4-3-.75-6.82-1.45-10.56-1.35-7.17-2.84-14.31-4.4-21.44-.8-3.66-1.47-7.44-3-10.84-.91-2.11-3.48-5.19-4.89-5-2.28.32-5,2.59-6.16,4.77-4.46,8.19-2.48,16.54,1,24.46C713.72,185.53,717.6,192,720.68,198.77Z"/><path d="M151.81,403.08c1.87,1.09,3.62,2.59,5.64,3.19,4.91,1.47,10,2.41,14.89,3.85,1.07.32,2,1.75,2.62,2.86,1.7,2.85,2.83,6.13,4.93,8.61,1.87,2.21,4.75,3.56,7.18,5.3q-1.4-4.11-2.82-8.2a4,4,0,0,0-.54-.84c-1.73-2.39-4.76-4.75-4.81-7.18-.05-2.26,3.36-4.44,4.71-6.94,1.1-2.06,1.41-4.55,2.07-6.86-2,0-3.89-.05-5.83-.13-.3,0-.58-.27-.86-.43.62-6.42-1.72-10.65-7.06-11.45a25.8,25.8,0,0,0-9.28.65c-7.51,1.68-8.64,4.73-4.13,11.5a23.31,23.31,0,0,0-2.16,1.61C154.81,400.08,153.32,401.59,151.81,403.08Z"/><path d="M126.35,160c-1.13.73-1.33,3.41-1.37,5.23-.07,2.84.85,5.76.47,8.52-.8,5.87,1.23,12.79,5,15.18,5.16,3.25,12,2.4,16.73-1.73a44.42,44.42,0,0,0,3.91,2.37c.17.09,1.3-1.05,1.21-1.24-.8-1.6-1.78-3.11-2.82-4.84,3.79-7.73-.66-18.32-8.78-20.54-2.9-.79-5.57-2.44-8.48-3.19C130.37,159.3,127.8,159.08,126.35,160Z"/><path d="M783.3,553.15l16.8,4c.18-.48.36-1,.55-1.44a10.54,10.54,0,0,0-2.55-1.49c-3.53-.89-7.15-1.46-10.65-2.43-16.69-4.66-33.78-6.56-51-7.68-1.81-.12-3.9-.42-5.41.3-2,1-3.55,2.84-5.29,4.33,1.69,1.75,3.15,4.6,5.14,5,5.78,1.28,11.82,1.3,17.66,2.37a147.73,147.73,0,0,1,19.67,4.69C774.19,562.82,782.76,559,783.3,553.15Z"/><path d="M355,29.26c1.65,4.31,3.1,8.69,4.7,13,2.9,7.83,7.22,15.25,5.71,24.23-.43,2.59,1.72,4.7,4.53,3.39a11.49,11.49,0,0,0,7.12-9.82c-1-2.66-2.16-5.54-3.24-8.44-3.31-9-1.32-19-6.65-27.75-4.77-7.83-5.28-8.73-13.83-5.89-2.87.95-2.73,2.21-1.53,4.39A57.83,57.83,0,0,1,355,29.26Z"/><path d="M214.81,240.77c-2.46-.49-5.09-.12-6.93-.12-.22-2.47-.41-4.67-.6-6.87-2.74.75-6,.83-8.07,2.42-2.5,1.9-.45,3.9,1.13,6.16,3.08,4.39,3.49,10.4,8.1,14,.28.22-.17,1.27-.14,1.92.44,8.78,1.35,17.37,9.33,22.88,5.43-5.92,6.23-13.32,6-20.54-.17-5.73-1.85-11.49-3.54-17C219.69,242.23,216.76,241.15,214.81,240.77Z"/><path d="M261.25,140.56a7.92,7.92,0,0,1,4.76,6.88,86.89,86.89,0,0,0,2.18,9.73l2-.27c-.37-4.58-.74-9.16-1.15-14.2,1.52-.74,3-1.44,4.49-2.21,5-2.62,8.25-10,6.7-15.17-1.81-6.06-8.7-11.33-14-10.72-5,.56-11.63,7.07-12.46,12.23C252.81,132.46,255.58,137.74,261.25,140.56Z"/><path d="M36,733.89c-8.16,5.55-16.19,11.31-24.4,16.78-5.08,3.38-9.19,7.49-11.24,13.26a6.23,6.23,0,0,0,.44,4.93c.6.9,3.17,1.4,4.26.86,4.53-2.27,9.25-4.5,13.13-7.69,7.22-5.94,14-12.46,20.78-18.92,2.19-2.09,3.82-4.77,6.74-8.51-2.62-1.11-4.09-2.17-5.6-2.24A7.55,7.55,0,0,0,36,733.89Z"/><path d="M196.88,265.6c-.26-1.19-2.94-2.9-4-2.6-1.73.47-3.28,2.29-4.44,3.87-.61.83-.26,2.38-.34,3.69-2.26-.67-4.47-2.15-5.92-1.6-4.67,1.75-7-.83-9.41-3.69.25-.41.49-.83.73-1.25l3.81,2.81a65.93,65.93,0,0,0,2.41-7.7,9,9,0,0,0-.35-5.47c-1.48-2.87-3.66-5.37-5.69-8.21-.79.84-1.75,2.79-3,3-5.69,1.07-6.38,5.19-7.2,9.83-1.16,6.61-.57,7.68,7.19,7.71,0,2.7-.38,5.17.1,7.46.45,2.1,1.34,4.66,2.92,5.8,1.32,1,4.2.74,5.9,0,4.78-2.18,8.66-.79,11,4.29a4.69,4.69,0,0,0,2.93,2,2.63,2.63,0,0,0,2.18-1.45,4.44,4.44,0,0,0-1-3.07c-3.19-4-2.82-6.34.75-9.87A7,7,0,0,0,196.88,265.6Z"/><path d="M228.77,500.59a21.28,21.28,0,0,0-3,3.88c-.4.88.15,2.2.34,3.94-7.41.92-14.58,1.9-21.78,2.65-2.74.28-5.9.1-5.78,3.78s2.81,4.79,6.35,4.55c7.57-.51,15.15-.79,22.72-1.19a13.52,13.52,0,0,0,2.44-.41c5.08-1.19,10.12-2.53,15.23-3.56s10.15-1.56,15.14-2.72c1.43-.33,2.53-2.09,3.78-3.19-1.28-1.29-2.34-3.12-3.89-3.71s-3.61-.16-5.38.19c-5.52,1.1-11,2.61-16.53,3.5-3.1.5-7.48,2.16-7-4.21C231.56,503,229.72,501.76,228.77,500.59Z"/><path d="M627.5,177.21c2.13-3.23,2.83-7.25,7.75-7.83,1-.12,2-2.39,2.32-3.81.12-.59-1.87-2.37-2.61-2.22-2.8.58-6.24,1-8.07,2.81-4.55,4.56-10.28,4.77-15.88,5.9a5.81,5.81,0,0,0-3.13,1.65c-1.45,1.74-3.2,3.63-3.66,5.72a28.66,28.66,0,0,0-.64,11c.28,1.53,3.66,2.51,5.71,3.79,2.67-1.13,5.3-1.48,6.71-3A105.19,105.19,0,0,0,627.5,177.21Z"/><path d="M812.57,416.87c.79-4.16-1.93-6.24-6-5.34-8,1.77-14.15,9.5-14,19.87.78,1.82,2.24,5.48,3.93,9a63.52,63.52,0,0,0,4.17,7.31,25.39,25.39,0,0,0,3.13,3.36,35.26,35.26,0,0,0,2.81-4.75c.34-.8-.07-2-.28-2.94a23.29,23.29,0,0,1,2.54-16.87A33.75,33.75,0,0,0,812.57,416.87Z"/><path d="M774.74,478.18c2.58-3,3.72-13.75,2.23-16.78a46.71,46.71,0,0,1-2.78-8.24c-.61-2.14-.94-4.36-1.39-6.54l-2-.51c-1.82,5.39-7.4,7.12-9.79,12.7-2.58,6-.51,11.71-1.57,17.43-.14.8,1.74,2.33,3,3C767.52,481.86,772,481.4,774.74,478.18Z"/><path d="M764,342.47c2.11,0,4.88.82,6.23-.21,7.07-5.38,13.81-11.2,20.61-16.93A87.68,87.68,0,0,0,800,317a9.48,9.48,0,0,0,2.1-6.08c0-1.12-2.3-2.19-3.46-3.19-1.95.65-3.45.75-4.38,1.53-5,4.2-9.94,8.57-14.87,12.9-2.11,1.87-4.22,3.74-6.24,5.7-2.95,2.87-6.1,5.6-8.58,8.84C763.58,338,764.13,340.52,764,342.47Z"/><path d="M176.5,633.35a6.26,6.26,0,0,0,1.3-4.84c-.14-1-2.13-1.63-3.43-2.53-2.27,1-4.55,1.41-6.15,2.71q-13.5,11-26.65,22.34a3.82,3.82,0,0,0-.79,3.48c1.67,3.84,8.08,4.65,11,1.73,3.73-3.71,7.57-7.31,11.45-10.86C167.65,641.34,172.27,637.54,176.5,633.35Z"/><path d="M807.7,519.84c-12-3.48-24-7.17-36.12-10.48-1.72-.47-3.89.71-5.85,1.12.63,1.9.78,4.23,2,5.57a14.88,14.88,0,0,0,5.9,3.46c3.54,1.29,7.25,2.1,10.86,3.2,7.08,2.15,14.15,4.37,22.12,6.84,1.65-1.47,3.82-2.53,4.47-4.2C812.15,522.66,810.67,520.7,807.7,519.84Z"/><path d="M254.48,217.52c-.19-4.84-2.22-6-5.69-5.1a15.26,15.26,0,0,0-9.11,23.3c2.16,3.26,4.41,5.91,1.68,10.19-.72,1.13,1.43,4.09,2.26,6.21,1.51-1.39,3.73-2.52,4.35-4.24a17.22,17.22,0,0,0,.83-8.24,22.81,22.81,0,0,1,2.68-15.34A66,66,0,0,0,254.48,217.52Z"/><path d="M325.42,737.92c-2,1.25-4.51,2.07-5.78,3.82-4.55,6.3-7.73,13.3-6.58,21.3.38,2.63,1.84,6.46,3.74,7.14s5.21-1.63,7.27-3.38c1.47-1.25,2.22-3.66,2.68-5.69.87-3.86,1.31-7.82,1.84-11.15,0-2.31.39-4.09-.09-5.6A48,48,0,0,0,325.42,737.92Z"/><path d="M419.26,156.36c1.57-1.93,2.11-4.7,2.8-6.4,4.91,1.69,9.12,3.58,13.52,4.38,1.29.23,3.77-2.41,4.48-4.21.42-1-1.22-3.67-2.59-4.5-2.84-1.72-6.12-2.72-9.71-4.23,2.28-5.62,4.45-10.77,6.41-16,.43-1.16.08-2.6.1-3.91-1.26.53-3,.72-3.68,1.67-2.64,4-5.06,8.13-7.33,12.35-3.13,5.82-6.17,11.69-9,17.67-.69,1.47-.32,3.44-.44,5.19C415.7,157.75,418.21,157.65,419.26,156.36Z"/><path d="M228.8,178.93l10.92,10c-5.49,0-7.26,2.64-7.56,6.84a51.54,51.54,0,0,1-1.31,7.66c-.88,3.83,0,7.2,3.3,9.17,1.87,1.13,4.94,1.91,6.73,1.14a7.09,7.09,0,0,0,4.22-8.63c-1.26-5.41-2.84-10.78-3.73-16.25-1.11-6.88-7.05-8-11.18-11.37Z"/><path d="M656.77,170.42c1.07.73,3.61.25,5-.57,6.81-4.14,11.09-14.34,9.69-21.94-.63-3.44-2.81-4.78-5.69-3.69-2.51.94-5.57,2.54-6.63,4.71-2.46,5-3.85,10.51-5.74,16C654.6,167.1,655.26,169.39,656.77,170.42Z"/><path d="M316.38,258.13c-.41-7.16-2.57-11.08-6-10.88-6.09.38-13.27,6.06-12.8,10.14.36,3.09,6.8,10.58,8.95,10.4C312.47,267.32,316.67,263.19,316.38,258.13Z"/><path d="M57.9,639.74c-7.18,3-14.44,5.8-21.44,9.15a42,42,0,0,0-10.42,7c-2.56,2.38-1.34,5.3,2.17,5.55a15.33,15.33,0,0,0,12.6-4.63,79.56,79.56,0,0,1,9.84-7.93c4.69-3.41,9.54-6.61,14.32-9.91-.25-.46-.5-.91-.74-1.37C62.12,638.31,60,638.89,57.9,639.74Z"/><path d="M151.59,637.75c-2,.6-4.05,1.06-6,1.85-7.34,3-14.69,6-21.92,9.27a33.8,33.8,0,0,0-8.66,5.32c-1.08,1-.87,3.63-.75,5.5,0,.69,1.79,2,2.34,1.81,3.81-1.3,7.77-2.49,11.18-4.54,3.71-2.24,6.77-5.51,10.3-8.07,4.61-3.35,9.4-6.45,14.11-9.66Z"/><path d="M118.13,285.25c-5.21-.08-10.86,5.31-10.78,10.3.07,4.58,3.54,7.78,8.5,7.84,5.24.07,8.27-3.39,8.35-9.52C124.27,288.54,122,285.32,118.13,285.25Z"/><path d="M808.48,283.61c-6.58,3-13,5.93-19.37,8.91a2.3,2.3,0,0,0-1.24,1.49c-.14,1.81-.71,4.19.18,5.3a5.77,5.77,0,0,0,5.11,1.52,117.09,117.09,0,0,0,13.07-5.57c1.79-.83,3.81-1.76,4.94-3.24a7.67,7.67,0,0,0,1.32-5.34C812.32,285.63,810.23,284.88,808.48,283.61Z"/><path d="M526.07,677.53c-3.44-1.41-6.22.14-8.25,2.86a51.18,51.18,0,0,0-5.08,8.08c-.43.88.42,3.44,1,3.58,3.64.83,7.4,1.17,12.41,1.85a6.77,6.77,0,0,0,5.67-5.8A9.64,9.64,0,0,0,526.07,677.53Z"/><path d="M138.08,333.68c.36-4.43-4-8.4-9.63-8.73-4.23-.25-7.61,2.5-7.93,6.45a8.85,8.85,0,1,0,17.56,2.28Z"/><path d="M457.15,668.83a4.17,4.17,0,0,0-2.36-2.22c-.39-.16-1.66.87-2,1.6-1.69,3.75-3.6,7.47-4.67,11.4a23.73,23.73,0,0,0-.38,9.24,5.19,5.19,0,0,0,3.54,3.43c1.59.22,4.21-.69,4.95-1.95,1.77-3,2.7-6.47,4-9.76l-1-.55C458.53,676.29,458,672.52,457.15,668.83Z"/><path d="M784.71,276.45c.23.17,1.6-.54,1.82-1.09,2.29-5.79,4.45-11.62,7-18.25-1.59-2.22-2.7-5-4.74-6.31-2.8-1.78-5.13.42-6.27,3a17.55,17.55,0,0,0-1.79,7.13,83.75,83.75,0,0,0,1.51,12.78C782.38,274.77,783.72,275.71,784.71,276.45Z"/><path d="M388.88,697.5c-.8,1.23-.55,3.63.1,5.09.39.89,3.07,1.81,3.72,1.34,2.81-2,6.57-4.13,7.56-7,2.37-7,3.38-14.43,5-22.06a39.26,39.26,0,0,0-3,3.31C397.75,684.56,393.13,690.92,388.88,697.5Z"/><path d="M496.88,216.77c1.13-1,1.26-4,.7-5.73-.36-1.09-3.69-2.47-4.22-2-2.88,2.48-5.86,5.2-7.6,8.47-.65,1.23,1.94,4.19,3.29,6.82-.89,1.26-2,2.89-3.18,4.51,2.37,1.33,4.64,3.24,7.16,3.69,1,.17,3-2.78,3.69-4.63.48-1.33-.07-3.42-.86-4.76C494.32,220.52,494.52,218.92,496.88,216.77Z"/><path d="M704.49,239c3.94-.78,7.66-2.16,9.27-6.53.61-1.66,1.89-3.07,2.61-4.7s1.85-3.66,1.28-4.64c-.8-1.39-3-2-3.59-2.29-7.44.15-15,10.56-12.84,16C701.63,237.88,703.54,239.16,704.49,239Z"/><path d="M529.62,195.49c1.38-.16,2.87,1,4.36,1.25,1.94.29,4.59,1.08,5.74.16a8.71,8.71,0,0,0,3-6.09c0-1.33-2.58-2.77-4.15-4a10,10,0,0,0-3.71-2c-2.32-.51-5-1.42-7-.67s-3.17,3.36-4.23,4.59C524.17,193.4,525.19,196,529.62,195.49Z"/><path d="M128.46,731.9c-10.29.45-16.43,9.32-13.64,20.26,4.32-3.39,8.62-6.48,12.57-10a14.22,14.22,0,0,0,3.76-5.77C131.84,734.43,131.82,731.75,128.46,731.9Z"/><path d="M340.85,767.05c-2.71-1.5-8.49,5.7-8.45,9.88,0,4.53,2.86,8.13,6.31,8.05,4.15-.1,7.53-4.11,8.58-9.68C345.19,772.45,343.66,768.6,340.85,767.05Z"/><path d="M726.62,232c-.35,10.71,9.44,4.42,12.08,9.39.08.16,4.65-1.06,5.5-2.56,1-1.8,1.06-6.21.15-6.66A43.39,43.39,0,0,0,730.94,228C729.43,227.77,727.47,231.15,726.62,232Z"/><path d="M794.76,159.26c.11.18,3.72-1.61,5.69-2.5a.54.54,0,0,0,.19-.44c-.06-2.18.54-5.87-.33-6.27a49.32,49.32,0,0,0-13.77-4.16c-1.37-.17-3.21,3.37-4,4.25C782.59,160.56,792,154.43,794.76,159.26Z"/><path d="M428.3,767.07c-2.25-1.57-8.37,5.38-8.54,9.29-.19,4.22,2.58,8.36,5.75,8.61,4,.32,7.91-3.63,9.3-9.09C432.7,772.85,431.14,769,428.3,767.07Z"/><path d="M177.55,323.39c-3.3-4-5.75-7.65-8.93-10.47-1.1-1-4.82-.69-5.88.42-1.3,1.37-1.7,4.31-1.32,6.36a11.07,11.07,0,0,0,3.45,5.87c1.81,1.58,4.46,3.23,6.61,3.08C173.28,328.52,174.89,325.83,177.55,323.39Z"/><path d="M748.08,294.36c.95,1.21,1.06,3.07,1.58,4.74,1.72-.43,4-1.56,6.32-1.48,6.09.21,9.89-3.77,8.86-10.39a22.05,22.05,0,0,1-4.27.68c-1.46,0-3.52-.08-4.24-1-2.67-3.38-4.88-1.63-7.13.2C746.71,289.15,745.75,291.37,748.08,294.36Z"/><path d="M83.89,264a6.41,6.41,0,0,0-7,6.65,8,8,0,0,0,7.56,7.65,7.66,7.66,0,0,0,7.5-7.1C92,267.6,88.19,264.2,83.89,264Z"/><path d="M230.9,96.85c2-4.83,4-9.08,5.63-13.44a8,8,0,0,0,.42-4.87c-.55-1.7-1.82-3.91-3.26-4.38s-4,.72-4.84,2a11,11,0,0,0-1.9,6.67C227.36,87.35,226.15,92.47,230.9,96.85Z"/><path d="M75.65,232.31c-3.59-1.91-7.64-.64-9.18,2.88-2.32,5.3-.38,7.8,9.48,11.93C80.49,238.7,80.37,234.83,75.65,232.31Z"/><path d="M619.53,687.11c-2.81-1.56-5.56-3.51-8.59-4.27-1.7-.42-4.9.62-5.71,2-2.8,4.77,1.43,11.17,7.07,11.39,2.72.11,8.24-4.94,8.09-7.5A2.23,2.23,0,0,0,619.53,687.11Z"/><path d="M692.12,257.36c-3.43.34-4,2.84-3.9,5.75,0,1.52.44,3.38-.26,4.51-2.12,3.44-.29,6.12,2,7.75,1.34,1,4.65.57,6.22-.49,2.67-1.79,3.31-4.76,1.43-7.88a29.07,29.07,0,0,1-1.71-3.63C696.38,259.13,695.55,257,692.12,257.36Z"/><path d="M293,227.59c.66,0,1.35,1.23,2.11,1.78,1.23.9,2.49,2.25,3.79,2.33.78.05,2.43-2,2.35-3.06-.13-1.53-1.29-3.07-2.3-4.39-.62-.81-2.46-1.11-2.56-1.8-1-7-5.38-6.35-10.6-4.48C285.7,223.08,285.61,228.06,293,227.59Z"/><path d="M582.54,727.15a5.32,5.32,0,0,0,4.25-2.48,5.77,5.77,0,0,0-.64-5c-3-4-6.52-7.74-10.08-11.86-2.87,6.29-.19,11.25,2.82,16C579.76,725.25,581.22,727,582.54,727.15Z"/><path d="M106.59,256.32c11.45,2.88,20.34,9.24,30.9,11.44C133.51,260.79,112.54,252.38,106.59,256.32Z"/><path d="M309.52,215.63a7.52,7.52,0,0,0,0,5.89c.62,1.46,2.71,2.3,5.26,4.28,2.09-2.7,4.78-4.63,4.91-6.74.2-3-1.45-6.09-2.46-9.09a2.77,2.77,0,0,0-2.14.14C313.09,211.81,310.76,213.43,309.52,215.63Z"/><path d="M434.51,170c-.26,3.22,4.07,7.28,7.12,7,3.36-.28,4.95-2.5,5.11-5.64.21-4.21-2.95-7.27-7.57-7.16C435.4,163.87,434.75,167.07,434.51,170Z"/><path d="M683.58,481.45c-.84-.69-2.09-2-2.65-1.73a77.88,77.88,0,0,0-7.51,4c1.32,1.84,2.16,3.08,3.08,4.25,1.2,1.55,3.13,4.54,3.61,4.33,2.91-1.28,5.51-3.3,8.21-5.06-1.25-1.46-2.51-2.9-3.74-4.37C684.21,482.4,684,481.79,683.58,481.45Z"/><path d="M728.81,460.91c.19-2.17-2.92-6.12-5.17-6.63-3-.68-6.4,1.63-6.86,5.62-.43,3.72,1.45,6,6.81,7C725.06,465.37,728.61,463.28,728.81,460.91Z"/><path d="M484.91,135.88c2.71,2.16,5.59,4.11,8.5,6a19.85,19.85,0,0,0,3.78,1.5c.56-1.45,2-3.7,1.53-4.23-3.42-3.79-7.22-7.24-10.9-10.8l-2.76-.8c-.76,1.65-1.92,3.26-2.13,5C482.81,133.57,483.93,135.09,484.91,135.88Z"/><path d="M134.39,443.91c.26-3.92-3.53-5.21-7.08-5.2s-6.91,1.42-6,5.36c.52,2.33,3.64,4.09,6.63,7.17C130.86,448.06,134.24,446.1,134.39,443.91Z"/><path d="M547.19,761.83c-.53-.33-3.24,1.23-3.29,2a12.88,12.88,0,0,0,1.19,6.38,16.31,16.31,0,0,0,4.53,5.06,5.73,5.73,0,0,0,4,.82c.82-.12,1.45-1.51,1.77-1.88-1.52-3.06-2.59-5.69-4.08-8.06A13.92,13.92,0,0,0,547.19,761.83Z"/><path d="M244.85,163.18c3,.35,10-4.31,9-5.48-2-2.26-5.06-3.63-8.78-6.1-1.59,2.28-3.34,3.85-3.85,5.75C240.43,160.15,241.32,162.76,244.85,163.18Z"/><path d="M375.38,654.19c.49-1.7,1.93-4,1.3-5a47.39,47.39,0,0,0-7.22-8.48c-.62-.61-2.73-.4-3.61.21s-1.9,2.8-1.53,3.26c2.84,3.59,6,6.94,9.07,10.36Z"/><path d="M676.1,596.83c-2.37,2.09-3.37,4.52-1.15,7.37,2.57,3.29,4.8,2.9,11.59-2.12C680.55,594.93,679.08,594.19,676.1,596.83Z"/><path d="M228,265.13c-.53.48-.47,2.73-.14,2.87,2.6,1.08,5.32,1.84,8,2.7.61-2.51,1.67-5,1.68-7.54,0-1.71-1.46-3.43-1.74-4C232.87,261.33,230.3,263.08,228,265.13Z"/><path d="M205.38,611.22c-2.09.33-3.74,3.42-5.58,5.31,1.93,1.45,3.9,4.12,5.78,4.05,2.25-.07,4.42-2.48,6.63-3.88l0-2C209.9,613.42,207.42,610.9,205.38,611.22Z"/><path d="M583.86,794.76c-1.19-1-3.16-1.08-4.78-1.57,0,2-.64,4.43.28,5.81,1.51,2.25,4,3.89,6.22,5.61a3.06,3.06,0,0,0,2.65.55c.85-.49,1.28-1.71,2.36-3.31A83.12,83.12,0,0,0,583.86,794.76Z"/><path d="M700.66,556.51c.33-1.55-2.27-3.71-4.57-7-2.42,3.47-4.94,5.6-5.15,7.93-.13,1.48,3.17,3.27,4.93,4.93C697.57,560.4,700.2,558.68,700.66,556.51Z"/><path d="M196.31,358.63a7.21,7.21,0,0,0,4.21,4.07c1.22.31,3.28-1.41,4.5-2.68a12.42,12.42,0,0,0,2.55-4.6c.34-1-.1-2.26-.18-3.33-3.47.92-6.25,1.25-8.58,2.43C197.52,355.18,195.94,357.66,196.31,358.63Z"/><path d="M741.43,630.78c-.63-.37-3.23.94-3.4,1.79-.38,1.93-.48,4.52.54,6,1.6,2.31,4.22,3.92,6.41,5.82l1.53-.52c-.42-3-.5-6.1-1.39-9A8.32,8.32,0,0,0,741.43,630.78Z"/><path d="M777.74,663.5c-1.09-1-3-1-4.49-1.5-.12,1.85-1,4.26-.2,5.45,1.65,2.39,4.21,4.19,6.53,6a3,3,0,0,0,2.65.52c.83-.53,1.21-1.77,2.16-3.33A88.67,88.67,0,0,0,777.74,663.5Z"/><path d="M647.11,241.8c2.15-.6,3.77-3.08,6.83-5.79-3-2.3-4.56-4.46-6.43-4.75-3.89-.6-5.22,2.82-5.3,5.76C642.13,239.68,643.84,242.72,647.11,241.8Z"/><path d="M563.71,709.74a11.39,11.39,0,0,0,1-3.47c0-.38-1.44-1.32-1.77-1.15a9.89,9.89,0,0,0-2.74,2.31c-.67.76-.91,2.19-1.69,2.54-4.62,2.1-4.63,5.73-4,9.67l1.9,1.12c1.9-2.6,3.84-5.17,5.68-7.81A16.46,16.46,0,0,0,563.71,709.74Z"/><path d="M393.48,105.84l1.82-1.16c-.6-5.14-3.25-9.43-6.67-13.31-.71-.81-2.08-1-3.15-1.53-.26,1.19-1.14,2.77-.68,3.5C387.52,97.62,390.55,101.7,393.48,105.84Z"/><path d="M347.2,642.83c-2.13-1.87-4.42-1.24-4.35,3.2,0,2.5,4.9,7.64,8,7.23.76-.1,2.1-2.19,1.86-2.6C351.13,647.89,349.55,644.89,347.2,642.83Z"/><path d="M126.89,128.32a4.31,4.31,0,0,0-.83,3c1.48,5.5,5.7,8.84,9.4,12.57l2.16-1.42c-2.73-4.54-5.4-9.12-8.25-13.57A3.09,3.09,0,0,0,126.89,128.32Z"/><path d="M690.11,236.4c3.57,1.19,4.62-2.59,4.55-4.92,0-1.95-2.19-3.85-4.2-7-2.2,2.91-4.68,4.78-4.46,6.25C686.32,232.83,688.22,235.77,690.11,236.4Z"/><path d="M337.52,667.22c.45-2.5.26-5.24-3.08-4.31-2.2.62-3.93,3-5.87,4.53,1.54,1.53,2.86,3.95,4.66,4.38C336.21,672.54,338.27,670.83,337.52,667.22Z"/><path d="M686.61,296.36c-1.42,2.29-3.24,4.46-4,6.95-.25.76,2.34,2.42,3.62,3.67,1.77-1.86,4-3.48,5.07-5.68.46-1-1.61-3.14-2.53-4.76Z"/><path d="M698,501.58l-5.14-8.82c-2.83,4.32-5,7.57-7.08,10.83l.53,1.06Z"/><path d="M222.47,605.56c.08-.11-2.52-3-2.87-2.84a46.74,46.74,0,0,0-7.58,5.42c-.1.09,1.73,2.45,3.44,4.86C218.35,610,220.53,607.9,222.47,605.56Z"/><path d="M313,712.38c-1.79.23-4.69-.13-5.17.78-1.34,2.57-1.7,5.66-2.44,8.55l2.41,1c1.85-1.73,4.1-3.22,5.41-5.3C313.89,716.25,313.07,714.1,313,712.38Z"/><path d="M777.11,586.86c-1.49,1.44-4,2.76-4.2,4.35-.2,1.76,1.75,3.77,2.76,5.67l2.2.1c1.15-1.81,3.25-3.68,3.15-5.42S778.51,588.42,777.11,586.86Z"/><path d="M600,233c.12,1.67,2.46,3.18,3.83,4.76,1.5-1.49,4.19-3,4.21-4.46,0-1.9-2.14-3.82-4.2-7.06C601.88,229.38,599.84,231.25,600,233Z"/><path d="M196.24,412.5l1.28-.52c-.35-2.55-.34-5.21-1.17-7.58a7.43,7.43,0,0,0-3.56-3.5c-.5-.27-2.68,1.15-2.82,2a7.11,7.11,0,0,0,.86,4.92C192.23,409.69,194.39,411,196.24,412.5Z"/><path d="M348.44,703a9.91,9.91,0,0,0-4.9,4.63c-.37.82,2.11,2.93,4.17,5.56,2.11-2.79,4.17-4.46,4.53-6.43C352.43,705.65,349.14,702.66,348.44,703Z"/><path d="M123.59,103.4l13.73,11.15c.25-5.43-8.1-12.37-12.83-12.37Z"/><path d="M260.11,479.08a4.92,4.92,0,0,0,2-1.47,8.75,8.75,0,0,0,.86-2.38,10.76,10.76,0,0,0-2.89-.83c-2.62,0-5.25.35-7.87.29a55.58,55.58,0,0,1-6.13-.8C247.72,477.35,257.55,480.18,260.11,479.08Z"/><path d="M183.84,340.76l11.39,4.57c-.38-3.41-.67-6-1-9.29l-10.42,3Z"/><path d="M163.64,249.59c0-.64,0-1.29-.08-1.93-1.75-1-3.66-3.07-5.22-2.84-1.8.28-3.31,2.55-4.94,4,1.87,1.34,3.61,3.33,5.67,3.76C160.33,252.79,162.1,250.65,163.64,249.59Z"/><path d="M557.05,794.47a2.1,2.1,0,0,0-.61,1.59c.45,2,.87,4.31,2.18,5.66,1.47,1.52,3.88,2.15,5.94,3,.19.08,1.07-.78,1.19-1.3C566.38,800.73,561.2,794.41,557.05,794.47Z"/><path d="M108.43,435.89c-1.32,1.5-3.65,3-3.67,4.52s2.12,3.32,4.11,6.1c2.08-2.71,4.54-4.73,4.18-5.7C112.33,438.87,110.06,437.5,108.43,435.89Z"/><path d="M520,141.19c.12-1.4.71-3,.28-4.17-1.34-3.8-4.53-5.12-8.12-5.61l-1.41,1.25a78.31,78.31,0,0,0,5.32,7.69C516.73,141.16,518.62,140.94,520,141.19Z"/><path d="M561,687l-4.38,4.92a54.27,54.27,0,0,0,6.39,4.91c.25.15,3.35-3,3.05-3.73C565.33,691.13,563.37,689.63,561,687Z"/><path d="M752.41,663.36c-.71.75-2.15,2-2,2.16a49.59,49.59,0,0,0,5.26,7.1c.75.81,2.42.77,4.93,1.47-1.11-2.69-1.3-4-2-4.77C756.63,667.22,754.47,665.33,752.41,663.36Z"/><path d="M712.7,474.55c0,1.43,2.39,2.93,3.72,4.4,1.69-1.57,4-2.89,4.81-4.83.36-.84-2.23-3-4.32-5.53C714.93,471.22,712.75,472.85,712.7,474.55Z"/><path d="M522.91,864.25c-4.12,1.78-3.95,5.44-3.27,10.22,4.09-2.15,7.59-3.76,7-8.4C526.59,865.27,523.8,863.86,522.91,864.25Z"/><path d="M660.77,575.11c-1.92,2-3.75,3.29-4.55,5.06-.25.54,2.79,3.63,3.49,3.36,2.35-.89,4.32-2.77,6.43-4.28Z"/><path d="M194.21,31.23c-1.31-5.07-10-11.72-15.25-10.49L193.17,32.4Z"/><path d="M810.74,496.21c1.55,1.37,2.91,3.41,4.69,3.87,1.14.3,2.89-1.71,5.57-3.48-3-2-4.71-3.82-6.62-4.09C813.37,492.36,812,494.89,810.74,496.21Z"/><path d="M825.36,509.53a12.48,12.48,0,0,0-4.25,5.22c-.27.72,2.78,3.77,3.39,3.52,1.92-.79,3.42-2.65,6.14-5C828,511.34,825.78,509.23,825.36,509.53Z"/><path d="M715.07,734.52c-1.29,2.23-1.66,5-2.41,7.53l2.08,1.28c1.9-1.83,4.1-3.47,5.57-5.61.6-.88-.37-2.83-.62-4.29C718.09,733.76,715.62,733.58,715.07,734.52Z"/><path d="M556.06,70.34c1.25-2.25,1.57-5,2.27-7.56l-2-1.14c-1.85,1.75-4.07,3.26-5.4,5.34-.66,1,.31,3.1.54,4.7C553.06,71.27,555.51,71.33,556.06,70.34Z"/><path d="M160.39,225.84c2.5-2.85,4.35-5.69,1.19-8.41-1-.82-4.72-.28-5.3.73C154,222.08,157.06,224,160.39,225.84Z"/><path d="M830.92,468.48l24.68,6.7c.3-.72.59-1.44.88-2.16-8.22-2.65-16.77-4-25.24-5.76Z"/><path d="M495.35,151.33c-1.27,1.53-3.7,3.22-3.51,4.55.23,1.74,2.53,3.21,3.94,4.79l4.78-4.39Z"/><path d="M180.55,552.87c-2.7-2.68-4.86-4.93-7.25-6.89-.17-.13-2.14,1.95-3.28,3,2.37,2.07,4.69,4.2,7.19,6.08C177.48,555.27,178.85,554,180.55,552.87Z"/><path d="M91.24,108.32c-1.82-6.1-3.68-10.68-8.51-13.85C81.28,99.51,84.05,104.17,91.24,108.32Z"/><path d="M751.74,179.26c.23-1.11-1.59-3.54-2.88-3.87-3-.79-4.71,1.51-4.64,4.23,0,1.56,1.58,3.08,3.2,6C749.54,182.67,751.37,181.12,751.74,179.26Z"/><path d="M389.89,743.19c-1.91.21-3.66,1.71-5.48,2.65,1.85,1.45,3.53,3.36,5.62,4.11,1,.35,2.74-1.62,4.14-2.54l0-1.93C392.72,744.66,391.2,743,389.89,743.19Z"/><path d="M290.81,453.61c-1,5.29-1.94,10.58-3,16.61C293.8,465.13,295.18,456.16,290.81,453.61Z"/><path d="M125.76,670.78c-2.65-1.81-4.41-3.75-5.22-3.41a12,12,0,0,0-4.65,4.21c-.23.32,2.1,3.36,2.64,3.19C120.65,674.11,122.52,672.67,125.76,670.78Z"/><path d="M174.08,746.42c.38,1.77,1.84,4.25,3.28,4.57,1.28.29,3.12-1.94,6-4-2.85-1.89-4.36-3.56-6-3.72C176.3,743.21,173.9,745.59,174.08,746.42Z"/><path d="M151.8,293.25c-2.82-2-4.33-3.83-6.06-4.08-1.12-.15-2.56,2-3.86,3.1,1.34,1.46,2.45,3.62,4.08,4.14C147.1,296.77,149,294.89,151.8,293.25Z"/><path d="M799.41,212a14,14,0,0,0-4.28,4.66c-.24.44,2.48,3.25,2.69,3.12a58.22,58.22,0,0,0,6.27-5.1C801.66,213.25,799.89,211.69,799.41,212Z"/><path d="M122.5,42.33c1,.4,2.87-1.51,4.36-2.38l0-1.87c-1.73-1.14-3.36-2.57-5.26-3.22-.5-.17-2.8,2.37-2.57,3.12C119.62,39.69,121,41.72,122.5,42.33Z"/><path d="M799.74,716.55c1.35,1.33,2.56,3.45,4.09,3.73,1.2.21,2.81-1.87,5.31-3.73-2.55-1.68-4.11-3.52-5.48-3.39S801,715.34,799.74,716.55Z"/><path d="M855.89,129.75c-1.7,1.5-3.66,2.82-4.93,4.63-.36.51,1.31,2.44,2.85,5.11,2-3,3.5-4.7,4.34-6.74C858.39,132.16,856.69,130.77,855.89,129.75Z"/><path d="M678.92,205.7c1.73-.4,3.15-2.14,5.6-4-2.28-1.68-4-3.71-4.82-3.39a7.61,7.61,0,0,0-3.91,4.06C675.53,203.05,678.11,205.89,678.92,205.7Z"/><path d="M67.82,125.28c.82-1.52,2.63-3.42,2.23-4.48-.63-1.65-2.76-2.74-4.25-4.07-1,1.29-2.8,2.67-2.69,3.85.17,1.67,1.78,3.19,2.77,4.78Z"/><path d="M526,798.85c0-1.48-1.83-2.93-2.85-4.4-1.39,1.29-3.51,2.38-3.92,3.93-.34,1.24,1.41,3,3,6C524.2,801.69,526,800.25,526,798.85Z"/><path d="M764.7,244c.06-1.15-2.16-2.41-3.35-3.62-1.37,1.62-3.2,3.08-3.89,5-.28.75,1.93,2.42,3.87,4.68C762.93,247.32,764.6,245.68,764.7,244Z"/><path d="M267,218.54c.08,1.24,2.53,3.31,3.82,3.23,1.47-.09,2.83-2.15,5.09-4.1-2.62-1.59-4.33-3.4-6-3.38C268.79,214.29,266.88,217.1,267,218.54Z"/><path d="M673.41,591.4c-.83-1.32-1.43-3.52-2.55-3.83-5.52-1.5-3.71,4.67-6.47,6.22.26.55.53,1.1.8,1.65Z"/><path d="M696.85,766.17c-1.5.76-3.33,2.57-3.37,4s2,2.87,3.09,4.31l4.7-5.29C699.27,767.76,697.49,765.84,696.85,766.17Z"/><path d="M215.32,465.47c-1.12,1.22-3.14,2.46-3.11,3.66,0,1.44,1.81,2.83,3.52,5.19,1.75-2.31,3.78-4,3.47-4.8C218.57,467.91,216.68,466.79,215.32,465.47Z"/><path d="M757.45,519.67c1,.18,2.45-1.85,4.63-3.67-2.38-1.65-3.92-3.53-5.27-3.4s-3.21,2.54-3.07,3.74S756,519.42,757.45,519.67Z"/><path d="M195,296c-2.71-1.28-5.41-3.08-8.66-1.46-.67.33-.38,2.58-.53,3.94h8.87Z"/><path d="M501.32,700.11c1.32-1.2,3.32-2.2,3.75-3.66.3-1-1.53-2.69-3.07-5.08-1.69,2.23-3.44,3.54-3.43,4.83S500.33,698.81,501.32,700.11Z"/><path d="M172.69,488.7a57,57,0,0,0-3.85,5.75c-.23.44.95,1.62,1.49,2.46l6.51-5.28Z"/><path d="M386,680.72c1.73-.74,3.14-2.2,5.48-4-2.19-1.52-4.05-3.33-4.5-3a11.15,11.15,0,0,0-3.64,4.37C383.09,678.46,385.49,680.92,386,680.72Z"/><path d="M687,569.08c1.14,1.2,2.26,3.34,3.44,3.38,1.47,0,3-1.64,5.48-3.19-2.34-1.84-3.84-3.87-4.91-3.67C689.49,565.89,688.3,567.84,687,569.08Z"/><path d="M307,291.66c0,1.56,1.53,3.1,3.22,6.09,1.66-3,3.15-4.54,3.16-6.1,0-1.07-2.06-3-3.17-3S307,290.59,307,291.66Z"/><path d="M97.4,164.65c-1.21,1.26-3.08,2.37-3.41,3.83-.23,1.05,1.59,2.56,3.37,5.12,1.56-2.58,3.12-4,3-5.2C100.16,167.05,98.44,165.89,97.4,164.65Z"/><path d="M206.81,275.14c-2-1.43-3.63-3.22-4.37-2.91-1.5.6-3.3,2.23-3.52,3.66-.15,1,2.32,3.49,3.25,3.32C203.65,278.94,204.83,277,206.81,275.14Z"/><path d="M185.79,332.67c.84.43,2.22-.17,3.36-.32,1,.18,2,.67,2.89.46a3.06,3.06,0,0,0,2-1.75c.18-.73-.65-2.46-.94-2.44-2.95.21-5.87.7-8.8,1.1C184.8,330.75,185,332.26,185.79,332.67Z"/><path d="M176.84,155.37c1,.27,2.54-1.64,4.72-3.2l-4.74-4.41c-1.08,1.31-3,2.61-3,3.92S175.52,155,176.84,155.37Z"/><path d="M791.08,564.52l18.68,5,.55-2.13-18.93-4.12Z"/><path d="M267.16,496c-.39-.21-1.91,1.71-2.91,2.65l4.77,5,3.27-3.69A34.38,34.38,0,0,0,267.16,496Z"/><path d="M180.62,104.9c1.19,1.19,2.2,2.91,3.63,3.37.87.29,2.38-1.34,4.48-2.66-2.14-1.65-3.38-3.26-4.79-3.44C183,102.05,181.74,103.92,180.62,104.9Z"/><path d="M126.41,462.47l1.49-1.83a30.83,30.83,0,0,0-3.3-5.25c-.64-.7-2.44-.82-3.46-.48-.62.21-1.34,2.43-1,2.68C122.05,459.37,124.27,460.88,126.41,462.47Z"/><path d="M333,264.19c-.74-4.37-1.37-8-2-11.71C327.75,258,328.56,262,333,264.19Z"/><path d="M210,328.53c0-1.3-1.67-2.57-3.2-4.63-1.66,2-3.58,3.54-3.32,4.27a5.71,5.71,0,0,0,3.5,3.25C207.82,331.61,210.06,329.55,210,328.53Z"/><path d="M258.05,720.86c.34,1.42,1.92,2.55,3,3.8,1-1.31,2.66-2.63,2.65-3.94s-1.71-2.63-3.49-5.05C259,718.26,257.78,719.74,258.05,720.86Z"/><path d="M308.93,202.47c1,.15,2.33-1.55,4.57-3.21-2.47-1.39-3.89-2.8-5.27-2.76-1,0-2,2-2.93,3.06C306.5,200.6,307.6,202.27,308.93,202.47Z"/><path d="M698,409.8c-1.66.94-2.94,2.54-4.37,3.88.82.75,1.83,2.26,2.41,2.11,1.8-.47,3.45-1.57,6.38-3C700,411.11,698.45,409.52,698,409.8Z"/><path d="M572.1,774c-1.36.3-2.4,2-3.58,3.15,1.17,1.1,2.22,2.8,3.56,3.09.9.19,2.23-1.62,4-3C574.31,775.67,573,773.77,572.1,774Z"/><path d="M245.5,633.4c.18,1.33,1.91,2.47,3,3.69,1.06-1,2.83-2,3-3.15s-1.33-2.53-2.55-4.57C247.29,631.18,245.37,632.42,245.5,633.4Z"/><path d="M808.71,279.18a26.19,26.19,0,0,0,3.7-4.07c.26-.42-1.11-1.84-2.37-3.77-1.78,2.17-3.2,3.46-3.89,5.05C806,276.86,807.8,278.23,808.71,279.18Z"/><path d="M774.55,377.31c.68-1.95,1.7-3.87,1.89-5.86.09-1-1.38-2.08-2.15-3.13-.8,1.12-2.14,2.18-2.26,3.36-.18,1.69.55,3.47.89,5.21Z"/><path d="M579.48,245.52a7,7,0,0,0-3.66,3.14c-.26.49,1.74,3.12,2.36,3,1.52-.3,2.84-1.63,5-3C581.45,247.13,580.13,245.31,579.48,245.52Z"/><path d="M700.08,485l-6,7.94c9.6,1.95,5-5,7.13-7.26Z"/><path d="M425.16,99.55q-2.36-6.39-4.72-12.8l-2.44.79,5.75,12.56Z"/><path d="M481.2,17.36,476.15,4.64l-2.19.9q2.81,6.19,5.63,12.39Z"/><path d="M22.68,357.17l-11.5-2.62c-.17.84-.35,1.69-.52,2.53l11.61,2.21Z"/><path d="M215.26,43.83,221,56.2C221.69,51.2,218.42,44.35,215.26,43.83Z"/><path d="M178.8,355.79a1.31,1.31,0,0,0,.15.12l-.11-.13Z"/><path d="M182.57,350.87l-3.66-1.44c-.27,1.76-.59,3.52-.76,5.29,0,.33.4.7.69,1.06.43-.19,1-.26,1.23-.58C181,353.8,181.75,352.32,182.57,350.87Z"/><path d="M110.13,429.5c-1.82-1.52-3-3.26-4.13-3.23s-2.66,2-2.72,3.14c0,.91,1.81,2.47,3,2.71C107.18,432.29,108.39,430.76,110.13,429.5Z"/><path d="M635.75,114.53l-3.12-3.59c-1.15,1.19-2.6,2.24-3.27,3.65-.22.47,1.63,2.71,2.47,2.68C633,117.23,634.08,115.78,635.75,114.53Z"/><path d="M219.22,483.24c1,.17,2.22-1.17,4.44-2.5-2.32-1.24-3.54-2.44-4.64-2.34s-2.21,1.46-3.3,2.27C216.88,481.58,217.94,483,219.22,483.24Z"/><path d="M140.36,237.93l-7.18.54c.15,1.07.3,2.14.46,3.21l7-1.13C140.57,239.68,140.47,238.81,140.36,237.93Z"/><path d="M256.76,211.12l2.34,0-.81-8.91-2.52.24Z"/><path d="M371.35,712.86l4.1,7.63,2.4-1.26-4.36-7.58Z"/><path d="M720.53,587.77c.85.81,1.77,2.36,2.53,2.28,1.3-.13,2.49-1.28,4.64-2.53-2-1.4-3.26-3-4-2.72C722.47,585.2,721.58,586.72,720.53,587.77Z"/><path d="M166.11,332.64c.09,1.17,1.21,2.26,1.9,3.38l4.06-2.69c-1.53-1.27-2.42-2.57-3.36-2.61S166.07,332,166.11,332.64Z"/><path d="M699.13,477.06c-3.73-.83-7.49-1.56-11.24-2.33-.17.51-.33,1-.5,1.53l13,3C699.6,477.82,699.43,477.13,699.13,477.06Z"/><path d="M288.89,230.91c-.75,1.08-1.95,2.1-2.1,3.26-.11.8,1.25,1.78,2.55,3.43,1.21-1.93,2.6-3.16,2.42-4.1S289.91,231.76,288.89,230.91Z"/><path d="M464.56,200.13c.38.22,2.47-1.24,2.5-2,.05-1.18-1-2.4-1.93-4.4-1.52,1.58-3.14,2.58-3,3.33A5.11,5.11,0,0,0,464.56,200.13Z"/><path d="M477.89,217.22l1.87-1.74-4.13-4.89a29,29,0,0,0-2.09,2.17C474.89,214.33,476.41,215.76,477.89,217.22Z"/><path d="M611.05,719.06a2.69,2.69,0,0,0,2.2,1.44,3.66,3.66,0,0,0,2.24-1.92,35,35,0,0,0,1.44-5.54,48.36,48.36,0,0,0-5,3.52A2.89,2.89,0,0,0,611.05,719.06Z"/><path d="M740.46,617.35c.91.09,2-1.37,3.8-2.78-1.89-1.23-2.94-2.42-4-2.43-.75,0-2.22,1.69-2.11,2.45C738.31,615.66,739.55,617.25,740.46,617.35Z"/><path d="M548.87,745.65c-.18-1-1.75-1.73-2.71-2.58-.73.91-2,1.83-2,2.74,0,1.08,1.15,2.15,2.47,4.36C547.82,747.87,549,746.64,548.87,745.65Z"/><path d="M126.94,383.65c-.81-.06-2.58,1.82-2.46,2.6a4.41,4.41,0,0,0,2.75,2.7c.67.21,1.85-1.13,3.5-2.25C129,385.23,128,383.74,126.94,383.65Z"/><path d="M280.69,469.23l-4.06,7,1.12,1.21,4.6-2.32Z"/><path d="M610.13,229.47c-.19.88.87,2,1.85,4,1.45-1.9,2.71-2.89,2.87-4,.1-.71-1.5-2.33-2.29-2.31A3.5,3.5,0,0,0,610.13,229.47Z"/><path d="M258.88,582.64c.94-1,2.52-1.87,2.63-2.92.09-.88-1.53-1.94-3-3.56-1.19,1.67-2.62,2.87-2.4,3.52C256.54,580.84,257.92,581.67,258.88,582.64Z"/><path d="M219.77,182.1l2.51.31c.24-2.13.51-4.26.63-6.4,0-.06-1.62-.21-2.49-.32C220.2,177.83,220,180,219.77,182.1Z"/><path d="M623.7,728.17c-1,.05-1.84,1.42-2.76,2.21,1,.85,1.86,2,3,2.43.53.2,1.58-1,3-2C625.49,729.54,624.56,728.13,623.7,728.17Z"/></g></g></svg>