<svg xmlns="http://www.w3.org/2000/svg" viewBox="0 0 323.87 295.07"><g id="Capa_2" data-name="Capa 2"><g id="Capa_7" data-name="Capa 7"><path d="M121.25,208.65s0,.06,0,.1l0-.08Z"/><path d="M290.31,118.28a36.61,36.61,0,0,1-5.05,1.44c-2.41.39-3.23-.38-3.38-2.75a3.93,3.93,0,0,1,1.44-3.82c1-.72,2.13-1.52,1.45-3.05-1.66-.94-3.7.42-5.13-.84s-.58-3.32-.73-5c-.11-1.37-1-1.76-2.23-2-3.79-.6-3.78-.65-3.7-4.76,0-.26-.28-.52-.64-1.14-1.68,1.27-3.08,2.17-5.5.4-3.59-2.64.29-4.69.1-6.85a7.08,7.08,0,0,0-1.28-.24,3.4,3.4,0,0,0-2,1.25c-2.49,2.36-2.64,2.36-4.58-.27-.61-.83-.64-2-2.36-1.58-3.69.82-3.72.66-3.17-3.18a4.2,4.2,0,0,0,.08-.47,1.39,1.39,0,0,0-.84-1.53,1.41,1.41,0,0,0-1.68.56,9.66,9.66,0,0,0-.8,1.72c-1,2.22-3,2.2-4.89,1.73s-3.84-2.12-3.37-4c.41-1.63.15-4.38,2.78-4.85,6.13-1.11,9.72-5.86,14.08-9.52,1.26-1.05,1.19-2.07.46-3.32a6.36,6.36,0,0,1-.51-5.55c.48-1.32,1.2-3,2.93-2.52,1.41.41.33,1.91.38,2.93a8.77,8.77,0,0,0,.45,1.57c2.66-1.31,5.35-3.62,7.91,0a1,1,0,0,0,.9.13c3.33-1.51,6.14.17,10.18,2.36-2.46-5,.81-5.67,3.37-6.93,1-.48,2.5-1.18,2.59-1.93.42-3.37,3.11-2.82,5.45-3.22a25.45,25.45,0,0,1-1.8-10c.14-3.25.72-6.76-2.94-8.79-4.28-7.74-12-7.83-19.26-8a10.46,10.46,0,0,0-7.49,3.49c-2.38,3-5.28,6-6,10.22-.4,2.43-2.2,3.24-4.53,2.46-.91-.3-1.74-.86-2.66-1.08-7.31-1.82-14.09-3.26-21,2.67-4.43,3.81-7.19,7.37-7.06,13,.06,2.52-2.32,4.57-1.75,6.77.61,2.37,2.48,4.42,3.76,6.62.11.2,0,.53,0,.72-1.62,1.31-3.67,1.23-5.41,2-2.37,1.12-4.83,2.37-5.11,5.22-.31,3.21-2.16,4-4.8,5.3-4.25,2.08-7.57,3.22-10.31-1.73a1.22,1.22,0,0,0-.34-.34c-1.73-1.35-3-1-3.5,1.08a14.22,14.22,0,0,0-.18,2.37c-.25,3.73-.94,4.16-4.42,2.72-.74-.3-1.43-.72-2.16-1-2.79-1.18-3.09-1-3.47,2.19-.46,3.82-.67,3.92-4.46,3-2.77-.71-5.32-2.17-8.29-2.22-4.24-.07-4.69-.51-4.58-4.62.06-2.28.22-4.46-2.21-5.72-2.36,2.53-3,3-3.7,2.5-1.43-1-.64-2.62-.83-4a7.09,7.09,0,0,0-.13-.94c-.22-.79-.53-1.55-1.44-1.71a2.11,2.11,0,0,0-2.35,1.24,11.18,11.18,0,0,0-.6,1.8c-1.21,3.82-1.21,3.83-5.31,3.81-1.12,0-2.25-.18-3.36-.07-4.14.41-6.69-1.29-7.75-5.38-.36-1.38-.74-3-2.68-3.31-.6,1.55,0,2.7.46,3.89,2.7,7.75,2.69,7.75-5.24,10.5-2.61.91-5.33,1.74-7.88.2-5.91-3.57-11-.92-16,2a5.56,5.56,0,0,0-2.42,2.84c-1.27,3.16-3.92,3.8-6.57,1.74-.73-.57-1-1.65-2.12-1.82-4.6-.7-8.79,1-13.11,2.11-2.39.63-3.09,2.26-3.91,4.17a6.28,6.28,0,0,1-2,2c-1.44,1.15-2,2.08-.52,3.87,1.95,2.29,1.66,3.5-1,4.7A4.49,4.49,0,0,0,72,111.87c-.67,1.51-2.1,2.36-3.46,3.22-2.09,1.34-2.83,0-3.35-3-1.35,6.29-5.44,7.23-9.63,8-3.51.66-3.93,1-4.28,4.47-.18,1.74-.09,3.51-.19,5.27-.13,2.15-.75,3.83-3.49,3.26a1.44,1.44,0,0,0-1.72.53c-.29.93.63,1.29,1,1.93a9.42,9.42,0,0,1,1.31,2.51c.74,3.16-.49,5.26-3.65,6.2A1.86,1.86,0,0,0,43.1,146c0,.62.54,1.36,1.18,1.32,2.8-.16,3.1,1.71,3.63,3.79a8.83,8.83,0,0,0,2.28,3.6c2.54,2.71,4.79,5.49,3.86,9.84,6.1-.89,5.1,3.28,5,6.6,2.08.12,3.19-2.74,4.58-1.45a10.62,10.62,0,0,0,7.34,2.73c1.48.07,1.72,1.21,1,2.45-.33.54-.74,1-1.11,1.56s-.65,1.19-.23,1.76c.63.87,1.41.33,2.12,0a6.13,6.13,0,0,0,2.52-2.16l5.09-3.48,1.07-1a7.75,7.75,0,0,1,4.14-3c.68-.25,1.65-.84,1.6,1.06,0,1,.75,1.82-.79,2.11-1.37.26-2.86-.12-4.15.7.11.52-.19,1.37.86,1.17,2-.39,4.09-.49,6.13-.95,3.87-.87,7.62,2.86,6.5,6.68-.88,3,.73,2.29,2.28,2.17,0-.3.08-.61.15-.9.16-.63-.23-1.72,1-1.43.75.16.8.84.57,1.44a15.33,15.33,0,0,1-.83,1.61c-.37,2.31-2.66,2.06-4.06,2.67-1.57.69-2.52,1.18-2.13,3A2.24,2.24,0,0,0,95,190c1.56-.14,2-1.46,1.8-2.85-.15-1.23.07-2.52,1.38-2.46,3.13.14,5.36-1.75,7.87-3,1.72-.88,2.85-.49,3.77,1.31-2,1.26-4.5.64-5.81,2.58-.53.79-1.46,1.84-.43,2.45,1.72,1,3.66,2,5.8,1.14,2.85-1.18,2.45-1,3.89,1.49,1.13,1.94.13,2.83-.58,4.14-.38.7-.76,1.58-.07,2.21,1,.89,1.69,0,2.42-.57.42-.34.75-1.12,1.56-.44,1.7,2.8,2.75,5.43-.14,8.46-1.66,1.75-2.11,4.4-2.5,6.77,1.73.74,2.43-.27,3.24-1,1.16-1,2.23-2.31,4-1.52-.13-.77.07-1.2.94-1-.67-1.66-.29-3.12.63-4.76a14.58,14.58,0,0,1,4.2,5.59c.63,1.47,1.21,3,1.87,4.41,3,6.56,7.13,8.7,14.25,7.33a29.66,29.66,0,0,0,8.91-3.34c2.09-1.16,3.39-2.48,3.73-5.07.41-3.2,2.27-3.83,5.11-2.05,3.11,1.94,4.77,5.08,6.41,8.2a1.81,1.81,0,0,1-.94,2.76c-3.07,1.4-2.15,4-1.72,6.23.46,2.38,2.81,2.39,4.63,2.61a13.22,13.22,0,0,0,6.28-.51c.06-2.85-1-5.32-2.12-7.77a44.87,44.87,0,0,0-9-12.91c-1-1-2.24-2-1.36-3.7,1.42-2.67,2.88-5.31,4.44-7.9.38-.63,1.83-1.13,1.87-.29.11,2.17,3.81,1.63,2.92,4.31a1,1,0,0,0,1.09,1.24c1.78-.08,2.36,1.42,3.33,2.4s2,2.38,3.84,2.41a26.09,26.09,0,0,0,.75-3.93c0-.93-.4-2.19-1.44-2.22-3.47-.07-4.51-3-6.32-5.26,2.81,2.71,6.27,2.36,9.62,2.41,1.59,0,2.14,1.11,1.72,2.17-1.14,2.87.93,5.44.51,8.12s1.46,4.24,3,5.45a51.35,51.35,0,0,0,8.93,5.37c3.83,1.9,7.34-1.32,11.11-1.1.05,0,.18-.27.17-.42-.17-2.84,3.32-1,4.21-3.58,1-2.73,3.12,1.37,5,.52.25-.11.63.14.94.1,2-.27,3.38.68,4.87,2.08a19.07,19.07,0,0,1,2.5,3.35c1.24,1.77,3.32,1.91,5.1,1.85,1.18,0,2.65-6.74,2-8.39-.29-.71-1-1.27-.62-2.16.54-1.39,4.86-4.23,6.45-4,2.38.37,4.67-2.63,7.12-.18.06.06.9-.84,1.47-1.07,1.41-.59,2.79-.87,3.59,1a5.54,5.54,0,0,0,1.11,1.54c.4.43.9,1,1.57.45a2.54,2.54,0,0,0,.72-1.13c-2.22-2.16,1-3.17,1-4.89,0-2.11,1.13-2.53,2.68-.92a5.5,5.5,0,0,1,.54.79c.79,1.1,1.62.82,2.3-.06s.1-1.32-.68-1.79c-1.36-.83-2.62-1.83-3.95-2.7-1-.66-1.9-1.53-1.37-2.73.95-2.14,0-4.06-.27-6.08-.49-3-.29-3.13,2.87-2.27.75.21,1-.24,1.57-.55,1.42-.85,3.19-1.12,4.38-2.34a2,2,0,0,1,2.46-.51c2,.69,1.77-.23.78-1.42-.39-.48-.88-1.05,0-1.49a2.15,2.15,0,0,1,1.39-.16,2.37,2.37,0,0,1,1.88,2.45c-.51,2.79,1.28,3.78,3,5.07,1.4-2.43-.64-5.09.94-7.24,2.09.53,1.57,3.27,3.56,3.65a4.32,4.32,0,0,1-.07-1.38c.89-3.59.23-4.74-3.29-5.8a33.12,33.12,0,0,1-4.48-1.6c-1.53-.71-3.4-1.33-1.7-3.77.79-1.13-.47-2.35-.88-3.51-.49-1.41-1.94-2.66-.87-4.37,2.86-.28,5.2.4,6.52,3.14,1,0,1.95-.13,1.54-1.6-.3-1-1.25-1.37-2-2-2.67-2.34-2.16-5,1.26-5.92,1.62-.46,3.49-.92,4.92.65.54.6.94,1.33,1.79.42-2.24-3.19-2-3.21-2.25-5.91s1-3.89,3.33-4.94c1.75-.78,2.57-4.57,1.48-5.19-2.12-1.2-1.21-2.65-.7-4.08s1.75-1.13,2.85-1.13c2.2,0,1.57,1.89,2.17,3.41.83-3.86,4.54-1.26,6.36-3-1.2-1.38-2.73-1.49-4-2-6.09-2.41-6.11-2.37-6.27-8.81-.09-3.72,1.61-6,5.23-6.8,1.55-.35,3.15-.51,4.69-.87.9-.21,1.92-.5,1.46-1.9C293.24,116.94,291.81,117.81,290.31,118.28ZM100.6,131.79c-.34,0-.8-.55-1-.95s.16-.84.59-1.1c1.62-1,3.22-2,5.35-3.25.14,1.88-.87,3.81,1.24,5.34C104.75,131.83,102.67,131.88,100.6,131.79Zm8.54-5.75a24.1,24.1,0,0,1-3.14-1.48c.91-1.49,2.25-1,3.15-1.63s1.77,0,2.42.7a.93.93,0,0,1,0,1.28C110.9,125.62,110.17,126.37,109.14,126ZM112.08,185c-.34.32-.64.68-1,1.1a6.88,6.88,0,0,1-.4-1.44c0-.76-.13-1.67,1-1.7.28,0,.74.14.83.34A1.44,1.44,0,0,1,112.08,185Zm6.16-68.56a13.91,13.91,0,0,1-2.81,0c-1.23,0-2.29.26-1.9,1.88.17.72.88,1.51-.18,2a2.08,2.08,0,0,1-2.58-.6c-.43-.47-.72-1-1.14-1.52s-1.15-1-1.62-.39c-3.11,3.84-5-.28-7.78-.77,1.39-3.12,4-4.54,5.84-6.69.75-.9,2.08-.27,3.15,0,3,.9,5.79,2.63,9.06,2.77a1.47,1.47,0,0,1,1.41,1.61A1.75,1.75,0,0,1,118.24,116.39ZM238.41,88.58c-.75.34-1.18-.25-1.56-.72s-.65-1.09-1-1.6c-1.32-1.82-2-1.85-2.72.21-.62,1.77-1.35,3.17-3.21,3.67a2.15,2.15,0,0,1-1.79-2c-.51-4,4-9,7.81-8.8.89,0,1.66.34,1.6,1.31-.14,2.18,1,4,1.58,5.94C239.33,87.34,239.32,88.17,238.41,88.58Zm19.82,91.08a1.22,1.22,0,0,1-.56-1.58c.13-.39.27-.93,1-.63a1.22,1.22,0,0,1,.9,1.35A.93.93,0,0,1,258.23,179.66Z"/><path d="M273,167.44l0-.05h0Z"/><path d="M102.6,69.13a17.18,17.18,0,0,0,3.52,11.19c2.11,2.71,4.51,4.38,8.12,3.81a7,7,0,0,1,2.35.38,8,8,0,0,0,6.72-1.82c3.72-2.81,5.23-6.73,5.59-11.17a17.46,17.46,0,0,0-1.44-6.09c-3-6.79-9.72-9.09-16.29-5.6A22.71,22.71,0,0,0,103.52,67,4.22,4.22,0,0,0,102.6,69.13Z"/><path d="M167.21,77.78c2.41.89,5,2.66,7.54,1.52,1.91-.86,2.46-8.46,1.21-10.81a6.4,6.4,0,0,0-5.08-3.78c-3.77,0-6.78,2.76-7.61,6.59C162.56,74.58,163.47,76.38,167.21,77.78Z"/><path d="M40.79,124.9a4.84,4.84,0,0,0,6.7-1.21c1.45-1.8,1-3.72-1.46-5.59a6.93,6.93,0,0,0-4.11-1.69c-2.82-.08-4.35,1.62-3.87,4.21A6.52,6.52,0,0,0,40.79,124.9Z"/><path d="M216.75,225.3c-1.75-1.17-3.94-1.32-5.09.57-1.31,2.14-2.44,2-4.11.76a1.94,1.94,0,0,0-2.39-.19c2.08,2.63,4.27,4.82,7.83,5.37,2.28.36,3.67-.35,4.64-2.29C218.45,227.88,218.26,226.31,216.75,225.3Z"/><path d="M115.81,224.53c-2.19-.26-3.85,1.17-4.08,3.56-.12,1.21,0,2.45,0,4.16,1.1-.93,2.26-.61,3.43-.59a3.55,3.55,0,0,0,3.59-4A3,3,0,0,0,115.81,224.53Z"/><path d="M285,149.51c-.9-.54-1.4-.08-1.86.68-1,1.68-.38,3.69-1.15,5.47-.63,1.44.4,2.45,1.82,2.68,1.91.3,4.89-1.54,4.9-2.87C288.74,154.74,285.77,150,285,149.51Z"/><path d="M138.36,53.18c0,1-.3,2.45,1.29,2.62,1.23.12,2-.82,2.52-1.85a5.68,5.68,0,0,0,.35-1.55c-.26-2.51-.27-4.8-2.32-6.31a1.39,1.39,0,0,0-1.73-.24c-.55.38-.93,1.21-.44,1.61C140.25,49.31,138.27,51.29,138.36,53.18Z"/><path d="M310.1,96.13c-1-2.07-3.53-2.4-4.56-.84a3.69,3.69,0,0,0-.11,4c.71,1.34,2,1.85,3.13,1,1.52-1,2.62.35,4.3-.07C310.93,99.43,310.82,97.64,310.1,96.13Z"/><path d="M93.67,76.06c2,1.13,1.24,3.36,2.24,4.81a5.33,5.33,0,0,0,5.41,2.58,9.58,9.58,0,0,0-3.89-4.26c-2.27-1.18.16-3.28-1.19-4.54-.58-.54-1.11-1.2-2-.6C93.56,74.55,93.15,75.78,93.67,76.06Z"/><path d="M201.32,251.64c.15,2.81,1.46,4.58,2.83,6.3a1.39,1.39,0,0,0,1.61.67,1.82,1.82,0,0,0,1.13-1.87C206.91,254.46,205.19,252.82,201.32,251.64Z"/><path d="M39.89,192.81c-1.46.22-2.88.9-2.8,2.68A2.41,2.41,0,0,0,39.45,198c1.51.08,3.85-1.92,3.76-3.14A2.91,2.91,0,0,0,39.89,192.81Z"/><path d="M122.91,264.26c3.53-1.85,3.06-4.95,3-8.19C121.89,258.45,121.39,259.88,122.91,264.26Z"/><path d="M121.27,208.75h.06a.22.22,0,0,0,0-.08Z"/><path d="M121.33,208.75c.38,1.88-.77,3.79.15,6.31.69-.94,1-1.84,1.6-2.08,2.7-1.13,3-2.08,1.07-3.92a12.54,12.54,0,0,0-1.86-1.24C122.29,208.45,122.06,208.85,121.33,208.75Z"/><path d="M122.29,207.82s0-.06,0-.1l-.11,0,0,.07Z"/><path d="M272.54,200.71c.41-1.69.75-3.47-.94-4.81-2.43,5.66-2,8.24,2.2,10.08C272.65,204.06,272.11,202.48,272.54,200.71Z"/><path d="M160.9,19c1.55-.53,1.72-2,1.83-3.37a2.14,2.14,0,0,0-2.47-2.32c-1.48.07-2.87.6-2.91,2.44C157.31,17.1,159.76,19.4,160.9,19Z"/><path d="M38.61,144.8c.1.65.32,1.21,1.11,1.26a.89.89,0,0,0,1-.81c.16-2.82,2.28-5.23,1.71-9.06C39.62,139.09,38.1,141.52,38.61,144.8Z"/><path d="M103.84,191.87c-1.56.12-3.08.6-3.23,2.26-.14,1.43,1.26,2.07,2.52,2.26s3.55-2,3.35-2.9C106.18,192.1,104.85,192.19,103.84,191.87Z"/><path d="M132.77,25.13a.86.86,0,0,0,1.23-.22c1.21-1.74.95-3.51-.05-5.26a3.32,3.32,0,0,0-2-1.53c-1.08.93-.81,1.92-.76,2.8C131.32,22.46,131.39,24.07,132.77,25.13Z"/><path d="M261.89,225.75c.18-.7-1.79-.57-2.89-.08.43,1.21.85,2.4,1.26,3.6.11.3.2.61.31.91.23.61.66,1.26,1.31,1.08s1-.76,1.3-1.27C264.38,228.21,261.42,227.66,261.89,225.75Z"/><path d="M175.66,51.11c1.62.2,3.33-1.74,3.42-3.75,0-1-.21-1.86-1.41-2-1.65-.17-3.2,1.58-3.43,3.75C174.12,50.25,174.59,51,175.66,51.11Z"/><path d="M69.68,110.55c-.18-2.84-1.66-4.27-3.21-5.64-.47-.42-1.11-.75-1.66-.16a1.41,1.41,0,0,0-.23,1.78A13.4,13.4,0,0,0,69.68,110.55Z"/><path d="M161.09,5.82a1.1,1.1,0,0,0,1.63-.32c1.36-1.63,1-3-1.51-5.5C159.66,2.68,159.6,4.77,161.09,5.82Z"/><path d="M208,248.92c2.38,1,4.77,1.71,7.32-.27A5.78,5.78,0,0,0,208,248.92Z"/><path d="M157.47,263.08c.31-4-1.3-6.59-2.28-9.31A13.17,13.17,0,0,0,157.47,263.08Z"/><path d="M213.48,295c2.4-1.13,4.49-2.5,4.48-6C214.53,289.87,214.29,292.63,213.48,295Z"/><path d="M213.44,295.07a.49.49,0,0,0,0-.11l-.1.05Z"/><path d="M122.3,51.49c1-1.91.5-3.39-.2-4.81-.35-.72-1-1.33-1.89-.94a1.26,1.26,0,0,0-.52,1.63C120.13,48.86,120.47,50.42,122.3,51.49Z"/><path d="M300.24,41.07c-1.49.14-3.27,2-3.09,3.25a1.47,1.47,0,0,0,1.66,1.29c1.69,0,3.36-1.47,3.12-2.78A1.89,1.89,0,0,0,300.24,41.07Z"/><path d="M78.77,22.53c.84,0,1.27-.34,1.28-1.1,0-1.63-2.31-4-4-3.95A1.13,1.13,0,0,0,74.84,19,5.42,5.42,0,0,0,78.77,22.53Z"/><path d="M182.18,211.72c-.08-.86-.32-1.77-1.23-1.68a2.57,2.57,0,0,0-2.51,2.29c-.05.78.27,2,1.52,1.91C181.41,214.11,182,213,182.18,211.72Z"/><path d="M180.27,216.76a1.22,1.22,0,0,0-.06,1.69,4.49,4.49,0,0,0,4.36,2.54,8.16,8.16,0,0,0-2.61-4.15A1.27,1.27,0,0,0,180.27,216.76Z"/><path d="M188.84,287.13c.08,4.07.08,4.07,3.87,5.91C191.4,290.82,191.28,288.72,188.84,287.13Z"/><path d="M272.5,167.92a.89.89,0,0,0,.53-.48l0-.05A1.69,1.69,0,0,0,272.5,167.92Z"/><path d="M270.25,168.11c1.57,1.21,0,3.37,1.29,5,1.86-1.59,0-3.75,1-5.24C271.85,168.1,271,167.45,270.25,168.11Z"/><path d="M2.5,142.49A2.26,2.26,0,0,0,0,144.18c-.25,1,.68,1.16,1.44,1.27,1.35.1,2.73-.29,3-1.57C4.73,143,3.52,142.49,2.5,142.49Z"/><path d="M198.49,52.44c1.23-.13,1.55-1.33,1.55-2.5,0-.85.34-2.17-.87-2.21-1.58,0-1.75,1.47-1.85,2.69C197.25,51.31,197.22,52.57,198.49,52.44Z"/><path d="M44.54,103.75a1,1,0,0,0,.84-1,3.12,3.12,0,0,0-2.83-2.51,1,1,0,0,0-.78,1C41.81,102.59,43.35,104,44.54,103.75Z"/><path d="M103.59,9.47c.8-.2,1.58-.48,1.44-1.49s-.58-1.92-1.78-1.71a1.8,1.8,0,0,0-1.5,2.07C101.86,9.21,102.76,9.43,103.59,9.47Z"/><path d="M234.79,11.7c1-.18,1.74-.63,1.83-1.73,0-.65-.17-1.37-.92-1.39a1.88,1.88,0,0,0-1.87,1.73A1.12,1.12,0,0,0,234.79,11.7Z"/><path d="M299.47,126.5a2,2,0,0,0-2.17,1.43,1.38,1.38,0,0,0,1.26,1.69c1.07.13,1.63-.77,1.92-1.73C300.48,127.16,300.14,126.56,299.47,126.5Z"/><path d="M224.83,232.22c-1-.23-1.54.91-.71,1.42,1.35.84,1.74-.74,2-.82A2.94,2.94,0,0,0,224.83,232.22Z"/><path d="M77.91,203.39A1.37,1.37,0,0,0,76,204.83,1.11,1.11,0,0,0,77.2,206a1.51,1.51,0,0,0,1.69-1.13A1.21,1.21,0,0,0,77.91,203.39Z"/><path d="M256.28,238.79a.69.69,0,0,0-.67,1c.29,1.07.8,2,2.07,2.13.52,0,.68-.5.72-1.22C258,239.84,257.53,238.88,256.28,238.79Z"/><path d="M271.75,193.15a1.75,1.75,0,0,0,1.28-1.77c0-.53-.3-.95-.85-.91a1.52,1.52,0,0,0-1.47,1.56C270.66,192.68,271,193.36,271.75,193.15Z"/><path d="M58.25,174.23a2.08,2.08,0,0,0-1.71,1.44.81.81,0,0,0,.71,1,2,2,0,0,0,1.93-1.64A.8.8,0,0,0,58.25,174.23Z"/><path d="M197.89,279.91a1.1,1.1,0,0,0-1.34.91,1.2,1.2,0,0,0,1.22,1.54c.67,0,1.06-.51,1.22-1.16C198.85,280.57,198.61,280,197.89,279.91Z"/><path d="M257.92,213a1.49,1.49,0,0,0-1.12.46c-.26.49.18.83.67.82a4.16,4.16,0,0,0,1.13-.27C258.74,213.29,258.39,213,257.92,213Z"/><path d="M323.86,108.88c-1.58.38-3.39.1-4.78,1.7a10.08,10.08,0,0,0,4.79-1.7Z"/><path d="M37.64,114.34c-.1-.51-.7-.91-1-1.28-.87.08-1.38.49-1.32,1.15a1.32,1.32,0,0,0,1.2,1.21C37.18,115.47,37.78,115,37.64,114.34Z"/><path d="M83.57,59.15a1.32,1.32,0,0,0,1-1.36.76.76,0,0,0-.91-.7,1.19,1.19,0,0,0-1.21,1.1A.83.83,0,0,0,83.57,59.15Z"/><path d="M261.85,208c.08.07.66-.15.7-.32.22-.9-.54-1.26-.91-1.59s-.83-.32-.86.06C260.7,207,261.31,207.53,261.85,208Z"/><path d="M185.38,243a.85.85,0,0,0-1.21.37,1.09,1.09,0,0,0,.34,1.63,1.23,1.23,0,0,0,1.64-.49C186.44,243.7,186,243.29,185.38,243Z"/><path d="M74.75,268.08a1.7,1.7,0,0,0-1,.86.73.73,0,0,0,.58,1,.91.91,0,0,0,1.2-.76C75.6,268.4,75.23,268,74.75,268.08Z"/><path d="M288.92,171.33c-.39,0-1,0-.88.66a1.27,1.27,0,0,0,1.4,1,.83.83,0,0,0,.9-.8C290.15,171.39,289.52,171.32,288.92,171.33Z"/><path d="M244.5,211.73c-.43,0-.94,0-1,.53s.32.81.82.84a1,1,0,0,0,1-.67C245.41,211.78,244.91,211.76,244.5,211.73Z"/><path d="M216.47,56.22s0-.06,0-.09h0Z"/><path d="M218.07,54.07c0-.18-.49-.56-.53-.53-.89.64-1.65,1.36-1.11,2.59C217.19,55.61,218.06,55.16,218.07,54.07Z"/><path d="M278.93,90.71c-.48,0-.91.28-.87.82a.62.62,0,0,0,.92.56,4.8,4.8,0,0,0,1-.78C279.79,90.7,279.35,90.68,278.93,90.71Z"/><path d="M291.62,134.06a1.45,1.45,0,0,0,.64.61.38.38,0,0,0,.56-.21c0-.81-.41-1.14-.9-1.15S291.42,133.72,291.62,134.06Z"/><path d="M259.27,222.63a4.25,4.25,0,0,0,.89.86.7.7,0,0,0,1-.44c.21-.66-.35-.66-.88-.8Z"/><path d="M178.87,82.55c-.33.13-.57.62-.72,1-.06.15.22.43.38.71a5.75,5.75,0,0,0,.86-1C179.59,82.82,179.49,82.3,178.87,82.55Z"/><path d="M222.54,220.15c-.16.35,0,.66.36.64.21,0,.41-.3.62-.47a4.55,4.55,0,0,0-.64-.44C222.82,219.85,222.6,220,222.54,220.15Z"/><path d="M180.87,232.68h0l-.07,0h0l0,0Z"/><path d="M179.5,231.18s-.28.51-.2.68c.29.63.59,1.36,1.5.85A1.51,1.51,0,0,0,179.5,231.18Z"/><path d="M297.78,71.27c-.09-.21-.46-.3-.71-.44a.81.81,0,0,0-.69,1c.05.19.52.39.79.38A.64.64,0,0,0,297.78,71.27Z"/><path d="M278.23,186.28c.07.05.38-.1.41-.2a1,1,0,0,0-.85-1.35A1.11,1.11,0,0,0,278.23,186.28Z"/><path d="M277.79,184.73l0,0h0v0Z"/><path d="M180.83,232.73c-.5.57-.11,1,.26,1.46,0,0,.36-.06.4-.15A.92.92,0,0,0,180.83,232.73Z"/><path d="M216.46,56.22l-.05-.08-.18.11Z"/><path d="M216.07,56.34a.83.83,0,0,0,.16-.09l-.36,0C215.94,56.32,216,56.37,216.07,56.34Z"/></g></g></svg>