<svg xmlns="http://www.w3.org/2000/svg" viewBox="0 0 309.68 113.47"><g id="Capa_2" data-name="Capa 2"><g id="Capa_5" data-name="Capa 5"><path d="M309.41,14.06c-.71-2.49-2.32-4.45-3.53-6.65A8.19,8.19,0,0,0,303,4a.91.91,0,0,0-.83-.58.47.47,0,0,0-.54-.32.25.25,0,0,0-.34-.13,1.84,1.84,0,0,1-.61-.34,2,2,0,0,0-1.46-.06,7.86,7.86,0,0,0-2.74-.06c-1.93.3-3.6-.79-5.32-1.49a.47.47,0,0,0-.56-.31.37.37,0,0,0-.43-.11c-.41-.48-1-.4-1.49-.37a8.6,8.6,0,0,0-3.39,0,28.7,28.7,0,0,0-8.15,2.38,4.43,4.43,0,0,0-2.87,2.19,19.38,19.38,0,0,1-3.37,3.52,1.06,1.06,0,0,0-1,.49,1.15,1.15,0,0,0-1.08.44h0a.28.28,0,0,0-.36.13,1.63,1.63,0,0,1-.63.35l.63-.35a.6.6,0,0,0-.63.35h0a.25.25,0,0,0-.33.13,1.66,1.66,0,0,1-.62.35l.62-.35a.6.6,0,0,0-.63.35h0a.25.25,0,0,0-.33.16c-.28,0-.39.14-.42.39l0,0c-.19.11-.33.29-.52.41h0l.52-.41a.59.59,0,0,0-.52.41.57.57,0,0,0-.53.4,1.12,1.12,0,0,0-.86.6h0c-2,1-3.87,2.32-6.1,2.88a2.91,2.91,0,0,0-1.59.92c-1.2.58-2.38,1.21-3.6,1.75s-2.69,1-3.55,2.22a2.32,2.32,0,0,1-2.87.82A7.23,7.23,0,0,0,242,19.49a5,5,0,0,1-3.12-.73,5.36,5.36,0,0,0-2.93-.44c-.4-.46-1-.41-1.49-.47h0c-3.21-1.44-6.69-1.94-10-2.9-1.54-.67-3.24-.57-4.82-1a1.62,1.62,0,0,1,0-.31h0c.35-.13.8,0,1.15-.5-.92-.22-1.69-.74-2.66-.5a44,44,0,0,0-5.73-.58c-.72-.69-2-.3-2.65-1.26.73-.4,1.52-.07,2.21-.32,2.14.15,4.28.49,6.41.64,3.78.25,7.57.19,11.08,1.9a5.25,5.25,0,0,0,.71.13c1.74.54,3.46-.12,5.19-.05.46.55,1.19.37,1.77.63,3.7,1.65,7.66,2,11.64,2.25a5.14,5.14,0,0,0,3.4.37,3.48,3.48,0,0,0-1.87-.8c-4.73-1.32-9.57-2.06-14.38-2.94h0a12.16,12.16,0,0,1-2.73-.81c-2.56-1.44-5.49-1.37-8.23-1.9a55.66,55.66,0,0,1-6.49-1.31c-1.5-.48-3-1.13-4.63-.79-1.11-.09-2-.89-3.18-.85a13.06,13.06,0,0,1-6.23-.87,5,5,0,0,0-2.58-.26c-1-.65-2.15-.3-3.23-.49h0a1.5,1.5,0,0,0-1.27-.44l-8.92.1a3.41,3.41,0,0,0-1.95-.06,22.93,22.93,0,0,0-6.24-.48,2,2,0,0,0-1.46.06,64.18,64.18,0,0,1-9-.3,8,8,0,0,0-4,.24L162,4.4h0c-.2-.11-.41-.32-.61-.32-3.18,0-6.35-.42-9.53-.11l-6.73,0c-1.74-.09-3.46.7-5.27,0a2.76,2.76,0,0,0-2.44.36l-6.2.13a21.51,21.51,0,0,0-10.11,1.31,90.07,90.07,0,0,1-9.6,1.92l-8.14.63-7.68.48a35.38,35.38,0,0,0-7.19.46,5.08,5.08,0,0,0-2.42.06c-1.14.12-2.33-.36-3.4.37h0l-1.38.05a20,20,0,0,0-5.29.54h0l-.47.08c-2,0-4-.47-5.9.26h0a8.7,8.7,0,0,0-2.74.14,16.07,16.07,0,0,0-4.36.53h0a41.54,41.54,0,0,0-8.15,1.2,4.8,4.8,0,0,0-1.92.24c-.54,0-1.11-.21-1.54.29h0a2.38,2.38,0,0,0-1.32.14c-.67,0-1.39-.2-2,.37h0a.48.48,0,0,0-.42.05,25.47,25.47,0,0,0-6.72.94,15.17,15.17,0,0,0-5.31,1.09.94.94,0,0,0-1,.32h0a.49.49,0,0,0-.42.05l-7.2,1c-3,.28-5.72,1.72-8.67,2.25l-.95.19a1,1,0,0,0-1.07.34h0a22.68,22.68,0,0,0-7.54,2.52,6,6,0,0,0-2.1,1.06A5.77,5.77,0,0,0,3.18,29a14.36,14.36,0,0,0,4.1,8.58h0c.14.28.24.58.4.84,1.7,2.77,1.69,2.87-.24,5.37a17.24,17.24,0,0,0-5.31,5,9.63,9.63,0,0,0-2,7.74c.73,3.92,2.4,5,6.33,4.36.37.1.74.14,1-.25v0h0c1.13-.08,2.1,0,1.78,1.59-.23,1.13.36,1.51,1.41,1.47a5.27,5.27,0,0,1,3.94,1.78,3.06,3.06,0,0,0,.82.44,5.3,5.3,0,0,0,4,2.11,2.6,2.6,0,0,1,2.11.7,2.34,2.34,0,0,0,2.55.54h0a1.14,1.14,0,0,0,1,.45c.54.44,1.07.9,1.63,1.32.16.13.55.27.59.22,1.25-1.72,2.67-.44,4-.26h0a48.19,48.19,0,0,0,7.18,2.44h0c1,.77,2.44.53,3.58,1.38l-3.11.76c-2.61.36-5.27.47-7.64,1.82-2,1-3.9,2.09-6.27,1.92a1.51,1.51,0,0,0-1.82,1.45c-.21,2.77-.34,5.56-1.94,8a.43.43,0,0,0,0,.23c.23,2.63.41,5.27.71,7.89a3.15,3.15,0,0,0,1.34,1.91c.37.31.82.5.91,1l-.1.64h0A9.3,9.3,0,0,1,22,99.62c-.77-.28-1.59-.57-2.36.31.89.69,2.12.88,2.05,2.24-.42.38-1.1-.21-1.51.41a5.56,5.56,0,0,0,5.07,2.25c1,0,2.23,0,2.64.75a2.8,2.8,0,0,0,3,1.43c2,.66,4.22.33,6.25,1h0c2.17,1.49,4.68,1.67,7.19,1.91h0a18.29,18.29,0,0,0,5.78,1,64.66,64.66,0,0,0,11.21.49,1.59,1.59,0,0,0,1.33-.38l.22,0,.2-.08a20.81,20.81,0,0,0,6.72-.48,43.13,43.13,0,0,0,7.68-1c3.09,0,6.2.49,9.25-.39h0a68.62,68.62,0,0,1,9.71-.7c.13,0,.26-.18.38-.27h0l.82-.08a33.14,33.14,0,0,0,6.14,0c1.48-.13,3,.33,4.42-.44a34,34,0,0,0,9.12-.48,8,8,0,0,0,2.89,0c1.61-.21,3.29.37,4.85-.4h0a4.21,4.21,0,0,0,1.85.38h11.68a1.58,1.58,0,0,0,1.32-.36l-.09-.09h0l.08.09a91.65,91.65,0,0,0,11.95.35,4.84,4.84,0,0,0,2.42.06c3.36.11,6.69.64,10.06.42l-.2-.15h0c.06,0,.12.1.18.15a15,15,0,0,0,4.34.06c2.37.67,4.8.35,7.2.46s4.93.15,7.38.41c1.22.13,2.54.39,3.72-.34h0l2.34-.05a79.28,79.28,0,0,0,9.12,0c3.21,0,6.39.62,9.6.49,1.27,0,2.51.35,3.78.47,3.3.31,6.62.27,9.9.64a67.65,67.65,0,0,1,7.77.87,3.91,3.91,0,0,0,2.58-.18c1.93,1,4.06.47,6.07.78,2.56.4,5.13.66,7.71.85l.75.15a4.91,4.91,0,0,0,.5.1,22.75,22.75,0,0,0,7,.63h0a3.29,3.29,0,0,0,2.85.47c.4,0,.86.24,1.26-.37-.62-.15-1.07-.58-1.73-.47l-1.74-.18h0a27.34,27.34,0,0,0-6.42-.81A113.5,113.5,0,0,0,233,109.59h0a2.47,2.47,0,0,0-1.78-.47,59.24,59.24,0,0,1-9.82-1.47c-.41-.09-1.28-.08-1-.58.65-1.42-.48-1.19-1.1-1.34-1-.25-2-.39-3-.57,0-.13,0-.26,0-.4a18.91,18.91,0,0,0,2.26-.13c.75-.11.52-.52.15-.9,0-.21,0-.41,0-.62h0c1.09.09,2.18.16,3.27.27a11.3,11.3,0,0,1,3,.4c1.27.51,1.63-1.18,2.7-.89,1.7.79,3.57.4,5.35.7a66,66,0,0,0,7.33.49,18.12,18.12,0,0,1,4.63.74,5.05,5.05,0,0,0,3.43-.06c.14.81.71.7,1.27.6-.83.82-.09.74.44.73s.78,0,1.18-.09.7-.22.9-.09c1.65,1.11,3.63.72,5.39,1.28a2.93,2.93,0,0,0,1.83,0c1.24-.35,2.5-.49,3.44.78.12.17.59.08.9.12a3.69,3.69,0,0,0,3,.43,20.8,20.8,0,0,1,7.71.7,9.42,9.42,0,0,0,3.29.28l1,.32h0l3.36.58c.28,0,.75.27.79-.1,0-.59-.5-.29-.81-.33h0c-1-.73-2.21-.53-3.35-.51-.18-.52-.6-.43-1-.39l.07-.12a1.13,1.13,0,0,1,1-.43c2.2-.91,4.38-.44,6.57.06a1.84,1.84,0,0,0,.47,0,4.36,4.36,0,0,0,3,.44c.59.31,1.17.8,1.86.17-.47-.73-1.17-.7-1.88-.62l-1.47-.41a81.14,81.14,0,0,0-8.58-2.06l-.09-.53a3,3,0,0,0-2.82-.82c-1.13,0-2.19-.6-3.34-.47a32.84,32.84,0,0,0-5.73-1.14h0a32.07,32.07,0,0,0-11.89-1.87c-1.1-.68-2.34-.21-3.5-.38l-3.22-.09h0a5.84,5.84,0,0,0-2.91-.95c-2.91-.36-5.83-.68-8.75-1h0c-.87-.4-.54.2-.48.57l-.57.59h0c-6.47-.34-12.73-2.08-19.11-3a2.36,2.36,0,0,1,0-.46l4.8-.5h0a11.49,11.49,0,0,0,4.75-.12,19.82,19.82,0,0,1,6.13-.47c.35,0,.89.34,1-.18.36-1.2,1.32-.52,2-.73l5.81,1a1.76,1.76,0,0,0,2.39,1.4c3.3.85,6.77.49,10.06,1.46a4.68,4.68,0,0,0,1.36.4,33.19,33.19,0,0,1,6.79,1c2.19.42,4.47,1.26,6.72.1a3.88,3.88,0,0,0,2.41.47h.47c.68.27,1.34.79,2.19.26a3.09,3.09,0,0,0-2.19-.69l-.48,0h0c-.09-.49,1.32-1.51-.5-1.38l-2.39-.47a95.35,95.35,0,0,0-12.39-2.49c-.58-.55-1.31-.36-2-.41h0l-.83-.1h0a82.69,82.69,0,0,0-17.29-2.4l-2-.91a3.33,3.33,0,0,0-1.59-.9,14.6,14.6,0,0,0,1.48.19,4.26,4.26,0,0,1,1.7.17c2.2-.18,4.34.6,6.55.47,2.34.34,4.72.52,7,1.06s4.7.59,7,1a18.06,18.06,0,0,0,6.83.54c-1.43-1-2.75-2-4.58-2.23a17.56,17.56,0,0,1-3.43-.8c-1.56-.48-3.06-1.42-4.66-1.47-2.06-.06-4.08-.37-6.13-.52l-1.13-.85,0,0a13.9,13.9,0,0,0-5.55-1c-1.43-.78-3-.11-4.46-.45a.88.88,0,0,0-1-.42.45.45,0,0,0-.42-.07,44.78,44.78,0,0,0-12-1c-.58-.58-1.32-.34-2-.37h0l-1.4-.17h0a11.23,11.23,0,0,0-5.84-.42,12.29,12.29,0,0,1-7.13-1,1.55,1.55,0,0,0-1.45-.41h0l-9.55-1c-.5-.66-1.46-.14-2.09-.64.38-.42.82-.74,1.11-.61,1.21.56,2.31-.13,3.46-.19.22,0,.26-.14.06-.41L192.5,80c.49-.59,1.55-.58,1.35-1.69-.1-.54.74-.33,1.17-.42.75.71,1.64.44,2.51.35.87.51,1.72.81,2.48-.21a4,4,0,0,0-1.88-.34h0c-.8-.61-1.71-.27-2.58-.28a6.79,6.79,0,0,1-2.24-.78,2.46,2.46,0,0,0-1.55-.38c-2.35.15-4.69.79-7.08.25-.32-.07-.73.23-1.1.37-.31-.08-.78-.1-.78.2s.49.25.81.2a5.66,5.66,0,0,0,1.41.13c1.78-.28,2.78.63,3.57,2.29h-3.43a2.29,2.29,0,0,0-.86-.18,34.6,34.6,0,0,0-7-.7l-5.22-.53a.63.63,0,0,0-1.08,0h0l-.9,0a2.49,2.49,0,0,0-2-.49c-1.13.27-1.66-.45-2.3-1.06-1.17-.43-2.39-.78-3-2.09a2.54,2.54,0,0,1,1.95-.15h0c1.57-.06,3.26.22,4.67-.27,1.11-.39,2.17.75,3.08-.24h0l1-.12a5,5,0,0,1,2.55-.47c2.63,0,5.27,0,7.9,0l8.65.53c.63,0,1.47.35,1.85.06,1.43-1.09,2.93-.43,4.41-.45a2.46,2.46,0,0,0,.46-.08,53.57,53.57,0,0,0,10.08,1.42c3,.47,6,1.4,9.09.94,1.29-.32,2.62.63,3.93-.25-1.34,0-2.57-.6-3.91-.62l-1.37-.53v-.88a32.54,32.54,0,0,0,5.2.82l8.65,2,7.2,2.37c.88,1.32.88,1.32-.43,1.5a32.11,32.11,0,0,0-5.24-1h0a2.22,2.22,0,0,0-2-.43h0c-.82-.76-1.71-.56-2.92-.43a5,5,0,0,0,2.92.77,3,3,0,0,0,1.45.6c1.12.6,2.5.52,3.57,1.26-.36.9-1.13.48-1.66.71a.46.46,0,0,0-.41-.07h0a1.26,1.26,0,0,0-1.64-.23c.2.56.71.51,1.13.63l.92.1a7.41,7.41,0,0,0,2.87.44,14.92,14.92,0,0,1,5,1.2,15.34,15.34,0,0,0,5,1.32c.29.33.69.31,1.08.37,1.56.25,3.15-.29,4.62-.12,3.08.36,6.14.12,9.2.3.16.4.53.45.63.11s-.22-.67-.7-.61a22.85,22.85,0,0,0-5.13-1c-1.56-.17-3.2-.21-4.42-1.46h0c.18-.18.36-.37.55-.55a8.73,8.73,0,0,0,2.34,0c.28,0,.75.18.77-.12,0-.53-.48-.27-.78-.31s-.91-.57-.77-.7c1.06-1,.09-1.75-.13-2.6.94-.41,2.2.28,3-.82-.6-1-1.8-.61-2.48-1.28,0-.77.65-.67,1.17-.86.94-.34,1.37-2.63.76-2.57-1.41.13-1.27-1.28-2.08-1.65l.62-.63c1,0,1.84.66,2.84.49l.2.08.22,0a1.7,1.7,0,0,0,1.49.42l.2.09.23,0a1.22,1.22,0,0,0,1,.47c.53.54,1.37,1,.48,1.91a5.53,5.53,0,0,1-2-.4,1,1,0,0,0-1.41-.11c-.66.35-.52.86.05.91a10.56,10.56,0,0,0,3.32.07,14.25,14.25,0,0,0,4.39-.16c1.53-.25,1.5,0,1.18,1.15-.16.6.14.8.55.37.64-.68.95-.14,1.33.23a1.38,1.38,0,0,0,2,0,1.8,1.8,0,0,0,.25-2.2,3.09,3.09,0,0,0-2.73-1.68,14.74,14.74,0,0,1-6.08-1.79,6.34,6.34,0,0,0-1.16-.28,1.49,1.49,0,0,1-.62-.36.24.24,0,0,0-.31-.12,1.91,1.91,0,0,1,.36-2.32l.89-.07c.32.07.68,0,.62-.36-.11-.54-.63-.55-1.08-.58a1.25,1.25,0,0,0-.91-.54.51.51,0,0,0-.56-.34l.53.35h0c-.21-.07-.34-.26-.53-.36l.05-.12a1.5,1.5,0,0,0,0-.42c2.2,0,.26-1.24.51-1.73a1,1,0,0,1,.94-.26,1.17,1.17,0,0,0,1.19-.64c.24-.59-.36-.78-.7-1.07-1.29-1.13-2.51-2.35-4.47-2.17a2.34,2.34,0,0,1-1.54-.5A12.77,12.77,0,0,0,250,56.21a1.18,1.18,0,0,0-1.09-.44,25.72,25.72,0,0,0-5.74-2.88.92.92,0,0,0-1-.38.42.42,0,0,0-.44-.11,1.77,1.77,0,0,0-1.49-.43l-.45-.13-2.4-.91c.2-.44.65-.4,1-.52h0c2-.14,4.09.33,6.14.06,1.25.11,2.49.75,3.75.3a6.69,6.69,0,0,1,3.29-.2,62.39,62.39,0,0,0,8.31.37,8,8,0,0,0,2.89,0,27.4,27.4,0,0,0,5.28,0l6.72.42c1.53.32,3.06.59,4.57,1,.72.18,1.64.31,2-.09,1.18-1.21,2.6-.74,3.94-.88l-.12-.1.12.1.83.14a1.06,1.06,0,0,0,1.1.4l.15.12.19,0c.33.52,1,.35,1.4.78.19.21.34.61.65.2a1,1,0,0,0,.19-.85,1,1,0,0,0-1.14-.63.22.22,0,0,0-.32-.08c-.26,0-.42-.22-.62-.34a.37.37,0,0,0-.43-.11,1,1,0,0,0-1-.38.27.27,0,0,0-.35-.13,1.28,1.28,0,0,0-1.09-.46,1.72,1.72,0,0,1-.47-.46c0-.13,0-.27,0-.4a10.86,10.86,0,0,1,2.79-.1l.16.12.2,0a2.25,2.25,0,0,0,2.47.42,3.17,3.17,0,0,0-1.79-1,.47.47,0,0,0-.54-.33l.53.34h0a2.66,2.66,0,0,1-.53-.34.24.24,0,0,0-.33-.13,1.81,1.81,0,0,1-.65-.36l.06-.16c0-.29,0-.58-.05-.88.28-.7.69-.82,1.49-.7,1.94.32,3.75,1.34,5.83,1.22-.94-1.55-1-1.66-1.63-1.55a4.18,4.18,0,0,1-3.65-1.36c-.44-.41-.78-1.08-1.6-.74-.24.1-.45-.1-.46-.36a1.93,1.93,0,0,1,.13-.66c1.42.18,2.23-1.38,3.7-1.23a17.43,17.43,0,0,1,4,.48,3,3,0,0,0,2.75.07,18,18,0,0,1,4.74.59,1.59,1.59,0,0,0,1.75,0,1.44,1.44,0,0,0-1.23-.55,22.77,22.77,0,0,0-5.73-1.52c-.64-1.17-1.81-.74-2.77-.91-1.67-.29-2.29-1.58-1.22-2.89s1.81-2.71,3.84-2a2.6,2.6,0,0,0,2-.17,3.3,3.3,0,0,0-2-1.12c-.78-.16-1.54-.36-2.31-.57s-.84-.72-.84-1.46.36-.92,1-1a1.81,1.81,0,0,0,.6-.31,6.31,6.31,0,0,0,3.73-1c5.54-2,8.36-6.56,10.56-11.61A4.57,4.57,0,0,0,309.41,14.06ZM24.27,67.73h0l0,0s0,0,0,0h-.06s0,0,0,0Zm37.3-.48h0l-.06,0Zm4.05,1a.29.29,0,0,0-.1,0c-.4-1.47-1.79-1.19-3-1.32a2.18,2.18,0,0,1-.44.11v0a2.86,2.86,0,0,0,.42-.1c.87-.14,1.89.2,2.58-.48a2.6,2.6,0,0,0,1.71.59c0,.1.11.18.48.21a5.62,5.62,0,0,0,.58,0c.6.18,1.19.4,1.79.56a3.58,3.58,0,0,0,2.75-.29,13,13,0,0,0,1.71.53,3.92,3.92,0,0,0-2.93.65,1.38,1.38,0,0,0-.52-.37c-1.07-.3-2.22-.08-3.28-.46A1.92,1.92,0,0,0,65.62,68.21Zm17.16,1a.62.62,0,0,0,.09-.25,1.7,1.7,0,0,0-1.62-1.08,1.07,1.07,0,0,0,.48-.72c.25-1.33-1.31-1.28-2.16-1.73-.2-.1-.27-.17-.15-.31a4.87,4.87,0,0,1,.74-.23c-.08.26,0,.47.51.49,1.16,0,2.32,0,3.48.07.09.36,0,.82.59.85l1.66,0,0,.06a1.62,1.62,0,0,0,.62.4c1.59-.17,3,1.39,4.68.54,0,0,0,.09.09.14a12,12,0,0,0,2.81.63A7.5,7.5,0,0,0,92,69.28a.79.79,0,0,0-.21-.29c-3-.73-6-1-8.9.21Zm16.52-.57,0,0a8.52,8.52,0,0,0-2.5-.69,6.39,6.39,0,0,0,1.73-.64,1.77,1.77,0,0,0,1.38.43,3.72,3.72,0,0,0,1.43-.54,6.14,6.14,0,0,0,.8-.25h0l.44,0a.93.93,0,0,0,.62.23c.21.21.38.5.71.53l.41.07A13.13,13.13,0,0,0,99.3,68.63Zm6.69-.85a2.22,2.22,0,0,0,.87-.48,1.28,1.28,0,0,0,.13-.45h.13c0,.12,0,.24,0,.36a1,1,0,0,0,.27.27c-.25,0-.53.07-.64.29h-.06ZM252.08,96.17h0ZM213.36,99l0,0h0Zm23.08,3.11c.81,0,1.62.09,2.43.1a1.07,1.07,0,0,0,.48-.36,1.78,1.78,0,0,0,1,.62A19.76,19.76,0,0,1,236.44,102.14Zm4.11.42.38.11s-.05,0-.07.07A1.57,1.57,0,0,0,240.55,102.56Zm-12.67-1.66c.9.21,1.79.4,2.69.56a3.47,3.47,0,0,0-1.26.42c-.54-1.25-1.84-.8-2.76-1.21-2.53-.39-5.09-.53-7.62-1l-.29-.07v0a2.61,2.61,0,0,0,.27.06C221.9,100.12,224.92,100.27,227.88,100.9ZM215,96.78l.25,0h0A1.07,1.07,0,0,1,215,96.78Zm.16-8a2.8,2.8,0,0,0-2.69.61h0a.83.83,0,0,0,.11-.15,1.28,1.28,0,0,0-.59-.72,3.86,3.86,0,0,0,1.58-.43,3.57,3.57,0,0,0,.56.26,6.76,6.76,0,0,0,1.67.21,3.27,3.27,0,0,1,1.91.44,1.42,1.42,0,0,1,.18.08A23.89,23.89,0,0,1,215.11,88.75Zm5.91.94,0,0h0Zm8.23,1c-.11,0-.22,0-.33,0a1.54,1.54,0,0,0,.19-.08c0-.12,0-.24,0-.35s.05,0,.09,0a.93.93,0,0,0,.45.43Zm-21-2.47c.42,0,.83.08,1.25.14a30.07,30.07,0,0,1-3-.24Zm-5-2.61,0,0h0l-.07,0,0,0a.66.66,0,0,1,.17.12Zm2.27-.11c0-.07,0,0,0,0Zm-4.4,1.73a1,1,0,0,0,.38-.15,9.68,9.68,0,0,0,1.77.59c-.92-.12-1.84-.23-2.76-.29l-.16.13v0h0v-.2a1.32,1.32,0,0,0,.29-.24C200.92,86.76,201,87.26,201.17,87.18ZM167.73,68h0v0h0Zm39,4.62h0l-.18,0Zm52.19-6.19h0Zm0,0v0h0Zm-26.8-14.73v.27h-.28A.81.81,0,0,1,232.06,51.65ZM284.87,50Zm-.52-.5.06,0S284.37,49.51,284.35,49.49ZM291.18,1h0L291,1A.66.66,0,0,0,291.18,1Zm-1.09,29,0-.06h.06A.14.14,0,0,1,290.09,30Z"/><path d="M290.11,49.54h0v0Z"/><path d="M290.11,49.53l0,0h.06A.08.08,0,0,1,290.11,49.53Z"/><path d="M291.55,49.82c-.51-.39-1-.22-1.4-.25A1,1,0,0,0,291.55,49.82Z"/><path d="M287.76,51.07l.62.34A.55.55,0,0,0,287.76,51.07Z"/><path d="M286.77,47.69l.65.36A.61.61,0,0,0,286.77,47.69Z"/><path d="M300.72,2.59l.61.34A.54.54,0,0,0,300.72,2.59Z"/><path d="M260.88,69.77l.62.36A.6.6,0,0,0,260.88,69.77Z"/></g></g></svg>