<svg xmlns="http://www.w3.org/2000/svg" viewBox="0 0 312.05 312.76"><g id="Capa_2" data-name="Capa 2"><g id="Capa_2-2" data-name="Capa 2"><path d="M113.43,224.65c-.87-2.24-1.83-4.46-4.14-5.61-1.42-.71-1.55-1.84-1.47-3.2a5.66,5.66,0,0,0-1.84-4.77c-2.22-1.86-2.32-4.07-1.61-6.49.48-1.63.21-2.19-1.48-3.17a4.79,4.79,0,0,1-1.8-5.82c.91-2.76-.78-4.28-3.48-3.69-2.1.47-4,1.74-6.39.33-1.33-.77-3.59,2.86-3.44,5.38.08,1.23,1.23,2.25.66,4-2.38-1.1-4-.27-5.38,1.88-1.53,2.33-4.14,3.48-6.66,4.53-2.06.86-4.26,1.43-6.26,2.41s-3.31,1.15-4.74-1a6.1,6.1,0,0,0-6.29-2.63c-1,.17-2.43.46-2.35,1.92.07,1.1,1.14,1.38,2.12,1.54.6.1,1.28.09,1.61.91-.28,1.43-1.78,1.57-2.74,2.31S56,215,56.56,216.24c.82,1.86.34,3.23-1,4.75-1.76,2-1.76,4.66-1.1,8.09-3.4-2.58-5.69-1.53-7.86.64-.89.88-2.14,2-3.33,1.64-3.13-1-4,1.28-5.09,3.67-3.33-3.72-7.23-5.81-11.35-7.59-1.75-.76-3.21-1.65-3.44-4.08-.2-2.15-2.45-3.62-2.8-6-.9-6,1.25-11.34,3.32-16.72,3.69-1.14,5-6,9.74-5.83,3.42.12,6.81-1.51,10.35,0,1.27.54,2.77-.74,3.06-1.79a34.47,34.47,0,0,0,.93-7c.06-.88-.91-1.2-1.67-1.48-2.18-.8-4.1-1.86-4.47-4.48a1.15,1.15,0,0,0-.72-1.09c-.79-.32-2.27-.1-2-1.48.26-1.15,1.48-1.54,2.64-1.7,1.39-.19,2.86.3,4.57-.61A10.17,10.17,0,0,1,45.1,167a4,4,0,0,0-.65-3.67c-1.87-1.8-1.31-2.88.19-4.62,1.79-2.06-1.12-2.78-2.11-4.63,5.36.14,3.51-6.4,7.67-7-.27-2.72-3-1.7-3.55-3.4a2.15,2.15,0,0,1,3.11-1.09c3.18,2.2,6.37-.38,9.52.33A4.24,4.24,0,0,0,62,142.1c1.69-1,3.15-1.85,5.24-.65,1.71,1,3.27-.81,4.92-1.23,1.85-.48.5-3,1.84-4,2.21-.86,4,2.25,6.33.64.11-.08.64.19.74.41,2,4.39,7,6,9.45,10,.93,1.48,2,2.07,4,1.09,2.35-1.16,5-1.64,7.61-2.43-2.49-5.37-3.18-5.65-7.17-2.88-1.56-3.2-4.15-4.75-7.62-5.7-5-1.37-8.51-5.57-13-8-.33-.18-.74-1-.62-1.15,2.06-3.11-.11-3.69-2.43-4.45-1.13-.37-1.09-1.6-.45-2.4,1.46-1.85.56-3.57-.63-4.71-1.6-1.55-1.54-3.28-1.76-5.19-.42-3.54-.52-7.35-5.46-8.16a6.16,6.16,0,0,1-4.22-3.55c3.51-.07,6.72-1.78,9.36,1.57,1.08-2.86,1.08-2.86.14-6.66-1.33.35-.27,2-1.43,2.48a4.74,4.74,0,0,1-3.28,0,2.1,2.1,0,0,1-1.45-3c.72-2,2.07-2.39,5.43-1.49-1.42-10.8,4.31-12.88,12.29-14.63C81.89,77.45,84,77,86,79.17c1.52,1.67,3.28,1.08,4.13-1,1.21-2.93.68-6,.23-9-.13-.93-1-1.18-1.86-1-2.78.47-3.71-1.59-4.4-3.51s1.1-3.16,2.38-4.29a36.5,36.5,0,0,1,3.66-2.53c2.49,3,3,6.45,3.28,9.89a69.24,69.24,0,0,1,.06,8.15c-.11,4-.19,4,3.57,5.65a30.38,30.38,0,0,1,4.72,2.74c1.9-2.26,1.27-4.87,1.4-7.3s-.23-4.81,1.27-6.94c1.55.64,1.38,2,1.44,3.22a36.54,36.54,0,0,1-.61,7.15,9.82,9.82,0,0,0,.62,6.11,3.59,3.59,0,0,0,4,2c1.75-.24,1.54-1.75,1.7-3,0-.16,0-.32,0-.48.19-1.56,0-3.61,1.61-4.23,1.84-.68,2.24,1.93,4,2.38,2.32-2.58,5.64-4.61,6.52-8.72.39-1.85,1.94-3.28,3.52-4.44,2.32-1.71,3.78-3.69,2.48-6.75-.15-.35.13-.87.21-1.32.41,0,.83-.12,1,0,1.48,1.57,5.73,3.39,8.09,3.46a4.38,4.38,0,0,1,1.84.4c2.09,1.15,4.13,2.76,6.22,0a.5.5,0,0,1,.46-.08c4.21,1.8,5-1.72,6.6-4.15.74-1.13,5.56-1.75,6.49-.84s-.43,2.07.09,3.33c2.45.73,4.2,0,5.19-2.47.5-1.25,1.85-2.86,2.66-1.59,2.06,3.21,3,.75,4.14-.44.69-.74,2.38-1.22,1.4-2.86l-.07.06c3.06-.58,6.35.59,9.27-1.32,1.24-.82,1.89,0,2.57,1.14,2.18,3.63,2.41,3.71,5.49,1.12a3.43,3.43,0,0,1,2.54-.85,8,8,0,0,0,4.52-1.33c2.43-1.54,2.45-1.86-.26-4.74,5.48,1.39,8.58-1.26,11.13-5,2.22-3.29,2.47-3.36,6.17-2.42.77.19,1.5.53,2.54.9l1.87-5.15c-.41-.8-.89-.48-1.27-.28-1.3.66-2.59,1.36-4.08.7-1.71-.77-2-3.23-4.15-3.55-.28,0-.15-.91.31-1.13,1.45-.71,1.06-2.21,1.5-3.34,1.22-3.15,3.75-3.85,6.34-1.7a6.26,6.26,0,0,1,2.23,3.6c.33,1.63,0,3.52,2.66,3.5.82,0,.84,1.19.9,2a7.53,7.53,0,0,1-3.09,6.65c4.16,2.39,3.57-2,5.22-3,1.48.25,1.22,1.7,1.79,2.58,2.21,3.41,5,3.93,8.38,1.54.39-.28.75-.59,1.14-.87a1.34,1.34,0,0,1,1.74-.11,1.73,1.73,0,0,1,.77,1.64c-.2,1.16-2,2.34-.68,3.38,1.55,1.23,2.85,3,5.16,3.18,2.15.16,4.09.28,6,2.19,2.88,2.92,5.66,5.68,6,10,.22,3.24-.23,6.75,4.71,6-.11,1.64-.88,2.17-1.63,2-1.92-.28-3,1-3.88,2.17a54.23,54.23,0,0,0-4.57,7.09c-.71,1.29-.45,2.56,1.51,2.5,1.25,0,2.51-.57,4,.2-1.53,4.75-5.81,3.1-9.3,3.74,1.53,2.53,4.11.27,5.62,1.72-.13,1-1.16,1.11-1.78,1.3-2,.61-2.66,1.76-2.14,3.74.39,1.53.73,3.06-.61,4.39a1.75,1.75,0,0,0-.1,2.23c1.1,1.9.69,3.29-1.23,4.29-.14.07-.21.27-.35.33-2.12.91,1.35,3.31-1.23,4.31-1.52.59-2,2.3-2.22,4,2,.75,3.86-.17,5.73,0,1.68.12,3.45,2.26,5.1-.23.18-.27,1,.49,1.21,1.13a13.76,13.76,0,0,0,2.48,4.57c4.78,6.38,4.83,10.83.5,17.82-.25.4-.41.85-.78,1.63,3.35-.56,6.38,0,9.59.62-.68,3-3.92,2.18-5.19,4-1.82,2.53-4.1-.12-6.3.38-.39,2.43,1,4,2.2,5.65,1.47,1.9,3.06,3.7,4.59,5.54A12.46,12.46,0,0,1,265,161.7c1.24,4.4,1.77,5.56,4.34,8.35-5.42-1.54-6.67,2.83-9.28,5.23-1.53,1.4-3.18,2.67-4.8,4-1.92,1.55-3.83,2.65-6.49,1.33-2-1-3.56.13-4.91,1.8s-.16,2.5.43,3.8c.95,2.07,1.65,4,4.4,4.43,1.41.24,3.06,1.59.62,3.22-.33.22-.16.84.26,1.21a1.26,1.26,0,0,0,1.72.15c1.64-1.18,3.22-1.87,5.26-.66,2.71,1.6,3.45,2.89,2.53,5.84a22.4,22.4,0,0,1-3.54,6.62,19.35,19.35,0,0,1-6-5.29A46.67,46.67,0,0,1,242,188.46c-1.67-4.41-1.85-4.48-6.67-4.29-1.27.05-2.55.18-3.83.12a26,26,0,0,1-3.18-.51c-1.19,1.78-.75,3.46,0,5.1,1,2.18,2.09,4.32,3,6.52s2.22,4.23,1.19,6.82c-.51,1.27.73,1.9,1.67,2.58,1.2-.73,1.49-2.46,3.09-2.77a1.85,1.85,0,0,1,2.27,1.25c.53,1.32-.66,1.7-1.49,1.91-1.82.48-3.51-1.15-5.49-.41-.52.2-1.66-.7-1.67-1.46-.06-5.12-3.87-8.86-4.94-13.61a11.69,11.69,0,0,0-3-5.38,5,5,0,0,0-4.71-1.76c-2.78.49-3.48,1.6-2.63,4.3.2.61.49,1.18.7,1.79,1.79,5.06,1.65,5.41-2.92,7.22a12,12,0,0,0-6.51-4.49c-2.79-1-2.25.92-1.94,2.5l-.38.32c-2-.28-1.8-2-2.13-3.29.68-.82-.07-2.42,1.94-2.6,2.81-.26,2-2,1.07-3.69-2.65,1.55-5.36,2.85-5.28,6.44-.36.31-.67.75-1.08.89-4.83,1.67-6.66,5-6.89,10.11-.17,4.05,2.36,6,4.41,8.5-.59,2.23-2.23,4.3-1.11,6.82.2.43.28.94-.32,1.1-4.67,1.27-5.36,5.61-6.88,9.18-.75,1.77-1.45,2.84-3.47,3.33-3.8.92-4.77,2.77-3.58,6.51.64,2,.64,3.3-1.79,3.83a8.86,8.86,0,0,0-2.42,1.48c-.65.41-1.24,1-2.15.83-1.38-.87-.44-2.35-.91-3.46S172.6,239,171.61,239s-1.52.37-1.46,1.41c.15,2.44-2.84,3.91-2,6.7.33,1.05-1,1.5-1.94,1.6-1.23.13-1.54-.7-1.75-1.74-.81-4.05-.84-4-4.34-4.29.59-1,1.89-.19,2.55-1-.13-.94-1.52-.58-1.59-1.38-.19-2.06,7.27-8.26,9.2-7.67a6.55,6.55,0,0,1,1.6,1c.55.38,1.25.76,1.75.29,2.42-2.33,6.54-2.76,7.44-6.81a31.65,31.65,0,0,1,1.72-5c.95-2.38,1.13-4.39-.88-6.57-1.84-2-1-4.11,1.5-5.21a12.48,12.48,0,0,0,6.51-15.24,8.43,8.43,0,0,1-.24-4.67c.43-2.38-.45-3.36-2.71-3-6.58.94-13,2.75-19.75,2.86-1.46,0-2.26,1.39-1.3,2.25,2.9,2.55,2.15,6.18,3.21,9.24,1.36,3.95,1.23,4-2.11,6.57-3.55,2.73-3.57,2.72-5.38-1-1.56-3.23-3.09-3.58-5.82-1.29-.73.62-1.38,1.33-2.05,2-1.12,1.17-2.08,2-4.11,1.5-3-.72-6.37.47-9.16-1.83-.78-.65-1.79.33-2.73.4-1.48.1-.81-2.08-2.1-2.09-.83.13-.93.94-1.42,1.25-2.89,1.8-5.46,4.76-9.47,2.58-1.09-.6-1.92.15-2.23,1.09-.52,1.59-1.1,3-3,3.37-.92.2-1.11,1-1.22,1.85a9.38,9.38,0,0,1-3.33,5.65A4.24,4.24,0,0,0,113.43,224.65Zm-.81-84.41a8.05,8.05,0,0,0-3.88,3.93c-2.86-.5-4.31-2.88-7.3-4.27,1.65,2.31,3,3.62,4.8,4.38a4.14,4.14,0,0,0,5.56-2.09c.31-.62-.25-1.63.85-1.93.52-.81,1.06-.14,1.58,0s1.32.2,1.54-.54a1.68,1.68,0,0,0-.41-1.24c-.49-.57-1.12-.33-1.71-.08C112.82,138.76,113.62,140,112.62,140.24Zm-34.5,6.29c1.42,1.06,2.76-.52,4.18,0,.28,1.2-3.38,3.62,1.08,3.53.9,0,.8,1.21.91,2,.32,2.21,1.56,3.08,3.68,2.41,1.73-.55,2.16-2.26,1-4.4-1.72-3.16-4.61-5-7.43-6.7C80,144.45,79.57,146,78.12,146.53Zm46-61.54c-.11-.33-.22-.85-.79-.9s-.76.22-.9.76c-.56,2.14.24,5.31-3.77,4.91-.5-.05-.68,1-.51,1.63a.83.83,0,0,0,1.15.51c1-.38,2.72-.38,2.44-1.71-.41-2,1-2.43,2-3.34A1.67,1.67,0,0,0,124.15,85ZM42.23,178.8a14.63,14.63,0,0,0,4.85,4c.8.36,1.56.53,2-.43s1.35-2,.87-3.12c-.56-1.27-1.88-.77-3-.7C45.72,178.66,44.45,178.7,42.23,178.8Zm167.26,7.7c.07,2.19,1,3.71,2.24,3.75s1.63-.75,1.59-1.84c-.08-2-1.68-4-2.91-3.72C209.37,184.94,209.61,185.87,209.49,186.5ZM116.16,86.82c0-.8-.55-1.3-1.17-1.2-1.44.22-1.42,1.43-1.39,2.54,0,.61.12,1.49.85,1.41C116.07,89.4,115.91,87.92,116.16,86.82Z"/><path d="M113.43,224.65a4.24,4.24,0,0,1,1.63-2.83,9.38,9.38,0,0,0,3.33-5.65c.11-.82.3-1.65,1.22-1.85,1.86-.4,2.44-1.78,3-3.37.31-.94,1.14-1.69,2.23-1.09,4,2.18,6.58-.78,9.47-2.58.49-.31.59-1.12,1.42-1.25,1.29,0,.62,2.19,2.1,2.09.94-.07,2-1.05,2.73-.4,2.79,2.3,6.16,1.11,9.16,1.83,2,.49,3-.33,4.11-1.5.67-.69,1.32-1.4,2.05-2,2.73-2.29,4.26-1.94,5.82,1.29,1.81,3.74,1.83,3.75,5.38,1,3.34-2.58,3.47-2.62,2.11-6.57-1.06-3.06-.31-6.69-3.21-9.24-1-.86-.16-2.23,1.3-2.25,6.71-.11,13.17-1.92,19.75-2.86,2.26-.32,3.14.66,2.71,3a8.43,8.43,0,0,0,.24,4.67,12.48,12.48,0,0,1-6.51,15.24c-2.51,1.1-3.34,3.21-1.5,5.21,2,2.18,1.83,4.19.88,6.57a31.65,31.65,0,0,0-1.72,5c-.9,4-5,4.48-7.44,6.81-.5.47-1.2.09-1.75-.29a6.55,6.55,0,0,0-1.6-1c-1.93-.59-9.39,5.61-9.2,7.67.07.8,1.46.44,1.59,1.38-.66.85-2,.07-2.55,1-2.41,1.19-3,3.52-3.75,5.82-1,3.41-1.54,3.8-4.88,3.82-.8,0-1.59-.12-2.39-.19-4.28-.39-4.28-.4-5.28,3.75-1.29,0-1.76-1.26-2.72-1.77-2.51-1.31-4.36-.95-6.16,1.33-.58.73-.88,1.85-2,1.75s-1.31-1.27-1.26-2.2c.08-1.24-.63-1.55-1.6-1.94-2.65-1.07-5.21-2.35-7.85-3.44a6.85,6.85,0,0,1-4.39-4.67c-1-3.66-1-3.65-5.39-3.49,2.14-2.38,2.14-4.55.41-7-.88-1.22.28-3.14-.55-4.62-1.66-.87-2.74,1.49-4.46.8-.57-2,.89-2.84,2.14-3.77C111.1,226.09,112.82,226.21,113.43,224.65Z"/><path d="M196.59,210.57c-2.05-2.51-4.58-4.45-4.41-8.5.23-5.12,2.06-8.44,6.89-10.11.41-.14.72-.58,1.08-.89l2.27-.15c.33,1.34.16,3,2.14,3.29a5.78,5.78,0,0,0,.35,1.33c.28.52.75,1.18,1.41.69s.2-1.12-.25-1.56a9.16,9.16,0,0,0-1.14-.78c-.31-1.58-.85-3.46,1.94-2.5a12,12,0,0,1,6.51,4.49c3,4.16,2.11,8.24-.91,11.73C207.15,213.74,203.76,215.2,196.59,210.57Z"/><path d="M158.25,260.91a2.93,2.93,0,0,1-3.78,3,5.29,5.29,0,0,1-3.69-2.72,4.27,4.27,0,0,1,1.64-5.74c1.63-1,3.27-.33,4.66,1.84A9,9,0,0,1,158.25,260.91Z"/><path d="M0,153.26c7.47-1.5,9.05-1.4,13.65.74C8.31,156.51,4.47,156.39,0,153.26Z"/><path d="M221.06,198.49c-1.17,3.27-.51,6.78-1.3,10.13-3.16-1.67-3.18-1.81-1.52-11,1.25-.44,1.6,1.51,2.85,1.07Z"/><path d="M38.86,28.8c-4.64-2.79-8.61-4.91-9.1-10.94C34.17,20.55,37.18,23.48,38.86,28.8Z"/><path d="M113.11,78.28c.45-2.92-3.08-4.13-2.67-7.25,2.13.65,4.46,2.4,5.24-1.12.13-.57.77-.44,1.16-.19a1.7,1.7,0,0,1,.68,2.07A19.29,19.29,0,0,1,113.11,78.28Z"/><path d="M73.47,310.34a3.17,3.17,0,0,1-3,2.41c-1.47.14-2.93-2-2.84-3.78.08-1.57.87-2.34,2.46-2.15C71.94,307.05,73.63,308.74,73.47,310.34Z"/><path d="M264.86,241.7c2.24,1.19,3.17,3.19,4.16,5.14.27.54.64,1.17.08,1.7a2,2,0,0,1-2.22.17c-2-.87-2.4-2.74-2.72-4.61A2.22,2.22,0,0,1,264.86,241.7Z"/><path d="M285.8,68.57c-1.44.11-2-.81-2.17-2a3.63,3.63,0,0,1,3-3.8,2.57,2.57,0,0,1,2.85,2.58C289.57,66.69,287.54,68.43,285.8,68.57Z"/><path d="M303.53,173.27c4-2.22,5.07-2.11,8.52.57C309.06,176,309.06,176,303.53,173.27Z"/><path d="M230.3,41c3.83-1.75,7-1.83,10,.15.55.36.95.82.67,1.55-.19.51-.73.85-1.09.67C237.08,42,233.65,43,230.3,41Z"/><path d="M209.19,225.38c-4.09-.16-5.85-2.36-7.27-5.31C205.94,220.12,206.74,220.69,209.19,225.38Z"/><path d="M180.52,281.4c6,0,7.68,1.17,8.5,5.47C187.19,283.89,183.36,284.26,180.52,281.4Z"/><path d="M108.43,21c0,1,0,1.92-1,2.1a1.81,1.81,0,0,1-1.9-1.12,5.88,5.88,0,0,1-.66-5,.86.86,0,0,1,1.15-.51C108.29,17.31,108,19.44,108.43,21Z"/><path d="M79.82,69.28a9,9,0,0,1,5.57,3.11,1.53,1.53,0,0,1,.36,1.74c-.33.66-1,.64-1.63.55C81.56,74.28,80.48,73,79.82,69.28Z"/><path d="M260.7,51.13c-.17,1.31-.56,2.36-1.92,2.49s-3-2-2.83-3.32a2.21,2.21,0,0,1,2.38-1.9C260.24,48.35,260.64,49.7,260.7,51.13Z"/><path d="M191.92,3.2c-.36,1.44-1.5,1.8-2.85,1.67-1.55-.14-2.83-.78-2.6-2.6A2.31,2.31,0,0,1,189,0,3.28,3.28,0,0,1,191.92,3.2Z"/><path d="M96.35,30.39c-1.56-1.33-1.58-2.91-1.62-4.44,0-.9-.27-2.17.9-2.41s2,.88,2.21,2A5.17,5.17,0,0,1,96.35,30.39Z"/><path d="M163.69,256.21a2.39,2.39,0,0,1,1.93,2.88c-.19,1.17-.87,2.13-2.29,1.8a1.83,1.83,0,0,1-1.6-2.43C162,257.42,162.28,256.26,163.69,256.21Z"/><path d="M90.75,252.69c1.23.14,1.67,1.09,1.7,2.27a2.4,2.4,0,0,1-2,2.75A2,2,0,0,1,88,256.09C87.65,254.89,89.35,252.8,90.75,252.69Z"/><path d="M103.12,54.22c2.22,2.05,5.36,0,7.73,2C106.76,58.31,104.76,57.85,103.12,54.22Z"/><path d="M132.61,260.11c2.68-.63,5.16-2.13,8.77-1.5C138.25,261,135.72,262.27,132.61,260.11Z"/><path d="M61.17,253.24c-.24,1.6-1.43,2.35-2.78,2.83-1.15.4-1.86-.38-2.07-1.34-.43-2,1.33-2.22,2.56-2.7C59.93,251.62,60.65,252.31,61.17,253.24Z"/><path d="M38.19,61c3.2-.51,4.49,1.7,6.09,3.72C40.47,65.42,39.88,65.05,38.19,61Z"/><path d="M170.13,31.51c-4.35-1.31-5.2-2.69-4-7.73C166.44,27.58,169.32,28.75,170.13,31.51Z"/><path d="M20.39,146.86a2.63,2.63,0,0,1-2.5,2.69,1.82,1.82,0,0,1-2.15-2c0-1.77,1.37-1.92,2.66-2C19.44,145.52,20.23,145.93,20.39,146.86Z"/><path d="M54.81,91.83c-3.11.37-5.26-.65-5.43-2.61A1,1,0,0,1,50,88.13C51.74,87.4,53.64,88.88,54.81,91.83Z"/><path d="M194.53,54.27c-2.9-1.35-3.44-3.47-4.1-5.5-.2-.63-.1-1.39.54-1.61a1.53,1.53,0,0,1,2,.75C193.59,49.79,193.94,51.74,194.53,54.27Z"/><path d="M52.76,106.5A4.82,4.82,0,0,1,57,110.33c.11,1.14-.65,1.28-1.49,1a8.94,8.94,0,0,1-3.73-2.73,1.73,1.73,0,0,1-.38-1.25C51.5,106.59,52.28,106.67,52.76,106.5Z"/><path d="M97.07,203.47a1.89,1.89,0,0,1-1.74-2,2.88,2.88,0,0,1,2.55-2.94c.79-.16,1.19.85,1.25,1.71A2.75,2.75,0,0,1,97.07,203.47Z"/><path d="M258.89,27a3.09,3.09,0,0,1-2.8,2.61c-.64-.08-1.31-.57-1.25-1.22.15-1.48.79-2.78,2.47-2.93C258.15,25.4,258.69,26.12,258.89,27Z"/><path d="M256.79,4.91c.72,0,1.36.09,1.49.89.22,1.3-1.48,3.35-2.79,3.31a1.11,1.11,0,0,1-1.08-1.26A2.73,2.73,0,0,1,256.79,4.91Z"/><path d="M60.12,118.77c-1-.13-1.86-.35-1.92-1.26a1.94,1.94,0,0,1,2.29-2.3c.85.07,2.19-.24,2.1,1.17S61.27,118.41,60.12,118.77Z"/><path d="M198.53,28.32c-1.78-.57-1.6-2.17-1.79-3.55-.08-.54.34-.88.87-.92,1.16-.08,2.41,1.7,2.19,3.19A1.65,1.65,0,0,1,198.53,28.32Z"/><path d="M118.26,290.76c0,.94-.5,1.6-1.36,1.49s-1.89-.44-2-1.64c-.08-.87.2-1.62,1.16-1.71A1.81,1.81,0,0,1,118.26,290.76Z"/><path d="M243.08,237.24c1.57-.05,3.56,2.84,2.83,4.15a1,1,0,0,1-.74.44c-1.09,0-1.68-.75-2.2-1.55a2.78,2.78,0,0,1-.65-2.61C242.41,237.46,242.82,237.38,243.08,237.24Z"/><path d="M132.07,292c0,1.16-.36,2.18-1.63,2.4-.64.11-1.12-.59-1.1-1.23,0-1.13.42-2.24,1.68-2.47C131.75,290.52,132,291.28,132.07,292Z"/><path d="M221.06,198.49l0,.17c2.36-1.6,3.9-.78,5.25,1.76C223.81,201.14,222.54,199.54,221.06,198.49Z"/><path d="M84.92,38.4c-.14.85-.5,1.81-1.67,1.74a1.88,1.88,0,0,1-1.64-2c0-1.21,1-1.46,2-1.45S84.94,37.35,84.92,38.4Z"/><path d="M174,56.79c-.61-.87-1.94-1.24-1.83-2.61a2.24,2.24,0,0,1,1.25-1.88c.87-.47,1.52,0,2.05.62a1.5,1.5,0,0,1-.17,2.11c-.49.58-1.35.89-1.37,1.82Z"/><path d="M65.76,122.13c-.93-.14-2.13.1-2.23-1.24a1.61,1.61,0,0,1,1.76-1.78c1.26,0,2.21.52,2.19,1.92C67.46,122.12,66.51,122.05,65.76,122.13Z"/><path d="M170.48,259.39a2.6,2.6,0,0,1,1.57,2.39.75.75,0,0,1-1,.68,2.15,2.15,0,0,1-1.81-2.43C169.26,259.53,169.62,259.21,170.48,259.39Z"/><path d="M158.45,29.25a1.74,1.74,0,0,1,1.67,2c-.08.88-1.08,1.17-1.87,1a1.61,1.61,0,0,1-1.39-1.67C156.94,29.59,157.64,29.26,158.45,29.25Z"/><path d="M278,103.24c.82.1,1.41.53,1.41,1.41a1.51,1.51,0,0,1-1.44,1.49c-1,.16-1.35-.58-1.39-1.39S277.17,103.42,278,103.24Z"/><path d="M228.07,286.38c1.12.05,1.39,1,1.52,1.87.08.54.07,1.36-.86,1.2s-1.21-.86-1.42-1.63A1,1,0,0,1,228.07,286.38Z"/><path d="M84.64,291.51c.15.89-.45,1.23-1.32,1.32-.65.07-1.36,0-1.49-.72-.24-1.17.64-1.64,1.59-1.81C84.13,290.19,84.53,290.67,84.64,291.51Z"/><path d="M101.17,65.38c1.49,0,2.29.59,2.48,1.52s-.65,1.25-1.48,1.29c-1,0-1.85-.32-2-1.44C100.13,65.84,100.66,65.35,101.17,65.38Z"/><path d="M20.13,199.54a1.87,1.87,0,0,1-1.87,1.63c-.59.07-1.34-.3-1.23-1a1.62,1.62,0,0,1,1.65-1.27C19.25,198.86,19.89,198.73,20.13,199.54Z"/><path d="M256.89,219.73c-1.07-.11-1.28-.79-1.21-1.6,0-.64.34-1.2,1.1-1.15a1.45,1.45,0,0,1,1.54,1.36C258.36,219.28,257.5,219.45,256.89,219.73Z"/><path d="M26.15,161.28a1.27,1.27,0,0,1-.95,1.53,1.29,1.29,0,0,1-1.89-.81c-.24-.73.21-1.2.91-1.34S25.81,160.41,26.15,161.28Z"/><path d="M139.27,10.37c0,.54-.31,1.24-1,1.27s-.88-.75-.85-1.39,0-1.43.87-1.4S139.29,9.52,139.27,10.37Z"/><path d="M214.08,25.16A1.28,1.28,0,0,1,213,26.47c-.95.08-1.35-.63-1.31-1.51a1,1,0,0,1,1.24-1.05A1.32,1.32,0,0,1,214.08,25.16Z"/><path d="M267.24,106.17c-.68,0-1.12-.2-1.2-.68-.15-1,.5-1.43,1.35-1.56a1,1,0,0,1,1.07.71C268.78,105.79,267.7,105.79,267.24,106.17Z"/><path d="M185.62,20.09a1.81,1.81,0,0,1-1.45,1.65,1.33,1.33,0,0,1-1.3-1.15c-.09-1,.64-1.38,1.47-1.5A1,1,0,0,1,185.62,20.09Z"/><path d="M39.46,151c.64.05,1.14.15,1.13.68,0,.78-.63.9-1.26.82a.77.77,0,0,1-.73-.93C38.7,151.23,39.25,151.08,39.46,151Z"/><path d="M39,122.85a1,1,0,0,1-1.39.89.9.9,0,0,1-.72-1c.09-.8.67-1,1.37-.88A1,1,0,0,1,39,122.85Z"/><path d="M110,241.69c-.25.58-.59,1.09-1.29,1.13-.51,0-.93-.14-.74-.79a1.59,1.59,0,0,1,1.25-1.19C109.78,240.76,110.11,241.1,110,241.69Z"/><path d="M71.59,63.75a1.9,1.9,0,0,1,1.5,2c0,.45-.67.66-1.09.47a1.94,1.94,0,0,1-1.38-1.68C70.62,64,70.92,63.65,71.59,63.75Z"/><path d="M65,132c-.11-.67,0-1.08.55-1.2s1.32-.21,1.45.58a1.06,1.06,0,0,1-1,1.25C65.63,132.66,65.27,132.2,65,132Z"/><path d="M85.82,223.45c-.78.08-1.06-.55-1.09-1.13a1.4,1.4,0,0,1,.7-1.09.94.94,0,0,1,1.31.85A1.11,1.11,0,0,1,85.82,223.45Z"/><path d="M160.4,266.17c0,.32-.34.54-.82.59a.75.75,0,0,1-.88-.78c0-.39.27-1.08.49-1.1C159.83,264.8,160.29,265.22,160.4,266.17Z"/><path d="M204.93,193.89a9.16,9.16,0,0,1,1.14.78c.45.44.88,1.08.25,1.56s-1.13-.17-1.41-.69a5.78,5.78,0,0,1-.35-1.33Z"/></g></g></svg>