<svg xmlns="http://www.w3.org/2000/svg" viewBox="0 0 473.98 99.79"><g id="Capa_2" data-name="Capa 2"><g id="Capa_7" data-name="Capa 7"><path fill="#fff" d="M470.47,49.06a29,29,0,0,0-5.74.07A50.3,50.3,0,0,1,459,49l-.46-.84a1.06,1.06,0,0,0,.11-.21.17.17,0,0,0,0-.17c-.65-.45-1.39-.22-2.09-.23-4,0-7.93,0-11.89,0,3.58-1.21,7.34-.81,11-1.39.82-.06,1.7.33,2.43-.36h0l1.4-.14,1.38,0h0a2.4,2.4,0,0,0,1-2.43c-1-.75-2.17-.69-3.28-1a.44.44,0,0,0,0-.32,4.91,4.91,0,0,0,2.11-.28c.14-.52-.71-.62-.45-1.33A119.29,119.29,0,0,0,474,40.27c-.72-.93-1.72-.75-2.64-.74A62.74,62.74,0,0,1,461.09,39c-2.86-.41-5.79-.27-8.61-1a16.66,16.66,0,0,0-5-.46,34.82,34.82,0,0,1-5.4-.34c-.38-.05-.86,0-.89-.53s.45-.57.83-.58c.88,0,1.76-.05,2.64,0a30.24,30.24,0,0,0,8-.89c.67,0,.85-1.76,1.88-.53a.69.69,0,0,0-.18.16.17.17,0,0,0,0,.17c.52.55,1.2.26,1.79.26,1.52,0,2.61-.58,2.49-1.26s-1.54-1.33-2.71-1.09c-3.44.72-6.79-.12-10.17-.42-2.83-.24-5.68-.6-8.49.21a30,30,0,0,1-6.7-.06,29.13,29.13,0,0,0-4.27-.42c-.41-.6-1.27,0-1.72-.71a5.39,5.39,0,0,1,4.28-.33,9.88,9.88,0,0,0,5.09.14c6.19,0,12.39-.05,18.58,0,1.84,0,3.62-.36,5.43-.46a2.84,2.84,0,0,0,1.5-.62.72.72,0,0,0,.38-.78c-.1-.4-.44-.4-.75-.41-1.34,0-2.69,0-4-.06h0c-3.81-.19-7.63-.11-11.44-.05-1.2-.74-2.73-.07-3.91-.89-2.64-.27-5.3.19-7.94-.2a2.42,2.42,0,0,0-.69.11c0-.14,0-.28,0-.42s.14-.1.17-.17a.22.22,0,0,0-.05-.19,2.7,2.7,0,0,0-1.74-.65l-4-.61c1.39-1.13,2.81-.52,4.07-.74h0c1.4.84,2.93.24,4.39.42,2.39.91,4.8,1.37,7.27.29-1.4-.14-2.68-.87-4.14-.76-.64.05-.2-.58-.21-.91v0h0l6.19-.15a16.81,16.81,0,0,0,5.37-.08c-2.3-1.34-4.32-.84-6.31-.75h-3.9a100,100,0,0,0-10.53-.05,5.6,5.6,0,0,0-2.41,0l-8.49-.08h0a1,1,0,0,0-.85-.34c-3.42.07-6.84-.34-10.27-.11-.7-.71-1.67-.16-2.45-.51v-.35c.44-.47,1.74.45,1.58-1h0c2,0,4-.17,6-.1a53.17,53.17,0,0,0,10.25-.19c.44-.07.64.12,1,.33a7.05,7.05,0,0,0,4.47,1,13.2,13.2,0,0,1,3.8.22,3.17,3.17,0,0,0,2.75-.3h0l.89-.11a1,1,0,0,0,1-.61c.58-1.39,1.6-1.52,2.85-1.1.61.58,1.37.31,2,.24a105.24,105.24,0,0,1,14.75-.32,33.45,33.45,0,0,0,8.11-.32c-2.66-1.43-12-1.89-19.11-1.09-3.72,0-7.44,0-11.17,0a29.87,29.87,0,0,1-4.71-.35c-1-.18-1.89-.19-1.36-1.67.24-.67-.29-1-1-.73a5.61,5.61,0,0,1-.91.17c-.19-.49-.64-.29-1-.38,0-.13,0-.26,0-.4a20.87,20.87,0,0,1,5.47,0c1.76.22,3.81-.68,5.16,1.27,0,0,.15,0,.23,0,1.52,0,3,0,4.54,0a1.1,1.1,0,0,0,.6-.29c-.42-1.5.73-.87,1.29-1S442,15,442.63,15h0c3.89,0,7.78.13,11.66.07a35.73,35.73,0,0,0,8-1c.7-.18,1.62,0,2-1l-.08-.58h0c.53-.61,1.64,0,2-1.07a3.9,3.9,0,0,0-2.25-.34,86.14,86.14,0,0,1-14.54-.42,7,7,0,0,0-4.93,0l-1.86,0h0c-2.47-.55-4.92-1.13-7.51-.63A13.91,13.91,0,0,1,432,9.93c-3.66-.13-7.28-.86-11-.74-.36-.43-.86-.34-1.33-.38-4.67-.49-9.34.27-14-.1-3.36-.26-6.76-.06-10.11-.52.23-.39.65-.38,1-.49h7.17c-2-1.29-3.24-1.39-6-1.28a30.06,30.06,0,0,1-6.15-.29,25.22,25.22,0,0,0-4.27-.55c-2.06,0-4.09-.52-6.15-.15-.53.1-1.37.21-1.58-.23-.55-1.13-1.31,0-1.88-.33l.05,0c-1.05-1.18-2.14-.45-3.22-.08a.56.56,0,0,0-.64-.39.26.26,0,0,0-.35-.08q-.37-.57-.75,0h0l-.84.14-.93-.12c-.34-.59-.65-.46-1,0h0c-2.85-.18-5.73-.18-8.55-.59A55.93,55.93,0,0,0,351,3.48c-3.11-.77-6.31-.69-9.48-.94-1.05-.08-2.24.22-3-.92-.13-.2-.69-.4-.72,0-.1,1.49-1.28,1.06-2.09,1.29-.57-.56-1.3-.37-2-.41a1,1,0,0,0-1,.07,1.12,1.12,0,0,0-.43.38l0,0a.53.53,0,0,0-.48.45h0c-.72.14-.46-.83-.85-.84-2,0-4-.42-5.84.85l0,0h0c-.15-.43.19-1.21-.76-1.07-1.83.26-3.61-.54-5.43-.26-2.68-.64-5.5.61-8.13-.61a.61.61,0,0,0-.47.06c-1.66.73-3.28.26-4.91-.15a1.8,1.8,0,0,0-1.37-.06c-1.42.67-3-.81-4.4.22-.22.16-.59-.14-.77-.43s-.3-.72-.61-.31c-.79,1.05-2,.37-2.88.8a21.1,21.1,0,0,0-4.95-.08c-1.34.28-1.54-1.73-2.05-1.08a3,3,0,0,1-2.41,1.06,13.21,13.21,0,0,1-4-.11c-.56-.09-.93,0-1,.62A6.3,6.3,0,0,0,278,1.58a8,8,0,0,0-2.89,0,6.88,6.88,0,0,0-2.55-.44c-3.79.17-7.58.31-11.38.46l-1.88,0a1.18,1.18,0,0,0-1-.06c-4.34-.5-8.67.25-13,0a84.89,84.89,0,0,0-9.54.48c-2.92.13-5.85.23-8.78.4s-5.68.41-8.52.62L200.71,4a8.44,8.44,0,0,0-2.13,0c-3.1.11-6.2.17-9.3,0h0a4.45,4.45,0,0,0-.79-.45c-2.16-.76-4.32-.27-6.48,0-.51,0-1-.19-1.47.28h0L179.2,4a12.15,12.15,0,0,0-6.84-.15l0,.11a7,7,0,0,0-2.78.49c-.54.08-.53.51-.58.91-.76,0-1.44.5-2.3.14-.61-.25-1.34.26-2-.6-1.18-1.51-.67,1.22-1.6.78-.42-.2-.9-.29-1.34-.45a7,7,0,0,0-3-.41c-.83.08-1.78,0-2.22,1h0c-1.2-.7-2.16.24-3.22.46h0c-.85-.54-1.72-.9-2.49.11a1,1,0,0,1-1,.44,69.08,69.08,0,0,0-10,.38c-3.71.26-7.43.4-11.15.6a31.74,31.74,0,0,1-3.47-.68c-1.49-.36-3.25-.86-4.52.36a2.34,2.34,0,0,1-3,.39,4.86,4.86,0,0,0-3.24-.58c-2.27.64-4.53,1.17-6.89.54-.42-.08-.64.31-1,.45a2.51,2.51,0,0,0-1.46,0,1,1,0,0,0-1.08.38h0a.28.28,0,0,0-.34.06,37.73,37.73,0,0,1-7.13-.16,18.09,18.09,0,0,0-7.07.15c-.37.09-.75.35-1.13,0-.91-.72-2-.36-3-.45-.47-.05-1.27,0-1.34-.18C83.69,7,83,7.59,82.43,7.8a4.47,4.47,0,0,1-1.59.39h0c-.2-.1-.41-.29-.62-.3-3-.19-6-.36-9-.52-1.67-.09-3.35,0-5-.22-4.27-.42-8.52-.93-12.78-1.4h0c-.21-.1-.44-.31-.61-.27-3.06.68-5.92-.23-8.82-.94-.67-.16-1.31-.58-2.06-.36-1.6.47-3.13-.06-4.66-.38a18.14,18.14,0,0,0-3.91-.88,1,1,0,0,0-1.07-.34l-1-.13h0c-2-.61-4.17-.5-6.22-1.07C24.51,1.23,24,.22,23.49.86c-1,1.25-2,.46-3,.2C18.22.44,16-.26,13.51.1c-.3-.08-.73-.06-.73.21s.45.28.75.23l0,.06,0,.6h0c-1.09-.07-2.43-.31-3.07.57-.51.7-.77.9-1.59.79-2-.28-2.3-.05-3.2,1.84a1.48,1.48,0,0,0-.76,1h0C5,5.9,4.12,6.55,5,6.81c2,.56,3.6,2,5.64,2.34h0l0,.64h0c-.29.58-.79.45-1.23.29-.89-.32-1.77-.68-2.66-1h0a7.39,7.39,0,0,0-1.21-.64c-.72-.25-.74.25-.69.76,0,.16,0,.33-.07.49h0c.06.92,1,.73,1.44,1.07v.51h0a5.8,5.8,0,0,0-1.38,0c-.64.16-1.39.35-1,1.34l0,.51h0a1.4,1.4,0,0,0-.13.36h0c-.7.16-.84.53-.48,1.16a5.91,5.91,0,0,0,2.08,1.73h0V17a.44.44,0,0,0,0,.32h0c-.37.85-1.61.2-1.93,1.12h0l.91.9-.56.53h0c-1.65.69-1.68.71-.89,2,.26.45.09.57-.19.92-1.14,1.46-1,1.72.52,2.33l1.11.44c0,.14,0,.29,0,.43h0c-.53.17-1.14.29-.5,1h0l.12,1H4a1.56,1.56,0,0,0,1.33.84,1.51,1.51,0,0,0,1.44.42l.21.09.22,0a1,1,0,0,0,1,.38h0a.26.26,0,0,0,.32.12,1.82,1.82,0,0,1,.05,1.86h0l-.18,0a1.88,1.88,0,0,1-.62-.34.45.45,0,0,0-.44-.11h0a7.36,7.36,0,0,0-3.48-1.36c-.6-.11-1.78,0-1.58.38.43.81-.45,2.16.54,2.3,1.39.2.61,1.76,1.71,2.07.38.12-.18.7-.5.75-.55.1-1.29-.39-1.48.59.12.34.25.67.38,1h0c-.21.12-.43.21-.63.35-1.95,1.35-2,1.49-1.12,3.73a1.51,1.51,0,0,1,0,1.13c0,.19-.08.39-.11.58H1C.47,43.3.72,44,.49,44.64h0l.07.1c-.19,0-.53,0-.55.13-.08.38.26.35.5.41h0a.47.47,0,0,0,.51.34l-.51-.36h0a3.61,3.61,0,0,1,.51.36.28.28,0,0,0,.34.12A1.45,1.45,0,0,1,2,46.1a.28.28,0,0,0,.34.12,1.31,1.31,0,0,1,.62.39l.19.1.21,0c-.64.85-1.79-.07-2.53.76a3.17,3.17,0,0,0,2,1.17c.53.11,1.1.19,1.14.92l-1,.57h0c-.56,0-1-.83-1.68-.24.52,1.5,2,1.62,3.11,2.13,0,.44.23.92-.26,1.31-.64-.25-1.31-.52-2-.74A.89.89,0,0,0,1,52.88a.84.84,0,0,0,.25,1C2.87,54.5,3,56.47,4.4,57.2l-.64.6h0c-.71-.18-1.1.26-1.62.67C1,59.4.83,60.46,2,61.29A8,8,0,0,0,4.87,62.9h0L5,63H5.2a1.74,1.74,0,0,1,.62.35.3.3,0,0,0,.35.13A1.26,1.26,0,0,0,7.26,64a1,1,0,0,0,1,.43l.16.1.18,0a1.26,1.26,0,0,0,1.09.45.91.91,0,0,0,.95.37l.21.12h.23a1,1,0,0,0,1,.38h0a.3.3,0,0,0,.36.13h0l.61.46-.55.53h0c-.93,0-2.12-.89-2.66.69a1.53,1.53,0,0,0-1.25-.19h0L6.22,67a4.48,4.48,0,0,0-4,1c.92.35,1.45.82.94,1.81a6.53,6.53,0,0,0-.43,1.11c-.49,1.64-.39,1.94,1.16,2.78.61.32,1.31.81,1.08,1.34-.47,1.11.29,1.37.79,2a14.35,14.35,0,0,0,3.14,2.6A2.3,2.3,0,0,1,10,81.87c-.25,1,.23,1.24,1,1.48s1.65.58,2.47.88a.28.28,0,0,0,.08.3l-2,.23c.12.69.68.77,1.09.94,2.42,1,4.82,2.12,7.3,3,3.74,1.33,7.42,2.89,11.38,3.58a1,1,0,0,0,1,.35h0a70.91,70.91,0,0,0,16.34,2.89,15.5,15.5,0,0,0,2,.64c1.32.21,2.3,1.23,3.71,1.32,5.93.34,11.84,1.07,17.79,1.08a6.81,6.81,0,0,1,2.7.77c.93.4,1.36-1.45,2.54-.94l1.13.36c2.25.72,4.81-.7,7,1,.19.15.61-.38.09-.73l-.43-.2h0a3,3,0,0,1,1.85-.12c2.76.23,5.54.7,8.27-.26a6.59,6.59,0,0,1,3-.12,44.5,44.5,0,0,0,4.92.37c2.12,0,4.22-.72,6.34-.18.2.36.39.28.58,0h.23l.2-.11c.55,0,1.13.15,1.57-.35h0c4.71.48,9.41-.73,14.13-.12a2.42,2.42,0,0,0,1.58-.39c.34.1.56.54,1,.39h0c1.59,0,3.21.22,4.74-.43l2.87.1c2.39.06,4.8-.53,7.11-.42s4.92.29,7.36.2c1.2,0,2.16,1.1,3.34.46a14.25,14.25,0,0,1,3.29-1.2c.64.67,1.48.45,2.25.47,1.44,0,2.87-.07,4.3,0s2.64-.64,4-.38c1.88.34,3.77-.38,5.57-.32a55.28,55.28,0,0,0,9.8-.38,1.21,1.21,0,0,0,1-.06c2.26-.16,4.55.42,6.77-.37h0a56.33,56.33,0,0,0,5.82-.15,43.4,43.4,0,0,1,5-.28c2.06,0,4.12,0,6.17-.07S210,95,210.64,93c.05-.15.39-.21.59-.32a5.05,5.05,0,0,0,1.41-.09c.55-.19.49-.52-.06-.71h0c-1.19-.06-2.38-.09-3.56-.18s-2.25.59-3.48.52c-4.18-.26-8.33.45-12.5.58-2.09-.33-4.18.08-6.27-.05a1.69,1.69,0,0,0-1.52.4h0c-9.9.1-19.77.65-29.66,1l-1.92-.11a2,2,0,0,0-.31-.2,1.57,1.57,0,0,0,.31-.08c.51-.16,1.17.12,1.51-.52a2.73,2.73,0,0,1,3-1.63c1.05.06,2.21.43,3.19-.35,3.32.76,9.56.33,11.28-.82L169,90.31c0-.13,0-.27,0-.4.64-.3,1.45.13,2-.48h0c1.86,0,3.74.14,5.59.18a42.08,42.08,0,0,0,7.72-.74,2.18,2.18,0,0,0,1.47-.07l2.76,0c.8.24,1.75-.26,2.46.49h0c-.34.22-1.16.59-.32.85,1.31.4,2.8-.07,4.14.55,3.45-1.14,7.12-.55,10.61-1.37a8,8,0,0,0,4.92-.17,2,2,0,0,1,1.14-.09,6.51,6.51,0,0,0,4.4-.25c.77-.28,1.38.09,2,0a4.78,4.78,0,0,0,3-.16c.89-.33.21-.62-.18-.84l-.91-.75,1-.56c.8-.36,1.29,1.09,1.86.53,1-1,1.68.31,2.6.06a4.62,4.62,0,0,1,3.05,0,.23.23,0,0,0,0,.24c-.55.2-1.15.35-1.44,1a.5.5,0,0,0-.33.69c.11.28.3.22.44,0,1.49-.68,3.11-.36,4.66-.6.68-.11,1.64-.12,1.65-.89,0-1.87,1.35-1.34,2.33-1.52.47.57.86,1.11,1.8,1a14,14,0,0,0,2.52-.46l.53-.06h0l1.73-.06a.67.67,0,0,0,.63-.32h0a.88.88,0,0,1,.39-.11,1,1,0,0,0,1-.37,1.1,1.1,0,0,1,.39-.12h0l.56.06-.32-.28h0l.32.28.56.09a.54.54,0,0,1-.13.39l-1.22.82a.53.53,0,0,0-.17.12h0l-2.74.15h0c-1.43-.1-1.51,0-1.1.84h0c1.42.34,3-.57,4.33.39h0c1,.24,1.82-.4,2.74-.56.46-.07,1-.42,1.33,0,.55.66,1.06.39,1.68.23a19.62,19.62,0,0,1,4-.5c1.19-.06,2.57.19,3.45-1.1.28-.41.87-.28,1.32-.41a20,20,0,0,1,6.12-.49,13.1,13.1,0,0,0,4.67-.17,26.12,26.12,0,0,1,7.28-.24c-.28,1.13-1.94.59-2.18,1.68,1.06,1.49,1.75-.15,2.62-.22,1.39,1,2.94.38,4.42.41l1,0a2.09,2.09,0,0,0,1.59-.37h0c.17.21.31.48.65.47.44.49,1,.39,1.57.39a34.15,34.15,0,0,0,7.83-.1,20.93,20.93,0,0,1,6.84.07c.59.12,1.26.39,1.67-.38,4.61.83,9.26.29,13.89.35a23.14,23.14,0,0,0,8.66.11,6.54,6.54,0,0,0,5.9-.25c-.6-.88-1.37-1.5-1.89-1.25-1.17.57-2.46,0-3.54.63l-1.68,0c-1.75,0-3.67.31-5.22-.28a6.82,6.82,0,0,0-4.62.12l-.45.14h-1c-.8,0-1.56-1.26-2.41-.1-1.4-.35.13-1.63-.84-2.28a4,4,0,0,1-2.19.3c-1.16-.18-1,1.06-1.64,1.4a1.22,1.22,0,0,1-.9.17c-.7-.34-1.39.26-2.07,0l0-.07h0l-.94-.81c.56-.23,1.83-.07.67-1.25-.46-.47.1-.8.28-1.17,1.26,0,2.53-.07,3.78.07,2.07.25,4.1,1,6.22.32a.86.86,0,0,1,.69,0c1.55,1.18,3.27.56,4.88.4,1.85-.18,3.79,0,5.55-.81l.22,0,.2-.09c.32,0,.61.49,1,.09,1,.22,2.08.13,2.67,1.24.23.43.67.32,1,.1s.93-.64,1.42-.88c.67-.33,1.4-.74,1.29.65,0,.46.41.59.87.41s1.16-.48,1.78-.66c2.24-.64,4.42.2,6.63.12a2.45,2.45,0,0,0,3.49.46c.09-.11.08-.3.12-.46.6-.28,1.24,1,1.81,0l2.86-.06a3.36,3.36,0,0,0,3.32.48,8.43,8.43,0,0,1,6.51.35,2.39,2.39,0,0,0,1.85.2c2.42-.82,4.88-.31,7.32-.42,1,0,2.08-.35,2.82.74a1,1,0,0,0,.89.15c2.13-1.08,4.38-.44,6.57-.51a2.34,2.34,0,0,1,0,.46l.06.1c-1-.07-2-.15-2.54,1.08-.4,1-1.21.28-1.84.31-.05-.06-.1-.15-.16-.17a.2.2,0,0,0-.2.05,5.28,5.28,0,0,1-.88,1.37c-.77.62-3.44.16-4.3-.6-.34-.3-.75-.86-1.19-.62-1.68.89-3.47.25-5.16.55-1,.17-2.27.12-2.64,1.51,1.07.57,2-.35,2.95-.11a30.41,30.41,0,0,0,10.33.59,85.08,85.08,0,0,1,11.84.08,20.21,20.21,0,0,0,6.89-.29c1.35-.38,2.72-1,4,.26.27.26.92.12,1.39.15a19.78,19.78,0,0,0,5-.49c.7,0,1.45.26,2.06-.34h0l.8-.07,1.9,0a74.68,74.68,0,0,1,8.34.2,22.15,22.15,0,0,0,7.54-.49c1.91-.41,3.78-1.31,5.76-.19.28.17.78,0,1.16-.07a63.85,63.85,0,0,1,12.35-.81,24.53,24.53,0,0,0,6.15-.57c.39,0,1,.28,1.05-.35,0-.3-.66-.23-1-.13-1.2,0-2.4-.09-3.59-.06-9.55.26-19.11.39-28.66.92a55.26,55.26,0,0,1-12.39-.33h0l-.82-.09c-.39-.44-.75-.45-1.08.06h0a6.49,6.49,0,0,1-3.36-.06l-.07-.49a2.59,2.59,0,0,1,2.31-.83c1.49,0,3-.06,4.45-.09.56,0,1.12.1,1.67.09q9.35-.06,18.68-.15c.55,0,1.1-.11,1.65-.17,3.08-.36,6.19-.28,9.27-.47,2.09-.13,4.23-.06,6.35-.34.78-.1,1.48-.67,2.35-.26-1.29-1.07-1.3-1.13-2.54-.93-.64.1-1.17.39-1.53-.48-.15-.37-.71-.23-1.09-.22a42.17,42.17,0,0,0-4.78.18,85.48,85.48,0,0,1-12.18.43c-1.28,0-2.64.13-3.87-.78a7,7,0,0,1,2.65-.71c2-.14,4-.26,5.95-.41a14.05,14.05,0,0,0,5.32-1l.18,0,.18,0a1,1,0,0,0,1,.44h0c2.11,1,4.1.19,5.85-.79a9.19,9.19,0,0,1,2.08-.76,5.81,5.81,0,0,1,2.31,0c.61.07,1.33.8,2.09.63,2.59-.59,5.22-.24,7.82-.51a2,2,0,0,0,2-.91,2.35,2.35,0,0,1-1.94-.58c-.37-.55-1-.17-1.48-.46l.55-.47c2.28-.84,4.87-.29,7.41-1.41a11.66,11.66,0,0,0-6.07-1c-5.12.35-10.25.74-15.37,1.12h0c-4.31,0-8.62,0-12.93,0a4.56,4.56,0,0,1-2.71-1c2.32-1.32,4.76.27,6.75-1a2.25,2.25,0,0,0,2.76-.45c.64-.55,1.53-.35,2.31-.49a3.15,3.15,0,0,0,2.6-.45h-2.61l-2.6-.11c-6.33-.29-12.62.67-18.95.46-.22-.26-.54-.49-.82-.34-1.59.86-3.14.38-4.73,0a1.86,1.86,0,0,0-2.16.47c-1.1,1.26-1,1.57.45,2.43a1.19,1.19,0,0,1,0,.42c-2,0-4,.08-6.06.06a8.64,8.64,0,0,0-4.23,1.2l1.17.23a2.41,2.41,0,0,0,0,.38l-3.83.63c-1.45,0-2.83-.67-4.3-.58l0-.5c-1.16-1.54-1.14-1.51-2.85-.49a4.36,4.36,0,0,1-1.3.34c0-.27,0-.64-.3-.67-.55,0-.36.47-.44.77a.64.64,0,0,0-.4.52c-1,.48-1.31-.42-1.78-1h0a.46.46,0,0,0-.57-.37l.56.38h0c-.26,0-.38-.24-.56-.38h-.49a.84.84,0,0,0-1,.44,1.24,1.24,0,0,0-.47.06,9.26,9.26,0,0,0-2.73-.11,1.28,1.28,0,0,0-1.11-.45,2.54,2.54,0,0,0-2.73-.27c-.66.36-1.4.1-2.08.29-1.59-1.88-3.73-.5-5.56-.91-1.45,1.48-3.29.6-4.94.82-.31,0-.89,0-.9-.1-.45-2.36-1.32-.51-2.06-.25a2.49,2.49,0,0,1-.93-.06,1.63,1.63,0,0,0-1-.9l-.89-.07c-.43-.86-.91-1.3-2-.94a12.15,12.15,0,0,1-6.92.49,11.2,11.2,0,0,0-6.06.4c-1.14.33-2.31.57-3.46.84-.71.17-1.73.4-2-.12-.76-1.32-1.43-.46-2.2-.2a3.32,3.32,0,0,1-1.18.11,5.71,5.71,0,0,0-3.36.92c-.69.22-.57.82-.63,1.34L328,77a2.88,2.88,0,0,0-1.65,1.15c1.06.87,1.71-.23,2.53-.42h0c.66.3,1,1,1.36,1.46.75-.1.55-1.75,1.77-1,.8.52,1.34,1,.61,2h0a9.18,9.18,0,0,0-3.26.28c-.38.14-.83.32-1.1,0-1-1.24-2.12-.38-3.2-.16-3.46-.28-6.91-.59-10.38-.78-.43,0-.76.11-.83-.39s.4-.65.78-.68c1.41-.11,2.82-.18,4.19-.26.34-.85-.74-.9-.67-1.46s-.1-.87-.74-.75c-1,.2-2.08-.24-3-.15-1.37.13-1.17-.69-1.44-1.34s-.55-1.48.83-1.56a24.94,24.94,0,0,0,3.65-.76c.38-.09.83-.07.53-.7-.58-1.22,0-1.41,1-1,.54.21,1.19.46,1.62.21,1.58-.92,3.29-.21,4.9-.57a4.17,4.17,0,0,0,3.32-.84h-4.26a18.65,18.65,0,0,0-5.92.09,4.75,4.75,0,0,1-2.31,0,14,14,0,0,0-6.13-.41,19,19,0,0,1-6.6-.15c-.37-.07-.94,0-1-.44-.15-1.41-1.38-.7-2-1.1a1,1,0,0,0,0-.35c.24-.72.85-.58,1.39-.58,1.59,0,3.18,0,4.77,0,.68,0,1.45.27,2-.41,1.07-.56.79-1.47.8-2.3a7.12,7.12,0,0,0-2.3-.13c-1.25-.12-.92-.78-.46-1.45,1.48-.13,3.08.52,4.72-.78a27.64,27.64,0,0,0-5.19-.08c-.68,0-1.58-.68-1.84.57-.38,1.78-.72,2-2.44,1.86l-1.91-.18c-.62-.07-1.24.17-1.88-.13s.38-1.37-.72-1.52c-2.23,1.91-4.89,1.36-7.5,1.16,0-.33-.07-.67-.1-1h0c.14-.8.39-1.73-1-1-.45.25-.91.08-1.35.18-.48-.13-.85-.11-1.08.46a3.4,3.4,0,0,1-1.34,1.52c-2.35-.09-4.72.12-7.07-.15-.56-.06-1.13,0-1.18-.8l.12-.57h0l.19-.14c.86-.69-.63-1.13-.23-1.54s1.48-.2,1.76-1a1.17,1.17,0,0,1,1.24-.82c1,0,.38-.85.6-1.27,3.07-1.32,6.56-.46,10-1.79a5.62,5.62,0,0,0-4.73-1,11.78,11.78,0,0,1-3.79.12c-1.75-.18-1.75-.23-2.23,1.6l-1,0a2.45,2.45,0,0,0-3.32.51c-.58-.76-1.7-.89-2.08-2s-.19-1.69,1-1.57a5.64,5.64,0,0,0,2,.14c2.24-.58,4.5-1.12,6.71.18a.67.67,0,0,0,.44.07,32,32,0,0,1,5.78-.42c1.12,0,.86.77,1.38.91,1.17-1.28,1.17-1.28,3-1.24a3.38,3.38,0,0,0,0,.45c-.31.42,0,.55.32.56a7.41,7.41,0,0,0,2.57-.12h0l5.94-.47c.46,0,1,.05,1.3-.41a.58.58,0,0,0,.17-.14.21.21,0,0,0,0-.15,4.75,4.75,0,0,0-3.09-.13c-.91-.53-1.66-1.13-3-.72-.94.3-2.15-.26-3.25-.44a10,10,0,0,0-3.58.27,1.74,1.74,0,0,1-2.2-.65c.37-.55,1-.4,1.5-.48h0c.95-.06,2,.18,2.81-.49l2.85-.05a1,1,0,0,0,1,0c1.31.08,2.66.83,3.9-.28a.48.48,0,0,1,.45,0c1.44.89,3.2-.08,4.66.82.55.34,1-.26,1.5-.44l1.49,0c1.28,1,2.55.21,3.82,0,.7.06,1.7-.16,2,.23,1.21,1.33,2.48.51,3.68.29s2.61-.63,3.86.19c.89.78.92-.49,1.44-.6,2.51,1.37,5.27-.35,7.82.59.05,0,.15-.06.2-.11.59-.61,1.14-.18,1.75,0a20.36,20.36,0,0,0,6,.86,5.91,5.91,0,0,1,2.67.07c1.22.5,2.59-.69,3-2.16.52,0,.61.74,1.17.7l1.93.55c0,.39.1.75.57.86,1.1-.06.54-1.45,1.38-1.72l.93-.68h0a1.08,1.08,0,0,0,1.07-.35h0c1.1,0,2.13.56,3.25.38h0l1.29.11h0c1.67.64,0,1.78.42,2.69h3.91l1.18.06h0c3.78.37,7.61-.19,11.38.48h1.58c1-.37,2.32,0,2.85-1.35.67-.31.43-.9.42-1.41,1-.43,1.87-1,3.07-.63.51.16.29-.52.3-.86l.45-.46a18.9,18.9,0,0,1,8.59.16,3.49,3.49,0,0,0,0,1.12c.4,1.06.7,2.22,2,2.62a.17.17,0,0,1,.13.1c0,.07,0,.14-.13.21l-.48.09a1,1,0,0,0-.95,0c-.69.28-.63.6,0,.81a8,8,0,0,0,1.37.23c.5,1.27-.77,1.74-1.22,2.57a5,5,0,0,1-1.08-.31c-.34-.57.48-1.75-.5-1.75s-.32,1.15-.52,1.76c-1.55.39-3.27-.41-4.91.61,1.42,1.09,2.86.82,4.26.62,2-.27,2-.29,3.86,1.34a2.12,2.12,0,0,0,.86.27,9.31,9.31,0,0,0,5-.25h0a.21.21,0,0,0,.09.3c1.13.74,1.31.7,1.93-.43.9-.34,2,.27,2.8-.54.78-.07,1.49-.57,2.33-.32,3.8,1.16,7.74-.11,11.6.66,1,.19,2.07-.21,3.19.09.94.26,1.89-.84,3.05-.41a.82.82,0,0,0,1.13-.86c0-.7-.27-1.23-1.14-1.14-.71.08-1.64.49-2.09,0-1.45-1.55-2.9-.63-4.36-.24-.46.13-.87.43-1.21-.16l-.91-.91h0c5.42-.06,10.87-.74,16.23.67,0,0,.09-.13.13-.19a.76.76,0,0,0,.42-.09c.28.13.58.4.84.38,2.59-.3,5.21-.16,7.77-.74.74.7,1.62.3,2.44.33l.92,0c.34,0,.65-.11.7-.48a.39.39,0,0,0-.41-.44l-3.55-.14a1.16,1.16,0,0,0-1.18-.63c-1.79.42-3.62,0-5.42.28a3,3,0,0,1-1.15-.06.71.71,0,0,1-.41-.52c0-.21.15-.37.42-.43.67-.15,1.44.23,2-.38h0l2.26-.09.5-.06a2.56,2.56,0,0,0,2.52-.82h0c1.19,0,2.39-.17,3.57-.11,5.8.3,11.6.18,17.4.08,2.25,0,4.58.33,6.79-.47a7.58,7.58,0,0,0,2.33-.06c.62,0,1.26.2,1.83-.25A2.06,2.06,0,0,0,470.47,49.06ZM457.7,42l.23,0v0A.86.86,0,0,1,457.7,42Zm-5.38-8.29h0s0,0,0-.06S452.3,33.7,452.32,33.72ZM432,19.37h0l0,0a.08.08,0,0,1-.1,0h0a.16.16,0,0,1,0-.07A.23.23,0,0,0,432,19.37Zm29.22-6.57v0h-2.91a1.31,1.31,0,0,0-.28,0v0a1.08,1.08,0,0,1,.31,0ZM4.3,37l-.13,0a.1.1,0,0,0,0,0A.6.6,0,0,1,4.3,37ZM5.57,44.6h0l0,.09H5.48Zm2.54,3.91h.05l0,0Zm180.1,45.1-.05,0s0,0,0,0ZM385.42,76.32h0a.53.53,0,0,1-.1.24A.57.57,0,0,0,385.42,76.32Zm-7.05,2.41,0,0,0,0Zm13.61.64h0Zm-7-2.5ZM362,80h0v0h0Zm35.81,6.22h0Zm13.66-11.73,0,0h0S411.48,74.52,411.48,74.51Zm-22.69,2.13-.05,0h-.12A.86.86,0,0,1,388.79,76.64Zm-3.62.1-.19.13A.64.64,0,0,0,385.17,76.74Zm-8.32,1.13h0l0-.07.05,0Zm-17.37-1-.14,0a1.11,1.11,0,0,0-.13-.36,1.63,1.63,0,0,1,.34.19A1.65,1.65,0,0,0,359.48,76.91Zm-21.43-.27a1.86,1.86,0,0,0,.74,0c1.11,1.12,2.54.8,3.93.66a.83.83,0,0,0,.56-.79h.15a2.49,2.49,0,0,1,1.75.61,2.54,2.54,0,0,0,3.09.27,8.94,8.94,0,0,1,4.37-.86c.91,0,1.9.17,2.6-.67V76c1.16,1.11,2.7,0,4,.51-1.94.59-3.81,1.45-5.9,1.51-.3,0-.49.35-.5.7a1.67,1.67,0,0,0,.23.57.69.69,0,0,1,.18.48A1.64,1.64,0,0,1,352,80.88c-.22-.12-.49-.21-.7-.34l-.51-.27c-.32-.22-.57-.53-.91-.72a1.27,1.27,0,0,0-.88,0,1.64,1.64,0,0,0-.67.61,3,3,0,0,0-.09.32,7.2,7.2,0,0,0-3.79-1.11,65.3,65.3,0,0,0-10,.32c.21-.12.43-.21.65-.31,2.07-.91,1.91-.9.55-2.68a1.94,1.94,0,0,0-.77-.61A8.23,8.23,0,0,1,338.05,76.64ZM436.87,36h0v.07h0ZM368.62,49.27h0ZM45.05,14.9l2.17.32-.26,0C46.32,15.11,45.69,15,45.05,14.9Zm131.62,5.29v0h0Zm-7.49,11.93h0s0,0,0-.07l.05.08Zm-.07-5.63-.07-.06h.1Zm-16.74,8.89c.82.24,2,.76,2.27-.71l.14,0a6.33,6.33,0,0,0,5.46.1c1.81-.74,3.88-1.36,5.74-.58,1.68.71,2.69.41,3.65-.93v0c1,1.09,2,.24,2.88-.14,2.76-1.12,3.06-1.1,5,.73a1.35,1.35,0,0,0,.43.22c1.79.8,6.71-.34,8.19-1.89a.84.84,0,0,0-.17-.41h.15a31.49,31.49,0,0,1,5-.4,4.08,4.08,0,0,0,.61-.09v0h0c0,.72.67.48,1,.7l-.07.06c-.39.63.11.89.5,1.2l.13,0a1,1,0,0,0-.23.39h-.38c-1.7,1-4,.29-5.53,1.76h0c-.65-.61-1.52-.48-2.32-.61-3.39-.54-6.65.64-10,.65a16.47,16.47,0,0,0-1.85.56,1.44,1.44,0,0,0-.48.36,6.25,6.25,0,0,0-4-.89c-2.29.22-4.58.15-6.84.34s-4.54-.74-6.74.25a2.12,2.12,0,0,0-.12.2c-1.34-.68-2.69.14-4,.17-.46.08-1.08.47-1.34.18a2.77,2.77,0,0,0-.51-.43c-.14-.27-.25-.58-.38-.87A6.4,6.4,0,0,1,152.37,35.38Zm86.57-18.63H239l-.26,0Zm-5.13,3.93h.13l-.08.13h0Zm-4.8,6.5h.41Zm16.34-10.77,0,0,0,0Zm-1.42-.26a.57.57,0,0,1-.11-.11l.1-.1A1.34,1.34,0,0,0,243.93,16.15ZM224.3,29.57a1.36,1.36,0,0,0-.1-.21h0a2.14,2.14,0,0,1,.54-.41h0l-.54.4a.6.6,0,0,0,.55-.39,1.4,1.4,0,0,1,1.38.42c.22.55.57.31.94.2,3-.91,6.1-.75,9.14-1.21a6.76,6.76,0,0,0,2.79-.14c1.43-.32,2.94-.61,4.42.38a3,3,0,0,1-.66.32c-.56.14-1.42-.09-1.12,1,.21.78.78.92,1.48.73a8.33,8.33,0,0,1,4-.21c.75.16.5-.58.58-1s.05-.68.07-1c.76-.14.45.81,1,.94l-.05.06c1.36,1.37,2.72.3,4.14.24-.19-.86-.74-.75-1.16-.87,0-.12,0-.24,0-.36l-.05-.15c1.29-.1,2.63.32,3.85-.43a2.6,2.6,0,0,0,2.08-.16c1-.6,1.29,1,2,.51a3.78,3.78,0,0,1,3.59-.08c1.49.58,2.65,0,3.95-.17.79.31,1.5.76,2.41.09a2.36,2.36,0,0,1,1.82-.08c-.11.34-.23.69-.34,1h0c.78,1.25,1.76,1,2.78.36.87.05,1.11-1.08,2-1a38,38,0,0,0,7.75-.84c.46.09,1-.15,1.37.26s.77,1.1,1.53.36c.14-.14.59,0,.89.05,2.78.47,5.26-.64,7.81-1.42.36.48-.06,1.29.66,1.65.38.2.57.1.63-.31l3.69-.73c.51,0,.54-.44.64-.79.66-.1,1.38,0,1.91-.54h0l.91.45c0,.36-.51.73-.17,1.05.76.7,1.26-.11,2-.28-.5-.45-.93-.68-.86-1.23.78-.73,1.57-.17,2.36,0a3.49,3.49,0,0,1,0,.46,2,2,0,0,0-.64,1.49c-.15,1.39-.93,1.57-2.12,1.52-.87,0-1.9-.39-2.81.65,2.18.28,4.2.42,6.17.83a10.88,10.88,0,0,0,5.17-.16c1.14-.05,2.36.48,3.39-.44.68-.74-.16-.76-.49-1,.17-.45.82-.47.89-1h0c.23-.42.67-.31,1-.41,2.72.86,5.44-.05,8.16,0a1.37,1.37,0,0,0,1.74.34,4.09,4.09,0,0,1,3.46.39c1.15.56,2.39-.76,3.42.31,0,.14,0,.27,0,.41-.88.19-1.66.61-2.66.16a1.42,1.42,0,0,0-2.09,1.12c2.2.92,4.55.8,6.85,1,2.63.26,5.05,0,6.75-2.38a.49.49,0,0,1,.33-.16.93.93,0,0,0,.69.13,37.57,37.57,0,0,1,6.44-.45h1.48a6.48,6.48,0,0,0,1.14.15c.33,0,.93.23.91-.3s-.6-.3-.95-.34h0c-.76-.56-1.49-1.15,0-1.71.36-.14.62-.18.79-.65.41-1.11.6-1.57,1.09-1.75a11,11,0,0,1,1.81.06c0,.11,0,.21,0,.32-.87.35-1.85.89-1.4,1.9a1.44,1.44,0,0,0,1.77.88l.48.13a9.68,9.68,0,0,0,3.75-.24,1.39,1.39,0,0,1,1.53.17c.8.73-.24.86-.41,1.26-.25.58-.32,1,.35,1.37l.16,0v0a3.33,3.33,0,0,0-.46,0c-2.15,1.94-4.75,2.16-7.5,2-1.57-.08-3.24-.54-4.67.57-1.59-.15-3.26.26-4.72-.71a.68.68,0,0,0-.86,0c-.93.72-2,.34-3,.3a30.44,30.44,0,0,0-4.77-.08,12.24,12.24,0,0,1-5.25-.52l-.48.5-.9-.07h0v0a7.29,7.29,0,0,0-4.92,0h0l-2.34.05c-.55-.08-1.34,0-1.6-.26-.84-1-1.94-.79-2.85-.6a53.6,53.6,0,0,1-6.2.38,42.85,42.85,0,0,1-6.41.07,62.47,62.47,0,0,0-7.74-.08,2,2,0,0,1-.11-.2c-1.21-.7-2.53-.49-3.83-.42a2.44,2.44,0,0,0-.84.27l-.13-.1a1.45,1.45,0,0,0,.16-.18c.14-.92.55-2-.59-2.5a1.65,1.65,0,0,0-2.26,1.13c-.5.09,0,.32.28.53v.26a1.73,1.73,0,0,1-.41.05c-.85.19-1.65.54-2.49.78a12.83,12.83,0,0,1-5.48-.14,12.34,12.34,0,0,0-2.78-.17,3.67,3.67,0,0,0-1.41.31,6.44,6.44,0,0,0-1.55.19,7.56,7.56,0,0,1-4.05-.09c-2.66-.7-5.51-.34-8.28-.19-3.52-.2-7,.32-10.54.41a1.09,1.09,0,0,0-1,.55c-3.2,0-6.41-.3-9.61,0-1.68-.09-3.37.17-5.05.2-1.92,0-3.9.26-5.87.19l0,0a1.28,1.28,0,0,0-.29-.63,45.11,45.11,0,0,0-11.72.43c0,.06-.08.13-.13.19a.76.76,0,0,0-.83-.18C220.79,31.35,222.63,30.62,224.3,29.57Zm60-2.78.05,0h-.05Zm.85-6.52h0Zm0,0h0Zm22.59,6h0ZM297,22.55h0l0,0Zm19.78,4.2c.44-.06.37.19.32.42a1.12,1.12,0,0,0-.67-.36Zm3.77-7.85h0l0,0Zm.19-.2a.47.47,0,0,0,0,.1h0s-.07,0-.15.07l0,0,0,0h.05l0,0,0,0C320.74,18.72,320.77,18.68,320.78,18.7ZM308.72,14h0s0,0,0-.07Zm-15.44,5.6h0l-.14.06Zm49,7.86,0,0h0l0,0Zm0-.36a.42.42,0,0,0,0,.1v-.05Zm0,.33v0l0,0h0v0l0,0Zm.06,0h0Zm64.3-11.75.08,0a.56.56,0,0,0-.05.08S406.65,15.74,406.65,15.72Zm16.93,16.1-.34-.08h.06ZM350.5,46.19h0ZM326,35.23a.87.87,0,0,1,.92-.29l.19,0a.21.21,0,0,0,.27,0h.08a2.8,2.8,0,0,0,.57-.08,2.7,2.7,0,0,1,1.41-.07,6.76,6.76,0,0,0,3,.41c0,.1-.07.19-.1.29s-.15.49-.06.62c.26.38.49,0,.74-.1s.6-.1.68-.47a1.21,1.21,0,0,0,.05-.14,1.12,1.12,0,0,1,.09.4,2.06,2.06,0,0,0,.59.25,14.28,14.28,0,0,1,2.05.51,15.66,15.66,0,0,0,6.16.55c2.56-.26,4.94-1.77,7.65-1.07.2,0,.39-.13.54-.34l.05,0a35.77,35.77,0,0,0,8.14.37c-.46.14-1,.16-1,.83a3.53,3.53,0,0,0,3.47-.44.83.83,0,0,1,.33-.13,1.5,1.5,0,0,1,.37.48,2.19,2.19,0,0,0,.72.76,1,1,0,0,1-.51.28l-.25-.22a1,1,0,0,0-.42-.16c-3.11-.62-6.27.47-9.39-.26-.46-.1-.84.37-1.15.75a8,8,0,0,1-.51.64.72.72,0,0,1-.45.11,1.62,1.62,0,0,1-.38-.32,2.48,2.48,0,0,0-.37-.43h0c-.1-.32-.28-.46-.61-.33a2,2,0,0,0-.44-.11,1.88,1.88,0,0,0-.87.2c-.79-.6-1.8.33-2.54-.26a2.2,2.2,0,0,0-2.56,0c-1.07,1.53-2.5-.35-3.51.56-1.37-1.25-3.29.08-4.69-1-2.23.89-4.6-.49-6.83.41-.56-.81-1.83-.08-2.32-1.06L325,36a1.54,1.54,0,0,1,0-.3C325.45,35.78,325.7,35.51,326,35.23ZM420,32.14l.15,0,0,.08ZM385.57,18.87l.07,0-.06,0Zm8.94,2.95.11,0v0Zm1.68,16a.32.32,0,0,1,0,.14l-.16.16.09,0-.09.13s0-.05,0-.08h0A.7.7,0,0,0,396.19,37.81ZM402.25,33v0h0Zm-21.08-2.64s0,0,0,0v0Zm11.57-15.74-.11-.1h0l.08.06Zm3.8,35.82h0v.07a.31.31,0,0,0-.1,0Zm-83-4.23s0,0-.05-.05l0,0c.06,0,.11,0,.17-.11s0-.07,0-.11h.15c0,.18-.15.08-.19.16l-.06.17Zm-9.24-11.4h0Zm13.54,10.81v0Zm4.87-4.25a1.61,1.61,0,0,1,.52.14.25.25,0,0,1,0,.19A2.5,2.5,0,0,1,322.74,41.33Zm93-24.53h0v0Zm-31.4,4.94a3.85,3.85,0,0,1,.48,0,1,1,0,0,1-.08.11l-.22,0A4,4,0,0,0,384,22a6.47,6.47,0,0,1-3.09-.24,1.67,1.67,0,0,0-1.53.41l-.15-.24a7.24,7.24,0,0,0-.75-.24C380.4,21.65,382.37,21.64,384.35,21.74Zm-8.41,3.54h0ZM97.13,60.55h0l.12-.12.11,0A.83.83,0,0,0,97.13,60.55Zm-6.46.11,0,.07h-.13A.24.24,0,0,0,90.67,60.66Zm108.11,9.55h0Zm0,0Zm-65.87-5.55h0ZM266.41,73s0,0-.05,0h0S266.4,73,266.41,73Zm-1.36-32.1ZM237.28,63s0,0,.05,0h-.05Zm4-8.92a26.34,26.34,0,0,1,9-.41l.09,0a.91.91,0,0,0,.37.22h0c.37,1,1.22.2,1.78.48a.5.5,0,0,1,0,.46c-.48.32-1.15.41-1.37,1.08h0c-.08.94-.82.71-1.4.77-.23-.46.28-1.77-1.08-1h0c-.74,0-1-.47-1.41-1-1-1.53-1.35-1.52-2.45,0a3.72,3.72,0,0,0-.66,1.22c-.09.38.33.44.62.52a.45.45,0,0,0,.14.38c-.35.58-.72,1-1.52.74a5.5,5.5,0,0,0-2-.32c-1.1-1.54-2.67-1-4.12-.9-.91.05-1.76.66-2.73.42a.41.41,0,0,0,.21-.4l-.07-.62h0c.06-.63-.29-.86-.85-.8-.77.09-1.54.22-2.3.33l0-.52a2.28,2.28,0,0,1,.44-.15,47.66,47.66,0,0,1,4.9-.81C238.45,53.48,239.83,54.42,241.32,54.08Zm-1.17,7Zm6.12-4.82h-.09s0,0,0-.07C246.13,56,246.26,56.12,246.27,56.25Zm18.16-.8a.73.73,0,0,1-.54.07,1.39,1.39,0,0,0,.53-.52A.77.77,0,0,1,264.43,55.45Zm-5.16-1c0-.06-.1-.13-.16-.19h.17v.2h0Zm-7.72,8.51a.16.16,0,0,1,.11,0h-.07v0s0,0,0,0Zm5-14.1ZM255,55.25h0Zm-13.77,5v0h0Zm-7.47.43a2.09,2.09,0,0,0,.23.08h0A1.63,1.63,0,0,1,233.71,60.63ZM234.77,75h0l0,0,0,0Zm-5.09-13.47a.53.53,0,0,0-.12-.1h0A.35.35,0,0,1,229.68,61.51Zm45.8-26.4v0h0ZM228.86,61.28h0v0h-.78v0ZM221,69.05l.15,0-.16,0ZM204.21,55.68h0l-.13.09h0Zm-.15.14h0Zm9.12-3.39Zm.4,2Zm-1.35,8.5v0h0Zm1.44-3.78.14,0-.13.08Zm-4.73,11a1.13,1.13,0,0,1,.85.45H210l-.12.13-.08.06,0-.09a1.55,1.55,0,0,0-.92-.56Zm68.95-35.9h0l0,0ZM254.45,36.7h0Zm-4,8.08,0-.07h.12A.31.31,0,0,1,250.47,44.78Zm-6.48,0h0ZM168.54,54.81ZM158.6,70.47h-.11v0Zm-5.51-9.9v-.4a1.77,1.77,0,0,1,.14.39ZM137,79.87l.24,0h.08A.54.54,0,0,1,137,79.87ZM180.24,54l-.05,0c-1.09.14-2.18.56-3.26.1l.08-.07a2.58,2.58,0,0,1,.41.2,6.71,6.71,0,0,0,2.32-.17,1.82,1.82,0,0,0,.46-.11ZM193,57.92v0l-.23,0Zm2.22-1h0Zm-4,20.9v0a0,0,0,0,0,0,0Zm3.25-44.35a.17.17,0,0,0,0,.1.84.84,0,0,0-.31.25.63.63,0,0,0-.15-.33A1.79,1.79,0,0,0,194.38,33.52ZM112.05,69.61l0,0-.11.07A.71.71,0,0,1,112.05,69.61ZM110.48,75Zm4.76-.34a.69.69,0,0,0-.1-.19h.14l0,.16Zm79.61-3.94v0s0,0,0,0Zm87.43-25.52Zm0,0Zm0,0v0h0Zm-47.14.1,0-.06h.1Zm-41.25-11Zm-21,11,0,0h0l0,0a.9.9,0,0,0,0-.16h0A1.11,1.11,0,0,1,172.93,45.23Zm27.22,18.14s.06,0,.08.08h-.12Zm-1.39,6.87v0h0Zm35.44,9.49h.07s0,0,0,0Zm37.05-19.32h0l.33.06C271.49,60.43,271.37,60.43,271.25,60.41Zm-73.5-25.93-.17-.31a.69.69,0,0,1,.61-.29A.89.89,0,0,0,197.75,34.48Zm1,22.18v0l0,0ZM78.34,25h0l0,0Zm2.54,66.76s0,0,0,0h0A.09.09,0,0,1,80.88,91.73Zm-.4-66.6-.17,0,0,0C80.42,25,80.48,25.06,80.48,25.13Zm-2.2,0,.06-.14.1.13ZM47.36,57.79l-.28-.1.38.08ZM90.88,68v0h0ZM97,60.64h0l.08-.09h0Zm4.72.3.13,0a3.92,3.92,0,0,0,.36.16s0,0,0,0l-.63-.2Zm2.47,26.25A.57.57,0,0,1,104,87l.2,0s0,0,0,0l0,0h0A1.62,1.62,0,0,0,104.22,87.19Zm195.3-11.53h0l-.21,0Zm2-.25h0l-.12.14h0Zm63.3-33.55Zm0,0,.09-.07,0,0-.05,0Zm10.22,8.68.1,0h0l-.1,0Zm17.13-5.93h0a2.11,2.11,0,0,0-.53-.81C392.1,43.87,392.18,44.24,392.24,44.59Zm1.92,5.89h0a.16.16,0,0,1,0-.12l.07.12ZM421,51h.41a.74.74,0,0,1-.16.28A3.08,3.08,0,0,1,421,51ZM409.1,15h0v0Zm-2.38.49v.18h0l-.1,0h0ZM384,6.94ZM360.07,13Zm-85-9.89a1,1,0,0,0,.21.41l-1,.13a1.32,1.32,0,0,0,.72-.39Zm-1.23.59a4.7,4.7,0,0,1-.75,0h-.39v0h.09C273.15,3.65,273.51,3.69,273.86,3.69Zm-96.06.52h0l0,0h0l.05,0ZM128.68,17.93a1.75,1.75,0,0,0,2.06-.78,1.43,1.43,0,0,0-.16-.24h.11c.63.67,1.47.44,2.24.54,2.89.35,5.7-.42,8.55-.51,4.58-.14,9.17,0,13.74-.37.86-.06,1.79.06,2.37-.81a1.33,1.33,0,0,0-.18-.31h.13a1.8,1.8,0,0,0,1.42.73c3.57.39,7.06-.75,10.64-.49A3.08,3.08,0,0,0,172,14.57a1.88,1.88,0,0,0,1.37.58c7.17-.13,14.31.71,21.48.53a2.2,2.2,0,0,0,2.09-.92,1.67,1.67,0,0,0-.15-.24h.12a4.33,4.33,0,0,0,4-.41,0,0,0,0,1,0,0,2.16,2.16,0,0,0,1.82.42c4-1.23,8.05-.69,12.08-1a1.73,1.73,0,0,0,1.64-.93,3.4,3.4,0,0,0,2.8.55c3.81-.6,7.67-.22,11.49-.67a5.39,5.39,0,0,1,1.62-.42c.25,0,.5,0,.75,0a4.32,4.32,0,0,1,1.34.33c.56,0,1.19.1,1.27-.68,2.83.86,5.74.47,8.63.57,3.12.1,6.16-1.48,9.32-.33a4.9,4.9,0,0,0,4.73-.76s0,0,0-.05c1.35,1,2.88.54,4.37.46a2.6,2.6,0,0,0,.65-.26.93.93,0,0,0,.24-.32h.21s0,.05,0,.08a1.3,1.3,0,0,0,.48.35c2.56.12,5.13.21,7.69.49a2.45,2.45,0,0,0,2.33-.64c.34.64.84.77,1.64.76,5.63-.08,11.22-1,16.88-.65.94.07,2.29.17,2.81-1.19a1.06,1.06,0,0,1,0-.19A38.07,38.07,0,0,0,304.48,12c4.52.46,9.11-.15,13.59,1a2.5,2.5,0,0,0,2.42-.67c1.05,1.09,2.38,1.07,3.78.72,2.52-.61,5-1.58,7.64-1.14l.12,0c.44.48.68,1.31,1.65.79a1.4,1.4,0,0,1,.46-.16,4.29,4.29,0,0,0,.92.36c6.88.85,13.84-.15,20.71.85h.07a1.62,1.62,0,0,0,0,.22h0l-.1.52c-1.32.34-2.69-.11-4,.3-.89.28-.53.71-.33,1.18l-5-.12c.53-.37.9-.6,1-1.33-.87-.06-1.7-.24-2.3.71-.18.3-.57.74-.88.19-.83-1.51-2.15-.83-3.33-.83-1.59-.55-3.19-.06-4.79-.05-2.08,1.2-2.08,1.2-1.54,2.8h0c-.43.11-1.09-.12-1.25.37-.22.68.46,1,.93,1.08a10.32,10.32,0,0,0,1.47.05c.45.17.93.27,1.36.48.92.14,1.68,1.57,2.78.34.08-.28,0-.61.53-.56a26.24,26.24,0,0,1,4.39.63c.85.23,1.92.58,2.6-.47s-1-1.23-.94-2.17c2-.35,4,.38,6,.27a5,5,0,0,1,2.05-.06c3,1.07,6.22-.33,9.33.42.7.17,1.65-.05,2.48.13h0a22.37,22.37,0,0,0,4.25.07,2.29,2.29,0,0,0,.87-.07,9.84,9.84,0,0,1,4.82.94,7.27,7.27,0,0,0,1.14.07,3.4,3.4,0,0,0-2.11,1,2,2,0,0,0-.55,0c-.21,0-.54.17-.56.3-.06.36.23.57.56.63a2.43,2.43,0,0,0,.54,0c0,.06.06.13.1.2a2.33,2.33,0,0,0,.93.59,7,7,0,0,0-1.91.44,4.9,4.9,0,0,1-.74.51l-.13-.1.33-.42-.31-.16h-.84a4.72,4.72,0,0,0-1.31-.57,7,7,0,0,0-4.85.51,2.43,2.43,0,0,1-1.81.43c-4.39-1.23-8.81.21-13.21-.15-.29.1-.65.16-1,.25h-.31c-1.8-.07-1.8-.08-4.21-1.37a1,1,0,0,0-.46-.07,7.32,7.32,0,0,0-3.7.48h0l-1.5-.09h-.67c0-.61-.47-.33-.77-.37s-.79-.26-.95.23l-.11,0c-1.86-.22-3.93-1.84-5.34.84l-.15.17-.48-.19,0-.08c-.12-.32-.43-.42-.7-.55a17.74,17.74,0,0,0-3.85-.21l-.11,0c-.44-.44-1.14-.37-1.75-.46-1-.14-2.09.1-3.06-.35a1.4,1.4,0,0,0,.36-.13,1.57,1.57,0,0,0,.46-.16,2.29,2.29,0,0,0,.21-.23l2.49,0H327c.31-.06.64,0,.94,0a2.54,2.54,0,0,0,.39,0,2.58,2.58,0,0,0,.53-.19c.57-.31.82.34,1.25.43,1.69-.43,1.28-1.53.83-2.64a1.92,1.92,0,0,0-.25-.12c-.11-.26-.42-.34-.64-.5,1.29-1.21,3.32-.71,4.67-1.82-.37-.91-1.2-.41-1.67-.8a60.82,60.82,0,0,0-10,.06,48.85,48.85,0,0,1-12.78.34c-.21-.84-.83-.93-1.55-.85a41.92,41.92,0,0,0-7.68,0c-.23,0-.54-.1-.69,0-1.74,1.3-3.69.92-5.65.88a70.35,70.35,0,0,0-9.52.11,2.45,2.45,0,0,0-1.91.37.21.21,0,0,0-.31,0,1.64,1.64,0,0,1-.62-.34l-.5-.08c-1.43-.71-2.9-.43-4.37-.2a6.74,6.74,0,0,1-3,.18,12.58,12.58,0,0,0-6.53.06c-.66.11-1.4-.22-2,.37l0,0h0a8.75,8.75,0,0,1-3.29-.38,9.5,9.5,0,0,0-4.48-.38,64.33,64.33,0,0,1-6.65.3,13.82,13.82,0,0,0-4.23.59h-2.38l-1.33-.11c-.6-.58-1.36-.29-2-.34-3.5-.23-7,.32-10.46.39-3,.07-6.07.37-9.11.57a1.16,1.16,0,0,0-.64-.53c-3.34-.34-6.64.23-9.94.5-2,.16-4.18-.13-6.07,1a1.3,1.3,0,0,0-.4.45,30.22,30.22,0,0,1-3.43,0c-5.28-.47-10.48.34-15.69.93h0c-.31-.72-.94-.52-1.43-.4a21.34,21.34,0,0,1-4.72.31c-4,.08-8-.09-12,.74l-2.36-.07c-1.63-.27-3.36.38-4.9-.59H159a3,3,0,0,0-2-.4c-3.79.16-7.6.13-11.35.57-2.26.27-4.63-.2-6.78.88l-1.41,0L136,18.79h0c-.43-.48-1-.38-1.55-.38a43.42,43.42,0,0,0-7.28.75c-.8.14-1.67.71-2.48.05a2.43,2.43,0,0,0-2.48-.18c-.53.16-1.22.5-1.59.15-1.39-1.28-2.86-.24-4.28-.33-.28-.27-.37-.46-.35-.6,1.45-.6,3.08,0,4.55-.39C123.23,17.67,126,17.31,128.68,17.93Zm-48.33-3.7.21,0-.25,0,0,0Zm-26.9,1.24c1.72,1.07,3.69.82,5.57.91.93,0,1.49-.56.66-1.54a1.61,1.61,0,0,0-.28-.17l.18-.09a3.39,3.39,0,0,1,1.06.39c1.2.42,1.9,1.5,3.49,1.62,3.26.24,6.47-.34,9.7-.15a8.2,8.2,0,0,0,2.32-.08,1.26,1.26,0,0,1,.28.05h0c-.14.05-.18.16-.12.34,1.44,1.14,2.17-.12,3-.91a.79.79,0,0,0,0-.34c1,1,2.66.08,3.66,1.27,1.25,1.49,2.89,1.28,4.28.41a3.17,3.17,0,0,1,4,.15c1.5,1.15,2.8.74,4.13-.18a5,5,0,0,1,1.37-.93.8.8,0,0,1,.59-.17l.55.3a3.44,3.44,0,0,1,.27.27c1.23-.21,1.81,1.71,3.19,1,.09,0,.17-.08.25-.2h.7c0-.11,0-.22,0-.33a2.35,2.35,0,0,1,.17.53,1.49,1.49,0,0,0,1.7-.57.82.82,0,0,0,.19.09l.39.75a4.12,4.12,0,0,1-2.86.92c-1,0-2.07-.46-2.91.45-4.19.1-8.38.51-12.55-.22-.81-.14-1.84.69-2.38-.57l-3,.65a8.65,8.65,0,0,1-2.59,0c-2.54-.21-5-1.06-7.6-.74l0-.09a3.39,3.39,0,0,0-1.58-.48c-5-1-10.23-.14-15.21-1.54-1.24.09-2.5-.18-3.7.35l-.15.14A3.26,3.26,0,0,0,48,15.36a19,19,0,0,1,2.23.53A3.11,3.11,0,0,0,53.45,15.47ZM39.54,13.69h0Zm1.82.55v-.07c.19.07.38.12.57.18l-.39-.07ZM61.07,94.61h0Zm.86-.25a1,1,0,0,1-.39,0v0a.64.64,0,0,0,.34,0,15.32,15.32,0,0,1,3-.54c.68-.09,1.44-.18,1.54-1h0c.33.7.78,1.26,1.67,1.19.58-.21.91,0,1,.56A24.2,24.2,0,0,0,61.93,94.36Zm67.29,2.27Zm9.08-2.49a5.73,5.73,0,0,1-.56.14,5.66,5.66,0,0,0-3-.38c-4.59,0-9.15.64-13.75.51a2.51,2.51,0,0,0-2.36.84h0a2.5,2.5,0,0,0-.57-.6,4.14,4.14,0,0,0-1.4-.22c-9.85,0-19.68.62-29.54.52-.78,0-1.62,0-2.09.83l-.06,0a1.48,1.48,0,0,0,0-.37c-.93-.67-2-.48-3-.49-2.83,0-5.66,0-8.48-.08,1.26-.34,3.3-.23,3.63-2l2-.09c.06.4.08.83.58,1,.06.33.09.69.52.79h0a12.53,12.53,0,0,0,4.32.1,5.37,5.37,0,0,1,.51-.44l-.51.44c.3,0,.52-.08.51-.44h0a1.19,1.19,0,0,0,.08-.45l.15.06h.15c.19,1.42,1.26.71,2,.8h0c1.08.06,2.31.66,3-.83h0c.39,0,.79,0,1.18-.1,1.51-.18,3-1,4.57-.12a1.12,1.12,0,0,0,1.63-1.12c0-1.11,1.25-.59,1.25-.53-.13,1.77,1.09.74,1.7.82,1,.13,2-.38,3,.16h0a.29.29,0,0,0,.13.35c.13.58.34.31.55.05h.69c1.44.75,2.56.19,3.55-.88l.44-.21a1.21,1.21,0,0,0,1.06-.36h.2l.64.44h0c.28.92.68,1.53,1.74.8.14-.1.44,0,.66.08l1,.08h.52c0,.38-.23.93.21,1.05a1.27,1.27,0,0,0,1.24-.55h.24l.2-.12a.91.91,0,0,0,1-.38c.2,0,.41-.07.33-.33,0-.08-.23-.1-.35-.15h0l-.43-.3h0l.52-.65h0c1.57.12,3.14.73,4.69-.1h0c1.29,1.06,2.67.64,4,.19a10.32,10.32,0,0,1,2.38-.16c1.43-.19,1.25,1.44,2.24,1.52,0,.31.11.79.38.66.51-.24,1.12-.21,1.56-.79a2.13,2.13,0,0,1,3-.61c.29.17.56-.14.82-.27a2,2,0,0,1,0-.58,3.82,3.82,0,0,1,0,.58h1.26a4.53,4.53,0,0,0,1,.65,5.68,5.68,0,0,0,3.53,0,13.2,13.2,0,0,1,6.34,0,.56.56,0,0,0,.29.36h.27a.5.5,0,0,1-.27,0l.32.3h0C145.81,93.8,142.05,93.89,138.3,94.14Zm11.22-.93Zm18.31-3.07h0ZM232.39,87Zm43.23-25.33h0l0,0Z"/><path d="M5.82,63.38,5.2,63A.63.63,0,0,0,5.82,63.38Z"/><path d="M2.94,46.61l-.62-.39A.59.59,0,0,0,2.94,46.61Z"/><path d="M2,46.1l-.62-.36A.63.63,0,0,0,2,46.1Z"/><path d="M7.77,31.38l.62.34A.62.62,0,0,0,7.77,31.38Z"/><path d="M332.27,3l.43-.38C332.42,2.58,332.31,2.74,332.27,3Z"/><path d="M396,38.12h0Z"/><path d="M396,38.13l0,0h0Z"/><path d="M431.9,19.38h0Z"/><path d="M282.33,14.58l.62.34A.58.58,0,0,0,282.33,14.58Z"/><path d="M320.72,18.83a0,0,0,0,0,0,0h0Z"/></g></g></svg>