<svg xmlns="http://www.w3.org/2000/svg" viewBox="0 0 313.08 297.2"><g id="Capa_2" data-name="Capa 2"><g id="Capa_1-2" data-name="Capa 1"><path d="M164.73,227.63v0a3.5,3.5,0,0,0,.43-.56,3.39,3.39,0,0,0-.45.53h0l0,.07.06,0Z"/><path d="M274.66,90a24.19,24.19,0,0,0-2.83-.46c-1-.13-2.17-.26-2.39-1.27a11.74,11.74,0,0,0-5.76-8c-.66-.4-.81-1.67-1.13-2.57-1.24-3.46-2.92-4.4-6.55-3.63a13.66,13.66,0,0,1-5.22.21c-2.19-.37-2.41-2.48-3.37-4.19-1.88,3.69-3.86,4.24-6.91,2.42-1-.61-1.47-2.39-3.07-1.84-3.22,1.1-3-1.13-3.11-3.07,0-1.3-.12-3.38-1.16-3.32-2.35.11-3.4-.5-3.69-2.81-.08-.66-.95-.66-1.61-.47a4.81,4.81,0,0,1-1.84.45c-5.66-1.09-9.93.9-13.36,5.43-1.1,1.45-2.66,2.49-4.93.87-7.4-5.26-12.64-3.72-18.17,1.77-1.83,1.82-3.29,3-5.62,1.11-.59-2.7.6-5.61-.94-8.2,4.21,1.55,8.1,4,12.79.24,1.69-1.33,3.11-2.3,3.72-4.32s2.7-3.82,1.76-6.19c-.75-1.91.14-4.68-1.76-5.74-3.75-2.1-6.7-7.13-12.2-4-.12.07-.31,0-.47,0-3.43-.37-5.28,1.71-6.71,4.37a23.73,23.73,0,0,0-2.8,8.06c-5.13-2.28-10,1.42-15.1.67.13,1.31,2.19,2.76-.28,3.89-.82.37-.59,1.42-.94,2.05-2,3.55.17,7.1-.13,10.63,1.69-.33,2.39.56,2.58,2.1-2.25.77-2.88.27-2.62-2-2,.5-2.07-3-4.31-1.93-.69,1.19-.12,2.32.27,3.55.93,3,.67,3.33-2.39,3-1-.1-1.93-.47-2.55.5s.38,1.67.86,2.44c2,3.22.86,6.91-2.69,7.71a6.52,6.52,0,0,0-5,3.92L142,93.59c-2.92-.39-1.87-3.52-3-4.81-2-.31-2.57,1.61-4,1.56a2.75,2.75,0,0,1-3.77,2.32,1.92,1.92,0,0,1-1.09-3.24c-1.48-.06-1.72-.74-1-1.9-1.22.79-2.9,0-4,1.17-3.23-2.31-5.63-2.34-8.05-.21-2,1.8-1,4.15-1.22,6.28-.89.41-1.51-.06-2.07-.66-3.63-3.84-7.36-7.3-13.24-4.29a1.34,1.34,0,0,1-1.64-.64,1.06,1.06,0,0,1,.68-1.52c1-.44,1.8-1.08.81-2.08-2-2,.07-3,1.16-4.13-1.23-1-3-1.35-3.34-2.78-.73-3.48-3.61-5.41-5.35-8.14-.32-.5-.34-1.57-1-1.44-4.89,1.09-9.44-4.83-14.45-.68a1.55,1.55,0,0,1-.93.16C71.49,68.63,68.9,72,66.86,76c-1.06,2.06-1.63,2.29-3.44.58S60.33,72,57.55,71.07a5.08,5.08,0,0,1-2.8-2.42c-1-1.58-2.11-2.91-4-.72-.74.86-1.8.23-2.58-.36a2,2,0,0,0-3.26.43,2.69,2.69,0,0,1-2,1.25c-3.46,0-5.3,2.32-7.31,4.73-1.74,2.08-3.26,4-2.72,6.89-2.9,3.09-.79,6.64.34,9.07,1.3,2.78,2.59,4.9.65,8.07,2.55-1.84,4.69-3,6.38.39.14.29.85.35,1.31.44,2.32.42,4.64.81,7,1.21,2.94.49,5.18-1.74,7.92-2,1-3.35,3.77-3.28,6.58-3.17-.51-1.65-2.24-3.26.07-4.26,1.76-.77,2.43,1,3.2,2.12a6.9,6.9,0,0,1,.45.85c.82,1.59.88,3.38,1.37,5s3.46.28,4.1,2.4a1.28,1.28,0,0,0,.28.39c1.13,2,2.86.72,4.35.83s3.11,2,4.46,1.11c3-1.87,4.59-.54,6.3,3.17.25-4.28,1.81-6.21,4.92-6.63,1.08-.14,1.47-.94,2-1.75,1.36-2,1.92-.64,2.29.75a9.5,9.5,0,0,1,.18,1.42c-.64.68-1.55,1.36-.73,2.4s1.65.73,2.46,0c3.32,2.41,3.32,2.41,1.7,4.66a.9.9,0,0,1-.38.29c-1,.73-2.37,1-2.34,2.69,0,2.84-.73,5.51-3.23,7-3.21,2-.26,5.41-2.27,7.79-2.76,3.25-.34,8.06-2.84,11.58-.14.19.4.81.55,1.26,1.21,3.57.94,4.67-1.9,7-1.23,1-2.63,1.78-3.92,2.69-3.6,2.54-4.33,4.56-2.94,8,1.59,4,3.38,5.07,7.67,4.54a33.83,33.83,0,0,0,4.14-1,1.49,1.49,0,0,1,.61.25c.42,4,3.66,4.5,6.64,5.31-2.06,3.53-2.05,3.49-5.77,2.41-4.75-1.39-9.56-2.36-14.75-1.69l1.89,4.37a2.13,2.13,0,0,0,.23.42c1.33,1.92,3.17,2.13,4.82.5a11,11,0,0,0,1.07-1.58c1.42-2,3.12-.78,4.7-.34s3.4,1.05,4,3c.21.68-.29,1.24-.77,1.65-2.83,2.39-5,4.93-2.28,8.76.08.11,0,.31,0,.47.49,5.25,1.66,6.44,6.7,7.74,2.53.65,5.24.23,8.74,1.22-3.36,1.92-4.1,4.21-4.08,6.93a2.9,2.9,0,0,0,3-1.65c1.62-3,4-3.18,6.91-2.38a7.76,7.76,0,0,0,4.68.13c2.71-.87,2.76-.7,5,1.58,1.68-.23,1.55-2.73,3.59-2.66,4.26.14,5.14-.27,7.23-2.91,1-1.26,2.35-2.17,3.44-3.3,2.68-2.81,6.54-5,6.34-9.69l5.39-3.05a5.28,5.28,0,0,1,.13,4.18c-1.34.95-.65,2.45-1,3.66a4.31,4.31,0,0,0,0,1.43c1.75,4.81,2.22,9.08-4.27,10.55-1,2.79-3.1,1.54-4.83,1-.33,1.38,3.64,3.66-1,3.43-1-.05-1.07.94-1.31,1.69-1.73,5.34-.73,11.33-3.94,16.33a1.4,1.4,0,0,0,.39,1.27c.6.48,1.1.11,1.5-.5,1.19-1.83,1.94-1.4,2.13.54.08.76-.29,1.68.84,1.84,1.68.25,2.59,1,2.54,2.83a.66.66,0,0,0,1,.59c2.79-1.65,4.27,3.48,7.25,1.35.49-.35,1.35.68,1.4,1.56.08,1.28.09,2.56.09,3.83q.06,30,.1,59.93a13.74,13.74,0,0,0,.77,5.65c.33.74.74,1.5,1.67,1.38a1.69,1.69,0,0,0,1.26-1.32,15.93,15.93,0,0,0,.7-5.67c-1.13-19.94-1.54-39.9-1.68-59.86,0-1.62,0-2.94,2-3.79,2.47-1,2,1.1,2.82,2,2.87,3.12,3.67,3,5.8-.82a4.93,4.93,0,0,1-3.54.83c-.49-2.78.33-4.1,3.31-5.14s5.52-3.58,8.17-5.57c1.14-.87.24-2,.08-3.08-.55-3.64-.39-3.93,3.2-6.07-2.92-.94-3-2.64-1.47-4.77.46-.63,1.15-1.36,1.12-2-.09-1.81.87-2,2.32-2.2,2.4-.34,6.23-4.77,5.65-7-.73-2.81-.84-6.07-3.48-8.08-1.79-1.36-2.36-2.48-.74-4.67a8.47,8.47,0,0,0,.71-9.83,18,18,0,0,1-1-2.65,1.83,1.83,0,0,1,1.84-.3c.76,3.82,1.79,7.47,6.15,8.72,1.94.56,1.88,2.37,2.52,3.74a.86.86,0,0,1-.31,1.2c-1.05-.33-1.86-1.83-3.39-.71.42.64.67,1.49,1.11,1.61,2.91.78,3,2.82,3,5.37.05,10.07.39,20.13.51,30.2.12,9.76.07,19.51.17,29.26,0,1.47-.67,3.26,1.19,4.29,1.39-.81,1.28-2.18,1.18-3.4-.76-9.26-.53-18.54-.78-27.81-.11-4.45-1-8.91-.08-13.37,2.36.64,2.81-2.32,4.83-2.53a3.9,3.9,0,0,0,3.81-3.66c.19-2.31-1.45-3.34-3.29-4.18-1.11-.51-2.57-.83-2.41-2.55a19.52,19.52,0,0,1,3.06-9.46c1.47-2.12,2.72-2.18,4.77-.48,1.6,1.32,3,2.9,4.68,4.09,1.41,1,3.07,2,4.47-.28.67-1.08,1.9-1.14,3-1,4.79.62,7.94-1.61,10.07-5.68,3.24.93,5.71,3.94,9.47,3.53.27,0,.62.62,1,1.09a9.54,9.54,0,0,1-1.45.38c-1.29.12-2.14.71-2.12,2.08a1.22,1.22,0,0,0,1.09,1.34c1.24.14,2.29-.18,2.59-1.52.44-2,2.76-1.75,3.44-3.48a5,5,0,0,1,.48,2c.27,14.39.6,28.77.75,43.16.13,13.43.05,26.87.09,40.3a18.51,18.51,0,0,0,.29,3.8,2.62,2.62,0,0,0,2.22,2.25c1.52.16,2.27-.94,2.8-2.17a7.37,7.37,0,0,0,.3-3.78c-.2-1.91-.57-3.81-.66-5.72-1.22-24.11-2.08-48.23-2.25-72.38,0-6.57,2.49-11.8,5.84-16.79,1.55-2.32,2.7-4.33,2.35-7.08-.48-3.63,1.52-6.34,3.32-9.14a8.93,8.93,0,0,0,1.69-3.41c.24-2.34,1.52-3.61,4-4.4-1.44-1.17-2.87-1.87-3-3.38-.44-3.89-2.4-7.22-4-10.47,1.55-1.91,3.7.47,5-1.26-.37-2.53-3.34-1.09-4.62-2.92l4.89-6c.06-4-.51-6.34-2.44-7.88,1.93,1.54,2.5,3.85,2.44,7.88,1.54.45,3.15,2,4.5-.28-.45-1.64-3.85-1.06-2.8-3.64.94-2.32,2.95-1,4.51-.91,1-4.23,1-4.23,5.55-5.34-2.18-2.22-1.88-4.24.56-5.87,1.33-.89.77-1.84.26-2.84.4-.45.83-.88,1.18-1.36.94-1.26.59-1.9-1-1.91,1.27-2.61,3.87-5,1.64-8.28-1.29-1.94-1.22-3.28,1.57-3.34a1.37,1.37,0,0,0,1.4-1.08A1.55,1.55,0,0,0,274.66,90ZM107.88,157.88a5.28,5.28,0,0,0-.75-2.21h0A5.28,5.28,0,0,1,107.88,157.88Zm2.06-3.9a3.36,3.36,0,0,0,0-1.21h0A3.36,3.36,0,0,1,109.94,154ZM224,85.72c.7-.06,1.09.34,1.14,1-.06.44-.17,1-.68,1-.8,0-.82-.77-.87-1.35C223.53,86.16,223.79,85.73,224,85.72Zm-6.58.69a13.74,13.74,0,0,0,3,5.39,13.74,13.74,0,0,1-3-5.39c-.31-.06-.69-.28-.92-.17-4,1.9-4,1.91-3.78-2.77C214.57,83.93,217.14,83.33,217.38,86.41Zm-22.93,66.44a3.14,3.14,0,0,0,0-.61A3.14,3.14,0,0,1,194.45,152.85Zm7.19-71.55a.39.39,0,0,0-.6,0A.39.39,0,0,1,201.64,81.3Zm-47,75.75c-.06,1.27-.14,2.53-.21,3.79C154.52,159.58,154.6,158.32,154.66,157.05Zm11.12,29.43c-.69.47-1.19,0-1.69-.38-3.36-2.3-5.09-1.75-6.21,2-.7,2.31-.7,2.31-4.21,2.71,0-7-.32-14,.71-20.93l1.48-1.1a13,13,0,0,0,5.3,5.25c1.91,1.08,2.89,2.76,4.3,4.18C168.29,181,168.19,183.62,165.78,186.48Zm8.07-80.38c-1.94-.85-1.72-2-.43-3.23,2-1.91,4.52-2.29,6.48-1.09a2.24,2.24,0,0,1,1.25,1.85c.15,2.11-2.28,4.34-4.29,3.81A21.76,21.76,0,0,1,173.85,106.1ZM195,184.24c-1.53,3.78-1.48,8-3,11.83-.55-5.11-.18-10.23-.25-15.34a2.25,2.25,0,0,1,.92-2.08C195.3,179.73,196.2,181.35,195,184.24Zm11.81-2.05a.85.85,0,0,1-.87-.89c0-.7.27-1.24,1-1.24a.8.8,0,0,1,.87.89C207.85,181.62,207.62,182.18,206.83,182.19Zm21.76-70.75c-.47.56-1,1.26-1.8.75s-.51-1.58-.43-2.44c1.5-.44,2.24.14,2.23,1.69,1.65-.48,1.29-2,1.49-3.3C229.88,109.45,230.24,111,228.59,111.44Zm3.37,1.32a.94.94,0,0,0,.57,1.1,1.71,1.71,0,0,0,.48-.18,1.71,1.71,0,0,1-.48.18A.94.94,0,0,1,232,112.76Zm28.64,2.29a1.53,1.53,0,0,1,.65-.28,1.53,1.53,0,0,0-.65.28,2.47,2.47,0,0,0-.78,1.2h0A2.47,2.47,0,0,1,260.6,115.05Zm-.87,1.25h0l-.62.06Z"/><path d="M160.86,72.15l0,0v0h0v0h0Z"/><path d="M144.7,80.57A10.57,10.57,0,0,1,149,75.15,3.55,3.55,0,0,0,150.75,73c.45-1.81-1-4.84-3-6.07-2.4-1.52-5.64-1.47-7.53.29a5.3,5.3,0,0,0-1.49,6C139.77,76.22,142.17,78,144.7,80.57Z"/><path d="M130.13,89.4v0h0Z"/><path d="M266.55,73.86c2.41.14,4.94-2,5-4.22,0-2.65-1-4-3-3.92-2.82.12-5.13,2.22-5.17,4.68A3.34,3.34,0,0,0,266.55,73.86Z"/><path d="M129.2,87.48h0l0,0,0,0S129.19,87.48,129.2,87.48Z"/><path d="M134.93,90.35h0s0,0,0,0l-.11,0,.05.06Z"/><path d="M130.15,89.41h0v0Z"/><path d="M130.15,89.41l4.73.88c-.72-.77-.41-1.71-.38-2.59a10,10,0,0,0-.84-5,2.47,2.47,0,0,0-3-1.55c-1.16.33-1,1.4-1.09,2.32-.15,1.34.69,2.77-.34,4C130.69,87.54,130.7,88.33,130.15,89.41Z"/><path d="M279.64,200.69a3.31,3.31,0,0,0-3.19,3.49,2.75,2.75,0,0,0,3,3c2.07,0,4-1.7,3.87-3.45A3.48,3.48,0,0,0,279.64,200.69Z"/><path d="M174.74,220.09a2.34,2.34,0,0,0-2.37,2.46c-.11,1.86,1.27,3.68,3,3.59,1.37-.06,3-.23,2.86-2.23C178.25,221.77,176.6,220,174.74,220.09Z"/><path d="M130.87,239.34c-1.43-.45-2,.46-2.48,1.56a10.41,10.41,0,0,0-.94,6.1c1.77-1.15.21-4.33,3.22-4.16a1.64,1.64,0,0,0,1.72-1.87A1.88,1.88,0,0,0,130.87,239.34Z"/><path d="M45.73,196.23,35.4,200.74C40.83,201.8,43.44,200.62,45.73,196.23Z"/><path d="M79,225.23a2.15,2.15,0,0,0-2.54,2.18c-.09,1.56.48,2.91,2.21,3.12s2.57-.89,2.88-2.49A2.56,2.56,0,0,0,79,225.23Z"/><path d="M133.87,23.91c1.63.22,2.07-1.06,2.33-2.39-.1-1.56-.78-2.73-2.44-2.95s-1.81,1-1.87,2.13C131.81,22.16,132.08,23.67,133.87,23.91Z"/><path d="M295.16,128.94c-1.58,0-2.17,1.21-2.35,2.54a1.54,1.54,0,0,0,1.61,1.89c1.73.1,2.64-.82,3-2.44A2.2,2.2,0,0,0,295.16,128.94Z"/><path d="M159.86,14.85a1.09,1.09,0,0,0-1-.85c-.55,0-.81.4-1,.83-.88,2.16-.3,3.94,1.54,5.85A10.6,10.6,0,0,0,159.86,14.85Z"/><path d="M128.67,13c.71-2.06,1.16-4.09-1.07-5.93C126.27,9.39,126.53,11.28,128.67,13Z"/><path d="M16.4,107.85c-1.6,0-2.85.57-2.92,2.34,0,1,.95,1,1.76,1.11,1.54-.07,2.89-.59,3-2.32C18.25,108.09,17.23,107.86,16.4,107.85Z"/><path d="M209.52,52.22a6.42,6.42,0,0,0-3.76,5.83C208.15,57,208.87,55,209.52,52.22Z"/><path d="M177.65,32.59c-1.33,2.38-1.88,4.37-.05,7C178.63,37,179.34,35,177.65,32.59Z"/><path d="M70,205.66c3.49-.67,3.5-.66,5.37-4.25C72.42,202.12,71,203.38,70,205.66Z"/><path d="M1.53,88.86c-.78.14-1.7.43-1.5,1.45a1.82,1.82,0,0,0,2.14,1.46,1.64,1.64,0,0,0,1.55-1.7A1.94,1.94,0,0,0,1.53,88.86Z"/><path d="M55.12,153.57c2,1.43,3.75,1.13,5.6.25C59.12,152.53,57.46,151.66,55.12,153.57Z"/><path d="M279.31,89.15c-1.34-1.81-1.43-3.47-3.13-4-.14,0-.59.37-.58.54C275.76,87.39,276.5,88.62,279.31,89.15Z"/><path d="M154.58,43.86c.6.19,1.18-.34,1.31-1a2.07,2.07,0,0,0-1.34-2.62c-.74,0-1.24.26-1.34,1C153.06,42.4,153.32,43.49,154.58,43.86Z"/><path d="M260.35,55c.94,0,1-.93,1.12-1.68s.06-1.37-.79-1.35-1.15.86-1.19,1.63S259.67,55,260.35,55Z"/><path d="M289.61,135.46c-1,.15-1.76.59-1.76,1.74a1.08,1.08,0,0,0,1.12,1.18,2.19,2.19,0,0,0,2.06-2A1.17,1.17,0,0,0,289.61,135.46Z"/><path d="M163.42,38.69c-2.19.77-2.64,2.21-2.71,5.09C162.49,41.79,163.83,40.85,163.42,38.69Z"/><path d="M53.54,178.17c-.93.24-1,1-.87,1.78s.68,1.44,1.63,1.11c.64-.23.73-.89.69-1.52C54.92,178.68,54.58,178.09,53.54,178.17Z"/><path d="M309.56,74.2c-.87,0-1.66.25-1.62,1.25s.83,1.23,1.71,1.16,1.71-.37,1.69-1.28S310.4,74.21,309.56,74.2Z"/><path d="M170.13,251.65c-.95,0-1.27.73-1.21,1.56,0,.63.34,1.38,1,1.39.92,0,1.14-.81,1.2-1.28C171.14,252.3,170.81,251.68,170.13,251.65Z"/><path d="M117.49,200.24a1.9,1.9,0,0,0-1.27,2.21,1.24,1.24,0,0,0,1.3,1.11c1.3-.14,1.2-1.2,1.13-2.14A1.11,1.11,0,0,0,117.49,200.24Z"/><path d="M121.74,197.93c-.67,0-1.28.12-1.4.88a1.43,1.43,0,0,0,1.19,1.72c.92.22,1.41-.38,1.68-1.15C123.2,198.37,122.62,198,121.74,197.93Z"/><path d="M270.74,83.23a.76.76,0,0,0,1,.63A2.29,2.29,0,0,0,273,82c-.14-.57-.46-.77-1-.5C271.27,81.85,270.58,82.28,270.74,83.23Z"/><path d="M31.62,159.72c-.76-.06-1.6-.07-1.6,1,0,.26.61.52.82.69.82,0,1.47-.07,1.6-.81C32.53,160.06,32.1,159.76,31.62,159.72Z"/><path d="M168.74,34c.74,0,1-.61,1.13-1.35-.05-.59-.16-1.33-.9-1.42-1-.13-1.35.63-1.34,1.5C167.64,33.44,168,34,168.74,34Z"/><path d="M103.39,68.17c.68-.08,1.16-.44,1.14-1.13a1.12,1.12,0,0,0-1.1-1.18,1.22,1.22,0,0,0-1.35,1.41C102.14,68,102.74,68.19,103.39,68.17Z"/><path d="M57.06,118.05c-1.83-.74-2.93-1-4.36-.32C54,118.92,55,119.09,57.06,118.05Z"/><path d="M229.71,50.19a.82.82,0,0,0,.87-.88.94.94,0,0,0-.88-.93.85.85,0,0,0-.88.9A.88.88,0,0,0,229.71,50.19Z"/><path d="M312.35,79.18a.78.78,0,0,0-.24,1.53c.46.21.84,0,1-.54A.94.94,0,0,0,312.35,79.18Z"/><path d="M187.3,217.9c-.48-.09-1.06,0-1.15.5-.16.81.55,1,1.15,1.16.52,0,1-.21,1-.8S187.78,218,187.3,217.9Z"/><path d="M166.9,226.13a1,1,0,0,0-1.25-1c-1.16.31-.37,1.21-.44,1.87a.25.25,0,0,1,0,.11l.11-.07C165.88,226.8,167,227.37,166.9,226.13Z"/><path d="M68.85,43c.18,0,.39-.31.58-.47,0-.74-.53-1.08-1.08-1.33s-.89,0-.7.61S68.15,42.93,68.85,43Z"/><path d="M214.59,59.72a1,1,0,0,0,1.17-.58,1,1,0,0,0-1-.8,1,1,0,0,0-.77.42C213.72,59.3,214.08,59.64,214.59,59.72Z"/><path d="M137.63,226.28c.08.27.12.76.26.8.81.2,1.09-.49,1.37-1,.1-.19-.11-.78-.21-.78A1.39,1.39,0,0,0,137.63,226.28Z"/><path d="M271.15,62.68a.81.81,0,0,0,.84-.88,1,1,0,0,0-.36-.77c-.49-.24-.86,0-1,.54A.87.87,0,0,0,271.15,62.68Z"/><path d="M116.85,219.26c-.48.17-.76.51-.55,1a1,1,0,0,0,.7.49.72.72,0,0,0,.79-.84C117.75,219.39,117.34,219.22,116.85,219.26Z"/><path d="M283.25,92.42c-.1-.25-.13-.62-.31-.73a.72.72,0,0,0-1.11.3.83.83,0,0,0,.29.75A.78.78,0,0,0,283.25,92.42Z"/><path d="M281.42,141.08c.41,0,1,0,.91-.62s-.54-.63-1-.6-.84.42-.69.93C280.67,141,281.14,141.07,281.42,141.08Z"/><path d="M118.39,51.88a1,1,0,0,0-.33-1.26.67.67,0,0,0-1.1.31,1,1,0,0,0,.31,1.27C117.71,52.52,118.11,52.32,118.39,51.88Z"/><path d="M202.09,0c0,.05,0,.09,0,.14a.6.6,0,0,0,.08-.08Z"/><path d="M201.64,2.05c.49-.21.41-.7.39-1.15,0-.25,0-.5.05-.76-.19.19-.39.37-.57.57s-.81.52-.58,1.05A.78.78,0,0,0,201.64,2.05Z"/><path d="M243.21,66.1c.26-.11.63-.16.75-.36a.63.63,0,0,0-.37-1,.83.83,0,0,0-.73.31A.72.72,0,0,0,243.21,66.1Z"/><path d="M74.51,232.66c-.44.12-.85.34-.72.9a.76.76,0,0,0,.94.68c.43-.09.87-.25.69-.87C75.26,233,75.09,232.52,74.51,232.66Z"/><path d="M158.35,233.47c0,.09.14.26.21.39l.68-.44-.49-.6A4.07,4.07,0,0,0,158.35,233.47Z"/><path d="M156.55,183.94a4.38,4.38,0,0,0-.35,1.2c0,.43.16,1,.85.76a1,1,0,0,0,.6-1.12A1,1,0,0,0,156.55,183.94Z"/><path d="M156.93,181.27c-.13.26-.27.51-.4.76a2.31,2.31,0,0,0,.85.26.39.39,0,0,0,.32-.67C157.54,181.42,157.19,181.38,156.93,181.27Z"/></g></g></svg>