<svg xmlns="http://www.w3.org/2000/svg" viewBox="0 0 388.36 118.43"><g id="Capa_2" data-name="Capa 2"><g id="Capa_2-2" data-name="Capa 2"><path fill="#fff" d="M388.36,90.42c-1.37-.38-.42-1-.14-1.5h0v-1.2h0a4.56,4.56,0,0,0-.37-2.54c-.7-1.11-1.4-2.23-2-3.4-1-2-2.73-3.67-3.14-5.94-.18-1-.43-1.43-1.46-1.68s-1.81-.91-.76-2c.41-.44.25-.7-.16-.88a1.06,1.06,0,0,1-.74-1.08h0c.25-.67-.26-1.1-.51-1.61,0-.23-.13-.36-.39-.31h0a.26.26,0,0,0-.32-.12l-.6-.46h0c0-.34-.16-.67-.55-.62-.61.09-1.41-.11-1.48-.52-.26-1.41-1.29-1.06-2.16-1.2S371.81,65,372,63.71c.09-.68-.37-.77-.92-.63-1.12.28-1.57-.14-1.14-1.23.28-.73-.12-1-.63-1.32a2.51,2.51,0,0,1-1.09-.86c-1.16-2-1.3-2-3.41-1.08-1.72-.08-3.07-1.35-4.76-1.48l-.06-.45h0l0,0a2.85,2.85,0,0,0,1.42-.05,4.07,4.07,0,0,0,1.84-1.41h0c.12-.1.23-.26.36-.29,1-.21,2-.29,2.66.86a2.42,2.42,0,0,0,2.47,1.11c1.08-.23.48-1.47.82-2.18a1,1,0,0,0-.19-1.25c-1.05-1.15-1.33-2.65-1.83-4.06-.17-.5-.3-1-.49-1.51-.69-1.75-1.83-3.28-2.5-5-.51-1.3-1-2.16-2.45-2.28a4.82,4.82,0,0,1-1.13-.37c0-.17,0-.34,0-.5h0c.52-.08,1.1-.72,1-.82-.7-.94.29-1.91-.13-2.84S361.21,34,359.73,34c-.72,0-1.25-.53-1.76-1.27a3,3,0,0,0-3.27-1.54h0c-.44-.77-1.22-.41-1.85-.55h0c-.61-.49-1-1.36-1.93-1.34,0-.29,0-.59,0-.89a.59.59,0,0,0,.42-.5c.39-.18.42-.36,0-.52,0-.43.6-.78.21-1.2-.21-.23-.53-.06-.73.2a.33.33,0,0,0-.32,0c-.13-.34-.1-.79-.63-.84h0a4.06,4.06,0,0,0-2.39,0,14.07,14.07,0,0,1-2.06-.35,16.1,16.1,0,0,0-6-.73c-1.42-.5-2.88-.91-3.27-2.69a1.49,1.49,0,0,0-1.26-1c-.29-.07-.82-.07-.77-.36.26-1.39-.72-1.12-1.43-1.11a2.59,2.59,0,0,1-1.52-.6h0c.72-1.45-.45-1.77-1.35-2.26h0l1.32-.09c.85-.89.08-.85-.52-.9h0c-.53,0-.86-.63-1.44-.47l-3.81-.08a2.26,2.26,0,0,1,0-.45c.35-.13.76-.14,1-.49h0l.21,0,.21-.07c.62,0,.58-.46.57-.88.39-.23.28-.45,0-.68h0a.33.33,0,0,0-.14-.35,1.63,1.63,0,0,0-.41-.42l0,0a3.8,3.8,0,0,1-.42-.57c-.19-.53-.58-.47-1-.35a.93.93,0,0,0-.46-.09c-.53-.62-1.28-.31-1.93-.41h0a.33.33,0,0,0-.35-.08,1.51,1.51,0,0,0-1-.52v0c-2-1.11-4.2-1.49-6.28-2.27a13.55,13.55,0,0,0-5.25-1.93c-.73-.64-1.63-.33-2.45-.41h0l-1.45,0a64.68,64.68,0,0,0-9.57-1.55h0a49.93,49.93,0,0,0-11-1.39A43.94,43.94,0,0,0,275,1l-.9-.06h0c-.67-.61-1.5-.36-2.27-.38-1.66-.06-3.32-.07-5-.09h0a2.37,2.37,0,0,1,0-.46h-37c-.06,1,.62.94,1.26,1H237V1.3l-2.77.13h0l-11,0a77.8,77.8,0,0,0-12.11.4h12.13l-.05.08h0c-.76.8-1.75.34-2.63.46s-1.87-.31-2.66.44c-1.45.17-2.95-.18-4.39.46h6.36c.35.11.75.12,1,.46h0c0,.2,0,.39,0,.58h0a30.73,30.73,0,0,1-5.29,1h0c-1.28.06-2.61-.46-3.8.4h0c-.57.78-1.41.48-2.15.55s-1.58-.25-2.2.45h0a9.38,9.38,0,0,0-1.31.13c-.68.15-.6.49-.15.87,0,.14,0,.29,0,.44h0a3.75,3.75,0,0,1-2.51.52,8.77,8.77,0,0,0-3.14.3c1.19.11,2.38.11,3.57.11l18.42,0h0a16.25,16.25,0,0,0,6.37.12,2.81,2.81,0,0,1,2.54.34c1.36,1.17,3,.9,4.53,1h0c2.86.57,5.66,1.56,8.64,1.43h0c1.29.92,3,.17,4.3,1h0c0,.47,0,.95,0,1.43a3.56,3.56,0,0,0-1.84.42h0c-2.26-.5-4.52-1-6.83-.35h0c-3.35-.29-6.62.65-10,.56a.23.23,0,0,0-.16.12c-.16.27.32.11-.06.27,1.22.9,2.71,0,4.11.74l-4.5.23h0a18.06,18.06,0,0,1-4-.23,10.18,10.18,0,0,0-4.17-.25h0c-5.32-.37-10.53.93-15.83.92h0a79,79,0,0,0-9.1.46h0c-3.54-.25-7,.46-10.55.49-2.61-.26-5.12.42-7.68.68a22.46,22.46,0,0,0,7.67-.23h3.72c-.91.48-2.13.41-2.37,1.77,0,.11-.57.12-.87.17h0c-.32,0-.64-.06-1-.06-3.76-.07-7.34,1.15-11,1.5h0a49.86,49.86,0,0,0-6,.71,2.11,2.11,0,0,0-.79.22l-6.21.06a2.67,2.67,0,0,1-.55.4l-3.76,0c-3.55-.27-7,.41-10.78.57a4.14,4.14,0,0,0,2.65.83c3.65,0,7.31,0,11,0a1.39,1.39,0,0,0,1.08-.4h1.27c.12.3.12.68.58.69H163l.23.07c-.1.85-1.08.57-1.47,1,0,0-.05,0-.06.06l-1.83.06c-4.65-.07-9.27.64-13.91.49-3.54-.27-7,.56-10.5.89h7.08c.55.07,1.17-.05,1.52.55h0c-.28.59-1.14.23-1.52.87h5.71c.85.21,1.87-.28,2.56.6h0c.4.54,1,.35,1.53.38a43.1,43.1,0,0,0,7.53-.46h0l.89,0,.92.89h0l-1.33.07h0c-2.06,0-4.12,0-6.17,0-.69,0-1.44-.21-2,.42h0a17.07,17.07,0,0,1-6.49,1,14.78,14.78,0,0,0-3.79.37,6,6,0,0,1-3.48-.19,7.63,7.63,0,0,0-3.78,0c.76,1.17,1.87.56,2.64,1-.15.5-.82,0-.94.57a13.41,13.41,0,0,0,6,.58c2.49-.47,4.89,0,7.33.15h0l-.91.87h0c-2.24-.17-4.43.43-6.65.55a21.13,21.13,0,0,0-3.56,0,52.88,52.88,0,0,1-9.4.9,2,2,0,0,0-1.55.43c-1.65,0-3.31,0-5,.07-1.06,0-1,.09-1.7,1.35a55.66,55.66,0,0,1,9.14-.93h0c2.28.4,4.47-.77,6.75-.38l1,.95h0a2.5,2.5,0,0,1-.06.38h0c-1.14.21-2.47-.37-3.7,1a15.41,15.41,0,0,1,3.73-.52h0c1.74.28,3.58-.43,5.25.54l-.93.91a.49.49,0,0,0-.06.23c0,.05.09.14.14.14l9.5.14h0a3.38,3.38,0,0,1,0,.45,4.18,4.18,0,0,1-3.07,1,7,7,0,0,0-4,.45h8.08a19.8,19.8,0,0,0,3.85-.05,1.11,1.11,0,0,0,1-.37h0c.91,1,2.54-.23,3.52,1.18-1.62.41-3.18-.08-4.58.63l.91.15a1.35,1.35,0,0,1,0,.35h0c-1.94.25-3.95,0-5.8.24-2.55.33-5,.17-7.55.27a1.6,1.6,0,0,0-1.3-.43h-7.56a1.56,1.56,0,0,0-1.3.43h0l-1.88,0h0c-.71,0-1.71-.27-2.08.1-1.35,1.32-2.93.7-4.41.78-2.13.12-4.27.08-6.41.1-.55,0-1.32-.15-1.57.3-.8,1.41-2.15.94-3.3,1.16-3.86-.35-7.67.37-11.52.74,3.08-.21,6.06.88,9.13.63h11c.07.68-.81.72-.48,1.41l2.3.11c0,.3,0,.59,0,.88h0a2.87,2.87,0,0,1-1.79.52c-1.46-.17-2.8.56-4.25.47a1.17,1.17,0,0,0-1.19.92c4.89.15,9.65-.29,14.4.14h0c.16.68.69.76,1.27.79,3.12.18,6.22.53,9.35.48H144a16.23,16.23,0,0,0,6.24.53,1.44,1.44,0,0,1,0,1.87h0a4.44,4.44,0,0,1-2.51.47l-7.56.06a4.9,4.9,0,0,0-2.79-.46c-4.24,0-8.47.09-12.71,0-3.12-.09-6.17.75-9.29.55-.31,0-.63.12-.81.64,1.07.14,2,.8,3.13.59a50,50,0,0,1,10.94-.33h0c0,.17,0,.35,0,.53h0a1,1,0,0,1-1,.56c-1.94-.2-3.84.45-5.77.28l-1.42.07h0l-.52,0c-3.07-.17-6.13.53-9.21,0a4,4,0,0,0-1.42.07,30.85,30.85,0,0,1-9,.14,4.62,4.62,0,0,0-4.22,1.19c2.77-.45,5,.83,7.47.45a1.4,1.4,0,0,1,1.49.54h0c-.44.58-1.08.41-1.67.44s-1.23-.11-1.65.48c.18,1,1,.24,1.42.51,0,.17,0,.35.08.53h0c.64.7,1.49.41,2.25.42,3.18,0,6.36,0,9.54,0a4.74,4.74,0,0,1,2.54.47l1,1c0,.14-.07.29-.11.43h0a.74.74,0,0,0-.33,0,5.27,5.27,0,0,0-1-.26c-2.5-.41-5.06.64-7.55,0-.07,0-.15.06-.23.07-1.77.3-3.54.68-5.29,1-2.13.4-4.4.34-6.59.68h0c-1.09,0-2.2-.14-2.92,1h0a2.8,2.8,0,0,1,0,.41h0l-8.63,1c-.68,0-1.41-.22-2,.4h0a1.39,1.39,0,0,0-.41,0c-3.26-.06-6.41.76-9.63,1-.82,0-1.7-.32-2.41.39h0l-2.38.06h0c-8,1.09-16.13,1.35-24,3.55a14.85,14.85,0,0,0,6.4,0,40.3,40.3,0,0,1,9.87-1.22h0c.51,0,1.08-.08,1.46.43a7.75,7.75,0,0,0-3.36.91c2.73,0,5.43-.58,8.16-.33h0c1.27.78,2.58.33,3.91.21,2.81-.26,5.58-1.3,8.48-.33a3.49,3.49,0,0,0,3-.42h1.88c1.15,0,2.34.26,3.38-.47h0c2.76-.32,5.42.63,8.16.54h0c0,.13,0,.26,0,.39h0l0,.11c-1.51-.14-2.49,1.2-3.88,1.37h0l-1.89,0h0c-2-.22-4,.89-5.89.35-1.73-.49-3.45,0-5.15-.36-.73-.16-.72.37-.56.89-1.25.32-2.53-.41-3.78.11h0c-2.44.21-4.88.37-7.32.63a23.9,23.9,0,0,0-4.66.79h0a15.46,15.46,0,0,0-2.35.15,38.62,38.62,0,0,1-5.55.63c-1.78-.06-3.79-.36-5.54.6-.64,0-1.28,0-1.9.13L37.44,82.61a14.13,14.13,0,0,0-2.83.26c-1.17.13-2,.9-3.08,1.2-1.38.39-2.83.22-4.19.71a31.24,31.24,0,0,0,8.14-.32c.5.13,1.56-.33,1,.93h0l0,.06a32.69,32.69,0,0,1-6.34,2.08c1,.49,2-.22,3,.35a2.54,2.54,0,0,1,0,.39h0c-.45.14-1.15-.11-1.21.93,1.18-.38,2.32-.21,3.37-.46,1.89-.44,3.9,0,5.66-.61a13.62,13.62,0,0,1,5.15-.75h0c2.19.34,4.45-.37,6.65.64.65.3,1.87-.68,1.93,1,0,.29.53.35.81.26,2.42-.8,5.14,0,7.42-1.46h0l.9,0h0c-.11,2.73-.12,2.69,2.56,2.42.8-.08,1.73-.38,2.38.47h0a14.42,14.42,0,0,1-5.82.87h0c-2.9.1-5.75.56-8.62.91-3.53.44-7.07.73-10.6,1.08-.47.27-1.16.53-.68,1.19.34.47.84.18,1.15-.27h0a22.22,22.22,0,0,0,5.64-.4c1.18-.25,1.28.43,1.07,1.33h0l-8.64,1.09c-.17.14-.35.28-.53.4l-1.37,0c-2.88-.31-5.71.32-8.53.62-1.79.19-3.67.08-5.39.81a5,5,0,0,0-3.88.59c2.54.55,3.57.52,5.37-.08h0l4.23-.06h0c.39,0,.77.09,1,.49h0l0,.06a1.64,1.64,0,0,0-2,.88h0a20.06,20.06,0,0,1-4.29.53,10.42,10.42,0,0,0-4.32,1,8,8,0,0,0-2.13,0c-1.57.47-3.61-.19-4.65,1.85h4.36l.49.49c-1.25.47-2.7.36-4.12,1.52,3-.27,5.7-.47,8.36-.75,1.95-.2,3.9-.51,5.85-.77h0a3.4,3.4,0,0,0,.46.06l.51.44h0c0,.14,0,.29,0,.44h0c-.4,0-1-.09-1.15.1-.67,1.23-1.93.68-2.84,1.08s-1.85,0-2.74,1a28.77,28.77,0,0,0,9.17-.27h0c.55.08,1.51-.25.93.94h0l-2.44,1.44h0l-2.34,0a17.82,17.82,0,0,0-6.23,1c-2.15-.18-4.3.5-6.46,0-.23,0-.54.24-.81.37h0c-1.7-.28-3.26.65-5,.56s-3.24-.48-4.59.87c-.16.17-.61.06-.93.08a11.89,11.89,0,0,0-5.72,1.21A13.44,13.44,0,0,0,6.67,113a2.56,2.56,0,0,0,.56-.18,42.25,42.25,0,0,0,11-1h0a40.77,40.77,0,0,1,5.29-.47h0c.87,1.24,1.58-.37,2.54-.14a6.25,6.25,0,0,0,3.68-.31h0c.34.46.67.43,1,0h1.85c.19.32.37.32.57,0h.21l.22,0,1,0v.09h0c.44.72,1.49.14,1.91.91h0a16.23,16.23,0,0,0-4.33.56c-.67,0-1.39-.24-1.93.4h0a1.12,1.12,0,0,0-.44.06c-1.75,0-3.45.46-5.22.46a26.44,26.44,0,0,0-6.16.59c-1.73.41-3.55-.06-5.18.7a4.33,4.33,0,0,1-2.28.27,7,7,0,0,0-4.78,1,6,6,0,0,1-3.26,1.1C2,117,1,116.85,0,118c2.28-.53,4.25-.27,6.2-.49,3.7-.42,7.4-.93,11.12-1.3,4.11-.4,8.24-.68,12.36-1a1.62,1.62,0,0,0,1.08-.43h0c1.3-.47,2.12.87,3.31.85l0,.51h0l0,.07-20.86,1.38c.48.76.95,1,1.4.8,1.48-.55,3-.24,4.5-.27,5-.09,10-.84,15-1h0a39.7,39.7,0,0,0,4.5,0,91,91,0,0,1,13-.9c.72,0,1.43,0,2.14-.08h0c1,.26,1.48-.88,2.37-.85,1.89.08,3.7-.51,5.6-.51,1.68,0,3.45.48,5.06-.44h0c4.05.23,8.05-.68,12.11-.56.27,0,.55-.25.83-.39h0c1.93-.15,3.91.38,5.8-.43h0c1.33,0,2.66,0,4-.11,1.06-.08,2.19.36,3.16-.42h0c.62,0,1.33.18,1.78-.41a1.86,1.86,0,0,1,1.46-.61c2.48-.36,5,.05,7.47-.4.29,0,.82-.08.84.2.14,1.43,1.12.78,1.72.67a9.77,9.77,0,0,1,2.29-.09c1.86.08,3.78.54,5.6-.32,1.5,0,3,.07,4.51,0,1.23-.06,2.53.28,3.69-.46h.8a1.93,1.93,0,0,0,2.51,0h0l8.57,0a1.89,1.89,0,0,0,1.56-.41h0c4.92.07,9.85-.26,14.78,0h0A17,17,0,0,0,158,110h0a5.21,5.21,0,0,1,1.62.24c.94.14,2,.52,2.68-.68h0l2.37-.11c1,0,2.07,0,3.1,0,1.24-.09,2.54.37,3.71-.39h0l1.34-.06h0l11.46,0a1.47,1.47,0,0,0,1.1-.37h0l5.2-.08h0a7.35,7.35,0,0,0,2.43,0h0l9.49,0h0c1,0,2.08,0,3.11.06s1.94-.36,2.73.47l-2.87.65a22.37,22.37,0,0,0,6.72.28h0c.64,0,1.28.09,1.91.07a65.88,65.88,0,0,1,9.52.33c2.86.29,5.83.68,8.63-.71a1.8,1.8,0,0,1,2,.31,2.26,2.26,0,0,0,2.47.25,11.38,11.38,0,0,0,2.85-1.16,4.24,4.24,0,0,1,2.25.57,3,3,0,0,0,3,.07c1.46-.82,2.8-.56,4.31-.28,1.06.2,2.28.92,3.39,0h0a33.06,33.06,0,0,0,5.54.14.64.64,0,0,0,.66-.52s0,0,0,0l0,0a3.2,3.2,0,0,0,.17-.43h4.08c0,.22-.1.58,0,.65a2.53,2.53,0,0,0,3.08-.65h0l.12,0,.13,0a1.05,1.05,0,0,0,1.08.39h0c3,.23,6.06-.48,9.1,0h0c2.77.46,5.46-.47,8.2-.42a83,83,0,0,0,12-.48l11.21,0a1.6,1.6,0,0,0,1.32-.39h0l4.27-.05a61.5,61.5,0,0,0,7.68,0l1,0,11,0V108l-6.93,0c-.76,0-1.61-.23-2.11,1,2.95-.07,5.77.4,8.58.34,4.73-.1,9.41.56,14.12.51,1.36,0,2.72.2,4.06.07,2.27-.21,4.59.35,6.82-.46h0a18,18,0,0,0,7.62-.06,13.59,13.59,0,0,1,3.29-.19c3.07.55,5.89-.37,8.75-1.19h.23l.22-.09a1.67,1.67,0,0,0,1.49-.41h0c1.54.17,2.57-1.1,3.95-1.44.55-.13,1-.92.85-1.3-.62-1.33.49-1.7,1.07-2.4.43-.52.77-1.24,1.14-1.66A7.36,7.36,0,0,0,388,94.51c0-.07.07-.14.1-.22C388.55,93,387.64,91.67,388.36,90.42ZM223.22,1.86ZM130.59,51.57l-.13.06a2.56,2.56,0,0,1-.62,0A3.1,3.1,0,0,1,130.59,51.57ZM133.85,47h0a.24.24,0,0,1,0,.09A.94.94,0,0,0,133.85,47ZM26.55,103.33h-.08s0-.08,0-.13C26.29,103,26.66,103.2,26.55,103.33Zm-5.92-.15s0,0,0,0v0Zm11.55,1.75v0a.62.62,0,0,1,.22.1A1,1,0,0,0,32.18,104.93Zm157.57,1.18h0ZM142.55,108h.09l-.09,0Zm-49.49-3.51,0,.15a8.36,8.36,0,0,0-2.69.12,5.84,5.84,0,0,0-1-.27c-.67.08-1.35.08-2,.1a2.26,2.26,0,0,0,1.37-.82.38.38,0,0,0,0-.1h.06a1.29,1.29,0,0,0,2,0h0c2.6,0,5.2-.06,7.79,0a8.9,8.9,0,0,0,3.12-.48,1.54,1.54,0,0,0,.27.31,7.67,7.67,0,0,0,1.55.24c-2.76.52-5.56.13-8.33.26A3.12,3.12,0,0,0,93.06,104.52Zm-29.23,9.25h0ZM112.61,91.7l.12,0-.1,0S112.62,91.71,112.61,91.7Zm22.25-.49,0,0,0,0s0,0-.07,0Zm-4.74.51h1.33c.25.4.59.89,1.06.76.69-.2.94.38,1.4.56h0a67.26,67.26,0,0,0,7.1,0c.64,0,1.16-.17.63-1h0a.45.45,0,0,0,0-.28h0l.45-.1h0c.73.36,1.49.81,2.23-.51h-2.26a1.24,1.24,0,0,0-.43,0h0c0-.29,0-.57,0-.86h0c1.09,0,2.2,0,3.28-.1,1.95-.22,4,.31,5.83-.86h0c1.39,0,2.76.37,4.18,0a3.17,3.17,0,0,1,2.31.4c.54.29.24.63.09,1h0c-1-.09-2.18-1.21-2.62.69a.41.41,0,0,1-.54.31c-1.67-.52-1,.8-1.15,1.45-.66.11-1.38-.26-2.05.3.54.38,1.09.21,1.62.21l-.47.54h0l-.49,0c-.63,0-.92.28-.94.88h0c.16.92,1.11.85,1.67,1.26a4.53,4.53,0,0,0-.55.34,1.14,1.14,0,0,0-.26.32c-.74-.68-1.48-.38-2.23,0a.41.41,0,0,0-.05-.09,2.44,2.44,0,0,0-1.4-.46,10.1,10.1,0,0,0-1.1,0,7.78,7.78,0,0,0-1.73.2l-.39.11c-.61-.62-1.45-.49-2.27-.51-4.52-.07-9,1-13.5.87a55.39,55.39,0,0,1,5.5-.7c-1.29-.26-1.52-1.54-2.48-1.28-1.17.32-1.57-.69-2.34-1h0l-.55-1h0Zm98.15-46.3.2.06.64.12-.61,0C228.42,45.57,228.35,45.49,228.27,45.42Zm18.52,1.25a3.26,3.26,0,0,0-2.08.41,3.55,3.55,0,0,0-.71-.34,3.93,3.93,0,0,0,1.72-.59v0A6.07,6.07,0,0,0,246.79,46.67ZM217.3,104.24l.22.18h-1C216.77,104.36,217.07,104.43,217.3,104.24Zm6.26.74a1.34,1.34,0,0,0,1-.3.77.77,0,0,0,.17.19c.86.45,1.84.07,2.72.39h.07l-.28,0a10.5,10.5,0,0,0-4.49.38,15.55,15.55,0,0,0-1.54.54H220c-1.31-.52-2.72-.21-4.09-.22a1.33,1.33,0,0,1-.38-.31h0a11.38,11.38,0,0,1,3.18-.36c.88-.09,1.81.73,2.63-.12a.82.82,0,0,0,0-.33A9.91,9.91,0,0,1,223.56,105Zm21.38-.31a2.82,2.82,0,0,0,.8.5,9,9,0,0,0-1,0c-1.92.08-3.81.64-5.76.37a3,3,0,0,0-.6,0l0-.18.19,0A12.3,12.3,0,0,0,244.94,104.67Zm25.87,1.8c0-.1,0-.07,0,0Zm-2.17-2.07h-.26s0,0,0,0Zm-30.34-58a.88.88,0,0,0-.21.18.76.76,0,0,0-.13-.2Zm-13.66,2h0a.5.5,0,0,1,0-.13A.59.59,0,0,1,224.64,48.42Zm-14.89,55.71v0h0Zm-23.54-10h-.08l.08,0Zm-136.73,19s0,0,0,0h0ZM108,93.29l-.68.06.13-.06A5,5,0,0,1,108,93.29Zm.51,4-.35,0h0Zm-8.26,2.5h0s0,0,0,0Zm-9.81-6h0ZM90.75,96l0,0s0,0,0,0Zm2.61,0s0,0,0-.06c-.12-.21.11-.07.11.06Zm14.43,4.54h0Zm7.72-6c.66,0,1.37.17,1.78-.67a1.8,1.8,0,0,0-1.29-.25,2,2,0,0,0,0-.24,1.73,1.73,0,0,0-1.17-1.57c1.13,0,2.27.14,3.41.06h.13c1,.46,2.27.62,2.88,1.85.23.44.85.36,1.33.36l1.79,0a2.23,2.23,0,0,0-1.27,2.42,9.93,9.93,0,0,1-4.15-.66c-.89-.42-2.06-1.21-3.32-.75l-.37-.37A1.56,1.56,0,0,0,115.51,94.53ZM119,98.44h.09a.25.25,0,0,1,0,.08s-.07,0-.1-.08ZM75.78,94.56h0v0Zm1.49-2.34,0,0v0ZM62.89,95l0,0a.2.2,0,0,1,0-.12S62.88,95,62.89,95Zm71.87,5.67.06,0h-.08Zm-.94,1.59.09,0v0h0A.11.11,0,0,1,133.82,102.27ZM119.36,86.66a2.43,2.43,0,0,1-.47,0,2.7,2.7,0,0,1,.57,0ZM111.46,95h0Zm-8.22-5.46v0h0ZM60.92,98.35h0Zm2.37,13.92a.05.05,0,0,0,0,0l0,0ZM77.75,98l0,0s0,0,0,0h.09C77.8,98.05,77.82,98.09,77.75,98Zm7.38,6.91a4.34,4.34,0,0,1-.69.17l-.11,0a4.08,4.08,0,0,1,1.64-.28A6.21,6.21,0,0,0,85.13,104.89Zm25-1.73a1.69,1.69,0,0,0,.44-.12,2.31,2.31,0,0,0-.61.69.92.92,0,0,0-.64-.49l-1,.07A17.66,17.66,0,0,1,110.1,103.16Zm.78-.32.15-.16h.27A2.41,2.41,0,0,0,110.88,102.84Zm31.67,4.65v-.06a.21.21,0,0,0,0,.06Zm41.88-3.93.27.07h0l0,0h0l-.08,0h0Zm2.28-3.66,0,0v0ZM241,108.45s0,0,0,0h0Zm-4.71-62.79a1.69,1.69,0,0,0,.57.44l-1.49-.16c.27,0,.54-.08.82-.14Zm-10.6.48a4.7,4.7,0,0,0-.37.54l-.16-.13a1.82,1.82,0,0,0-.34-.34C225.06,46.2,225.35,46.17,225.64,46.14Zm-28-6.54h0Zm-10.08-8.16h-.28v0Zm-1,16.24c.79,0,1.94.21,2.09-1.1h.07c2.89,1.07,5.79,1.42,8.68,0h0c2.68,1.75,5.36,1,8.05.24a4.08,4.08,0,0,0,.42.19,8.51,8.51,0,0,0,4.22.72,24.8,24.8,0,0,1,6.43.5,1.71,1.71,0,0,0,.43-.09h0c.18,1.07,1.56.54,1.9,1.41a1.24,1.24,0,0,1-.92.39h0a6.84,6.84,0,0,1-2.85,0h0c-.64-.42-.73-1.69-1.95-1.22-.84.33-.27,1.11-.56,1.61h0a1.13,1.13,0,0,0-.32.05.6.6,0,0,0-1.06,0h-.84c-.36-.43-.71-.57-1.07,0h0a8.72,8.72,0,0,0-4.63-.3,9.22,9.22,0,0,1-2.49-.21h0c-.17-.3-.34-.33-.52,0-1,0-2.19.36-2.89-.08-1.31-.82-2.24-.28-3.3.25h-1c-1.1.21-.48-1.1-1.2-1.39A1.67,1.67,0,0,1,190.93,50a7.31,7.31,0,0,0-3.29,0h0c-1.52.61-3.14-.33-4.66.33h0c-.27-.42-.62-.74-1.17-.58-1.62.5-3.32-.06-4.95.44a1.21,1.21,0,0,1-1.47-.73c.23-.73,1.2.16,1.34-.87a49.49,49.49,0,0,0-6.21-.15c-.05,0-.11.27-.16.42h0c-1,.19-1.49-.24-1.48-1.2l.77.07c2.45,0,4.92.13,7.22-.87l.86.22C180.62,47.85,183.58,47.63,186.51,47.68Zm-8,9.4h0l-.1,0,.1-.06v0Zm0,.56h0l0,0Zm-5.26-.06h0Zm-9.38-10.16.09,0s0,0,0,.05C164.08,47.75,163.74,47.44,163.91,47.42Zm9.82-19.64h0l0,.06-.05-.06Zm-9,19.5-.16.06h-.32A4,4,0,0,1,164.72,47.28ZM102.2,70.59l0,0h.06Zm.71,6.21h0l0,0S102.9,76.79,102.91,76.8Zm.25-2.36,0,0,.09,0h0Zm5.85-1,0,0s0,0,0,0S109,73.45,109,73.44Zm10.58,4-.08-.06h.14ZM133.81,69c1,0,2-.11,3-.17A15.18,15.18,0,0,1,133.81,69Zm-14.87.54a9.35,9.35,0,0,1,2.93-.26c2.4-.17,4.79-.12,7.18-.26a1.06,1.06,0,0,0,.41-.31,15.24,15.24,0,0,0,2.41.29,10.87,10.87,0,0,0-2.2.22l-.09,0-.07,0c-3.13-.13-6.25-.24-9.25.9a7,7,0,0,1-1.58.32l-.62,0h-.73a2.2,2.2,0,0,0-.89-.07,4.43,4.43,0,0,1-.51-.06,2.15,2.15,0,0,0-.62,0l-.08,0a2.66,2.66,0,0,0-.38-.1,3.21,3.21,0,0,0,2.48-.88h0A3.08,3.08,0,0,0,118.94,69.54ZM91.05,80.28a1.66,1.66,0,0,0-.15-.61h.29c.11,0,.22,0,.33.06a2.51,2.51,0,0,0,.67,0,1.9,1.9,0,0,0,1.51-.63h0c.37,0,.75.06,1.12.06a8.23,8.23,0,0,0,1.58.19c2,0,4.11.14,6-.75a1.18,1.18,0,0,0,.42-.41,4.29,4.29,0,0,0,1.45-.13c.62-.24.64-.61-.08-.86a.72.72,0,0,1-.3-.2,1.14,1.14,0,0,0,.31-.16s0,0,0,0a.6.6,0,0,0,.44,0l.15-.13a45.8,45.8,0,0,1,6.93,0c1.7.08,3.27.4,4.84-.41.21.63.43,1.76.64,1.76,1.58,0,3.23.64,4.76-.28h0c1.53.42,3.1-.31,4.63.17.11,0,.3-.1.43-.18a6,6,0,0,1,3.27-.55c1.27,0,2.54,0,3.81,0,.16,0,.33.08.53.11a23,23,0,0,0,3.42.11l.12,0,.13,0h.51a40.43,40.43,0,0,0,5.72,0c2.31-.29,4.77.28,6.95-1,0-.08.05-.16.07-.23l0,.08h0c.18.34.37.31.58,0h0c.44.43.86,1.13,1.38.07h0c.93-.39,2.06.29,2.89-.56h0a7.84,7.84,0,0,0,5.34,0,16,16,0,0,1,3.93.19c1.83.52,3.7.34,5.52.66h0l.94.57c.91.8,2,.36,3,.4h0c.73.12,1.6.1,1.59-.79,0-1.54.92-1.07,1.7-1h0c.69,1.65,2.4,1.62,3.73,2.17.49.21.6-.35.75-.7h0c.52.11,1.24,1,1.31.65.4-1.81,1.51-.87,2.41-.8,3,.26,6.06,0,9.09,0l6.25.11,0,.93a2.26,2.26,0,0,1-.1.45h-.79c-.54-.62-1.08-.53-1.63,0h0a1.5,1.5,0,0,0,0-.3c-1-1.45-2-.7-2.56.23a1.84,1.84,0,0,1-2.18.91c-2.13-.33-4.28.09-6.41-.21a2.12,2.12,0,0,0-2,.61c-.74-1-2-.8-3.13-.62-2.28.38-4.57.55-6.87.73-.24,0-.47,0-.71.08a2.47,2.47,0,0,0-1,.36,1.46,1.46,0,0,0-.16.21,32.62,32.62,0,0,1-6.26-.12,6,6,0,0,0-4.06.54,2,2,0,0,0-2.51,0h0c-1.16-.87-2.28.12-3.43.09-2.54-.06-5.08,0-7.62,0h0a14.64,14.64,0,0,0-3.29.24,8.86,8.86,0,0,1-4.25,0,5.43,5.43,0,0,0-3,.16h0l-3.82,0h0a2.81,2.81,0,0,1,0-.41h0c.32-.12.79.13,1-.49h-3.42c-.69-.11-1.39-.27-2.08-.32a21,21,0,0,0-8.48.82h-.92l-.5-.06a3,3,0,0,0-1.33-.44A18.08,18.08,0,0,0,113.32,82h0c-.57-1.07-1.55-1-2.49-.79a7.29,7.29,0,0,1-2.07.39c-2.49-.27-4.66,1-7,1.43h0c-.4,0-1.11,0-1.15-.09-.49-1.46-1.65-.91-2.55-.84a18.41,18.41,0,0,1-5.88,0c-.83,0-1.73-.31-2.45.41h0l-.93,0h0c-1.44.11-3-.38-4.32.47l-1,0h0l-1.47,0h0l-1.45,0c1.19-.71,3,0,3.83-1.49l0,0a1.18,1.18,0,0,0,1.15-.8,3.65,3.65,0,0,1,.46.07C87.72,80.72,89.47,81.24,91.05,80.28Zm-56.5,30.55Zm6.23,4.64.11,0,.17,0Zm6.12-.75.18-.09s0,0,0,.06C47.28,114.94,46.76,114.75,46.9,114.72ZM82.39,112s0-.09,0-.14h.12A1,1,0,0,1,82.39,112Zm9.13-1.87.12,0-.28.14C91.35,110.19,91.39,110.11,91.52,110.11Zm-.06.23c0,.15-.06.09-.09,0Zm4.74-3.7a1.68,1.68,0,0,0-.45.3c-1.32-.92-2.75,0-4.1,0-2.84,0-5.74-.37-8.48.76a5.24,5.24,0,0,1-1,.36c-1.14.12-2.4-.56-3.42.46l-.06-.2c-2.88-1.05-5.81-.29-8.4-.28,2-.74,4.55.41,6.68-1.18,0,0,0-.1,0-.14a1.5,1.5,0,0,0,.4.25,4,4,0,0,0,.91.13c.2,0,.41,0,.62,0s.41,0,.62,0a5.88,5.88,0,0,0,.93-.18,8.11,8.11,0,0,1,2.25-.17c.77,0,1.53,0,2.3,0a4.21,4.21,0,0,0,.93-.16,1.21,1.21,0,0,1,1.08-.08,3.8,3.8,0,0,0,.58.15l.9,0h.13a3.87,3.87,0,0,0,1.57-.26,2,2,0,0,0,.27-.23,6.68,6.68,0,0,0,3-.2,3.46,3.46,0,0,0,.43.19,8.06,8.06,0,0,0,2,.14,11.07,11.07,0,0,0,1.91-.11,12.62,12.62,0,0,1,1.63-.07h.11A10,10,0,0,0,96.2,106.64Zm20.28-3.9,2.58,0c.48,0,1,.08,1.5.11A32.7,32.7,0,0,1,116.48,102.74Zm4.69.39a3.58,3.58,0,0,0-.43-.29,2.72,2.72,0,0,0,2.19-.71.65.65,0,0,0,0-.35h.58c1.73.3,3.52,0,5.27.22a4.46,4.46,0,0,1,.72.18l.22,0c-.06.25-.36.39-.6.55l0,.06c-.14-.3-.3-.58-.69-.61A15.11,15.11,0,0,0,121.17,103.13ZM142,107.75v0h0Zm30.78-.64h0l.08,0-.08,0ZM328.31,107h0V107l.13.07Zm28.58,1,.22,0h0a2,2,0,0,1-.32.17A1.12,1.12,0,0,0,356.89,108Zm2.59-57.85a2,2,0,0,0-.6-.26h-.17a.84.84,0,0,0-.22-1,.54.54,0,0,1-.43,0h0c-.15-.08-.13-.32-.06-.59a18,18,0,0,0-2.08-.77,12.06,12.06,0,0,0,4.27.44,1.59,1.59,0,0,0-.13,2.08C360.15,50.29,360.11,50.32,359.48,50.19Zm18.24,30h0l0,0ZM383.36,88c-1,1-2.39,1.09-3.67,1.42-.23.11-.44.24-.67.35h-.1c1.08-1.38-.87-1.15-1-1.63.33-1.21,2.31-.11,2.17-1.75h0c.88.49,1.44-.34,2.16-.51a1.71,1.71,0,0,1,2.05.75C384.7,87.39,383.75,87.6,383.36,88Z"/><path fill="#fff" d="M226.36,15.12a.85.85,0,0,0,1.24.05A.85.85,0,0,0,226.36,15.12Z"/><path fill="#fff" d="M133.59,27.6c-.12-.08-.25-.21-.37-.22s-.27.13-.4.2l.37.23Z"/><polygon points="368.37 109.71 368.53 109.63 368.37 109.54 368.37 109.71"/><path fill="#fff" d="M326.85,11.56l.41.42C327.27,11.71,327.09,11.61,326.85,11.56Z"/><path fill="#fff" d="M358.07,48.92a.09.09,0,0,1,0,0h0Z"/></g></g></svg>