<svg xmlns="http://www.w3.org/2000/svg" viewBox="0 0 332.73 371.83"><g id="Capa_2" data-name="Capa 2"><g id="Capa_3" data-name="Capa 3"><path d="M191,276.35h-.05v0Z"/><path d="M285.93,250.91c-2.19-.66-1.79-4-4.22-4.25-3.32-.26-6.46-1.7-9.84-1.41,2.87-1.53,4.52-4.16,6.3-6.58-2-2.95-4-.5-5.92-.4-.71-4.34-2-8.19-6.24-10.64-2.25-1.3-4.18-2.93-7-2.69-.26,0-.55-.29-.82-.44-1.6-2.36-2.52-4.66-.38-7.3a2.33,2.33,0,0,0-.15-3.07,2.1,2.1,0,0,0-1.85.22c-1.83,1.4-3,.19-4-1.11s.28-2.35,1-3.26a21,21,0,0,1,6.74-5.29,10.56,10.56,0,0,0,5.49-5.55c1.29-3,2.47-3.23,5.69-2.23,3.91,1.21,7.82,2.45,11.93,3.74.24-2.22,1.31-4.44-.09-6.09-1.1-1.3-3,.32-4.53.21-.15,0-.32,0-.47,0-2.53,0-3.74-1.78-2.82-4.13a5.17,5.17,0,0,1,3.13-2.74c1.33-.57,3.15-.36,4-1.88-.95-1.25-2.22-.86-3.2-1.3-1.16-.54-2.53-.93-1.84-2.7.6-1.58,1.78-1.08,2.77-.6,2.38,1.14,3.18,0,3.45-2.17a10,10,0,0,1,.52-1.83c.75-2.16-.87-2.8-2.23-2.57-1.84.3-3.87.18-5.5,1.33a2.5,2.5,0,0,1-2.68,0l-.22-.3c-2.76-3.17-2.09-7-1.63-10.59-2.07-.65-4.85,2-5.67-2.15,1.8,0,3.36.05,4.91,0,.66,0,1.3-.43,1.12-1.22-.08-.36-.55-.71-.92-.94-1.86-1.16-3.73.45-5.59.07-1.11-1.66,0-3.41-.33-5.19-1.34-.39-2.69-.77-4-1.19-1.08-.34-2.57-.61-.8-2,.43-.34.72-.79.53-1.19-1.95-4.1.95-8.59-1.12-12.72-.64-1.28.66-1.52,1.64-1.55s1.35.65,2,1.15c2.58,2.07,4.15,1.77,5.12-1.26.5-1.56,1.75-2.78,2.09-3.93.5-1.7,3.88-4.11-.08-6-1-.5-.13-1.42.45-1.88,1.24-1,2.89-1.44,3.87-2.77.58-.78,1.17-1.92-.12-2.35-2.52-.86-4.66-2-5.89-4.52-.32-.65-1.15-.46-1.74-.28-1.58.49-3.42-.47-4.83,1.35-1,1.32-2.76.75-3.87-.26-1.46-1.34-2.87-1-4.4-.36a15.64,15.64,0,0,1-3.54,1.43c-3,.44-4.86,1.88-4.63,5.18l-5.45-1.12c-.66-1.32,1.48-2.8-.16-4s-3-.52-4.49.31a16.52,16.52,0,0,1-2.13,1.1c-.55.23-1.19.54-1.77.06a1.36,1.36,0,0,1-.22-1.76c.79-1.48,2-2.54.25-4.54-.91-1.07.79-3.28,1.7-4.72s2.27,0,3.43.12a6.91,6.91,0,0,0,1.13-.11c1.16-4.27.43-7.68-4.18-9.12-.08-1.44,1.25-1.81,1.37-2.66.44-2.92,2.24-4.36,4.84-5.28,1.12-.4,2.29-1.08,2.19-2.56-1.21-1.21-2.47-.83-3.73-.61-3.8.67-3.78.6-8.54-1.26-1.62-.63-3.4-.88-5.08-1.37-.67-.2-1.89-.31-1.31-1.42,1.39-2.65-1.83-2.67-2.4-4.32-.67-1.91.88-3.87-.59-5.53-.21-.24-.38-.51-.61-.74-2.47-2.45-3.78-6.15-7.78-6.67.22-.73.22-1.18.41-1.3,4.13-2.49,6.3-7,10-9.86,1.1-.87,1.76-1.87.4-3.15-.3-.28-.61-1-.46-1.24,1.83-2.53.24-4.42-.67-6.8-2.55-6.73-4.27-8.74-10.82-10.64a3.87,3.87,0,0,1-1.5-1.1c-.62-.63-1.34-1-2.12-.58-2.75,1.54-6.45-.14-8.83,2.78-.75.91-2,.84-3,0-.65-.51-1.22-1.55-2.37-.66-.1,1.6,1.81,2.22,1.83,3.91-4.65,2.6-4.13,7.68-4.75,11.92-.26,1.79.47,5.56,1.84,6.34,3.08,1.76,2.92,4.24,3,6.9a3.64,3.64,0,0,0,1.09-.16c1-.6,2.15-1.09,2.86.26s-.43,2.05-1.33,2.67a9.62,9.62,0,0,1-5,1.62c-1.49.09-3,.12-2.7,2.29.12,1-.59,1.44-1.29,1.82A3.16,3.16,0,0,0,187,75.08a6.17,6.17,0,0,1-.92,3.66c-.41.84-1.12,1.62-.37,2.62,1.56,2.09.35,3-1.47,4a20.8,20.8,0,0,0-9.6,10.43,1.77,1.77,0,0,1-1.73-.65c-1.89-2.14-3.56-4.52-7.09-3.31-.9.31-1.69-.76-2.32-1.48s-1.4-1.49-2.42-1.29a10.41,10.41,0,0,1-7.8-1.5c-.74-.46-1.49,0-2.28.16a6.92,6.92,0,0,1-7.52-2.87c-1-1.45-1.72-3.09-2.77-4.48-2-2.62-4-3.11-7.19-2-4,1.38-4.9,2.53-5.06,6a23.26,23.26,0,0,0,.81,6c-3.43,1.39-3.43,1.39-4.89,5-1,2.57-4.68,4.64-7.33,4-.88-.2-1.78-1.08-2.59-.19s-.37,2.09.19,3.1a5.29,5.29,0,0,1,.64,1.28c.39,1.81-.72,3-1.83,4.16s-2,.25-3-.26c-3-1.51-3-1.45-4,2.22-.24.85-1.45,1.38-.83,2.56a1.6,1.6,0,0,0,1.72.27c1.07-.32,2.25-.83,2.8.71a2.89,2.89,0,0,1-.91,3.46c-1.08.84-1.65-.19-2.31-.86s-1.66-1.09-2.32.07a8.77,8.77,0,0,0-.75,2.27,19.1,19.1,0,0,0-.41,2.36,1.66,1.66,0,0,0,.91,2c.5.22,1.58-.16,1.33,1A37.21,37.21,0,0,0,90.1,128.9c-1.64,1.06-3,1.23-4.3,0-2.3-2.22-4.35-1.18-6.49.08a12.81,12.81,0,0,1-5.74,2.24c-3,.18-3.9,1.07-4.84,4.55,2.49.57,3.39-3,5.93-2.28a42,42,0,0,1,6.41,1.92c2.69,1.23,3.5-1.25,5-2.38,1.92,1.64,1.6,5,4.66,5.21.58-.58.35-1.15,0-1.68s-1-1.34-.2-2a1.88,1.88,0,0,1,2.62.06c.56.53.82,1.37,1.34,1.95,2.43,2.73,3.45,6.63,7.94,8.21-2.82,1.28-5.21,1.19-7,2.63a.86.86,0,0,1-1.25-.11c-.5-.61-1-1.49-1.78-.45a2,2,0,0,0,.21,2.66c.78.77,1.9,1.19,2.69,2,3,3,3.17,5.59.46,9-.53.67-1,1.36-.81,2.13.62,2,.91,4.14,3.77,4.76,3.24.69,3.54,2.79,1,5.07a9.63,9.63,0,0,1-5.21,2.23c-2.69.42-5.39.73-8,1.27-1,.2-2.89.36-2.73,1.46.51,3.44-2.53,4.82-3.94,7.08a5.81,5.81,0,0,0,1,.67c1.69.63,5-1.23,4.93.93-.09,2.75-3.35.75-5.16,1.17-1,.23-2.6-.4-2.63,1.21,0,1.3-.75,2.88.67,4l9,7.1a4.31,4.31,0,0,0,.85.45c.86.38,1.86,1,2.53,0a2.09,2.09,0,0,0-.54-2.62c-.87-.81-1.86-1.5-2.89-2.3,1.42-1.46.91-4.66,4.06-4a21.44,21.44,0,0,1,7.63,2.7c3.26,2.14,3.21,3.2-.18,5.57-1.16-1-.17-3.29-2.21-3.79-.23.31-.53.52-.55.77-.73,6.4-3.74,9.35-10,9.61a27.88,27.88,0,0,1-4.26-.33c-3.24-.37-3.53-.86-2.79-4.3.12-.53.55-1.22-.76-1.55-3.3,3.47-7.47,6.15-11.23,9.34a19.75,19.75,0,0,0-5.51,7.16c-.46,1.06-.34,1.94.87,2.22,4.48,1,9,3.24,13.42-.16a8.92,8.92,0,0,1,2.66-1.06c2.94-.95,5.94-1.67,8.85-.1,1.53.82,2,.09,3-.92,2.29-2.32,3.88-2.1,6,.39A19.93,19.93,0,0,1,99.67,223c1.25,3.49,1.22,3.5-2.49,5.92-1.12-1.14-.87-2.64-1.09-4-.4-2.62-1.23-3-3.45-1.51a57.05,57.05,0,0,0-4.41,3.69c-5.06-2.53-8.82-2-11.8,2,3.26-.79,6.21-2.25,9.44-1.42-.25.56-.88,1.37-.7,1.64,2,3.11.15,4.46-2.34,5.64-.16.07-.13.55-.19.84,4.91,1,5.64.71,8.06-3.23a1.9,1.9,0,0,1,.91,2c-.2,2.81,1.12,3.56,3.72,3.28,2.26-.24,4.28.67,6.39,1.56,2.33,1,5.64,2.06,7.48,1.1a7.05,7.05,0,0,1,5.23-.71c2.36.47,4.41.63,6.64-1a9.84,9.84,0,0,1,6.85-1.71c1.67.21.26,2.73,1.65,3.58l1.2.77c.61.41.62.63.12,1.36-3.53,5.16-6,11.17-12,14.28-.8.41-1.31,1.37-2,2-1.18,1.12-1.67,2.34-.63,3.79s2.27.4,3.34-.07c.88-.39,1.74-1.11,2.39.15s-.25,2.29-1.33,2.56c-4.14,1-3.94,4.57-5,7.56,2.24.41,4.1.82,6,1.08,1,.14,2.45.61,3-.73,1.1-2.87,3.5-2.41,5.14-1.51,2.33,1.26,3.72.75,5.33-.92a8.34,8.34,0,0,1,5.47-2.71c1.22-.08,2.76-.25,3.28,1.23s-.53,2.45-1.55,3.25a9.64,9.64,0,0,1-4.88,1.78,45,45,0,0,0-6.14,1.07c-3.51,1-3.8,2.13-1.32,4.91.57.63.24,2,1.92,2,.69-3.5,3.14-4.41,6.52-4.27,2.71.11,5.3-.2,6.48-3.58.61-1.73,2-1.23,2.33.54.17.9.32,1.66,1.33,1.46,1.35-.26.34-1.07.35-1.72,0-1.4,1.36-2.49,1.16-4-.22-1.7-.09-4.09-2.43-3.95-3.89.24-2.63-2-2.57-3.95,4.14.46,6.37,1.49,8.19,3.68,2.6,3.13,2.57,5.6-.07,8.77-.72.85-1.37,1.77-2.06,2.65-2.93,3.74-2.9,4.05,1.84,5.5,2.09.64,3.85,1.45,4.61,3.65,2-.88,3.47-2.06,5.41-2.46,2.7-.56,2.84-1.24,1.14-3.4-.57-.72-1.23-1.37-1.86-2,1.06,0,2.26.31,3.08-.53,1.91-1.93,3.91-1.65,6.14-.7a25.13,25.13,0,0,0,2.82.46c1.73.48,2.26-.31,2.47-1.88.25-1.82-.68-3.71.14-5.63a2.37,2.37,0,0,1,.88,2.26c.07,7.2.18,14.4.2,21.59.07,22.39.66,44.78.19,67.17a25.91,25.91,0,0,0,.66,7.14c.32,1.18.75,2.68,2.34,2.6,1.29-.06,1.74-1.33,2-2.41a19.92,19.92,0,0,0,.74-7.12c-.16-1.59-.43-3.18-.47-4.78-.69-26.53-1.32-53.07-2.06-79.61-.08-2.8.61-4.38,3.53-5.11,1.84-.46,3.17-1.06,3.12,1.56,0,2.24,1.52,1.94,2.89,2,.33-3.53.27-7.31,5.14-7.9a2.39,2.39,0,0,0,2.72-1c1.69-2.22,3.63-2.37,6-.87.77.5,1.34,1.3,2.38,1.25,1.43,4,1.75,4.26,5.23,4.36,2.52,1,5.23.21,7.73,1.1a23.88,23.88,0,0,0,.71-8.62c.29-.14.6-.25.87-.41,1.36-.84,4.26-.94,3.47-3-1-2.68-2.71.8-4.23.4.39-1.31,1.13-2.42,2.56-2.46s1.93-.92,2.72-1.66c.45.83,1.64,1.73,1.17,2.49-1.13,1.8-.34,2.15,1,3.46,2.65,2.59,5.14,5.76,4.29,10-.58,2.86-2.1,5.57,0,8.53.77,1.09-1.39,2.13-.84,3.49,1.78,4.48.88,9.13,1,13.72,0,2.07-.15,4.27.49,6.17s1.05,3.45.25,5.39.18,3,2.32,2.92a56.06,56.06,0,0,0,10.37-1.84c3.36-.77,3.47-.95,3.55-4.49.08-3.33-.42-4.1-3.27-5a13.29,13.29,0,0,0-5.22-.14c-1.67.14-3.21,1.39-5.24.57-.3-8.14-.67-16.28-.87-24.43-.1-4.08-1.25-8.45,2.51-11.77a2.39,2.39,0,0,0,.49-1.32c.11-.69-.1-1.37-.9-1.34-2.28.09-2.57-1.23-2.49-3.07s1.38-2.32,2.81-2.73c2.3-.66,4.6-1.33,6.89-2,3.69-1.14,3.66-1.15,3.63-5.34,0-.57.52-1.14.8-1.7a3.61,3.61,0,0,1,2.47,1.22c1.27,1.25,4.67,2.4,6.9,2.55l3.06,1.64c1.05,1.11,2.3,1.88,2.2,3.92-.24,4.74,3.27,10.11,7.7,10.79,2.57.4,1.92,2.22,2.93,3.78.55-2.12,1.38-3.11,3.29-3.41,5.29-.85,8.24-4.45,9.78-9.43C288.26,256.59,285.76,254,285.93,250.91ZM100.84,160.26a11.52,11.52,0,0,1,.66-2.29c1.58-4.1,1.41-4.66-2.26-6.77-.95-.55-1.93-1-3.84-2.07a21.77,21.77,0,0,0,5.62-1.87c2.64-1.44,4.86-.27,5.09,2.73.12,1.6,2.11,3.44-.13,5.08-.56.41-.37,1.21.21,1.64a3.69,3.69,0,0,0,4,.21,1.2,1.2,0,0,0,.47-2c-2-2.26,1.55-3.55.92-5.54.8,0,2.12.1,1.92.84-.6,2.33.47,4.39.57,6.58.08,1.78-.7,2.84-2.52,2.63-2.71-.32-4.52.79-6,3-.66,1-1.59,2.2-3.15,1.45A3.08,3.08,0,0,1,100.84,160.26Zm7.62,17.06a2,2,0,0,1-1.55,2.08,1.27,1.27,0,0,1-1.32-.91c-.12-1.53.13-2.21,1.12-2.26C107.52,176.19,108.42,176.43,108.46,177.32Zm-21.61,4.74c.29-.17.52-.42.76-.43a.89.89,0,0,1,.92.87c.07.51-.18,1-.77.59A4.8,4.8,0,0,1,86.85,182.06Zm9.92,7.65c-2.2-.87-4.66-1.06-7-1.65-1.7-.44-2.48-3.52-1-3.89,2.3-.58,2.55-3.17,4.6-3.67h0c2.72,2.12,3.34,1.9,4.67-1.67,3.66,1.49,7.07,3.7,11.3,3.43,1.21-.08,1.69,1.92.76,2.9s-2.62.81-3.16,2C104.6,192.57,100.87,191.33,96.77,189.71Zm11.89,40.35c-1.26-.87-.49-2.33,0-2.9a6.07,6.07,0,0,1,4.74-1.53c.42,0,.86.39.8.63C114.08,228.17,109.84,230.88,108.66,230.06ZM131.5,137a1.3,1.3,0,0,0,.79-1.09,1.55,1.55,0,0,0-.28-1.05,1.55,1.55,0,0,1,.28,1.05A1.3,1.3,0,0,1,131.5,137Zm2.84,104.26a2.47,2.47,0,0,1-1.72.56c-1.25-.27-.45-1.22-.42-1.89.05-1.1.13-2.2.23-3.76C135.8,239.35,136,240,134.34,241.21Zm15-15.33c.84-1,1.51.54,2.3.85,0,.47-.07,1-.1,1.42a3.91,3.91,0,0,1-.87-.32C150,227.33,148.67,226.78,149.39,225.88Zm11.15,51.67c.69-.64,1.06.11,1.34.54a2.56,2.56,0,0,1,.19,1.14,4,4,0,0,1-1-.62C160.76,278.34,160.44,277.64,160.54,277.55Zm1.39-47.82,0-2.09a3.07,3.07,0,0,0-2.61,3.56c.3,1,0,2.25,1.5,2.45.18-1.35-.33-2.91,1.16-3.88.59.71,1.16,1.43,1.78,2.1,1,1.13,1.1,2.3-.18,3.15-1.51,1-2.21-.17-2.76-1.37-1.5-.2-1.2-1.5-1.5-2.44a6.12,6.12,0,0,0-.64,4.14c.67,2.28.63,4.46-.8,6.28s1.51,3.93-.63,6.08c-.86-1.79-1.11-4.37-4-3.73-.6.13-.55-1-.46-1.56a11.8,11.8,0,0,0-1.46-6.87,5.68,5.68,0,0,1,.48-6.23h0c2.22-1.36,2.81-4,4.54-5.77,0,1.63.84,2.35,2.44,1.9,1.19-.35,2.69-.7,2.58-2.29-.09-1.33-1.38-1.56-2.54-1.63a13.29,13.29,0,0,0-1.41.05,8,8,0,0,1-.38-.84,6.9,6.9,0,0,1,3.29-1.7c1.53-.46,2.22.68,3.09,1.57s.18,1.78-.36,2.4a4.67,4.67,0,0,0-.86,4.39c.62,0,1.25,0,1.87,0,2.83.14,2.83.14,1.88,3.67-1.62.42-2.13-2.57-4-1.34Zm4.52,16.16c-.5,0-.92.24-.9.86l.18.1-.18-.1C165.53,246.13,166,245.91,166.45,245.89Zm-.61,1-.08,0Zm.49-22.15c-.75,0-1.26-.36-1.26-1.07a2.16,2.16,0,0,1,1.91-2.32c.58-.11.83.32.9.83A2.14,2.14,0,0,1,166.33,224.76Zm3.6,20.49-.48-.19c.15.06.34.12.48.19.77-.23,1.37-.66,1.4-1.51C171.3,244.59,170.7,245,169.93,245.25Zm2.58-17.72c-.47.4-1.66.3-1.55-.19.43-1.83-1.46-3-1.08-4.74.15-.69.48-1.1,1.21-1.12a2,2,0,0,1,1,1.46c.26.92-.5,2,.94,2.75S173,227.09,172.51,227.53Zm75.14,1.24v.13a.78.78,0,0,0-.42.57c-.56-.21-1.42-.31-1.27-1.05.32-1.7-1.06-2-2-2.72a3.65,3.65,0,0,0-2.56-1.08A3.69,3.69,0,0,1,244,225.7C247,225.26,247,225.26,247.65,228.77Zm-23.09-52.22a10.6,10.6,0,0,0,.16,2.39,10.6,10.6,0,0,1-.16-2.39Zm-36.35-38.9a3.89,3.89,0,0,1-.23-1.52,4.24,4.24,0,0,1,.09-.85h0a4.24,4.24,0,0,0-.09.85A3.89,3.89,0,0,0,188.21,137.65Z"/><path d="M5.64,90.66c3,.87,3.53,1.71,2.44,4.69-.55,1.48.12,2.05.93,2.79a20.56,20.56,0,0,0,8.6,5c3,.8,5.58,1.76,7.71,4.29,1.81,2.16,3.31,1.53,4.92-1.66.53.17.84.26,1.14.37,3.84,1.51,7.64,3.69,11.77.76a1.16,1.16,0,0,1,1.67.37c1.21,1.55,2.45,1.37,3.57,0s2.79-2.6,1.9-5c-2.11-5.66-6.58-8.56-12-10.08-2.2-.62-4.45,1.07-6.72,1.53-.51,3.55-3.3,2.57-5.53,2.88s-4.23.31-4.81,3.44c-.44,2.34-2.71,1.89-5.55,1,4-1.58,3.69-4.21,3.57-7-.1-2.2.58-4.42.68-6.64a2.71,2.71,0,0,0-2.5-3c-1.48-.19-2.83-.06-3.52,1.69-.38,1-.37,2.26-1.59,2.83-1.57,0-1.44-2.4-2.7-2.22-2.79.38-4.91-.89-7.14-2.12a1.48,1.48,0,0,0-2.32.81,3.92,3.92,0,0,0,2.63,4.81C3.74,90.45,4.74,90.4,5.64,90.66Z"/><path d="M65.1,202.8c1.57-1.49,1.7-6.24,0-7.44-2.34-1.59-3.22.83-4.44,2.12-.32.34-.63.69-1.36,1.5-1.79-1.7-4-2.48-4.85-4.76A1.84,1.84,0,0,0,51.78,193c-5.49,1.58-11.18,2.47-16.5,4.67-2.23.91-4.41,1.94-5.88,3.94-2.37,3.21-1.08,6.59,2.71,7.75,2.36.72,4.72-.06,7,.15.62,2.86-3.21,2.83-3.27,5.2,2.07.65,3.73-.23,5.17-1.08,3.35-2,7.31-2.07,10.73-3.72,3.83-1.85,7.06-4.85,11.37-5.81A4.8,4.8,0,0,0,65.1,202.8Z"/><path d="M48.82,145.8c-.38,2.94-3,3.38-5,3.36-4.39,0-6.25,2.7-8.29,5.86,6.33,1.76,6.33,1.76,8.94-4.41.27.17.62.28.78.52,2.78,4.26,7.6,3.87,11.7,5.1a1.65,1.65,0,0,0,1.29-.49c4.09-3.85,8.68-3,13.39-1.6.74.22,1.59,1.24,2.53,0a7.69,7.69,0,0,0-4.28-3.57c-2.07-.82-4.21-1.48-6.26-2.35-1.67-.7-3.57-1.27-4.15-3.63a40.58,40.58,0,0,0,5-2.11c.77-.44,1.34-1.86,0-2.16-1.77-.39-3.9-1.13-5.46.38-2.21,2.13-4.88,2.88-7.76,3.3C50.1,144.14,49,144.28,48.82,145.8Z"/><path d="M198,282.38c2.09-.06,4.23-1.36,6.15-2.46.49-.28.21-1.92,1.64-1.59,1.11.25.84,1.09.72,1.87s.06,1.2.9,1.32c2.09.3,5.65-1.77,6.1-3.83.56-2.62-2.24-2.11-3.3-3.25-.1-.11-.28-.14-.42-.22-2.12-1.15-3.64-1.21-5.89.64s-4.8,3.83-8.13,3.53C195.47,280.36,196.19,282.43,198,282.38Z"/><path d="M195.79,278.39v-.07l-.07.07Z"/><path d="M104.39,308.1c4.25-.5,7.58-3,11.52-2.19.86-3.26,1.76-6.26-.29-9.58C111.43,299.84,105.82,301.5,104.39,308.1Z"/><path d="M324.17,158.2a5.15,5.15,0,0,0-3.21.6c-2.21,1.22-4.31,2.64-7,2.64a1.16,1.16,0,0,0-.78,2.05,6.33,6.33,0,0,1,2,6.19c2.16-1.07,2.44-2.39,3-3.48.75-1.35,1.35-2.54,3-.62.67.78,2.07.53,2.88-.57s2-5.67,1.36-6.29A2.23,2.23,0,0,0,324.17,158.2Z"/><path d="M2.52,243c3.86,4.27,8.77,5.85,14.82,6.33C13.54,243.42,8,243.25,2.52,243Z"/><path d="M60.68,111c1.37-.23,1.75-1.18,1.71-2.43,0-1,1-1.93.82-2.64-.44-2.18,0-3.51,2.3-4,.25,0,.49-.78.5-1.19,0-.85-.75-.92-1.36-1-1.25-.14-2.38.19-2.23,1.68.2,2-.77,2.08-2.25,1.73-.59-.14-1.22-.35-1.81.21.15,1.11,1.68,2.19,0,3.47a2.24,2.24,0,0,0-.32,3.39A2.61,2.61,0,0,0,60.68,111Z"/><path d="M76.68,271.34a3.1,3.1,0,0,0-3.39,3.13c0,2.28,1.67,4.28,3.6,4.2a3.9,3.9,0,0,0,3.48-3.83A3.54,3.54,0,0,0,76.68,271.34Z"/><path d="M150.23,303.65c-2.56,3.38-3,6.08-1.35,8.32.92,1.26,2.16,2.1,3.6.87,1.17-1,2.6-2.25,1-3.93C152.06,307.39,151.28,305.49,150.23,303.65Z"/><path d="M250,258.35c-1.18,2-2.48,3.56-5.08,3.46a1.41,1.41,0,0,0-1.61,1.38c.09,1.33,1.14,1.76,2.26,1.8a3.82,3.82,0,0,0,3.09-1.13,47.06,47.06,0,0,1,3.69-2.94c1.39-.93,2.25-2.12,1-3.47C252,255.89,250.69,257.15,250,258.35Z"/><path d="M16.81,237.73c5.91.55,10.17-1.47,14.3-6.49-3.73.17-5.86,1.65-7.9,3S18.22,234.65,16.81,237.73Z"/><path d="M18.59,109.81c1.09,2.81,3.27,2.91,5.19,3.25,2.18.38,4.41.46,5.91,2.45.56.74,1.36,1,1.84,0,.4-.82.73-2.16-.45-2.43C27,112.16,23.24,110.14,18.59,109.81Z"/><path d="M169.14,284.89c-.41-.62-1.55-.29-1.92.57a2.29,2.29,0,0,0,.44,2.64c.87.82,2.65,2.3,2.74,2.07,1-2.36,4-.94,5.58-3.57C172.91,287.61,170.71,287.26,169.14,284.89Z"/><path d="M281.38,227.88c-1.85,0-3.3,1.92-3.22,4.47,0,1-.36,2.4,1.25,2.63,1.77.24,3.06-1.89,3.12-5.09C282.43,229.11,282.86,227.9,281.38,227.88Z"/><path d="M215.67,298.74c-.94.1-.9-.68-1.06-1.25-.24-.83-.65-1.43-1.57-1.47s-2,.25-2.09,1.51,0,2.59,1.71,2.91c.87.16,1.63-1.12,2.58-.12.77.81,2,1,2.36-.07C218.24,298.5,216.84,298.61,215.67,298.74Z"/><path d="M241.82,289.85c-1.23,1.09-2.65.44-4.27.78.74,3.62,3.37,2.82,5.39,3,1.86.14,2.44-.89,1.67-2.65C244.06,289.73,243.26,288.58,241.82,289.85Z"/><path d="M44.4,170a1.35,1.35,0,0,0-.49.74c-.19.61.3.85.71,1a11.12,11.12,0,0,0,7.48.26C49.84,169.77,46.28,168.93,44.4,170Z"/><path d="M62.63,188.85A2,2,0,0,0,65,187.13c.31-1.5-1-2.86-2.92-2.93-1.48-.06-2.94.18-3.38,1.86C58.45,187.16,60.76,188.74,62.63,188.85Z"/><path d="M69.37,241.75c.79-1,2.07-1.87,1.4-3.74a12.56,12.56,0,0,0-5.78,4.1c-1.45,1.85.65,1.73,1.19,2.47C66.64,243,68.49,242.91,69.37,241.75Z"/><path d="M66.18,244.58s0,.09-.05.14l.09-.09Z"/><path d="M151.41,293.29a2.61,2.61,0,0,0-2.3-2.4c-2.22-.18-2.81.73-2.73,2,.1,1.58.91,2.88,2.62,2.86A2.32,2.32,0,0,0,151.41,293.29Z"/><path d="M69.49,99c2.56-1.06,6.14.23,7.85-3.59-1.81.09-3.37.28-4.5,1.46S71,98.44,70,96.87a.83.83,0,0,0-1.5.1,1.7,1.7,0,0,0-.13.93C68.38,98.61,68.83,99.31,69.49,99Z"/><path d="M124,247.63c.48-.17.75-.54.87-2,0,.15-.6-.22-1.15-.51-1.1-.59-2.43-.8-3.05-2.12a.77.77,0,0,0-1.21-.21c-.7.5-.41,1.08,0,1.62.77,1,1.5,2.06,2.34,3C122.46,248.16,123.29,247.9,124,247.63Z"/><path d="M69.31,104.8c1.92,2.88,4.7,2.68,7.36,2.88C75.13,104.83,72.55,104.54,69.31,104.8Z"/><path d="M76.81,125.15a1.08,1.08,0,0,0,1.32-1,3.65,3.65,0,0,0-3-3.68c-.65-.07-1.26.12-1.37.92C73.57,122.79,75.29,124.92,76.81,125.15Z"/><path d="M182.75,17.72c1.37,0,1.51-1.33,1.45-2.44a2.63,2.63,0,0,0-2.67-2.8c-1.17.49-1.18,1.56-1.05,2.66C180.65,16.51,181.43,17.68,182.75,17.72Z"/><path d="M273.83,132.32c2.24.92,4.21.89,6.63-1.15C275.91,130.1,275.91,130.1,273.83,132.32Z"/><path d="M27,90.58a5.31,5.31,0,0,0,3.23,1.27c.7-1.62-.24-2.66-1.4-3.46-.87-.6-2.08-1.42-3-.36C24.79,89.3,26.28,90,27,90.58Z"/><path d="M292.58,193.22c.12-1-.63-1.42-1.46-1.4-1.82,0-3.72-.06-5.27,1.55,1.64,1.38,3.4,1.35,5.14,1.31A1.55,1.55,0,0,0,292.58,193.22Z"/><path d="M274.34,155c-.3,2.51,1.13,3.71,3.91,4.56.07-2.75,0-4.75-2.77-5.17C275.12,154.37,274.38,154.78,274.34,155Z"/><path d="M309.77,166a.8.8,0,0,0-1,.75,4.68,4.68,0,0,0,2.78,4.11,1.44,1.44,0,0,0,1.91-1.53A5.46,5.46,0,0,0,309.77,166Z"/><path d="M280.86,96.37c2.48.73,2.79-1.21,3.58-2.82a5,5,0,0,0-3.4-.61c-.84.07-1.59.37-1.72,1.32A1.88,1.88,0,0,0,280.86,96.37Z"/><path d="M284.23,206.31c.67,2.83,2.33,4.38,5.57,4.47C288.07,207.41,288.05,207.38,284.23,206.31Z"/><path d="M293.16,174.78c-.26.17-.66.27-.76.5-.46,1.14,1.71,4.28,3,4.35a1,1,0,0,0,.79-.37c.54-1.19-.23-2.16-.75-3.08A2.22,2.22,0,0,0,293.16,174.78Z"/><path d="M71.85,253.42c-.11-1.37-1.95-3.15-2.81-2.78-1.23.54-1.12,1.75-1.08,2.82s.47,1.85,1.69,1.69S71.79,254.66,71.85,253.42Z"/><path d="M79.53,118l.07-.08a1.17,1.17,0,0,0-.52-.42A1.63,1.63,0,0,0,79.53,118Z"/><path d="M76.64,113.78a1.36,1.36,0,0,0-1,1.35c-.15,1.41.09,2.51,1.89,2.49.52,0,1.09-.26,1.6-.08-.6-1-.29-2.34-1.3-3.12C77.42,114.14,77.19,113.65,76.64,113.78Z"/><path d="M75.92,140.67a1.34,1.34,0,0,0,.57-1.11c-.31-1.29-1.5-1.46-2.54-1.75a2,2,0,0,0-1.94,0,1.78,1.78,0,0,0,.56,1.93C73.5,140.71,74.6,141.32,75.92,140.67Z"/><path d="M93.78,155.59a2.85,2.85,0,0,0-2.47-3,1,1,0,0,0-1.3,1,2.81,2.81,0,0,0,2.46,3C93.17,156.58,93.81,156.44,93.78,155.59Z"/><path d="M102.58,100.67c1.19,0,1.64-.73,1.66-1.79A1.65,1.65,0,0,0,102.78,97c-1.25,0-2,.52-2.11,1.58A1.76,1.76,0,0,0,102.58,100.67Z"/><path d="M110.43,51.61c1.07.08,1.86-.19,1.87-.38.15-1.93-.14-2.64-1.08-2.74a1.86,1.86,0,0,0-2.31,1.74C108.84,51.11,109.54,51.55,110.43,51.61Z"/><path d="M195.79,278.32l-.08-.09v.16Z"/><path d="M191,276.35l-.05,0,.11.13Z"/><path d="M194.62,277.83c.33-.3.77.07,1.09.4-.3-3-.34-3-2.89-1.93-.58.24-1.16,1-1.8.23C191.64,278.39,192.39,279.83,194.62,277.83Z"/><path d="M179.43,82.61c-2.75.6-4.07,1.77-3.57,4.45C177.4,86,179,85.13,179.43,82.61Z"/><path d="M117.12,286.91c-1.05,1.09-.69,2.23.32,3.66,1.65-1.05,2-2.23.91-3.59A1.26,1.26,0,0,0,117.12,286.91Z"/><path d="M83.55,106.63c.47,0,.93-.53.75-1-.68-1.65-2-2.28-4.09-1.81C80.57,106,81.77,106.76,83.55,106.63Z"/><path d="M262,111.91c1.06.18,1.18-.69,1.09-1.52-.12-1.16-.53-2.1-1.9-2.17-.84,0-1,.64-1,1.28A2.31,2.31,0,0,0,262,111.91Z"/><path d="M60.29,181.28a.78.78,0,0,0,.76-1c-.3-1.22-.68-2.44-2-2.62-.84.13-1.15.61-1.07,1.05C58.25,180,58.79,181.15,60.29,181.28Z"/><path d="M10.6,105c-.19,1.38,1.17,1.59,2.07,2.07.59.31,1.17.24,1.54-.78-.26-.8-.43-1.92-1.73-2.16C11.72,104,10.72,104.11,10.6,105Z"/><path d="M202.27,3.81c1.51-.19,1.49-1.35,1.35-2.45A1.34,1.34,0,0,0,202.05,0a2,2,0,0,0-1.39,2.5A1.38,1.38,0,0,0,202.27,3.81Z"/><path d="M39.55,121.29a8,8,0,0,0,7.05-.09C43.7,121,42,119.76,39.55,121.29Z"/><path d="M283.63,98.37c-.89.34-1.78.85-1.65,2,.06.51.68.57,1.16.58,1.12,0,1.88-.34,1.73-1.65C284.8,98.53,284.4,98.08,283.63,98.37Z"/><path d="M296.46,169.23a1.33,1.33,0,0,0-1.09,1.41,1.81,1.81,0,0,0,1.76,1.9,1,1,0,0,0,1-1.28C297.84,170.4,297.64,169.35,296.46,169.23Z"/><path d="M204.23,308.24c-1.25-.15-1.55.7-1.59,1.72a2,2,0,0,0,1.32,2.2,1.9,1.9,0,0,0,1.33-2.16C205.26,309.23,205.24,308.37,204.23,308.24Z"/><path d="M292.92,286.61a1,1,0,0,0-.79,1.41,1.55,1.55,0,0,0,1.42,1c.83.05,1-.5,1-1.33C294.27,287.09,293.87,286.38,292.92,286.61Z"/><path d="M130.77,29.63A1.27,1.27,0,0,0,132,28.47a1.41,1.41,0,0,0-1.18-1.69c-.71-.09-1.08.43-1.11,1.13S129.79,29.45,130.77,29.63Z"/><path d="M70.73,281.35c-.93-.12-1.36.47-1.42,1.35A1.11,1.11,0,0,0,70.37,284c.76.06,1.69.1,1.77-1C72.21,282.12,71.69,281.55,70.73,281.35Z"/><path d="M274.82,287.06c-1.23-1.06-3-2.05-4-.65-1.18,1.69.56,3,2,3.92a2.87,2.87,0,0,0,2.22.36c1.09.21,1.91-.3,1.92-1.32A2,2,0,0,0,274.82,287.06Z"/><path d="M289.44,183.38a1.09,1.09,0,0,0,1.68-.46,1.1,1.1,0,0,0-.76-1.42,1.07,1.07,0,0,0-1.49.71A1,1,0,0,0,289.44,183.38Z"/><path d="M141.94,289.2c1.53-1.31,2.95-1.49,2.73-3.25C143.39,286.36,142.57,287.07,141.94,289.2Z"/><path d="M161.91,287.34c-.76-.12-.93.63-1,1.22s.12,1.32.9,1.36,1.08-.44,1.05-1.17S162.53,287.43,161.91,287.34Z"/><path d="M241.53,316.8a1.29,1.29,0,0,0-1.57,1.27c0,.59.2,1.25,1,1.26a1.68,1.68,0,0,0,1.68-1.31C242.56,317.37,242.27,316.87,241.53,316.8Z"/><path d="M247,71.8a1.81,1.81,0,0,0,1.67-1.87c0-.35-.38-.45-.74-.28-.85.36-1.79.65-1.73,1.82C246.25,71.6,246.78,71.84,247,71.8Z"/><path d="M79.6,118l-.07.08h.12Z"/><path d="M82,119.76c.52-.13.84-.56.55-1.06-.6-1.07-1.65-.59-2.55-.61a2.09,2.09,0,0,1-.35,0C80.17,119,80.54,120.11,82,119.76Z"/><path d="M188.36,281.5a1.46,1.46,0,0,0-.85.93c-.14.51.33.86.82.87s.76-.42.8-.93S188.91,281.36,188.36,281.5Z"/><path d="M315.63,69.33a.83.83,0,0,0,1-.72,1.41,1.41,0,0,0-.29-1.11c-1.26-.18-1.59.18-1.69.62C314.46,68.88,315,69.23,315.63,69.33Z"/><path d="M271.51,202.11c-.2.4.31.81.8.93a1.29,1.29,0,0,0,1.56-.44c.24-.75-.32-.82-.75-.89S271.79,201.51,271.51,202.11Z"/><path d="M89.6,261.19a3.76,3.76,0,0,0-.7,1.06.75.75,0,0,0,.77.95c.33-.06.71-.61.83-1S90.28,261.31,89.6,261.19Z"/><path d="M197.88,270.82c-.58.19-1,.42-.93.95a2.06,2.06,0,0,0,2,1.57c.46.06.8-.32.66-.87C199.32,271.53,198.89,270.78,197.88,270.82Z"/><path d="M300.48,173.52c-.5-.06-1,.12-1,.63,0,.93.67,1.29,1.5,1.12.35-.07.64-.5.91-.74C301.67,173.71,301.08,173.6,300.48,173.52Z"/><path d="M62.67,252.09c-.57.13-.93.45-.94,1a.89.89,0,0,0,.85,1c.6,0,.82-.42.81-.94A.93.93,0,0,0,62.67,252.09Z"/><path d="M67.76,245.4c-.32-.38-1-.46-1.55-.65,0,.42-.06.85-.06,1.28a1.45,1.45,0,0,0,.75,1.54.9.9,0,0,0,.82-.1A1.44,1.44,0,0,0,67.76,245.4Z"/><path d="M66.13,244.72l.08,0a.45.45,0,0,0,0-.11Z"/><path d="M292.83,230.09c.15-.78-.51-1-1-1.29s-.79-.12-.83.23a1.31,1.31,0,0,0,1,1.37A.89.89,0,0,0,292.83,230.09Z"/><path d="M199.3,312c-.47,0-.93.23-.91.78a.79.79,0,0,0,.89.81,1,1,0,0,0,.93-.87C200.18,312.11,199.75,312,199.3,312Z"/><path d="M124.52,281.33c1.19,2.66,1.84,3.17,2.92,2.12C126.65,282.49,126,281.44,124.52,281.33Z"/><path d="M64.41,121c-.44.16-.85.4-.73,1a1.08,1.08,0,0,0,1.55.47c.34-.21.82-.8.73-1C65.69,120.77,65,120.72,64.41,121Z"/><path d="M283.77,206h0c.12.09.25.17.38.25h0l.09,0s0-.05,0-.09A4.07,4.07,0,0,0,283.77,206Z"/><path d="M282.13,204.73a.83.83,0,0,0-.36.73c.37,1.09,1.31.42,2,.58l0,0C283.2,205.59,283.3,204.32,282.13,204.73Z"/><path d="M286.57,225.61c.14-.76-.34-.89-.8-1a1.21,1.21,0,0,0-1.46.88c-.19.65.35.76.8.79C285.76,226.38,286.37,226.26,286.57,225.61Z"/><path d="M332.21,196.27a3.48,3.48,0,0,0-.67.53c-.22.29-.08.59.32.65s.91-.09.87-.67C332.72,196.6,332.4,196.44,332.21,196.27Z"/></g></g></svg>