<svg xmlns="http://www.w3.org/2000/svg" viewBox="0 0 1435.69 1715.93"><g id="Capa_2" data-name="Capa 2"><g id="Capa_2-2" data-name="Capa 2"><path d="M1432.13,1408.2c-4.91-6.92-9.71-13.94-15-20.61-21.79-27.74-46.68-52.52-73.11-75.79-3-2.65-3.87-4.08-.06-6.76,5.23-3.68,8.93-8.87,12.38-14.23,11.28-17.52,4.41-46.68-20.94-52.21-22.47-4.9-44.24-4.84-64.51,7.83-2.92,1.83-5.27,2.1-8.46-.27-42.18-31.42-85.46-61.3-128.65-91.3-20.92-14.53-41.53-29.49-62.24-44.3-1.41-1-3.93-1.79-1.62-4.48,3.59-4.16,6.69-8.76,10.48-12.71,7.83-8.16,17.54-8.55,27.77-5.84,11.08,2.93,21.75,7.33,33.16,9,4.63.67,9.32,1.24,13.85-.13s4.83-4.32,1.33-7.28c-2.12-1.79-4.77-2.36-7.33-2.91-23.34-5-46.42-10.94-69.39-17.36-17.91-5-35.71-10.44-53.41-16.15-5.64-1.82-11.72-4.25-13.87-10.66a47.84,47.84,0,0,0-6.29-12.12c-2.25-3.24-2.7-8-4.58-11.15-3.53-6-5.69-12.31-8-18.63-2.72-7.53-4.8-15.29-7.13-22.87,8.46-.49,14.08-4.33,17.1-11.07s4.83-13.73-1.91-19.78c2.83-1.06,6.07-1.31,6.38-4.95.29-3.28-1.83-5.54-4.4-6.68-2.73-1.21-3.7-3.09-4.69-5.63s-2.87-4.78-6.13-3.48c-2.6,1-4.27,6.68-2.14,8.14,3.69,2.53,1.55,5.27,1.82,8.75-4-3-7.3-1.31-10.54-.13-2.08.76-2.92.61-3.17-1.85-.41-4-1.55-7.87-1.73-11.84-.14-3.15-2.78-6.81,1.25-9.54.6-.41,0-1.42-.7-1.29-2.4.43-1.78-1.37-1.9-2.49-.58-5.46-1.16-10.93-1.6-16.4-.69-8.57-1.76-17.28,6.8-23.18a6.71,6.71,0,0,0,1.46-2c2.95-4.63.6-15.79-4.48-17.69-4.23-1.59-4.55-4-4.29-7.58.23-3.15.22-6.32.32-9.49h0l.07-1.3h0c1.82-11.8-.68-24.19,4.86-35.5a4.13,4.13,0,0,0-.07-3.41c-2-3.2-1-6.5-.6-9.71,2.84-21.95,6.3-43.79,10.66-65.5,10-49.85,23.94-98.43,46-144.41,5.47-11.39,10.55-23.2,18.19-33.14,5.47-7.12,8.16-14.82,10.12-22.94,2.22-9.21-3.53-14.55-12.85-12.4-13.15,3-22.19,11.6-27.24,23.6-6.88,16.35-12.88,32.94-16.67,50.51-8.77,40.7-14.8,81.83-21.65,122.83-1.57,9.45-3.15,18.89-4.88,29.24-3.8-3.64-7.84-4.53-11.86-5.77-7.59-2.35-13.09-.31-16,7.2a6.1,6.1,0,0,1-4.65,4.25c-5.26,1.47-8.39,6.78-7.26,11.45s4.48,6.84,8.87,7.58c3.64.62,9.8-2.81,10.74-6.56,1-4.18,2.63-5.18,6.56-3.28a11.1,11.1,0,0,0,6.32,1c5.2-.93,4.64,1.9,4,5.23-5.42,29.78-11,59.5-18.68,88.81-1.52,5.85-3.59,11.11-7.63,15.85a10.54,10.54,0,0,0-2,10.56,7.68,7.68,0,0,1-.09,5.77c-5.21,14.92-11.12,29.53-19.14,43.2-2,3.43-3.56,7.4-6.76,9.78-5.21,3.87-9.49,8.3-12,14.32-1.71,4.09-6.17,4.22-9.37,5.88-1.87,1-3.4-2.54-5.08-4-2.11-1.85-.84-4.4-1-6.62-.32-5.75-3.16-10.34-8.19-10.24-8.08.16-12-5.58-16.84-10.1-1.64-1.51.89-4-1.12-5.6-.1-.08,2.2-.59,1-2-.76-.91-1.76-.52-2.74-.26-5.51,1.5-9.09-1.72-8.27-7.59.26-1.81-.33-2.48-2-2.61-1.12-.08-2.52.68-3.29-.47-1.44-2.16-3.89-3.84-4.9-5.65-1.31-2.34-1.56-4.3-4.74-3.45-.1-.63-.52-1.51-.26-1.84,1.24-1.52,1-3.92,3-5,3.83-2,5.26-5.87,7-9.44,6-12.51,2.58-32.33-7.15-40.68-5.91-5.08-13.33-8.21-18.64-14.15a4.06,4.06,0,0,0-2.76-.78c-4.56,0-6-2.29-5.2-6.57a15.07,15.07,0,0,0,.06-5.48c-1.1-5.36-.16-9.72,5-12.61,1.86-1.06,1.31-2.44,0-3.61-2.42-2.15-4.26-1-5.75,1.18a21.06,21.06,0,0,0-4,13c.11,8-1.08,8.91-8.81,10.44-3.75.74-7.46,1.66-11.19,2.52-5,1.15-8.62-2.19-7.62-7.25.73-3.72-1.63-5.15-4.27-5.24-2.46-.07-4.29-.21-6-2.2a3.06,3.06,0,0,0-4.5-.12,4.28,4.28,0,0,0-1.67,4.42c.53,2.25,2.49,2,4,1.94,2.86-.16,4.94.69,7.46,2.37,3.8,2.53,6,5.5,4.75,9.6-1.3,4.32-10.84,9-14.26,7.81L772,833c2.72,1.77,2.43,3.92,1,6.42a80.51,80.51,0,0,0-6.23,12.46c-.66,1.78-.8,4.36-3.08,4.82-2.53.51-3-2.24-4.06-3.69Q739.53,825,720,796.68c-12.66-18.4-24.82-36.94-33.31-57.69-.86-2.11-2.33-4.12-1.78-6.55.07-.33,1.56-.67,2.24-.47,3.52,1,1,4.29,2.24,6.5,1.54-1.25,1.25-3.09,1.84-4.55.77-1.88,2.35-2.22,4.11-2a2.61,2.61,0,0,1,2.22,3.72c-2.78,7.71,1.8,12.88,6,18.11,1.45,1.79,2.38,3.56,2.16,5.86l1,1.3c.83-1.89.78-5.19,3.33-4.93,3.52.36,7.53-2.24,10-.2,1.95,1.62.86,5.8,1,8.87.18,3.9.46,8.44,2.49,11.49,4.85,7.27,13,10.64,20.46,14.7,1.25.68,2.46-.75,3.6-1,3.6-.67,6.8-3.17,11.35-2.66-1,.87-1.39,1.32-1.88,1.71-1.48,1.17-4,2-2.7,4.49s3.89,1.78,5.64.58c2.26-1.54,4-.47,6.06.15,5.87,1.77,12.67-1.41,15.46-7.1,2.35-4.78,1.45-10.37-3-12.78-4-2.15-2.14-3.74-.15-5.24,3.47-2.61-1.51-8.44,4.06-10a7.6,7.6,0,0,0-1-1c-1.14-.76-.8-1.86-1-3-.94-4.5-1.63-9.33-4.74-12.88-1.85-2.11-5.31-2.63-6.66-5.8.76-.56,1.56-1.14,2.32-1.74,1.25-1,3.57-2,2.37-3.68s-2.83.31-4.14,1.15a1.29,1.29,0,0,0-.34.36,3.38,3.38,0,0,1-4.42,1.22c-1.68-.69-.82-2.15-.53-3.45s-7.66-7.05-8.74-6.46c-1.57.87-1.74,2.23-1.08,3.86.73,1.79,2.25,2.86,3.5,4.18.84.89,1.62,1.87.8,3.06s-2.22.82-3.06.08c-6-5.28-12-.67-17.09,1.2-4.37,1.59-4.52,1.56-5.24-2.68a18.23,18.23,0,0,1-.48-5.64c-4.5.68-5.9-4.79-10.26-5-2.43-.15-2.74-1.48-1-4.68,2.93-5.48,7.22-11.18,5-18.49a6.25,6.25,0,0,1,3.58-7.85c2.88-1.19,4.93-3.32,7.14-5.18,6.66-5.57,11.87-18.33,4.26-26.21-1.55-1.6-1.31-3.64-1.45-6.13-2.68,2.07-4.64.59-6.82-.62-1.89-1-3.3-3.09-6.21-2.22-4,1.17-8.62-1-12.21,2.7a3.05,3.05,0,0,1-4.1.36c-2.26-1.81-3-.66-2.69,1.62.54,3.53-1.5,5.48-4.26,6.39-2.59.85-2.78,2-3,4.57-.31,3.62-1.39,8.18-5.92,8.7a24.38,24.38,0,0,0-11.1,3.56c-2.74,1.76-7.47.45-8.08,5.55a2.34,2.34,0,0,1-2.6.37,191.79,191.79,0,0,1,7.36-70.57c4.67-15.5,11.32-30.1,18.56-44.49a1,1,0,0,1,.95-1.17c7.57-14.86,18.23-27.8,26.29-42.35,4.75-8.57,7.87-17.59,6.85-27.61-.93-9.06-6-12.91-14.9-11.27-10.71,2-19.88-2.78-22.78-12.16-2.64-8.58-.37-16.49,3.74-24.36,1.83,2.41,3.21,6.45,5.69,5.13,3-1.57.55-5.21-.68-7.45-1.62-2.93-1.23-5,.58-7.62,6-8.76,11.88-17.67,17.78-26.53,9.6-14.42,19.7-28.91,23-46.09,1.82-9.57,6.65-12.89,14.8-14.42,7.34-1.38,14.67-3.44,21.7,1.27,7.85,5.25,19.28,5,27.08-.37,8-5.55,7.87-14.37-.81-18.64-8.85-4.35-17.89-5.86-26.67,1.12a80.1,80.1,0,0,1-33.49,16,55.83,55.83,0,0,1,3.27-20.14c5.63-14.78,14.57-27.58,23.8-40.22C797.07,263.43,820,234.45,840,203.33c37.65-58.47,47-122.7,39.89-190.47C879.31,6.93,877.19,2.06,871,0h-5c-4.2,1-5.25,4.13-5.26,7.92a33.5,33.5,0,0,0,1.52,9.35c6.68,23.41,7.9,47.2,5.41,71.3-1.36,13.16-3.81,26.06-9.26,38.21-2.52,5.64-5.46,11.12-10.35,15.13-3.95,3.24-5.86,3-9.38-.73-5.72-6-11.29-5.82-16.65.68-2.66,3.23-4.55,7-6.7,10.54-12.94,21.42-31.45,34.43-56.53,37.6-8.27,1.05-15.46-1-21.45-7-2.47-2.49-4.51-5.34-6.9-7.9-6.07-6.51-10.84-7-18.5-2.32-8.38,5.16-12.36,13.32-15,22.24-2.44,8.15-3.7,16.58-5.36,24.92-1.8,9-4.85,17.48-11.79,23.79-14.39,13.08-20.6,29.92-23.09,48.58-2.4,18.07-5.87,35.87-13.86,52.44-3.4,7.05-6.91,14.19-12.89,19.46-7.26,6.4-12.62,4.9-15.62-4.27a91.55,91.55,0,0,1-4.1-22.54c-.63-9.28-.55-18.62-2.19-27.84-1.07-6-4.09-9.6-10.16-10.68-6.43-1.14-11.27-4.83-15-10-4.24-6-6.29-12.79-7.52-19.93-2.3-13.33.08-26.24,3.66-39a305.3,305.3,0,0,1,20.2-52.66c3.43-6.94,7.66-13.87,5.8-22.24-.88-4,.43-7.17,3.21-10a23.43,23.43,0,0,0,5.14-7.33,10.31,10.31,0,0,0-2.16-11.55c-3-2.7-7-3.11-11.2-1.14a18.31,18.31,0,0,0-7.07,6.17c-3.69,5.16-5.38,11.05-6.22,17.22-2,14.75-5,29.25-10.84,43-4.73,11.14-10.14,21.94-20.75,28.7a36.09,36.09,0,0,0-15.53,19.51c-.94,2.79-2.55,3.87-5.47,4.05-8,.5-14.14,4.18-18.59,10.95a115.76,115.76,0,0,0-10,19,253.29,253.29,0,0,0-16.13,57.62c-.78,4.79-2.87,7.88-7.11,10a54.31,54.31,0,0,0-11.14,7.57c-4.09,3.52-6.43,8.18-4.81,13.37,4.25,13.61,2.86,27.85,5.18,41.65a4.39,4.39,0,0,1,0,1.49c-1.65,8.89-.38,18-1.78,26.89-2.64,16.9-6,33.48-16.06,47.88-8.24,11.82-20.12,15.25-33.68,14.41-12.91-.8-19.9-9.59-25.64-19.82,1.56-7.74-5.55-10.64-8.78-15.7a28,28,0,0,0-7.13-7.65c-3.62-2.6-7.52-5.75-12.26-3-4.92,2.82-4.38,8.1-2.89,12.11,3,8.05,2.06,15.63-.3,23.44-3,9.79.78,17.24,8.49,23.13,6,4.57,12.71,7.93,19.36,11.4,8,4.15,16.5,7.24,23.8,12.64,5.94,4.39,11.39,9.28,14.6,16.12,2.29,4.88,1.11,7.49-4.12,8.81-2.77.69-4.12,2-3.72,4.87.45,3.21-.83,5.47-3.57,7.06a4.08,4.08,0,0,0-2.13,5.06,5.15,5.15,0,0,1-.11,3.92c-2.52,4.51-1.72,9-.19,13.54s0,7.72-3.54,10.49c-2.65,2.06-5.82,3.28-8.38,5.43-1.08.91-3,1.87-2.17,3.47s2.94,1.21,4.51.68a57.57,57.57,0,0,0,8.95-4.4c5.25-2.82,6.83-2.1,7.67,3.82a8.86,8.86,0,0,1-.64,4.9c-2.21,5.05-3,10.49-4.51,15.74-4.92,17.57-8,35.44-7.47,53.73.12,4.43-1.51,6.2-5.41,7.41A201.82,201.82,0,0,0,358.24,713a94.42,94.42,0,0,0-24.51,21.06c-6,7.42-10.62,15.61-9,25.58.62,3.74.11,5.29-3.52,6.57-7.79,2.72-12,8.66-13.24,16.72-1.69,11,4.95,18.53,16,18.39A40.34,40.34,0,0,0,338,798.14c12.42-4.8,15.1-15.63,6.46-25.87,0-.23-.62-.47-.74-.69L343,772c-.57-.47-1.68-1-1.61-1.41.21-1.17,1.2-.37,1.87-.37.95,0,1.89,0,2.83.06l-1.58.88c.8-.14,1.63,0,2.42-.25,4.58-3.1,5.22-5.29,2.34-9.81a7.12,7.12,0,0,1-.91-6.6c.84-2.53,1.66-5.07,2.43-7.61,1.57-5.25,5.53-9.06,7.86-13.72a41.28,41.28,0,0,1,7.18-10.65c10.94-11.27,24.43-18.34,39-23.56,5.13-1.84,6-1.34,6.68,4.26,1.81,14.79,5.64,29.11,10.17,43.24,1.16,3.63.48,5.36-3,6.9a33.61,33.61,0,0,0-18,18.5c-7.06,16.69,3.14,33.28,21.26,34.44a67.7,67.7,0,0,0,22.24-2.17c1.68-.46,2.53-.11,3.15,1.32.51,1.18,1.82,2.94.44,3.57-4.76,2.19-5.42,8.51-10.69,10.11-1.88.57-3.29,2.51-2.72,4.31,2,6.38-5.49,12.15-1,18.57a1,1,0,0,1-.16,1c-2.27,3.18-.47,4.88,2,6.86,3.95,3.13,4.6,7.36,2.51,12.43-.89,2.15,0,3.78,1.95,4.4,2.8.87,5.54,2.09,8.73,1.19,4.51-1.27,8.91-.71,12.65,2.37,1.33,1.1,2.27.57,3.58.07,5.36-2,11.38-.59,16.7-3.11.81-.39,1.86.57,2.59,1.26,3.33,3.13,3.88.89,3.93-2.56,4.51,5.28,8.6,10.31,12.47,15.52,2.1,2.84,3.31,5.88.5,9.07a3.06,3.06,0,0,0-.49,3.69c1.27,2.48.34,4.88-.33,7.28a33.56,33.56,0,0,0,18,39c2.25,1,4,2.57,3.95,5.27,0,4.75,2.59,7.31,6.82,8.7,1.79.59,3.78,1.44,3.71,3.56-.26,7.79,2.69,15.06,3.42,22.67.17,1.78.87,4-.74,5.19-1.77,1.34-3.47-.46-5-1.27-23.5-12.71-46.09-26.84-66.34-44.39-6.14-5.32-12.14-11-16.79-17.76-6.34-9.3-4.77-13.55,5.91-16.21.64-.16-.16.06.48-.1,7.19-1.88,8.58-5.59,4.29-11.66-4.65-6.59-11.33-10.7-18.13-14.62-13.2-7.62-27.49-12.62-41.71-17.9-11.67-4.33-22.52-10.13-29.06-21.62a28.32,28.32,0,0,1-4.18-15.21c.2-5.28.87-10.44,5.44-14.4a9.13,9.13,0,0,0,2.76-9.18C371.48,796,365,792,359.21,793c-6.47,1.15-13.77,9-11.83,13.93,1.83,4.67,1.27,8.33-.31,12.65-1.07,2.94-.46,6.26.94,9.25a46.44,46.44,0,0,0,5.45,8.95c5.54,7.09,11.59,13.76,17.45,20.58,2.56,3,2.66,5-.36,7.9-7.87,7.56-6.74,17.52,2.58,23.45,2.66,1.7,3.82,3.3,2.83,6.43-2.5,8-.68,15.47,3,22.67,1.22,2.39,2.46,4.7,1.53,7.59-.54,1.66.18,3.11,2.08,3.22,3.11.19,4.63,2.41,6.23,4.52a118.24,118.24,0,0,0,12.57,14.2c15.35,14.52,30.11,29.74,48.33,41.43-.87.86-1.64,1.17-2.2,1.69-4.31,4-5,10.83-1.44,14.29,3.77,3.66,9.19,2.78,13.5-2.19a13.22,13.22,0,0,0,1.5-2c1.44-2.45,3.25-2.38,5.47-1a64.81,64.81,0,0,0,10.32,5c3.25,1.26,4.45,3.17,2.76,6.55a13,13,0,0,0-.91,6.38c.1,3.36-1.64,4.43-4.71,4.09-2.65-.29-5.29-.65-7.93-1-14.22-1.63-28.46-3.16-42.56-5.74-1.75-.32-3-.86-3.74-2.75-1.31-3.55-4-4-6.72-1.85-3.34,2.73-4.3,1-5.62-2-4.18-9.33-13.63-11.54-21.17-4.53-3.51,3.27-6.68,2.81-10.5,1.84-1.93-.5-2.18-1-1.55-3,1.17-3.72-1.45-7.5-5.73-9.06-3.71-1.36-7.61.11-8.83,4.16-1,3.38-2.55,3.55-5.43,2.77a755.46,755.46,0,0,1-87.32-28.71,700.33,700.33,0,0,1-87.13-42.35C141.52,908.4,105,884.18,75.15,851c-16-17.85-29.93-37.11-40.85-58.39A263.3,263.3,0,0,1,5.55,686.23a374.89,374.89,0,0,1,4.17-82.68A557.85,557.85,0,0,1,30.4,519.66a798,798,0,0,1,36.73-91.31c15.79-33.28,32.91-65.87,50.55-98.2,8.61-15.79,17.44-31.49,25-47.82,2.81-6,5.3-12.27,4.44-19.23-.94-7.62-7-12.34-14.34-11.21-7.16,1.09-12.19,7.81-10.83,16,1.74,10.51-.73,20.21-4.28,29.79-9.63,26-22.06,50.71-33.87,75.71C72.79,396.74,62,420.2,51.89,444,37.56,477.74,25,512.16,15.57,547.68c-6.36,24-11.42,48.3-14.06,73.05C.75,627.81,1.13,635,0,642v3c2,2.33,1.29,4.67,0,7v3c2,3.21.63,6.73.89,10.1h0c0,3,0,6-.05,9h0C.39,677.72,2.36,681.52,0,685v4c1.79.68,1,2.27,1.09,3.44a311.6,311.6,0,0,0,9.66,54c15.41,55.45,46.38,100.92,89.44,138.38,43.86,38.15,94.11,65.86,147.54,88.11,12.83,5.34,25.7,10.58,39.08,15-4.89,6.36-3.82,11.91,2.38,14.53,5,2.09,9.35-.23,12.13-6.31.53-1.14.11-3.25,3-2.28,9.93,3.27,20,6.16,30.06,9,1.86.53,2.58.84,1.5,2.83a3.4,3.4,0,0,0,2,5.23c2.44.83,5.54.82,6.21-2.23.77-3.43,2.35-2.59,4.56-2,8.86,2.22,17.75,4.38,26.66,6.41,3.68.83,7.62.9,8.17,6.07.11,1.06,1.53,2.14,2.57,2.91,4.44,3.29,12.64,2.88,16.59-1.06,1.55-1.54,2.82-1.65,4.81-1.33,14.46,2.32,28.84,5.12,43.42,6.67,9.93,1.06,19.83,2.33,29.75,3.52,1.26.15,2.77-.12,3.18,1.7s-.93,2.53-2.06,3c-6.21,2.65-11,6.74-13.82,13a1,1,0,0,1-1.73.12c.67-1.85,2.68-3.5,1.31-5.77-.47-.78-1.45-.74-2.29-.56-2.78.6-2.94,2.87-3,5-.07,1.57-.91,2.27-2.15,3s-2.29,1.87-1.63,3.24a2.76,2.76,0,0,0,3.95,1c4.51-2.51,5.26.58,5.33,3.72a7.81,7.81,0,0,0,3.69,6.57c1.89,1.37,3.63,2.93,5.42,4.43.88.73,1.94,1.38,1.05,2.84s-1.84,1.75-3.27,1c-4.14-2.3-9.92-1.52-12.55-6.75a2.68,2.68,0,0,0-2.24-.86c-6.82,1-11.72-3.78-17.52-5.83-.76-.26-1.89-.62-.92-2.1,3.08-4.67,1-8.58-2.91-11-4.2-2.67-8.46-1.1-11.55,2.54-1.43,1.68-2.24,1.38-4,.64-4.11-1.75-6.07-6.4-9.88-7.84-4-1.53-7.16-4-10.45-6.42-3.49-2.6-7-5.15-11.76-4.49-.81.11-1.61.35-2-.78-1.54-4.53-5.31-3.63-8.37-2.85-7.18,1.83-13.77,4.91-18.62,10.88-3.34,4.1-6.79,8.11-10.79,12.88-1-4.91-5.68-7.68-3.88-12.93.54-1.59-1.19-2.38-2.44-2.59-2-.33-3-1.75-4.29-3.06a32.06,32.06,0,0,0-12.31-8.29c-18.95-6.9-40,1.45-50.15,19.82-9.15,16.59-5,34.86,10.17,45.21a12,12,0,0,1,1.82,1.42c-2.57,4.25,1.32,2.42,2.12,2,1.8-1.05,3.2-.19,4.74.25,8.73,2.53,17.29,3,25.62-1.62,3.16-1.75,6.62-3,10-4.47.77,2.2,1.12,3.86-1.48,5-1.84.76-3.44,2.13-3.07,4.59a11.07,11.07,0,0,0,7,9c3.05,1.35,5.47.61,7.74-1.49,3.26-3,1.91-6.26.17-9.55,3.69-.91,7-2.1,7.54-6.34a4.74,4.74,0,0,0-2.3-5.1c-4.27-2.54-7.37.17-10.9,2.33a110.32,110.32,0,0,0,11.22-21c1.51-3.86,3.18-4.77,6.62-1.45s9.9,3.08,13.49.39c3.86-2.9,3.9-6.78,2.22-10.76-.73-1.73-.71-2.66,1-3.61A56.48,56.48,0,0,0,386,1036.09c.22,7.5,3.62,13.2,6.91,19.05-7.92.4-12.08,2-16.06,6.24-5.46,5.75-5.43,15.43.07,20.81,4.4,4.29,18.42,5.49,21.68,1.17,2.62-3.47,5-5.94,9.55-5.4a1.89,1.89,0,0,0,2-1.82,1.57,1.57,0,0,0-1.28-1.87c-4.3-.4-3.43-3.42-3.48-6.61,15.71,9.73,33.4,8.26,51.25,10.46-2.49,2-4.09,3.38-5.82,4.6-8.42,5.92-11.53,13.75-9.06,23.88.74,3,1.64,6.11,1.31,9.35s-1.37,5.72-5.16,5.07c-2.27-.39-3.23.69-3.51,2.44-.62,3.94-2.83,4.78-6.57,4.63-10.09-.39-17.57,4.19-22.41,13-.73,1.35-1.08,2.64-3.13,2.41a2.78,2.78,0,0,0-3.36,2.29c-.26,1.58.1,3.27,1.56,3.92,3.34,1.48,3.13,3.33,1.16,5.78-1.11,1.36-.86,2.52,1,2.84s2.2,1.88,3,3.1c3.09,4.92,7.66,7.12,13.31,7.62,5.42.48,10.58-.78,15.79-1.9,1.19-.25,2.67-.84,3.63.66s-.17,2.53-.92,3.53a16.22,16.22,0,0,1-4.67,4.44c-1.36.79-3.64,1.65-2.48,3.56s3.67,1.55,5.2.08a7.09,7.09,0,0,1,5.78-2.32c1.36.14,3.76-1.42,4,1.17.2,2.36-2.12,2-3.72,2.15-1,.11-2.76-.35-2.36,1.54.34,1.58,1.92,1,3,.8,1.92-.37,4-1.63,5.51.47,3,4,7.49,5.27,11.78,7,2,.82,4.63,1.27,4.55,4.66-17.05-3.7-30.5,1.74-40.4,15.83-1.79,2.55-2.36.76-3.49-.41-4.77-5-10.76-6.84-17.3-5.19-4.15,1-6.37.21-7.88-3.68-.76-2-2.59-2.08-4.15-1s-2.09,2.65-.48,4.21c2.79,2.7,3.92,5.67,2.95,9.7-.88,3.67.26,7.28,2.46,10.4,4.89,6.93,13.84,8.61,23.11,4.23,1.49,9,7.4,14.73,15.26,19.55-3.38.57-5.83,1-8.3,1.39-33.79,5-67.75,4.59-101.76,3.42-20.13-.7-40.28-2.32-60.44-.5-13.07,1.18-25.82,3.52-36.28,12.24a269.7,269.7,0,0,0-39.77,40.66c-5.85,7.47-11.36,15.55-15.16,23.78-3.93,8.52-7.11,18.47-6.18,28.61.31,3.46.76,7,2.57,10.08,1.69,2.92,3.93,5.07,7.63,4.13a7.21,7.21,0,0,0,5.86-7.65,17.74,17.74,0,0,0-1.33-5.78,51.72,51.72,0,0,1-3.22-14c-.2-2.37-.7-4.52,2.25-5.76,1-.42,3-2.81.48-3-3.83-.36-2.36-2.51-2.05-4a51.75,51.75,0,0,1,4.87-14.09c11.8-22.14,30-38.41,49.5-53.41,5.24-4,11.33-3.15,17-.23,7.73,4,13.43,10.26,18.85,16.85,10.6,12.88,19.2,27.19,29.21,40.49a23.87,23.87,0,0,0,14.8,9.31c3.71.79,8.05.75,10.18,5a1.08,1.08,0,0,0,1.65.47c8-4.26,17.42-5.06,25.3-9.79,1.24-.74,2.65-2.15,4.42-.79,2.51,1.92,4.31,1.35,5.16-1.67.45-1.59,1.75-1.79,3-2.28,6.93-2.8,13.88-5.55,20.75-8.48,2.23-1,3.85-1.2,6.23.28,6.06,3.77,12.14.21,12.05-6.88,0-1.49.32-2.11,1.43-2.65l25.16-12.43c.11,5,.56,9.26,2.15,13.35.52,1.32.63,2.25-1,3.19-3.09,1.8-4.54,4.67-2.45,8,1.94,3.08,5.09,3.65,8.33,2.13,1.37-.64,2.25-1.09,3.39.27,5.48,6.54,12.65,11.2,18.91,16.72-.43,1.53-1.68,1.86-2.6,2.5-26.71,18.63-36.66,43.33-29.71,75,5.34,24.36,18.59,44.32,36.15,61.48,16.14,15.78,34,28.24,57.18,32.45,35,6.36,72.83-13.42,79.95-51.45q1.36-7.35,2.89-14.68c.31-1.55.79-4.32,2.54-3.38,4.31,2.31,7.44,2.23,10-2.2.19-.33,1.27-.26,1.91-.18,12.31,1.54,24.11-1.72,36.11-3.5,11.55-1.71,23.29-2.1,34.44,2.56,4.15,1.73,8.14,3.92,7.89,9.59-.26,5.88,2.47,8.74,8.33,9.43,2.87.34,5.62-.58,8.91-.9a101.13,101.13,0,0,1-21.32,28.19c-3.58,3.28-6.61,7.48-11.83,8.56-.91,2.15-3.37,2.51-4.76,4.11a4.2,4.2,0,0,1-3.29,2h0c-8.77,5.65-18.64,8.42-28.62,11-4.28,1.08-7.6-1.87-11.49-2.49-1.79-.29-.45-3.28-1.06-5a9.5,9.5,0,0,0-7.16-6.25c-1.56-.37-3.08-.33-4.53-1.59-2.49-2.16-4.32-.76-5,2-.29,1.13-.35,2.17-1.35,3-3.28,2.77-3.57,6.53-2,10s-.23,3.8-2.73,4.09a235.27,235.27,0,0,0-24,4.37c-1.45,1.51-3.32.72-5,.92-13,4.13-26.21,7.32-39,12-22.51,8.2-44.62,17.21-64.78,30.4-4.48,2.93-8.76,6.06-10.7,11.43-1.71,4.75-.78,9.41,2.54,11.77s8.73,1.89,12.36-1.55a39.31,39.31,0,0,0,5.13-6.09,100,100,0,0,1,34.19-30.8c29.36-16.21,61.56-22.56,94.28-27.12,2.82-.4,2.68.55,2.33,2.94-.89,6.06,2.2,10.75,7,11.41,7.39,1,20.06-8.18,20.74-15.63.27-3,1.63-3.54,3.89-3.84a4.18,4.18,0,0,1,3-1.14c1.23-1.18,2.73-.83,4.19-.73,2.38.5,4.64.52,6.4-1.56s3-2.53,3.89.7c.38,1.35,1.76,1.92,3.3,1.26a3.08,3.08,0,0,0,2.15-3c-.09-4.84,3.42-6.88,8.31-4.82,3.23,1.37,7.34-.77,6.73-4s1.2-4.4,3.15-5.87c12.87-9.71,23.24-21.79,29.72-36.37,4.3-9.67,10.23-15.31,20.54-16.63a23.18,23.18,0,0,0,4.29-1.29c1.1-.37,1.93-.25,2.35,1,1.64,4.77,4.53,9,3.43,14.7-1.72,9,1.68,15.18,8.68,18.14,4.59,1.94,8.82.42,12.95-1.4,3.84-1.69,7.65-3.64,12-2.66,10,2.27,19.18.92,28.39-3.9s23.4.89,28.13,10.23a68.38,68.38,0,0,1,7.57,27.16c1.17,19.56,10,34.17,27.42,44,13.06,7.34,27.29,11.2,41.08,16.44,17.15,6.52,34.38,9.4,52.76,6.07,12.59-2.28,25.39-3.2,37.09-9.05,4.64-2.32,9.37-4.47,14.63-7-.43,3-2.21,4.44-3.15,6.29-4,7.8.56,16,9.31,16.65a14.41,14.41,0,0,0,9.9-2.65c3.24-2.32,6.41-4.84,9.95-6.61,7.88-4,14.94-8.64,19.27-16.67,1.59-3,3.74-3.33,6.42-.92a27.34,27.34,0,0,1,5,6.76c3.64,6.23,9.24,9.1,16.23,8.77s13.94-1.16,20.88-2c3.38-.41,6.69-1.67,8.18-5,3.25-7.3,9.18-12.13,15-17.07,4.2-3.54,7.78-7.81,8.46-13.18,1.4-11.18,5.07-21.63,8.78-32.12,1.33-3.78,1.84-8.14-.77-11-6.53-7.14-12.66-15.21-23.25-16.79a5.41,5.41,0,0,1-4-2.5c-2-3-4.12-6.06-6.29-9-1.25-1.7-1.45-2.78.93-3.58,6.75-2.26,12.43-6.34,17.6-11.08,2.22-2,4-1.8,6.55-.7,11,4.65,21.81,9.61,33.36,12.6-.26,2.12-3.07,3.82-1.61,5.47,1.29,1.46,3.77.23,5.68-.34,1.42-.41,3.21-.37,4.19-1.26,2.22-2,3.66-1.15,5.54.44a54.37,54.37,0,0,0,16.75,9.64c11.34,4.14,20,1.2,25.74-9.09a6,6,0,0,1,4.46-3.4,97.69,97.69,0,0,0,19-5.92,7.4,7.4,0,0,1,7.48.61c9.41,5.7,15.21,14.23,19.11,24.22,2.36,6,4.4,12.19,8.2,17.55,7.17,10.09,16.73,13.13,27.86,8.65a34.6,34.6,0,0,0,10.29-6.93c4.93-4.5,7.56-4.68,13.36-1.26a53.42,53.42,0,0,1,14.66,13.44c29.28,37.25,45.72,79.21,45.93,127,.08,18.84-3.93,36.64-14.17,52.73-2.41,3.79-5,7.51-7.05,11.47-3.39,6.42-2.42,13.32,2.15,18s11.36,6,17.92,2.88c10.08-4.82,14.44-13.57,14.93-24.16a355.4,355.4,0,0,0-2.14-59.87c-6.36-51.9-21.31-101.35-42.74-148.93a644,644,0,0,0-41-76.37c-1.44-2.31-1.18-3.34,1.09-4.56,4.52-2.45,8.83-5.32,13.44-7.6,8.42-4.18,17.22-7.12,26.85-6.24,12.8,1.16,22.09,8.42,30.38,17.45,4.75,5.17,8.43,11.15,12.69,16.68s12,6.8,17.31,2.86C1436.85,1419.69,1437,1415.06,1432.13,1408.2Zm-1002-752.55a1.47,1.47,0,0,1-1.35,1.17c-.69-.32-1-.9-.56-1.52s.94-1.19,1.37-1.16C430.31,654.2,430.33,655,430.13,655.65Zm33.62-12c-1.19-.43-2.63-.62-2.91-2.22-.16-1,.33-1.59,1.32-1.53a3.49,3.49,0,0,1,3.22,2.51C465.15,643.26,464.83,644,463.75,643.64ZM484,671.92c-.67-7.15-.94-13.45,1.26-19.54,2.58-7.14,8.09-8.56,14-3.7a31.27,31.27,0,0,1,2.82,2.82c2.64,2.77,3.43,4.88-.47,7.83C496,663.53,490.57,667.78,484,671.92Zm6.21,18.53c4.88.72,9.3,2.35,14.6,4.51C497.56,697.74,493.8,696.44,490.21,690.45Zm-35.73,472a33.07,33.07,0,0,1-3.73,4.67c-1.78,1.76-3.24,4.17-6.56,3.25-3.9-1.08-1.38-4.68-3.05-6.9a5.61,5.61,0,0,1,.92-2c4.32-4,5.69-9.28,6.74-14.65.63-3.27,1.82-2.32,3.47-1C457.17,1149.69,458.18,1157.07,454.48,1162.47Zm39.82,92.67c-1.05,1.55-2.36,1.27-3.88.56,1.2-.85,2-2.33,3.71-1.69C494.66,1254.21,494.6,1254.69,494.3,1255.14Zm-21.57-15.74,5-10.28a22.8,22.8,0,0,0,2.15-10.23c3.89,1.79,4.59,4.6,4,8l.83,1c1.28-1.89,1.69-4.33,4.47-6.46-1.2,2.8.61,4.23.81,6.09.29,2.71,3.08,2.6,4.54,4.2C487.72,1234.8,480.63,1236.91,472.73,1239.4Zm31.13-196.33c-6.91-7.34-6.82-7.43,3-9.73.81-.19,1.63-.28,2.44-.46,4.8-1.07,5.9-.25,5.95,4.87-1.35,1.49,1.07,5.93-3.91,5.33-.24,0-.66.31-.76.57C507.7,1051.45,505.59,1044.91,503.86,1043.07Zm24,243.12a19.66,19.66,0,0,1-5.35,7.61c2.11-6.2,3.2-11.53,1.21-17.17-2.43-6.89-6.34-12.25-12.91-15.7-3.47-1.82-5.77-4.23-1-7.57,2.5-1.76,2.83-4.6,1.72-7.2-1.19-2.81.12-4,2.3-5l2.11-1.22c.82-.56,1.64-1.13,2.48-1.66,7.46-4.62,7.56-4.65,10.16,4.07C532.86,1257,534.22,1271.7,527.83,1286.19Zm31.95,33.7c-1.56-.24-2.37,1.09-2.51,2.52-.31,3.24-2.69,1.56-4.13,1.67-2.41.2-1.15-1.62-1.18-2.68-.13-4.26-3.14-6.76-7.22-6-1.78.33-3.8,2.7-5.09-.8-1.21-3.29-2.91-6.72-.19-9.77a6.41,6.41,0,0,0,2-5.19c0-3.22,3-6.53,6.31-7.66,3.12-1.07,5,1.92,6.32,4.41,1.79,3.34,2.45,8.15,5.17,9.93,3.82,2.51,4.16,5.47,4.5,9.54C563.54,1317.84,563.67,1320.5,559.78,1319.89Zm495.59,151.18a7.38,7.38,0,0,1-5.22-2.4c-2.36-2.3-1.22-4.8.17-6.7,1.58-2.16,2.8.48,4,1.17,3.09,1.84,5.9,4.16,9.72,5.36A14,14,0,0,1,1055.37,1471.07Zm18.39-10.47c-1.34-1.82-2.48-3.35-4.07-5.52C1074.81,1454.73,1075.8,1456.47,1073.76,1460.6Z"/></g></g></svg>