<svg xmlns="http://www.w3.org/2000/svg" viewBox="0 0 346.71 75.14"><g id="Capa_2" data-name="Capa 2"><g id="Capa_6" data-name="Capa 6"><path d="M345.27,64c.63-.65-.4-1.46.47-1.87,1.76-.84.61-2.28.5-3.37-.05-.54-.44-.91,0-1.6a2.71,2.71,0,0,0-.48-3.56A5.52,5.52,0,0,1,344,50.85a1,1,0,0,0-.92-.85c.18,1.7-.91,2.26-2.34,2.47l-.71.11L337.8,52a.82.82,0,0,0-.57-.5.82.82,0,0,0-.5-.57h0a.29.29,0,0,0-.13-.33c0-.63,0-1.27.08-1.9a1.45,1.45,0,0,0,1-.46c1.42.36,2-.41,2.38-1.64.33-1,.51-2.49,1.84-2.48s1.09-.53,1-1.25a2.85,2.85,0,0,1,.52-2.51c1.69-2.12,1.42-2.67-.68-4.63-.17-.17-.35-.33-.51-.51a1.77,1.77,0,0,1-.25-2.35c1.35-2.45,1.29-2.48-1-4.45a1.74,1.74,0,0,1-.67-2.21c.24-.76.45-2.49-1.17-3a1.39,1.39,0,0,1,0-1.34c.19-.07.37-.16.28-.39s-.21-.13-.33-.18l-.49-.54h0a.36.36,0,0,0-.11-.39c-.08-.54-.55-.38-.87-.49-.1-.31,0-.72-.49-.82a.94.94,0,0,0-.82-.2c0-1.24-.41-2.1-1.92-1.83a2.61,2.61,0,0,1-1.16-.18c-.77-.25-1.41-.46-1.08-1.64.25-.88.32-2.09-1-2.49-.58-.17-.41-.5-.32-.89.38-1.68.36-1.67-1.2-2.16a4.37,4.37,0,0,0-2.08-.33,16.13,16.13,0,0,0-6.11-1h0a47.57,47.57,0,0,0-11.17-.88c-3.12-.74-6.35-.44-9.49-1h0A3.53,3.53,0,0,0,298.34,6,8,8,0,0,0,293,6h0c-.72-.55-1.63.26-2.19-.14-1.32-1-2.63-.54-4-.33a8.17,8.17,0,0,0-4.31-1c-.9-.69-2-.27-2.93-.41l-1,0h0l-8.17-.46a9.15,9.15,0,0,1-3.28-.46,22.15,22.15,0,0,0-7.75-1.05c-.55-.64-1.3-.47-2-.47-2.54,0-5.07,0-7.61.07h0a34.27,34.27,0,0,0-9.59-.5h0a57.27,57.27,0,0,0-6.8.36c-3.46.49-6.95-.15-10.42.06-.36-.4-.84-.36-1.32-.4-1.86-.14-3.69.17-5.58,0-3.34-.25-6.71-.06-10.07,0-.76,0-1.52-.65-2.28,0h0c-1.28-.57-3.09.74-4-1.14A.41.41,0,0,0,199.3,0c-1.37.83-2.9-.12-4.29.38,0,.67.67.2.88.74-1.21,0-2.35,0-3.48,0-.64,0-1.1.14-1.09.89l-.09.6c-1.74,0-3.49.84-5.18.35-2.59-.75-5.17-.31-7.75-.28-2.29-.05-4.61-.37-6.77.77,2.26,0,4.54.5,6.75-.37h0c1.78.55,3.31,1.66,5.4,1.56,5.07-.22,10.15-.11,15.23-.13l4.76.14h0c3.33.53,6.65,0,10-.07h0c-.95.89-2.12.21-3.16.45-.23,0-.42.15-.44.44a.43.43,0,0,0,.43.47c1.1,0,2.21.06,3.32.08l.42-.1a.54.54,0,0,0,.29.24,6.77,6.77,0,0,0-.71.26l-14.41.12h0c-2-.48-4.17.51-6.19-.33-.28-.12-.38.1-.57.22a5.58,5.58,0,0,1-6,.36c-.61-.27-.56.32-.68.65a4.53,4.53,0,0,0-1.36-.26,9.62,9.62,0,0,1-6-.61c-.53-.25-1.38-.57-1.71.53-.06.2-.69.23-1.06.34h0c-2.28-.23-4.5.32-6.74.54h0c-1.49-.14-3-.23-4.46-.43a11.41,11.41,0,0,0-6.09.79h0c-1.54.07-3.09-.48-4.62.07a3.28,3.28,0,0,1-2.71.12c-.46-.23-.89.13-1.3.35h0a17.18,17.18,0,0,1-6.74,0,1,1,0,0,0-1,.39h0l-1.4,0h0A10.23,10.23,0,0,1,138.52,9c-.34-.12-1.06-.14-1.1,0-.48,1.37-1.38.5-2.11.46l-2.11-.09c-.66-.65-1.5-.44-2.26-.41-3,.13-6,.31-9,.47-1.24.07-2.54-.24-3.71.47a.93.93,0,0,0-1,.41v0h0a6.72,6.72,0,0,0-1.17-.16c-3.44.23-6.88.48-10.33.73a57.26,57.26,0,0,0-8.17.49L85.18,12.74c-1.82-.23-3.53.41-5.56.61,1.08.52,1.94.23,2.76.35s1.59-.28,2.22.42h0l-2.3.06h0c-6.76.35-13.51.64-20.45,1.56.57.41,1,.42,1.22.82H61.15l0,0h0s0,0,0,0c-.38.52-.95.4-1.48.46-2.7.28-5.47,0-8.08,1-3.45.49-7,.57-10.43.78-4.12.25-8.24.87-12.39.65-.52,0-1.16-.31-1.68.44,3.85,0,7.59,0,11.33,0a10.09,10.09,0,0,0,1.9-.16A32.6,32.6,0,0,1,47.89,19c1.91.07,3.83,0,5.75,0,.63,0,1.3.12,1.79-.44h0a55.22,55.22,0,0,0,8.92-.24C67.92,18,71.46,18.16,75,18c.55,0,1.12,0,1.54-.45h0L78,17.47c.68,0,1.41.22,2-.39h3.7c.49.69-.37,1.29,0,1.78L89.46,18l3.36.09A1.94,1.94,0,0,0,95,19.45a14.87,14.87,0,0,1,2.11,0c.44.4,1,.16,1.51.33.42-1.3,1.21-.58,1.91-.34h0l3.37.55,0,.36h0c-2.31.92-4.73.54-7.11.56h0c-1.31.11-2.68-.43-3.93.38h0c-3,0-6.08.27-9.12.56-.82.09-1.73-.27-2.45.43h0a1,1,0,0,0-.41.05h0c-4.62.66-9.31.24-13.92.95h0c-3.87-.29-7.68.52-11.54.51-1.6.15-3.27-.47-4.81.42h0v0h0c-5.15-.25-10.27.54-15.42.54a4.39,4.39,0,0,0-1.82.44c-2-1-3.86-.4-5.74.52h3.3l.5.46c0,.15,0,.3,0,.45h0a3.5,3.5,0,0,1-2.28.49c-1.51,0-3,0-4.54,0a2.44,2.44,0,0,0-2.44,1h3.5c0,.15,0,.3,0,.46-.6.53-1.69.17-2.32,1.2a12.82,12.82,0,0,0,4.2.15c.44,0,.93-.5,1.3.05.53.79-.69.84-.71,1.5,1.08,0,2.12-.06,3.15,0s2.09-.39,3,.42h0c-1.94-.16-3.78.4-5.73.65.28.47.93.12,1,.7-1.15.42-2.81-.48-3.48,1.3a2.58,2.58,0,0,0,1.47.22c1.27.07,2.46-.65,3.77-.44.47.07.94.07,1.26.5-.69.24-.39,1.21-1.12,1.48a6,6,0,0,1-2.33.44c-.43,0-1-.2-1.22.32s.54.64.67,1.06h0a24.93,24.93,0,0,0-8.1,1h3.86a11.57,11.57,0,0,0-4.13,2.66c1.43-.64,1.54,1.22,2.67,1.16s2.51,0,3.8,0c-.22.82-1.14.16-1.51.85,1.76.25,3.45-.44,5.21.19a1.89,1.89,0,0,1-1.3.4,34.18,34.18,0,0,0-6.42.75,46.5,46.5,0,0,1-8,.69C9.82,46.59,4.93,46,0,47.07c.41.09.63.18.86.2,4.4.3,8.74-.7,13.14-.55.19,0,.39-.23.59-.36h0c2.12,0,4.25,0,6.37,0,1.47,0,3-.13,4.18,1,.89.44,1.51,1,.46,1.87h0c-2.92-.09-5.87.44-8.76-.35-.34-.09-.6.15-.81.4-3.9-.22-7.75.7-11.66.5A4.65,4.65,0,0,0,1,50.8a2.9,2.9,0,0,0,2.54.81c3.43,0,6.86,0,10.28,0,.63,0,1.3.12,1.78-.45h0c4.17-.34,8.29.73,12.46.46h0l5.73,0a1.11,1.11,0,0,1,1,.52h0l-.48.47H29c-.91,0-1.82,0-2.33,1.28,1.31.11,2.35-.55,3.44-.27a14.43,14.43,0,0,1,2.73.73c1.13.53,1.32-1.33,2.35-.78h0a26.81,26.81,0,0,0,5.3-.28c1-.11,2,.84,2.92-.18l.91-.08h.94c1.41-.17,2.82-.14,4.23-.33,1.24-.17,2.68-.58,3.82.64.34.38.82,0,1.22-.37s1-1.16,1.79-.37h0c-.07,0-.16.06-.19.11s0,.26.19.3h0a1.33,1.33,0,0,0,.45.07,2.43,2.43,0,0,0,2.93,0h0a64.94,64.94,0,0,1,7.62.33,13.78,13.78,0,0,0,6.41-.17,2.83,2.83,0,0,0,.41-.14,7.81,7.81,0,0,1,3,.28,1.51,1.51,0,0,0,1.74-.24h0l1.44-.1h0l1,.06h0c-.08.85-.67.91-1.35.93s-1.42-.19-2,.38a1,1,0,0,0,.09.13H78v-.13L69.37,55l0,.46h2.79c0,.15,0,.3,0,.45h0c0,.31,0,.63,0,1-1.11,1-2.41.12-3.63.33a31.55,31.55,0,0,1-7.77.62c-.33,0-.75-.16-1,.23,1.79,1,3.82.52,5.72,1-3.06,0-6.05.76-9.1.71-2.52-.17-5,.56-7.56,0-1.27-.29-2.49.42-3.77.44-5.46.13-10.92.36-16.37.45-1.54,0-2.95.74-4.49.54-1.13.17-2.35-.42-3.38.45h0a2.64,2.64,0,0,0-.4,0c-.19-.34-.38-.34-.58,0h0l-1.38,0c-1.07-.57-2.18,0-3.17.14-2.45.39-5,.11-7.47,1.11a2.54,2.54,0,0,0,1.67.25,50.77,50.77,0,0,0,9-.49h1.92c1.6-.19,3.28.48,4.81-.45h0l6.22,0c2.08,0,4.26.39,6.2-.12s4.07.66,5.9-.68c.33-.25.76.08,1.07.34s.67.46.85.23c.91-1.15,1.91-.22,2.86-.21a3.6,3.6,0,0,0,1.65-.23c2.57-1.25,5.22-.88,7.87-.3h0a6.82,6.82,0,0,0,1.88.21c1.16-.2,2-.28,2.79,1,.61,1,1.85.55,2.66-.73a.73.73,0,0,1,.79-.36c.33,0,.78.32.65.55-.55,1,.1.82.66.84,1.19,0,2.63-.32,3.51.23a6.44,6.44,0,0,0,3.85.68h0c2.45.17,4.9.12,7.35.36s5.07.59,7.54-.36h2.88l1,0,.25,0a1.66,1.66,0,0,0,.75.27c.42.07.83.12,1.25.15a2.32,2.32,0,0,0-.77.61c-1.71.86-3.56.25-5.33.51a.88.88,0,0,0-.95.41h0a3.65,3.65,0,0,0-2.29-.44,23.18,23.18,0,0,1-4.19.28,125.69,125.69,0,0,0-13.58-.3c-1.66,0-3.31.06-5,0-2.18-.09-4.32.66-6.51.23,0,0-.11.11-.16.16a59,59,0,0,0-8,.27,74.14,74.14,0,0,1-11.61.74c-.54-.64-1.29-.4-2-.44h0l-.5,0a.89.89,0,0,0-1,.4,3.57,3.57,0,0,1-.46,0h0a.56.56,0,0,0-.5-.4l-.48.45h0a18.29,18.29,0,0,0-5.43.18,2.41,2.41,0,0,1-2-.33c-1.67-1.26-3.34-.89-5-.19.12.58.78.16.91.73-2.09.39-4.32-.34-6.67.56a8.12,8.12,0,0,0,4.72,1c3.24-.25,6.49,0,9.76-.24a71.13,71.13,0,0,1,7.11.21h0l.49,0h0c1.9,0,3.8,0,5.7,0,.69,0,1.44.18,2-.44h0l11-.07h0c4.1.37,8.21,0,12.31,0,2.22,0,4.45,0,6.67,0,.69,0,1.52.18,1.63-.89,0-.17,0-.33.07-.5h0c2.53,0,5.15-.51,7.56-.23,3.11.37,6.14,0,9.2.14,1.13.79,2.45.61,3.68.55,2.17-.1,4.39.41,6.51-.43h0a39.78,39.78,0,0,1,4.49.2c3.71.61,7.4,1.61,11.23,1.12h0a23.43,23.43,0,0,0,4.81,0h0c1,.55,2,.86,3,.08h0a33.07,33.07,0,0,1,5,.33,3.72,3.72,0,0,0,3.2-.34h0l.92-.05,1,0h0c2,.72,4.23.06,6.21,1h1.92c1.69.08,3.42.42,4.87-.87h0l.15,0,.16,0h0c1.16,1,2.66.37,3.94.81h0a10.15,10.15,0,0,0,5.27-.36h0c.81.83,1.24.47,1.49-.48h0a2.59,2.59,0,0,0,1.56.44c2.47-.51,5-.33,7.49-.52h0c2.84.2,5.72-.38,8.53.4.16,0,.4-.22.61-.35h0c.75,0,1.41.54,2.26.11a3.31,3.31,0,0,1,2.61.1,5.07,5.07,0,0,0,4.3-.17h0l.82,0c.21.28.4.32.54,0h0c1.28.35,2.67-.3,3.91.42h0l-.06.5h0l0,.1c-.78,0-1.56,0-2.34,0-.43,0-.83.1-.59.65.15.36.47.73.89.52.63-.31,1.16-.82,1.94-.57h0c.24.3.56.79.89.65,1.59-.68,3.4.16,4.94-.77.77.76,1.55-.2,2.33,0a.65.65,0,0,0,.57.4h0a10.33,10.33,0,0,1,3.24-.32,20.58,20.58,0,0,0,5.54,0,7.9,7.9,0,0,1,5.13.3h0c.91.85,1.79-.13,2.72,0,2.48.23,5,.95,7.45-.08.23-.1.41,0,.62.16,1.53.92,3.11.62,4.69.14,2.33,0,4.61,1,7,.37.58-.16,1,.39,1.52.49l.48-.07a14.46,14.46,0,0,1,7-.12c.92.17,2,.78,2.63-.62a2.52,2.52,0,0,1,1.4.19c.51.23,1.08.34,1.48-.26,0-.93-.6-.48-1-.49H249.3l.07-.09h0c.38-.54,1-.36,1.51-.51h0l2.74,0a50.88,50.88,0,0,0,8.28.1h0c3.18.09,6.3.79,9.46,1.08h0c-.24.39-.37.72.29.78,2,.18,4,.45,5.93.52a23.45,23.45,0,0,0,5.61-.19,5.84,5.84,0,0,0-2.9-.34c-.38,0-.54-.26-.31-.63h0a26.27,26.27,0,0,0,5.81.14,21,21,0,0,0,7.2.48l.83.08c1.26.71,2.64.2,4,.38h0a5.93,5.93,0,0,0,2.41,0,7.85,7.85,0,0,0,2.55.44,53.45,53.45,0,0,1,8,.65c-.07,1.2.93,1.1,1.62,1.22s1.63-.09,2.32.31c2.06,1.19,4.17.73,6.3.34,2.19.28,4.38.71,6.57.77,1.94.06,3.94.48,5.85-.32l1.85,0h0c1.1,0,2.19.08,3.29.09.36,0,1,.07,1-.35.2-1.33,1.79-1.74,1.94-3.07.19-.46-.3-1.25.53-1.39,1.62-.26,2.33-1.52,3.08-2.66-.3-.67-1.38-.31-1.51-1.19.79-1,2.27.14,3-1C346.36,64.34,344.91,64.38,345.27,64ZM29.09,28.35l.29-.07c.24,0,.47,0,.7,0A5.39,5.39,0,0,1,29.09,28.35ZM72.55,66.69l-.22.07a1.57,1.57,0,0,1-.31-.08Zm51.08.44a1.05,1.05,0,0,1-.07-.11h.06A.45.45,0,0,1,123.63,67.13Zm-19.92-8.35a11.27,11.27,0,0,0-3.07-.55,16.61,16.61,0,0,0,3-.79.08.08,0,0,0,0,0,1.79,1.79,0,0,0,.55.47l.17,0a.74.74,0,0,0,.42.32A1.9,1.9,0,0,0,103.71,58.78Zm-12.42,0a4,4,0,0,0-1,.06,1.47,1.47,0,0,0-.62.28,1.32,1.32,0,0,1-.2-.12c-2.09-.12-4.18-.12-6.13-.08,1.3,0,2.67-.09,4-.06,1,0,2.1.14,2.92-.7a1.9,1.9,0,0,0,.09-.29l0,0a2.12,2.12,0,0,0,1.32.94Zm38.83-16.26a2.67,2.67,0,0,0,.7.44L130,43a6.18,6.18,0,0,1-1,0A5,5,0,0,0,130.12,42.49ZM116,64.05l0,0h0ZM96.65,53.52c.14.19-.08.06-.1-.08l.09,0S96.63,53.5,96.65,53.52Zm7.72-8.14ZM97.14,55a.46.46,0,0,1-.14.22.72.72,0,0,1-.12-.21ZM130.08,65Zm-.83-10.27c-.18,0-.34,0-.51,0a5.08,5.08,0,0,1,.68,0A.85.85,0,0,0,129.25,54.75Zm-6,.44h0Zm-5.88-43.5.09,0h-.09Zm-14.56.75a.65.65,0,0,1,.2,0Zm3.52.34Zm.93,7.67-.31.11.06-.11ZM92.8,53.17l0,0,.09,0Zm-17.88,6c0,.06-.12.11-.31.15,0,0,0,0,0-.06Zm7.23-3.15a3.93,3.93,0,0,1-2.72-.1A20.55,20.55,0,0,0,82.15,56.07Zm41.19-12.9c1.42-.14,2.89.11,4.32,0a1.54,1.54,0,0,0-.29.23h0c-1,.74-2.47-.45-3.41.72-1.24-1.25-2.8-.52-4.22-.67h0a.71.71,0,0,1-.28-.22h.32C121,43.18,122.18,43.28,123.34,43.17ZM115.83,12h0Zm-22,5.06v0l0,0Zm2,17ZM96.2,28v.06a1.06,1.06,0,0,1-.2.17A2.2,2.2,0,0,1,96.2,28Zm1-.13a.7.7,0,0,1,.2.08,1.55,1.55,0,0,0-.23-.06Zm-17,13a.83.83,0,0,0,.15.23l0,.19-.13-.05c-1.36-.51-2.73,0-4.09-.07-.37.05-.72.21-1.08.27a1,1,0,0,1-.43-.28l.06-.09c.29-1.76,2-1,3-1.69,1.2,1.49,2.86.53,4.31.7a4,4,0,0,0,1.15-.27C82.34,40.51,80.85,39.47,80.24,40.85ZM43.47,44.17a4.8,4.8,0,0,1-.57.11l-.22,0a.41.41,0,0,0-.22,0l-.69-.12a.9.9,0,0,0-.64.18c-.28-.27-.41-.53.15-.73s1.19-.35,1.35-1c2.5,1.23,5.09.25,7.63.27a23.74,23.74,0,0,0-5.92.93C44.05,43.91,43.77,44.05,43.47,44.17ZM33,37.29a.16.16,0,0,0,0-.11C32.81,36.92,33.24,37.18,33,37.29Zm40-6.47v0S73,30.83,73,30.82ZM58,38.61l.06,0,.07,0h0C58.28,38.84,57.72,38.66,58,38.61Zm10.28-3.25,0-.1h.14A.43.43,0,0,1,68.24,35.36ZM45.79,39.12h0l0,0Zm-.49-3.35v0h0Zm3.87-3.88h0ZM41.8,38.17A1.22,1.22,0,0,0,42,38c0,.06,0,.12,0,.18Zm3.9,1s.06,0,0,0l0,0,0,0-.13.07Zm9.6-9.69s0,0,0,.07a1.46,1.46,0,0,0,1,.3,4,4,0,0,1,.65-.14c.07.11,0,.27-.24.53,0,0,0,0-.06.05-.39,0-.78,0-1.17,0a21,21,0,0,0-4.34.21,2.32,2.32,0,0,1-.46.18,1.26,1.26,0,0,0-.64-.18H49.2A47.22,47.22,0,0,0,55.3,29.51ZM40,32.37l0,0a.06.06,0,0,0,0,0l0,0Zm-3.51-5.92h0ZM51,42.3a.24.24,0,0,1,.08.18v.16l-.15.13-.23,0A2.9,2.9,0,0,1,51,42.3Zm2.74-.14s0,0,0,0a.54.54,0,0,1,0-.32c.35,0,.69.09,1,.16.52-.05,1.05-.08,1.58-.14a5.17,5.17,0,0,1-1.7.23A2.78,2.78,0,0,1,53.73,42.16Zm7-1.1c-.75.07-1.8-.4-2,.9l-.05,0a.9.9,0,0,0-.08-.21,2.47,2.47,0,0,0-1.12-.18,4.21,4.21,0,0,0,1.91-1,3.51,3.51,0,0,0,1.47.44ZM63.82,41c.23,0,.45-.11.67-.17v0L64,41l-.72,0-.93,0A10.19,10.19,0,0,1,63.82,41Zm17.86-9.36a16,16,0,0,1,3.1.15,4.9,4.9,0,0,0-1.71.4,2.42,2.42,0,0,1-1.6.27,2.69,2.69,0,0,0-1.4.19l0,0c-1.49-1.1-3.21-1-5-.77a13.31,13.31,0,0,1-2,.34,1.24,1.24,0,0,1-.4-.3h0c.79-.08,1.67.07,2.2-.66a7.58,7.58,0,0,0,.82.21C77.7,31.76,79.7,31.56,81.68,31.64Zm-32.6-6.2ZM47.35,30.5a49.14,49.14,0,0,0-6.53.53c-.86.14-.3-.31-.43-.48a1.24,1.24,0,0,0-.33-.32c2.34.05,4.67.1,7,.26ZM35.09,53.38a.34.34,0,0,1,.14.15Zm8.78-2.28h0Zm12.18-1h0l-.09.08S56,50.12,56.05,50.09Zm13-5.14a2.13,2.13,0,0,0-1.78.86,3.1,3.1,0,0,0-3.43.06,8.68,8.68,0,0,1-4.49,1.21,6,6,0,0,0-1.91.33c-.31-1.55-1.72-1.45-2.65-1.13-2.45.84-5.05.57-7.49,1.32a2.24,2.24,0,0,1-1.92-.26,1.8,1.8,0,0,0-2,.49l-.07.08c0-.13,0-.26,0-.39a8.37,8.37,0,0,0-4.48-.59c1.22-.64,3.09.82,4.13-.89a1.27,1.27,0,0,0-.13-.19h.09c.32,0,.64.49,1,0h0c.62,0,1.36.22,1.84,0,1.39-.74,2.78-.41,4.18-.27a35.33,35.33,0,0,0,4-.27c2.11,0,4.25.56,6.3-.39,0-.16,0-.31,0-.47a1.14,1.14,0,0,0,1-.48h0c1.57.09,3.16-.23,4.63.74a2.55,2.55,0,0,0,2.33,0c2-.88,4-.73,6.11-.71a10.09,10.09,0,0,0,4.22-.59l0,0a3,3,0,0,0,.21.64,3.56,3.56,0,0,0,3,.56c3.07-.59,6.15-.28,9.23-.37a7,7,0,0,0,3.26-.45,2.4,2.4,0,0,0,.22-.24c1.15,1,2.49.6,3.79.47a8.86,8.86,0,0,1,2.94-.32,2,2,0,0,1,.36.23h0c-.75.25-1.49.52-2.25.73-1.38.39-2.75,1.41-4.2.14a.34.34,0,0,0-.56.18c-.42,1.71-1.92,1-3,1.38-1.9-1.63-6.12-2.28-8.65-1.23l-.19.32h-.22a.33.33,0,0,0-.16-.19A1.37,1.37,0,0,0,81,45.09l-.38.37a2,2,0,0,0-.69.59,3.75,3.75,0,0,1-1,.55,1.31,1.31,0,0,0-.11.12C75.78,45,72.44,44.88,69.07,45Zm9.31,4v0H78.1Zm15.47,9.83a1.63,1.63,0,0,1-1.65.14l-.43-.1a6.74,6.74,0,0,0,2.53-.27h0A3.22,3.22,0,0,0,93.85,58.77Zm10.86,5.71a1.16,1.16,0,0,1-.4.09.82.82,0,0,0-.76-.11l-.25-.09a1.26,1.26,0,0,0-.61.09c-1.36,1.08-2.62-1-4-.12a.74.74,0,0,0-.16.19c-.34-.15-.68-.32-1-.46,2.18,0,4.35-.27,6.52-.47a1.25,1.25,0,0,0,.74.3c.35,0,.65-.23,1-.16C105.81,64.5,105.06,64.18,104.71,64.48Zm37.8-.14h0Zm101.1-56.9-.05,0v0Zm-22.9-2.19a4,4,0,0,0,.74.3,9.32,9.32,0,0,1,.9.27h-.13a32.76,32.76,0,0,1-3.57-.06.41.41,0,0,0-.12-.32l0-.12a1.9,1.9,0,0,0,.38.13A2,2,0,0,0,220.71,5.25ZM210,68.49h0v0l0,0ZM271.3,69.9v0Zm7.32,0a.16.16,0,0,0,.07.07.48.48,0,0,1-.17,0Zm43.18,2h0Z"/><path d="M25.32,20.12a1.7,1.7,0,0,0-1.86.14A2.38,2.38,0,0,0,25.32,20.12Z"/><path d="M60.72,16.2s-.1.15-.15.23l.57.11A.43.43,0,0,0,60.72,16.2Z"/></g></g></svg>