<svg xmlns="http://www.w3.org/2000/svg" viewBox="0 0 292.62 345.2"><g id="Capa_2" data-name="Capa 2"><g id="Capa_1-2" data-name="Capa 1"><path d="M266.25,130.62c-1.49-2.09-2.92-4.27-5.2-5.56-1.57-.89-2.43-2.28-3.57-3.51-1.78-1.92-1.46-5.29-4.12-6.17-3.08-1-3.88-3.6-5-6-1.3-2.9-2.43-5.87-3.65-8.8a2.23,2.23,0,0,0-2.11-1.65,2.69,2.69,0,0,0-2.51,1.86c-.82,1.6-.18,3.09.1,4.66.34,1.87,0,3.91-2.31,3.86-1.94,0-2.27.46-2.66,2.18-.1.48-3.88,1-4.19.46-2.06-3.56-4.88-4.08-8.55-3.34-2.65.53-4-.54-5-3.15-1.28-3.34-1.94-3.7-4.54-1.55-1.69,1.4-2.8,1.7-4.4.06-1.23-1.26-2.58-.82-3.81.29-3,2.68-3,2.67-6,.78-2.27-1.43-3.5-1-3.65,1.73-.13,2.34-1.07,4-3.22,3.85-2.57-.13-4.18,1.18-5.93,2.77a13.29,13.29,0,0,1-.49-1.51c-1.05-5.16-4.33-6.86-9.05-4.64-.57.27-1.06.72-1.63,1s-1.21,1-1.48,0c-.8-3-3.73-.78-5.33-2.26,1.06-2.79-.15-4.53-2.74-5.65-1.35-.58-2.92-1.55-2.36-3.14.89-2.54-.94-3.41-2.21-4.68-2.12-2.15-5.34-2.74-7.43-4.68-1.69-1.56-2.78-1.88-4.41-.56a2.37,2.37,0,0,1-3.46,0c-2.17-2.28-4.24-4.76-5-7.88a60,60,0,0,1-.94-7.56c.09-.6.32-1.35-.45-1.56s-1.06.4-1.08,1.08,0,1.54,0,2.31c-1.57,2.18-3.28,4.25-2.87,7.29.19,1.45-.85,1.88-2.21,1.39a10.31,10.31,0,0,0-2.71-.86c-3.3-.22-5.11-1.86-6.14-5-.82-2.53-2.38-4.81-2.48-7.63a1.38,1.38,0,0,0-1.31-1.45,1.37,1.37,0,0,0-.69.15c-.89.43-.42,1.4-.12,2.11.37.88.82,1.72,1.24,2.58a7.68,7.68,0,0,1,1.19,4.5c-.24,2-1.1,3.17-3,2.67-5.08-1.35-8.4,1.06-11.55,5,1-4.78-4-6.31-4.81-10.23,3.14-.59,4.12-4.24,7.19-5a23.12,23.12,0,0,0,1.6-14.88,2.44,2.44,0,0,0-.47-.83,23.93,23.93,0,0,0-8.67-7.34c-3.82-1.81-7.86.3-11.82.19-.91,0-1.52,1.07-2,1.92a7,7,0,0,1-2.92,3.07c-.89.47-1.8,1.13-1.67,2.14.38,3-2.08,4.4-3.61,6.5,3.19.61,4.18,2.62,3.82,5.25s.93,4.21,2.89,5.55c.82.56,1.87.9,2.43,2-2.67,1.64-6.32,1.82-6.87,5.71,0,.33-1.13.46-1.67.79-.38.23-1,.8-.91,1,1.4,3.25-1.39,4-3.88,5.28,2.55,1.57,4,3.19,3.2,5.94a1.44,1.44,0,0,0,2,1.7c-1,1.65.62,2.35,1.3,3.34a3.56,3.56,0,0,1,.15,4.36c-1.38,1.77-2.39-.26-3.53-.77-.29-.12-.55-.29-.83-.44a24.26,24.26,0,0,0-4.65-10.23l2.31,9.45c-1.09.92-2.18,1.87-3.29,2.77-1.54,1.23-2.41,1-2.93-1.07-.3-1.21-1-2.29-.85-3.63.19-1.63-1-1.88-2.14-1.73-2.06.28-.1,1.26-.23,1.89-.3,1.56-.68,3.11-1.13,4.63-.52,1.67-2.26.64-3.29,1.32a14.88,14.88,0,0,1-3,1.53c-1,.36-2.42,1-3.21.26-1.61-1.55-3.72-.76-5.26-1.49-3-1.4-4.34-.19-4.78,2.37s-1.93,2.61-3.77,2.69a7.43,7.43,0,0,1-3.72-.61c-1.27-.63-2.53,0-2.34,1.33.46,3.34-1.9,4.18-4,5.56-2.62,1.68-5.83,2.41-8.16,4.83.52.63.89,1.14,1.32,1.59,2.67,2.78,2.78,4.55.15,7.25-1.29,1.33-2.55,2.94-4.85,2.51-.95-.17-2.14,0-2.15,1.2,0,.69,1,1,1.87,1.15,3.77.65,3.59.7,3.67,4.36A4.54,4.54,0,0,1,21.53,142c-.83.56-2,1.21-1.36,2.63,4.86.44,7.13,1.58,8.74,4.37,1.08,1.88.48,2.95-1.74,3.65-1.77.56-3.88.21-5.28,1.84-3.28,3.83-2.45,9.54,2,11.81,2.37,1.2,5.1,2.1,7.63-.14,1-.86,2.1-1.46,3.38-.32a.84.84,0,0,0,1.24-.27c.46-.72.06-1.12-.64-1.37-.39-.15-1.26-.14-1-.71.85-1.83.08-3.74.49-5.55.11-.5.79-.3,1.24-.15,0,4.36.13,4.5,4.88,4.07a16.63,16.63,0,0,1,1.92,1.2c-1,1.86-.18,2.17,1.48,1.76.46-.11.91-.3,1.36-.43,1.31-.38,1.65.64,2,1.48a1.55,1.55,0,0,1-.56,2c-1.39,1.15-3.07,1.76-5.8,2.51,7.07.83,7.07.83,8.58,6.08-.26.18-.77.43-.74.52.7,2.21.72,3.42-2.36,2.8-1.33-.27-1.89,1.47-1.21,2.86.47.94,1.55,1,2.42,1.33l-1.88,1.25c-2.74-1.06-2.55,2.83-4.78,2.9-.85-2.21-.26-4.46-.57-6.63s0-4.56-1.92-7c-.12,1.27-.41,2-.19,2.44,1.33,2.73.56,5.63.91,8.42s-2.94,4.92-1.29,7.85c-2,.85-3,3.25-5.27,3.77-.21.38-.55.69-.91.33s0-.68.32-.93c.4-2.43-.93-5.56,2.86-6.34a3.53,3.53,0,0,0-1.84-1.88c-2.53-1.45-4,1.06-6,1.56-3.69.92-4.22,2.11-4.44,5.76-.12,1.9.87,4-.14,5.63s-3.7,0-5.11,1.73c-.21.88,2,1.37-.06,3.14-2.26,1.9-5.18,4.8-2.51,9,.92,1.43.47,3.75-.22,5.59-.27.7-.25,1.66-1.24,1.88-3.11.67-2.73,2.25-1.05,4.1s1,3.66.17,5.51c7.64,1.71,6.91,2,6.12,7.68,1.46-.14,2.78-.48,4.35.07,1.76.62,1.67,2.11,2.58,2.87,1.26,1.05,2.57-1.68,4.23-.66.95.58,1.91,1.13,2.84,1.73s1.31,1.86,2.65,1.73c2.64-3.81,2.51-3.85,6.86.11-1-3.6.82-5.38,3.37-6.78a18,18,0,0,0,2.25-1.74l2.42.86c0-2.69,1.18-4,4-3.79,2,.19,3.6.26,5-2s4.46-2.14,6.6-.71c.93.62,1,1,.89-.42-.1-1.8,1.24-2.1,2.58-1.72a2.17,2.17,0,0,1,1.71,2.56,1.71,1.71,0,0,1-.13.44c-.28,1-1.3,1.8-.45,3-2.91,0-2.93,2.91-4.91,4.53,2.27-.1,3.41-2.14,5.32-1.41,1.11,1.28-.46,3.33,1.42,5.09.8-3.47.86-6.12-1.73-8.21,1.27-.41,1.75-2.14,3.43-2.12,1.2,1.32,1.7,3.68,4.23,3,.47,2.56,3.31,2.45,4.64,4.08.86,1,2.2,1.07,2.79-.1,1.24-2.44,3.16-2.51,5.17-1.66s3.11-.52,3-1.67c-.32-2.33.55-2.67,2.48-2.72,1.56,0,3.3-1.66,4.39.78s-1.38,2.39-2.28,3.44c-.28.32-.3.48.27.73,1.66.24,2.85-.75,3.92-2,.64-.73,1.63-.83,2.06-.17,1.55,2.35,4.76,3.66,4.51,7.13-.53.13-1.55-.26-1.4.68.27,1.6,1.89,1.41,3,1.74s1.84-.15,1.8-1.44a11,11,0,0,0,5.19,1.62c2.92.12,6-.8,8.88,1.08a3.31,3.31,0,0,0,4.33-.69c.36-.45,1.39-.8,1.71-.35,1.58,2.24,3.9,2.82,6.33,3.57,1.45.45,1.44,2.44,1.22,3.85a34.28,34.28,0,0,1-1.35,6.5,4.16,4.16,0,1,0,7.73,3.06,1.57,1.57,0,0,0,.09-.23,21.69,21.69,0,0,0,.85-2.25,36.56,36.56,0,0,1,5.47-9.75c4.59-5.82,11.65-8.89,17.73-13.67-1.46,6.38-.69,12.56,5.61,15.12a17.86,17.86,0,0,0,7.35,1.52c2.17-.08,2.67-2.08,4-3.06s2.65-2.17,4.46-3.68c1.42,4,5,5,7.94,6.8.66.39,1.42,1.27,2.12.81,2.7-1.73,6.59-2,7.59-5.87.7-2.7,2.6-4.3,4.91-5.58a21.85,21.85,0,0,1,7.69-2.57c4.84-.65,8.36-2.92,10.57-7.26.51-1,.94-2.16,2.31-2.06,2.52.2,2.82-1.51,3-3.33.3-2.66.3-5.37,1.57-7.85a2.47,2.47,0,0,0-.06-1.85c-1.56-3.37-1.61-7.42-4.64-10.17-1.47-1.33-1.68-3.31-2.17-5.18-.42-1.58-.27-2.62,1.29-2.78,6.85-.7,12.22-6.13,19.42-5.87,2.36.08,4.23-3.22,3.87-5.79-.27-1.9-2-2.89-4.9-2.67A13.2,13.2,0,0,0,247.8,188a95.79,95.79,0,0,1-10.25,5.09c-2.59,1.07-5.51,1.86-7.22,4.46-.72,1.09-1.8,1.15-3,1.13-3.44-.05-6.69.51-9.33,3-.75.71-1.68,1.09-2.48.11s-1.53-1.89-.6-3c2-2.34,2.62-6,6.45-6.53.7-.1,1.65-.3,1.75-1.34s-.59-1.69-1.57-2.08c-.67-.27-1.61-.32-1.69-1.77,1.84-.9,3.93,1,5.81-.25a5.52,5.52,0,0,1,5.09-.28c2.09.81,3.38-.28,4.58-1.61,5.61-6.2,4.25-15.28-3.11-19.13-4-2.07-8.13-4.85-12.81-1.26-1,.78-1.72-.17-2.34-.91s-1-1.58-.32-2.14c2.86-2.41,4.74-6.19,9-6.68,1.41-.17,2.79-.07,4-1.09s-.6-2.88,1.34-4.06c2.63,1.94,5.78,3.24,9.1,1.44,2.64-1.43,4.91-2,7.27.43.69.69,1.83.22,2.78.21,4.23-.07,6.74-3,9.79-5.34,4.35-3.29,5.89-7.65,6.57-12.7A3.91,3.91,0,0,0,266.25,130.62ZM69.63,103.71c-.57.39-.94-.1-.87-.47s.59-.6.95-.85.55-.06.63.37C70.51,103.38,70,103.48,69.63,103.71ZM81.12,93.07a1.83,1.83,0,0,0,.34-.7c.1-.93-1.18-2.16.57-2.67.2-.06.73.52.91.91C83.79,92.51,82.31,92.69,81.12,93.07Zm12.48,9c-.8,1.2-2.28.43-3.67-.78,2.3-1.39,3.26-4.34,6.59-4C97.24,99.85,94.6,100.59,93.6,102.09Zm79.62,19.48a3.69,3.69,0,0,1,.55-1.31c1.17-1.89.63-2.92-1.24-4.21-2.85-2-2.6-4.07.23-6.77,1.78,7.41,2.17,7.79,9.08,8.33-.68,2.16-1.32,4-1.8,5.8-.53,2.07-1.38,3.68-3.89,3.1C174.28,126.08,172.88,123.65,173.22,121.57Zm28.84,112.67h0c-2.4.57-4.76,1.52-7.49.91.76,1.65,1.58,3,.29,4.3-.64.66-1.36,1.45-2.43,1.15s-.82-1.17-1-1.94c-.82-3.74-2.53-5.17-6.33-5.67-2.8-.37-5.58-1.45-8.5.42a4.2,4.2,0,0,1,2.72-3.63c3.66-1.42,6.31-4.78,10.41-5.28a2.44,2.44,0,0,0,.86-.37,16.82,16.82,0,0,1,9.44-2.37c3.34.27,4.38,1.5,3.1,4.52-.7,1.67-.26,2.58.57,3.84C205.4,232.69,205.08,233.52,202.06,234.24Z"/><path d="M201.18,332a20.92,20.92,0,0,0-6.48-2.68c-2.27-.38-4.21,1.23-5.86,2.78a17.59,17.59,0,0,0-2.49,2.89,7.38,7.38,0,0,0,.48,8,6.28,6.28,0,0,0,6.91,1.84c1.65-.57,3.18-1.49,4.84-2,3.15-1.06,3.42-3.85,4.27-6.48C201.84,335,202.78,332.88,201.18,332Z"/><path d="M274,109.87a8.82,8.82,0,0,0,9.43.82c3.25-1.58,3.7-4.55,4.06-7.41,0-6-5.55-9.31-11-7.24-2.76,1-2.71,3.68-4.23,5.37-.78.87-2,1.93-1.32,3.33C271.79,106.55,272.5,108.79,274,109.87Z"/><path d="M252.28,60.69c3.93-1.63,4.69-3.54,3.19-8.95-.37-1.33-.76-2.07,1.09-2a1.45,1.45,0,0,0,1.62-1.26s0-.06,0-.09a1.42,1.42,0,0,0-1-1.44c-.84-.35-1.94-.12-2.09.56-.4,1.86-1.25,1.89-2.65,1.13-1.61-.87-3.36-.81-5.65-.66-.42,0-1.37-.1-2.32-.11-.68,0-1.46.39-1.33,1,.4,2-.73,3.73-.64,5.63C242.76,59.81,247.4,62.72,252.28,60.69Z"/><path d="M151.31,68.11h.34a7.53,7.53,0,0,0,7.65-7.39v-.12c0-3.09-3.22-6.65-6.24-6.79-3.9-.18-8.29,4-8.21,7.79A6.5,6.5,0,0,0,151.31,68.11Z"/><path d="M267.56,164.39c-4.55.23-5.47,1.25-5.25,5.83.12,2.53,3.71,5.46,6.46,5.28a5.93,5.93,0,0,0,5.25-6.28C273.78,166.27,271,164.22,267.56,164.39Z"/><path d="M160.82,37.75l.18-.11c1.59-1.06,2.68-2.09,4.79-.77,1.3.81,2.68-.38,3.19-1.93-.32-1.9-1.73-3.27-3.27-2.85-2.26.62-3.63-.43-5.21-1.44a3.15,3.15,0,0,0-3.59-.1,4.34,4.34,0,0,0-1.77,5.8A4.13,4.13,0,0,0,160.82,37.75Z"/><path d="M252.5,67.52c-1.95-.12-6.11,3.52-6,5.26.14,2.31,2.81,4.77,5.35,4.92a5.11,5.11,0,0,0,.65-10.18Z"/><path d="M284.9,172.75a4.62,4.62,0,0,0-4.47-4.77h-.29a4.72,4.72,0,1,0-.07,9.44C283,177.4,284.86,175.63,284.9,172.75Z"/><path d="M192.71,301.57c-.06-2.61-1.39-3.68-4.44-3.59s-4.47,1.15-4.39,3.59c.1,2.84,2,5.09,4.46,5.18S192.79,304.53,192.71,301.57Z"/><path d="M89.11,248.71c-1.15.66-1.85.48-2.86-.45-2.82-2.61-2.79-2.45-5.06.57-1.23,1.64-1.08,2.87.28,4.15s3.46,2.08,4.64.46c1.6-2.21,4-3.45,5.81-5.42C90.65,247.47,89.89,248.26,89.11,248.71Z"/><path d="M286.6,238.4c-1.66,0-3.88,2-3.92,3.57s1.85,3.19,3.56,3.24a4.06,4.06,0,0,0,3.88-3.55A3.64,3.64,0,0,0,286.6,238.4Z"/><path d="M33.8,87.56c.77,0,1.73.18,2-.76a1.78,1.78,0,0,0-1.27-2.17l-.06,0a22.92,22.92,0,0,0-9.94-1.44C26.76,87.57,30.37,87.36,33.8,87.56Z"/><path d="M164.68,276.76a2.22,2.22,0,0,0-2.29,2.15,3,3,0,0,0,0,.42c.33,1.67,1.73,2.22,3.31,2a6.79,6.79,0,0,0,5.81-4.29C169.27,274.78,166.91,276.58,164.68,276.76Z"/><path d="M13.32,113a2.79,2.79,0,0,0,0-.5,3.23,3.23,0,0,0-3.59-2.85h-.1A3.14,3.14,0,0,0,6.46,112c-.34,1.4,2,3.27,3.86,3.28A2.67,2.67,0,0,0,13.32,113Z"/><path d="M67.51,90.33c.64,1.41,1.3,3.5,3,3,2.1-.63,1.46-2.72.85-4.38-.3-.38-.6-.77-.91-1.15s-.37-.51-.59-.73c-.75-.76-1.47-1.92-2.7-1.09-.87.59-.58,1.69-.32,2.6A12.37,12.37,0,0,0,67.51,90.33Z"/><path d="M103.32,241c-1.28,0-2.26.64-2.12,2a7,7,0,0,1-1.1,4.51c1.56-.61,2.73-1.73,4.28-1.91,2-.23,1.31-1.86,1.3-2.81C105.67,241.5,104.53,241,103.32,241Z"/><path d="M133.1,268.94c-1.45-.14-3.27,1.67-3.06,3,.27,1.67,1.65,1.67,2.91,1.74a2.21,2.21,0,0,0,2.49-1.89c0-.11,0-.22,0-.33A2.49,2.49,0,0,0,133.1,268.94Z"/><path d="M265.8,249.22a2.52,2.52,0,0,0-2.78,2.23c0,.06,0,.12,0,.18a2.25,2.25,0,0,0,2.12,2.24,2.77,2.77,0,0,0,2.81-2C268.22,250.57,267.11,249.58,265.8,249.22Z"/><polygon points="63.75 257.4 63.75 257.32 63.66 257.4 63.75 257.4"/><path d="M63.75,257.41c.16.43.49,1,.34,1.22-.53.9-2,1.68-1.24,2.74,1.12,1.5,1.66-.51,2.52-.81.67-.24,1,.35,1.51.81s.43,1.91,2.1,1.07C66.79,261,66.83,257.72,63.75,257.41Z"/><path d="M292.33,182.74c-1.31-1.06-.51-2.85-1.5-4.17-1.91,1.32-.83,3-1.87,4.22-.56.64.51,1.64,1.29,2.18a1.32,1.32,0,0,0,1.72-.12C292.52,184.29,292.92,183.22,292.33,182.74Z"/><path d="M230.17,82.53h.06c1.22,0,2.11-.46,2.21-1.78-.27-1.38-.89-2.62-2.3-2.63A2,2,0,0,0,228,79.91a1.94,1.94,0,0,0,.05.68A2,2,0,0,0,230.17,82.53Z"/><path d="M231.76,271.68c-1.06,0-2.56,0-2.35,1.52a2.66,2.66,0,0,0,2.58,2.21c1.65,0,2.73-.22,2.7-1.36C234.65,272.32,233.34,271.66,231.76,271.68Z"/><path d="M142.21,289.8l-.21,0c-1.42,0-2.46.74-2.35,2.29a2.13,2.13,0,0,0,2.18,2.06c1.2-.43,2.53-.81,2.43-2.42A2,2,0,0,0,142.21,289.8Z"/><path d="M207,90.53c.1.07.3,0,1.16,0-.49-2.12-.8-3.93-2.86-4.67-.23-.08-1,.46-1,.78C204,88.76,205.76,89.5,207,90.53Z"/><path d="M108.52,45h.26c1.17-.13,2.14-.59,2.07-2a1.74,1.74,0,0,0-1.77-1.71H109c-1.31,0-2.07.55-2,1.94A1.65,1.65,0,0,0,108.52,45Z"/><path d="M62,242.87c.79,0,.77-.78.7-1.4-.13-1.26-.2-2.61-2-2.45-.79.06-.9.74-.82,1.38C60,241.69,60.33,243,62,242.87Z"/><path d="M12.86,131.78c.23-1.72-1.46-1.15-2.31-1.46-1.39,0-2.83.27-3,1.75s1.3,1.62,2.39,1.62C11.28,133.69,12.67,133.19,12.86,131.78Z"/><path d="M22.9,173.48a9.57,9.57,0,0,0-4.78,5.1C22,176.52,22,176.52,22.9,173.48Z"/><path d="M65.44,253.57a8.64,8.64,0,0,0,5.38-3.65C68.74,250.67,66.71,251.5,65.44,253.57Z"/><path d="M106.25,288.19a.88.88,0,0,0,.15,1.26,1.37,1.37,0,0,0,1.16-.32,4.65,4.65,0,0,0,1.42-4.75C108.06,285.65,107.12,286.89,106.25,288.19Z"/><path d="M233.65,66a1.8,1.8,0,0,0,1.67-1.92h0c-.3-1.1-.91-1.81-2.06-1.53a1.63,1.63,0,0,0-1.41,1.69C231.93,65.3,232.5,66.09,233.65,66Z"/><path d="M73.37,89.25h0a.64.64,0,0,0,.1.13V89.2l-.09,0c.44-2-.74-3.34-1.51-4.88-1.14.46-.69,1.17-.83,1.7s-.37,1.15-.57,1.72c.31.38.61.77.91,1.15Z"/><path d="M158.34,3.48a2.19,2.19,0,0,0,.36,0A1.42,1.42,0,0,0,160,1.92a1,1,0,0,0,0-.17C159.86.84,159.45,0,158.29,0s-1.54.85-1.46,1.87A1.56,1.56,0,0,0,158.34,3.48Z"/><path d="M193.27,259.71a1.51,1.51,0,0,0,0-.3,1.31,1.31,0,0,0-1.13-1.47,1,1,0,0,0-.25,0c-1,0-1.66.69-2,1.85A1.68,1.68,0,0,0,191.5,261,1.55,1.55,0,0,0,193.27,259.71Z"/><path d="M147.34,328.59c-1.26-.43-2.05.53-2.75,1.3-.27.3.22.83.79.76,1-.11,2.28.55,2.79-1.09C147.93,329.26,147.71,328.72,147.34,328.59Z"/><path d="M87.77,265.42c-1.14,1.95-.35,3.21.81,4.37C88.73,268.38,89.26,266.87,87.77,265.42Z"/><path d="M178,83.59H178c.69,0,1.18-.34,1.14-1.09a1.41,1.41,0,0,0-1.32-1.5h-.09c-.59.2-1.24.54-1.22,1.15A1.43,1.43,0,0,0,178,83.59Z"/><path d="M63.66,257.4l.06-.07-.12-.23Z"/><path d="M60.15,252c.52,2.56,2.63,3.39,3.45,5.1A7.67,7.67,0,0,0,60.15,252Z"/><path d="M290.24,40.12c-.19-2.11-1.16-3.06-3.44-4A4.49,4.49,0,0,0,290.24,40.12Z"/><path d="M95.74,278.48c-.76,0-1.08.57-1.07,1.25A1.69,1.69,0,0,0,96,281.42c.7.17,1.17-.18,1.26-1.18C97.07,279.56,96.94,278.55,95.74,278.48Z"/><path d="M258.77,227l-.18.05c-.7.21-1.54.57-1.23,1.6.21.68.84.83,1.49.79.85,0,1.49-.36,1.48-1.41A1.32,1.32,0,0,0,258.77,227Z"/><path d="M122.13,256.56a1,1,0,0,0-1-1,.7.7,0,0,0-.29,0,1.76,1.76,0,0,0-1.29,1.8,1.15,1.15,0,0,0,1,1.31h.21A2.18,2.18,0,0,0,122.13,256.56Z"/><path d="M135.81,50.45c-1.71,1.31-3.48,1.52-3.05,3.72A4.72,4.72,0,0,0,135.81,50.45Z"/><path d="M111.2,251.94c-1.44.45-2.71.95-3.16,3.22C109.88,254.32,111.5,254.07,111.2,251.94Z"/><path d="M288.79,123.86c-.91,0-1.51.43-1.44,1.38a1.53,1.53,0,0,0,1.55,1.5,1.35,1.35,0,0,0,1.51-1.43A1.58,1.58,0,0,0,288.79,123.86Z"/><path d="M156.14,266.05c-.82.15-1.1.63-.86,1.33a1.09,1.09,0,0,0,1.33.8l.1,0c.61-.17,1.16-.52.85-1.3A1.26,1.26,0,0,0,156.14,266.05Z"/><path d="M110.85,267.46l-.08,0a.76.76,0,0,0-.71.81,1.29,1.29,0,0,0,0,.19c.28.7.71,1.48,1.68,1.12.35-.13.56-.62.79-.89A1.5,1.5,0,0,0,110.85,267.46Z"/><path d="M237.89,233.48a1.17,1.17,0,0,0-1.25,1.09v.08a1.1,1.1,0,0,0,1.05,1.15h.19a1.5,1.5,0,0,0,1.36-1.14A1.53,1.53,0,0,0,237.89,233.48Z"/><path d="M89.92,274.27a1.09,1.09,0,0,0-1.44.58l0,.07a.92.92,0,0,0,.45,1.22,1,1,0,0,0,.34.08,1.13,1.13,0,0,0,1.26-.75C90.63,274.77,90.36,274.41,89.92,274.27Z"/><path d="M199.17,275.26a1.29,1.29,0,0,0-1.12-1.44,1.11,1.11,0,0,0-.26,0,1.47,1.47,0,0,0-1.38,1.55c0,.74.54,1,1.18,1.12C198.45,276.5,199.14,276.19,199.17,275.26Z"/><path d="M251.38,224.74l-.27,0a.77.77,0,0,0-.73.81,1.06,1.06,0,0,0,0,.19c.2.75.38,1.55,1.4,1.59a1,1,0,0,0,1-1.11,1,1,0,0,0,0-.24A1.34,1.34,0,0,0,251.38,224.74Z"/><path d="M188.42,280c.21-.33.65-.65.73-1a.79.79,0,0,0-.67-.91h-.15a.93.93,0,0,0-1,.83.7.7,0,0,0,0,.32A1,1,0,0,0,188.42,280Z"/><path d="M122.34,340.18a1,1,0,0,0-1.15.82.76.76,0,0,0,0,.26.77.77,0,0,0,.63.89H122a1.1,1.1,0,0,0,1.16-1v0A.91.91,0,0,0,122.34,340.18Z"/><path d="M283.29,262.24a1.14,1.14,0,0,0-1.38.84.43.43,0,0,0,0,.05c-.14.75.39,1.15,1.06,1.11a1.28,1.28,0,0,0,1.21-1.17C284.22,262.43,283.75,262.28,283.29,262.24Z"/><path d="M95.68,263.45v-.1c0-.49-.32-.87-1-.92-.25.26-.73.55-.81.92-.12.54.42.82.9.85A.84.84,0,0,0,95.68,263.45Z"/><path d="M.3,212.38c1.09.82,2,.5,2.63-.78a6.42,6.42,0,0,0-1.2-.45C.39,211-.49,211.79.3,212.38Z"/><path d="M268,178.68a1.13,1.13,0,0,0-1.36.85s0,.05,0,.08a.94.94,0,0,0,.69,1.13.93.93,0,0,0,.37,0c.62,0,1.08-.51,1.23-1.73C269,178.9,268.47,178.74,268,178.68Z"/><path d="M255.21,171a1,1,0,0,0,.58,1.29,1.36,1.36,0,0,0,.29.06c.5.1.83-.45.9-.92a.91.91,0,0,0-1.77-.43Z"/><path d="M267.28,150.44c-.28.72.19,1.13,1,1.23.59,0,1.26-.15,1.33-.91s-.55-1.12-1.23-1A1.5,1.5,0,0,0,267.28,150.44Z"/><path d="M103.29,267.75c1.62-1.09,2.38-1.79,2.31-3.08C104.32,264.93,104.11,266,103.29,267.75Z"/><path d="M176.69,275.48c-.61.18-1,.38-.85,1s.43.85.91.8a.92.92,0,0,0,.95-.89,1,1,0,0,0,0-.33C177.57,275.74,177,275.62,176.69,275.48Z"/><path d="M106.77,269.53a1.25,1.25,0,0,0,.83-1.41c0-.44-.12-.95-.74-.77a1.32,1.32,0,0,0-.83,1.42C106,269.2,106.13,269.66,106.77,269.53Z"/><path d="M123.77,252.37a.84.84,0,0,0-.76.28c-.31.5,0,.87.49.93.19,0,.43-.31.64-.48C124,252.84,124,252.44,123.77,252.37Z"/><path d="M68.44,77.11c.09-1.25,0-2.22-1.65-2.81C67,75.5,67,76.52,68.44,77.11Z"/><path d="M233.52,106.31a.86.86,0,0,0,.26,1.69.79.79,0,0,0,.82-1.16A.92.92,0,0,0,233.52,106.31Z"/><path d="M267.22,126.67l.13,0c.39-.19.82-.42.63-1a1.11,1.11,0,0,0-1.32-.85h0c-.72.09-1.1.57-.78,1.23A1,1,0,0,0,267.22,126.67Z"/><path d="M264.76,155.36a.7.7,0,0,0-.15,1,.67.67,0,0,0,.15.14.77.77,0,0,0,1.08-.09c.46-.58.12-.91-.3-1.1A.86.86,0,0,0,264.76,155.36Z"/><path d="M52.7,242.86l1.36,1.91C54.23,243.8,54.35,242.86,52.7,242.86Z"/><path d="M213.21,99.55a.69.69,0,0,0,1-.19.77.77,0,0,0,.1-.25,1.46,1.46,0,0,0-.91-1.49c-.31-.19-.56-.1-.69.31A1.3,1.3,0,0,0,213.21,99.55Z"/><path d="M30.43,99.52a4.82,4.82,0,0,0,.8,1,.33.33,0,0,0,.46.08.34.34,0,0,0,.13-.35,1.7,1.7,0,0,0-1-1.36C30.67,99.14,30.38,99.42,30.43,99.52Z"/><path d="M169.89,71.55c.09-.29.19-.57.28-.86-.08-.41-.36-.59-.69-.34a.9.9,0,0,0-.29.76C169.26,71.31,169.64,71.41,169.89,71.55Z"/><path d="M153.2,263.93a.9.9,0,0,0,.78.9l.73-.34a4.8,4.8,0,0,0-.74-1C153.43,263,153.23,263.5,153.2,263.93Z"/><path d="M50.84,239.25a6.24,6.24,0,0,0-.07-1.14C50.55,238.48,50.3,238.86,50.84,239.25Z"/><polygon points="50.77 237.96 50.77 238.11 50.86 237.96 50.77 237.96"/><path d="M29.83,97.43l-.48-.4a.17.17,0,0,0,0-.12L29,96.76l.25.2.06.05C29.35,97.33,29.16,97.83,29.83,97.43Z"/><path d="M54.19,244.89a.08.08,0,0,1,0,0h-.07v.07h.13c.27.26.38.26.28,0A.9.9,0,0,0,54.19,244.89Z"/><polygon points="116.78 248.15 117.12 248.16 116.97 247.86 116.78 248.15"/><path d="M33.07,102.75a2.5,2.5,0,0,0,.21.35c0,.05.19,0,.29,0C33.57,102.82,33.41,102.7,33.07,102.75Z"/><polygon points="33.01 102.75 33.06 102.75 32.99 102.69 33 102.75 33.01 102.75"/><path d="M33,102.64a1.84,1.84,0,0,0-.08-.65l-.45.23Z"/></g></g></svg>