<svg xmlns="http://www.w3.org/2000/svg" viewBox="0 0 428.78 118.3"><g id="Capa_2" data-name="Capa 2"><g id="Capa_8" data-name="Capa 8"><path d="M428.61,88.82h0V87.75a3.32,3.32,0,0,0-.07-2.35c-1.15-2-2.82-3.61-3.34-5.92-1.67-.32-1.7-1.94-2.21-3s-.79-2.18-2.24-2.56c-1.08-.28-1.75-1.05-.32-2,.28-.17.18-.52,0-.54-1.35-.12-.94-1.72-1.86-2.18,0-.21,0-.42,0-.63-.69-.89-1.34-1.79-2.69-1.67-.3,0-.92-.4-.91-.6.07-1.34-.76-1-1.55-1a14.71,14.71,0,0,1-1.88-.11c-.17-.17-.46-.33-.48-.52-.11-1.18-.23-2.21-1.9-1.52-.42.17-.75-.53-.61-.81.71-1.41-.22-1.81-1.22-2.22a1.36,1.36,0,0,1-.57-.38c-1.61-2.31-1.9-2.4-4-1.18-.68,0-1.38.12-1.85-.54h0a.4.4,0,0,0-.53-.4,4.76,4.76,0,0,0-1.88-.08h0c0-.34-1.17-.6-.06-1h.5c1.33.09,1.58-1.24,2.4-1.83,1.45-.13,2.74-.06,3.73,1.37a2.09,2.09,0,0,0,2.43.49c1-.36.36-1.25.64-1.81a1.21,1.21,0,0,0-.33-1.63,7.94,7.94,0,0,1-1.62-3.1c-.72-2.19-1.29-4.49-3.06-6.18a1.37,1.37,0,0,1-.41-.82,2.47,2.47,0,0,0-2.62-2.46,4.49,4.49,0,0,1-1.13-.36l.45-.85.71-.9c-.82-.58-.51-1.18-.27-2s-1.13-2.08-2-2.47-2,0-2.38-1.51c-.15-.65-1.59-1.39-2.47-1.42-2.16-.06-3.75-1.13-5.53-2.27.39-.43.81-.68.88-1a7.42,7.42,0,0,0,0-1.7c-1.5.2-2.7-1.47-4.29-.67a6.7,6.7,0,0,1-2.31-.29,16,16,0,0,0-5.79-.67c-.73-.65-1.61-.31-2.44-.37a.41.41,0,0,0-.42-.12,3.73,3.73,0,0,1-.57-.41l0,0a.49.49,0,0,0-.45-.45l0,0a4.65,4.65,0,0,1-.42-.57.39.39,0,0,0-.11-.42c0-.34.06-.7-.39-.82a.27.27,0,0,0-.34-.17c-.47-.65-1.88-.17-1.79-.64.38-2-1.11-.88-1.7-1.14a3,3,0,0,1-1-.56c0-.48,0-.95,0-1.43v-1a3.41,3.41,0,0,0-3.41-1.4,15.18,15.18,0,0,1-3.75,0,2.67,2.67,0,0,0,0-.4h0c.7-.16,1.39-.34,2.08-.48a1,1,0,0,0,.77-1.06c.06-1-1.1-2.08-2.4-2.33a3.79,3.79,0,0,0-2.38-.46.42.42,0,0,0-.43-.07,1.23,1.23,0,0,0-1-.42l0,0c-.06-.2-.16-.35-.4-.34h0l-.51-.15h0l-7.21-2.36-.89-.15a.55.55,0,0,0-.55-.35l.54.38v0c-.23-.07-.37-.27-.55-.4l0,0c-.49-.67-1.25-.33-1.88-.5a.87.87,0,0,0-1-.42.42.42,0,0,0-.43-.07,95.68,95.68,0,0,0-11.44-1.47c-.6-.57-1.35-.31-2-.38l-.49,0a106.71,106.71,0,0,0-16.32-1.92,43,43,0,0,0-9-.57c-.36-.42-.86-.34-1.33-.34L285.74.4h0c-2.41-.72-4.89-.2-7.33-.4L254,0a.26.26,0,0,0-.2.08c-.18.26.34.14,0,.23,1.44.78,1.5.94,2.82.43.83-.31,1.36.1,2,.2h.56c.76-.47,1.51,0,2.26,0a.62.62,0,0,1,0,.33l-12.88.11h0c-4-.22-8-.18-12,0l-2,.07a1.93,1.93,0,0,0-1.64.2,1.68,1.68,0,0,0,1.65.15h0l2,0h12c2.49.32,5,.05,7.47.17h0c-.54.46-1.2.23-1.8.28s-1.12-.06-1.47.51h0l-9.49.1a36.33,36.33,0,0,0-7.73.24,38.52,38.52,0,0,0,7.74.14l1.4.61c0,.13,0,.27,0,.4-2.26.16-4.42,1-6.7,1-1.17-.09-2.36-.39-3.47.4h3.48a1.74,1.74,0,0,1,.05.39.25.25,0,0,1-.18.13l-9,.51h0c-.52,0-1,0-1.56,0-.27,0-.63.07-.39.51h0l.47.88,0,.05a10,10,0,0,1-3.53.32,4.28,4.28,0,0,0-2.79.6h19.28c1.66,0,3.32.1,5,.1,2.58,0,5.16.45,7.76,0a3.9,3.9,0,0,1,3.14.71,2.3,2.3,0,0,0,2.82.12,42.26,42.26,0,0,0,11,1.91l.18.1.2,0a3.47,3.47,0,0,1,.57.37,1,1,0,0,0,1,0h1l1.36.09a.6.6,0,0,0,.58.35l0,.14.05.48a.59.59,0,0,0,0,.45l-.52.42.05.1c-4.51,0-9-.5-13.54,0a3,3,0,0,0-1.8.47l-5.74,0h0l-1.59,0-1.78,0h0c-.61.37-1,.83-2,.6a4.64,4.64,0,0,0-3.81.28,23.75,23.75,0,0,1-5.33,0c-.66-.1-1.44-.34-1.85.54-1.94.24-3.93-.38-5.83.41h0l-1.38.05a14.68,14.68,0,0,0-4.34.06c-2,.15-4-.39-5.88.34h0l-2.26.08c-4.33-.25-8.63.31-12.94.51-2.64-.31-5.2.31-7.79.63,2.63.6,5.19-.09,7.78-.24l3.28.12c0,.1,0,.21,0,.32a.52.52,0,0,0-.49.47c-.76,1.37-2.16.78-3.27,1.07-1.68-.45-3.23.29-4.84.51-3.83.53-7.67,1-11.5,1.47h0l-25.4,1.41a5.07,5.07,0,0,0-2.77.27,5.08,5.08,0,0,0,2.76.13,2,2,0,0,0,.65.28,98.82,98.82,0,0,0,13.55-.05,5.47,5.47,0,0,1,4.18,1c-5.14,1-10.36.7-15.51,1.22a9.27,9.27,0,0,0-2.88,0,4.39,4.39,0,0,0-1.91,0,29.71,29.71,0,0,0-7.7.47h0a2.34,2.34,0,0,0-1.41,0h0a3.72,3.72,0,0,0-2.38.27,4,4,0,0,0,2.37.13,2.42,2.42,0,0,0,1.41,0h0a16.94,16.94,0,0,0,4.76-.25,2.63,2.63,0,0,1,2.5.32c-.47.7-1.59.45-2.07,1.4h5.32l3.54.07h0c0,1,.69.82,1.34.85,3.18.16,6.34-.29,9.52-.36l.44.85h0l-1.31.12h-8.55c-.57,0-1.18-.24-1.53.45a3.81,3.81,0,0,1-2.66.84c-1,0-1.92,0-2.88,0-2.91.12-5.79.93-8.75.18a13.67,13.67,0,0,0-3.27,0c.22.91.8.74,1.21.89h0l.05.52h0a15.12,15.12,0,0,0,7.46.76,28.3,28.3,0,0,1,7.36.18c0,.15,0,.3,0,.45h0a6.48,6.48,0,0,1-2.31.43c-1.15.19-2.39-.18-3.47.49-4.82-.15-9.58.69-14.37,1-3.42-.14-6.79.57-10.2.53a.75.75,0,0,0-.77.43l-.06,0c-.31.2-.87.29-.75.71s.62.26,1,.13c.13,0,.23-.18.34-.28h0l2.3-.13,7-.48c1.22-.08,2.49.29,3.65-.41h0c1.25.23,2.52-.38,3.77,0,.71.43.75.86,0,1.27-1,.31-2.24-.33-3.33,1.07l3.82-.5h0l10.47.4.56.53c-1.89.27-3.86-.21-5.69.57l-.64.11c.1.45.41.24.66.21h0l10.47.13c0,.15,0,.3,0,.44a3,3,0,0,1-2.72,1,19.66,19.66,0,0,0-4.47,0c-.32,0-.82,0-.81.23s.48.29.8.2a129.84,129.84,0,0,0,13.38-.14,33,33,0,0,1,4.41.22,7,7,0,0,1-3.47.83c-.75,0-1.61-.34-2.23.42l-.08.62h0c-1.44.78-2.9.07-4.35.09-1.74-.12-3.4.88-5.17.33a1.15,1.15,0,0,0-1.06-.36c-5.75.11-11.52-.34-17.25.46-.51,0-1.13-.34-1.42.42h0c-1.66,0-3.32.07-5,.06a3.25,3.25,0,0,0-2.27.4,3,3,0,0,1-.41.08c-1.36,0-2.72,0-4.06-.14a2.71,2.71,0,0,0-2.78,1.42h0l-9,.18c-.54,0-1.12-.11-1.56.35l-1.9.07h-1c-.52,0-1.07-.17-1.53.25a1.48,1.48,0,0,0,1.52.24l1-.08h2c6,.93,12,.53,18.05.61-.2.71-1.1.29-1,1,.08.51.59.4,1,.46.59.08,1.24-.21,2.14.61-2.75,1.6-6.08.16-8.45,2.16,3.24-.35,6.49.3,9.71-.2a12.79,12.79,0,0,1,3,.06c2.29.15,4.42,1.19,6.73,1.08,4.29.78,8.69.06,13,1a4.41,4.41,0,0,0,1.59.09,15,15,0,0,1,3,0c.66,0,.27.54.27.86l-.06.58-1,.59c-1.16.06-2.37-.4-3.47.3h0l-2.26.08c-9.76-1-31.3-.58-33.57.63,1.83.35,3.54,1.12,5.37.3.25-.12.63,0,.94,0,3-.31,6,.1,9-.35,1.7-.26.55.72.49,1.21l-2.31.21c-1.27-.32-2.46.28-3.69.29l-13.94.14c-1,0-2.06.14-3.08.22a36.12,36.12,0,0,1-7.35,0,12.73,12.73,0,0,0-4.14.15c-.66-.06-1.16.21-2,1.06,1.53-.26,2.59.28,3.56-.5h0c1.45,1,3.12.76,4.74.81.67,0,1.42-.2,1.94.48-.48.75-1.25.49-1.93.55s-1.44-.2-2,.47h0a1.66,1.66,0,0,1-.12.2c-.3-.13-.19.12.12.16.78.09,1.57.14,2.36.21h0c0,.11,0,.22,0,.33a1.7,1.7,0,0,0-.19.35s.08.17.13.17a32.33,32.33,0,0,0,5.82,0l2.92,0h0a51.39,51.39,0,0,0,6.2.14l.47.45h0c.24.44.9.43,1,1-1.32.36-2.67-.46-3.94,0a7.1,7.1,0,0,1-3.74.16,10.76,10.76,0,0,0-3,0c-1.87.24-3.68.89-5.51,1-2.45.16-4.89.32-7.32.67-1.18-.06-2.39-.17-3.3.84l-.08.54c-.71,0-1.42,0-2.13.13L82.07,72c-1,.15-2.09-.29-3,.39h0l-2.72.09h0c-.69,0-1.42-.14-2,.42h0l-.88.06c-1.17.17-2.41-.29-3.52.39h0a8.94,8.94,0,0,0-2.73.13c-.83.07-1.73-.27-2.47.38h0l-1.84.06c-.84.09-1.74-.21-2.48.42h0L59,74.4a57.24,57.24,0,0,0-7.15.89,3.42,3.42,0,0,0-1,.55c-.43,0-.89-.15-1.26.27a1.21,1.21,0,0,0,1.25.18c1.72.28,3.41-.46,5.1-.21a3.62,3.62,0,0,0,2.63-.5h0L60,75.3h0l2.75,0c.86.24,1.9-.27,2.59.64a3.73,3.73,0,0,0,3.78-.08,4.21,4.21,0,0,0,1.9-.08l2,0h0a2.14,2.14,0,0,0,1.39,0l.51.07c2.45.84,4.84.28,7.22-.23l.42-.09.61-.13h0a28.25,28.25,0,0,1,4.69,0h0a.44.44,0,0,0,.45.41h0l.61,0a5.94,5.94,0,0,0,2.79-.46,3,3,0,0,0,1.92,0c3.52.22,7-1.2,10.58,0a8.84,8.84,0,0,0,2.37.12,1.61,1.61,0,0,0,0,.38c-1.23.34-2.36,1-3.59,1.29a6.87,6.87,0,0,0-.86.17,6,6,0,0,0-2.27.14c-1.13.12-2.34-.37-3.4.37H93.67a2.87,2.87,0,0,0-3.1,0h0l-.75,0a1.69,1.69,0,0,0-1.49-.42l-.49,0c-.63,0-.31.61-.49.89-1.11.39-2.23-.45-3.34,0h-.5c-.64.1-1.38-.21-1.9.44a41.4,41.4,0,0,0-8,.4c-3.84.56-7.69,1-11.54,1.46a23.24,23.24,0,0,0-6.24.21c-4.64.95-9.38,1.11-14.05,1.8a11,11,0,0,0-4.83.68,15.29,15.29,0,0,1-2.34.78l-1.48.45h0a4.07,4.07,0,0,0-1.9,0c-.29,0-.79-.21-.75.32,0,.29.47.17.74.12a3.71,3.71,0,0,0,1.9-.06c.71,0,1.46.3,2.1-.28h0c2.67.32,5.32-1.12,8-.14l1.29.13c-.49.16-.84.55-1.31.71a.39.39,0,0,0-.45,0l-2.4.12-.89.07h0c-.44.07-.56.41-.66.77h0c-.33.1-.71.09-.88.48h0L36,86.91a3.38,3.38,0,0,0-2.63.72c.36.28.75.15,1.14.12h0c.64.14,1.43-.24,1.92.5l0,.07c-.3.05-.82-.2-.77.34,0,.33.48.14.75.1a2.16,2.16,0,0,0,1.44-.08l6.65-.46h0c.86.1,1.74.34,2.41-.49.56-.64,1.35-.1,2-.41.66,0,1.38.24,1.94-.36.36.15.74.47,1.07.41,1.31-.22,2.59.29,3.91.07s2.3.89,3.59.22c.23-.13,1.2-.08,1.21.42,0,2,1.24,1.18,2.15.91a9.28,9.28,0,0,1,1.88-.18c1.32-.13,2.65,0,3.91-.72a1.52,1.52,0,0,1,2.36.72,1,1,0,0,0-.09,1.39c.44.56.76.11,1.13,0a13.74,13.74,0,0,0,4.14-.39c.38,1.32-.79,1.15-1.4,1.34-2.49.77-5.1.15-7.63.59-2.22.39-4.51.3-6.7.88h0c-4,0-7.93.72-11.9,1h0a5.67,5.67,0,0,0-.61.28c-.24.14-.68.15-.62.51a.67.67,0,0,0,.87.53,3.07,3.07,0,0,0,.8-.42c2.54,0,5.06-.55,7.8-.33-.58.51-.23,1.5-1,1.39-1.16-.17-2.18.38-3.24.39-3.47.06-6.86.78-10.3,1-5.63.34-11.25.85-16.83,1.7,0,0-.06.13-.08.2s0,.16,0,.27a13.72,13.72,0,0,0,5.15,0,30.62,30.62,0,0,1,5-.39c.4.11.86.09,1.06.56-2.59,1.18-5.37,1.31-8.15,1.58a5.19,5.19,0,0,0-2.89.88c-2.8.07-5.7-.32-8.11,1.86,2-.21,3.87.21,5.71-.5a2.52,2.52,0,0,0,1.44,0l.48.12a2.17,2.17,0,0,0,.42.11,1.62,1.62,0,0,0-.42.28c-1.33.78-2.94.37-4.3,1a3.33,3.33,0,0,0-2.09.76c1.23.09,2.45.53,3.58-.25h0a52,52,0,0,0,5.85-.32c2-.16,4-.81,6-.63V105a3.3,3.3,0,0,1-2.38,1.13,35.28,35.28,0,0,0-4,.63l.07.59c3.41.51,6.81-.07,10.21-.43.47.19,1.15-.17,1.43.53-1.5,1.61-3.45,1.79-5.51,1.89-2.33.12-4.72.08-6.95,1-1.47.17-3-.4-4.41.41h0a9.61,9.61,0,0,0-4.88,0c-2.5.81-5.07.6-7.63.49a9.28,9.28,0,0,0-1.17.12h0c-.78.47-1.81.2-2.53.84l-1.93.08c-.65.06-1.35-.19-1.9.36h0l-.46.22c-.69,0-1.25.57-2,.38v.48l2.41,0a21.78,21.78,0,0,0,5.44-.83h0A61.81,61.81,0,0,0,23,111.27c1.36.24,2.79-.1,4.13.49.29.12.59-.08.7-.43,2.75-.42,5.52-.12,8.27-.36,2-.18,4.1.19,6.13-.31h0c0,.2,0,.41,0,.62a6.72,6.72,0,0,1-3.16.62c-.75,0-1.57-.28-2.23.33-2.49-.13-4.84.9-7.28.91-6.34,0-12.55,1.44-18.87,1.68-1.07,0-2.13.6-3.21.69s.41,1.07-.52,1c-.55,0-1.11.06-1.66.09-1.42.26-2.91,0-4.3.55l-1-.09v1c.38,0,.77,0,1-.39H1c2.12-.09,4.27.23,6.32-.53h0c.8,0,1.6,0,2.39,0,5.15-.47,10.29-.94,15.43-1.46,3.16-.32,6.36-.13,9.49-.85a3.47,3.47,0,0,1,2.84.88,1.33,1.33,0,0,0,0,.4h0c-1,0-1.91.06-2.86.15-1.17.12-2.39-.37-3.49.34-1.72.39-3.53-.29-5.21.52a18.23,18.23,0,0,0-4.24.09,13.52,13.52,0,0,0-4.82.44,2.49,2.49,0,0,0-1.43,0c-.25,0-.62-.15-.63.31a2.92,2.92,0,0,0,.63.13c.48,0,.94.55,1.44,0,1,0,2,0,3-.06,1.91-.14,3.86.31,5.73-.39a21.53,21.53,0,0,0,4.17-.14A38.37,38.37,0,0,0,35.5,117c2.39,0,4.78.12,7.16-.07,4.5-.37,9-1,13.51-.84a25.93,25.93,0,0,0,8.22-1.39h0a70.23,70.23,0,0,0,12-.59c1.28-.14,2.62.38,3.84-.36h0a32,32,0,0,0,7.69-.46l1.89-.07a2.37,2.37,0,0,0,1.42-.06c1,0,2,.3,2.91-.22h0L97,112.7c1.85,0,3.74.33,5.56-.28a.46.46,0,0,0,.26-.08,2.34,2.34,0,0,0,2.32-1.19,8.4,8.4,0,0,0,1.41.08c3.42-.35,6.84-.78,10.15.63.12,0,.31,0,.46-.07a.82.82,0,0,0,1.08-.43h-.11a.13.13,0,0,0,0-.06l.12.07a10.63,10.63,0,0,0,6.69.09h0l6.16-.15c4-.08,7.9-.38,11.86-.41,3.73,0,7.46-.4,11.19-.61,3.2,0,6.39.07,9.58,0,1.21,0,2.34.55,3.49.41,3-.37,6-.13,9-.81.68.79,1.45.39,2.18.13a14.18,14.18,0,0,1,4.18-.64c4-.18,7.92-.3,11.88-.45,5.13.14,10.24-.34,15.36-.48a3.94,3.94,0,0,0,1.93,0h0c2.78,0,5.56,0,8.34,0,.76,0,1.6.26,2.27-.37h0a65.41,65.41,0,0,0,7.14,0l6.27.11.43.07h.6a4.91,4.91,0,0,0-1,.41c-.21.42-.67.26-1,.44l-.5-.13a.94.94,0,0,0-.92,0l-2.42.09c-1.44-.2-2.7.48-4,.94h4.52c1.14.74,2.24-.24,3.37-.06a11.91,11.91,0,0,0,3.32.08,29.61,29.61,0,0,1,5.49,0,43.29,43.29,0,0,0,9.51.4c1-.06,2,.13,2.87-.72a2.15,2.15,0,0,1,2.5,0c1.56,1.23,3,.6,4.45,0s2.87-.93,4.34-.12a3.13,3.13,0,0,0,3,.07h0c1-.68,2.24-.55,3.39-.71,1,0,1.94.62,3,.59,2.68-.06,5.36,0,8,0,.39,0,.82.1,1.12-.24,1.34-1.56,3.06-.38,4.57-.64.32,1.74,1.76.68,2.23.55,1.91-.54,3.8-.08,5.68-.3,1.08-.13,2.23.36,3.24-.38a33.72,33.72,0,0,0,11,0c5.51.18,11-.24,16.5-.44a1.69,1.69,0,0,0,1.32-.47c3.35.75,6.74.28,10.11.3a2.65,2.65,0,0,0,.87-.35,3.94,3.94,0,0,0,1.93,0h2.86a65.71,65.71,0,0,0,8.65,0l4.32,0c0,.14,0,.29,0,.43h0c-.45.19-1.11.11-1.13,1a8.94,8.94,0,0,0,2.72.07c1.35-.39,2.66.59,4,.12l.31-.13c1.93.65,3.92.11,5.87.32,2.91.32,5.92-.39,8.75.78,2.7-.73,5.43,0,8.13-.19,2.35-.17,4.75.34,7.06-.41a36.27,36.27,0,0,0,5.19.28,45.59,45.59,0,0,1,7.66-.3A5.52,5.52,0,0,0,411,109a37.86,37.86,0,0,0,11.78-2.72c1-.39,1.67-1.07,1.34-2.16-.2-.66.08-.85.47-1.14.81-.6,1.77-1.08,1.86-2.29s1.7-1.14,1.87-2.37c.05-.37.48-.85.34-1.29-.5-1.63,0-3.26.08-4.86C428.77,91,427.91,89.93,428.61,88.82ZM71.85,74.64a3.38,3.38,0,0,0,.45,0,1.31,1.31,0,0,0-.28.2A.67.67,0,0,0,71.85,74.64Zm3,.09v.09l0,.05c0-.07-.11-.13-.17-.2ZM90.22,73c.77-.38,1.5.23,2.26.19h0C91.72,73.25,91,72.65,90.22,73ZM50.88,86.25h0v-.06h0Zm0,0v.13l0,0-.12-.17Zm11-1.34.06-.08h0l0,.08h0ZM38.07,87.48l.07,0s0,0-.06,0A.13.13,0,0,0,38.07,87.48Zm-.15-.23,0,0h0ZM6.77,112.38l0,0h.06A.08.08,0,0,0,6.77,112.38ZM186,106.51l-.14,0s0,0,.05,0A.06.06,0,0,1,186,106.51ZM129.47,92l.2-.08a.91.91,0,0,0,1,.63c.78,0,1.56,0,2.34,0h0a1.28,1.28,0,0,0,.37.14h0A1.79,1.79,0,0,0,135.49,94a17.78,17.78,0,0,1,2.31,0c-.78.13-1.52.47-1.46,1.32a1.22,1.22,0,0,1-.52,1.19h-1.94a2.32,2.32,0,0,0-1.38,0c-.44-.62-.9-1.16-1.79-.75-.1,0-.28-.07-.44-.18a.25.25,0,0,1,0-.07c-.61-1.17-1.69-.73-2.63-.76a1.42,1.42,0,0,1-.18.08l-.11-.09.39-.23a2,2,0,0,0,2.26-1l-1.65.08A1.44,1.44,0,0,0,127.19,92v0h.08A3.39,3.39,0,0,0,129.47,92Zm17.24-11,.12.1h0S146.74,81.09,146.71,81Zm1.09,11.6,0,0c.1.12.19.34.29.35a43.29,43.29,0,0,0,5.34.13,2.92,2.92,0,0,0,2.23-.07l.7,0c.84,0,.54-.79.62-1.29.84,0,1.72.25,2.66-.29-1-.45-1.84-.16-2.67-.3v-.4a1.25,1.25,0,0,0,.42.08,73.8,73.8,0,0,0,15.75-1.54.87.87,0,0,0,.73.51A5.83,5.83,0,0,0,168.72,92a2,2,0,0,0,.14.29,1.65,1.65,0,0,1-1.23.37c-.4,0-.79,0-.95.51l.33.44h0c0,.05,0,.1,0,.15a1.17,1.17,0,0,0-.28.13c-.53,1.19.33,1.61,1.15,2,.19,0,.38,0,.58.08a.7.7,0,0,1,.48.41,8.4,8.4,0,0,1-4.14.26c-3.17-.4-6.28.48-9.44,0a6.53,6.53,0,0,0-3.7.23,9.2,9.2,0,0,1-3.73.55c-1,0-2.06-.29-3,.28a10.61,10.61,0,0,0-3.32-.26h0v-.59c1.79.13,3.5-.51,5.28-.5l.93,0c.24,0,.61.19.65-.27a3.93,3.93,0,0,0-.64-.13l-.87-.23h0a.18.18,0,0,0-.06-.28c-.33-1.55-1.27-.28-1.91-.41-1,.29-.92-.77-1.45-1.06L142.9,93h0l.62-.82a2.9,2.9,0,0,1,1.82-.4C146,92.58,147.11,92,147.8,92.64ZM109,90.16s0,0-.07-.07h0A.43.43,0,0,1,109,90.16ZM99.25,104a.61.61,0,0,0,0,.11H99.2Zm1.63-4.25a.1.1,0,0,1,.05,0l-.06,0Zm-.9-3.64v0h0Zm-17.89-4.4h0Zm62.43,8.54,0,.06h-.09l0,.09h-.15l.1-.08Zm-25-3.36h-.05C119.47,96.74,119.51,96.77,119.54,96.84Zm-10.11,3.45-.07,0s0,0,0-.06ZM79.77,105.2ZM70,108.78h0Zm.44-.06a4.77,4.77,0,0,0,1.09-.25A1.71,1.71,0,0,1,70.4,108.72Zm62.73-22.1,0,0h0Zm-14.6,6.47c.07-.07.15,0,.17.08l-.23,0Zm-8.62-10.27v0a1.07,1.07,0,0,0-.22.1A.5.5,0,0,1,109.91,82.82ZM41.64,108s0,0,.06-.08l0,0,0,0Zm62.9-3.41a.76.76,0,0,1,.09-.09s0,.06,0,.09Zm133.5-.38h0l0,0ZM249.6,50.36h0v0Zm0-.48h0l0,0v0h0Zm-11.8,54.32a.16.16,0,0,1,0-.1.59.59,0,0,0,.11.08Zm14.68,1.23a0,0,0,0,1,0,0,1.15,1.15,0,0,1,.19.14A.82.82,0,0,0,252.47,105.43Zm18.49-.69.12.08a1.29,1.29,0,0,0,0,.19L270,105C270.31,104.9,270.62,104.83,271,104.74Zm-61.27.88h-.18l.19-.07v.06Zm.89-10.85h-.22v0Zm.92,1.84a.25.25,0,0,0,0-.08h.22l-.06-.13h.16l-.1.13Zm12.17-19.06v.06a1.73,1.73,0,0,0-.3.16,1.69,1.69,0,0,1-.7.34c-.27,0-.56,0-.84,0h-.16l-.41-.23a16,16,0,0,0,1.94-.2A2.07,2.07,0,0,1,223.67,77.55ZM191.42,96.76Zm-.55-14.67s-.1,0-.14,0Zm4.86,15,0-.11h.17l-.06-.13H196l-.1.12ZM209.78,106h0v0h0Zm55.25-.87a5.67,5.67,0,0,0,1-.1,4.6,4.6,0,0,0,.66-.2.83.83,0,0,1,.16-.09,3.13,3.13,0,0,0,.73.24,8.79,8.79,0,0,0-1.5.28,2.06,2.06,0,0,1-1.51-.12A2.26,2.26,0,0,0,265,105.17Zm4.3,2.63a8.66,8.66,0,0,0,.87-.12l.2-.06a1.19,1.19,0,0,0,.32.1C270.26,107.76,269.79,107.79,269.33,107.8Zm-50.6-68.23h0Zm-13.17-9.46-.06,0h0S205.54,30.1,205.56,30.11ZM199.91,47.4c1.68.05,3.49.61,5.12-.37a1.71,1.71,0,0,0,1.64.57c3.23-.62,6.5-.05,9.74-.37a3.38,3.38,0,0,0,2-.6c0-.05,0-.09,0-.14a2.54,2.54,0,0,0,2.49,1.07c3.64-.52,7.24-.12,10.86.12.79,0,1.78.18,2.3-.62,2.83-.24,5.14,1.54,7.67,2.38.47.16-.55.17-.56.55a.69.69,0,0,1-.11.13c-.47-.28-.95-.52-1.47,0-.71-.37-1.3-1.28-2.28-.48-.1,0-.12.15-.17.25v0l0,0h0l-.06.05,0-.06H237a.66.66,0,0,0,.35-.54c-.18-.87-.86-1.37-1.52-.9-1.57,1.11-3.49.75-5.12,1.48a.62.62,0,0,1-.37.2c-.65-1.27-1.92-.85-2.94-.83a54.56,54.56,0,0,1-8-.43c-1.77-.22-3.22-.12-4.54,1.06l-.77,0a3.42,3.42,0,0,0,0-.45c-.05-.32.52-.72-.06-.94a.63.63,0,0,0-.89.46,6.68,6.68,0,0,0-.09.91h0c-3.12,0-6.26-.13-9.36.13-1.22.11-2.4-.63-3.57,0h0c-1,0-2.08,0-3.12,0s-2.13.3-3-.44c.24-.82,1.28-.14,1.33-1.05h-2.86a1.48,1.48,0,0,0-.46-.08c-1.44.27-2.92-.86-4.4.37-.5.41-.89-.39-1-1.05a3.44,3.44,0,0,0,.45,0c.92-.19,2.18.33,2.52-1.11l.08,0a1.54,1.54,0,0,0,.68.44,20.6,20.6,0,0,0,2.83.2C195.44,47.26,197.68,47.32,199.91,47.4Zm-3.44,9.93h.18l-.06,0Zm-3.67-7.27a.56.56,0,0,1,0-.12l0,0C192.79,50,192.79,50,192.8,50.06Zm-26.21-4.14,0,0h-.06ZM185.7,27.08l.08.2h-.12A1.18,1.18,0,0,1,185.7,27.08Zm5.37.85L191,28s0,0,0-.07a1.86,1.86,0,0,0-.85-.56,1,1,0,0,1,.84.46h.1A1.21,1.21,0,0,1,191.07,27.93ZM182.46,44.4h0ZM172.33,41h0ZM161.12,53h-.05a12.76,12.76,0,0,1-1.38-.2A13.44,13.44,0,0,0,161.12,53Zm5.48,0h0l.24-.06A.86.86,0,0,1,166.6,53ZM113.26,77.74h0v.1A.76.76,0,0,1,113.26,77.74Zm51.91-3.53a1.49,1.49,0,0,1-.21.22h0A1,1,0,0,0,165.17,74.21ZM145.08,75l-.35.06-.13,0a4.19,4.19,0,0,0,.47-.14C144.89,74.62,145.39,74.9,145.08,75Zm-3-6.38Zm-22.57,5.82h-.05l0,0Zm5.31-.29h0v0h0Zm9.9,2.81h0a.27.27,0,0,0,.15,0,.35.35,0,0,1-.09.07Zm.18-.07a.09.09,0,0,0,0-.09C134.84,76.58,135,76.74,134.9,76.87Zm18.62-1.59h.07a.21.21,0,0,0,0,.06ZM160.27,72a.76.76,0,0,1,.39.68,21.81,21.81,0,0,1-2.92.1h0C158.59,72.47,159.59,72.74,160.27,72Zm-47.51,6.72a1.61,1.61,0,0,0,.59-.48s0,0,0,0a3.74,3.74,0,0,0,2.8-.74c-.39-.39-1.15,0-1.39-.65h0l.92-.5c1.49.58,3.07.29,4.6.39a32.81,32.81,0,0,0,4.41-.31h0c.2.61.34,1.36,1.17.51h0c1.18.38,2.18-.24,3.23-.57a1.85,1.85,0,0,0,.07.41h0v1c.33.64.64.53.93,0a15.19,15.19,0,0,0,2.5.48c2.2-.12,4.36-.87,6.59-.44.29.41.64.33,1,.13a4.57,4.57,0,0,1,2.22-.7c3.52.1,7.06-.48,10.56.31.58.14.5-.33.59-.64a3.57,3.57,0,0,0,2.77.36c1.63-.53,3.33-.22,5-.38a4.48,4.48,0,0,0,.73-.14,2.75,2.75,0,0,1,2.33.1,5.34,5.34,0,0,0,1.63.3c3.56.23,7.1-.69,10.67-.27.75.09,1.64.06,2-.91a1,1,0,0,1-.09-.13h0a91.12,91.12,0,0,1,10.43.88l1.13.07a1,1,0,0,0,1.16.94l2.6-.06c.9.11,1.45-.1,1.58-1.17s.79-1.28,1.68-.58c.54.42,1.3.61,1.27,1.55,0,.15.55.09.78-.18,1.19.19,2.25.73,3.64.37.74-.2.73-1.52,1.92-.93a5.5,5.5,0,0,0,2.48.6c.15,0,.31,0,.47,0a62,62,0,0,0,7-.41,2.22,2.22,0,0,0,2.1,1c.47,0,.93,0,1.4,0a1.76,1.76,0,0,0-.4.32c-1.15,1.25-2.38,1.25-3.86,1.16s-2.9-.51-4.08.66a1.26,1.26,0,0,0-.2-.27A4,4,0,0,0,207,79a31.18,31.18,0,0,0-8.05.74,6.37,6.37,0,0,1-1,.07,3.33,3.33,0,0,0-.63,0l-.9.17c-.49.09-1,.07-1.39.5l0,0a2,2,0,0,0,0-.34,1.2,1.2,0,0,0-1.06-.44c-3.11.21-6.22-.1-9.29,0-2.72.07-5.61-.43-8.26.74a18,18,0,0,0-1.78.6c-3,0-6-.16-8.91.08-4.18.33-8.38-.11-12.55.41a17.28,17.28,0,0,1-2.38-.06l0-.42h0c.33-.2,1,.24,1-.48H148.3a50.81,50.81,0,0,0-6.64-.41c-2.83-.09-5.57,1.42-8.43.39-.28-.1-.73.24-1.1.38a1.14,1.14,0,0,0-1.08-.34c-2.8.31-5.51,1-8.44.65a35,35,0,0,0-4.89.32c-.4,0-.78,0-1,.42-1.85.76-3.83.65-5.77.82a.43.43,0,0,0,0-.33.66.66,0,0,0,.11-.2c0-.06,0-.17,0-.17-2-.46-3.87,0-5.79.28-.41-.49-.71-1.41-1.49-.36a9.88,9.88,0,0,0-3.87.19,4.34,4.34,0,0,0-.43-.23c-2.81-.68-5.54,0-8.3.4a7.55,7.55,0,0,1-2.15.35.78.78,0,0,1-.07-.23,5.37,5.37,0,0,0,.8-.15,10.25,10.25,0,0,1,2.2-.39,2.75,2.75,0,0,0,.57-.2.74.74,0,0,0,.27-.29,1.7,1.7,0,0,0,1.42-.46.67.67,0,0,0,.41-.59h0a4.61,4.61,0,0,0,.64-.16c1.69-.23,3.4,0,5.1-.21A5.28,5.28,0,0,0,101,80c.22-.06.43-.12.65-.2a2.69,2.69,0,0,0,1.16-.54v-.07a1.49,1.49,0,0,0,1.4.55C107,79.24,110,79.76,112.76,78.71ZM47.54,115.09h0l0,0S47.55,115.1,47.54,115.09Zm28.33-6.8c0-.34.23-.09.32-.19h1.13a1,1,0,0,0-.43.36l0,0C76.52,108.39,76.2,108.37,75.87,108.29Zm3.38-.3a3.57,3.57,0,0,1-.8,0,2.81,2.81,0,0,0,1.43-.73c.05-.07.11-.14.16-.22a9,9,0,0,0,2.74.62c-.49.1-1,.26-1.48.34A3.49,3.49,0,0,1,79.25,108Zm24.37-1a1.47,1.47,0,0,0-.14.28,3.11,3.11,0,0,0-1.82-.42,29.71,29.71,0,0,0-7.37.28c-2.36.44-4.83-.23-7.08.86-.21,0-.39.23-.56.45a3,3,0,0,0-1.11.36,2.36,2.36,0,0,1-.33-.42,2.08,2.08,0,0,0-1-.72,19.46,19.46,0,0,0,4.18-.83,1.48,1.48,0,0,0,.19-.35l2.71-.1c.81,0,1.67.32,2.4-.31a4.21,4.21,0,0,0,1.9-.12l.22,0,.22,0a.46.46,0,0,0,.43.14,3.37,3.37,0,0,0,3.38,0l0,0,1,0,.51,0a3.68,3.68,0,0,0,2.5-.36h0l1.78-.06a1.2,1.2,0,0,1,.35.36,2.46,2.46,0,0,0,.82.42A31.11,31.11,0,0,0,103.62,107Zm5.16-.88a9.4,9.4,0,0,1,3.38.15h-.09A15.84,15.84,0,0,0,108.78,106.11Zm26.3,2.72h.13c-.1,0-.13.08-.07.2S135,109,135.08,108.83Zm127.28-1.09a1.22,1.22,0,0,1-.27,0v0a1.62,1.62,0,0,0,.22,0,15.1,15.1,0,0,1,4.35,0A28.06,28.06,0,0,0,262.36,107.74Zm95.43-93.08ZM400.85,58h0a2.53,2.53,0,0,1-.52-.39Zm-3-13.48s0-.08,0-.12a.46.46,0,0,1,.12.12Zm.58-4.31.05,0h-.15Zm-4.68,68.05a.9.9,0,0,0,0-.25h.31A1.56,1.56,0,0,1,393.74,108.26Zm6.1-53.57ZM398,48.21c-.73.4-.67.68-.17,2.31a3,3,0,0,0,.4.54,1.13,1.13,0,0,1-.57.24,1.43,1.43,0,0,0,0-.29c-.55-1.43-1.1-2.88-2.91-3.12-1.58-.2-3.07-.76-4.63-1l-.36-.1v0l.46.13A40.38,40.38,0,0,0,398,48.21Z"/><path d="M271.19,12.37l-.57-.37C270.73,12.24,270.89,12.42,271.19,12.37Z"/></g></g></svg>