<svg xmlns="http://www.w3.org/2000/svg" viewBox="0 0 274.93 287.72"><g id="Capa_2" data-name="Capa 2"><g id="Capa_9" data-name="Capa 9"><path d="M29.49,163.87l0-.05,0,0Z"/><path d="M218.52,138.84l0,.07h0Z"/><path d="M240.13,190.05c1.49-3.92,1.19-4.39-2.95-5.26a3.27,3.27,0,0,1,.19-.9c1.81-3.54,1.39-4.3-2.53-5.12-1.3-.27-1.64-1.22-1-2.4a1.4,1.4,0,0,1-.32.22.62.62,0,0,1-.37,0c-.59-2.19-.57-4.38,1.27-5.89a3.69,3.69,0,0,0,1.26-4.22c-.18-.75-1-1.58-.44-2.23,1.38-1.56.53-2.37-.39-3.85-2.06-3.34-4-6.58-7.75-8.29.08-2.83-1.93-3.71-4.1-4.51-.2-.08-.35-1-.17-1.31,1.11-2.11.82-3.33-1.65-4.25-1.1-.41-1.76-2-2.61-3.12a8.49,8.49,0,0,1-5-1.14c-1.49-.78-3.35-1.5-2.16-4,.53-1.09-.3-1-1.23-1.08-2.73-.29-3.46-1.91-2.13-4.1.67-1.11,2.3-1.54,2.51-3-.41-.29-.57-.48-.66-.45-2.9,1-5.28-.09-7.5-1.86s-2.3-2-1.82-6.7a1.55,1.55,0,0,0-.65-1.67,1.36,1.36,0,0,0-1.7.46,12.66,12.66,0,0,1-1.08,1.56c-1.28,1.21-2.3,1.07-2.55-.81-.12-.87-.23-1.61-1.24-1.67-.86,0-1.37.47-1.83,1.23-2.07,3.35-3.85,3.67-6.73,1-1.3-1.18-2.81-1.4-4.36-1.74-3.5-.77-3.52-.8-1.64-3.82.33-.52.68-1,1-1.56a4.45,4.45,0,0,0-2.53-1.53c-1.25-.26-2.67-.41-3.23-1.73s.89-1.91,1.24-2.92c.71-2-.14-3-2.32-2.76-.78.09-1.53.62-2.29.62-3.57,0-1.14-5.24-4.7-5.4-.6,0-.57-1-.23-1.61,2.47-4.57.7-8.29-2.59-11.95,2.37,1,3.4-2.06,5.59-1.41.57.17.79-.48.89-.92.46-2,1.89-3.64,2.69-5.41,1.23-2.74,3.45-5.81.88-9.19-.61-.8-.55-2.13-.75-3.22-.15-.78,0-1.72-.74-2.21-3.43-2.32-5.93-6.2-10.87-6-2.53.1-3.26-1.12-2.72-3.58a16.75,16.75,0,0,1,1.06-2.66c3.19-7.69-3.35-15-10.26-16.62-3.37-.81-6.48.73-9.85.41.19-6.07-6.43-7.64-8.08-12.51-.26-.76-1.43-.39-2.21-.46-1.36-.11-1.75-1-1.73-2.27,2.26.53,5.82.06,9.56-1.14,1.3-.41,2.43-.89,2.49-2.47A2.31,2.31,0,0,0,136.54,10c-.82,0-1.84-.24-1.3-1.3,1.06-2.06-.88-4,0-6,.44-1,.53-2.49-1-2.63a2.89,2.89,0,0,0-2.94,2.05c-.54,1.55.49,3.08.12,4.73-.56,2.51-3.5.22-4.17,2.28-.2.6-.55,1.16-.75,1.76a18.46,18.46,0,0,0-1,6.59,8.58,8.58,0,0,1,0,3.32c-1,2.5-2.85,4.94,1,6.72.22.1.17.91.13,1.37A9.24,9.24,0,0,0,128.56,36c1.1,1.3-.22,4,2.19,4.75,2.93.89,2.13,2.41,1.1,4.32-.45.84-1.09,1.56-1.45,2.42a2.06,2.06,0,0,0,1.23,3.06,6.89,6.89,0,0,1,4.25,6.09,13,13,0,0,0,.19,2.87c.28,1.06,1,1.09,1.67.25.31-.37.31-1.56,1.13-.83,2.25,2,2.53.06,3.17-1.4a.75.75,0,0,1,1.08-.36c1.1.59-.5,2.33,1.12,2.65,1.29-.38.83-2.7,2.92-2.16.7,2.56-.57,4.18-2.72,5.32-.73.38-1.66.68-1.5,1.59.66,3.75.43,7.74,2.53,11.1.78,1.25,2.5,1.87,1.47,3.89-.42.81.67,1,1.22.9a4.47,4.47,0,0,1,4.56,2c.8,1.17,2.48.12,3.55,1.83-2.36.72-2.88,2.6-3.14,4.78-.22,1.88-1.53,2.57-3,1.14-2.9-2.86-6-3.4-9.56-.76a10.22,10.22,0,0,1-.58-5c1.11-.89,2.45,1.3,3.58-.64-3-3.65-2.16-8.79-4.77-14-1.71,6.75,1.28,12.83-1.59,18.26-.71-.63-.21-2.64-1.45-2.53-3,.27-3.46-1.89-4.75-3.68-1.67-2.3-3.11-4.91-5.5-6.6-1.49-1.05-2.12-2-1.56-4,.63-2.15,0-5.3-1.42-5.9-2-.88-3.06-2.33-4.52-3.59-.8-.68-2-1.48-3.35-.5,2.51,3.08,2.51,3.08,3,8.11a7.25,7.25,0,0,0,.28,1.89c1.27,3,1.28,3,.06,5.3a1,1,0,0,0,.26,1.23c1.11.43,1.58-2.17,2.78-.62.82,1.07-.54,1.49-1,2.24-1.4,2.34-3.51,4.29-3.67,7.35-.15,2.9-2.17,4.42-4.76,5.39-1,.38-2.39-.22-3,1-.52,1-.85,2.13-2.35,1.39a21.54,21.54,0,0,1-3-1.51c-.55-.39-.44-1.14,0-1.68a3.85,3.85,0,0,1,2.53-1.2c1.34-.15,2.76,1,4-.38s1.19-2.9,1.52-4.45a9.28,9.28,0,0,1,1-2.68c.42-.7,1.12-1.46.17-1.95s-1.85.21-2.29,1.15a26.14,26.14,0,0,1-1,2.66c-1.09,1.69-2.47,2.84-4.76,2.41-4.13-.78-4.42-.51-5.32,3.82-.39,1.86-1.36,2.31-3.05,1.43a6.42,6.42,0,0,1-2.62-2.72c-1-1.82-1.91-3.69-2.94-5.5-.53-.93-1.11-2.49-2.32-2-2.22.88-3.88-.92-5.65-1-1.4,1.76,1.4,3.14-.11,4.68a15.27,15.27,0,0,0-3.25.2c-1.19.34-1.19,1.4-.62,2.32.68,1.08,1.56.78,2.46.21,3.57-2.25,6.37,1.32,9.67,1.36.75,0,1.2,1.13,1.08,1.93-.21,1.37.13,2.8-.8,4.13-1.3,1.84-.41,2.63,1.62,2.41.7-.07,1.53-.76,1.76.56-2.65,1.62-2.86,1.64-2.62,4.61a3.57,3.57,0,0,1-2.05,3.86c-1.7,1-2-.94-3-1.24-3.18-1-5-4.09-8.5-4.72-3-.55-3.09-1.65-.84-3.57.6-.52,1.38-.81,1.15-2.08a9.06,9.06,0,0,1-6.79-.92C69,93,68.33,90,67.87,87c-.41-2.61,2.61-1.63,3.75-3-3.54-2.24-6.86-4.4-10.24-6.46A14.48,14.48,0,0,0,56,75.62c-1.14-.17-1.94.3-1.85,1.52.2,3.09-.35,6.27,2.48,8.81,2.5,2.24,4.58,5,4.32,8.72-.08,1.18.75,1.59,1.65,2,1.91,1,1.75,2.47.73,4a15.33,15.33,0,0,1-4.53,4.22,2.31,2.31,0,0,1-3.18-.37c.07-1.13.78-1.24,1.29-1.57,2.75-1.76,2.79-2.35,0-4.18a12.64,12.64,0,0,1-3.42-2.57c-.51-.67-1.48-1.4-2-.72-1.91,2.66-3.58-.53-5.65-.26.55,2.73,1.38,4.85,4.35,5.6-1.31.79-3.17,1.2-2.68,2.27,1.41,3.07.19,6.27,1,9.31a39.29,39.29,0,0,0,7.88,15.47,10.06,10.06,0,0,1,1.48,1.87c.76,1.58-.17,2.86-1.22,3.8s-1.71-.15-2.4-.79-1.08-1.42-1.73-1.54c-5-.94-9.77-2.26-13.83-5.57a2.33,2.33,0,0,0-3.46.2c-.85,1.16.14,2,.84,2.92.27.34.6.78,0,1.19-1.2.53-1.64-.5-2.32-1.12a5,5,0,0,0-5.35-.85c-1.89.87,0,2.82-.12,4.31A2.2,2.2,0,0,0,30,134.89a2.07,2.07,0,0,1,1.84,2.41c-.61,2.56.54,3.78,2.65,4.76A5.35,5.35,0,0,1,36.59,144c.58.91,1.25,2.15.21,3s-2.1.09-2.94-.68c-1.58-1.45-2.13-3.54-3.2-5.31-2.41-4-3.26-4-5.72-.19-.13.21,0,.57,0,.86,3,1,2.94,1,4.32,3.64.91,1.78,1.28,4.11,4,4.13.53,0,.71.45.77,1,.23,2.07.53,2.26,2.42,2,1.67-.2,3.45-.59,3.52-2.49.06-1.46-.55-3.38,1.55-2.92,1.74.37.9,2.41.56,3.75A7.75,7.75,0,0,1,41,153.47c-1.26,1.69-2.64,3.26-5.18,2.17-1.75-.74-3.64-2.14-5.41-1.55-2.6.87-.35,4-1.58,5.36-1.81,2-.25,3,.6,4.37,1.42.81,2.05,3.8,4.7,1.24.89-.86,2.62.6,3,2.14.32,1.23.38,2.52.6,3.78.14.76.23,1.54,1.25,1.78,2.48.56,5.8-2.24,5.43-4.84s.3-4.73.89-7c3.33-.48,1.38-4.07,3.19-5.4.43-.31,1-.7,1.66-.22.46,4.26.46,4.23,4.42,3.92a11.64,11.64,0,0,0,4.16-1c1.54-.74,2.84-1.88,2.17-3.71-.56-1.54-2.08-1.07-3.34-.8a3.52,3.52,0,0,1-1.38.27c-.71-.16-1.11-1.19-.66-1.39,2.55-1.15,2.32-4.31,4.81-5.81,4.27-2.57,9.1-4.68,12.05-9,1.77-2.56,4.19-2.53,6.73-2.67,2.22-.13,3.29,1,3.21,3.14s-.31,4.14-.34,6.22A2.72,2.72,0,0,1,80.3,147c-.57.29-1.18.51-1.72.85-2.75,1.74-2.67,3,.36,4.62.81.44,1.86.57,2.07,2.07-1.48,1.34-3,4.08-1.32,5.16,2.74,1.8,2.37,5.79,6,6.84,2.5.72,1.18,2.9.25,4.33s-2,3-3.56.68c-1.37-2.14-2.85.17-4.35-.28-1.06-.31-.85,1.38-.9,2.25-.12,2.07-1.7,2.66-2.94,1.88-3.19-2-4.27.07-5.51,2.26-1,1.83-1.92,3.94-4.68,2.22a1.16,1.16,0,0,0-1.66.43,1.38,1.38,0,0,0,.41,1.72A15.87,15.87,0,0,0,65,183.8c1.68,1,1.55,2.32.49,3.59A23.64,23.64,0,0,1,62.69,190a38.66,38.66,0,0,0-3.28,2.8,7.09,7.09,0,0,0,2,11c1.1.57,1.75-.29,2.41-1-3.26-2.83-3.78-4.52-2.23-7.19a6,6,0,0,1,7-2.76c.94.26,2.2.71,1.66,1.8-1.51,3.08-.1,6.1.16,9.36-3.69-2.53-3.66-2.51-5.94.59a13.69,13.69,0,0,1-1.8,1.57,18.24,18.24,0,0,0-2.39,2.34c-1,1.36-1.46,2.94-.3,4.42s2.41,1.35,3.94.39c-.2-.75-.4-1.51-.59-2.27-.23-1-.45-2,.64-2.52s1.68.61,2.2,1.29c1.75,2.29,3.39,4.65,5.08,7,1,1.33,1.84,2.67,3.83,1.29,1.25-.86,2.34-.2,2.25,1.24-.28,4.43-.8,8.83-3.61,12.55-.25-.36-.47-.37-.56,0,0,.1.14.24.21.36-.44,2,3,1.66,2.24,3.69-.78,2.22.67,2.06,2,1.88,1.85-.27,3.48-.45,4.15,1.92.33,1.16.87,2.88,2.54,2s.22-2.27-.25-3.3A21.6,21.6,0,0,0,82,235.64c-.7-1-1.36-2.15-2-3.26-.33-.58-.42-1.29.27-1.66a1.41,1.41,0,0,1,1.3.05c3.32,3,7.44,4.43,11.37,6.3,2.12,1,4,.69,6,.25.6-.13,1.26-.4,1.3-1.17a1.83,1.83,0,0,0-1-1.53,3.52,3.52,0,0,0-2.74-.44c-4.39.66-4.41.63-5.66-3.68-.41-1.42-.54-2.63-2.76-2.31s-2.33-2.14-3.09-3.52.86-1.41,1.52-1.83.3-1.84,1.41-1.94c.86,1.16.66,2.34.94,3.41.23.85.73,1.63,1.56,1.51s1.24-.92,1.38-1.78c.29-1.76-.62-3.08-1.63-4.34a.91.91,0,0,1,.06-1.26c.38-.48.82-.34,1.19,0,2.77,2.74,3.24,2.87,5.57.39,1.37-1.47,2.49-2.68,4.81-2.3,1.84.3,3.42-.37,1.8-2.68a1.79,1.79,0,0,1,.2-2.56c.81-.75,1.79-.24,2.66.17a21.56,21.56,0,0,1,5.48,3.84,7.53,7.53,0,0,0,3.18,2c4.6,1.2,4.58,1.26,3.63,6.55-1.33.84-1.5-2.07-3.23-.78,2.19,2.88,5.07,5.63,2.69,11a38.53,38.53,0,0,0-2.61-3.67,1.58,1.58,0,0,0-2.18-.27,4.07,4.07,0,0,0-1.67,4.21c.41,1.63,1.85,2,3.38,2.13,1.27.06,2.11-1.62,3.85-.72.78,4.53.51,9.32.64,14.08s-.49,9.67.51,14.9c2.31-1.62,1.64-3.3,1.61-4.8-.18-8-.39-16-.55-24,0-1.05-.38-2.56.89-2.92a3.39,3.39,0,0,1,3.57.69c.65.71.94,2.45,2.39,1.2.86-.74.19-1.77-.34-2.57-1.22-1.85-.38-4.8-3.45-5.78a2.09,2.09,0,0,1-.79-3.53c1.19-1.12,2.62-.76,3.87.33.94.82,1.23,2.3,2.61,2.59a3.34,3.34,0,0,0,.38-.34c.94-1.11-.82-4.06,1.62-3.63,1.82.32.76,3,.89,4.63a2,2,0,0,1-.86,1.58c-2,.9-1.8,2.54-2.18,4.29-.49,2.32.38,4.45.18,6.58-.48,4.95.46,9.25,3.67,13.19,1.37,1.67,1.88,4,3.35,5.78,2.9,3.42,6.64,3.78,10.12,1a16.3,16.3,0,0,0,4.4-5c1.15-2.25,2.58-3.31,5.25-2.7,1.45.33,3.2.48,3.62-1.93.26-1.51,2.07-1.73,3.08-1.58,1.27.2.94,1.8,1,2.88,0,.64,0,1.28,0,1.92q.15,14.88.31,29.75a26.94,26.94,0,0,0,.18,3.82,1.72,1.72,0,0,0,2,1.54,1.7,1.7,0,0,0,1.47-1.65,9.32,9.32,0,0,0-.06-1.9,306.07,306.07,0,0,1-1.63-31.6c0-4.47-.51-9,4.5-11.54,1.74-.87.86-3.18,2.34-4.5.64-.56-1.84-.72-2.47-1.86s-2.63-1-2.35-2.66a5.36,5.36,0,0,1,3.14-4c.52-.25,1.29.06,1.87-.12,2.87-.86,6-.91,9.05-2.87-3.25-.78-5.71,2.08-8.76-.1s-1.76-5.29-3.24-7.56c2.46-1.61,5.17-1.29,7.33-3,1.55-1.2,3,.56,3.71,1.9s.37,2.49-1.44,2.78a3.27,3.27,0,0,0-2.31,1.58A1.66,1.66,0,0,0,178,222c.37.76,1.07.59,1.61.18,1.8-1.38,4.06-2.49,5.22-4.3,1.3-2,2.88-2.28,4.8-2.36,2.58-.09,5.2-.17,7.35-1.77s4.27-2.67,6.31-.19a1.51,1.51,0,0,0,.81-1.46c0-.68-.85-1.54.31-2a1.27,1.27,0,0,1,1.68.5c.84,2.21,2.23,2.23,4.13,1.43.77-.33,1.54.12,1.75,1.11.32,1.52,1.06,1.28,1.91.42,1.4-1.41,2.85-1.36,4.77-.89s2.13-2.64,4.1-2.73c.16,0,.35-.09.48,0,3.69,1.58,5.39-1.4,7.25-3.51.57.38.86.52,1.1.72.65.56,1,1.95,2.15,1.29,1-.56.66-1.62.4-2.59-.32-1.19-1.59-2.47-.63-3.59a26,26,0,0,0,3.64-6.7c.55,1.63,1.74,3.13-.27,4.56a1.09,1.09,0,0,0,.25,1.94c.92.35,2.08.35,1.9-1.14a1.9,1.9,0,0,1,1.24-2.24c1.82-.88,1.7-2.05.44-3.38C239.25,193.69,239.41,192,240.13,190.05ZM57,112.43c2.91-.82,3.25,1.28,4.35,3.11C58.65,115.77,57.77,114.38,57,112.43Zm15.92,81.45a4.23,4.23,0,0,1-.84-1c-.1-.24-.3-1,.49-.73.37.14.6.68.87,1Zm12.77,18a1.54,1.54,0,0,1-1.23-1.76.81.81,0,0,1,1-.72,1.72,1.72,0,0,1,1.23,1.8A.78.78,0,0,1,85.64,211.86ZM87.05,179c-.64,0-1.28-.21-1.07-1,.12-.48.66-.55,1.13-.48a.94.94,0,0,1,.85,1C87.91,178.93,87.48,179,87.05,179Zm3.65,32.39c-1.1-.27-1.33-1.26-1.14-2.28.13-.65.49-1.32,1.26-1,1,.36,2.13.74,2.28,2.08A2.25,2.25,0,0,1,90.7,211.42ZM126.77,93.5c-.94-.08-1.26-.75-1.21-1.59,0-.44.13-1,.8-.81a1.57,1.57,0,0,1,1.34,1.53C127.56,93.14,127.32,93.55,126.77,93.5Z"/><path d="M64.36,74c1.85,1.9,3.7,1.93,5.94.26,1.56-1.16,1.55-2.11,0-3.33-2.9-2.21-3-2.3-.86-5.34.78-1.09,1.09-1.75.32-2.84-2.64-3.77-4.71-7.95-8-11.29-2.76-2.82-5.13-3.63-7.07-2.22-2.67,1.94-1.6,4.49-.82,6.91.19.61.51,1.17,0,1.86l-3.11-1.42c-.65,1.57.09,2.27.65,3A155.45,155.45,0,0,0,64.36,74Z"/><path d="M228.41,140.64c2.16-.23,6.26-4.21,6.4-6.25.28-4,.22-7.68-3.69-10.55s-9.55-2.68-12.49,1.16c-3.53,4.61-3.54,8.25-.07,13.85.6.12,1.35.07,1.76.42C222.76,141.4,225.61,140.94,228.41,140.64Z"/><path d="M218.52,138.84l.08.07,0-.06Z"/><path d="M96,47.58c1.38.51.92,1,.84,2-.34,4-1.31,8.17,3.13,11,1.38.89,1.58,3,2.05,4.73.37,1.35-.36,2.9,1,4.3,3.13-3.56.11-8.58,2.79-12.08,1.52.05,1.72,1.43,2.54,2.09A1.48,1.48,0,0,0,110,60a1.24,1.24,0,0,0,.47-1.64c-.25-.76-.29-2.06-.72-2.2-3.85-1.25-3.79-7.12-8.65-7.22-.62,0-1.55-1.26-1.78-2.08-.84-3.12-3.23-4.1-6.32-4.91C93,46.29,92.91,46.43,96,47.58Z"/><path d="M189.69,104.15a11.86,11.86,0,0,0-2.17,6.21c2,.59,4,1.28,6,1.69a4.12,4.12,0,0,0,5.22-3,6,6,0,0,0-2.65-6.58A5,5,0,0,0,189.69,104.15Z"/><path d="M30.64,221.36c-3.41-.17-4,.64-2.54,3.9.92,2,2.23,3.87,3.24,5.86a2.91,2.91,0,0,0,3.95,1.59c1.81-.57,3.08-1.36,3.13-3.6C38.51,224.68,35.53,221.61,30.64,221.36Z"/><path d="M48.43,191.87c-2-.8-3-2.65-4.46-4-.8-.73-1.29-1.4-2.23-.7s-1.57,2-.59,2.84c1.19,1,1.4,2.88,3.1,3.36,2.1.59.52.85-.06,1.44-1.07,1.11-.12,2.06.58,2.87,1,1.09,2.07,2,3.69,1.56,1.15-.35,1-1.44,1.2-2.35.1-.62.17-1.25.24-1.75C50,193.7,49.86,192.45,48.43,191.87Z"/><path d="M186.28,58.76l.47,0c2.54.09,5.63-1.79,5.63-3.43s-2.95-3.45-5.63-3.33a3.55,3.55,0,0,0-.47.06c-1.93.33-3.85.78-4.32,3C181.64,56.69,183.89,58.48,186.28,58.76Z"/><path d="M11.21,133.36c-3.65-1.76-6-6.05-11.21-4.87.31,2.51,2.87,3.56,3.38,5.72S5.2,136.52,7,136.1C8.49,135.72,10.07,135.44,11.21,133.36Z"/><path d="M245.51,189.79a3.37,3.37,0,0,0-4,2.44c-.31,1.86,1.48,3.86,3.7,4.14,2,.24,4.3-1.14,4.48-2.66S247.51,190.12,245.51,189.79Z"/><path d="M69.58,220.24A4.73,4.73,0,0,1,67.33,218c-.53-.85-1.22-1.64-2.22-.69a1.89,1.89,0,0,0-.09,2.61,31.45,31.45,0,0,0,3.62,3c-.12,1.36-1.91,1.6-2.1,3.33a3.93,3.93,0,0,0,3.77-.68C73.23,223.21,73.08,221.7,69.58,220.24Z"/><path d="M241,100.22c-.34-2.22-2.64-4.2,0-6,.3-.21.16-1-.35-1.18a1.71,1.71,0,0,0-1.35,0,9.14,9.14,0,0,1-6.39,1.82C235,98.5,237.42,99.87,241,100.22Z"/><path d="M7.88,161.07a1.92,1.92,0,0,0,0,2.94c1,.92,2.26,1.3,3.33.11s1.89-2.49,3.08-4.09C11.48,158.69,9.53,159.32,7.88,161.07Z"/><path d="M267.72,100.88a3,3,0,0,0,1.63-2.72,1.31,1.31,0,0,0-1.08-1.39A2.13,2.13,0,0,0,266,98.18c-.76,1.61-1.5,2.38-3,.71a1,1,0,0,0-1.63.33,1.13,1.13,0,0,0-.12,1.31,1.77,1.77,0,0,0,1.58.86c.93,0,1.6-1.18,2.73-.55A2.19,2.19,0,0,0,267.72,100.88Z"/><path d="M120.59,29.81a1.28,1.28,0,0,0,1.47-1.43c-.14-3-.37-5.93-.61-9.46-2.13,1.7-1.82,3.16-1.62,4.53.22,1.56.68,3.08-.06,4.65C119.4,28.89,119.49,29.71,120.59,29.81Z"/><path d="M245,130.75a3.06,3.06,0,0,0,2.61-3.35c0-1-.38-1.83-1.5-1.86-1.5.06-3.55,2.11-3.39,3.41A1.91,1.91,0,0,0,245,130.75Z"/><path d="M59.23,260.75c-1.21.11-2.52.51-2.43,2.14a2.19,2.19,0,0,0,2.47,2.33c1.42-.14,2.45-.9,2.35-2.47C61.54,261.45,60.72,260.77,59.23,260.75Z"/><path d="M76.49,71.25c1.92.13,2.24-1.28,2.22-2.81A2,2,0,0,1,79,67.08a.89.89,0,0,1-.87-.15c-1.09-.77-2.19-1.52-2.91.4S75.16,71.16,76.49,71.25Z"/><path d="M79.3,66.83a.93.93,0,0,0-.3.25,2.09,2.09,0,0,0,.36-.19Z"/><path d="M226.71,145a1.9,1.9,0,0,0-.32,1.28.68.68,0,0,0,1,.68c2-.81,4.43-.28,6.28-1.91C230.53,143.44,228.16,143.42,226.71,145Z"/><path d="M224.9,81.33c1.69,0,2.42-1.14,2.74-3-.23-.61-.36-1.69-1.6-1.55a3.25,3.25,0,0,0-3,2.48C222.7,80.66,223.71,81.32,224.9,81.33Z"/><path d="M248.87,46.32c-1.08-.26-2.56,2-2.44,3.62.08,1.07.65,2,1.74,1.87,1.87-.19,1.88-1.81,2-3C250.24,47.55,249.94,46.58,248.87,46.32Z"/><path d="M212.64,235.71a1.87,1.87,0,0,0-1.73,1.93c.08,1.53,1.09,2.18,2.58,2.06a1.66,1.66,0,0,0,1.69-2C214.71,236.7,214.34,235.38,212.64,235.71Z"/><path d="M79.3,66.83l.06.06v-.06Z"/><path d="M85.58,64.4c0-.45.2-1,0-1.33a1.8,1.8,0,0,0-1-.68c-1.58,1.65-5,1.22-5.19,4.44C81.85,67.08,83.09,64.13,85.58,64.4Z"/><path d="M239.36,146.33c-1.63-.1-2,1.27-2.27,2.49a1.43,1.43,0,0,0,1.5,1.87,2.94,2.94,0,0,0,2.79-2.08C241.16,147.42,240.61,146.41,239.36,146.33Z"/><path d="M216.51,228.83c-.57,3.5,1,5,3.45,6.87A9.38,9.38,0,0,0,216.51,228.83Z"/><path d="M220.22,109.23c1.33-.66,3.08-.65,4.1-2.71a7.76,7.76,0,0,0-4.93.1,1.65,1.65,0,0,0-1.09,2.25C218.68,109.88,219.51,109.59,220.22,109.23Z"/><path d="M44.51,219.65c-2.56,1.09-1.25,2.82-.94,4.36.23,1.14.94,1.69,2,1.19s1.84-1.34,1.06-2.61C46,221.57,45.23,220.64,44.51,219.65Z"/><path d="M160.83,10.12c-.1-2.54-.17-4.6-2.23-7.21C157.87,6.31,157.64,8.56,160.83,10.12Z"/><path d="M129.88,68c1-2.11.63-3.9,2.1-5a1.06,1.06,0,0,0,.15-1.64,1.25,1.25,0,0,0-.85-.29c-.86,0-1.94.53-1.69,1.23C130.18,64,128.69,65.6,129.88,68Z"/><path d="M229.24,117.63c3.24-.62,3.24-.62,5.25-3C232.33,114.58,230.14,114.73,229.24,117.63Z"/><path d="M267.28,138.85c1.57-1.1,2.73-.09,4,.5.16.07.63-.53.89-.76,0-.65-.45-1.21-.79-1-1.72.89-2.47.24-2.88-1.44-.1-.42-.69-.55-1.15-.23a2.07,2.07,0,0,0-.86,2C266.57,138.39,267,139.08,267.28,138.85Z"/><path d="M245.52,231.05a3.7,3.7,0,0,0-.77,3.09,1.91,1.91,0,0,0,2.67,1.27c.51-1.4-.07-2.75-.42-4.06A.84.84,0,0,0,245.52,231.05Z"/><path d="M232.13,68.44c-2,1-3.56,2-3.9,5C231.82,71.75,231.82,71.76,232.13,68.44Z"/><path d="M274.93,119.09c-2.14-1.56-3.91-1.83-6.22-.38C272,120.14,272,120.14,274.93,119.09Z"/><path d="M49.81,127.14c.28-1.15.54-2.31,1-4.37a6.78,6.78,0,0,0-3.41,3.46,1.37,1.37,0,0,0,.77,1.91C49.12,128.57,49.6,128,49.81,127.14Z"/><path d="M234,176.25l-.07,0a.3.3,0,0,1,0,.08l.07-.05Z"/><path d="M238.92,175.21c.56.19,1.11-.51,1.05-1.24a.89.89,0,0,0-.58-.61c-1.63-.3-2.63,2.16-4.47,1l-1,1.85A5.1,5.1,0,0,1,238.92,175.21Z"/><path d="M92.37,79.55a1.2,1.2,0,0,0,1.19-1.65,2.81,2.81,0,0,0-2.62-2.23c-.83.25-1.21.76-1.07,1.45C90.14,78.47,90.88,79.54,92.37,79.55Z"/><path d="M29.28,90.42a1.62,1.62,0,0,0,1.4,1.66c1.38.12,1.85-1,2.18-2.07s-.61-1.18-1.31-1.38C30.39,88.75,29.24,88.88,29.28,90.42Z"/><path d="M74.65,92.72a2.45,2.45,0,0,0,1.9-2.65c-.09-1.14-.61-1.95-1.43-1.82-1.59.24-1.7,1.65-1.72,2.94C73.39,92,73.61,92.94,74.65,92.72Z"/><path d="M75.43,147.4c0-1.33-.63-2-2-2-.73.12-1.72.05-1.66,1.11A2.68,2.68,0,0,0,74.16,149C74.88,149.15,75.43,148.29,75.43,147.4Z"/><path d="M271.09,156.67a1.47,1.47,0,0,0-1.41,1.6,1.62,1.62,0,0,0,2,1.51,1.57,1.57,0,0,0,1.46-1.75A1.9,1.9,0,0,0,271.09,156.67Z"/><path d="M237.11,209c1.74-2.8,1.74-2.8.7-5.57C236.23,205,235.9,206.55,237.11,209Z"/><path d="M258.11,223.18a1,1,0,0,0-1.07,1.33,2.14,2.14,0,0,0,1.84,1.94,1,1,0,0,0,1.21-1.08A2.1,2.1,0,0,0,258.11,223.18Z"/><path d="M238.83,158.38a1.67,1.67,0,0,0,1.91,1.61c.87,0,1.45-.5,1.46-1.72a2,2,0,0,0-2-1.38C239.37,156.92,238.72,157.39,238.83,158.38Z"/><path d="M31.31,167.82c-1.24,0-2.15.61-2.13,2,0,.76.64,1,1.32,1a1.7,1.7,0,0,0,1.87-1.7C32.25,168.49,32.13,167.79,31.31,167.82Z"/><path d="M33.44,205.1c.49-.2,1.56-.17,1.57-1.46a1.5,1.5,0,0,0-1.36-1.6,1.85,1.85,0,0,0-2.21,1.82C31.42,204.79,32.21,205.09,33.44,205.1Z"/><path d="M96.22,224.55c-1.42,1.53,0,2.77.72,4.15.54-1.39,2.11-2.68.56-4.15A1.27,1.27,0,0,0,96.22,224.55Z"/><path d="M122.86,15.93c.94.06,1.36-.54,1.46-1.44-.34-.94-.32-2.24-1.74-2.33-.94-.06-1.38.76-1.44,1.51C121,14.84,121.46,15.85,122.86,15.93Z"/><path d="M55.23,242.22c-1.47.29-2,1.44-2,2.81,0,.84.22,1.66,1.29,1.43a2.49,2.49,0,0,0,2-2.72C56.44,242.9,56.3,242,55.23,242.22Z"/><path d="M113.54,68c.9,0,1.2-1,1.21-1.8s0-1.63-1-1.92a1.91,1.91,0,0,0-1.55,2.07C112.18,67.15,112.66,68,113.54,68Z"/><path d="M107.29,80.63a2.34,2.34,0,0,0-1.93,2.14c-.07.61.08,1.31.91,1.3a2,2,0,0,0,2-2A1.12,1.12,0,0,0,107.29,80.63Z"/><path d="M23.54,136c-.71.27-.95,1-1.13,1.71-.11.46-.21,1.08.27,1.25,1.14.38,1.16-.69,1.41-1.32A1.12,1.12,0,0,0,23.54,136Z"/><path d="M125.31,65.2a2.4,2.4,0,0,0,2-2.65c0-.58-.24-1.23-1.15-1.2a2.61,2.61,0,0,0-1.93,2.71C124.25,64.63,124.42,65.38,125.31,65.2Z"/><path d="M205.43,89.34a1.63,1.63,0,0,0,1.41-1.61,1,1,0,0,0-1.21-1.06,1.59,1.59,0,0,0-1.39,1.6C204.34,89,204.73,89.48,205.43,89.34Z"/><path d="M252.57,181.21a.82.82,0,0,0-.1.79c1,1.05,1.93.26,2.88-.1.12,0,.2-.22.32-.35C254.75,180.39,253.71,180.18,252.57,181.21Z"/><path d="M212.07,219.75c.81,0,1.42-.53,1.56-1.8a1.55,1.55,0,0,0-1.42-1.16c-.89-.06-1.39.52-1.41,1.43S211.11,219.8,212.07,219.75Z"/><path d="M47.39,213.92c-1.06.18-1.34,1.12-1.35,2.1a.89.89,0,0,0,.79,1c1.26.08,1.37-1,1.63-1.79C48.36,214.52,48.11,213.8,47.39,213.92Z"/><path d="M139.73,65.3c1-.1,1.18-.91,1.29-1.74-.05-.62,0-1.48-.75-1.54-1.29-.1-1.49,1-1.48,1.95C138.79,64.56,138.77,65.4,139.73,65.3Z"/><path d="M133.63,60c.53-.12.92-.35.78-.94-.2-.9-.33-1.92-1.51-2.06-.59-.07-.74.47-.71.92C132.26,58.88,132.56,59.73,133.63,60Z"/><path d="M247.3,148.83c-.19-.66-.68-1.24-1.28-1.2a1.16,1.16,0,0,0-1.14,1.61,1.21,1.21,0,0,0,1.42.93C247.05,150.06,247.28,149.51,247.3,148.83Z"/><path d="M137.23,23.31c2.14-1,2.16-2.52,1.21-4.81C136.55,20.22,136.32,21.58,137.23,23.31Z"/><path d="M52.12,211.61c-.64.11-1.26.36-1.09,1.21a1.18,1.18,0,0,0,1.25,1.08,1.25,1.25,0,0,0,1.11-1.34A1,1,0,0,0,52.12,211.61Z"/><path d="M17.28,132.13c-.7.27-1.53.51-1.31,1.5.16.74.85.71,1.47.61a1.17,1.17,0,0,0,1.13-1.18C18.58,132.2,17.86,132.26,17.28,132.13Z"/><path d="M200.84,254.67c-.61.09-1.15.43-1.08,1s.6,1.06,1.06,1a1.07,1.07,0,0,0,1-1.26A.92.92,0,0,0,200.84,254.67Z"/><path d="M267.85,201.82a1.3,1.3,0,0,0-1.23,1.25c0,1,.84,1.22,1.69,1.23s1.13-.42,1.19-1.19C269.23,202.34,268.83,201.67,267.85,201.82Z"/><path d="M187,224.92a1.32,1.32,0,0,0-.88.87c-.06.68.47,1.05,1.15,1a1,1,0,0,0,.9-.9C188,225.28,187.68,224.78,187,224.92Z"/><path d="M102.84,237.2a.59.59,0,0,0-.86.61,2.12,2.12,0,0,0,.57,1.17c.42.42.78.12,1-.31A1.19,1.19,0,0,0,102.84,237.2Z"/><path d="M232.57,120.92c.07.58.36,1.17,1.08,1.06.47-.06.63-.52.52-1.35a1.89,1.89,0,0,0-.81-.56A.71.71,0,0,0,232.57,120.92Z"/><path d="M215.8,37.37a1.11,1.11,0,0,0,1-1.33c0-.83-.35-1.57-1.34-1.51-.73,0-1,.65-1,1.31A1.39,1.39,0,0,0,215.8,37.37Z"/><path d="M77.2,81.21c-.41.15-.81.37-.65,1s.59,1,1.79.86c.28,0,.53-.63.33-1.21A1.05,1.05,0,0,0,77.2,81.21Z"/><path d="M230.3,10.77c.32-.14.49-.64.65-.87-.09-.71-.43-1.06-.92-1-.76,0-1,.58-.76,1.27C229.43,10.6,229.84,11,230.3,10.77Z"/><path d="M252.74,160c.66,0,1.29-.32,1-1.15-.16-.48-.71-.58-1.2-.48a.84.84,0,1,0,.2,1.63Z"/><path d="M26.78,165a.81.81,0,0,0,.41.67c1.26.34,1.52-.71,1.95-1.5a2.56,2.56,0,0,1,.2-.26A1.07,1.07,0,0,1,29,164C28.12,164,27.1,163.77,26.78,165Z"/><path d="M29.49,163.86l-.06-.06-.09.11Z"/><path d="M244,157.27c-.39.09-.51.36-.44.75.12.71.52,1.22,1.24,1.17.5,0,.66-.57.61-1.08A1.07,1.07,0,0,0,244,157.27Z"/><path d="M261.73,177.88c-.54-.22-.82.17-.88.63,0,.22.21.65.38.68a.82.82,0,0,0,1-.65C262.05,178.31,261.94,178,261.73,177.88Z"/><path d="M230.87,248.65a1,1,0,0,0-.61,1.12.84.84,0,0,0,1.2.33.93.93,0,0,0,.37-.74C231.76,248.87,231.47,248.5,230.87,248.65Z"/><path d="M252.12,191.8c-.45.16-.76.49-.57.95a.72.72,0,0,0,1.06.34.9.9,0,0,0,.39-.71C253,191.89,252.62,191.68,252.12,191.8Z"/><path d="M205.38,114.54a.53.53,0,0,0,.32-.79.87.87,0,0,0-1.12-.49.54.54,0,0,0-.3.81A.8.8,0,0,0,205.38,114.54Z"/><path d="M29.94,85.41c-.1-.26-.12-.63-.31-.74a.62.62,0,0,0-1,.42.82.82,0,0,0,.22.73A.81.81,0,0,0,29.94,85.41Z"/><path d="M131.49,71.81a.4.4,0,0,0,.68.31c.19-.16.25-.5.36-.75l-.77-.35A2.12,2.12,0,0,0,131.49,71.81Z"/><path d="M35,87.76c.56.06.83-.36,1-.8.28-.71-.28-.79-.71-.87a.86.86,0,0,0-1,.73C34.13,87.4,34.48,87.71,35,87.76Z"/><path d="M256.1,143.07a.76.76,0,0,0-1,.66c0,.21.17.65.31.68a.93.93,0,0,0,1-.66C256.34,143.51,256.27,143.11,256.1,143.07Z"/><path d="M262.93,153.82c0,.24.18.52.28.78l.74-.3c-.11-.25-.16-.56-.34-.72A.39.39,0,0,0,262.93,153.82Z"/></g></g></svg>