<svg xmlns="http://www.w3.org/2000/svg" viewBox="0 0 270.15 283.55"><g id="Capa_2" data-name="Capa 2"><g id="Capa_5" data-name="Capa 5"><path d="M100.51,99.44l0,0s0-.06,0-.09Z"/><path d="M229.27,166.55c.38-3.61-2.05-5.88-4-8.41-1.47-1.93-3.47-3.65-3.17-6.89,4,1.65,6.3-.66,9.33-2.79-2.36-1.05-4.36-1.4-6.13-.91-2.89.8-4.53-.54-6-2.61-1.83-2.58-3.53-5.2-6.44-6.85-.88-.49-2.22-1.41-1.94-3,.42-2.41-.64-3.06-3-2.76-1.75.22-3.24-.24-2.45-2.73.32-1-.73-1.18-1.55-1.27-1.58-.17-3.18-.3-4.74-.6-.9-.18-2.15-.61-1.42-1.85,1-1.68.28-2.62-.92-3.66-.59-.51-.31-1.19.21-1.63,2.55-2.19,5.12-4.35,7.68-6.52,4.34.76,5.15-4.2,8.45-5.2,3-.92,5.15-3.77,8.65-3.77a1.67,1.67,0,0,0,1.66-2.27c-4.14-.14-4.14-.14-3.26-4.16.1-.47.34-1.06.16-1.4-1.45-2.83.47-4.2,2.48-5.24-.56-1.33-1.47-1.09-2.2-1.25-1.51-.34-2.47-1.48-1.87-2.76,1-2.2.29-3-1.66-3.95-1.66-.78-2.06-2.75-2.72-4.37s-1.25-3.65-3-4.79c-.6-.39-1.58-.71-.81-1.76a1.2,1.2,0,0,1,1.65-.44c2.17,1.16,2.68-.3,3.5-2a17.5,17.5,0,0,1-6.19-.74c-.7-.22-1.7.13-1.68-1.06,0-1.52,1.11-1,2-1.06,5.43-.54,6.82-1.67,7.58-6.09-2.47,1.08-3.17,3.58-4.7,5.43a14.64,14.64,0,0,1-3.52-2.45,60.16,60.16,0,0,0-6.89-5.36c-4.39-2.89-4.62-2.54-7.27-6.86-.12-.2-.56-.21-.85-.3-.62.43-.55,1.06-.47,1.67.11.82.17,1.73-.76,2s-1.19-.67-1.58-1.37A4.11,4.11,0,0,0,188.73,52c-.14,2.59-.6,5-.29,7.21.38,2.8-3.62,3.46-2.64,6.51.43,1.34-1.52,1.86-2.41,2.7-1.81,1.71,1.31,2.11.77,3.15-.39.76-1.49,1.69-2.2,1.64-2.87-.22-4.57,1.5-6.32,3.25-1.35,1.35-2.72,1.28-4.62,0,2-.62,3.59-1.32,2.6-3.53-.61-1.35.54-2,1.22-2.84,1-1.24,2.81-1.11,4.16-2.2-2.28-.85-2.28-.85-3.94,0-2.47,1.23-6.5,1-7.67-.48-2.79-3.5-3.35-3.55-7.06-.31-1.51,1.32-2.62.84-3.51-.61-1.17-1.92-.81-4-.51-6.09s.84-4.06,1.27-6.1c.16-.78.5-2.06-.14-2.23-2.73-.71-3.17-3.56-4.73-5.21-1.81,1.07-.71,3.53-2.75,4a5,5,0,0,1-2.3-1.61,1.77,1.77,0,0,0-2.15-.48,1.66,1.66,0,0,0-.78,1.63c0,1.09.83,1.08,1.61,1.3,1.94.57,3.84,1.26,6.61,2.19-2.18.29-2.8,1-1.85,2.33.47.64,1.11,1.14,1.64,1.74,2.31,2.59,2.27,3.51-.44,5.84-1.25,1.08-2.63,2-3.83,2.9.41,1.66,1.78,1.65,2.59,2.33a1.11,1.11,0,0,1,0,1.68,1,1,0,0,1-1.25.22c-2.87-1.07-3.64-2-3-5.4.56-2.82-.65-4.28-2.86-5.31s-4.34-1.15-5.78,1.4a2.1,2.1,0,0,1-1.92,1.33c-1.15-1.38-3.07-2.65-2.11-4.83.88-2,2.89-.49,4.33-.86.42-.11.58-.28.45-.67-5-3-6.72-6.59-4.6-11.83.65-1.61,1-3.33,2.7-4.37s2.55,1.63,4.13,1.11c0-2-2.27-3.59-.42-5.52a.79.79,0,0,0-.21-1.23c-2.94-.9-2.48-3.82-3.49-5.84a19.37,19.37,0,0,0-3.65-5.58c-.66-.62-1.53-.93-2-.07-1.75,3-4.76,5.34-4,9.68.64,3.73.57,7.75-2.77,10.67-.91.79,0,1.36.22,2,1,3,.44,4.1-2.52,4.81a18.26,18.26,0,0,1-6.67.35c-1.63-.22-2.83-1.23-2.47-2.91.4-1.88,1.76-.34,2.69-.36a6.1,6.1,0,0,1,.94.14c1.43.16,2.66-.91,1.86-1.82-2.18-2.47,1.38-8.53-5.12-8.23-.19,0-.51-1.07-.63-1.68-.17-.91-.08-2-1.39-2.08-1.41,2.45-2.3,4.88.93,7.19-4.16-.22-4.21-.25-6.31,3.39-.86,1.48-1.54,1-2.55.2s-2-.2-1.83.94c.4,2.74.85,5.37-1.72,7.37,1.71,3.33-2.87,5.25-2.14,7.66,1,3.18-.07,6,0,9a8.72,8.72,0,0,1,0,1.91c-.41,2-2.24,2.07-3.69,2.58a1.29,1.29,0,0,1-1.65-1.26c.72-3.36-2.41-4.82-3.4-7.32-1.43-3.61-5-6.16-5-10.57a2.61,2.61,0,0,0-2.9-2.6c-1.53.19-1.47,1.41-1.44,2.56,0,.65-.06,1.37-.83,1.45-1,.11-1.44-.63-1.4-1.5.13-3.28-2.35-4.35-4.69-6.17-.92,3.11-4.55,5-1.94,8.52a1.82,1.82,0,0,1-.31,1.77c-2.88,2.24-2.17,4.82-1,7.6a5.38,5.38,0,0,1,0,2.82c-.21,1.11-.66,2.35-2,2.4s-1.82-1.16-2.21-2.21a6.66,6.66,0,0,1,0-3.78c.28-1.25.56-2.5.83-3.75.37-1.73.91-3.8-.79-4.83-1.44-.87-2.76.94-4.82,1.36,2.57,1.82,2.67,3.69,1.84,6.09-.72,2.1-1.89,4.51.73,6.54.85.66.39,1.85-1,1.69-.71-.08-1.21-.07-1.73,1.07,1.57.22,2.46,1.61,3.83,2.16s3.58,1.4,4.2-.51c1-3.18,2.39-1.47,3.94-.89a8.34,8.34,0,0,1-4,4.7C65,81.44,62,80.61,60,77.22c-.65-1.11-1.35-2.18-2-3.29-.81-1.44-1.74-1.68-3-.56-5,4.29-5,4.28-5,10.73.89,1.58,3.19-1.42,3.81,1.4.39,1.78.95,3.31-.62,4.84a16.8,16.8,0,0,0-1.79,2.83,1.42,1.42,0,0,0,.33,2.07,5.38,5.38,0,0,0,7.75-1A18.15,18.15,0,0,1,65,89c3.24,2.19,3.81-2.48,6.16-2.39.79,0,2-.19,2.3,1.3l-2.56,3.48a21.88,21.88,0,0,0,6.42,4.25c1.7.73,3.58,1.17,4.94-.28s2.32-1.11,3.57,0a1.26,1.26,0,0,0,1.75-.09c.46-.53.06-1.22-.21-1.76s-1-1-1.53-.43c-1.54,1.71-2.77,1-3.76-.47C81.25,91.33,78,92,79,89.89c1.28-2.83,2.74.26,4.15.62,1.68.41,2.58.12,1.84-1.84-.23-.61-.37-1.21.36-1.62,1.18-.32,2.13.58,3.22.61,1.28,0,2.56,0,3.84,0A9.86,9.86,0,0,1,97,88.78c1,.5,1,.48,2.47-.07,4-1.46,5.66-.61,7,3.58a8.73,8.73,0,0,1,.47,5.17,2.49,2.49,0,0,0,.2,2.14c1,1.9.24,2.72-1.79,2.56s-3-2.17-4.82-2.7a11,11,0,0,1-.5,1.72c-1.1,2.47-4.37,4-2.67,7.72.49,1.06-1.51,2.26-2.82,2.8s-2-.48-2.42-1.61c-.86-2.49-2.59-4.39-4.29-6.29-1.5-1.68-3.18-2-5.25-.44,3.45-.67,4.31,1.89,5.64,3.92A40.88,40.88,0,0,0,91.19,111c.43.52.82,1.08.35,1.65a1.57,1.57,0,0,1-1.79.34c-3.6-1.49-7.63-2-10.58-5a19.94,19.94,0,0,0-6.36-4.21c-.22-.1-.54,0-1,.09-.07,1,.65,2.21-.45,3-.78.12-1.12-.39-1.41-1-.56-1.12-1.3-1.9-2.63-1.1a2.35,2.35,0,0,0-1.36,2.34,2,2,0,0,0,2.44,1.73,4.32,4.32,0,0,1,4.19,1.49,2.58,2.58,0,0,0,2.16.76c3.25-.87,4.65.93,5.59,3.56l0,0c.79-.06,1.77-.18,1.92.82.1.69.08,2-.78,2-3.6.3-6.51,2.53-9.92,3.28-1.46.32-2.9.32-3.6-1.41-.29-.71-.4-1.78-1.47-1.43s-1,1.46-.82,2.42c.12.62.35,1.23.5,1.85.75,3,.36,3.69-2.62,4.07a39.08,39.08,0,0,1-5.73.11c-7.15-.12-9.55,3.31-8.8,10.39.11,1,.32,2,1.68,1.69,1.16-.31.58-1.23.4-1.94a5,5,0,0,1,2.33-5.77,6.87,6.87,0,0,1,7.29-.39,6,6,0,0,1,3.17,4c.31,1.72-1.67,1.63-2.55,2.42a12.59,12.59,0,0,0-2.78,3.86c-.55,1.08-.53,2.53-1.94,3.07-1.76-.86-.94-2.53-1.26-3.83-.52-2.07-1.95-2.58-3.07-.84-.93,1.43-2,1.32-3.22,1.4-1.43.09-2.88,0-4.29.25a3.77,3.77,0,0,0-3.2,3.18c-.31,1.65.94,2.5,2.29,3,1-.38,1-1.3,1.32-2,.58-1.12.9-2.62,2.59-2.3s1.32,2,1.3,3.13c-.06,3.36-.29,6.71-.38,10.06,0,1.24-.12,2.3,1.65,2.9,3,1,3,1.83.8,4.17a46.77,46.77,0,0,1-7.51,5.93,10.25,10.25,0,0,1-3.76,1.39c-2,.43.27,2.51,0,3.92-.28,1.18-2.25.53-2.14,2.28,2.83,1.42,5.94,2.84,3.57,7a1.32,1.32,0,0,0,.83,1.92c1,.27,1.44-.62,1.54-1.37.34-2.69.52-5.4.86-8.09.14-1.06.21-2.5,1.62-2.59s1.61,1.15,2,2.25c1.26,3.47,1.72,7.29,4.27,10.22a5.25,5.25,0,0,0,2.23-3,5.25,5.25,0,0,1-2.23,3c-.95,1.56-2.1,2-4,1.45a14.29,14.29,0,0,0-10.21,1.15c-4.84,2.41-5.73,4.44-7.33,10.35-1.2,4.42,0,8.39,1.71,12.44,1.14,2.64,3.56,3,5.58,4.09,2.29,1.19,4.11,2.95,6.41,4.87.74-3.85,4.29-2,6.08-3.64s3.95-2.8,6.87-1.23c-.61-3.61.88-5.88,2.45-8.12-1.86-3.26,1.33-4.25,2.82-5.73-.39-1.7-3.2-.9-2.54-2.55s2.62-1.44,4.19-.8c.59.24,1.37.48,1.62,1,1.7,3.26,4,2.09,6.43,1.09,1.32-.56,2.73-.93,4-1.54,2.47-1.14,5-2.29,5.92-5.2a1.46,1.46,0,0,0,.53-.22l2.75,1.11c-.9,2.44-3.1,4-4.65,6.33,1.58.87,2.76,2.1,4.7,2l.54-2a18.11,18.11,0,0,1,.65-2.29c.79-1.84,2.13-2.15,3.77-1a3.44,3.44,0,0,1,1.46,2.85c0,1.3,0,2.6,0,3.95a2.54,2.54,0,0,0,1.9-1.36c.74-1,1.45-2.39,3-1.15,1.31,1.06.25,2-.43,2.79s-.92,1.75.2,2.35c1.34.71,2.42,3,4.36.89,4.12,2.33,4.6,7.75,8.71,10.22,1,.62.45,2.72.15,4.14s-.87,3.08-1.1,4.66c-.47,3.23.44,5.21,2.79,6.53,2.6,1.47,5.13,1.69,7.49-.45,1.07-1,2.06-2,3.08-3,.07,3,.16,6.06.21,9.09,0,2.87.06,5.74.07,8.61,0,3-.14,6.07,0,9.09.17,2.86-.92,5.91,1,9,1.46-1.83,1.09-3.59,1-5.28-.23-8.93-.5-17.85-.66-26.78,0-1.55-.86-3.68,1.79-4.19l3.33-.35c3.25-.34,6.37-.58,8.3,3,.78,1.43,1.85.74,2.5-.46s.61-2.53,2-3.07c2.2-.84,3.89.25,4.54,3.06.22,1,.22,2.06,1.54,1.92,1.12-.13,1.51-1,1.48-2.11a7.51,7.51,0,0,1,0-1c.2-1.92.25-4,2.69-4.47,2.82-.51,1.43,2.69,2.66,3.46,1.3.23,1.86-.77,2.71-1.11,2-.82,3.64-1.62,2.44-4.47-.91-2.15.69-3.64,2.64-4.33,1.19-.42,2.57-.38,3-1.88,1.05-3.42,3.32-6.15,5.08-9.17a9.61,9.61,0,0,0,1.76-4.89c0-3-.21-5.9,1.52-8.53,0,0-.41-.39-.63-.59.06-1.57.83-2.86,2.24-1.5,1.69,1.64,4.21,3,3.67,6.21a1.94,1.94,0,0,0,1.34,2.5c1.67-1,.92-3,2-4.19,1.26-.12,2.21,1.65,3.81.25-2.2-3.49-.52-5.7,2.78-7.29a6.15,6.15,0,0,0,1.47-1.19c.74-.7,1.33-1.74.87-2.56-1.25-2.26.09-3.92,1-5.73.45-1.69.68-2.54,1.16-2.91-.48.37-.71,1.22-1.16,2.91,2.28.59,3.28,2.41,4.07,4.37,1,2.36,1.8,4.78,2.75,7.15.6,1.52,1.14,3.15,3.42,3.76-.31-3.7-2-6.42-3.23-9.33-1.77-4.41-1.68-4.56,2.92-4.45H203c5.86-.05,5.83,0,7.87,5a33.68,33.68,0,0,0,2.53,5.15c2,3.22,3.87,6.58,7.56,8.38a14.76,14.76,0,0,0,2.8-4.63c.64-1.53,1-3.11-.5-4.38-1.37-1.13-2.78-2.35-4.69-1.07-1.1.74-2,.8-2.85-.38a18.33,18.33,0,0,1-3.48-7.3c-.52-2.82,1-4.35,3.74-3.52a5.43,5.43,0,0,0,5.31-1.08c1.91-1.46,3.94-2.77,5.38-4.73C228.24,171.67,230.07,169.57,229.27,166.55Zm-158.89-5.8c1.8.42,1.77,2.05,2,3.34.18.87-.55,1.45-1.47,1.38-1.32-.1-2.63-.58-2.77-2S69.08,161.2,70.38,160.75Zm-4.12-26.19c.7,0,.71.47.72.87,0,.73.17,1.61-.86,1.77a.78.78,0,0,1-.89-.82A2,2,0,0,1,66.26,134.56Zm-1.43,23.6c.91-.09,1.44.7,1.55,1.52a1.94,1.94,0,0,1-1.43,2.2c-1.09,0-1.27-.86-1.39-1.59C63.39,159.3,63.64,158.29,64.83,158.16Zm-10,24.18c.1-.34.19-.69.28-1C55,181.65,54.89,182,54.79,182.34ZM54.51,177c-2.1-2.19-.47-4.32.37-6.25.34-.8,1.68-.33,2.23.67Q55.81,174.22,54.51,177Zm31.63,16.4a5.55,5.55,0,0,1,.24-6.46,12.71,12.71,0,0,1-2.16-5.34A12.59,12.59,0,0,0,86.39,187C89.58,190.21,89.58,190.21,86.14,193.41Zm15-85.24c-.23.11-.63.36-.67.3a2,2,0,0,1-.59-1c0-.46.32-.78.83-.43A1,1,0,0,1,101.1,108.17Zm7.46-52.26c1.08-.52,1.82.13,2.31.92.78,1.26.24,2.8-1.71,5-1-1.31-.42-2.75-1.33-3.78S107.6,56.37,108.56,55.91Zm9,137.22c-1-1.29-2.6-1.46-3.29-.55.69-.91,2.26-.74,3.29.54a3.09,3.09,0,0,0,.52.56A3.39,3.39,0,0,1,117.54,193.13Zm45-123.08a2.55,2.55,0,0,1,3.11.14c1.59,1.18,3.05,2.53,4.57,3.83-1.56,1.61-4.11,1-5.46,3.17-.91-1.57-1.71-2.83-2.39-4.16C161.85,72.05,161.34,70.9,162.52,70.05Zm-1.59,147.38c-.18.37-.43.73-.83.65.4.08.65-.28.83-.65a1.48,1.48,0,0,0,0-.91A1.48,1.48,0,0,1,160.93,217.43Zm37.5-39.33Zm-4-.36a1.25,1.25,0,0,0-.65.17A1.25,1.25,0,0,1,194.48,177.74Z"/><path d="M253.08,13c-2.13-.84-3.6-.27-4.64,1.91-.79,1.66-2.09,4.08-4.18,2.29-1.91-1.65-3-.92-4.55,0a18.36,18.36,0,0,0-5.88,5.55,7.78,7.78,0,0,1-3.9,3.28c-2,.72-4.09,1.78-1.59,4.47.87.94-.59,1.56-1.11,2.22-1.94,2.46-4.56,4.62-3.47,8.34.18.62-.55.64-.73,1-1.45,2.82.06,5.5,3.19,5.49,4.12,0,7.29-2.12,9.9-5.11a6.54,6.54,0,0,0,1-7.77,3.57,3.57,0,0,1-.17-3.11,21.69,21.69,0,0,0,.73-3.74c.32-2.82.81-3.18,3.46-2.16.88.34,1.68.91,2.56,1.29,1.79.77,3.61,2.71,5.51.34s-.82-3.59-1.91-5.56c3.42-1.48,3.88-5.17,6.57-6.9C254.62,14.25,253.89,13.27,253.08,13ZM237,25.06a.79.79,0,0,1-1.22,0c-1.11-1.27-.43-2.26.5-3.22C237.83,22.68,237.6,23.89,237,25.06Z"/><path d="M141.44,13.2c-1.18,5.45,1.43,10.63,1.21,16a1.71,1.71,0,0,0,.31.9c.87,1.47,4.2,2.69,5.54,1.8,2-1.35.4-2.76-.21-4.12-.19-.42-.36-.84-.61-1.44,1.56-1.18,3-2.45,5-2.55,1.31-.07,1.53-.71,1.65-1.79.57-4.92,1.31-9.83,1.06-14.81A11.38,11.38,0,0,0,154.63,3a4.56,4.56,0,0,0-4-3c-1.8-.12-3,1.05-3.74,2.54s-1.32,3.09-2,4.63c-2-.67-1.26-3-2.78-3.76a3.47,3.47,0,0,0-1,2.62C141,8.43,142,10.78,141.44,13.2Z"/><path d="M177.66,55.25c1.87-1.43-.59-3.58,1.67-4.45,2.67-1,4.09-3.46,5.9-5.45,1.14-1.25,2.07-2.91,4.32-2.77.78,1.38.3,2.52.43,3.61.08.67.31,1.29,1,1.43s1.14-.27,1.49-.87c.8-1.42.45-12.23-.78-13.4a3.87,3.87,0,0,1-.92-4.36c1.85-3.44-.17-5.62-1.55-8.29a4.72,4.72,0,0,0-2.73,4c-.38,2.23,2.51,2.51,3.05,4.3-1.25.64-2.74.18-3.52,1.58-1.24,2.23-3.37,3.84-4.4,6.23a2.39,2.39,0,0,0,.12,1.83c1.26,3.52,0,6.53-2,9.34-.82,1.17-1.79,2.23-2.71,3.33C175.55,53.08,176.26,54.17,177.66,55.25Z"/><path d="M9.81,130.8c-2-2.14-3.07-1.84-3.88.9a62.66,62.66,0,0,0-1.46,7.94C4,142.49,5.75,143.21,7.72,144c2.15.9,3.22-.52,4.33-1.91s1.18-3.23,1.22-5.19C14,134,11.45,132.57,9.81,130.8Z"/><path d="M96.6,235c.78-1.63,3.48-1.37,3.34-3.63-4.16-.14-3.91-.14-3.86,3.6a4.77,4.77,0,0,0,1.35,3.7c.51.52,1.41,1.25.62,1.92s-2,1.17-1.54,2.54,1.63,1.92,2.68,2.61c2,1.28,3,.84,3.14-1.41.15-2.91,0-5.83,0-8.52C100.11,235.11,98.4,237.38,96.6,235Z"/><path d="M41.42,124.39c1.44.13,5.29-4.29,4.74-5.73a25.93,25.93,0,0,1-1.3-7.62c-.07-1-.45-1.57-1.34-1.5s-2,.37-2.16,1.49a10.15,10.15,0,0,0,.12,4.09c.88,2.09,2.62,3.61-1.54,2.94-.82-.13-.56,1.26-.73,1.9C39.2,122.16,40.28,124.28,41.42,124.39Z"/><path d="M49.47,40.9c1.56.7,3.07,1.71,5.26.51-1.73-3.84-.95-8.82-5.92-11.52-.77,2.7,0,5.35-1,7.7C47.12,39.34,48,40.24,49.47,40.9Z"/><path d="M258.83,201.82a11.48,11.48,0,0,0,11.32,4.92C267.46,203.06,265.63,202.27,258.83,201.82Z"/><path d="M33.26,68.05c1.1-.29,2.17-.56,3.22-.86.7-.2,1.83.29,2-.69s-.77-1.63-1.52-2.13a5.11,5.11,0,0,0-4-1c-1.15.25-2.18.81-2,2.14A2.55,2.55,0,0,0,33.26,68.05Z"/><path d="M216.61,54.78c1.58.82,2.74,2.57,4.82,2.32-.39-1.07.71-1.58.95-2.41.13-.44.22-1.29,0-1.22-2.24.77-2.49-2.09-4.2-2.22a1.83,1.83,0,0,0-1.94,1C215.75,53.21,215.61,54.27,216.61,54.78Z"/><path d="M221.45,57.18h.08V57.1l-.06.06.06-.06h-.1l0,.08Z"/><path d="M43.31,160.75c.18.47,1.12.69,1.71.35a1.35,1.35,0,0,0,.5-2c-1.88-2.13-1.88-4.75-1.88-7.27-1.42-.25-2.21.42-2.36,1.37C40.83,156,42.35,158.31,43.31,160.75Z"/><path d="M223.4,28.88c1.87-2.55,3.75-5.08,6.2-8.38-2.91.1-3.6,1.57-4.4,2.88-.91,1.48-1.54,3.2-3.29,3.94-.82.35-1.59.79-.9,1.65A1.38,1.38,0,0,0,223.4,28.88Z"/><path d="M189.87,199a2.66,2.66,0,0,0,.56,2.23c.33.34.72.68,1.23.45.24-.1.56-.4.56-.61,0-2.73,1.39-5.63-1.55-9.12C190.32,195,190.05,197,189.87,199Z"/><path d="M154.75,33.91c1,.94,2,.57,2.93-.19s.5-2.61,2.26-2.48c-.21-.8.95-2.37-1.26-2-1.63.24-3.05.69-4,2.15A1.89,1.89,0,0,0,154.75,33.91Z"/><path d="M248.33,84.72A2.53,2.53,0,0,0,246,87.35c0,1,.43,2,1.67,1.82,1.45-.23,2.76-.84,3-2.56C250.36,85.37,249.67,84.56,248.33,84.72Z"/><path d="M159.33,260.35c1.73,2.27,4.71,2.16,6.28,4.18C164.79,260.86,163.77,260.19,159.33,260.35Z"/><path d="M227.68,229.48a4.12,4.12,0,0,0,.14,3.79c.68,1.26,1.61,2.76,3.19,1.75,1.22-.78-.07-2-.51-2.86C230,231.07,229.46,229.85,227.68,229.48Z"/><path d="M220.76,134.52c0,.64.05,1.36.93,1.22,1.37-.21,2.8-.44,3-2.17-.2-1-.29-2.11-1.56-2C221.53,131.78,220.87,133,220.76,134.52Z"/><path d="M23.14,139.08c-2.49-.16-2.66,1.87-3.37,3.31-.52,1-.36,1.91,1,2,.9.06,2.31.13,2.1-1.15C22.59,141.82,23.47,140.57,23.14,139.08Z"/><path d="M177.25,210.19c.71,2.69,2,4.1,4.06,4.85.44.16,1,.29,1.27-.23a1.61,1.61,0,0,0-.07-1.29A6.73,6.73,0,0,0,177.25,210.19Z"/><path d="M68.56,279.05c-1.17.05-1.6.89-1.51,1.93.12,1.6.92,2.7,2.65,2.56,1.22-.1,1.94-.9,2-2.4A2.93,2.93,0,0,0,68.56,279.05Z"/><path d="M267.52,175.2c-2.24-2.4-4.45-2.42-7.75-.95C262.77,175.88,264.86,177.11,267.52,175.2Z"/><path d="M98,218.38c-.87.73-.11,1.88-.6,2.71.94-.74,1.9.31,2.87.12,1.64-.32,3.12-.71,2.87-2.91C100.22,218.94,100.18,218.94,98,218.38Z"/><path d="M17.33,167.2a1.08,1.08,0,0,0-.95-1.35c-1.33-.22-3.74,1.25-3.67,2.31,0,.72.68,1,1.33,1.08C15.64,169.36,17.13,168.47,17.33,167.2Z"/><path d="M95.71,103.28c-.32-2.16-.35-4.18-1.95-6.75C92.85,101.38,92.85,101.38,95.71,103.28Z"/><path d="M83.09,209.15a1.2,1.2,0,0,0,.74,1.55,1,1,0,0,0,1.49-.7,6.07,6.07,0,0,0,.37-4.49C83.87,206.37,83.58,207.85,83.09,209.15Z"/><path d="M92.61,63.13c1-.75,1.9-1.51,3.33-2.64-2-.64-3.16.26-4.34.51a1.36,1.36,0,0,0-1,2.17C91.22,64.14,92,63.63,92.61,63.13Z"/><path d="M60,103.58c-.77-1.81-2-2.7-4.38-2,.62,1.94,1.48,3.26,3.66,3C59.78,104.55,60.23,104,60,103.58Z"/><path d="M239.39,35.36c2.9.13,4.36-.53,5-3.23C242,32,240.86,33.16,239.39,35.36Z"/><path d="M97.39,215.87c-1.49-.49-3-.33-3.86,1.41,1.28,1.52,3,.36,4.38,1.06C97.79,217.48,98.47,216.22,97.39,215.87Z"/><path d="M97.91,218.34v0l.07,0h0Z"/><path d="M227.47,66.91c1.49-.77,3.28-1.15,4.16-3.67C229.17,63.68,227.85,64.69,227.47,66.91Z"/><path d="M16.91,233c-1.09.2-2.3.49-2.13,2a1.37,1.37,0,0,0,1.66,1.3,2.65,2.65,0,0,0,2.26-2.12A1.47,1.47,0,0,0,16.91,233Z"/><path d="M216.35,130.91c-.93.15-2,.4-2.1,1.56s1,1.43,2,1.49c1.32-.08,2.13-.75,2-2.11C218.09,130.82,217.14,130.78,216.35,130.91Z"/><path d="M145.62,239.54c-1.2,0-1.45,1.07-1.59,1.91-.2,1.1.53,1.73,1.61,1.74s1.57-.77,1.67-1.75C147.17,240.38,146.7,239.57,145.62,239.54Z"/><path d="M164.61,229.18a2,2,0,0,0-.77,3.86c1.52.35,1.59-1.1,1.81-2.09A1.36,1.36,0,0,0,164.61,229.18Z"/><path d="M101.78,20.31c.93,0,2.14-.37,2.3-1.32.21-1.34-1.06-1.73-2-2a1.34,1.34,0,0,0-1.62,1.37C100.34,19.31,100.46,20.35,101.78,20.31Z"/><path d="M137.33,50.1c-.22.58.36,1.13,1.11,1.2,1.66.17,3.36-1.16,3.28-2.59a1.12,1.12,0,0,0-1.25-1.12A3.67,3.67,0,0,0,137.33,50.1Z"/><path d="M100.51,99.44l.07-.07h-.07Z"/><path d="M98,95.33c-.64,2.38-.35,4.08,2.56,4C100.62,97.44,101.63,94.94,98,95.33Z"/><path d="M24.67,116a1.28,1.28,0,0,0-1.44.93c-.21,1.41,1,1.73,1.92,2.13a1.16,1.16,0,0,0,1.34-1C26.72,116.58,26,116,24.67,116Z"/><path d="M206.68,196.66c-.94,0-1.94.37-2,1.55,0,.7.61,1.1,1.27,1.16,1,.1,1.91,0,2.25-1.19A1.49,1.49,0,0,0,206.68,196.66Z"/><path d="M234.7,166.59c-1.28-.05-2.65-.09-2.73,1.73,0,.78.55,1,1.29,1.12,1.22-.13,2.58-.21,2.76-1.87C236.11,166.73,235.31,166.61,234.7,166.59Z"/><path d="M204.15,122.6c-1,.15-2.32.06-2.52,1.44-.09.65.71,1,1.33,1a2,2,0,0,0,2.45-1.57C205.43,122.59,204.72,122.52,204.15,122.6Z"/><path d="M170.9,65c0,1,.95,1.08,1.72,1a1.79,1.79,0,0,0,1.88-1.73,1.54,1.54,0,0,0-2-.79C171.77,63.75,170.91,64.15,170.9,65Z"/><path d="M90.14,214.9c1.35-.68,2.57-1.19,3.13-3C91.34,212,89.22,211.4,90.14,214.9Z"/><path d="M107.16,265.12c-1-.26-1.48.27-1.51,1.18s.65,1.35,1.44,1.52,1.11-.34,1.27-1A1.49,1.49,0,0,0,107.16,265.12Z"/><path d="M151.53,38.68a2.06,2.06,0,0,0-1.33,2.6c.07.46.58.65,1.16.61a2,2,0,0,0,1.22-2.57A.83.83,0,0,0,151.53,38.68Z"/><path d="M46.69,87.72a1.66,1.66,0,0,0,1.77-1.28,1.51,1.51,0,0,0-1.64-1.37c-.9,0-1.7.31-1.72,1.23S45.79,87.68,46.69,87.72Z"/><path d="M60.27,46.93c.72.24,1.36-.09,1.4-.76,0-.93-.79-1.2-1.73-1.4-.27.14-.95.28-1,.52C58.8,46.22,59.48,46.67,60.27,46.93Z"/><path d="M233.83,18.07a1.6,1.6,0,0,0,1.85-1.32c0-.75-.22-1.16-.72-1.17A2.27,2.27,0,0,0,232.82,17C232.48,17.79,233.26,18,233.83,18.07Z"/><path d="M222.57,60.24c.7,0,1.05-.61,1.24-1.21a1.22,1.22,0,0,0-1-1.75,8.08,8.08,0,0,0-1.31-.1q0,.66,0,1.32C221.49,59.3,221.53,60.17,222.57,60.24Z"/><path d="M160.69,31.8c.52,1.84,1.77,1.46,3,1a.89.89,0,0,0,.37-.78c-.62-1.61-1.81-.56-2.79-.58a7.39,7.39,0,0,1-1.14-.14C160.36,31.47,160.63,31.61,160.69,31.8Z"/><path d="M160.14,31.32l-.12-.09,0,0v0h-.07s0,0,0,.05Z"/><path d="M1,132.93a.86.86,0,0,0-.95.82A1,1,0,0,0,.79,135c.75,0,1.07-.35,1.15-.82A1,1,0,0,0,1,132.93Z"/><path d="M29.22,136.14a2,2,0,0,0-1.87,1.68c-.1.55.36.8.84.74a2.07,2.07,0,0,0,1.9-1.61C30.05,136.37,29.75,136.06,29.22,136.14Z"/><path d="M160.68,231.06c-.31-.57-.39-1.52-1.38-1.34-.29.05-.61.67-.67,1.06-.15,1,.57,1.33,1.4,1.3C160.53,232.06,160.72,231.61,160.68,231.06Z"/><path d="M79.85,265.79c-.64.21-1.18.6-1,1.31a1,1,0,0,0,1.43.73,1.5,1.5,0,0,0,.84-1C81.11,266.14,80.58,265.77,79.85,265.79Z"/><path d="M197.78,265.06a.62.62,0,0,0-.94.52,1.58,1.58,0,0,0,1,1.78c.52,0,.88-.29.82-.84A1.7,1.7,0,0,0,197.78,265.06Z"/><path d="M35.09,137.55a1,1,0,0,0-1.27,1c-.07.54.32.84.82,1a1.19,1.19,0,0,0,1.35-1C36.06,138,35.55,137.64,35.09,137.55Z"/><path d="M171.12,59.78a1.11,1.11,0,0,0,1-1.33,1.24,1.24,0,0,0-1.32-1.09,1.1,1.1,0,0,0-1,1.34A1.14,1.14,0,0,0,171.12,59.78Z"/><path d="M170.1,216.45a.91.91,0,0,0-1.07.73,1.25,1.25,0,0,0,.92,1.45,1.09,1.09,0,0,0,1.56-.6A1.51,1.51,0,0,0,170.1,216.45Z"/><path d="M189.25,210.77a1.84,1.84,0,0,0-1.53,1.55c-.1.47.18,1.07.74.85a1.94,1.94,0,0,0,1.26-1.78C189.56,211.17,189.37,210.75,189.25,210.77Z"/><path d="M59.2,118c-.47-.28-.9,0-1,.56a1.21,1.21,0,0,0,.9,1.45.72.72,0,0,0,.81-.91A1.79,1.79,0,0,0,59.2,118Z"/><path d="M146.85,43.63a1.16,1.16,0,0,0,.75,1.5.91.91,0,0,0,1.35-.78c.09-.66-.4-1.09-1-1.31A.92.92,0,0,0,146.85,43.63Z"/><path d="M226.94,118.11a.89.89,0,0,0,.82,1,1.26,1.26,0,0,0,1.29-1c.09-.65-.18-1.23-1-1.16A1.28,1.28,0,0,0,226.94,118.11Z"/><path d="M95.61,223.2c.64.53,1.08-.07,1.31-.64a5.65,5.65,0,0,0,.25-1.25,4,4,0,0,0-1.18.42C95.48,222.08,95,222.67,95.61,223.2Z"/><path d="M97.17,221.31l.08,0h0l.13-.2a1,1,0,0,0-.2.15A.2.2,0,0,0,97.17,221.31Z"/><path d="M210,41.52c.9,0,1.3-.74,1.59-1.44a.81.81,0,0,0-.74-1,1.37,1.37,0,0,0-1.74,1.16C209,40.8,209.14,41.57,210,41.52Z"/><path d="M226.75,91.69a1.74,1.74,0,0,0-1.05.72c-.26.45,0,.88.57.89a1.52,1.52,0,0,0,1.45-.92A.74.74,0,0,0,226.75,91.69Z"/><path d="M33.62,160.78a.88.88,0,0,0,1,.77c.66,0,1.2-.37,1.17-1.09,0-.54-.54-.67-1-.74C34.14,159.81,33.53,160,33.62,160.78Z"/><path d="M61.89,54.71a2.17,2.17,0,0,0,1.76-1.2c-.16-.2-.38-.59-.46-.56-.68.22-1.53.28-1.72,1.16C61.43,54.28,61.79,54.73,61.89,54.71Z"/><path d="M47.18,81.08a.93.93,0,0,0,1.09-.65c-.29-.25-.58-.65-1-.77a.78.78,0,0,0-1,.65C46.22,80.91,46.74,81.05,47.18,81.08Z"/><path d="M108,19.44a.76.76,0,0,0,1-.69c.1-.91-.64-.85-1.21-.93-.43.14-1,.21-.75.83A1.73,1.73,0,0,0,108,19.44Z"/><path d="M206.56,54.19c.29-.12.41-.7.55-1-.15-.61-.28-1.16-.87-.82a1.55,1.55,0,0,0-.6,1.08A.72.72,0,0,0,206.56,54.19Z"/><path d="M181.39,63.47a1.25,1.25,0,0,0-1.13,1.3c0,.23.35.68.44.65a1.64,1.64,0,0,0,1.19-1.32C181.72,63.88,181.51,63.45,181.39,63.47Z"/><path d="M158.55,63c-.27.46,0,.88.56.84a.93.93,0,0,0,.87-.9l-.39-.76C159.24,62.4,158.76,62.6,158.55,63Z"/><path d="M240.87,117.68c-.52-.11-.83.22-.94.69s.22.82.68.93.76-.28.93-.71C241.69,118,241.32,117.78,240.87,117.68Z"/><path d="M74,207.18c-.43-.12-.9-.15-1,.4,0,.19.32.43.5.65.25-.11.6-.15.74-.35A.42.42,0,0,0,74,207.18Z"/><path d="M124.09,35.74a2.84,2.84,0,0,0,.19-.79c0-.38-.32-.55-.61-.34a.82.82,0,0,0-.25.72C123.5,35.53,123.86,35.61,124.09,35.74Z"/><path d="M104.11,13.66c.21.05.49-.21.74-.33-.13-.26-.2-.61-.41-.76a.7.7,0,0,0-.7.11A.6.6,0,0,0,104.11,13.66Z"/><path d="M210.88,121.73a1,1,0,0,0-.6.54c-.18.52.16.85.64.93s.82-.2.84-.75S211.48,121.54,210.88,121.73Z"/><polygon points="80.24 114.86 80.35 114.69 80.31 114.73 80.24 114.86"/></g></g></svg>