<svg xmlns="http://www.w3.org/2000/svg" viewBox="0 0 544.97 532.48"><g id="Capa_2" data-name="Capa 2"><g id="Capa_1-2" data-name="Capa 1"><path d="M211.4,519.45c-3.54,1.21-3.6,5.07-2.17,7.07,2,2.85.18,4.1-.8,6h2c.86-2.27,3.09-2.8,4.85-4,2.75-1.9,4.54-4.25,2.43-8C215.9,517.32,213.37,518.78,211.4,519.45Z"/><path d="M199.76,527.45c-2.46-.56-3.29,1.69-4,3.57a7.71,7.71,0,0,0-.29,1.46h6C201.35,530.62,202.5,528.08,199.76,527.45Z"/><path d="M328.53,526.92c-2,1.65-.83,3.74-1.1,5.56h1C328,530.67,331,528.91,328.53,526.92Z"/><path d="M178.85,528.82c-2.23.61-1.23,2.36-1.42,3.66h1C178.07,531.23,180,530.23,178.85,528.82Z"/><path d="M469.69,321.41c-8.19-3.28-21,2.46-22.4,15-.05.2-.1.39-.14.58-.58,1.51-2.69,3.07.29,4.47,1.38,4.71,3.55,8.91,7.79,11.68,6.17,4,12.62,4.13,18.74.27s8.42-9.69,7.6-16.73C480.71,329.25,476.58,324.16,469.69,321.41Z"/><path d="M433.68,184.64c-4.12,5.23-4.53,14-.93,19.74,4.37,7,11.76,10,19.66,8.06,2-.74,1.33,3.43,3.45,2,1.25-.85-.05-2-.42-3,6.82-4,9.95-9.95,9.14-17.86-.76-7.3-4.85-12.29-11.43-15C446.37,175.81,438.54,178.45,433.68,184.64Z"/><path d="M106.21,369.21c5,.2,9.88-4.53,10-9.68a10.16,10.16,0,0,0-9.62-10c-5.11-.08-9.77,4.31-9.82,9.25S101.49,369,106.21,369.21Z"/><path d="M514.46,178.36A20.75,20.75,0,0,0,500.57,185c-1.8,1.93-3.15,4.24-1.9,6.74,1.44,2.87,4.5,2.58,7,2.09a21.26,21.26,0,0,0,13.49-8.66c1.14-1.57,2.91-3,1.7-5.26S517.57,178.2,514.46,178.36Z"/><path d="M207.46,119.81a8.26,8.26,0,0,0,8-8.31,8.15,8.15,0,0,0-7.83-8,8,8,0,0,0-8.15,8.14A7.83,7.83,0,0,0,207.46,119.81Z"/><path d="M228.76,98.46c3.59,0,5.81-2.72,5.78-7.1,0-4.55-2.33-7.49-6-7.63a7.35,7.35,0,0,0-7.37,7A8.13,8.13,0,0,0,228.76,98.46Z"/><path d="M271.21,70.41c2.34.2,4.14-1.07,4.25-4-.32-2.27-1.39-4.46-4.1-4.53-2.39-.06-4.8,1.19-4.94,3.89C266.27,68.65,268.62,70.17,271.21,70.41Z"/><path d="M224.3,126.63l.09,0h0Z"/><path d="M129.82,326.72c-.16,2.6,3.78,2.76,6,2.46,3-.4,1.76-1.78.14-3a20.15,20.15,0,0,1,1.49-2.73c1.43-.46,1-1.84,1.37-2.81-1.34-.24-2.66-.48-2.5,1.6h0C133.58,323,130,324.48,129.82,326.72Z"/><path d="M158.8,421.14c-2.6-.38-4.34.86-4.79,3.61-.25,1.49,0,2.76,1.77,2.74,3,0,3.78-2.74,5.29-4.76C161.23,421.12,159.4,421.22,158.8,421.14Z"/><path d="M382.4,410.69a1.84,1.84,0,0,0-2.68.23c-.58.92.25,1.8.78,2.67,1,1.58,4.25.86,3.75,3.83-1,0-2.33.12-1.73,1.44s2.26,1.47,3.73,1c1.09,1.34,2.4,1.18,2.08-.49C387.65,415.72,385.2,413,382.4,410.69Z"/><path d="M121.76,438c-1.63-.11-2.52,1.39-2.53,3a3.05,3.05,0,0,0,3,3.2,2.92,2.92,0,0,0,3.16-3.28A3.66,3.66,0,0,0,121.76,438Z"/><path d="M109.32,402.57c-1.88.25-2.87,1.6-3,3.57-.14,1.63.52,3.13,2.31,3,2-.1,3-1.88,3.39-3.66C112.3,403.91,111.42,402.72,109.32,402.57Z"/><path d="M452.7,299.72c4.39,1.43,8-.24,12.17-3C459.83,295.9,456.2,297.44,452.7,299.72Z"/><path d="M291.09,511.82c-1.43.73-3.47.93-3.46,3.07,0,1.47.89,2.38,2.62,2.21,2-.19,3.12-1.22,3.1-3.14A2.08,2.08,0,0,0,291.09,511.82Z"/><path d="M446.17,372.39c-.16-.95-1-1.18-2-1-2.29.39-4.51.55-5.65-2.13-3.52-2-4.18,0-4.23,3h0c-1.74.1-3.7-.34-4.79,1.83a9.44,9.44,0,0,0,4.87.31c3.33.62,6.57-.31,9.86-.51C445.31,373.78,446.41,373.84,446.17,372.39Z"/><path d="M271.68,91.54a3.47,3.47,0,0,0,3.44,2.92A2.07,2.07,0,0,0,277.4,92c-.19-2-1.58-2.67-3.38-2.79C272.69,89.43,271.26,89.74,271.68,91.54Z"/><path d="M543,150.8c-1.68.1-3.22.72-3.6,2.67-.34,1.73.69,2.45,2.19,2.45,1.91,0,2.8-1.37,3.42-2.88C545.05,151.53,544.25,150.72,543,150.8Z"/><path d="M225,82.33c2.19-.23,2.76-2,3.32-3.68-.22-1.71-1.32-2.54-2.73-2.34-2,.28-2.36,2.13-2.51,3.77C223,81.27,223.43,82.5,225,82.33Z"/><path d="M540.36,254.42c-2.11.68-4.64.84-5.36,3.48a1.14,1.14,0,0,0,1.61,1.2c2.19-.85,4.75-1.14,6-3.51A1.58,1.58,0,0,0,540.36,254.42Z"/><path d="M522.42,151a2.6,2.6,0,0,0-2.89,2.25,2,2,0,0,0,2,2.51A2.74,2.74,0,0,0,524.7,153C524.78,151.54,523.65,151.11,522.42,151Z"/><path d="M124.82,274.9c.25.94-1.24,4.84,2.55,2.43a2.89,2.89,0,0,0,3.7-2.42c.16-1.31-.14-3.55-2.67-3.31C125.74,271.12,124,271.93,124.82,274.9Z"/><path d="M196.41,430.47h0c.79-2.57,3-3.61,5.11-4.78.71-.38,2.27-.36,1.28-1.72-.82-1.13-1.63,0-2.38.5l-3.43-.09-.48,0,.24-.17.24.19c-.09-1.64,1.63-3.69-.76-4.81-1.32-.62-1.46.84-1.8,1.69-.8,2-.28,3.18,2.08,3.1h0c.09,2.33-.31,4.47-2.2,6.07-2.05,1.57.55,4.53-1.8,6l-3.24-3c-.73,3.51-.73,3.51,3.17,4.09-.08.47-.17.93-.25,1.4.36,1.22-1.39,2.42-.14,3.83a6.11,6.11,0,0,0,1.54-4.12h0Z"/><path d="M504.48,257.84c-1.26.25-3.44.2-2.93,2.26.23.93-.08,2.58,1.51,3.18,2.14-.39,1.41-2.64,2.35-3.79A1,1,0,0,0,504.48,257.84Z"/><path d="M365.9,48.83c1.29-.15,1.89-1.25,1.78-2.6-.13-1.52-1.29-1.84-2.48-1.93-1.53-.12-2,.91-2,2.22A2.38,2.38,0,0,0,365.9,48.83Z"/><path d="M62.14,101.39a.88.88,0,0,0,1.3-.9c-.44-2.41-3.39-1.95-4-3.72-1.18,0-1.75.44-1.58,1.17C58.32,100.17,60.57,100.41,62.14,101.39Z"/><path d="M411,411.71c-1.33-.27-1.53.91-1.56,2a2.52,2.52,0,0,0,2.09,2.88c1-.39,1.87-.92,1.84-2A2.88,2.88,0,0,0,411,411.71Z"/><path d="M132.34,239.33c1.9.52,2.9-.83,4-1.91h0l1.25-.11c2.43-.42,3-1.68,1.69-3.77-1.31-1.9,3.91-3.12.55-5.24h0l1.56-2.84c1.35-1.35,2.76-2.65,4-4.08.36-.41,1.88-1,.63-1.68-2.87-1.58-.31-3.4-.47-5.07.35-.95.62-2.16-.79-2.14-2.08,0-1,1.92-1.39,3a2.87,2.87,0,0,0-2.11,1.88c-2.61,3.18-.52,7.83-3.45,10.91-2.92,2.06,1.86,3.3.56,5.19l-1.11.94-1.83,0a1.86,1.86,0,0,0-2.08-.85c-.1-.48-2.59.47-.73-1.18.85-.76,2.07-1.28,1.67-2.72a1.29,1.29,0,0,0-1.09-.59c-1.34.28-2.61.82-2.93,2.34a21.51,21.51,0,0,0-.2,2.9c-1.82,2,.25,3.95.11,5.92C131.21,240.67,131.63,239.64,132.34,239.33Z"/><path d="M130.22,240.26l-.11,0,.11.06Z"/><path d="M489.6,242.69c-1.28.15-2.15.85-2.05,2.22.09,1.15,1,1.62,2,1.64,1.48,0,1.94-.89,1.89-2.19S490.77,242.55,489.6,242.69Z"/><path d="M149.27,216.32c-1.34,2.48.14,3,2.18,3.11,2.1.49,3.53-1.06,2.87-2.41C153.44,215.2,151.3,214.1,149.27,216.32Z"/><path d="M421.66,144.72c-2.25-1.62-.36-4.29-3.25-5.23-1.69-1.29-4.21-1.66-4.8.17-1,2.92,1.85,2.73,3.83,2.8C418.71,142.83,418.59,144.94,421.66,144.72Z"/><path d="M489.78,91.76c-.9.18-1.53.65-1.38,1.63a2.88,2.88,0,0,0,2.61,2.5c.85.11,1.27-.87,1.3-1.74C492.36,92.41,491.07,92.08,489.78,91.76Z"/><path d="M304.73,93.19c1.12.26,2.46.62,2.72-1,.2-1.34-1.18-1.34-2-1.64a10.09,10.09,0,0,0-1.93-.29c-2.74-1.41-5.67-.59-8.65-.57,2.9.12,4.78,2.62,7.57,2.82C303.17,92.73,303.94,93,304.73,93.19Z"/><path d="M42.94,243.67c-1.33.25-2.49.87-2.31,2.49a1.18,1.18,0,0,0,1.78,1,3.22,3.22,0,0,0,1.88-2.51C44.24,243.65,43.53,243.55,42.94,243.67Z"/><path d="M123.33,322.58c-1,.06-1.9.53-1.75,1.43a2.74,2.74,0,0,0,2.73,2.38c1,0,1.32-.85,1.21-1.72A2.31,2.31,0,0,0,123.33,322.58Z"/><path d="M411.62,404.87c-1.09-.07-1.35.74-1.48,1.54a2.58,2.58,0,0,0,1.84,3.07c.79.24,1.41-.68,1.52-1.57A2.62,2.62,0,0,0,411.62,404.87Z"/><path d="M387,407.51c-1-.11-1.95-.52-2.74.43-.94-1.72-2.5-2.4-3.71-.82-.68.89.89,1.37,1.91,1.4.94,1.54,2.63,1,4,1.35.73.21,2.12.91,2.17-.83C388.57,408.14,387.93,407.62,387,407.51Z"/><path d="M359.86,433.2c-.85,2.78.1,4.7,1.69,6.48C362.2,437.34,362.42,435.07,359.86,433.2Z"/><path d="M109.18,324.27c.72-.06,1.07-.65,1-1.42a2.65,2.65,0,0,0-2.6-1.86c-.84,0-1.06.73-.86,1.4A2.29,2.29,0,0,0,109.18,324.27Z"/><path d="M134.16,265.64l-1.74,7.61C134.68,271,136.07,269.35,134.16,265.64Z"/><path d="M68.4,419.44c1.06-.47,1.35-2.19,2.94-1.81,1.8,1.73,3.77,1.79,5.56.2s1.61-3.4.45-5.27c.56-2.61,5.09-2.28,4.58-6.48-3,2.79-6.41,3.79-9.53,5.31a4.39,4.39,0,0,0-2.21,3.8c-1.62.68-3.23,1.39-4,3.15h0c-1.42,1.2-3.28,2-3.7,4.12C65.14,422.83,66.56,420.72,68.4,419.44Z"/><path d="M62.46,422.51s0,0,0-.05h-.08Z"/><path d="M516.07,210.19a1.28,1.28,0,0,0-1.55,1.38c0,1.22.48,2.23,1.87,2.33a1.43,1.43,0,0,0,1.69-1.37C517.84,211.42,517.39,210.4,516.07,210.19Z"/><path d="M130,414.34a1.8,1.8,0,0,0,.47,0h0c4.09,3,7.91,4.34,13.49,2.44,6.87-2.34,7-1.4,4.64-8.38-1.38-4.08-3.89-6.49-8-5.65-8.11,1.67-11.92,2.63-11.94,8.67-.57,1.27-3.76.44-2.57,3S128.65,413.83,130,414.34Z"/><path d="M291.55,104.57a2.07,2.07,0,0,0,1.2,2.78c1.27.41,1.42-.82,1.53-1.78h0c-1-1.48,3.29-2.45.57-3.76C292.75,100.8,291.65,102.43,291.55,104.57Z"/><path d="M88.13,205.52a2,2,0,0,0,1.83-2c0-.84-.41-1.65-1.51-1.37a2.2,2.2,0,0,0-1.64,2.21C86.75,205.27,87.41,205.43,88.13,205.52Z"/><path d="M434.33,443.54a1.28,1.28,0,0,0-1.12,1.63c.12,1,.29,2.06,1.47,2.3,1,.2,1.54-.48,1.6-1.37A2.19,2.19,0,0,0,434.33,443.54Z"/><path d="M436.5,225.62a2.32,2.32,0,0,0-2,2.43c0,.8.48,1.27,1.2,1.06,1.21-.37,1.64-1.49,2-2.65C437.87,225.47,437.06,225.52,436.5,225.62Z"/><path d="M160.78,154c-1.22-1-2.35-2.07-3.92-1.05a1.15,1.15,0,0,0-.07,1.77C158.31,156.12,159.47,154.87,160.78,154Z"/><path d="M411.51,393.08c-1.25-.35-1.17.88-1,1.5.31,1,.48,2.35,1.94,2.36,1,0,1.16-.91,1.27-1.53C413.74,393.75,412.49,393.37,411.51,393.08Z"/><path d="M299.26,125.89c-.82.15-1.55.63-1.37,1.65.14.79.85.88,1.51.9.88,0,1.6-.22,1.68-1.36C300.71,126.4,300.2,125.71,299.26,125.89Z"/><path d="M29.62,379.08c2.73.4,3.85-.56,3.82-3.38C31.58,376.37,30.24,377.09,29.62,379.08Z"/><path d="M501.3,177.14c-1,2.07-2,3.31-1,5.8C501.41,181,503,179.94,501.3,177.14Z"/><path d="M278.84,122.3c-.1.78.6,1.13,1.28,1.15s1.8.2,1.89-1c.08-.94-.61-1.43-1.49-1.62A1.58,1.58,0,0,0,278.84,122.3Z"/><path d="M432.45,120.45c-1.16-1.36-2.46-1-3.73-.23a1.76,1.76,0,0,0,.31,1.18c1.13,1.25,2.28.51,3.41-.08.5.78,1.13,1,1.88.37.2-.18.24-.54.35-.82l-2.22-.42Z"/><path d="M99.39,239.5c.58-.18,2,0,2-1.64,0-1-.82-.77-1.44-.61-1,.28-2.47,0-2.4,1.73C97.58,239.93,98.3,239.8,99.39,239.5Z"/><path d="M121.52,232.61c1.67.34,3.09,0,4.52-2.3-2.35-.23-3.91-.33-4.82,1.47C121.13,232,121.36,232.58,121.52,232.61Z"/><path d="M492.51,262.53a1.51,1.51,0,0,0-.32,1.29c1.38,1.22,2.92.63,4.5-.05C495.29,263.23,494.12,261.9,492.51,262.53Z"/><path d="M369.55,429.21a1.6,1.6,0,0,0-1.81,1.21,1.73,1.73,0,0,0,1.5,2.06c1.15.28,1.68-.56,2.11-1.45A1.78,1.78,0,0,0,369.55,429.21Z"/><path d="M219.37,101.31a10.19,10.19,0,0,0,2,7.09A10.7,10.7,0,0,0,219.37,101.31Z"/><path d="M324.85,101.4c.07,1.1,1.07,1.08,1.86,1s1.38-.31,1.29-1.12a1.57,1.57,0,0,0-1.62-1.48C325.48,100,324.8,100.48,324.85,101.4Z"/><path d="M62.46,422.51l-.07-.06v.09Z"/><path d="M57.56,426.54l-1.23,1.61h0c-1.95,1.1-4.17,1.87-5.11,4.2l-1.6,2.8,1.79.2c3.52-.14,3.72-3.44,5.22-5.5h0l1.91-2.22h0c1.65-1.43,4-2.31,3.85-5.09C60.13,423.08,58.91,424.89,57.56,426.54Z"/><path d="M204.59,441.2a1.68,1.68,0,0,0-1.86,1.19c-.28,1.15.51,1.82,1.45,2.09,1.12.31,1.72-.5,2.25-1.59C206.11,442.1,205.72,441.23,204.59,441.2Z"/><path d="M314.18,444.66a3.79,3.79,0,0,0-1.6,3.84c-.28,1.69-.91,3.36-.21,5.08.12,1,.72,2.47,1.55,1.84,1.11-.85.57-2.66.37-4.08C314,449.24,315.38,447,314.18,444.66Zm-.57,7.16s0-.07,0-.11a.48.48,0,0,0,.17,0Z"/><path d="M357.27,35.36c1.79-.59,2.43-1.84,1.9-3.88-1.92.31-2.93,1.26-2.84,3.14C356.35,34.89,357.05,35.43,357.27,35.36Z"/><path d="M284,43.28a1.44,1.44,0,0,0,1.37-1.7,1.61,1.61,0,0,0-1.68-1.5c-1,.05-1.32.87-1.29,1.79A1.32,1.32,0,0,0,284,43.28Z"/><path d="M241.35,55.52c-1.21-2.38-2.59-3.37-5.58-3.16C237.2,54.55,239,54.91,241.35,55.52Z"/><path d="M121.39,422.49c-.29-2.46-1.39-2.73-3.17-1.17-1,.39-.9,1.22-.88,2a5.08,5.08,0,0,0-1,1c-.52,1-2.83.45-2.12,2.41.2.55.65,1.34,1.08,1.41,1.77.26,1.64-1.62,2.46-2.47a10.62,10.62,0,0,0,.85-1.12A2.42,2.42,0,0,0,121.39,422.49Z"/><path d="M157.51,233.91c-2.33-.59-3.56.1-4.46,2.69C155.44,236.28,157,236.1,157.51,233.91Z"/><path d="M310.36,108.63c-1.52,1,.06,2.19.26,3.38.6-1.07,2.18-1.81,1.05-3.26A1.37,1.37,0,0,0,310.36,108.63Z"/><path d="M271.75,100.64a1.28,1.28,0,0,0-1,1.78,1.22,1.22,0,0,0,1.55.88,1.34,1.34,0,0,0,.88-1.78A1.13,1.13,0,0,0,271.75,100.64Z"/><path d="M148.53,430.44c-2.5-3.54-5.55-3.94-8.73-1.14-2.66,2.34-3.65,5.34-.92,8.25,3.16,3.36,5.91.64,8.65-1l.37,0,.36-.09c.09,1.48,0,3.4,2.28,2.63s2.71-2.52,1-4.48C148.89,434.43,150.1,431.43,148.53,430.44Z"/><path d="M445.46,405.36c-.8,0-1.15.48-1.19,1.21,0,1.09.37,1.94,1.57,2,1,.08,1.48-.47,1.52-1.45A1.82,1.82,0,0,0,445.46,405.36Z"/><path d="M130.11,240.22s0,.08,0,.11l.08-.05Z"/><path d="M130.41,243.91c2-1.33.18-2.41-.26-3.58-1.14.85-2.51,1.63-1.45,3.41C129.14,244.48,129.89,244.26,130.41,243.91Z"/><path d="M481.92,266.78a5,5,0,0,0,5-2.75C484.71,265.05,482.94,265.07,481.92,266.78Z"/><path d="M327.35,84.46c-1.62-.89-3.16-2-5.37-1.62C323.36,85.28,325.34,84.92,327.35,84.46Z"/><path d="M327.45,84.44l-.1,0,0,0Z"/><path d="M57.44,232.51c1.27-.19,2.49-.44,2.78-2.11a4,4,0,0,0-3.84,1h0c-1.21-.58-2.38-.85-3.5.77C54.45,232.84,55.75,234.27,57.44,232.51Z"/><path d="M424.23,158.27a4.13,4.13,0,0,0,3.11,2.6c.15-2.14-.71-3-2.19-3.21C424.69,157.58,424,157.63,424.23,158.27Z"/><path d="M423.54,107.65c2.13,1.31,3.06,0,4.1-.91C426,106,424.71,106.1,423.54,107.65Z"/><path d="M65.47,315.43l-.13,0,0,.12Z"/><path d="M60.81,313.84c1.06,2,2.94,1.34,4.53,1.57C64.61,312.77,62.7,313.4,60.81,313.84Z"/><path d="M17.81,390.14c-.76.17-1.83.29-1.58,1.44s1.45,1.26,2.4,1.21c.76,0,1.7-.26,1.54-1.54A1.86,1.86,0,0,0,17.81,390.14Z"/><path d="M65.47,315.43l-.09.1.09,0S65.47,315.45,65.47,315.43Z"/><path d="M68.51,318.49c.95.26,1.12-.77.85-1.27-.82-1.54-2-2.57-3.89-1.73C65.21,317.75,67,318.06,68.51,318.49Z"/><path d="M326.42,444.85c-.49,2.39-1.4,3.83.68,6.13C327.35,448.7,328.16,447.13,326.42,444.85Z"/><path d="M140.24,92c-1.18,2.3-1.18,2.3.33,4.21C141.58,94.65,141.79,93.27,140.24,92Z"/><path d="M427,404.74a1.45,1.45,0,0,0-1.47,1.56,1.89,1.89,0,0,0,1.41,1.75c1,.36,1.36-.43,1.63-1.22A1.88,1.88,0,0,0,427,404.74Z"/><path d="M326.86,489.17a11.92,11.92,0,0,0,1.12,7C328.52,492.72,328.52,492.72,326.86,489.17Z"/><path d="M116.63,224.26a1.2,1.2,0,0,0,1.34,1.13,1.26,1.26,0,0,0,1.38-1.11c.11-1-.5-1.46-1.35-1.71A1.48,1.48,0,0,0,116.63,224.26Z"/><path d="M221.44,108.51v-.07h0l0,0v.06Z"/><path d="M223.59,115.38c-.79-2.81-.67-5-2.15-6.87C221.5,110.69,221,113,223.59,115.38Z"/><path d="M152.91,113.43a5.22,5.22,0,0,0,.32,4.84C155.23,116,153.22,114.85,152.91,113.43Z"/><path d="M116.73,128.31c.44.05,1-.56,1.42-.84a2.7,2.7,0,0,0-2.18-1.89,1.14,1.14,0,0,0-1.49,1.31C114.67,128,115.83,128.19,116.73,128.31Z"/><path d="M337,419.59c-.69,0-1.28.28-1.34,1.05s.06,1.42.92,1.32c.53-.07,1-.58,1.35-.79C338.05,420.11,337.78,419.61,337,419.59Z"/><path d="M133.3,386.29c.48-.08.87-.76,1.2-1.07-.26-1.09-.75-1.77-1.59-1.83a1.11,1.11,0,0,0-1.24,1.15C131.73,385.53,132.06,386.5,133.3,386.29Z"/><path d="M131.72,144.49a1.1,1.1,0,0,0,1.2-1.16,1.77,1.77,0,0,0-1.12-1.78,1.54,1.54,0,0,0-1.59,1.52A1.34,1.34,0,0,0,131.72,144.49Z"/><path d="M160.57,161a6,6,0,0,0,1.74-1c0-1.06-.54-1.46-1.18-1.55a1.26,1.26,0,0,0-1.55,1.32C159.55,160.31,159.76,161.15,160.57,161Z"/><path d="M132.79,165.21a1.38,1.38,0,0,0,1.37,1.13,1.73,1.73,0,0,0,1.3-1.82c-.05-.69-.32-1.33-1.14-1.25C133.2,163.38,132.5,164,132.79,165.21Z"/><path d="M111.85,249.48a10.85,10.85,0,0,0,1.43-1.84.86.86,0,0,0-.81-1.31,2,2,0,0,0-2,1.68C110.28,248.62,110.31,249.28,111.85,249.48Z"/><path d="M151.2,400c.87,3.46,2.61,1.87,4.09,1.39Z"/><path d="M134,256.19c.89-2.22-.65-2.6-2.31-3.53C132,254.55,132.17,255.9,134,256.19Z"/><path d="M140.55,252.56c.32-.65.64-1.29.95-1.93l2-.29c1.45-.6,3-1.15,1.26-3.07h0l-1.92-.9h0c-.18-.6-.35-1.2-.52-1.8h0l1.32-3.36c-.59-.22-1.26-.74-1.76-.61-1.7.44-2.09,2-2.26,3.46-.12,1.14-.08,2.3-.12,3.45-1.61,1.77-.6,4-1,6l-2,1.21h0c-1.47,3-2.54,6.14-1.64,9.71,2.41-.49,2.57-2.63,3.69-3.9l2.85-1.15h0c1.85-2.46-2.43-2-1.85-3.87C139.86,254.51,140.21,253.53,140.55,252.56Z"/><path d="M116.59,283.89a1.2,1.2,0,0,0,1.44,1.44c.55-.06,1.4-.48,1.51-.89.35-1.31-1-.8-1.42-1.11C117.35,283.08,116.69,283,116.59,283.89Z"/><path d="M311.66,29.67h0l-.11-.1a5.91,5.91,0,0,0,.5-5.93c-.83,2.43-3.05,4-.5,5.94l0,.07.13,0Z"/><path d="M431.35,40.87c.82-.37,1.95-.41,1.93-2.06-.33-.22-.9-.89-1.27-.8a1.75,1.75,0,0,0-1.4,2.15C430.68,40.51,430.55,41.24,431.35,40.87Z"/><path d="M283.78,68.29c.13,2.09,1.66,2.2,3.66,2.67C286.62,68.78,285.49,68.16,283.78,68.29Z"/><path d="M304.12,447.82c.37,1.45,1,2.38,2.3,2.43.25,0,.8-.68.73-.91C306.79,448.1,305.89,447.55,304.12,447.82Z"/><path d="M440.64,69.62c-2.14.75-4,.13-3.72,2.5C438.51,72.44,439.37,71.71,440.64,69.62Z"/><path d="M265.15,72.49c-1,1.78-1.3,3.16-.13,5.73C265.86,75.81,266.93,74.45,265.15,72.49Z"/><path d="M327.4,84.49l.07,0a.64.64,0,0,0,0-.07Z"/><path d="M293.33,88.79c-1.52-1-2.41-2.08-5.18-1.28C290.15,88.75,291.14,89.84,293.33,88.79Z"/><path d="M316.23,479.47c.16,1.41-.16,2.83,1.08,4.29a2,2,0,0,0,1-2.52C318.07,480.42,317.94,479.27,316.23,479.47Z"/><path d="M279.66,95.48h0c-1.81,1.46-1.47,3.18-.88,5.24,1.89-1.63,1.86-3.41,1.63-5.26a3.77,3.77,0,0,0,.53-4.7c-.88,1.67-1.82,3-1.28,4.72Z"/><path d="M347.11,33.51a3.31,3.31,0,0,0-.1-3.87,1.68,1.68,0,0,0-1.17.49C345.2,31.44,345.47,32.57,347.11,33.51Z"/><path d="M204.4,436.65c.26-1.06.76-2.3-.94-2.71h0c0-.75.32-1.82-1-1.69a2,2,0,0,0-2,2.34l-.26,1.85c-1.17,1.3-1,2.69-.5,4.33a3.14,3.14,0,0,0,1.5-2.58h0l1.16-.92C203.2,437.39,204.12,437.81,204.4,436.65Z"/><path d="M283.59,81.13c-.73,0-1,.65-1,1.34s.2,1.25,1,1.37a1.28,1.28,0,0,0,1.3-1.12A1.23,1.23,0,0,0,283.59,81.13Z"/><path d="M167.27,83.77c.53-.31,1.2-.67.82-1.42-.24-.5-.8-1.16-1.23-1.16-.66,0-1,.68-.82,1.41S166.42,83.81,167.27,83.77Z"/><path d="M310.41,78.48a5.4,5.4,0,0,0,4,2h0c1.45.6,2.71,2.08,4.82,1.24a4.79,4.79,0,0,0-4.82-2.2h0l-3-1h0a4.86,4.86,0,0,0-4.81-1.21C307.77,79,309.23,78.25,310.41,78.48Z"/><path d="M240.52,72.1a.92.92,0,0,0,.81,1.35c1.19.09,1.39-1,2-1.73,0-.72-.39-1.36-1.09-1.1A3.63,3.63,0,0,0,240.52,72.1Z"/><path d="M160.46,365.2a1.3,1.3,0,0,0-1-1.82,1.11,1.11,0,0,0-1.43.89,1.37,1.37,0,0,0,1,1.83A1.13,1.13,0,0,0,160.46,365.2Z"/><path d="M251.32,450.56c.21-.69.32-1.67-.87-1.68-.75,0-1,.69-1,1.32a10.76,10.76,0,0,0,.47,2.08C250.6,451.47,251.17,451.08,251.32,450.56Z"/><path d="M247.19,456.39a.86.86,0,0,0-.77-.38c-1.67.73-.69,2.25-1,3.41C246.6,458.73,247.77,458,247.19,456.39Z"/><path d="M245.45,459.48a.13.13,0,0,0,0-.06l-.05,0Z"/><path d="M317.12,457c-.64-.3-1.44.21-1.07.95s1.21,1,1.73,1.37c.67-.09,1.39-.13,1.06-.74A4,4,0,0,0,317.12,457Z"/><path d="M229.16,462.83c.63,0,1.19-.54,1.16-1.68-.28-.26-.66-.88-1.19-1.06a1,1,0,0,0-1.3,1C227.86,461.9,228.13,462.87,229.16,462.83Z"/><path d="M333,464.48c.28-1-.63-1.29-1.38-1.81-.31.22-.86.41-.94.72-.24,1,.57,1.41,1.28,1.69A1.25,1.25,0,0,0,333,464.48Z"/><path d="M175.64,463.4a1.74,1.74,0,0,0-1.88,1.16c-.51,1.12.67,1.11,1,1.36,1.37.5,1.62-.3,1.73-1.12C176.6,464.17,176.43,463.53,175.64,463.4Z"/><path d="M240.59,468.34c1.5.36,1.14-1.15,1.53-1.85s0-1.24-.85-1.13-1.44.62-1.72,1.77C239.82,467.46,240.13,468.23,240.59,468.34Z"/><path d="M72.67,241.83a.94.94,0,0,0,1.18-1.1,9,9,0,0,0-.91-2.13,7.37,7.37,0,0,0-1.23,1.74A1.2,1.2,0,0,0,72.67,241.83Z"/><path d="M41.2,283.2c-.19,0-.74.58-.71.85.1.89.69,1.36,1.84,1.29.17-.24.68-.61.64-.91C42.85,283.49,41.94,283.34,41.2,283.2Z"/><path d="M223.69,509.77c1.54-.39,2.06-1.43,2.29-3.37C223.85,507.13,223,507.92,223.69,509.77Z"/><path d="M178.36,510.09c-.14-.24-.33-1-.76-1.2-.8-.32-1.11.48-1.14,1.1s-.4,1.75.78,1.85C178,511.9,178.22,511.15,178.36,510.09Z"/><path d="M170,520.56l1.35-4.7-1.29-.41C169.27,516.84,169.13,518.34,170,520.56Z"/><path d="M273.82,109.43c0,.56.49,1.11,1,2.07a7.78,7.78,0,0,0,1.19-1.85c.07-.29-.38-.93-.72-1C274.59,108.38,273.81,108.59,273.82,109.43Z"/><path d="M466.12,288.07c.25.09.72-.39,1.39-.79-.67-.57-1.06-1.12-1.58-1.3a.85.85,0,0,0-1.2,1C464.85,287.43,465.58,287.86,466.12,288.07Z"/><path d="M451.68,263.74c-.53.15-1.32.59-1.37,1-.13.91.78.69,1.32.7s1.29,0,1.41-.85A1,1,0,0,0,451.68,263.74Z"/><path d="M430.89,369.61c.85,0,.58-1.67.72-2.61l-.12-.44,3.91-1.17c1.42.2,1.4-1.27,2.14-1.84h0c4.95.5,4-3,4-5.88h0c1.31-.4,2.91.23,4-1.11l.81-1.15h0l-.18-3.67-1.83-2.37c-.58-3.88-1.79-7.35-5.9-8.89a5.41,5.41,0,0,1,.15-3.84c1.29-.79.85-2,.85-3.17h0c1.86-1.64,5.16-2.33,4-6-.34-3.11-2.81-2.84-4.94-3.11l-.85-.93c.19-.68.67-1.4-.28-1.92-1-2.77-3.27-4.1-5.78-5.19-.28-4.68-2.59-5.05-6.11-2.88l-2.06-.83c-1-2.17-3.56-2.41-4.92-4.12,1.09-.68,2.78.73,3.51-.83.54-1.16-.71-1.13-1.39-1.4h0c-3.63-1.7-1.05-3.16.19-4.67l3.54.91c1.69,1.86,4,2.76,6.12,4,.3.51.6,1,1.07.14,2,0,3.92-1.35,6-.27l2,.17h0l3-1h0c2.06.84,2.3-.92,3-2.07h0c1.73-.75,5.62.24,3.12-3.9l.84-2c.93-.3,1.94-.48,2.05-1.75h0c1.61-.43,5.3.95,2.75-3.13l-.71-1.15h0l-1.11-2c.33-3.24-2.09-5-3.82-7.15-.14-1.22-1.29-1.31-2.06-1.83l-1.83-3.79,3.79-2.25c2.42-.29,5,.2,7.05-1.73,2.72.27,5.24-.69,7.82-1.28h0c.12.12.28.22.33.36s.07.43,0,.47c-1.08.61-2.18,1.19-4.1,2.23,4-.1,7.62,1.26,8-3.87h0l2.15-.92h0l3.8-1.13h0c1.91.85,3.31-.44,4.85-1.15.73-.08,2,0,1.67-1-.58-1.57-1.68-.79-2.52.05h0c-1.71.48-3.65-.63-5.23.76l-1.76.5h0c-2.49,0-4.95.11-7,1.83-2.58,1-5.62.17-8,2h0l-7,1h0a34.75,34.75,0,0,1-12,2.92c-1.48-2.18-5.36-2.41-4.95-6.12l3,.15,1-.12c1.35-.71,3.7.73,4.13-1.93h0c.3-.34.59-.68.89-1,4.42.09,3.84-3.21,4.06-6h0c1.37-.15,2.93.5,4-.95.31-.36.62-.73.92-1.1h0c1.37-1,.65-2-.07-2.92h0c-.29-.36-.59-.71-.89-1.07-.32-1.38-2.74-3.17.74-3.8,3.3,1.36,5.19-.64,7.64-2.93-3.32-.84-5.36.49-7.39,1.83a3.4,3.4,0,0,0-2.89-1.22h0c-1.61-1.38-1.95-4.4-5-3.89-.95-3.82-2.28-7-7.08-4l-2-.87-.84-1.19c-.4-1.2.63-3.06-1.24-3.5-.86-.2-.7,1.12-.86,1.82-2-.67-2.79-2.2-3-4.17.61-2,2.46-3,4.07-4.11-1.67-1.82-2.85-.17-4.12,0h0c-.71-1.35-2.19-2.3-2.1-4.07l-1.9-2.86c-.25-1.56-.53-3.1-2-4-.35-1.21-.68-2.44-2-3,2.93-6,5-12.17,2.71-19-.19-.53.23-1.28.37-1.93l2.37-3.93c2.34-1.66,4-3.53,1.93-6.5-.08-3.15-.55-6.07-4.33-6.88-.95-.21-2.05-1.94-2.8-.18-.57,1.33-.49,3,1.68,3.26,2.55.26,2,1.46.88,2.84-4.21,1.4-3.53,3.78-1.3,6.48.19.7.92,1.58.14,2.11-1.25.85-1.66-1-2.67-1.14-.63-1.79-2-3-3.29-4.31-2.57-2.7-1.21-8.93-7.48-8.36-.08,0-.24-.25-.26-.4-.62-5.26-5-8.49-6.93-13.07,1.75-.76-2.56-1.38-.05-2.16,2.71.52,4.53-.85,6.06-2.84a4.31,4.31,0,0,0,2.77-2.92h0l2.24-1.09h0c1.64-.06,3.66.62,4-2h0a1.91,1.91,0,0,0,1-1.82c-.46-1.78-2.13-2.64-3.13-4-.39-.72-.77-1.46-1.18-2.17-1.2-2.05-4.87-3.81-.7-6.51.27-.18.19-1.37-.11-1.86-1.91-3.12,1.9-4.8,1.82-7.77-.1-4,4.6-2.06,7-3.56l-2.74-2.34c0-.62,0-1.23,0-1.85a5.41,5.41,0,0,0,.89-.28l9,.63c-2.62-3.72-5.84-2-8.8-1.67-.83-1.21-2-.94-3.17-.76-.87-3.85-2.34-7.87,3.05-9.8.38-.13.59-.71.87-1.08.2-3.19,3.7-2.44,5.07-4.23,1-.22,2,1.15,3,0,1-.38,2.69,1.63,3.19-.82h0c1.52,1,2.38,0,3.1-1.1.18-.27-.09-.84-.16-1.27l-3.14,1.29h0l-1.95.19h0c-1.39,0-2.94-.81-4.06.74h0c-2.53.75-5.26,0-7.63,1.42-.7-2,.55-4.09-1.34-5.38l-3-4a6.87,6.87,0,0,0-.12-.88c.85-2.18,3.33-2.82,4.43-5-3.19,1.53-7.4.83-9.38,4.76h0l-4,1.27h0a5,5,0,0,0-.94-.24l-2.19-6.14c.66-4.15,2.52-8.92-4.76-8.85A2.22,2.22,0,0,1,393,78.28c-2.68-5-5.19-3-7.71.13-3.67-3.12-4.65-7.32-4.75-11.87.88-2.28,1.82-4.54,1.76-7.05h0c.11-.6.23-1.21.35-1.82h0c1.24-1.58.68-3.44.77-5.19a6.4,6.4,0,0,0,1.18-5.66,9.47,9.47,0,0,0-2.08,5.71l-1.23,3.77c-3.34.47-.63,2.09-.6,3.2q-.51,3.09-1,6.18c-1,.79-1.67,3.38-3.28.56-.2-.34-.09-1.72-.85-.3a4,4,0,0,0-.17,1.42c-1.34.5-2.24.43-2.16-1.39s1.22-3.34.31-5.53a6.24,6.24,0,0,0-2,4.09c-.36.91-.66,1.85-1.09,2.73s-.74,2.06-1.91,1.84-1-1.46-1.18-2.41.59-3-1.66-2.65c-1.53.25-1.91,1.6-1.94,3,0,1.24.67,2.63-.86,3.71l-2.61-4h0l-1.66-3.33h0c-.33-1.76-1.65-2-3.11-2.09,0-.93,0-1.85.07-2.78,1.66-1.73,3.52-4.74.7-5.47-4.58-1.2-8.65-4.82-13.84-3.51-4.12.58-6.61,3.08-8.07,6.81a5.15,5.15,0,0,0-.12,5.39h0c.36,3.37,2.44,5.89,4.24,8.55-.62,1.2-1.53,2.39-.1,3.65-1,2.24,2.06,2.65,2.05,4.45h0a9.89,9.89,0,0,1,1,4.78l-1,.27a5.05,5.05,0,0,0-3.31-2.91c.44,1.74.93,2.57,2.11,2.88.51,7.36-4.2,2.64-6.75,2.93a.57.57,0,0,0-.52-.19l-4.49-1.68c.35,2.72,2.08,2.68,4.13,2,.49,3.27,3.75,2.71,5.63,4a8.79,8.79,0,0,1,.12,4.85c-3.89,1.82-1,5.37-2,7.93-1.34,1.9-1,4-.9,6.15a1,1,0,0,0-.22.91c-2.38,1.19-5.27,1.51-6.84,4.06-1.71.71.2,3.09-1.66,3.67-1.06.34-2.85.38-2.1,1.89.91,1.82,2.08-.06,3.18-.39a8.2,8.2,0,0,1,2.42,0l.13-.12c-.1,2.65,1.75,5.1.77,7.84l-.81,1.06c-2.63-2-5.24.41-7.87,0a2,2,0,0,0-.73-.17c-1.6-1.11,1.31-2.66-1-4.17.1,4.18-3.93,2.26-5.53,4.23-1.62.4-2.28,1.7-2.85,3.08-1.3,1.41-2.91,1.29-4.57.93-1-.21-2.17-.37-2.25,1-.24,3.89-3.89,4.25-6.1,6.11l-1,.1,0-2.12h0c-.46-1.42,1.32-4-2-3.94h-1l-1.9-.38c.21-1.22-.62-1.91-1.37-2.63h0c.14-2-1.38-1.94-2.7-2.1-2.44-1.2-.54-2.68-.24-4,.37-.71.74-1.43,1.12-2.14h0c7.7-.67,1.59-5.66,2.74-8.45-1.28,1-3.5.33-3.78,2.54l-.89,3.09c-.54,4-4,7.56-2.21,12h0l-2.67,2-1.15-.67h0c-1-3.67-6.63-2.83-7-7.13-.62-.61-1.24-.35-1.86,0-1.37.33-2.18,1.93-3.8,1.68l-1.5-3.91c.61-1.39,2.1-2.71.89-4.32-.82-1.09-1.94-.67-2.81.24l-1.79-2h0c-.27-.53-.58-1.52-.79-1.5-1.51.17-1.55,1.73-2.28,2.67h0c-2.77,0-5.62.14-4.15-4.12a3.14,3.14,0,0,0,.31-2.94h0c.31-1.32.63-2.64.94-4,.26-.66.51-1.31.77-2h0c-.91-1.46,3.15-2.27.59-3.77-1.39-.81-2.43,0-2.44,1.7-1.75,1.72-.54,4-1.09,5.92l-.6,2.08c-.14,1-.28,1.92-.43,2.89-.84.51-1.91.81-1.89,2.11l-1.11,2.72c-.8-.41-1.61-1.51-2.51-.7-1.37,1.24,1.05,2.52.24,3.89-1.15-.35-1.64.87-2.56,1.07-2-4.32-2-4.32-4-3-.07,1-.13,2-.19,2.94a3.82,3.82,0,0,1-.89.12l-1.14-.91h0c-.3-.38-.59-.76-.88-1.15l-1-6h0c-.72-2.68,1.71-5.37,0-8,0-2.38.47-4.8-.44-7.55-.83,2.76-.39,5.17-.35,7.56h0l0,8.06c-.06,1.61-.13,3.23-.19,4.84-1.56,1.3,1,3.55-1.08,4.74-2.84.48-2-4.16-4.5-3.49-2.78.76.27,4.47-2.27,5.72-1.42-2.24-3.23-1.7-5.09-.77-.24.58-.47,1.17-.7,1.76-.95-.84-1.47-2.43-3.24-1.82-2.57.6.54,4.78-2.09,4.25s-3.81,1.73-5.9,1.63h0c-2.29-2.23.49-4.59-.18-6.85.12-1.06,2.54-1.15,1.36-2.5-.86-1-2.34-1.12-3,.66h0c-2.07,2.25-.09,5.19-1.3,7.59h0c-1.42,1.77-.15,5-3.2,5.88a4.38,4.38,0,0,1,.51.54h0l-.5-.55c-1-.51-2.32.48-2.68.18-4-3.35-2.7.46-3,2.13l-.12,3.89c-1.3,2-3.21,1-4.92,1-1.07-.83-1.59-1.72-.16-2.68,3-2-.23-2.25-.9-3.22.54-1.33,3.47-2.51,1.39-3.92-2.82-1.91-1.65-4.7-2.62-6.94l.27-2.14c1.55-1.19.67-3.08,1.32-4.49.37-.78,1.7-1.3.21-2.14a1.75,1.75,0,0,0-2.5.74c-.82,1.29-1.26,2.65-.22,4.06.22,2.11-1.17,2.68-2.85,3-6.76-2.8-12,7.75-19,2.23-2.66,3.09-7,2.6-10.09,4.65-1,.69-2.12,3-1.23,3.12,3.91.38,2.29,5.15,5.26,6l-.89,1.9c-.76,3.37-2.49,6.48,1.3,9.71,2.88,2.46,0,7,1.77,10.34l-1.95,1.86c-.81-.76-1.79-1.15-2.38,0-1.17,2.31,1.08,3,2.23,4.18a.77.77,0,0,1,.34.35l-.34-.35c.41,1.48-1.43,2.56-.75,4.09,0,1.93-.07,3.87-.11,5.8l-2.08-1a9.24,9.24,0,0,0-.92-.1c-1.4-1.6-3.34-.54-5-1l1.21-2.86h0c2-.38,2.55-1.61,1.21-3s-2.87-1.31-3.54.94h0c-1.55,1.81-.47,4-1,6a9.14,9.14,0,0,0-1.11,4.88h0c-2.55,1-1.83,3.19-1.89,5.1,0,.18,0,.36,0,.53h0a.59.59,0,0,1,.07-.53,16.35,16.35,0,0,0-3.88,9h0c0,1.47,0,2.94-.05,4.41h0l-2.25.92c-1.62-1.44-3.52-2.1-5.2-.48-1.27,1.23-.58,2.94-.08,4.54.84,2.7,2.3.18,3.38.55,1.86.12,1.22,3,3.35,2.93,1.61-2,1.55-4.45,1.72-6.84,3.51-1.87,5.4-4,1.09-7.07l1.71-3c.37-.73.75-1.46,1.13-2.19h0l3.06-.75.51-.19a3.29,3.29,0,0,0,.16.33h0a.71.71,0,0,1-.67-.14c1.09,1.11-1.2,4.21,2,3.84,1.67-.18.65-1.72.26-2.69,1.4-1.16,1.44-2.27-.12-3.32-2.57-.79-3.08-2.53-2.24-4.88l.06,0,2,.15c1,1.51,2.53.81,3.88.76l1.3.2c2.16,2.17,4.23,3.87,4.92-1l1.17-.09a1.45,1.45,0,0,1,.65.16c-.76,2.39,2.53,4.33.75,6.83a2,2,0,0,1,.91.12h0a2,2,0,0,1-.16.36,1,1,0,0,0-.74-.48l-2.48.26c-2.18-4.36-2.56-.73-3.48.52a2.52,2.52,0,0,0-.61.39c-.66,1-.82,1.88.68,2.24h0c2.07.94,1.14,3.32,2.25,4.72-.14,1.93-.29,3.86-.43,5.79h0a7.57,7.57,0,0,0-6.29-.54c-.14,2.8,4,1.81,3.58,4.65-2.58.61-.39,2.16-.64,3.24-.1,1.23-.21,2.46-.32,3.68-1.45-.87-3-1.68-4.27.13-.64.9-1.46,2.16-.61,3.19,1.36,1.65,2.48-1.23,3.93-.46a7.9,7.9,0,0,0,.92.35c-2.49,1.06,1.31,4.2-1.68,5.08-1.13-.18-2.44-.39-2.89.91s1.39,1,1.68,1.9c-1.82,3.6,1,3,2.92,3.23-1.33,2.67.22,4.3,2.11,5.8-1.63-.36-2.81.1-3.26,1.84-1.42.65-5.12-.67-2.79,3.22.12,1-.28,2.26,1.13,2.75l2,2.21,0,1c-1.93-.76-3.52-1.52-2.59,2,.52,2,3.36,3.44,1.44,6l-6,.06-.12-2.67a1.38,1.38,0,0,0,0-.35,1.5,1.5,0,0,0-2.69-.53c-1.63,2.27-4.54,2.53-6.33,4.44-1.46,4.13,2.42,3.51,3.91,3.57,2.91.1,4.37,1.25,5.14,3.8.08,4.17,5.12,4.93,5.93,8.59-1-.23-2.2-.27-2.3.73-.18,1.65,1.36,1.38,2.47,1.35.31.66.61,1.33.92,2l.11.13-.26.17.26-.17a21.64,21.64,0,0,1-3.42,0c-1.82-.29-4.1-.66-5.09.62-1.31,1.7.56,3.47,1.49,5.07,1,.89,2.39,1.53,1.92,3.27-1.39.11-2.92-.27-3.91,1.16-2-.48-3.24,1.3-4.92,1.76-2.48-.86-2.39-2.87-2.18-4.93-3.78-1.09-8.62,1.71-11,6.52,2-.12,3.75.9,5.6,1.16,1.23.18,3.55,1.51,3.6-1.55l2-.19c1.22,2,5.12,1.47,4.69,5-3.22,6.12-.73,10.48,4.33,14.05-1.87,2.41-2.33,4.32,1.62,4.81.22,0,.34.83.5,1.28-1.2,1.48-3.64,3.25-3.38,4.4,1.05,4.56-1.93,4.07-4.58,4.92-1.38.44-3.4-.22-4.27,1.62-1,1.39-3,0-4.12,1.36,1.3,2.49,4.43,2.76,5.94,4.93h0c.06,2.41-1.09,5.69,3.65,4.53.84-.2,2,1,3,1.44,3.42,1.47,2.45,5.49,4.53,7.72-.36.73-.73,1.45-1.09,2.17-1.54-.67-3-2.5-4.72-1.48-1.9,1.12,1.86,1.94.58,3.37a6.26,6.26,0,0,0-4.4,2.9,1.46,1.46,0,0,0-.25.39c-.78,1.32-2,.44-3,.54a22.49,22.49,0,0,0-8.12-2.19h0c-1.32-1.62-3.58-1.26-5.12-2.44h-4.94c.34,1.88,1.33,2.29,2.8,1.91a18.06,18.06,0,0,0,7.23,1.69l6,2.1.65,1c-1.3,0-1.54,1-1.74,2-1,.65-2.11,1.29-3.17,1.93-1.18.14-1.66,1-1.91,2l-2.87,3.18a16.31,16.31,0,0,0-5.19,6.84h0c-4.72,3.75-7.88,9-12.27,13-2.51,2.42-5.81,3.93-7.82,6.91l-5.84,2.94h0L98.5,396.6c-1.41.51-3,.49-4.11,1.8l-4.18,3h0l-1.81,1.08h0c-2.22.23-3.66,1.45-4.88,3.61,2.74.8,3.8-.85,5-2.33h0l2.92-1.39c1.71-.47,3.37-1,4.38-2.63h0l6.75-2.07c2.45,2.26-.91,2.49-1.31,3.75h0c-2.67,2.41-2.34,6.13-3.92,9-1.51,1.41-.66,3.28-1,4.92h0l-3.09,5.08c-2,1.11-4,2.28-3.83,5.08-1.26.42-2.3,1-2.2,2.59l3.19-.53c3.54-.65,2.35-5,5-6.36,1.6-1.18,1.51-3.07,2-4.73l1.09-2c3.87-3.05,4.5-7.68,5.85-12a15,15,0,0,1,4.29-8.92c2.56-3.12,6.28-5.18,8.17-8.92,4.89-2.38,7.82-7.07,12.09-10.24,3.33-2.48,7.43-4.08,9.87-7.72l1.75-.16c2.51,4.9,3.23,4.94,7.81,1.94,3.34-2.19,6-4.34,4.27-8.85-.1-.27.06-.64.1-1,4.9.12,8.66,3.69,13.61,4.21,3.45.36,6.42,8.4,6,13.51-.84,10,1,12.13,10.92,12.93l2.43,1.13c4.78-.77,6.18,1.79,5.91,6,.32,1.33,1.75,2.68,2.38,2.42,1.24-.5-.38-1.48-.41-2.34.63,0,1.36-.32,1.89-.1,5.58,2.26,7.07,10.83,2.65,15-1.43,1.35-3.55,2.94-2.35,4.81,1,1.55,2.48,4.36,5.65,2.4.59-.37,2,.64,3.09,1h0c-.12.7-1.22,1.61,0,2,1.55.56,1.46-1.25,2.14-2l3.79,0c-.36,1.39-2.11,2.18-1.57,4.43,2.84-2.3,4.24,1.56,6.75,1.36A20.75,20.75,0,0,1,217.56,439a7.11,7.11,0,0,0,6.75,8.54c-.29,1.72-2,3.44,0,5.16l.86.91c6.51,3.08,10.42,2.47,13.41-2.09a3.8,3.8,0,0,0,1.07-2.95l.87-1.05h0l5.89-.21h7l7.06-.06c4.09,1.42,3.5-1.2,3.13-3.62,5.94-2.47,6-2.63,2.9-8.1a3.51,3.51,0,0,1,.85-.2c3.23,1.88,5.39,1.83,5-2.79,1.26-1.34,1.26,1.44,2.33.72l2-.65h0l2.66,1.93c-.58,5-5.44,7.48-6.93,11.93-4.93,5.08-12.1,8.88-10.14,17.86h0l-1.92,4.09h0c-2.17,2.35-4.39,4.68-5,8-3.44.79-6.38,2.09-7.82,5.76-.41,1.05-1.91,1.67-2.91,2.49-1.41,0-2.18,1.07-3.16,1.8l-1.75-1.17c-1.35-2.22,3.24-4.67-.27-6.8-1.9-1.91,1.59-3.71,0-6.3a12.86,12.86,0,0,0-2,6.3h0c-3.31,2.83,1.08,4.59,1,7a8.36,8.36,0,0,0-5,5.25c-1.12,3.56-3.24,6.52-5.13,9.63-1.72,1.2-1.33,3.3-1.91,5.17l3-2.28c4.21-5.05,10.78-8,13.05-14.79l6.08-2.93h0c6.62.89,8-.4,8.09-7.83,2.92-2,4.06-5,4.79-8.3,1.38-1,1.56-2.53,2-4,4.27-5.46,5.27-12.76,10.08-17.92h0c3.81-2.74,4.82-.59,4.81,3.11,4.58-4,4.51-4,5.55-9.52.23-1.22,1.18-2.32,1.79-3.48l4.89,2.71h0c1.22.64,2.17,2.42,3.89.93,1.71.44,3.41-1,5.12,0a1.72,1.72,0,0,0,1.95.29l3-1a1.38,1.38,0,0,0,2-1l1-1.06c4.94.46,2.92-3.83,4.06-6,1.54-.21,3.56.61,4-1.88,3.51-.46,0-2.91,1.14-4l.93-.94c2.57-1.34,2.94-3.63,2.7-6.19l.16-1.25a3.88,3.88,0,0,0,2.93-1l5.11,0a1.76,1.76,0,0,0,1.95.29l5-1.2,5-2.85c1.43,0,3,.2,3-2l.24-3.93,3.75-1.12c2.57,2.8,5.21,1.45,7.85.12a8.22,8.22,0,0,1,1.3,4.75c.72,1.39,2.23,1.62,3.42,2.44,1.29-2.7,1.42-4.63-2.34-4.43l-.09-2.78c1.62-2.72,5,.06,6.76-2.13,1.73-.09,2.67,1.32,4,2.07.39.87.77,1.75,1.17,2.62.82,1.83,2.36,3.91,4.1,2.52,1.52-1.21,1.22-3.87-1.11-5.22h0l2-1.93h0c1.36-2.56-3.45-3.06-2-4.88s.88-3.67,1-5.46c0-.23.07-.47.1-.71-.08-.85-1.46-1.74.06-2.56,1.07-.47,1.78.25,2.53.8l2.3,1.86,2,1.88c-1.39.52-3,.92-2.92,2.81a1.62,1.62,0,0,0,1.66,1.52c2-.07,2.13-1.66,2.2-3.19a.52.52,0,0,0,.05-.72h0c.87-.51,1.52.1,2.29.35,1.17.38,2.54,2,3.53.71,1.32-1.74-.88-2.42-1.8-3.43l2.05-1.82a4.67,4.67,0,0,0,.59-3.81c-.62-2.68,1.22-3.49,3.18-4.15s3.53-.22,4.19,2c.44,1.55,2.06,2.57,1.85,4.47-.1.94.68,1.49,1.67,1.22a1.41,1.41,0,0,0,1.09-1.88c-.6-1.89-1.85-3.56-2.48-5.33-.93-2.56.82-1.47,1.9-.79.77,1.4,2.19,1.84,3.87,2.89-.17-1.77-.8-2.47-1.91-2.83.1-.78.06-1.64,1-2,2.59.12,3.63-2.68,5.92-3.12h0c.88-3.21,2.22-6,6.16-6.05,3.61.44,6.91.48,6.05-4.75a18.93,18.93,0,0,0,6.89-2l2.07.79-.15.29C429.5,367.83,429.13,369.6,430.89,369.61ZM382.34,102.46l0,0,0,0Zm20.36-6.72h0Zm-55.37-25v.06a1.52,1.52,0,0,1-.48,0A1.94,1.94,0,0,0,347.33,70.75ZM194.44,159.16l0,.31h0l0,0h0l-.32-.15Zm57.1-27.8-.12.09,0-.09Zm-.12.09a.3.3,0,0,0,0,.08l-.06-.08Zm26.05,6.22Zm0,0h0Zm3.86-4.08v.21l-.12-.1A.47.47,0,0,0,281.33,133.59Zm-20.92-14-.06,0h0a1.11,1.11,0,0,0,.07-.16.81.81,0,0,0,0,.16Zm-96.68,132.7v0l-.17.09A.7.7,0,0,1,163.73,252.26Zm2.54-41.62h0v0Zm-.74-15.22.19.16-.19.09Zm259.79,105.1,0,0h0l.13-.13h0Zm11.89-54-.06-.1h.12ZM425.3,262.36l.12.08-.12-.05Zm-9.53-1.76.14-.15a1.8,1.8,0,0,0,.2.19A2,2,0,0,0,415.77,260.6Zm-2.22,36.07,0-.24.19.08Zm6.77-6.95h.05v0Zm9.07-7.44a.29.29,0,0,1,.1,0h0l0,.1Zm17-30.78.09-.06v.12h0Zm-9,51.92,0,0v0Z"/><path d="M358.26,15.17c.82.1,1-.6,1.21-1.27-.25-.48-.3-1.29-1.16-1.09a1.4,1.4,0,0,0-.77.94C357.4,14.35,357.45,15.07,358.26,15.17Z"/><path d="M243.68,2.51c.93.34,1-.5,1.06-1.1a1.26,1.26,0,0,0-1-1.39c-.86-.14-1.07.47-1.24,1.39C242.8,1.73,243.17,2.32,243.68,2.51Z"/><path d="M72.62,353.56c-.33.62-.14,1.24.64,1.69a3.83,3.83,0,0,0,1-.82,1,1,0,0,0-.59-1.54C73.42,352.8,72.81,353.23,72.62,353.56Z"/><path d="M453.24,361.8c-.75.12-.89.78-.79,1.44a1.21,1.21,0,0,0,1.27,1.12c.77-.22.87-.81.78-1.46S454,361.69,453.24,361.8Z"/><path d="M368.4,414.93c-.23-.29-.44-.86-.8-1-.85-.25-1.16.47-1.15,1.11,0,.4.35,1.08.64,1.13C367.84,416.35,368.21,415.76,368.4,414.93Z"/><path d="M465.31,407.76a1.21,1.21,0,0,0-.95,1.44c.05.53,0,1.43,1,1.19.73-.16,1-.74,1.05-1.48C466.27,408.36,466.26,407.58,465.31,407.76Z"/><path d="M224.3,126.63l.09,0a1,1,0,0,1-.09-.13Z"/><path d="M224.2,120.53c-.12-1.31-.11-2.66-1.45-3.89a4.2,4.2,0,0,0,.7,3.84h0c.17,2-.53,4.15.85,6,0-2-.07-4-.1-5.92Z"/><path d="M143.63,147.23c.46-.21.72-.84,1-1.16-.26-1-.69-1.52-1.35-1.18a2.12,2.12,0,0,0-.81,1.46A.81.81,0,0,0,143.63,147.23Z"/><path d="M132.83,140.74c.62,0,1.31-.24,1.29-1a1.44,1.44,0,0,0-1.49-1.49c-.71.08-1.25.39-1.29,1.13C131.29,140.36,131.92,140.79,132.83,140.74Z"/><path d="M421.16,156.88c.24.08.69-.51,1.26-1a7.11,7.11,0,0,0-1.67-1.13c-.77-.23-1.3.29-1,1A2.38,2.38,0,0,0,421.16,156.88Z"/><path d="M445.35,227.41c-.55.78.19,1.05.81,1.06a9.6,9.6,0,0,0,1.67-.3l.51-.81a4.11,4.11,0,0,0-1.38-.44C446.4,226.94,445.61,227,445.35,227.41Z"/><path d="M198.7,85.86a.81.81,0,0,0,1.21-.89c-.08-.55-.59-1-1.34-2.25-.38.8-.8,1.26-.74,1.63A2.33,2.33,0,0,0,198.7,85.86Z"/><path d="M322.85,434.39c-1.08,1.67-.26,2.68,1.13,3.55C324.82,436.36,324.41,435.22,322.85,434.39Z"/><path d="M4.06,307.51c-.94.18-1.68.44-1.36,1.19.16.4,1,.63,1.54.74s1.38-.11,1-1C5.05,308,4.37,307.75,4.06,307.51Z"/><path d="M51.21,310.06c.27.11.73-.27,1-.38.21-.9.07-1.55-.59-1.79-.25-.09-.87.3-1,.62A1.08,1.08,0,0,0,51.21,310.06Z"/><path d="M144.15,309.46c2,1.24,3.17,1.17,4.69.6C147.61,309.33,146.62,308.91,144.15,309.46Z"/><path d="M171.26,437.72c-.85-.07-1,.69-1,1.27a1.19,1.19,0,0,0,1,1.37,1.08,1.08,0,0,0,1.32-1A1.43,1.43,0,0,0,171.26,437.72Z"/><path d="M158.85,438.86c-.59-.37-1.15,0-1.41.68a1.21,1.21,0,0,0,.6,1.58c.64.35,1.17.05,1.51-1.06C159.42,439.82,159.27,439.13,158.85,438.86Z"/><path d="M417.63,443.45a1.05,1.05,0,0,0-1.3,1.07c0,.76-.16,1.78,1,1.67.48,0,.9-.72,1.07-.87C418.62,444.17,418.36,443.57,417.63,443.45Z"/><path d="M328.35,69.52c.71.65,1.42,1.32,2.08,0,1.42-1.07.84-2.31.07-3.33s-1.35,0-2,.43c-.94.13-2,.28-2,1.47S327.34,69.52,328.35,69.52Z"/><path d="M130.5,447.86l-1.05-1c-.3.31-.79.61-.83,1-.09.66.13,1.42,1,1.2C130,449,130.17,448.34,130.5,447.86Z"/><path d="M183.18,453.8c-1.34.27-.88,1.76-.37,2.92a9.05,9.05,0,0,0,.95-1.1C184.28,454.78,184.8,453.48,183.18,453.8Z"/><path d="M245.45,459.48l0,0s0,.05,0,.07Z"/><path d="M243.56,462.25c.11.3.86.69,1.08.57,1.49-.77.51-2.19.76-3.3C244.43,460.2,243,460.58,243.56,462.25Z"/><path d="M130.48,468.94a1.4,1.4,0,0,0-.88.92c-.14.65.1,1.35.94,1.26.36,0,.66-.51.91-.73C131.41,469.56,131.34,468.83,130.48,468.94Z"/><path d="M278.76,58.66c.41-.85.88-2.12-.81-1.54-.84.28-.64,1.65-.08,2.67A6.65,6.65,0,0,0,278.76,58.66Z"/><path d="M432.66,481.17c-.83-.27-1.23.34-1.27,1s-.12,1.74,1.09,1.67a1.27,1.27,0,0,0,1.22-1.25A1.3,1.3,0,0,0,432.66,481.17Z"/><path d="M484.59,92.78c-1.3-.63-2.13.35-3.1.81h0a7.29,7.29,0,0,0-5.06.89L469.92,96c2.23-.37,4.69,1.44,6.62-.43l4.89-1.14C482.69,94.33,484.39,95,484.59,92.78Z"/><path d="M243.64,47.74c-.19.64,0,1.36.85,1.33.4,0,.79-.38,1.23-.6-.6-.79-.86-1.14-1.12-1.5C244.26,47.23,243.73,47.42,243.64,47.74Z"/><path d="M211.76,504.24c.3-.09.59-.76.59-1.17s0-1.34-.87-1.25a1.26,1.26,0,0,0-1,1.48A1,1,0,0,0,211.76,504.24Z"/><path d="M116.58,344.55c-.62,0-1.39,0-1.24,1,.12.81.72,1,1.5.9.5-.19,1.36-.14,1.24-1.07S117.19,344.56,116.58,344.55Z"/><path d="M296.39,4.26c-.18-.42-.25-1-.57-1.22a.6.6,0,0,0-1,.5c0,.38.42.78.72,1.11C295.61,4.71,296,4.44,296.39,4.26Z"/><path d="M533,246.61c-.71-.12-1.31.31-1.07,1.11a1.47,1.47,0,0,0,1.06.78c.3,0,.66-.43,1.11-.76C533.63,247.25,533.35,246.68,533,246.61Z"/><path d="M315.92,86.2a1,1,0,0,0,.36,1.4c.89.38,1.09-.11,1.24-.54.22-.64.15-1.33-.54-1.56C316.73,85.41,316.12,85.85,315.92,86.2Z"/><path d="M422.9,215.72c.05.34.58.69,1,.88a3.61,3.61,0,0,0,1.21.12c0-1.07-.71-1.2-1.27-1.45S422.8,215.07,422.9,215.72Z"/><path d="M129.36,302.25a1.67,1.67,0,0,0-.84,1c-.05.28.42.93.67.93.73,0,1.08-.54,1.11-1.26C130.16,302.44,130,301.91,129.36,302.25Z"/><path d="M5.12,249.16c-.61-1.24-1.73.09-2.63,0h0c-1.31-1-2.75-.22-2.45.83.45,1.54,2.11,1.83,3.55.58C4.43,250.43,5.57,250.07,5.12,249.16Z"/><path d="M127,287.08l-1-.54c-.7.16-1.09.47-.74,1a1.44,1.44,0,0,0,1.14.55C126.62,288,126.81,287.42,127,287.08Z"/><path d="M314.65,436a1.3,1.3,0,0,0-1.21,1.66,1.21,1.21,0,0,0,1,.57c.71-.08,1-.64,1-1.56C315.23,436.54,314.9,436,314.65,436Z"/><path d="M133,175.89c-.24.07-.4.79-.4,1.21s.06,1,.94.72c.17-.24.62-.59.63-.95A.9.9,0,0,0,133,175.89Z"/><path d="M145.54,167.12c.57,0,1.32.15,1.6-.85-.28-.22-.57-.63-.94-.71-.64-.15-1.33,0-1.44.8C144.73,166.59,145.25,167.11,145.54,167.12Z"/><path d="M435.59,166.14a1.67,1.67,0,0,0,1-.8c.25-.62-.3-.74-1-.8-.23.19-.73.41-.84.75A.64.64,0,0,0,435.59,166.14Z"/><path d="M489.33,163c.39-.71,1.46-.35,1.18-1.45a1.18,1.18,0,0,0-1.43-.94c-.51.07-1.53-.22-1.12.88C488.15,162,488.75,162.37,489.33,163Z"/><path d="M526.32,193.35c-.69-.33-.84.32-.74.74s.52.66.84.92a5.12,5.12,0,0,0,.71-.63C526.87,194,526.68,193.52,526.32,193.35Z"/><path d="M83.55,441.48h0c2.12-3,4.71-5.64,4.68-9.81l-5.82,9.78-2.07,1.89a3.49,3.49,0,0,0-3,3l-3.89,7.19c-1.22.81-2.39,1.72-3.67,2.42s-1.8,1.7-1.12,2.78c1.08,1.71,1.94.05,2.64-.58,1.2-1.07,2.23-2.34,3.33-3.53h0c2-1,4.27-1.3,5.78-3.11,1.81-1.92,3.48-3.9,2.78-6.84h0C83.3,443.58,83.43,442.53,83.55,441.48Z"/><path d="M452.4,77.74c.65.39.89-.2.86-.64a1.48,1.48,0,0,0-.62-1.08c-.21-.11-.7.31-1.22.57C451.84,77.1,452.05,77.53,452.4,77.74Z"/><path d="M453.61,70.27c.32.11.78-.17,2.15-.56a7.51,7.51,0,0,0-1.85-.86c-.35,0-.73.32-1.1.5C453.07,69.67,453.28,70.16,453.61,70.27Z"/><path d="M323.45,427a.91.91,0,0,0-.94,1.24,3.79,3.79,0,0,0,.43.89c1.35-.18,1.61-.74,1.42-1.38A1.27,1.27,0,0,0,323.45,427Z"/><path d="M149.22,448.17a2.67,2.67,0,0,0-.77,1.55c0,.18.55.5.67.6,1.08-.16,1.32-.71,1.28-1.4S149.9,447.69,149.22,448.17Z"/><path d="M217.68,98.74c.36.06.79-.3,1.23-.5-.65-.83-.87-1.39-1.19-1.45-.8-.16-1.17.45-1,1.14A1.38,1.38,0,0,0,217.68,98.74Z"/><path d="M87.44,451.84c0,.44.08,1.17.36,1.3a.88.88,0,0,0,1.3-.86c0-.38-.41-.79-.56-1C87.66,450.84,87.47,451.41,87.44,451.84Z"/><path d="M323.24,64.14c.62.42,1.28,0,1.17-.78a3.13,3.13,0,0,0-.6-1.21c-1.1-.61-1.31.09-1.27.4A2.52,2.52,0,0,0,323.24,64.14Z"/><path d="M103.07,249.07c.35-.06.61-.66,1-1.12-.38-.35-.73-.92-1-.89a1.41,1.41,0,0,0-1,.89A.85.85,0,0,0,103.07,249.07Z"/><path d="M401.56,401.4l-1-2c-.11-1.25-1.46-2.07-.87-3.66.69-1.86-.12-2.89-2.26-2.25-1,.11-2,.38-2,1.58s1.06,1.34,2,1.28c1.19.32,1.12,1.19.89,2.11-1.47,3-1.67,5.24,2.78,4.78.87.06,2.17.93,2.45-.38S402.53,401.53,401.56,401.4Z"/><path d="M486,131.86c-.28-.08-.7.31-1.06.49.26.33.46.82.79.94s.76-.17,1.34-.33C486.58,132.46,486.33,132,486,131.86Z"/><path d="M154,271.76c.34-1.07-.77-1.11-1.55-1.19h0c-.9,0-2.14-.39-2.48.71s.8,1,1.54,1.09S153.66,272.9,154,271.76Z"/><path d="M326.88,466.13a1.3,1.3,0,0,0-1.05-.62,1.09,1.09,0,0,0-.76,1.48c.1.32.68.5,1,.69C327,467.37,327.14,466.76,326.88,466.13Z"/><path d="M247.53,469.36c.85-.1,1-.7.92-1.39-.07-.49-.4-1-1-.61a2.14,2.14,0,0,0-.8,1.11C246.5,469.09,247,469.27,247.53,469.36Z"/><path d="M254,93.38c.18.22.57.27.87.39l.65-2.21c1.24-.86,1.15-1.78.09-2.71a1.07,1.07,0,0,0-1.66.07c-.83,1,.49,1.67.53,2.55C253.49,91.91,253.32,92.57,254,93.38Z"/><path d="M333.39,508.37c-.35.58-.83,1.12-.73,1.26a6.59,6.59,0,0,0,1.31,1.14,3.44,3.44,0,0,0,.36-1.3C334.27,509.13,333.82,508.85,333.39,508.37Z"/><path d="M376.28,45.83c1.1.55,1.06-.64,1.31-1.28a11.59,11.59,0,0,0,1.73-6.14h0a8.28,8.28,0,0,0,1.18-4.83h0c1.47-1.95,1.13-3.82.25-6.33-1.75,2.08-1.13,3.72-1.2,5.27l-1.14,2.91h0c-2.21,2.27.22,5.71-2,8C375.38,44.17,374.81,45.1,376.28,45.83Z"/><path d="M300.15,31.05c.44.3.88,0,1.07-.72a3.49,3.49,0,0,0-.71-1c-.54-.4-.94,0-.93.54A1.69,1.69,0,0,0,300.15,31.05Z"/><path d="M309.21,35.92c.83.39,1.25-.6,1.12-1.51l1.2-4.76c-3.5-.61-1.36,2.54-2.29,3.64C308.32,34.17,307.9,35.29,309.21,35.92Z"/><path d="M288.5,61.12l.9-1-1.23-.93c-.21.35-.64.76-.57,1S288.18,60.83,288.5,61.12Z"/></g></g></svg>