<svg xmlns="http://www.w3.org/2000/svg" viewBox="0 0 293.09 245.06"><g id="Capa_2" data-name="Capa 2"><g id="Capa_6" data-name="Capa 6"><path d="M263,107.26c.67,2.58,2.58,2.87,4.79,2.55a1.52,1.52,0,0,0,1.42-1.06c.2-1-.76-1.17-1.35-1.63-1.51-1.18-3.39,1.32-4.79-.54a3.77,3.77,0,0,1-.11-.94,13,13,0,0,0-3-10.88c-1-1.2-1.33-2.61-3.3-2.46-1.39.11-2.58-1-4.11-.81-1.32.14-1.35-.12-.3-2.17,1.22-.16,2.6.18,3.82-1.28l-3.8.55-1.77-2c1.76-1.65,3.5-3.12,6.26-2.19,1.63.55,3-.59,5.49-1.3-3.81-.73-6.35-.48-8.8.89-1.54.86-3.18,2.44-4.85.12-.62-2.62.75-4.69,2.43-6.93-2.09-.25-3.65-.41-5.2-.63-5-.72-6.7-3.69-4.61-8.25.43-1,1.29-1.9,0-2.87-3.64,1.84-4,2.07-4.56,1.23-1-1.4-2.23-1.56-3.66-1.74-1.68-.22-1.84-1.47-1.65-2.85.25-.57.84-1.22.72-1.69-1-3.81.68-6.75,2.92-9.55.12-.15-.09-.56-.28-1.5-3.08,3.06-2.51,7.33-4.63,10.28-2.48,3.42-3,3.54-6.52,1.89a15.48,15.48,0,0,1-4-3.32c-.85-.81-1.41-2.2-3.25-1.82-.92,1.87-1,4.56-4.38,4.47s-2.16-4.68-5.23-4.69a2.1,2.1,0,0,0-.28,2.27c1.22,2.58.11,4.24-2,5.58-.94.6-1.83,1.28-2.8,1.82-4.71,2.56-4.71,2.54-7.54-1.15,1.11,8.31-6.24,10-13.57,6-.84,1.32.9,1.88.86,3,0,.78.17,1.71-.73,2-2.94,1.1-6-.07-9,.16-2.21.17-1.46-2.52-2.65-3.49-.33-.26-.51-.38-.9.07,0,.65.07,1.42.11,2.19.31.28.59.7.23,1s-.59-.15-.71-.49c-1.06,0-2.51.57-2.89-.86a3.39,3.39,0,0,1,1.32-4.06,11.26,11.26,0,0,0,2.32-1.5,1.88,1.88,0,0,0,.18-1.8c-1.09-1.4-.81.49-1.32.68-2.4.88-3.08.57-4.2-2.17,1.18-1.64.78-3.59,1.27-5.37-1.44,1.52-1.56,3.45-2.08,5.26-.54,1.07-.61,3.39-2.51,1-.19-2.74.89-5.37,1.05-8.85a8.25,8.25,0,0,0-1.59,5.12c-.1,1.46-.23,2.91-1.87,3.55-.2-.42-.38-1.19-.61-1.21-3.21-.23-3.72-1.28-1.14-3.41a1.89,1.89,0,0,0,.54-.77A3,3,0,0,0,155.8,58c-.59-.93-1.43-.24-2.12-.06a1.79,1.79,0,0,0-1.28,2.25c.12.77.74,1.52.68,2.24-.08,1,.35,3.27-2,1.46-.32-.25-1.09-.4-1.32-.21-1.82,1.53-2.35.51-3.38-1.1-1.57-2.47-3.49-2.26-5.31.15-.79,1.06-1,3.3-2.89,2.34-1.45-.76-2.63.46-4-.31-2.91-1.61-3-1.45-3.57,1.82-.68,4-.68,4-5.11,4a3,3,0,0,0-1.8.36c-2.31,2.2-4-.22-4.22-1.35-.48-2.14-1.56-2.38-3.25-2.53-2.61-.24-4.62-1.32-4.9-4.28-.11-1.08-.49-1.93-1.7-1.86-2.1.12-2.12-1.16-2.16-2.73-.07-2.76-1.26-4.37-4.38-4.48a5.9,5.9,0,0,1-4.72-2.91c-.56-.87-.08-3.2-2-2.39-1.54.65,1.37,2.1-.25,3.5-2.23-.79-4.72-2.15-7.33-1.26-2.16.73-4,1.38-4.84-1.56a1.37,1.37,0,0,0-1.16-.65c-2.8.84-6.3-1.71-8.58,1.75a2,2,0,0,1-1.27.64c-2.07.33-2.6,1.47-2.06,3.41.31,1.14,1.26,2.7-.45,3.31-1.38.5-3.12.56-4.05-1.15A2.29,2.29,0,0,0,64,55.05c-2.53,0-4.83,2.45-7.54.75a1.26,1.26,0,0,0-.61.61c-.43,1.71-1.74,2-3.21,2.36-1.9.5-7.14,7.23-6.52,8.61,1,2.15.16,3.53-1,5s-1.34,2.78.41,4.32c2.14,1.88,5.36,3.07,5.34,6.77,0,.64.8.3,1.08,0,1.22-1.07,2-.56,2.57.66.45.89,1.24,1.94,2.17,1.24,1.75-1.34,2.4.42,3.58.73,1.8.47,3.26,1.42,3.33,2.91.1,2-2.72,2.43-3.53,2.34-3.31-.33-2.51,1.85-2.46,3.41a20.06,20.06,0,0,0,.86,4.21c1.22,4.81,4.52,6.55,9.43,4.93.8-.26,1.53-.56,2.16.16a2,2,0,0,1,.45,2.6,9,9,0,0,1-1.36,1.33h0c-1.14.56-2.3,1.13-2.2,2.68a.81.81,0,0,0,1,.75c1.52-.13,2-1.21,2.4-2.47.15.39,1.67-1.1.86.62C70.08,112,67,113.49,67,116.13c-.08,3-1.41,2.38-3.23,2.09-1.25-.2-2.58-.07-3.53-1.06-1.56-1.62-3.56-1.66-5.56-1.78.24.72-.3,1.11-.65,1.59-.85,1.17-1.88,2.4-1.13,3.91.9,1.82,2.41.52,3.72.58A16.51,16.51,0,0,1,65,124.22c1.71,1.15-.3,3.39.27,4.88.66,1.68-.41,2-1.28,2.47-3.17,1.81-6.42,3.5-9.42,5.62a7.47,7.47,0,0,1-3.11,1.13,34.55,34.55,0,0,0-8.61,2.79,11.07,11.07,0,0,1-5.48,1.19c-2.59-.18-4.89,1.59-4.41,3.85.69,3.25-1,5.37-2.72,8,2.86-.18,5.85-.64,6.44-2.42.74-2.21,2.24-2,3.49-2.8,1.7-1.13,3.89-.51,5.35-1.66,3-2.34,6.18-3.87,9.58-3.89,1.4,0,2.12.15,2-2-.19-3,2.41-4.7,4.9-5.6s4.72.17,6.6,1.8a1.78,1.78,0,0,1,.44,2.56C67.45,142,67,145,63.85,145.22a1.81,1.81,0,0,0-1.73,1.43c-.12.87.66,1.27,1.35,1.74,3.07,2.08,3,2.81-.21,4.59-.55.31-1.08.65-1.62,1a3.12,3.12,0,0,0,.52.85,7.65,7.65,0,0,1,2.91,5.3c.33,2.2-1.88,2.27-2.85,3.39-1.69,1.94-1.14,3.08.47,5.35,1.28,1.79,3,1.26,4.4,2.07.15,2.16.82,4.24-1.25,6.17-1.46,1.35-.89,2.12,1.43,2.5,2.72.44,6.66,3.6,6.26,6-.6,3.6,1.75,2.88,4,2.94l-2.08,3.11c2,.82,3.3,3,6.26,2,3.84-1.25,4.86-.41,6.14,3.63.52,1.62,1.13,2.23,2.65,1.34.88-.51,1.45-1.88,2.8-.82s.82,2.32.52,3.52c-.43,1.69-1.1,3.33-1.51,5s-1.26,3.17-.62,5.18c2.19-.55,2.89-2.11,3.51-3.74s1.22-3.28,1.8-4.94,1.66-2.69,3.62-1.94c.24.4.49.78.72,1.18,1.25,2.15,2.14,2.23,3.25.13.49-.93.59-2.06,1.63-2.63a2.17,2.17,0,0,1,.86,1.61c.06.94.07,2.06,1.25,2.27s1.34-1.11,1.9-1.78c2.2-2.63,2.24-2.72,5.24-.85,1.62,1,2.22.52,2.65-1.11s1.15-2.57,2.87-.86,2.46.77,3.08-1.29c1-3.22,2.09-3.69,5.17-2.19,1.54.75,2.35.49,3.15-.73,1.52-2.32,2.76-1.44,3.93.31.71,1,1.4,2.12,2.1,3.18.28-.77.56-1.53.85-2.3l-.33-2.76c1.52-2,1.3-4.58,2.52-6.66a5.26,5.26,0,0,1,1.65-4.6c2.6-.38,3.25-2.86,4.58-4.48,3.27-4,6.72-7.63,11.61-9.64a2.37,2.37,0,0,1,2.21-.2,5.41,5.41,0,0,1,3.16,6.79c-.26.86-1.05,1.78.19,2.47a1.9,1.9,0,0,0,2.19-.46c.83-.67,1.55-2,2.81-1.19,1.51.93,1.17,2.44.71,3.86a10.88,10.88,0,0,0-.46,1.36,1.45,1.45,0,0,0,.74,1.59c.55.38.88-.06,1.25-.27,1.35-.76,2.37-2.35,4.22-1.84,2.31.65,4.74,1.34,6.39,3.1,1.37,1.45.15,3.33-.2,5-.06.32-.11.63-.14,1-.08.67,0,1.28.75,1.55a1.62,1.62,0,0,0,1.75-.46,7.59,7.59,0,0,0,1-1.6c2.3-4,3.38-4.54,7.55-3.91,2.9.44,3.35,1,3.33,4.05,0,2.21-.54,4.49.85,6.52.06,3.49.11,7,.2,10.47a6.83,6.83,0,0,0,1.31,4.67V195c.08-2.71,1.68-5.17,1.3-8a2.12,2.12,0,0,1,1.5-2.21c1.11-.52,1.76.14,2.26,1.08,1.28,2.4,3.6,2.84,6,3.11.24.88.39,1.83,1.44,2.18l.51-2.2c.71-.84,1.89-1.6,1.67-2.75-.74-3.81,2.49-5.18,4.39-7.28a2.66,2.66,0,0,1,4.15,0c1.25,1.38,1.82,4.36,4.42,1.31.31-.37,1,.49,1.36.92,3.93,4.16,4.08,4.17,8.16.34.46-.43,1-.83,1.44-1.24,1.26-.2,2,.91,3,1.25.07-1.32,1.92-2.65,0-4a13.26,13.26,0,0,1,.39-4.25c.83-4.67,1.43-9.35-2.28-13.74,2.44.29,4.3.53,6.16.73.61.06,1.32.17,1.57-.61.33-1-.44-1.49-1.17-1.74-1.8-.63-3.68-1.06-5.46-1.72-1.45-.55-2.44-1.64-2.1-3.32.24-1.2-.37-2.57,1.75-3.31,2.61-.92,2.5-2.06.43-4.15-2.66-2.69-2.67-3.54,0-6.08.23-.22.53-.36.77-.56,1.6-1.3,1.36-2.68-.4-3.23-3.07-.95-3.6-2.78-2.62-5.49.8-2.21.44-4-1.72-5.31a4.14,4.14,0,0,1-1.43-1.85c-.33-.73.63-1.48.88-1.27,2.44,2.07,5.49-1.15,8.33,2.2-1.26-3.48-3.64-4.42-5.13-6.56,3.43.37,4.65-1.47,5.17-4.12.19-1,.71-2,1.85-1.66s.06,1.26,0,1.91c-.08,3.27,1.35,5.37,4.17,6.08,2.53.64,6.37-.52,6.75-2.9C257.33,112.35,259.9,109.74,263,107.26Z"/><path d="M54.6,115.38h0a0,0,0,0,1,0,0Z"/><path d="M33.44,115.38c.16.12,1-.3,1.11-.62.26-.64,0-1.16-.82-1.33s-1.57.56-2.23-.68A10.55,10.55,0,0,0,34,104.82c-.31-2.82-.5-5.9-3.23-7.6-7.61-4.76-18.58-.7-19.41,9-.58,6.78,1.76,10,8.22,11.73,1.87-1.45,3.94,1.64,6.14-.58C27.61,115.46,30.11,113.05,33.44,115.38Z"/><path d="M286.35,119a7.43,7.43,0,0,1-2.9-3.4c-1.5-3.13-4.36-4-7.05-2.52s-3.26,4.58-1.28,7.34a17.2,17.2,0,0,1,2.84,5.42c.75,2.77,2.89,3,4.57,3.49,3.15,0,4.88-1.34,5.74-4C289,123.11,288.35,120.29,286.35,119Z"/><path d="M269.86,136.2a6.06,6.06,0,0,0-6.2-6.35c-3.44,0-5.81,2.58-5.9,6.43-.08,3.49,2.8,6.61,6.08,6.58S269.81,139.9,269.86,136.2Z"/><path d="M144.28,53c2.37-2.06,1.05,1.36,2.62,1.35a9.84,9.84,0,0,1,3.42-5.45,2.93,2.93,0,0,0,1.1-2c.17-2.52-3.19-5.64-6.09-5.63a5.11,5.11,0,0,0-5.26,5.52c0,2.77,3.3,3.74,3.31,6.44C143.68,53.14,144.08,53.19,144.28,53Z"/><path d="M288.77,100.84a4.59,4.59,0,0,0-4.77,4.37c-.19,2.52,1.57,4.39,4.4,4.67A4.12,4.12,0,0,0,293,106.1,4.49,4.49,0,0,0,288.77,100.84Z"/><path d="M112.31,58.05c1,1.21,2.41,2.59,4.38,2.46a3.58,3.58,0,0,0,3.24-4,3.46,3.46,0,0,0-2.43-3.68c-1.81-.69-3.15.48-4.08,1.51S111.84,57.48,112.31,58.05Z"/><path d="M168.31,200.11c-1.39-.72-2.53.71-2.24,2.53.39,2.38,4,5.58,6.36,5.61a1.83,1.83,0,0,0,2-1.59,6.89,6.89,0,0,0-.4-1.34A12.17,12.17,0,0,0,168.31,200.11Z"/><path d="M175.57,37.58c0-.75-.58-1.56.16-2.23a12.69,12.69,0,0,0,1.79-1.52c.67-.91,1.26-2.14,0-2.92-1.07-.68-2.13-.12-2.83,1-.4.62-.19,1.66-1.24,1.81-2.49-.65-1.66-4.78-6-4.9,2.82,2.58,3.61,5.4,5.52,7.51C173.59,37,174.12,38.36,175.57,37.58Z"/><path d="M175.59,37.57h0Z"/><path d="M47,116.59c-1.42,0-3.23,2.1-2.94,3.66a2.94,2.94,0,0,0,3.32,2.65c1.76-.11,3-.92,3-2.78A4.32,4.32,0,0,0,47,116.59Z"/><path d="M240.84,183c-1,1.89-.67,3.42,1.24,4.43a2.84,2.84,0,0,0,3.15-.44c1.78-1.41.9-3.38.47-4.88-.65-2.3-2.32-.27-3.53-.33-.45,0-.9-.08-1.34-.12C240.86,182.15,241,182.67,240.84,183Z"/><path d="M240.75,181.68h.08s0-.05,0-.07l0,0,0,0-.07,0v.09Z"/><path d="M44.42,137.6a37.78,37.78,0,0,1-1-4.19c-.08-.93,1.31-2-.39-2.76a4,4,0,0,0-3.63-.18c-1.47.75-1.87,1.87-.69,3A66.63,66.63,0,0,0,44.42,137.6Z"/><path d="M286.63,137.3c-.19-.81-1-1.19-1.86-1.36-.92.23-2,.63-1.87,1.72a22.61,22.61,0,0,0,1.61,5.33c.29.65,1.39.65,2.17.24s1.4-1.28,1-1.92C286.8,140,286.94,138.64,286.63,137.3Z"/><path d="M4.11,103.19c-2.14,0-4.08,1-4.11,2s2.41,2.5,4.23,2.41c1.44-.07,3.2-.32,3.2-2.08C7.44,103.5,5.48,103.43,4.11,103.19Z"/><path d="M178.05,58.79c-1.45.06-1.76,1.12-1.67,2.37,0,2.66,1.05,4.27,2.77,4.34s2.12-1.08,2.07-2.52C181.15,60.87,179.61,58.74,178.05,58.79Z"/><path d="M192.38,61.26l-2.41-5c.24-1.17,2.31-1,2.12-2.88-1.57-.65-3-.56-3.75,1.26C187.43,56.73,188.64,58.81,192.38,61.26Z"/><path d="M151.37,227.82c-.47,3.05-.16,5.16,1.26,7,.37.49.85,1,1.55.79s.88-.86.77-1.55A9,9,0,0,0,151.37,227.82Z"/><path d="M270.28,143c-1.4-.08-2.55.4-2.72,2a2.3,2.3,0,0,0,2.37,2.86c1.45.07,2.35-.76,2.6-2.55C272.28,144.31,271.85,143.12,270.28,143Z"/><path d="M129.61,5.07c1.17-.09,1.61-.89,1.73-1.94a3,3,0,0,0-3-3.12A1.48,1.48,0,0,0,127,1.61C126.92,3.2,128.42,5.15,129.61,5.07Z"/><path d="M164,218.27a1.1,1.1,0,0,0-1.37.95c-.27,1.46,1.39,3.58,3,3.83.58-.07,1.16-.19,1.28-1A3.56,3.56,0,0,0,164,218.27Z"/><path d="M175.59,37.57l0,0,0,0A.14.14,0,0,0,175.59,37.57Z"/><path d="M181.17,45.76c-.93-3.33-3.33-5.67-5.56-8.12A12.18,12.18,0,0,0,181.17,45.76Z"/><path d="M193.33,44.54c.44-1.88,3.51-.88,3.53-3.77-1.66-.22-3.22-.3-4.43,1.34-.88,1.18.54,1.59.84,2.38A.15.15,0,0,0,193.33,44.54Z"/><path d="M228.6,221.55c-.29-.11-.59-.16-.91-.25a1,1,0,0,0-1.06,1.21c.13,1.34,2.51,3.2,3.79,3,.26,0,.68-.3.7-.49C231.26,223.19,230.23,222.14,228.6,221.55Z"/><path d="M90.69,37.7c1.72-.2,2.26-1.5,2.41-2.9,0-1.19-.29-2.15-1.56-2-1.73.22-2.21,1.61-2.4,3.09C89,37,89.49,37.84,90.69,37.7Z"/><path d="M54,114.56a1,1,0,0,0,.57.82l0,0A1.27,1.27,0,0,0,54,114.56Z"/><path d="M52.58,112.06c-1,0-1.93,0-2.11,1.2-.15.93.55,1.23,1.41,1.4.67.13,1.52-.4,2.15-.1C53.86,113.56,54.38,112.13,52.58,112.06Z"/><path d="M44.59,159.31c.75-1.66,1.24-3.31,0-5.22C43.25,156.09,44.4,157.68,44.59,159.31Z"/><path d="M158.08,13.72c-2.61,1.92-1.38,4.4-1.79,5.68A6.44,6.44,0,0,0,158.08,13.72Z"/><path d="M281,80c.15-.19,0-.6,0-.9-1.37.75-3.12.36-4.37,1.44a8.24,8.24,0,0,0-.86,1.25C278,81.69,279.73,81.61,281,80Z"/><path d="M244.41,133.11a1.67,1.67,0,0,0,.51,3.3,1.8,1.8,0,0,0,1.65-2A1.73,1.73,0,0,0,244.41,133.11Z"/><path d="M20.28,84.59a1.67,1.67,0,0,0,1.63-1.84c-.07-1.08-1-1.06-1.8-1-1,0-2.17.15-2.1,1.38C18.08,84.09,19.08,84.59,20.28,84.59Z"/><path d="M160.89,173.54c-.15-.79-.29-1.64-1.35-1.49s-1.36,1.14-1.32,2.1c0,.79.25,1.66,1.3,1.49S160.78,174.46,160.89,173.54Z"/><path d="M181.18,202.51c-.82-.1-1.66.05-1.7,1a1.87,1.87,0,0,0,2,2c.87,0,1.35-.58,1.57-1.41C183,203,182.17,202.63,181.18,202.51Z"/><path d="M145.07,218.92c-.4-.55-1-.95-1.6-.64s-.6,1.05-.51,1.69c.22,1.66,1.48,2.32,2.82,2.89A4.55,4.55,0,0,0,145.07,218.92Z"/><path d="M159.3,245.06c1.91-1.27,3.2-2.19,3.22-4.13C161,241.73,159.63,242.62,159.3,245.06Z"/><path d="M44.12,25.21c-.37-2.1-.78-3.47-2.67-3.74-.15,0-.52.42-.51.62C41.06,23.67,42,24.59,44.12,25.21Z"/><path d="M231.35,185.86a1.41,1.41,0,0,0-1.26,1.66,1.14,1.14,0,0,0,1.29,1c.87,0,1.56-.4,1.49-1.35A1.45,1.45,0,0,0,231.35,185.86Z"/><path d="M267.21,122.4c1.51,1.72,3.61,1,5.31,1.6h0C271.18,122.08,269.3,122.06,267.21,122.4Z"/><path d="M141.68,56.56c-.42.07-1.15-.06-.9.63a2.2,2.2,0,0,0,1.69,1.46c.51.09.92-.1.94,0C143,57.08,142.73,56.39,141.68,56.56Z"/><path d="M69.23,201.69c-1.85.36-2.57,1.5-2,4,1.57-1.13,3.28-1.49,2.77-3.61C69.93,201.9,69.45,201.65,69.23,201.69Z"/><path d="M19,88.91c.21,0,.6-.47.55-.6-.47-1.31-1.45-1.78-3.25-1.51A2.3,2.3,0,0,0,19,88.91Z"/><path d="M126.71,54.3c-.81-1.92-1.57-3.24-3.21-3.89A6.28,6.28,0,0,0,126.71,54.3Z"/><path d="M66.25,44.75a.66.66,0,0,0,.93-.66c0-1.13-.91-1.51-1.76-1.74-.58,0-1.09.11-1.07.64C64.38,44.15,65.41,44.41,66.25,44.75Z"/><path d="M156.83,37c-.27.07-.48.74-.54,1.17a3.26,3.26,0,0,0,.29,1.13l1.1-1.2C157.54,37.45,157.34,36.88,156.83,37Z"/><path d="M170.53,214.68c-.92,0-1.24.76-1.13,1.61a1,1,0,0,0,1.2,1c.81-.16,1.16-.6,1.07-1.32A1.28,1.28,0,0,0,170.53,214.68Z"/><path d="M265.11,101.75a1.25,1.25,0,0,0,1.74,1.07,1.07,1.07,0,0,0,.7-1.5,1.18,1.18,0,0,0-1.39-.94C265.53,100.62,265,101.07,265.11,101.75Z"/><path d="M167.12,190c0-.47-.07-1-.51-1.08-1-.11-1.22.71-1.41,1.43-.11.42,0,1,.46,1.07C166.56,191.49,166.94,190.8,167.12,190Z"/><path d="M87,42.4c.74-.07,1-.66,1-1.34s-.51-1.16-1.22-1a1.26,1.26,0,0,0-1,1.35A1,1,0,0,0,87,42.4Z"/><path d="M29.94,58.21c.61.21.84-.28.82-.76a1.15,1.15,0,0,0-1.05-1.25c-.57-.07-.79.34-.94.8C28.81,57.74,29.38,58,29.94,58.21Z"/><path d="M100.28,43c-.28-1.55-1.09-2.27-3.57-2.41C98.13,41.8,98.56,43.16,100.28,43Z"/><path d="M98.88,29.9c-.25-2.08-1-2.95-2.57-3.55A4.34,4.34,0,0,0,98.88,29.9Z"/><path d="M150.55,28.61a1.41,1.41,0,0,0,1.3-1.54c-.14-.44-.28-.95-.86-.85a1.4,1.4,0,0,0-1.24,1.59C149.78,28.23,149.89,28.76,150.55,28.61Z"/><path d="M145.81,223c0,1.31-.42,2.79,1.45,3.31C147.44,223.79,147.44,223.77,145.81,223Z"/><path d="M145.81,222.87h0s0,0,0,.08l.05,0v-.09Z"/><path d="M258.92,66.76c-1.84-.12-2.68.91-3.93,2.48C257.06,69.07,258.13,68.41,258.92,66.76Z"/><path d="M42.61,177.39c-.36.33-1,.66-.48,1.32v0s0,0,.06,0h0l0-.07a5.5,5.5,0,0,0,1.16-.59c.32-.27.79-.89.7-1C43.44,176.34,43,177.05,42.61,177.39Z"/><path d="M68.28,52a.47.47,0,0,0-.44.07c-1.59,1.49.47,2.39.71,3.62C68.82,54.46,69.89,53.08,68.28,52Z"/><path d="M74.58,31.33c-.3-1.25-1.06-1.65-2.43-1.69C72.78,30.59,73.16,31.47,74.58,31.33Z"/><path d="M129.49,59.58A3.33,3.33,0,0,0,126.33,58C127.3,59.27,128.18,59.91,129.49,59.58Z"/><path d="M129.59,59.56l-.1,0,0,0Z"/><path d="M185.1,53.89c.35-1.78-.47-2.59-2.38-2.82A4.7,4.7,0,0,0,185.1,53.89Z"/><path d="M61.67,33.9c-.55,1.41.36,2.15,1.43,3.7C63,35.68,62.65,34.72,61.67,33.9Z"/><path d="M51.11,110.6c.51-.2,1.28-.18,1.09-1.07a1,1,0,0,0-.88-.87c-.65-.06-1.21.08-1.33.82S50.53,110.41,51.11,110.6Z"/><path d="M153.8,201.08c-.14,1.15-.11,2,1,2.47C154.37,202.83,155,201.76,153.8,201.08Z"/><path d="M154.8,203.55s0,0,0,.07l0,.07a.24.24,0,0,1,.06-.08Z"/><path d="M39.58,117.46c.51,0,.72-.45.73-1s-.27-1.21-1.13-1.06c-.47.09-.87.34-.81.92A1.17,1.17,0,0,0,39.58,117.46Z"/><path d="M264,82.62c.58.07,1.19.1,1.51-.57-.13-.26-.19-.66-.39-.74a1.43,1.43,0,0,0-1.6.53C263,82.36,263.55,82.58,264,82.62Z"/><path d="M113.72,203.2a.91.91,0,0,0-.44,1.13c.12.37.41.44.78.27s.73-.55.44-1C114.37,203.38,114,203.32,113.72,203.2Z"/><path d="M154.91,207.17a3,3,0,0,0,0-3.48C154,204.82,154.32,206,154.91,207.17Z"/><path d="M111.92,33.76c.42,0,.87-.08.88-.67s-.42-.82-.91-.74a.77.77,0,0,0-.59,1A.81.81,0,0,0,111.92,33.76Z"/><path d="M40.92,178.86c-.41.27-.83.74-.55,1.11.67.86,1-.17,1.35-.45.21-.15.28-.5.4-.77A1,1,0,0,0,40.92,178.86Z"/><path d="M274.66,162.62c-.25,0-.74.09-.77.22a.64.64,0,0,0,.71.81c.2,0,.37-.32.56-.5C275,163,274.84,162.65,274.66,162.62Z"/><path d="M64.8,140.17c0-.39-.27-.52-.62-.35a.65.65,0,0,0-.28.33c-.13.35,0,.64.37.58S64.62,140.37,64.8,140.17Z"/><path d="M280.52,86.07c0,.09.52.23.73.16a.91.91,0,0,0,.45-.6c0-.09-.3-.28-.46-.41C280.82,85.36,280.48,85.61,280.52,86.07Z"/><path d="M139.86,200.94c.43,1.47.81,3,1.33,4.42.25.7.69,1.48,1.63,1.44a1.84,1.84,0,0,0,1.84-1.79,8,8,0,0,0-.5-2.24c.79-4-.56-5.92-4.87-6.9-.29.77-.57,1.53-.85,2.3.25.52.49,1,.74,1.55A1.22,1.22,0,0,0,139.86,200.94Z"/><path d="M50.46,84.82a3.15,3.15,0,0,0-.59.28c.1.11.22.31.28.3a2.66,2.66,0,0,0,.59-.28C50.65,85,50.53,84.81,50.46,84.82Z"/><path d="M129.59,59.56l-.07.06.07.11Z"/><path d="M129.81,60.09l-.22-.36a.58.58,0,0,0,0,.19C129.64,60,129.74,60,129.81,60.09Z"/><path d="M185.63,54.28l-.37-.2a1.09,1.09,0,0,0,.13.17S185.55,54.27,185.63,54.28Z"/><path d="M185.26,54.08a.91.91,0,0,0-.11-.16l0,0,0,0-.05,0a.25.25,0,0,1,0,.09Z"/></g></g></svg>