<svg xmlns="http://www.w3.org/2000/svg" viewBox="0 0 825.14 165.5"><g id="Capa_2" data-name="Capa 2"><g id="Capa_1-2" data-name="Capa 1"><path fill="#fff" d="M771.14,141.93c7-.17,14,.72,21,.64,6.61-.08,13.4,1.2,20.72-.94-3.31-2.1-5.46-3.82-7.89-4.9a15,15,0,0,0-6.63-1.45c-12.08.72-24.14,2.05-36.23,2.5-9.38.35-18.79-.28-28.19-.48v-1.36l26.86-3.47a12.85,12.85,0,0,0-3.53-.73c-1.11-.14-2.22-.33-3.32-.5,18.25-2.89,36.84-.39,55.57-4.63-1.3-1.14-2-2.32-2.74-2.3-6.1.14-12.2.51-18.3.81.08.83.15,1.66.21,2.26L744,125.64l0-.5,26.1-2.49c0-.47,0-.94,0-1.42l-34.74-2a8.61,8.61,0,0,1,1.88-.8q24.4-1.47,48.82-2.89c5.84-.35,11.85-.36,14.3-7.4.33-1,1.37-1.65,2.35-2.78l-8.28-4.44-.05-2.07,30.73-8.91c-4.71-1.59-8.86-3.17-13.11-4.39-4.65-1.33-6.18-3.87-4.28-9.06-6.06.44-11.8,1.26-17.52,1.16s-13-4.63-14.61-8.8c12.59-.58,25.09,4.32,38.31,0L807.26,64l5-.67c0-.45,0-.9.07-1.35l-20.42-2.84L792.5,61c-.94.87-1.76,2.29-2.84,2.53-3.84.88-7.77,1.4-11.68,1.93-.63.08-1.34-.47-2.62-1l15.7-7c-2.51-2.54-6.83-4.89-7.33-7.88-.78-4.62-3-3.07-5.45-3.19-4.38-.22-8.74-.83-13.11-1.27l.06-1.35,15.58-4.58-8.5-3.48,4-1.22-.08-1.08h-25l-.06-1.24L756.85,31l-.08-1H743.66c0-.32,0-.64,0-1l9.56-1.77c-3.48-.16-7.09-.34-10.27.74-2.84,1-5.2,3.32-7.69,5l8.67.42C738.1,35,732.55,36.1,727,37.09c-1.43.25-3.64.77-4.25.07-2.5-2.84-5.4-1.4-8.19-1.37h-6.86L711.41,34c-5.62-2.08-6.57-1.79-6.6,2.09l-13.23.66c0-.35-.06-.7-.08-1L700.29,34l-.06-1.57H678.67l.06-1.35c7.87-2,16.5,1.78,25-2.92L683.05,30l2-2.2a29.66,29.66,0,0,0-3.91-.85c-5-.42-9.9-.95-14.86-1-8.33-.14-16.67.24-25,0-5.4-.18-10.77-1.49-16.17-1.7-7.92-.31-15.86-.08-23.8-.08l.75-2.23c-1.23-1-2.39-2.76-3.69-2.86A85,85,0,0,0,586.3,19c-7.79.46-15.55,1.38-23.34,1.6-10.42.31-20.84,0-31.26.19-7.55.12-15.1.4-22.63.88-2.89.18-6,2.09-8.56,1.5-6.87-1.55-13.74-1.23-20.62-1.26-1.67,0-4.21,1.69-4.88,1.06-3.61-3.45-6.28-.82-9.55.46-2.17.84-4.94.16-8.39.16L459,22.5c-9.54.43-19.61.91-29.68,1.3-8.74.35-17.48.62-26.22.88-7.5.23-15,.48-22.52.54-8.22.07-16.47-.35-24.69-.07-11.16.38-22.3,1.47-33.47,1.78-10.31.28-20.64,0-31-.17-3.08,0-6.15-.29-9.57-.46-.87.32-2.3,1.35-3.71,1.31-9.08-.21-18.16-.65-27.83-1,.7-1,1-1.89,1.38-1.92,14.46-1,28.93-1.92,43.39-2.86l.05-.2h-28l-.06-1,29-3.8c-6.27-2.59-13.28,2.71-19.28-3.15l15.61-3c-.09-.63-.17-1.26-.26-1.88L280,9.48,280,9l2.82-.77c-1.26-.6-2.13-1.28-2.39-1.1C278.3,8.7,274,5.6,273.16,10.45c0,.21-3.35.05-5.09-.24-5.81-1-11.56-2.54-17.4-2.87-3.33-.19-6.76,2.16-10.19,2.29-2.77.11-5.77,1.51-8.79-1.54-1.61-1.62-6.08-.72-9.21-.46-6.55.55-13.06-2.44-19.62-.07a11.8,11.8,0,0,1-4.88,1c-2.26-.22-4.43-1.53-6.68-1.66-9.13-.51-18.28-.73-27.43-1.1-4.58-.19-9.16-.6-13.74-.66-5.13-.06-10.27.29-15.4.24-5.85,0-11.73-.77-17.56-.44C98.24,6,79.33,7.47,60.42,8.77A14.16,14.16,0,0,0,59,9.06l4.09,1.53-9.53,2.65c0,.32.11.65.17,1l3.46,1,0,.67-9.4.64.12,1.91H74V20.2l-10.42.69,7.33,2.61L55.15,25.76l5.49,1.83-5.8,3.32h8.4c-1.58,1.44-3.28,1.74-4.94,2.18a24,24,0,0,0-2.74,1.13c2.62,4.68-2.68,3.42-3.66,3.82-7,2.88-14.23,5.07-21.38,7.51-.28.09-.47.43-.61.57.48,1.39.93,2.72,1.38,4.05l-1.35-.65c-2.55,2.76-6.43,5.15-7.36,8.38-1.76,6.16-5.19,9.64-11,11.4a21.22,21.22,0,0,0-2.8,1.52c10.8,5.72,21,10.72,33,10.76l-.19,1.52L31.11,86.29,41,90.22l-.62,1.68L99.16,97,99,98l-27.13,3.09L72,102l16.39,1.16c.05.64.11,1.28.16,1.92-3.29.91-6.54,2.31-9.89,2.66C57.3,110,35.92,112,14.56,114.05l.13,2.11H39.12c.07.64.13,1.29.2,1.93L18.56,122.9l4.49,1.59L0,126l0,1.38h20.1c10.92,0,21.84,0,32.77,0,7.87-.06,15.74-.21,23.61-.39,3.9-.09,8.6-1.8,11.53-.2,4.76,2.6,9.28,1.45,13.88,1.72,5.15.3,10.34,0,15.5.13a40.77,40.77,0,0,1,6.22,1.1l-.12,1.68c-6.21.29-12.42.57-18.64.89-7.09.36-14.2.69-21.29,1.14-10.29.67-20.56,1.43-30.84,2.16l-.15-1.49,6.94-1.63a95.4,95.4,0,0,0-12.55.14c-4,.24-8.39-.79-11.22,3.42-.16.24-1,0-1.45.06-3.07.28-6.13.59-9.2.89,6.27,1.58,12.42,2.65,18.6,3.58,5,.75,10,1.86,15,1.79,4,0,8.08-2.52,12.06-2.37,21.4.84,42.78,2.16,64.18,3.32h0c-4.6,1.18-9.12,2.89-13.77,3.39-5.56.58-11.24.13-16.87.13-.06.36-.13.72-.19,1.08l18.4,4-.09.79H95.35l0,.67h43.3V153l-12.95-.68c0-.21,0-.43,0-.65L155.85,150c-.59-1.52-.89-2.28-1.37-3.5,2.83,0,5,.11,7.14,0,1.85-.11,3.69-.5,6.68-.93l-33.48-2.15c3.26-.23,6.51-.52,9.77-.69,10.88-.57,21.77-1.52,32.66-1.47,5.86,0,10.49-3.43,17.22-2.44,13.85,2.05,28.22.62,42.38.62l0-.89H224l0-.79H344.61c-.58-1.27-.89-1.95-.94-2l83.93,2,0-.38-7.16-.93h58.42l0,2c-3.24,0-6.5-.24-9.71.05-12.38,1.11-24.73,2.66-37.13,3.53-9.91.69-19.86.77-29.8.88-6.46.08-12.94-.6-19.39-.37-13.77.49-27.52,1.67-41.3,2-23.31.55-46.64.67-70,1a48.09,48.09,0,0,0,13.28,1.92c11.3-.08,22.6-.54,33.89-.76,17.47-.34,34.94-.7,52.4-.88q61.47-.64,122.94-1.08c4.54,0,9.08.62,13.62.95,0,.21-.05.42-.07.64L288.61,149.5c3.33,1.16,6.64,1.14,10,1.16,7.76,0,7.76,0,6.89,2.6,14.73,0,29.53,0,44.32,0,31.44.08,62.89.26,94.33.28q41.49,0,83-.26c1.8,0,3.59-1.3,5.38-2l-.38-.68H508.87c0-.46,0-.91,0-1.37h86c0-.37,0-.74,0-1.12l-8.9-.86a7.85,7.85,0,0,1,3.93-.85c12.08,0,24.16.11,36.24,0,19-.2,37.93-.61,56.9-.76,2,0,4,1.13,6,1.74l-.27,1.37c-18.75-4.53-37.22-1.33-53.91,1.25,4.83.67,11.37,2.26,17.92,2.34,15.79.2,31.59-.32,47.38-.51,13.28-.15,26.56-.16,39.84-.4,19.58-.35,39.15-.84,58.73-1.32a48.52,48.52,0,0,0,4.9-.6l-.06-1.58-73.76-3.25c7-1,14-.75,21-1.06C757.57,143.32,764.34,142.1,771.14,141.93Z"/><path fill="#fff" d="M789.36,155c-17.6-.78-35.22-1.38-52.85-1.7-4.57-.09-9.17,1.45-13.77,1.56-13.28.29-26.58,0-39.86.41-7.09.2-14.16,1.54-21.26,1.83-4.93.19-9.91-.91-14.85-.78-6.14.17-12.25,1-18.59,1.59l1.59,1.81h-7.71L623.2,157,455,159.44a4.83,4.83,0,0,0,3.63,1.8c19.15,1.81,38.41-1,57.64,1.72,8,1.13,16.54,1.17,24.82-3.17,4.26-2.24,11,.25,16.57.51,6.4.28,12.82.82,19.2.55,4-.17,8-2.15,12-2.34,3.32-.16,6.68,1.43,10.07,1.66,4,.27,8-.56,11.94-.11,15.76,1.84,31.6.65,47.43,1.71,21.74,1.45,43.72-.88,65.6-1.16,14.29-.18,28.59.43,42.88.6,8.74.1,17.48,0,26.22,0l0-1.1H769.22c0-.66-.09-1.33-.14-2H800C796.4,156.51,792.91,155.11,789.36,155Z"/><path fill="#fff" d="M470.15,11.68l-.06,2.46h53.69l.07,1.16-5.74.83.06.91,57.37-2.29c0-.23,0-.45,0-.68l-4.5-1,8.1-1.41Z"/><path fill="#fff" d="M581.62,11.25l-2.5.43h2.48Z"/><path fill="#fff" d="M465.43,4.56l-3.07,2.19h38l0-.66L491,5.32l.21-2.27c7.1.66,14.73-.06,21.1,2.44,4.71,1.84,6.78,1.66,9.2-1.76-5.77-.58-11.27-1.47-16.79-1.61-11.42-.28-22.85-.22-34.27-.19-11.67,0-11.67.08-16.72,4.38l11.52-2.89C465.3,3.8,465.36,4.18,465.43,4.56Z"/><path fill="#fff" d="M751.46,21.3c2.61-.09,5.34-.53,7.81.06,8.3,2,16.51,3.5,25.29.29l-3-1.88,7.91-1.44V17.18L745.08,21C747.24,21.64,749.35,21.37,751.46,21.3Z"/><path fill="#fff" d="M355.09,8c2,1,3.73,2.49,6.61,4.47-.85-3.78-.85-3.78,6.94-7.34-6.39.4-12.77.91-19.17,1.13-2.23.08-4.48-.56-6.73-.83a41.34,41.34,0,0,0-7.41-.62c-.54,0-.94,2.34-1.58,4.05,6.71-.45,12.34-.85,18-1.17A6.83,6.83,0,0,1,355.09,8Z"/><path fill="#fff" d="M381.75,20.53c4.59.08,9.17.16,13.74.18C390.92,20.71,386.23,20.1,381.75,20.53Z"/><path fill="#fff" d="M346.47,21.57c10.89-.4,21.75,1.58,32.7-.68a24.63,24.63,0,0,1,2.58-.36c-16.51-.3-33.12-.69-49.65,1.11A116.76,116.76,0,0,0,346.47,21.57Z"/><path fill="#fff" d="M114.55,165.5h44V164C143.86,161.77,129.2,163.9,114.55,165.5Z"/><path fill="#fff" d="M599.42,151.12H559.88l.06.89h39.52C599.44,151.72,599.43,151.42,599.42,151.12Z"/><path fill="#fff" d="M182,164.65l0,.47h28.24c0-.72,0-1.44,0-2.16Z"/><path fill="#fff" d="M427.11,6.89c3.16-.74,5.76-3.91,9.76-6.89l-19,4.34C421.11,5.33,424.44,7.52,427.11,6.89Z"/><path fill="#fff" d="M317.8,13.76l6.29.68c-3.44-2.75-9.62-3.23-11.57-1.41s-3.85,3.41-4.84,4.29h11.09C318.44,16.11,318.17,15.1,317.8,13.76Z"/><path fill="#fff" d="M215,163.21c0,.23.1.46.16.69h25.24c0-.23,0-.46,0-.69Z"/><path fill="#fff" d="M546.92,6.11,526.24,4.66l-.18,2H546.9C546.91,6.5,546.92,6.3,546.92,6.11Z"/><path fill="#fff" d="M324.83,20.05l-22.39-1.17,0,1.5h22.41Z"/><path fill="#fff" d="M184.22,162.13H166.77c0,.56,0,1.12-.05,1.68l17.53-1.2Z"/><path fill="#fff" d="M792.74,3c0-.47-.07-.93-.1-1.4l-15.4,1.18c0,.31,0,.62.07.92Z"/><path fill="#fff" d="M786.9,134.59l10.43-.78-.41-2.55-10.17,2.51Z"/><path fill="#fff" d="M396.3,14.88H388l0,2.18,8.35-.4C396.33,16.07,396.31,15.47,396.3,14.88Z"/><path fill="#fff" d="M696,19.88H673.28l-.06.53H696Z"/></g></g></svg>